P2
# 8-bit pgm gray
100 100
255
  0   0   0   0   0   0   0   0   0   0   0   0   0   0   0   0   0   0   0   0   0   0   0   3
  0   0   0  42  70  89 126 154 122  80  87  84  85  85  86  89  89  90  94  98 108 116 120 123
123 127 152 174 186 191 196 195 194 194 192 191 191 188 184 182 183 184 172 165 165 163 160 161
174 190 182  72   0  18   0   0   0   0   0   0   0   0   0   0   0   0   0   0   0   0   0   0
  0   0   0   0
  0   0   0   0   0   0   0   0   0   0   0   0   0   0   0   0   0   0   0   0   0   0  11   0
 34 173 203 211 221 230 233 240 176   0   0   0   0   0   0   0   0   0   0   0  33  58  75  90
103 109 137 177 198 208 214 213 215 215 214 212 213 210 207 203 200 203 198 188 185 182 178 178
188 202 195  78   0  20   0   0   0   0   0   0   0   0   0   0   0   0   0   0   0   0   0   0
  0   0   0   0
  0   0   0   0   0   0   0   0   0   0   0   0   0   0   0   0   0   0   0   0   0   0  20   0
 55 230 254 248 250 246 244 250 201   0  28  25  23  23  23  24  23  25  37  49  61  74  88  99
108 114 121 156 182 199 203 204 207 208 208 207 206 206 203 200 193 191 195 189 182 178 173 174
184 192 179  70   0  17   0   0   0   0   0   0   0   0   0   0   0   0   0   0   0   0   0   0
  0   0   0   0
  0   0   0   0   0   0   0   0   0   0   0   0   0   0   0   0   0   0   0   0   0   0  19   0
 54 223 248 237 229 242 241 247 211   0   0  15   0   0   0   0   0   1  21  36  52  69  84  97
105 114 121 140 174 194 199 203 207 210 209 207 208 208 205 202 201 195 194 196 185 178 177 176
185 190 177  70   0  17   0   0   0   0   0   0   0   0   0   0   0   0   0   0   0   0   0   0
  0   0   0   0
  0   0   0   0   0   0   0   0   0   0   0   0   0   0   0   0   0   0   0   0   0   0  19   0
 54 224 251 234 202 244 243 247 221  54   0  24   0   2   2   2   2   2  19  35  50  67  84  94
104 114 120 126 162 184 193 202 206 207 209 209 209 208 206 204 204 202 193 194 192 180 175 175
183 187 177  70   0  17   0   0   0   0   0   0   0   0   0   0   0   0   0   0   0   0   0   0
  0   0   0   0
  0   0   0   0   0   0   0   0   0   0   0   0   0   0   0   0   0   0   0   0   0   0  19   0
 55 225 250 243 205 240 244 246 229  82   0  29   0   2   2   2   2   1  15  33  51  66  79  95
105 111 119 127 146 172 188 199 203 204 207 209 206 207 206 204 205 205 197 188 194 187 175 178
186 187 175  70   0  17   0   0   0   0   0   0   0   0   0   0   0   0   0   0   0   0   0   0
  0   0   0   0
  0   0   0   0   0   0   0   0   0   0   0   0   0   0   0   0   0   0   0   0   0   0  19   0
 53 226 249 220 190 240 243 245 235 105   0  33   0   2   2   1   2   0  15  32  46  63  76  90
104 112 119 129 131 157 179 191 198 203 205 206 208 206 207 206 204 204 204 195 192 193 183 179
188 183 171  70   0  17   0   0   0   0   0   0   0   0   0   0   0   0   0   0   0   0   0   0
  0   0   0   0
  0   0   0   0   0   0   0   0   0   0   0   0   0   0   0   0   0   0   0   0   0   0  19   0
 53 226 248 222 230 245 246 245 239 125   0  35   0   2   2   1   2   0  13  30  44  61  77  91
103 110 120 124 126 142 169 183 194 201 204 205 207 206 208 210 205 206 208 201 190 191 191 183
183 184 173  68   0  16   0   0   0   0   0   0   0   0   0   0   0   0   0   0   0   0   0   0
  0   0   0   0
  0   0   0   0   0   0   0   0   0   0   0   0   0   0   0   0   0   0   0   0   0   0  19   0
 54 225 249 244 244 244 230 241 244 141   0  36   0   2   1   1   2   0  10  28  44  61  79  92
102 112 117 122 129 135 157 176 188 198 202 203 202 205 208 210 207 206 207 203 197 192 192 190
183 184 176  68   0  17   0   0   0   0   0   0   0   0   0   0   0   0   0   0   0   0   0   0
  0   0   0   0
  0   0   0   0   0   0   0   0   0   0   0   0   0   0   0   0   0   0   0   0   0   0  19   0
 49 229 232 214 183 217 168 233 249 156   0  34   0   2   1   1   2   0   9  28  44  64  78  91
107 115 113 121 130 132 143 168 183 191 199 203 203 205 208 209 208 207 207 205 201 196 191 195
188 185 178  70   0  17   0   0   0   0   0   0   0   0   0   0   0   0   0   0   0   0   0   0
  0   0   0   0
  0   0   0   0   0   0   0   0   0   0   0   0   0   0   0   0   0   0   0   0   0   0  19   0
 44 231 229 208 182 160 168 232 249 171   0  29   1   2   1   1   2   0   9  28  47  64  78  92
106 113 118 122 124 130 136 158 177 184 195 202 204 203 206 208 209 208 205 204 201 200 193 193
194 190 179  71   0  18   0   0   0   0   0   0   0   0   0   0   0   0   0   0   0   0   0   0
  0   0   0   0
  0   0   0   0   0   0   0   0   0   0   0   0   0   0   0   0   0   0   0   0   0   0  19   0
 45 230 229 204 203 209 202 227 251 185   0  20   7   1   2   2   2   0  12  34  50  63  80  93
100 112 119 123 126 131 135 145 169 181 190 199 203 203 203 207 209 208 208 206 202 202 195 194
194 190 178  69   0  17   0   0   0   0   0   0   0   0   0   0   0   0   0   0   0   0   0   0
  0   0   0   0
  0   0   0   0   0   0   0   0   0   0   0   0   0   0   0   0   0   0   0   0   0   0  19   0
 62 218 203 213 229 245 238 235 248 195   0   2  14   0   1   2   2   0  16  39  52  65  83  91
100 110 116 118 125 130 133 136 157 178 184 194 203 206 203 205 208 207 206 205 202 201 197 199
194 193 182  70   0  18   0   0   0   0   0   0   0   0   0   0   0   0   0   0   0   0   0   0
  0   0   0   0
  0   0   0   0   0   0   0   0   0   0   0   0   0   0   0   0   0   0   0   0   0   0  19   0
 57 221 241 241 244 241 243 242 248 206   0   0  19   0   1   2   2   2  21  38  54  72  83  92
101 108 115 121 126 129 133 134 145 171 182 187 199 203 201 199 204 207 204 203 202 199 201 202
197 196 187  74   0  19   0   0   0   0   0   0   0   0   0   0   0   0   0   0   0   0   0   0
  0   0   0   0
  0   0   0   0   0   0   0   0   0   0   0   0   0   0   0   0   0   0   0   0   0   0  19   0
 52 226 253 246 248 249 248 245 248 206   0   0  21   0   2   2   1   5  24  39  58  73  83  93
104 112 117 125 127 131 133 134 135 159 178 182 190 199 201 199 201 207 205 202 201 199 202 201
199 196 187  75   0  19   0   0   0   0   0   0   0   0   0   0   0   0   0   0   0   0   0   0
  0   0   0   0
  0   0   0   0   0   0   0   0   0   0   0   0   0   0   0   0   0   0   0   0   0   0  18   0
 54 220 239 225 217 205 189 170 148 103   0   0   6   1   2   2   0  10  26  44  61  73  85  96
106 115 117 122 126 129 131 134 133 146 170 179 185 196 201 200 197 204 206 202 203 200 198 198
199 199 188  76   0  19   0   0   0   0   0   0   0   0   0   0   0   0   0   0   0   0   0   0
  0   0   0   0
  0   0   0   0   0   0   0   0   0   0   0   0   0   0   0   0   0   0   0   0   0   0   6   0
 29 118 112  79  43   0   0   0   0   0   3   3   1   2   1   2   1  15  31  48  61  76  90  96
103 111 116 122 126 131 132 134 137 139 159 176 182 190 198 200 197 198 205 204 203 201 195 198
202 203 191  77   0  19   0   0   0   0   0   0   0   0   0   0   0   0   0   0   0   0   0   0
  0   0   0   0
  0   0   0   0   0   0   0   0   0   0   0   0   0   0   0   0   0   0   0   0   0   0   0   4
  0   0   0   0   0   0  19  32  37  29   1   1   3   2   2   1   3  20  36  51  66  80  88  95
105 113 118 124 130 131 132 131 132 133 148 173 181 186 195 199 199 195 201 206 202 202 199 196
204 206 192  75   0  19   0   0   0   0   0   0   0   0   0   0   0   0   0   0   0   0   0   0
  0   0   0   0
  0   0   0   0   0   0   0   0   0   0   0   0   0   0   0   0   0   0   0   0   0   0   0   0
  2  29  33  30  25  18   9   0   0   0   2   2   2   2   2   1   7  24  39  55  69  83  94 104
111 118 124 128 127 128 128 128 132 135 141 164 179 184 190 195 198 195 197 203 203 201 201 197
202 207 193  75   0  19   0   0   0   0   0   0   0   0   0   0   0   0   0   0   0   0   0   0
  0   0   0   0
  0   0   0   0   0   0   0   0   0   0   0   0   0   0   0   0   0   0   0   0   0   0   0   0
  0   0   0   0   0   0   1   2   3   2   2   2   2   2   2   1  12  27  43  58  73  88  99 109
117 121 126 126 126 127 129 131 133 134 135 153 174 181 184 191 196 195 194 200 204 201 199 199
198 206 197  78   0  20   0   0   0   0   0   0   0   0   0   0   0   0   0   0   0   0   0   0
  0   0   0   0
  0   0   0   0   0   0   0   0   0   0   0   0   0   0   0   0   0   0   0   0   0   0   0   0
  0   3   4   3   3   2   2   2   2   2   2   2   2   2   2   2  18  32  46  63  78  90  98 111
122 124 124 125 128 129 131 131 132 133 136 146 168 179 182 190 194 193 193 198 202 200 197 199
199 205 201  80   0  21   0   0   0   0   0   0   0   0   0   0   0   0   0   0   0   0   0   0
  0   0   0   0
  0   0   0   0   0   0   0   0   0   0   0   0   0   0   0   0   0   0   0   0   0   0   0   0
  0   3   4   3   2   2   2   2   2   2   2   2   2   2   1   5  23  37  52  69  82  93 104 118
126 126 125 127 130 129 130 130 132 134 135 139 161 178 182 188 190 191 192 194 198 198 196 200
203 203 199  82   0  21   0   0   0   0   0   0   0   0   0   0   0   0   0   0   0   0   0   0
  0   0   0   0
  0   0   0   0   0   0   0   0   0   0   0   0   0   0   0   0   0   0   0   0   0   0   0   0
  0   3   4   3   3   3   2   2   2   2   2   2   2   2   1  11  28  42  58  74  87  99 110 120
127 126 127 131 131 129 131 132 133 135 137 139 156 178 182 184 188 190 191 194 198 195 195 200
203 202 198  82   0  21   0   0   0   0   0   0   0   0   0   0   0   0   0   0   0   0   0   0
  0   0   0   0
  0   0   0   0   0   0   0   0   0   0   0   0   0   0   0   0   0   0   0   0   0   0   0   0
  0   3   4   3   3   3   3   2   2   2   2   2   2   2   2  17  33  47  65  80  93 106 114 120
128 129 131 132 132 132 134 135 137 138 139 138 148 171 177 179 185 188 190 195 197 195 193 198
201 205 198  81   0  21   0   0   0   0   0   0   0   0   0   0   0   0   0   0   0   0   0   0
  0   0   0   0
  0   0   0   0   0   0   0   0   0   0   0   0   0   0   0   0   0   0   0   0   0   0   0   0
  0   3   4   3   3   3   3   3   2   2   2   2   2   1   5  24  39  54  72  86  98 109 120 127
129 133 133 130 131 131 133 135 135 137 137 135 140 162 176 180 183 186 189 192 193 194 192 197
203 208 199  80   0  21   0   0   0   0   0   0   0   0   0   0   0   0   0   0   0   0   0   0
  0   0   0   0
  0   0   0   0   0   0   0   0   0   0   0   0   0   0   0   0   0   0   0   0   0   0   0   0
  0   3   4   3   3   3   3   3   2   2   2   2   2   0  12  30  45  60  77  90 104 115 127 133
134 134 132 132 131 131 133 133 133 134 135 135 136 157 176 177 177 184 186 188 194 195 194 194
200 208 199  80   0  21   0   0   0   0   0   0   0   0   0   0   0   0   0   0   0   0   0   0
  0   0   0   0
  0   0   0   0   0   0   0   0   0   0   0   0   0   0   0   0   0   0   0   0   0   0   0   0
  0   3   4   3   3   3   3   3   3   2   2   2   2   2  19  34  50  68  85  98 112 123 132 135
135 133 132 134 132 132 132 131 131 132 135 135 136 153 172 174 176 183 186 186 193 196 194 190
195 209 205  83   0  22   0   0   0   0   0   0   0   0   0   0   0   0   0   0   0   0   0   0
  0   0   0   0
  0   0   0   0   0   0   0   0   0   0   0   0   0   0   0   0   0   0   0   0   0   0   0   0
  0   3   4   3   3   3   3   3   3   2   2   2   1   6  25  39  56  75  93 105 116 130 144 138
136 138 134 131 132 131 132 133 135 136 137 136 138 148 166 172 175 180 186 184 190 194 192 189
192 208 210  84   0  22   0   0   0   0   0   0   0   0   0   0   0   0   0   0   0   0   0   0
  0   0   0   0
  0   0   0   0   0   0   0   0   0   0   0   0   0   0   0   0   0   0   0   0   0   0   0   0
  0   3   4   3   3   3   3   3   3   2   2   2   1  13  30  45  63  81  97 108 127 153 158 144
139 138 135 133 134 134 136 135 135 136 137 140 142 143 157 170 171 172 184 183 188 194 192 190
191 204 205  84   0  22   0   0   0   0   0   0   0   0   0   0   0   0   0   0   0   0   0   0
  0   0   0   0
  0   0   0   0   0   0   0   0   0   0   0   0   0   0   0   0   0   0   0   0   0   0   0   0
  0   3   4   3   3   3   3   3   3   2   2   2   3  20  35  53  72  88 102 113 145 174 166 147
136 135 135 133 133 134 132 133 133 132 136 142 140 137 149 167 174 174 183 186 186 191 191 191
189 199 202  84   0  22   0   0   0   0   0   0   0   0   0   0   0   0   0   0   0   0   0   0
  0   0   0   0
  0   0   0   0   0   0   0   0   0   0   0   0   0   0   0   0   0   0   0   0   0   0   0   0
  0   3   4   3   3   3   3   3   3   3   3   1   8  27  44  62  80  95 109 117 151 179 171 149
136 135 133 132 133 135 133 134 132 132 136 139 137 137 145 164 177 179 180 185 185 188 191 194
190 196 197  84   0  21   0   0   0   0   0   0   0   0   0   0   0   0   0   0   0   0   0   0
  0   0   0   0
  0   0   0   0   0   0   0   0   0   0   0   0   0   0   0   0   0   0   0   0   0   0   0   0
  0   3   4   3   3   3   3   3   3   2   2   1  15  34  52  69  84 102 116 122 153 170 158 141
136 133 133 134 136 135 134 132 133 134 135 139 139 140 144 160 174 176 175 182 183 185 187 191
191 195 195  81   0  21   0   0   0   0   0   0   0   0   0   0   0   0   0   0   0   0   0   0
  0   0   0   0
  0   0   0   0   0   0   0   0   0   0   0   0   0   0   0   0   0   0   0   0   0   0   0   0
  0   3   4   3   3   3   3   3   3   2   2   3  24  41  58  76  93 109 117 132 162 161 147 139
137 138 138 137 133 132 135 135 134 133 135 139 140 139 141 154 163 170 174 177 178 182 185 189
191 194 192  78   0  20   0   0   0   0   0   0   0   0   0   0   0   0   0   0   0   0   0   0
  0   0   0   0
  0   0   0   0   0   0   0   0   0   0   0   0   0   0   0   0   0   0   0   0   0   0   0   0
  0   3   3   3   3   3   3   3   3   3   1   8  31  48  66  85 101 112 122 153 168 161 152 147
142 144 140 134 134 136 137 139 138 140 141 140 139 140 141 148 160 167 171 173 178 183 183 185
190 195 190  77   0  19   0   0   0   0   0   0   0   0   0   0   0   0   0   0   0   0   0   0
  0   0   0   0
  0   0   0   0   0   0   0   0   0   0   0   0   0   0   0   0   0   0   0   0   0   0   0   0
  0   3   3   3   3   3   3   3   3   3   0  17  40  57  76  94 108 117 141 160 153 151 149 147
141 137 135 136 139 139 138 138 139 140 140 139 138 142 141 145 157 164 170 174 179 183 182 182
189 197 193  78   0  20   0   0   0   0   0   0   0   0   0   0   0   0   0   0   0   0   0   0
  0   0   0   0
  0   0   0   0   0   0   0   0   0   0   0   0   0   0   0   0   0   0   0   0   0   0   0   0
  0   3   3   3   3   3   2   3   3   2   3  25  46  69  88 103 113 126 155 152 147 156 158 148
146 142 137 136 135 132 132 135 135 133 135 138 140 141 140 141 151 164 170 174 177 182 183 181
187 199 192  77   0  20   0   0   0   0   0   0   0   0   0   0   0   0   0   0   0   0   0   0
  0   0   0   0
  0   0   0   0   0   0   0   0   0   0   0   0   0   0   0   0   0   0   0   0   0   0   0   0
  0   3   3   3   3   2   2   2   3   1   8  33  54  77  95 108 117 139 156 150 155 160 155 144
141 138 134 133 129 130 135 137 135 135 139 142 141 141 141 139 146 162 170 175 179 182 183 182
185 197 191  75   0  19   0   0   0   0   0   0   0   0   0   0   0   0   0   0   0   0   0   0
  0   0   0   0
  0   0   0   0   0   0   0   0   0   0   0   0   0   0   0   0   0   0   0   0   0   0   0   0
  0   3   3   3   2   3   2   4   4   0  17  43  63  83  99 112 122 148 153 162 165 154 145 135
133 133 134 133 133 138 139 134 136 140 140 142 140 139 141 139 145 158 168 177 180 178 181 183
182 193 191  76   0  19   0   0   0   0   0   0   0   0   0   0   0   0   0   0   0   0   0   0
  0   0   0   0
  0   0   0   0   0   0   0   0   0   0   0   0   0   0   0   0   0   0   0   0   0   0   0   0
  0   3   4   3   3   3   2   4   3   0  28  52  70  90 105 115 135 163 164 173 164 147 140 132
132 140 140 137 137 137 137 134 136 138 137 139 141 140 139 142 145 152 163 174 176 175 180 184
180 188 189  78   0  19   0   0   0   0   0   0   0   0   0   0   0   0   0   0   0   0   0   0
  0   0   0   0
  0   0   0   0   0   0   0   0   0   0   0   0   0   0   0   0   0   0   0   0   0   0   0   0
  0   3   4   3   3   3   2   2   2   2  35  56  78  99 109 127 154 176 182 170 160 149 143 136
137 142 137 138 134 136 136 134 136 136 137 140 144 142 140 142 143 147 159 171 175 178 180 183
183 186 188  79   0  20   0   0   0   0   0   0   0   0   0   0   0   0   0   0   0   0   0   0
  0   0   0   0
  0   0   0   0   0   0   0   0   0   0   0   0   0   0   0   0   0   0   0   0   0   0   0   0
  0   3   3   3   3   3   2   3   0   8  39  61  86 103 116 149 162 180 183 170 162 150 143 138
144 140 135 135 133 133 135 136 135 137 144 145 142 140 140 141 144 146 155 167 173 176 178 183
185 188 186  78   0  19   0   0   0   0   0   0   0   0   0   0   0   0   0   0   0   0   0   0
  0   0   0   0
  0   0   0   0   0   0   0   0   0   0   0   0   0   0   0   0   0   0   0   0   0   0   0   0
  0   3   3   3   3   3   3   3   0  16  45  67  88 102 138 166 166 179 172 174 157 142 135 135
136 138 139 135 133 134 137 136 136 142 147 143 139 141 142 143 142 144 154 164 170 173 176 185
190 190 182  75   0  18   0   0   0   0   0   0   0   0   0   0   0   0   0   0   0   0   0   0
  0   0   0   0
  0   0   0   0   0   0   0   0   0   0   0   0   0   0   0   0   0   0   0   0   0   0   0   0
  0   3   3   3   3   3   3   3   0  23  50  72  88 114 161 171 175 166 159 163 148 136 135 134
137 143 140 137 134 134 132 135 136 140 141 139 143 144 144 141 140 142 152 162 167 171 176 184
190 190 181  73   0  18   0   0   0   0   0   0   0   0   0   0   0   0   0   0   0   0   0   0
  0   0   0   0
  0   0   0   0   0   0   0   0   0   0   0   0   0   0   0   0   0   0   0   0   0   0   0   0
  0   3   3   3   3   3   3   3   0  29  57  77  90 140 174 165 169 158 152 151 144 137 136 143
150 144 137 137 134 133 133 135 136 140 139 140 145 144 142 141 143 144 153 160 164 168 173 180
187 193 184  71   0  18   0   0   0   0   0   0   0   0   0   0   0   0   0   0   0   0   0   0
  0   0   0   0
  0   0   0   0   0   0   0   0   0   0   0   0   0   0   0   0   0   0   0   0   0   0   0   0
  0   3   3   3   3   2   3   3   0  33  65  80 100 164 180 164 164 153 149 148 142 137 139 148
147 143 136 132 133 133 133 135 137 140 139 143 144 142 143 141 141 146 149 156 164 169 173 180
188 195 185  71   0  18   0   0   0   0   0   0   0   0   0   0   0   0   0   0   0   0   0   0
  0   0   0   0
  0   0   0   0   0   0   0   0   0   0   0   0   0   0   0   0   0   0   0   0   0   0   0   0
  0   3   3   3   3   3   3   3   0  39  69  81 116 167 175 168 164 152 148 148 147 144 146 142
140 143 137 133 137 135 135 135 135 140 144 143 140 143 142 140 145 146 145 153 160 166 174 182
187 193 183  71   0  18   0   0   0   0   0   0   0   0   0   0   0   0   0   0   0   0   0   0
  0   0   0   0
  0   0   0   0   0   0   0   0   0   0   0   0   0   0   0   0   0   0   0   0   0   0   0   0
  0   3   3   3   3   3   3   4   0  44  72  82 120 158 170 168 160 156 157 158 158 152 144 138
141 138 135 135 138 136 139 137 138 146 146 140 141 141 140 145 145 142 142 146 156 164 177 182
185 192 185  74   0  19   0   0   0   0   0   0   0   0   0   0   0   0   0   0   0   0   0   0
  0   0   0   0
  0   0   0   0   0   0   0   0   0   0   0   0   0   0   0   0   0   0   0   0   0   0   0   0
  0   3   3   3   3   3   3   3   0  50  74  86 124 151 163 170 161 154 149 156 164 151 141 142
141 137 137 135 138 143 144 141 145 144 138 138 138 139 146 146 140 141 140 144 154 162 173 179
181 191 189  77   0  19   0   0   0   0   0   0   0   0   0   0   0   0   0   0   0   0   0   0
  0   0   0   0
  0   0   0   0   0   0   0   0   0   0   0   0   0   0   0   0   0   0   0   0   0   0   0   0
  0   3   3   3   3   2   4   2   0  61  81  95 125 148 162 168 158 145 141 147 151 144 145 149
144 138 138 138 141 142 140 141 146 140 136 137 140 143 146 141 138 140 139 142 152 158 169 177
180 189 188  76   0  19   0   0   0   0   0   0   0   0   0   0   0   0   0   0   0   0   0   0
  0   0   0   0
  0   0   0   0   0   0   0   0   0   0   0   0   0   0   0   0   0   0   0   0   0   0   0   0
  0   3   3   3   3   2   4   3   0  68  92 103 127 148 154 157 148 139 143 148 144 145 142 139
137 136 136 138 138 134 134 139 141 138 139 141 145 146 141 140 141 139 141 144 148 157 169 178
181 188 185  73   0  18   0   0   0   0   0   0   0   0   0   0   0   0   0   0   0   0   0   0
  0   0   0   0
  0   0   0   0   0   0   0   0   0   0   0   0   0   0   0   0   0   0   0   0   0   0   0   0
  0   3   3   3   3   3   3   7   0  67 112 118 132 138 145 153 142 139 146 150 146 144 140 134
132 137 135 135 138 137 136 138 136 136 141 145 146 143 142 143 141 140 143 142 144 154 165 172
177 184 180  73   0  18   0   0   0   0   0   0   0   0   0   0   0   0   0   0   0   0   0   0
  0   0   0   0
  0   0   0   0   0   0   0   0   0   0   0   0   0   0   0   0   0   0   0   0   0   0   0   0
  0   3   4   3   3   2   2   9   0  53 107 119 124 128 145 156 141 145 149 142 141 142 141 135
133 134 134 138 138 136 137 137 136 138 140 141 141 141 140 138 137 139 141 138 143 152 163 169
174 184 180  73   0  18   0   0   0   0   0   0   0   0   0   0   0   0   0   0   0   0   0   0
  0   0   0   0
  0   0   0   0   0   0   0   0   0   0   0   0   0   0   0   0   0   0   0   0   0   0   0   0
  0   3   4   3   2   2   2   6   0  29  78 107 119 123 146 156 146 149 141 134 136 137 140 135
146 161 135 139 138 135 135 136 136 140 138 137 136 139 138 138 140 140 142 142 144 152 161 169
174 183 179  72   0  18   0   0   0   0   0   0   0   0   0   0   0   0   0   0   0   0   0   0
  0   0   0   0
  0   0   0   0   0   0   0   0   0   0   0   0   0   0   0   0   0   0   0   0   0   0   0   0
  0   3   3   3   3   3   2   4   0   4  56  95 113 116 136 158 152 147 138 133 133 135 136 133
144 154 141 138 136 135 135 136 138 137 136 135 136 139 139 141 140 138 141 143 141 147 157 168
175 180 175  71   0  17   0   0   0   0   0   0   0   0   0   0   0   0   0   0   0   0   0   0
  0   0   0   0
  0   0   0   0   0   0   0   0   0   0   0   0   0   0   0   0   0   0   0   0   0   0   0   0
  0   3   3   3   3   3   3   3   3   0  34  77 103 112 133 161 151 142 139 133 133 141 139 134
135 136 139 133 135 138 135 137 142 140 137 137 140 140 139 141 139 140 146 145 143 145 153 164
170 176 175  72   0  17   0   0   0   0   0   0   0   0   0   0   0   0   0   0   0   0   0   0
  0   0   0   0
  0   0   0   0   0   0   0   0   0   0   0   0   0   0   0   0   0   0   0   0   0   0   0   0
  0   3   4   3   3   3   2   2   4   0  18  62  93 106 126 153 150 140 134 129 131 139 137 134
133 132 132 132 135 138 137 137 138 141 139 139 142 139 141 144 144 144 143 142 144 143 147 158
167 178 178  72   0  18   0   0   0   0   0   0   0   0   0   0   0   0   0   0   0   0   0   0
  0   0   0   0
  0   0   0   0   0   0   0   0   0   0   0   0   0   0   0   0   0   0   0   0   0   0   0   0
  0   3   3   3   3   2   2   2   3   1   7  42  75 100 121 145 145 140 135 133 133 129 132 134
133 131 133 133 132 138 141 136 136 141 140 139 145 143 139 139 140 138 135 136 140 143 143 154
167 178 177  72   0  17   0   0   0   0   0   0   0   0   0   0   0   0   0   0   0   0   0   0
  0   0   0   0
  0   0   0   0   0   0   0   0   0   0   0   0   0   0   0   0   0   0   0   0   0   0   0   0
  0   3   3   3   3   3   3   2   2   3   1  28  56  86 110 136 142 140 138 136 133 131 138 136
136 134 134 134 134 140 143 140 140 143 140 138 141 139 137 139 139 136 136 136 137 142 143 146
159 172 173  72   0  17   0   0   0   0   0   0   0   0   0   0   0   0   0   0   0   0   0   0
  0   0   0   0
  0   0   0   0   0   0   0   0   0   0   0   0   0   0   0   0   0   0   0   0   0   0   0   0
  0   3   4   3   3   3   3   3   3   3   0  17  44  70  98 127 150 150 138 137 133 136 139 137
140 139 136 136 136 138 143 147 144 141 138 140 138 135 137 139 139 136 137 139 140 142 142 142
149 168 169  69   0  16   0   0   0   0   0   0   0   0   0   0   0   0   0   0   0   0   0   0
  0   0   0   0
  0   0   0   0   0   0   0   0   0   0   0   0   0   0   0   0   0   0   0   0   0   0   0   0
  0   3   4   3   3   3   3   3   2   3   2   4  34  56  83 110 138 154 147 145 144 138 134 140
145 141 140 137 137 136 138 140 138 138 137 137 136 135 135 136 137 139 138 141 141 141 142 143
148 164 170  70   0  16   0   0   0   0   0   0   0   0   0   0   0   0   0   0   0   0   0   0
  0   0   0   0
  0   0   0   0   0   0   0   0   0   0   0   0   0   0   0   0   0   0   0   0   0   0   0   0
  0   3   4   3   3   3   3   3   2   2   3   0  21  46  70  97 120 139 151 151 144 143 137 137
140 139 138 135 135 134 135 135 135 136 137 136 132 134 134 137 140 139 137 140 139 140 142 147
150 159 165  69   0  16   0   0   0   0   0   0   0   0   0   0   0   0   0   0   0   0   0   0
  0   0   0   0
  0   0   0   0   0   0   0   0   0   0   0   0   0   0   0   0   0   0   0   0   0   0   0   0
  0   3   4   3   3   3   3   3   2   2   3   1   6  35  58  84 106 128 143 144 138 142 139 136
138 141 138 130 131 134 137 135 135 136 136 134 133 134 135 137 139 135 136 143 145 142 141 146
153 157 157  65   0  15   0   0   0   0   0   0   0   0   0   0   0   0   0   0   0   0   0   0
  0   0   0   0
  0   0   0   0   0   0   0   0   0   0   0   0   0   0   0   0   0   0   0   0   0   0   0   0
  0   3   4   3   3   3   3   3   2   2   2   3   0  20  44  68  91 117 143 141 134 132 135 133
136 140 134 127 129 130 132 130 135 136 131 131 131 133 135 135 135 136 139 140 139 138 138 143
155 160 152  62   0  14   0   0   0   0   0   0   0   0   0   0   0   0   0   0   0   0   0   0
  0   0   0   0
  0   0   0   0   0   0   0   0   0   0   0   0   0   0   0   0   0   0   0   0   0   0   0   0
  0   3   4   3   3   3   3   3   3   3   2   3   2   3  29  53  77  99 123 135 128 123 130 133
127 129 131 129 129 128 128 132 138 137 130 131 133 137 137 133 135 137 137 135 135 140 143 146
155 162 150  59   0  13   0   0   0   0   0   0   0   0   0   0   0   0   0   0   0   0   0   0
  0   0   0   0
  0   0   0   0   0   0   0   0   0   0   0   0   0   0   0   0   0   0   0   0   0   0   0   0
  0   3   3   3   3   3   3   3   3   3   3   2   3   1  13  37  58  80 101 121 126 124 127 134
134 131 136 133 130 130 133 138 137 125 126 132 136 139 133 136 139 142 137 136 140 141 146 148
155 163 152  58   0  13   0   0   0   0   0   0   0   0   0   0   0   0   0   0   0   0   0   0
  0   0   0   0
  0   0   0   0   0   0   0   0   0   0   0   0   0   0   0   0   0   0   0   0   0   0   0   0
  0   3   3   3   3   3   3   3   3   2   3   2   3   3   1  23  44  65  86 106 121 123 122 127
130 131 137 139 135 132 137 138 129 154 158 144 143 135 135 136 138 140 136 137 140 140 143 145
157 164 151  56   0  13   0   0   0   0   0   0   0   0   0   0   0   0   0   0   0   0   0   0
  0   0   0   0
  0   0   0   0   0   0   0   0   0   0   0   0   0   0   0   0   0   0   0   0   0   0   0   0
  0   3   4   3   3   3   3   3   3   3   3   3   3   3   2   6  30  47  69  89 111 123 126 127
131 129 129 137 138 134 134 136 130 198 229 177 144 137 130 130 131 129 132 140 141 139 140 148
159 165 153  58   0  13   0   0   0   0   0   0   0   0   0   0   0   0   0   0   0   0   0   0
  0   0   0   0
  0   0   0   0   0   0   0   0   0   0   0   0   0   0   0   0   0   0   0   0   0   0   0   0
  0   3   3   3   3   3   3   3   3   3   2   2   3   3   3   1  13  33  50  70  88 108 122 125
129 129 127 130 134 134 130 139 139 155 195 166 138 163 174 123 124 128 135 139 138 139 141 147
157 166 154  58   0  13   0   0   0   0   0   0   0   0   0   0   0   0   0   0   0   0   0   0
  0   0   0   0
  0   0   0   0   0   0   0   0   0   0   0   0   0   0   0   0   0   0   0   0   0   0   0   0
  0   3   4   3   3   3   3   3   3   3   2   3   3   3   3   3   0  18  35  51  68  87 107 114
117 121 123 122 124 127 129 136 130 121 113 123 131 141 152 119 120 130 134 136 141 139 141 146
157 167 152  56   0  13   0   0   0   0   0   0   0   0   0   0   0   0   0   0   0   0   0   0
  0   0   0   0
  0   0   0   0   0   0   0   0   0   0   0   0   0   0   0   0   0   0   0   0   0   0   0   0
  0   3   4   3   3   3   3   3   3   2   2   3   3   3   3   3   3   2  21  36  51  68  87 100
105 109 114 115 117 119 120 125 125 122 124 118 115 113 109 115 116 123 128 134 138 137 141 143
156 166 150  56   0  12   0   0   0   0   0   0   0   0   0   0   0   0   0   0   0   0   0   0
  0   0   0   0
  0   0   0   0   0   0   0   0   0   0   0   0   0   0   0   0   0   0   0   0   0   0   0   0
  0   3   4   3   3   3   3   3   3   3   3   3   3   3   2   3   3   2   4  22  37  49  64  84
 95  99 104 108 113 117 115 117 122 118 119 117 114 118 117 114 118 121 126 132 136 140 139 137
152 165 152  57   0  13   0   0   0   0   0   0   0   0   0   0   0   0   0   0   0   0   0   0
  0   0   0   0
  0   0   0   0   0   0   0   0   0   0   0   0   0   0   0   0   0   0   0   0   0   0   0   0
  0   3   4   3   3   3   3   3   3   3   3   3   3   3   3   3   3   3   3   4  22  37  47  61
 79  90  96 103 110 113 112 112 117 117 113 113 113 114 113 113 117 117 122 129 133 134 136 137
152 164 150  57   0  13   0   0   0   0   0   0   0   0   0   0   0   0   0   0   0   0   0   0
  0   0   0   0
  0   0   0   0   0   0   0   0   0   0   0   0   0   0   0   0   0   0   0   0   0   0   0   0
  0   3   4   3   3   3   3   3   3   3   3   3   3   3   3   3   3   3   3   2   4  19  34  45
 57  75  88  95  99 103 102 106 112 106 103 106 107 104 103 103 105 105 113 121 127 132 135 138
154 165 149  57   0  13   0   0   0   0   0   0   0   0   0   0   0   0   0   0   0   0   0   0
  0   0   0   0
  0   0   0   0   0   0   0   0   0   0   0   0   0   0   0   0   0   0   0   0   0   0   0   0
  0   4   4   4   3   3   3   3   3   3   3   3   3   3   3   3   3   3   2   3   2   3  15  30
 41  51  68  81  88  94  94 100 101  96  98  99 100  97  97  97  93  95 107 118 127 131 132 138
154 167 150  56   0  13   0   0   0   0   0   0   0   0   0   0   0   0   0   0   0   0   0   0
  0   0   0   0
  0   0   0   0   0   0   0   0   0   0   0   0   0   0   0   0   0   0   0   0   0   0   0   0
  0   4   4   3   3   3   3   3   3   3   3   3   3   3   3   3   3   3   3   2   3   2   2  11
 25  37  50  59  71  81  88  92  92  94  97  93  89  88  88  87  85  86 101 115 123 127 127 133
151 170 154  55   0  13   0   0   0   0   0   0   0   0   0   0   0   0   0   0   0   0   0   0
  0   0   0   0
  0   0   0   0   0   0   0   0   0   0   0   0   0   0   0   0   0   0   0   0   0   0   0   0
  0   4   4   3   3   3   3   3   3   3   3   3   3   3   3   3   3   2   3   3   2   3   2   2
  6  18  27  36  47  57  67  72  76  81  85  87  83  81  81  81  81  82  97 110 115 120 124 132
148 169 156  58   0  13   0   0   0   0   0   0   0   0   0   0   0   0   0   0   0   0   0   0
  0   0   0   0
  0   0   0   0   0   0   0   0   0   0   0   0   0   0   0   0   0   0   0   0   0   0   0   0
  0   4   4   3   3   3   3   3   3   3   3   3   3   3   3   3   3   2   2   2   2   2   3   2
  2   3  11  22  32  39  46  53  57  61  64  67  73  74  74  75  75  75  87 101 108 113 120 129
143 165 151  56   0  13   0   0   0   0   0   0   0   0   0   0   0   0   0   0   0   0   0   0
  0   0   0   0
  0   0   0   0   0   0   0   0   0   0   0   0   0   0   0   0   0   0   0   0   0   0   0   0
  0   4   4   4   3   3   4   3   3   3   3   3   3   3   3   3   3   3   3   3   2   3   2   2
  3   3   3   6  15  24  31  37  43  49  54  55  56  60  65  66  67  69  76  90 105 110 117 125
140 164 152  54   0  12   0   0   0   0   0   0   0   0   0   0   0   0   0   0   0   0   0   0
  0   0   0   0
  0   0   0   0   0   0   0   0   0   0   0   0   0   0   0   0   0   0   0   0   0   0   0   0
  0   4   4   4   4   3   4   4   3   3   3   3   3   3   3   3   3   3   3   3   3   3   2   2
  3   3   2   2   3   7  16  23  28  32  37  44  48  51  54  56  59  64  70  83  99 110 116 125
137 161 157  58   0  13   0   0   0   0   0   0   0   0   0   0   0   0   0   0   0   0   0   0
  0   0   0   0
  0   0   0   0   0   0   0   0   0   0   0   0   0   0   0   0   0   0   0   0   0   0   0   0
  0   4   4   4   4   4   4   4   4   3   3   3   3   3   3   3   3   3   3   3   3   3   3   2
  3   2   2   2   3   2   3   8  16  21  24  29  34  40  43  46  49  54  59  67  86 104 113 120
130 157 155  55   0  13   0   0   0   0   0   0   0   0   0   0   0   0   0   0   0   0   0   0
  0   0   0   0
  0   0   0   0   0   0   0   0   0   0   0   0   0   0   0   0   0   0   0   0   0   0   0   0
  0   4   5   4   4   4   4   4   4   3   3   3   3   3   3   3   3   3   3   3   3   3   3   2
  3   2   2   2   2   3   3   2   3   7  13  18  22  27  31  35  41  45  50  55  71  93 105 114
123 152 152  54   0  12   0   0   0   0   0   0   0   0   0   0   0   0   0   0   0   0   0   0
  0   0   0   0
  0   0   0   0   0   0   0   0   0   0   0   0   0   0   0   0   0   0   0   0   0   0   0   0
  0   4   4   4   4   4   4   4   4   3   3   2   3   3   3   3   3   3   3   3   3   3   3   3
  2   2   2   2   2   3   4   3   3   2   2   6  11  18  23  27  32  35  41  48  65  88  99 110
119 146 153  55   0  13   0   0   0   0   0   0   0   0   0   0   0   0   0   0   0   0   0   0
  0   0   0   0
  0   0   0   0   0   0   0   0   0   0   0   0   0   0   0   0   0   0   0   0   0   0   0   0
  0   4   4   4   4   4   4   4   4   3   3   3   3   3   3   3   3   3   3   3   3   3   3   3
  2   2   2   2   2   3   3   3   3   3   3   2   2   3   8  14  19  24  30  35  50  79  95 104
116 142 152  57   0  13   0   0   0   0   0   0   0   0   0   0   0   0   0   0   0   0   0   0
  0   0   0   0
  0   0   0   0   0   0   0   0   0   0   0   0   0   0   0   0   0   0   0   0   0   0   0   0
  0   4   5   4   4   4   4   4   4   3   3   3   3   3   3   3   3   3   3   3   3   3   3   3
  3   2   2   2   3   3   3   3   3   3   3   3   3   3   2   2   4  11  19  24  23  67  94  96
110 133 146  57   0  12   0   0   0   0   0   0   0   0   0   0   0   0   0   0   0   0   0   0
  0   0   0   0
  0   0   0   0   0   0   0   0   0   0   0   0   0   0   0   0   0   0   0   0   0   0   0   0
  0   4   5   4   4   4   4   4   4   3   3   3   3   3   3   3   3   3   3   3   3   3   3   3
  3   3   2   2   3   3   3   3   3   3   3   3   3   3   3   3   2   2   3  11   7  30  93  99
 97 121 138  58   0  12   0   0   0   0   0   0   0   0   0   0   0   0   0   0   0   0   0   0
  0   0   0   0
  0   0   0   0   0   0   0   0   0   0   0   0   0   0   0   0   0   0   0   0   0   0   0   0
  0   4   5   4   4   4   4   4   4   4   3   3   3   3   4   3   3   3   3   4   3   3   3   3
  3   2   2   2   3   3   4   4   3   3   3   3   3   3   3   3   3   4   4   2   9   0  60  99
 92 103 122  54   0  10   0   0   0   0   0   0   0   0   0   0   0   0   0   0   0   0   0   0
  0   0   0   0
  0   0   0   0   0   0   0   0   0   0   0   0   0   0   0   0   0   0   0   0   0   0   0   0
  0   4   5   5   4   4   4   4   4   4   4   3   3   3   4   4   3   3   3   3   3   3   3   3
  3   3   3   3   3   3   4   4   4   4   3   4   3   3   3   3   3   4   4   4   4   6   0  49
 76  90 105  45   0   7   0   0   0   0   0   0   0   0   0   0   0   0   0   0   0   0   0   0
  0   0   0   0
  0   0   0   0   0   0   0   0   0   0   0   0   0   0   0   0   0   0   0   0   0   0   0   0
  0   5   6   5   5   4   4   4   4   4   4   3   3   3   4   4   4   3   4   3   3   3   3   3
  3   3   3   3   3   4   4   4   4   4   4   4   3   3   3   3   3   4   4   3   3   5   5   0
 27  61  86  38   0   5   0   0   0   0   0   0   0   0   0   0   0   0   0   0   0   0   0   0
  0   0   0   0
  0   0   0   0   0   0   0   0   0   0   0   0   0   0   0   0   0   0   0   0   0   0   0   0
  0   5   6   5   5   5   5   4   4   4   4   3   3   4   4   4   4   3   4   3   3   3   3   3
  3   3   2   3   3   4   4   4   4   4   4   4   4   4   4   4   3   4   4   3   4   3   4   7
 18  34  55  26   0   2   0   0   0   0   0   0   0   0   0   0   0   0   0   0   0   0   0   0
  0   0   0   0
  0   0   0   0   0   0   0   0   0   0   0   0   0   0   0   0   0   0   0   0   0   0   0   0
  0   5   6   5   5   4   4   4   4   4   4   3   4   4   4   4   4   4   4   4   3   3   3   3
  3   3   3   3   4   4   5   5   4   4   5   5   4   4   4   4   4   4   4   3   4   3   4   3
  4  26  39  13   0   1   0   0   0   0   0   0   0   0   0   0   0   0   0   0   0   0   0   0
  0   0   0   0
  0   0   0   0   0   0   0   0   0   0   0   0   0   0   0   0   0   0   0   0   0   0   0   0
  0   5   6   5   4   4   4   4   3   3   4   4   4   4   4   4   4   4   4   4   4   4   4   4
  3   3   3   4   4   4   5   5   5   5   5   5   4   4   4   4   4   4   4   4   4   4   4   4
  2  12  30  10   0   1   0   0   0   0   0   0   0   0   0   0   0   0   0   0   0   0   0   0
  0   0   0   0
  0   0   0   0   0   0   0   0   0   0   0   0   0   0   0   0   0   0   0   0   0   0   0   0
  0   5   5   4   4   4   4   4   3   3   4   3   4   4   4   4   4   4   3   4   4   4   4   4
  4   4   4   4   4   5   5   5   5   5   5   5   5   4   4   4   4   4   3   3   4   4   4   4
  4   5  18   7   0   0   0   0   0   0   0   0   0   0   0   0   0   0   0   0   0   0   0   0
  0   0   0   0
  0   0   0   0   0   0   0   0   0   0   0   0   0   0   0   0   0   0   0   0   0   0   0   0
  0   4   5   5   4   4   4   4   4   4   4   4   3   4   4   4   4   3   3   3   3   4   4   4
  4   4   4   4   4   5   5   5   5   5   5   5   5   5   4   5   5   4   3   4   4   4   4   4
  4   6   7   1   0   0   0   0   0   0   0   0   0   0   0   0   0   0   0   0   0   0   0   0
  0   0   0   0
  0   0   0   0   0   0   0   0   0   0   0   0   0   0   0   0   0   0   0   0   0   0   0   0
  0   5   5   5   4   4   4   4   4   4   4   4   4   4   4   3   3   3   3   3   3   4   5   5
  4   5   4   5  10   6   5   6   6   5   6   6   5   5   5   5   5   4   4   5   4   4   5   4
  4   7   8   1   0   0   0   0   0   0   0   0   0   0   0   0   0   0   0   0   0   0   0   0
  0   0   0   0
  0   0   0   0   0   0   0   0   0   0   0   0   0   0   0   0   0   0   0   0   0   0   0   0
  0   5   6   5   5   5   5   5   5   4   4   5   4   4   4   4   4   3   3   3   3   4   5   5
  5   5   4   5   7   6   6   6   6   6   6   6   6   6   5   5   5   5   5   5   5   5   5   5
  5   8   9   1   0   0   0   0   0   0   0   0   0   0   0   0   0   0   0   0   0   0   0   0
  0   0   0   0
  0   0   0   0   0   0   0   0   0   0   0   0   0   0   0   0   0   0   0   0   0   0   0   0
  0   5   6   5   6   6   6   6   6   5   6   6   6   5   4   4   4   4   4   4   4   4   5   6
  5   5   5   5   5   6   6   6   6   6   6   6   6   6   6   6   5   5   5   5   5   5   5   5
  5   9   9   1   0   0   0   0   0   0   0   0   0   0   0   0   0   0   0   0   0   0   0   0
  0   0   0   0
  0   0   0   0   0   0   0   0   0   0   0   0   0   0   0   0   0   0   0   0   0   0   0   0
  0   5   6   6   7   7   7   7   7   7   7   6   6   6   5   4   4   4   4   4   4   5   5   6
  6   5   5   6   6   7   7   7   6   6   6   6   6   6   6   6   6   5   5   5   5   6   6   5
  6   9  10   1   0   0   0   0   0   1   1   1   1   1   1   1   1   1   1   1   1   1   1   1
  1   1   1   1
  0   0   0   0   0   0   0   0   0   0   0   0   0   0   0   0   0   0   0   0   0   0   0   0
  0   6   7   7   7   7   7   7   7   7   7   7   6   6   7   6   5   4   4   5   5   6   6   6
  6   6   6   6   7   7   7   7   7   7   7   7   6   7   7   7   7   6   7   6   6   7   7   6
  7  11  12   2   0   0   0   0   0   0   0   0   0   0   0   0   0   0   0   0   0   0   0   0
  0   0   0   0
  0   0   0   0   0   0   0   0   0   0   0   0   0   0   0   0   0   0   0   0   0   0   0   0
  0   6   7   8   8   8   8   8   8   7   7   7   7   7   7   7   7   6   5   6   6   7   6   6
  7   6   6   6   7   8   8   7   7   7   7   7   7   7   7   7   7   7   7   7   7   7   7   7
  7  12  13   2   0   0   0   0   0   0   0   0   0   0   0   0   0   0   0   0   0   0   0   0
  0   0   0   0
  0   0   0   0   0   0   0   0   0   0   0   0   0   0   0   0   0   0   0   0   0   0   0   0
  0   7   9   9   9   8   8   8   8   8   8   7   7   7   7   8   8   7   7   7   7   7   7   7
  7   7   6   6   7   9   8   8   8   8   8   8   8   8   8   8   8   8   8   8   8   8   8   7
  8  15  16   2   0   0   0   0   0   0   0   0   0   0   0   0   0   0   0   0   0   0   0   0
  0   0   0   0
