P2
# 8-bit pgm gray
100 100
255
  0   0   0   0   0   0   0   0   0   0   0   0   0   0   0   2   0   0  80 100  96  97  98  98
 97  98  99  99 100 100  98  96  94  87  78  56  32  30  23  15   8   4   3   2   1   1   0   0
  0   0   2   5  10  15  20  30  40  50  64  74  79  87  94  99 103 110 117 122 129 133 135 137
136 137 155 173 181 186 191 191 200 175   0   0  10   0   0   0   0   0   0   0   0   0   0   0
  0   0   0   0
  0   0   0   0   0   0   0   0   0   0   0   0   0   0   0   0   0   4   0   0   0   0   0   0
  0   0   0   0   0   0   0   0   0   0   0   0   0   0   0   0   0   0   0   0   0   0   0   0
  0   0   3   8  14  21  29  36  49  63  72  82  90  99 109 115 121 127 131 137 143 146 149 150
153 153 166 186 194 201 209 209 220 190   0   0  12   0   0   0   0   0   0   0   0   0   0   0
  0   0   0   0
  0   0   0   0   0   0   0   0   0   0   0   0   0   0   0   0   0   0  20  27  25  26  26  26
 26  26  29  29  26  27  26  26  25  22  19  11   4   4   2   1   1   0   0   0   0   0   0   0
  0   1   4   8  14  23  31  41  56  65  73  82  94 100 107 113 118 124 127 133 136 138 142 143
145 148 153 170 183 191 198 201 213 184   0   0  11   0   0   0   0   0   0   0   0   0   0   0
  0   0   0   0
  0   0   0   0   0   0   0   0   0   0   0   0   0   0   0   0   0   0   0   0   0   0   0   0
  0   0  11  10   0   0   0   0   0   0   0   0   0   0   0   0   0   0   0   0   0   0   0   0
  0   2   6  11  16  25  35  46  57  70  80  88  97 105 109 115 121 127 133 136 136 138 140 141
144 148 150 165 181 187 194 200 212 182   0   0  11   0   0   0   0   0   0   0   0   0   0   0
  0   0   0   0
  0   0   0   0   0   0   0   0   0   0   0   0   0   0   0   0   0   0   0   0   0   0   0   1
  0   2  23  12   0   1   0   0   0   0   0   0   0   0   0   0   0   0   0   0   0   0   0   0
  1   4   8  14  21  28  39  51  62  75  84  93 103 112 116 118 122 129 133 136 139 140 140 141
143 145 145 156 176 184 191 195 209 180   0   0  10   0   0   0   0   0   0   0   0   0   0   0
  0   0   0   0
  0   0   0   0   0   0   0   0   0   0   0   0   0   0   0   0   0   0   0   0   0   0   0   0
  0  12  23   4   0   1   0   0   0   0   0   0   0   0   0   0   0   0   0   0   0   0   0   0
  2   6  11  18  24  32  44  57  69  79  90 100 107 112 118 124 127 129 132 136 138 140 143 145
145 149 150 152 168 181 188 192 206 179   0   0  10   0   0   0   0   0   0   0   0   0   0   0
  0   0   0   0
  0   0   0   0   0   0   0   0   0   0   0   0   0   0   0   0   0   0   0   0   0   0   0   0
  0   0   0   0   0   0   0   0   0   0   0   0   0   0   0   0   0   0   0   0   0   0   0   1
  4   8  13  21  29  39  52  64  77  87  94 102 109 114 119 124 128 134 135 135 138 141 142 146
152 152 151 150 160 178 184 189 201 175   0   0  10   0   0   0   0   0   0   0   0   0   0   0
  0   0   0   0
  0   0   0   0   0   0   0   0   0   0   0   0   0   0   0   0   0   0   0   0   0   0   0   2
  4   1   8   0   1   1   0   0   0   0   0   0   0   0   0   0   0   0   0   0   0   0   0   2
  5  10  16  24  33  44  54  67  80  89  95 101 111 117 121 127 129 131 135 137 139 143 147 146
144 145 147 152 158 174 183 187 199 174   0   0  10   0   0   0   0   0   0   0   0   0   0   0
  0   0   0   0
  0   0   0   0   0   0   0   0   0   0   0   0   0   0   0   0   0   0   0   0   0   1   0  15
 18  31  42  22  27  19   0   0   0   0   0   0   0   0   0   0   0   0   0   0   0   0   1   4
  8  13  19  26  35  48  59  71  82  89  98 107 115 121 126 132 133 135 138 142 147 150 147 144
143 145 145 148 153 167 180 184 197 171   0   0   9   0   0   0   0   0   0   0   0   0   0   0
  0   0   0   0
  0   0   0   0   0   0   0   0   0   0   0   0   0   0   0   0   0   0   0   0   0   2   0  21
 24  45  55  38  23  22   4   0   1   0   0   0   0   0   0   0   0   0   0   0   0   0   2   6
 10  16  23  31  41  56  64  76  88  98 109 118 121 127 133 136 136 140 145 148 147 143 143 144
144 145 142 144 145 159 172 178 192 167   0   0   9   0   0   0   0   0   0   0   0   0   0   0
  0   0   0   0
  0   0   0   0   0   0   0   0   0   0   0   0   0   0   0   0   0   0   0   0   0   0   3  28
 21  33  39  28  26  20   0   0   0   0   0   0   0   0   0   0   0   0   0   0   0   1   4   7
 14  21  29  39  55  68  75  86  97 106 113 119 124 130 132 134 139 146 147 145 142 142 143 142
142 143 143 143 145 155 170 177 189 166   0   0   9   0   0   0   0   0   0   0   0   0   0   0
  0   0   0   0
  0   0   0   0   0   0   0   0   0   0   0   0   0   0   0   0   0   0   0   0   0   0   2   6
  0   4   7   0  15   5   0   0   0   0   0   0   0   0   0   0   0   0   0   0   0   2   5  11
 16  22  31  42  56  69  81  95 106 113 118 125 132 135 136 141 148 146 141 141 144 147 143 143
144 143 144 146 149 154 170 177 188 167   0   0   9   0   0   0   0   0   0   0   0   0   0   0
  0   0   0   0
  0   0   0   0   0   0   0   0   0   0   0   0   0   0   0   0   0   0   0   0   0   0   0   0
  0   0   0   0   0   0   0   0   0   0   0   0   0   0   0   0   0   0   0   0   1   3   7  14
 19  27  37  49  63  77  85  94 102 113 121 125 130 139 147 150 146 143 144 145 145 148 147 145
144 144 145 148 151 154 165 173 186 163   0   0   9   0   0   0   0   0   0   0   0   0   0   0
  0   0   0   0
  0   0   0   0   0   0   0   0   0   0   0   0   0   0   0   0   0   0   0   0   0   0   0   1
  0   1   1   0   1   0   0   0   0   0   0   0   0   0   0   0   0   0   0   0   2   5  11  17
 25  33  43  53  67  81  94 106 109 111 114 124 139 146 143 142 138 139 142 144 145 145 148 146
147 147 147 146 145 149 156 167 183 161   0   0   8   0   0   0   0   0   0   0   0   0   0   0
  0   0   0   0
  0   0   0   0   0   0   0   0   0   0   0   0   0   0   0   0   0   0   0   0   0   0   0   0
  0   0   0   0   0   0   0   0   0   0   0   0   0   0   0   0   0   0   0   1   4   8  14  19
 28  37  46  58  71  83  96 112 131 131 131 141 145 141 138 141 141 142 143 143 142 142 148 149
146 144 147 147 147 150 154 164 184 161   0   0   8   0   0   0   0   0   0   0   0   0   0   0
  0   0   0   0
  0   0   0   0   0   0   0   0   0   0   0   0   0   0   0   0   0   0   0   0   0   0   0   0
  1   0   0   0   0   0   0   0   0   0   0   0   0   0   0   0   0   0   0   2   6  11  16  23
 33  43  52  65  80  92 100 111 123 139 150 143 140 145 143 143 142 140 140 142 140 144 150 150
145 144 145 146 147 148 152 161 181 158   0   0   8   0   0   0   0   0   0   0   0   0   0   0
  0   0   0   0
  0   0   0   0   0   0   0   0   0   0   0   0   0   0   0   0   0   0   0   0   0   0   0   0
  0   0   0   0   0   0   0   0   0   0   0   0   0   0   0   0   0   0   1   4   8  14  19  28
 39  47  59  72  84  96 108 116 120 135 136 138 144 145 144 141 140 141 140 140 144 149 150 145
143 142 143 143 145 150 152 156 176 157   1   0   8   0   0   0   0   0   0   0   0   0   0   0
  0   0   0   0
  0   0   0   0   0   0   0   0   0   0   0   0   0   0   0   0   0   0   0   0   0   0   0   8
 17   2   0   0   0   0   0   0   0   0   0   0   0   0   0   0   0   0   3   7  11  16  24  34
 44  57  71  81  91 103 111 119 132 136 134 136 139 141 144 145 142 141 140 140 145 148 145 141
141 142 143 143 147 148 149 151 171 153   0   0   7   0   0   0   0   0   0   0   0   0   0   0
  0   0   0   0
  0   0   0   0   0   0   0   0   0   0   0   0   0   0   0   0   0   0   0   0   0   0   0  25
 29   6   0   0   0   0   0   0   0   0   0   0   0   0   0   0   0   2   5   9  15  21  29  41
 53  67  77  89  99 108 111 127 136 133 136 138 140 140 141 142 142 143 142 143 145 144 142 141
141 143 142 143 145 145 147 149 164 145   0   0   7   0   0   0   0   0   0   0   0   0   0   0
  0   0   0   0
  0   0   0   0   0   0   0   0   0   0   0   0   0   0   0   0   0   0   0   0   0   1   0  19
 28   0   0   1   0   0   0   0   0   0   0   0   0   0   0   0   1   3   7  13  18  27  38  50
 62  71  82  96 106 114 124 136 131 132 135 137 139 139 140 140 140 140 143 150 152 147 143 143
144 142 140 142 144 144 145 147 164 148   0   0   7   0   0   0   0   0   0   0   0   0   0   0
  0   0   0   0
  0   0   0   0   0   0   0   0   0   0   0   0   0   0   0   0   0   0   0   0   0   0   0  17
 26   1   0   1   0   0   0   0   0   0   0   0   0   0   0   0   2   5  10  16  23  32  44  57
 67  82  99 105 114 120 133 135 132 136 137 138 138 137 140 143 141 141 143 146 149 148 147 146
146 146 144 143 144 142 146 145 160 144   0   0   6   0   0   0   0   0   0   0   0   0   0   0
  0   0   0   0
  0   0   0   0   0   0   0   0   0   0   0   0   0   0   0   0   0   0   0   0   0   0   0   2
  0   0   0   0   0   0   0   0   0   0   0   0   0   0   0   1   4   8  13  20  28  39  51  61
 75  91 102 108 114 128 135 130 136 140 141 138 142 149 147 142 145 147 148 146 145 145 151 150
146 146 148 144 142 143 145 144 156 140   1   0   6   0   0   0   0   0   0   0   0   0   0   0
  0   0   0   0
  0   0   0   0   0   0   0   0   0   0   0   0   0   0   0   0   0   0   0   0   0   0   0   0
  0   0   0   0   0   0   0   0   0   0   0   0   0   0   0   3   7  11  18  25  35  49  58  68
 84  96 108 117 124 138 133 135 137 137 142 143 143 147 151 148 151 151 152 152 150 152 149 146
146 144 145 144 144 145 144 144 154 140   7   0   6   0   0   0   0   0   0   0   0   0   0   0
  0   0   0   0
  0   0   0   0   0   0   0   0   0   0   0   0   0   0   0   0   0   0   0   0   0   0   0   0
  0   1   1   0   0   0   0   0   0   0   0   0   0   0   1   5   9  15  22  31  45  55  64  80
 92 104 116 121 134 138 135 139 142 144 146 148 149 146 148 150 148 147 147 149 151 154 150 146
150 151 147 147 146 148 152 152 157 141   6   0   6   0   0   0   0   0   0   0   0   0   0   0
  0   0   0   0
  0   0   0   0   0   0   0   0   0   0   0   0   0   0   0   0   0   0   0   0   0   0   0   0
  0   1   1   0   0   0   0   0   0   0   0   0   0   0   3   8  13  19  28  40  52  64  77  92
106 117 123 134 145 138 136 140 144 146 146 145 147 147 149 151 148 145 144 143 144 146 154 153
150 147 147 148 151 156 158 158 164 142   1   0   6   0   0   0   0   0   0   0   0   0   0   0
  0   0   0   0
  0   0   0   0   0   0   0   0   0   0   0   0   0   0   0   0   0   0   0   0   0   0   0   0
  0   0   0   0   0   0   0   0   0   0   0   0   0   1   6  10  18  27  38  48  60  76  90 104
116 120 125 143 146 143 143 142 142 139 143 141 141 143 142 147 147 144 144 145 144 146 154 153
148 146 148 152 162 163 159 156 160 136   0   0   6   0   0   0   0   0   0   0   0   0   0   0
  0   0   0   0
  0   0   0   0   0   0   0   0   0   0   0   0   0   0   0   0   0   0   0   0   0   0   0   0
  0   0   0   0   0   0   0   0   0   0   0   0   1   4   9  14  24  34  44  58  71  88 104 114
120 122 135 149 145 145 147 146 145 145 145 147 153 150 146 150 150 149 150 151 151 154 159 157
155 155 157 160 160 158 156 152 157 133   0   0   5   0   0   0   0   0   0   0   0   0   0   0
  0   0   0   0
  0   0   0   0   0   0   0   0   0   0   0   0   0   0   0   0   0   0   0   0   0   0   0   0
  0   0   0   0   0   0   0   0   0   0   0   0   3   7  12  21  32  43  54  65  82  95 110 120
128 136 150 154 149 145 145 146 146 147 148 152 156 152 152 158 157 156 154 156 160 160 162 162
161 161 161 162 158 154 157 154 159 134   0   0   5   0   0   0   0   0   0   0   0   0   0   0
  0   0   0   0
  0   0   0   0   0   0   0   0   0   0   0   0   0   0   0   0   0   0   0   0   0   0   0   0
  0   0   0   0   0   0   0   0   0   0   0   1  10  14  17  26  40  54  68  76  94 107 117 125
132 148 151 149 157 151 145 146 146 148 150 153 157 154 156 158 156 152 151 153 156 158 160 161
161 160 163 163 162 161 157 152 155 130   0   0   5   0   0   0   0   0   0   0   0   0   0   0
  0   0   0   0
  0   0   0   0   0   0   0   0   0   0   0   0   0   0   0   0   0   0   0   0   0   0   0   0
  0   0   0   0   0   0   0   0   0   0   0   3  13  20  24  34  46  60  81  98 107 117 126 132
145 152 148 151 161 164 159 155 152 151 150 152 157 155 152 154 150 150 148 147 152 153 155 160
162 160 157 155 156 153 152 150 155 130   0   0   5   0   0   0   0   0   0   0   0   0   0   0
  0   0   0   0
  0   0   0   0   0   0   0   0   0   0   0   0   0   0   0   0   0   0   0   0   0   0   0   0
  0   0   0   0   0   0   0   0   0   0   2   7  14  22  30  45  65  80  92 102 114 126 133 141
150 146 146 157 159 164 163 159 151 148 149 146 145 147 147 148 152 152 148 146 148 153 155 155
157 157 154 154 156 153 152 150 154 132   0   0   5   0   0   0   0   0   0   0   0   0   0   0
  0   0   0   0
  0   0   0   0   0   0   0   0   0   0   0   0   0   0   0   0   0   0   0   0   0   0   0   0
  0   0   0   0   0   0   0   0   0   1   5  10  17  26  39  54  70  88  97 109 122 130 136 144
152 152 155 157 157 163 155 148 147 145 145 147 148 148 150 148 149 151 153 152 151 153 155 155
154 154 155 155 153 152 150 149 154 135   0   0   6   0   0   0   0   0   0   0   0   0   0   0
  0   0   0   0
  0   0   0   0   0   0   0   0   0   0   0   0   0   0   0   0   0   0   0   0   0   0   0   0
  0   0   0   0   0   0   0   0   0   3   7  14  26  36  49  61  74  89 102 117 125 133 143 151
155 153 153 154 155 162 156 151 152 150 150 150 151 154 154 152 153 153 153 152 154 156 156 158
154 151 152 155 153 149 151 147 153 134   0   0   6   0   0   0   0   0   0   0   0   0   0   0
  0   0   0   0
  0   0   0   0   0   0   0   0   0   0   0   0   0   0   0   0   0   0   0   0   0   0   0   0
  0   0   0   0   0   0   0   0   1   6  11  19  33  42  55  71  84  99 109 120 131 142 150 154
149 145 149 153 154 157 157 151 149 150 150 147 147 153 152 155 155 149 152 155 161 159 157 157
153 153 154 154 153 155 152 145 151 132   0   0   5   0   0   0   0   0   0   0   0   0   0   0
  0   0   0   0
  0   0   0   0   0   0   0   0   0   0   0   0   0   0   0   0   0   0   0   0   0   0   0   0
  0   0   0   0   0   0   0   0   4   9  13  24  40  49  62  80  93 108 119 127 143 148 150 154
147 149 151 153 151 153 158 150 146 145 144 145 147 149 152 152 153 155 154 156 157 158 158 157
159 156 155 155 152 155 152 147 151 131   1   0   5   0   0   0   0   0   0   0   0   0   0   0
  0   0   0   0
  0   0   0   0   0   0   0   0   0   0   0   0   0   0   0   0   0   0   0   0   0   0   0   0
  0   0   0   0   0   0   0   1   6  12  18  33  48  59  75  89 102 117 129 140 149 144 152 158
151 149 152 154 153 153 155 150 144 147 145 145 146 148 153 155 155 153 151 148 148 151 152 153
155 154 152 152 154 153 152 152 154 131   0   0   5   0   0   0   0   0   0   0   0   0   0   0
  0   0   0   0
  0   0   0   0   0   0   0   0   0   0   0   0   0   0   0   0   0   0   0   0   0   0   0   0
  0   0   0   0   0   0   0   3   8  16  25  41  51  71  90 106 119 129 138 146 148 145 151 151
151 149 151 153 155 153 155 154 148 149 149 146 149 156 158 155 154 149 148 148 146 145 148 147
146 147 150 151 152 152 153 150 153 131   0   0   5   0   0   0   0   0   0   0   0   0   0   0
  0   0   0   0
  0   0   0   0   0   0   0   0   0   0   0   0   0   0   0   0   0   0   0   0   0   0   0   0
  0   0   0   0   0   0   1   5  11  20  31  50  64  77  94 111 126 136 140 144 144 147 152 148
146 148 152 157 159 152 153 154 157 154 152 151 152 156 155 151 151 151 150 149 151 153 151 150
152 150 149 149 148 150 152 152 156 132   0   0   5   0   0   0   0   0   0   0   0   0   0   0
  0   0   0   0
  0   0   0   0   0   0   0   0   0   0   0   0   0   0   0   0   0   0   0   0   0   0   0   0
  0   0   0   0   0   0   3   7  15  24  39  56  69  85  98 111 124 136 143 147 146 150 154 152
152 153 152 153 156 152 148 150 153 158 158 158 160 158 156 155 155 153 154 152 153 155 155 157
160 163 161 159 154 155 154 152 157 134   0   0   5   0   0   0   0   0   0   0   0   0   0   0
  0   0   0   0
  0   0   0   0   0   0   0   0   0   0   0   0   0   0   0   0   0   0   0   0   0   0   0   0
  0   0   0   0   0   1   5  10  19  31  50  63  76  95 108 120 131 142 147 149 149 154 152 154
161 157 154 153 153 156 153 153 154 156 160 165 169 167 168 167 159 157 161 162 163 161 158 161
160 162 161 160 157 156 159 156 159 132   0   0   5   0   0   0   0   0   0   0   0   0   0   0
  0   0   0   0
  0   0   0   0   0   0   0   0   0   0   0   0   0   0   0   0   0   0   0   0   0   0   0   0
  0   0   0   0   0   2   7  14  25  39  59  73  88 103 114 124 135 144 149 155 159 160 154 158
158 154 153 150 150 160 162 159 158 155 159 165 165 165 166 163 163 163 163 164 163 166 165 160
159 159 157 157 158 157 157 153 159 140   2   0   6   0   0   0   0   0   0   0   0   0   0   0
  0   0   0   0
  0   0   0   0   0   0   0   0   0   0   0   0   0   0   0   0   0   0   0   0   0   0   0   0
  0   0   0   0   0   4  11  18  31  46  68  85  98 112 124 135 146 153 156 158 164 163 156 159
156 155 150 150 151 163 166 162 158 158 163 160 154 156 153 152 158 158 157 161 158 157 161 161
163 162 164 164 165 162 161 159 167 143   0   0   6   0   0   0   0   0   0   0   0   0   0   0
  0   0   0   0
  0   0   0   0   0   0   0   0   0   0   0   0   0   0   0   0   0   0   0   0   0   0   0   0
  0   0   0   0   1   6  14  25  37  55  76  92 110 125 133 143 153 150 149 149 155 160 157 164
164 154 153 156 160 168 164 160 163 167 170 166 160 156 155 157 153 152 151 154 156 157 156 154
155 157 162 167 168 166 165 163 166 138   0   0   6   0   0   0   0   0   0   0   0   0   0   0
  0   0   0   0
  0   0   0   0   0   0   0   0   0   0   0   0   0   0   0   0   0   0   0   0   0   0   0   0
  0   0   0   0   2   9  18  29  45  64  83  96 113 126 134 141 147 149 150 152 161 161 162 171
165 160 157 156 166 170 164 165 169 166 163 163 164 161 159 159 158 153 151 152 152 154 155 156
153 155 161 162 163 170 167 159 161 137   0   0   6   0   0   0   0   0   0   0   0   0   0   0
  0   0   0   0
  0   0   0   0   0   0   0   0   0   0   0   0   0   0   0   0   0   0   0   0   0   0   0   0
  0   0   0   0   4  12  22  37  55  71  89 103 115 127 134 141 147 156 157 158 170 171 177 182
173 169 168 169 169 166 164 164 166 161 160 164 164 163 165 165 163 163 162 161 160 156 156 154
151 155 161 160 162 160 159 156 160 136   0   0   6   0   0   0   0   0   0   0   0   0   0   0
  0   0   0   0
  0   0   0   0   0   0   0   0   0   0   0   0   0   0   0   0   0   0   0   0   0   0   0   0
  0   0   0   2   7  15  24  44  69  82  93 107 121 134 140 144 150 156 158 157 167 168 172 179
174 169 176 174 167 167 168 166 172 169 171 175 173 170 169 166 171 173 173 168 163 164 157 155
163 166 165 162 160 154 154 156 161 138   0   0   6   0   0   0   0   0   0   0   0   0   0   0
  0   0   0   0
  0   0   0   0   0   0   0   0   0   0   0   0   0   0   0   0   0   0   0   0   0   0   0   0
  0   0   0   3   9  20  29  48  75  92 106 117 128 140 148 149 151 152 157 163 169 163 167 174
176 178 179 171 166 168 170 172 177 179 180 174 167 167 167 167 170 172 174 170 166 168 168 167
169 170 163 156 154 153 152 153 159 134   0   0   6   0   0   0   0   0   0   0   0   0   0   0
  0   0   0   0
  0   0   0   0   0   0   0   0   0   0   0   0   0   0   0   0   0   0   0   0   0   0   0   0
  0   0   1   5  12  22  36  57  76  94 111 125 132 140 146 149 152 153 156 169 173 166 171 176
178 178 174 169 167 169 170 175 179 176 171 166 163 163 165 169 169 169 167 163 163 166 169 166
166 167 157 154 154 152 149 151 156 130   0   0   5   0   0   0   0   0   0   0   0   0   0   0
  0   0   0   0
  0   0   0   0   0   0   0   0   0   0   0   0   0   0   0   0   0   0   0   0   0   0   0   0
  0   0   2   7  15  24  46  63  78 100 112 125 138 146 146 148 151 160 164 171 170 170 178 175
169 170 164 163 171 173 170 171 175 173 167 167 171 170 165 163 171 171 162 158 162 165 162 163
164 161 155 153 158 158 154 153 155 131   0   0   5   0   0   0   0   0   0   0   0   0   0   0
  0   0   0   0
  0   0   0   0   0   0   0   0   0   0   0   0   0   0   0   0   0   0   0   0   0   0   0   0
  0   0   3   8  18  31  49  66  85 104 116 124 137 146 147 150 153 163 170 169 162 170 176 170
171 172 168 167 168 169 164 164 167 169 167 171 175 172 163 163 168 169 161 159 161 164 166 159
157 159 161 160 162 161 159 154 156 134   0   0   5   0   0   0   0   0   0   0   0   0   0   0
  0   0   0   0
  0   0   0   0   0   0   0   0   0   0   0   0   0   0   0   0   0   0   0   0   0   0   0   0
  0   1   5  10  20  36  50  68  90 108 124 136 142 147 151 154 155 161 165 163 168 174 169 166
170 166 165 166 162 162 161 160 169 167 161 163 166 165 164 164 164 162 162 165 168 166 168 167
163 163 163 166 167 165 163 160 164 139   0   0   6   0   0   0   0   0   0   0   0   0   0   0
  0   0   0   0
  0   0   0   0   0   0   0   0   0   0   0   0   0   0   0   0   0   0   0   0   0   0   0   0
  0   1   7  13  23  42  58  73  91 111 130 144 152 153 153 157 160 163 161 162 174 180 171 169
168 161 163 164 165 166 167 167 170 164 160 160 156 156 164 162 157 162 165 164 166 170 174 175
171 167 165 165 164 163 165 159 162 141   1   0   6   0   0   0   0   0   0   0   0   0   0   0
  0   0   0   0
  0   0   0   0   0   0   0   0   0   0   0   0   0   0   0   0   0   0   0   0   0   0   0   0
  0   3   9  16  27  48  64  78 100 115 129 143 150 151 154 159 162 163 163 168 173 174 171 170
169 165 162 169 168 163 165 170 166 165 165 158 155 157 161 165 162 162 163 162 165 171 171 168
165 170 171 164 160 161 166 165 171 143   0   0   6   0   0   0   0   0   0   0   0   0   0   0
  0   0   0   0
  0   0   0   0   0   0   0   0   0   0   0   0   0   0   0   0   0   0   0   0   0   0   0   0
  0   4  10  19  33  53  70  84 103 117 132 142 146 151 155 161 164 166 163 166 169 168 162 168
173 165 162 168 163 159 168 173 162 162 161 156 156 158 159 163 168 166 160 160 169 170 164 163
160 161 163 168 170 168 167 165 166 136   0   0   5   0   0   0   0   0   0   0   0   0   0   0
  0   0   0   0
  0   0   0   0   0   0   0   0   0   0   0   0   0   0   0   0   0   0   0   0   0   0   0   0
  1   4  11  21  38  60  76  89 106 121 133 142 151 154 157 161 168 167 163 165 168 164 158 162
164 166 167 167 165 169 176 169 161 160 158 156 155 156 159 164 164 159 157 158 161 167 168 165
164 165 168 177 181 175 167 162 163 140   2   0   6   0   0   0   0   0   0   0   0   0   0   0
  0   0   0   0
  0   0   0   0   0   0   0   0   0   0   0   0   0   0   0   0   0   0   0   0   0   0   0   0
  1   5  12  23  41  61  82  97 113 127 137 147 154 155 162 161 161 166 167 168 166 166 163 160
160 167 166 161 168 172 167 161 166 162 158 159 159 159 158 157 156 160 162 164 167 170 166 164
168 170 176 186 185 173 165 164 168 142   0   0   6   0   0   0   0   0   0   0   0   0   0   0
  0   0   0   0
  0   0   0   0   0   0   0   0   0   0   0   0   0   0   0   0   0   0   0   0   0   0   0   0
  2   6  14  25  42  63  84 106 118 128 143 153 157 162 168 164 165 165 163 166 163 166 165 163
163 163 161 160 160 163 165 167 163 162 160 158 162 162 160 160 161 164 164 165 168 166 165 166
167 170 178 176 170 164 163 158 161 136   0   0   6   0   0   0   0   0   0   0   0   0   0   0
  0   0   0   0
  0   0   0   0   0   0   0   0   0   0   0   0   0   0   0   0   0   0   0   0   0   0   0   0
  2   7  16  27  42  65  83 106 129 137 145 159 165 171 168 169 169 163 161 164 165 165 172 170
161 161 163 165 166 170 170 161 158 159 160 162 158 158 165 165 163 167 167 171 174 175 174 171
173 176 171 163 162 165 164 162 165 139   0   0   6   0   0   0   0   0   0   0   0   0   0   0
  0   0   0   0
  0   0   0   0   0   0   0   0   0   0   0   0   0   0   0   0   0   0   0   0   0   0   0   0
  3   9  18  29  46  65  84 101 126 147 156 168 174 173 171 168 164 159 161 164 170 168 174 168
163 164 168 165 168 174 166 159 165 162 161 165 163 162 160 160 162 165 169 175 174 173 171 168
171 166 166 165 161 157 153 155 161 137   0   0   6   0   0   0   0   0   0   0   0   0   0   0
  0   0   0   0
  0   0   0   0   0   0   0   0   0   0   0   0   0   0   0   0   0   0   0   0   0   0   0   0
  3   9  18  32  48  66  86 106 118 134 154 172 173 169 169 163 167 163 161 163 169 165 170 170
163 163 163 162 164 166 166 168 164 160 164 167 170 167 163 163 165 167 168 167 167 170 165 164
165 165 165 160 155 154 156 154 163 145   1   0   7   0   0   0   0   0   0   0   0   0   0   0
  0   0   0   0
  0   0   0   0   0   0   0   0   0   0   0   0   0   0   0   0   0   0   0   0   0   0   0   1
  4  10  20  37  54  70  86 107 122 134 146 155 166 165 161 163 167 161 158 166 166 167 167 168
167 163 163 163 166 166 168 168 163 163 163 164 169 170 172 173 170 169 165 165 169 170 170 169
170 169 163 159 157 158 160 161 167 145   0   0   7   0   0   0   0   0   0   0   0   0   0   0
  0   0   0   0
  0   0   0   0   0   0   0   0   0   0   0   0   0   0   0   0   0   0   0   0   0   0   0   1
  4  11  23  40  57  76  90 110 126 138 144 150 160 163 162 164 164 160 165 168 168 170 167 165
169 169 166 167 170 170 174 173 172 169 164 162 164 169 174 176 175 172 174 176 177 174 172 169
167 164 161 163 165 161 158 157 162 138   0   0   6   0   0   0   0   0   0   0   0   0   0   0
  0   0   0   0
  0   0   0   0   0   0   0   0   0   0   0   0   0   0   0   0   0   0   0   0   0   0   0   1
  4  11  23  38  53  74  93 107 124 133 140 151 157 164 162 159 166 168 170 169 173 170 165 163
164 168 168 172 174 171 173 174 173 169 165 164 166 169 173 176 178 177 182 184 180 173 166 165
164 162 160 159 158 156 156 155 160 141   2   0   6   0   0   0   0   0   0   0   0   0   0   0
  0   0   0   0
  0   0   0   0   0   0   0   0   0   0   0   0   0   0   0   0   0   0   0   0   0   0   0   1
  5  11  23  37  54  73  90 105 120 133 141 148 156 164 159 159 168 169 169 173 173 169 167 167
162 166 172 169 171 172 172 174 174 173 170 168 169 169 173 177 178 180 186 180 170 167 165 165
162 159 159 156 155 155 155 154 162 139   0   0   6   0   0   0   0   0   0   0   0   0   0   0
  0   0   0   0
  0   0   0   0   0   0   0   0   0   0   0   0   0   0   0   0   0   0   0   0   0   0   0   1
  5  10  22  38  54  75  90 105 117 131 142 152 163 166 163 169 170 166 176 175 171 171 168 165
166 169 174 173 172 170 174 178 174 169 169 170 169 168 170 169 167 174 177 171 170 167 163 164
161 161 162 158 157 157 157 156 161 136   0   0   6   0   0   0   0   0   0   0   0   0   0   0
  0   0   0   0
  0   0   0   0   0   0   0   0   0   0   0   0   0   0   0   0   0   0   0   0   0   0   0   1
  5  10  22  38  55  74  92 105 117 129 139 152 167 170 173 172 166 168 175 168 168 169 169 170
174 175 175 180 175 173 179 175 168 170 167 161 163 162 163 165 168 174 174 168 165 163 161 161
161 159 158 157 160 161 161 158 161 135   0   0   6   0   0   0   0   0   0   0   0   0   0   0
  0   0   0   0
  0   0   0   0   0   0   0   0   0   0   0   0   0   0   0   0   0   0   0   0   0   0   0   1
  5   9  23  40  56  73  91 106 119 129 139 152 165 167 171 169 173 178 167 168 172 172 174 175
175 171 170 178 177 174 170 167 167 169 167 164 166 165 167 171 174 173 168 164 163 165 163 163
162 163 163 162 162 163 162 155 158 133   0   0   5   0   0   0   0   0   0   0   0   0   0   0
  0   0   0   0
  0   0   0   0   0   0   0   0   0   0   0   0   0   0   0   0   0   0   0   0   0   0   0   0
  5  10  22  38  59  77  91 108 122 134 144 149 158 166 166 167 176 173 164 169 174 175 174 172
170 171 173 175 173 170 170 170 166 168 170 173 173 167 169 173 170 166 164 162 164 166 167 164
161 162 163 165 162 163 161 156 161 136   0   0   6   0   0   0   0   0   0   0   0   0   0   0
  0   0   0   0
  0   0   0   0   0   0   0   0   0   0   0   0   0   0   0   0   0   0   0   0   0   0   0   0
  4  11  22  35  56  77  93 106 120 136 144 146 151 165 167 168 173 164 165 173 174 171 171 171
171 172 172 176 176 175 174 169 167 172 175 168 173 173 166 167 165 165 164 162 164 166 165 161
160 161 160 165 164 159 158 159 161 134   0   0   5   0   0   0   0   0   0   0   0   0   0   0
  0   0   0   0
  0   0   0   0   0   0   0   0   0   0   0   0   0   0   0   0   0   0   0   0   0   0   0   0
  4  11  22  37  54  74  94 110 121 134 146 149 154 160 166 171 165 165 170 179 175 170 169 168
172 169 172 181 176 173 169 170 169 170 173 174 184 183 173 164 166 162 160 164 166 166 164 162
158 161 168 168 165 159 159 157 160 136   0   0   6   0   0   0   0   0   0   0   0   0   0   0
  0   0   0   0
  0   0   0   0   0   0   0   0   0   0   0   0   0   0   0   0   0   0   0   0   0   0   0   0
  4  10  19  36  53  71  94 107 126 143 149 151 159 160 167 172 166 173 175 178 175 171 167 169
173 173 175 173 170 167 164 164 168 173 181 187 191 186 179 173 169 165 166 167 170 167 165 166
163 162 167 164 160 161 160 155 159 136   0   0   6   0   0   0   0   0   0   0   0   0   0   0
  0   0   0   0
  0   0   0   0   0   0   0   0   0   0   0   0   0   0   0   0   0   0   0   0   0   0   0   0
  3  10  18  35  49  70  92 105 120 139 148 152 161 168 172 173 178 182 178 175 174 170 169 167
172 178 172 166 169 165 162 160 174 186 193 192 184 176 173 174 172 174 174 170 169 167 169 166
162 161 164 162 162 159 156 157 160 134   0   0   5   0   0   0   0   0   0   0   0   0   0   0
  0   0   0   0
  0   0   0   0   0   0   0   0   0   0   0   0   0   0   0   0   0   0   0   0   0   0   0   0
  4  24  28  36  48  68  88 100 117 133 146 159 162 163 167 170 176 176 180 175 168 167 166 167
174 174 167 165 166 166 166 168 178 186 188 182 173 170 169 163 162 162 162 162 164 163 163 161
158 162 163 160 159 159 161 158 161 139   0   0   6   0   0   0   0   0   0   0   0   0   0   0
  0   0   0   0
  0   0   0   0   0   0   0   0   0   0   0   0   0   0   0   0   0   0   0   0   0   0   1   0
  4  37  39  42  47  64  89 103 116 131 146 164 173 167 168 173 175 176 180 168 167 172 173 174
171 169 169 165 164 165 164 167 171 168 173 176 168 164 160 162 167 164 160 160 159 159 159 161
163 164 160 157 156 160 161 154 161 140   0   0   6   0   0   0   0   0   0   0   0   0   0   0
  0   0   0   0
  0   0   0   0   0   0   0   0   0   0   0   0   0   0   0   0   0   0   0   0   0   0   0   0
  0  42  49  48  50  52  85 112 122 136 152 158 171 165 161 172 170 168 171 169 172 176 179 176
172 170 164 161 163 161 156 158 160 157 163 168 163 158 157 163 167 164 164 162 163 164 164 164
163 160 157 158 158 160 158 154 161 140   0   0   6   0   0   0   0   0   0   0   0   0   0   0
  0   0   0   0
  0   0   0   0   0   0   0   0   0   0   0   0   0   0   0   0   0   0   0   0   0   0   0   2
  0  33  52  46  45  39  63  94 112 128 135 140 150 162 168 171 169 169 172 176 175 176 176 175
171 170 164 166 166 162 159 161 164 163 166 165 160 160 163 166 165 161 165 166 164 166 166 161
160 156 160 162 159 159 159 158 164 140   0   0   6   0   0   0   0   0   0   0   0   0   0   0
  0   0   0   0
  0   0   0   0   0   0   0   0   0   0   0   0   0   0   0   0   0   0   0   0   0   0   0   1
  0  14  46  37  30  32  48  66  91 115 124 130 139 155 165 167 175 180 173 169 173 174 175 173
169 166 163 163 165 162 160 161 166 168 166 164 164 166 163 160 159 159 162 163 161 162 162 162
161 161 162 162 161 161 161 158 164 140   0   0   6   0   0   0   0   0   0   0   0   0   0   0
  0   0   0   0
  0   0   0   0   0   0   0   0   0   0   0   0   0   0   0   0   0   0   0   0   0   0   0   0
  0   0  22  21  17  26  43  56  78  93 111 126 133 144 159 172 176 179 169 168 174 172 171 170
164 160 161 163 161 159 159 160 170 169 169 169 165 161 160 160 160 162 165 165 166 166 169 168
168 169 164 162 162 160 158 156 163 142   0   0   6   0   0   0   0   0   0   0   0   0   0   0
  0   0   0   0
  0   0   0   0   0   0   0   0   0   0   0   0   0   0   0   0   0   0   0   0   0   0   0   0
  0   0   0   6  13  20  38  54  73  89 103 116 126 142 160 163 167 168 165 166 168 167 169 171
165 163 162 162 164 164 164 166 167 171 173 168 161 161 165 165 165 165 165 163 164 162 161 166
174 169 164 162 157 158 158 159 169 144   0   0   6   0   0   0   0   0   0   0   0   0   0   0
  0   0   0   0
  0   0   0   0   0   0   0   0   0   0   0   0   0   0   0   0   0   0   0   0   0   0   0   0
  0   0   2   8  11  17  28  48  65  87 102 111 130 141 151 156 164 165 163 164 167 167 168 171
165 161 157 162 166 165 166 165 165 170 174 169 168 166 163 161 162 161 157 158 161 161 163 167
166 166 165 163 164 163 161 163 168 139   0   0   6   0   0   0   0   0   0   0   0   0   0   0
  0   0   0   0
  0   0   0   0   0   0   0   0   0   0   0   0   0   0   0   0   0   0   0   0   0   0   0   0
  0   0   0   5   9  14  24  40  58  76  96 114 131 139 146 154 162 162 161 163 164 168 170 165
162 164 164 164 165 165 167 164 165 170 168 163 165 164 161 161 162 161 163 167 171 170 173 170
163 162 161 163 162 162 163 159 163 141   0   0   6   0   0   0   0   0   0   0   0   0   0   0
  0   0   0   0
  0   0   0   0   0   0   0   0   0   0   0   0   0   0   0   0   0   0   0   0   0   0   0   0
  0   0   0   2   7  12  22  33  50  74  89 108 119 129 144 146 152 159 159 164 167 168 165 165
166 165 168 171 168 166 166 164 166 167 168 165 159 159 162 163 163 165 170 173 173 173 172 168
168 167 167 167 165 164 164 160 169 147   0   0   7   0   0   0   0   0   0   0   0   0   0   0
  0   0   0   0
  0   0   0   0   0   0   0   0   0   0   0   0   0   0   0   0   0   0   0   0   0   0   0   0
  0   0   0   0   5  11  17  27  46  70  83  93 106 122 141 144 148 155 158 162 165 166 163 164
165 167 167 170 172 173 169 165 162 161 161 161 159 161 164 164 163 163 167 167 168 169 166 166
170 171 167 167 166 162 166 166 169 142   0   0   6   0   0   0   0   0   0   0   0   0   0   0
  0   0   0   0
  0   0   0   0   0   0   0   0   0   0   0   0   0   0   0   0   0   0   0   0   0   0   0   0
  0   0   0   0   3   9  15  28  39  50  72  88  98 119 139 143 149 154 156 162 162 164 166 162
165 170 171 172 168 168 168 162 161 163 162 164 163 160 161 162 164 167 167 165 165 165 164 163
160 159 162 164 164 164 165 164 165 139   0   0   6   0   0   0   0   0   0   0   0   0   0   0
  0   0   0   0
  0   0   0   0   0   0   0   0   0   0   0   0   0   0   0   0   0   0   0   0   0   0   0   0
  0   0   0   0   0   8  19  24  30  43  58  81 104 120 128 137 145 152 157 160 162 165 165 161
168 170 169 170 165 163 164 164 165 167 168 168 165 160 161 164 166 170 169 164 165 166 166 163
160 161 164 163 160 161 164 162 164 139   0   0   6   0   0   0   0   0   0   0   0   0   0   0
  0   0   0   0
  0   0   0   0   0   0   0   0   0   0   0   0   0   0   0   0   0   0   0   0   0   0   0   0
  0   0   0   0   0   4  11  15  27  38  52  69  93 113 116 127 138 140 149 157 158 164 165 167
167 164 164 168 172 168 163 161 164 167 163 164 164 163 164 164 170 172 166 164 166 164 164 164
164 166 163 160 161 166 164 158 164 138   0   0   6   0   0   0   0   0   0   0   0   0   0   0
  0   0   0   0
  0   0   0   0   0   0   0   0   0   0   0   0   0   0   0   0   0   0   0   0   0   0   0   0
  0   0   0   0   0   0   5  10  19  29  43  61  72  91 108 120 132 138 146 153 154 158 160 161
161 162 163 167 170 165 162 164 173 174 168 165 164 166 164 170 172 167 166 167 167 161 159 162
165 162 158 157 163 166 158 157 165 139   0   0   6   0   0   0   0   0   0   0   0   0   0   0
  0   0   0   0
  0   0   0   0   0   0   0   0   0   0   0   0   0   0   0   0   0   0   0   0   0   0   0   0
  0   0   0   0   0   0   2   7  12  20  30  46  59  74  94 107 114 126 136 139 143 150 153 153
155 157 156 157 157 161 166 169 169 165 166 167 168 170 172 172 165 165 169 170 165 162 160 160
157 155 155 159 164 161 160 163 167 141   0   0   6   0   0   0   0   0   0   0   0   0   0   0
  0   0   0   0
  0   0   0   0   0   0   0   0   0   0   0   0   0   0   0   0   0   0   0   0   0   0   0   0
  0   0   0   0   0   0   0   4   8  15  24  36  50  63  78  97 108 112 121 126 135 145 147 150
153 153 155 156 158 165 167 164 161 162 164 167 170 172 174 168 171 172 172 172 164 161 160 157
154 158 163 167 167 164 166 164 166 145   6   0   7   0   0   0   0   0   0   0   0   0   0   0
  0   0   0   0
  0   0   0   0   0   0   0   0   0   0   0   0   0   0   0   0   0   0   0   0   0   0   0   0
  0   0   0   0   0   0   0   2   5  11  18  27  40  52  65  79  98 114 123 123 130 138 142 148
149 151 155 162 166 162 158 158 159 161 162 165 168 168 168 169 173 168 164 165 163 160 160 158
158 159 163 169 169 166 168 163 171 150   0   0   7   0   0   0   0   0   0   0   0   0   0   0
  0   0   0   0
  0   0   0   0   0   0   0   0   0   0   0   0   0   0   0   0   0   0   0   0   0   0   0   0
  0   0   0   0   0   0   0   0   3   7  13  20  31  43  56  67  81 104 118 121 122 130 140 142
146 151 153 158 160 158 157 156 157 159 161 164 166 166 166 170 167 162 159 158 160 159 159 158
161 162 166 168 162 165 170 169 180 150   0   0   7   0   0   0   0   0   0   0   0   0   0   0
  0   0   0   0
  0   0   0   0   0   0   0   0   0   0   0   0   0   0   0   0   0   0   0   0   0   0   0   0
  0   0   0   0   0   0   0   0   1   4   8  14  22  37  50  60  73  88 101 115 119 123 131 134
142 149 149 152 153 151 152 156 155 159 162 162 168 171 170 169 163 159 160 159 159 158 158 159
162 167 167 163 163 169 172 177 181 148   0   0   7   0   0   0   0   0   0   0   0   0   0   0
  0   0   0   0
  0   0   0   0   0   0   0   0   0   0   0   0   0   0   0   0   0   0   0   0   0   0   0   0
  0   0   0   0   0   0   0   0   0   2   5   8  15  26  38  51  65  78  89 102 114 123 127 133
137 141 143 146 148 148 149 151 154 160 164 166 170 170 167 168 165 162 162 159 160 163 161 160
162 172 170 166 171 175 181 176 170 142   0   0   6   0   0   0   0   0   0   0   0   0   0   0
  0   0   0   0
  0   0   0   0   0   0   0   0   0   0   0   0   0   0   0   0   0   0   0   0   0   0   0   0
  0   0   0   0   0   0   0   0   0   0   3   6  10  15  25  37  48  61  79  91 102 114 122 129
127 132 137 136 142 146 152 158 163 163 165 166 168 167 166 168 164 161 162 161 161 161 162 162
169 180 172 171 176 175 173 166 162 139   0   0   6   0   0   0   0   0   0   0   0   0   0   0
  0   0   0   0
  0   0   0   0   0   0   0   0   0   0   0   0   0   0   0   0   0   0   0   0   0   0   0   0
  0   0   0   0   0   0   0   0   0   0   1   4   7  10  16  28  36  46  63  73  85  91  99 114
121 124 130 132 139 148 157 163 164 165 165 164 164 163 163 162 162 162 158 159 158 158 161 162
170 171 167 167 170 165 162 160 162 139   0   0   6   0   0   0   0   0   0   0   0   0   0   0
  0   0   0   0
  0   0   0   0   0   0   0   0   0   0   0   0   0   0   0   0   0   0   0   0   0   0   0   0
  0   0   0   0   0   0   0   0   0   0   0   2   5   8  12  18  28  38  48  55  65  74  81  95
114 117 124 130 136 143 144 145 147 151 152 153 154 154 153 153 155 156 154 155 152 151 152 158
166 161 159 163 162 157 158 158 162 138   0   0   6   0   0   0   0   0   0   0   0   0   0   0
  0   0   0   0
  0   0   0   0   0   0   0   0   0   0   0   0   0   0   0   0   0   0   0   0   0   0   0   0
  0   0   0   0   0   0   0   0   0   0   0   0   3   5   8  12  18  26  40  51  57  64  72  83
 96 106 113 114 117 118 124 131 130 130 133 138 139 138 139 141 144 145 144 142 141 140 146 155
153 146 146 152 152 150 154 156 156 135   0   0   6   0   0   0   0   0   0   0   0   0   0   0
  0   1   1   1
  0   0   0   0   0   0   0   0   0   0   0   0   0   0   0   0   0   0   0   0   0   0   0   0
  0   0   0   0   0   0   0   0   0   0   0   0   1   3   5   8  12  17  27  37  48  55  64  76
 81  87  93 101 109 113 119 124 127 134 138 138 134 137 142 142 141 142 145 144 145 152 153 153
148 147 150 154 153 152 155 157 165 143   0   0   6   0   0   0   0   0   0   0   0   0   0   0
  0   0   0   0
  0   0   0   0   0   0   0   0   0   0   0   0   0   0   0   0   0   0   0   0   0   0   0   0
  0   0   0   0   0   0   0   0   0   0   0   0   0   1   4   6   9  12  15  21  32  42  54  70
 77  75  84  93 103 108 115 120 126 132 133 136 135 137 139 136 136 138 141 144 151 151 148 145
143 146 148 147 147 148 149 152 161 138   0   0   6   0   0   0   0   0   0   0   0   0   0   0
  0   0   0   0
  0   0   0   0   0   0   0   0   0   0   0   0   0   0   0   0   0   0   0   0   0   0   0   1
  1   1   0   0   0   0   0   0   0   0   0   0   0   0   2   5   6   8  10  15  19  29  38  50
 63  71  80  81  89 100 102 107 112 114 119 120 129 129 127 126 131 133 140 142 141 144 147 140
138 142 141 140 142 146 148 151 157 133   0   0   5   0   0   0   0   0   0   0   0   0   0   0
  0   0   0   0
