P2
# 8-bit pgm gray
100 100
255
  0   0   0   0   0   0   0   0   0   0   0   0   0   0   0  10   0   0 193 237 227 230 229 228
228 227 224 222 215 201 198 194 192 197 205 200 198 192 188 191 190 179 159 132  77  34  36  28
 25  21  19  17  15  14  12  11  11  11  10  11  10  10  10  10  10  10  10  11  10   8  60  62
 24  28  53  37  25  11  26   0 145 182   0   0  11   0   0   0   0   0   0   0   0   0   0   0
  0   0   0   0
  0   0   0   0   0   0   0   0   0   0   0   0   0   0   0  10   0   0 192 236 227 229 228 227
226 224 222 219 205 195 193 190 192 195 199 196 193 191 193 194 184 168 148 106  44  39  32  26
 24  20  18  16  14  13  12  10  10  10  10  10  10  10  10  10   9  10   9  10   9   9  44  45
 29   0  33  37   7  13  25   0 146 182   0   0  11   0   0   0   0   0   0   0   0   0   0   0
  0   0   0   0
  0   0   0   0   0   0   0   0   0   0   0   0   0   0   0  10   0   0 191 235 226 228 227 225
224 222 220 212 200 195 191 193 194 195 194 193 190 189 193 187 173 159 135  76  37  39  28  25
 22  19  17  15  14  12  11   9   9   9   9   9   9   9   9   9   9   9   9  10   6  18  38  44
 32   0  23  28   0  13  24   0 147 183   0   0  11   0   0   0   0   0   0   0   0   0   0   0
  0   0   0   0
  0   0   0   0   0   0   0   0   0   0   0   0   0   0   0  10   0   0 190 235 226 227 225 224
222 220 215 202 197 193 192 194 193 192 191 189 184 185 188 177 165 151 114  53  39  34  28  24
 20  18  16  14  13  11  10   8   8   8   8   8   8   8   8   8   8   8   8   8  10   0  46  69
 46  10  37  29  20  12  23   0 152 184   0   0  11   0   0   0   0   0   0   0   0   0   0   0
  0   0   0   0
  0   0   0   0   0   0   0   0   0   0   0   0   0   0   0  10   0   0 190 235 225 226 223 221
218 215 203 192 191 188 190 192 191 189 190 186 181 185 183 171 160 136  85  42  39  31  27  23
 19  17  15  13  12  11   9   8   8   8   8   8   8   8   7   7   7   7   7   8   6  11  32  34
 21  19  43  38  32  10  22   0 152 184   0   0  11   0   0   0   0   0   0   0   0   0   0   0
  0   0   0   0
  0   0   0   0   0   0   0   0   0   0   0   0   0   0   0  10   0   0 190 234 223 223 220 218
215 207 194 189 189 188 187 189 190 189 189 187 185 186 180 167 150 114  61  41  36  30  26  22
 19  17  15  13  12  10   8   7   8   7   7   8   8   7   7   7   7   7   7   9   2  22  33  28
 39  13  26  25  22  11  24   0 147 182   0   0  11   0   0   0   0   0   0   0   0   0   0   0
  0   0   0   0
  0   0   0   0   0   0   0   0   0   0   0   0   0   0   0  10   0   0 189 232 221 220 218 216
207 194 190 188 187 186 187 188 189 188 187 185 185 185 174 155 131  89  45  40  33  30  25  23
 21  16  14  13  11  10   8   7   8   7   7   7   7   7   7   7   7   7   7   8   5  13  29  38
 24  25  47  39  24   9  25   0 142 181   0   0  11   0   0   0   0   0   0   0   0   0   0   0
  0   0   0   0
  0   0   0   0   0   0   0   0   0   0   0   0   0   0   0  10   0   0 188 230 219 217 214 208
194 189 187 186 186 187 188 188 189 188 187 181 180 179 166 143 113  64  39  38  31  29  24  23
 21  15  14  12  11  10   8   7   9   7   7   7   7   8   7   7   8   6   7   7   8   6   6   9
  0  14  51  53  32   5  27   0 139 179   0   0  11   0   0   0   0   0   0   0   0   0   0   0
  0   0   0   0
  0   0   0   0   0   0   0   0   0   0   0   0   0   0   0  10   0   0 187 229 216 215 207 194
188 186 186 187 185 186 186 185 186 187 185 176 177 172 153 134  91  45  40  35  30  28  24  19
 17  15  13  12  11   9   7   7   7   7   7   7   7   7   7   7   7   6   7   7   7   8   8   7
 11   0  47  80  44   0  26   0 142 179   0   0  11   0   0   0   0   0   0   0   0   0   0   0
  0   0   0   0
  0   0   0   0   0   0   0   0   0   0   0   0   0   0   0   9   0   0 182 225 211 205 192 188
187 184 185 186 186 186 184 182 183 185 180 174 174 159 141 115  65  42  39  34  31  27  23  19
 17  14  13  11  10   8   7   7   7   7   7   7   7   7   8   7   6   7   6   6   7   8   8   8
 10   0  40  73  42   0  24   0 144 180   0   0  11   0   0   0   0   0   0   0   0   0   0   0
  0   0   0   0
  0   0   0   0   0   0   0   0   0   0   0   0   0   0   0   9   0   0 179 218 199 189 185 185
185 185 185 185 186 186 185 184 184 182 173 171 163 147 130  90  51  44  38  35  30  24  22  19
 16  14  12  11  10   8   6   6   7   7   6   7   7   7   7   7   7   7   6   7   7   8   8   8
  7   8  30  36  30   7  23   0 142 178   0   0  11   0   0   0   0   0   0   0   0   0   0   0
  0   0   0   0
  0   0   0   0   0   0   0   0   0   0   0   0   0   0   0   8   0   0 173 201 183 185 185 186
184 187 186 184 184 185 183 184 182 174 168 162 148 140 111  69  47  42  37  32  28  24  21  18
 15  13  11  10   9   7   6   6   6   6   6   7   6   7   7   7   7   6   6   6   7   7   7   7
  8  10   4   0   0   9  24   0 136 175   0   0  10   0   0   0   0   0   0   0   0   0   0   0
  0   0   0   0
  0   0   0   0   0   0   0   0   0   0   0   0   0   0   0   7   0   0 158 189 178 182 184 188
184 186 188 184 182 183 182 181 176 168 165 156 141 122  86  56  45  38  34  32  28  23  20  17
 15  13  11  10   8   6   6   6   6   6   6   6   6   7   6   7   6   6   6   6   7   7   7   8
  4   0   1   7   9   7  25   0 131 174   0   0  10   0   0   0   0   0   0   0   0   0   0   0
  0   0   0   0
  0   0   0   0   0   0   0   0   0   0   0   0   0   0   0   6   0   0 154 189 181 184 185 185
185 188 189 186 184 185 184 182 172 164 156 148 129 101  71  49  41  36  35  31  24  22  19  17
 14  12  11  10   8   6   6   6   6   6   6   6   6   6   6   6   6   6   6   6   7   8   6  11
 30  31  37  21   3   9  24   0 135 175   0   0  10   0   0   0   0   0   0   0   0   0   0   0
  0   0   0   0
  0   0   0   0   0   0   0   0   0   0   0   0   0   0   0   6   0   0 154 193 186 187 185 184
187 189 188 186 183 185 185 177 165 155 145 134 114  85  56  43  39  37  34  28  24  22  18  15
 14  12  10   9   7   6   6   6   6   6   6   6   6   6   6   6   6   6   6   6   7   7   7   7
 21  48  41  33   8   7  23   0 138 176   0   0  10   0   0   0   0   0   0   0   0   0   0   0
  0   0   0   0
  0   0   0   0   0   0   0   0   0   0   0   0   0   0   0   6   0   0 155 194 187 188 186 185
185 187 187 186 184 184 181 170 161 153 139 123 103  71  47  42  40  39  32  28  25  21  18  15
 13  12  10   8   6   6   6   6   6   6   6   6   5   6   6   6   6   5   6   6   7   7   6  11
 22  39  42  38   8   8  23   0 139 176   0   0  10   0   0   0   0   0   0   0   0   0   0   0
  0   0   0   0
  0   0   0   0   0   0   0   0   0   0   0   0   0   0   0   6   0   0 155 194 188 187 186 186
186 188 189 185 185 183 175 166 156 145 129 109  80  54  42  40  40  37  30  27  24  20  17  15
 13  11   9   7   6   6   6   5   6   6   5   6   6   6   6   5   6   5   5   6   6   7   6   7
 16  16  18  11   5   9  22   0 137 174   0   0  10   0   0   0   0   0   0   0   0   0   0   0
  0   0   0   0
  0   0   0   0   0   0   0   0   0   0   0   0   0   0   0   6   0   0 154 193 187 188 187 187
189 188 190 188 186 180 170 160 148 133 116  92  63  45  42  41  38  32  29  26  22  20  17  15
 12  10   9   7   5   6   6   6   6   6   6   6   6   6   6   5   5   5   5   5   6   6   7   6
  3   3   2   5   7   7  23   0 132 171   0   0  10   0   0   0   0   0   0   0   0   0   0   0
  0   0   0   0
  0   0   0   0   0   0   0   0   0   0   0   0   0   0   0   6   0   0 155 193 186 188 188 189
190 188 189 187 182 176 167 155 142 123 103  78  56  43  42  41  36  32  29  25  22  19  16  14
 12  10   9   7   5   6   6   6   6   6   6   6   6   6   6   5   5   5   5   5   6   6   6   7
  8   8   8   8   7   6  24   0 127 169   0   0  10   0   0   0   0   0   0   0   0   0   0   0
  0   0   0   0
  0   0   0   0   0   0   0   0   0   0   0   0   0   0   0   6   0   0 155 192 186 187 189 190
189 188 188 184 177 169 158 144 126 110  92  67  47  45  45  40  35  31  29  26  22  19  15  13
 11  10   8   6   6   6   6   6   6   6   5   6   6   6   5   5   5   5   5   5   6   6   6   6
  7   7   7   7   7   7  23   0 128 169   0   0  10   0   0   0   0   0   0   0   0   0   0   0
  0   0   0   0
  0   0   0   0   0   0   0   0   0   0   0   0   0   0   0   6   0   0 157 196 188 188 189 190
190 190 186 180 169 152 140 127 114 100  81  60  46  49  44  39  36  32  28  25  22  18  15  13
 11   9   7   6   6   6   6   5   6   6   5   6   6   6   5   5   5   5   5   6   6   6   6   7
  7   7   7   7   7   8  22   0 133 171   0   0  10   0   0   0   0   0   0   0   0   0   0   0
  0   0   0   0
  0   0   0   0   0   0   0   0   0   0   0   0   0   0   0   7   0   0 157 194 189 191 189 189
191 189 182 173 157 142 131 118 104  84  65  51  48  44  40  38  34  30  26  22  19  17  14  13
 10   9   7   6   6   6   6   5   5   5   5   5   5   5   6   5   5   5   5   5   6   6   6   7
  7   7   7   7   6   8  21   0 136 171   0   0  10   0   0   0   0   0   0   0   0   0   0   0
  0   0   0   0
  0   0   0   0   0   0   0   0   0   0   0   0   0   0   0   7   0   0 159 196 191 191 191 191
190 182 169 157 148 138 125 114  96  75  56  48  46  41  39  36  31  28  25  22  19  16  14  12
 10   8   6   6   6   6   6   5   5   5   5   5   5   5   5   5   5   5   5   6   6   6   6   6
  6   6   6   6   6   9  19   0 138 172   0   0  10   0   0   0   0   0   0   0   0   0   0   0
  0   0   0   0
  0   0   0   0   0   0   0   0   0   0   0   0   0   0   0   7   0   0 160 197 191 192 191 191
182 171 158 149 139 127 116 102  81  64  47  45  44  42  40  34  30  27  24  21  18  15  13  11
  9   7   5   6   6   6   6   5   5   5   5   5   5   5   5   5   5   5   5   5   6   6   6   6
  6   6   6   6   5   9  20   0 138 172   0   0  10   0   0   0   0   0   0   0   0   0   0   0
  0   0   0   0
  0   0   0   0   0   0   0   0   0   0   0   0   0   0   0   7   0   0 158 196 190 191 188 183
174 166 154 142 129 117 108  91  71  56  46  46  45  43  38  32  29  26  23  20  17  14  12  10
  8   6   6   6   6   6   5   5   5   5   5   5   5   5   5   5   5   5   5   5   6   6   6   6
  6   6   6   6   6   9  19   0 139 172   0   0  10   0   0   0   0   0   0   0   0   0   0   0
  0   0   0   0
  0   0   0   0   0   0   0   0   0   0   0   0   0   0   0   6   0   0 156 194 188 188 184 178
169 159 147 133 123 111  98  80  64  50  45  43  43  39  36  32  28  25  22  18  15  13  11  10
  8   5   6   6   6   5   5   5   5   5   5   5   5   5   5   5   5   5   5   5   5   5   5   6
  6   6   6   6   5   9  17   0 142 173   0   0  10   0   0   0   0   0   0   0   0   0   0   0
  0   0   0   0
  0   0   0   0   0   0   0   0   0   0   0   0   0   0   0   7   0   0 161 197 186 187 182 174
164 151 137 128 119 105  88  71  55  47  45  42  39  36  33  30  26  23  20  16  14  12  10   9
  7   5   6   6   6   5   5   5   5   5   5   5   5   5   6   5   5   5   5   5   5   5   5   5
  6   5   5   6   5  10  17   0 143 173   0   0  10   0   0   0   0   0   0   0   0   0   0   0
  0   0   0   0
  0   0   0   0   0   0   0   0   0   0   0   0   0   0   0   7   0   0 164 199 188 185 177 165
157 144 130 121 111  96  78  63  47  44  45  42  37  35  32  27  25  22  18  15  13  12  11   9
  6   6   6   6   6   6   5   5   5   5   5   5   5   5   5   5   5   5   5   5   5   5   5   5
  5   5   5   6   5  10  17   0 142 173   0   0  10   0   0   0   0   0   0   0   0   0   0   0
  0   0   0   0
  0   0   0   0   0   0   0   0   0   0   0   0   0   0   0   7   0   0 161 195 183 176 168 160
153 138 126 113 100  84  70  52  44  45  45  42  37  35  33  28  23  21  19  16  13  12  11   8
  6   6   6   6   6   6   6   5   5   5   5   5   5   5   5   4   5   5   5   5   5   5   5   5
  5   5   5   6   5   9  18   0 141 173   0   0  10   0   0   0   0   0   0   0   0   0   0   0
  0   0   0   0
  0   0   0   0   0   0   0   0   0   0   0   0   0   0   0   7   0   0 160 199 186 175 165 158
150 137 122 110  96  79  62  48  45  45  44  41  37  33  31  30  25  22  20  16  14  12  10   6
  5   6   6   6   6   6   5   5   6   5   5   5   5   5   5   5   5   5   4   4   5   5   5   6
  6   5   5   6   5  10  17   0 143 173   0   0  10   0   0   0   0   0   0   0   0   0   0   0
  0   0   0   0
  0   0   0   0   0   0   0   0   0   0   0   0   0   0   0   6   0   0 155 191 178 174 167 157
152 141 125 112  94  76  55  48  46  43  40  37  36  33  30  29  27  22  20  17  14  14  12   6
  5   6   6   6   6   5   5   5   6   5   5   5   5   5   5   5   5   4   4   5   5   5   5   6
  6   5   6   6   5  11  15   0 146 174   0   0  10   0   0   0   0   0   0   0   0   0   0   0
  0   0   0   0
  0   0   0   0   0   0   0   0   0   0   0   0   0   0   0   6   0   0 153 181 165 163 161 159
154 144 129 114  98  75  57  54  49  45  43  41  39  36  31  28  25  21  19  17  15  14  12   8
  5   5   6   6   6   5   5   5   6   5   5   5   5   5   5   5   5   4   4   4   5   5   5   5
  5   5   6   6   5  11  14   0 147 175   0   0  10   0   0   0   0   0   0   0   0   0   0   0
  0   0   0   0
  0   0   0   0   0   0   0   0   0   0   0   0   0   0   0   6   0   0 148 175 161 159 155 150
147 143 131 110  92  70  62  61  55  49  46  44  42  37  32  29  26  23  20  17  15  13  11   9
  6   5   6   6   6   6   5   5   6   5   5   5   5   5   5   5   5   5   5   5   5   5   6   6
  5   5   5   6   5  10  15   0 146 175   0   0  10   0   0   0   0   0   0   0   0   0   0   0
  0   0   0   0
  0   0   0   0   0   0   0   0   0   0   0   0   0   0   0   6   0   0 144 171 160 156 151 144
142 137 124 110  91  70  64  61  58  53  49  46  44  39  34  32  29  27  22  18  16  13  11  10
  8   6   6   6   6   6   6   6   6   6   5   5   5   6   6   5   5   5   5   4   5   5   5   5
  6   5   5   6   5  10  15   0 147 175   0   0  10   0   0   0   0   0   0   0   0   0   0   0
  0   0   0   0
  0   0   0   0   0   0   0   0   0   0   0   0   0   0   0   5   0   0 143 171 158 154 148 143
138 128 115 107  90  72  68  62  59  55  52  50  44  42  40  36  31  28  24  20  17  15  13  11
 10   7   6   6   6   6   6   6   6   6   6   6   5   5   5   5   5   5   4   5   5   5   5   5
  6   6   6   6   5  11  12   0 150 176   0   0  10   0   0   0   0   0   0   0   0   0   0   0
  0   0   0   0
  0   0   0   0   0   0   0   0   0   0   0   0   0   0   0   5   0   0 139 168 154 150 146 141
134 121 111  98  78  72  73  70  66  63  61  57  50  48  46  42  37  32  29  24  19  16  14  12
 10   9   7   6   6   6   6   6   6   6   6   5   5   5   5   5   5   5   5   5   5   5   5   5
  5   5   5   6   5  11  11   0 152 177   0   0  10   0   0   0   0   0   0   0   0   0   0   0
  0   0   0   0
  0   0   0   0   0   0   0   0   0   0   0   0   0   0   0   5   0   0 137 166 155 152 149 145
135 124 109  89  88  90  92  90  88  87  86  85  74  61  57  54  43  35  33  29  23  19  15  13
 11  10   8   6   6   6   6   6   6   6   6   6   5   5   5   5   5   5   5   5   5   5   5   5
  6   5   5   6   5  11  10   0 151 176   0   0  10   0   0   0   0   0   0   0   0   0   0   0
  0   0   0   0
  0   0   0   0   0   0   0   0   0   0   0   0   0   0   0   5   0   0 142 173 160 158 152 147
137 127 112  99 100 101  99 101 109 110 108 105  98  88  82  74  54  41  31  23  25  22  18  15
 13  11   9   8   6   6   6   6   6   6   6   6   5   5   5   5   5   5   4   5   5   5   5   5
  6   6   5   6   5  11  13   0 150 176   0   0  10   0   0   0   0   0   0   0   0   0   0   0
  0   0   0   0
  0   0   0   0   0   0   0   0   0   0   0   0   0   0   0   5   0   0 141 174 162 155 147 135
129 120 107 102  98 101 106 115 121 120 115 112 110 107 103  97  86  76  68  46  25  20  19  17
 14  12  11   9   7   6   6   6   6   6   6   6   5   5   5   5   5   5   4   5   5   5   6   5
  6   6   5   6   5  11  13   0 149 176   0   0  10   0   0   0   0   0   0   0   0   0   0   0
  0   0   0   0
  0   0   0   0   0   0   0   0   0   0   0   0   0   0   0   5   0   0 136 166 156 149 140 131
122 108 103 105 108 115 125 132 128 124 124 121 124 126 121 118 114 106 103  93  65  39  23  17
 16  13  12  10   9   6   6   6   6   6   6   6   5   6   6   5   5   5   5   5   5   5   5   5
  6   6   5   6   5  11  12   0 150 176   0   0  10   0   0   0   0   0   0   0   0   0   0   0
  0   0   0   0
  0   0   0   0   0   0   0   0   0   0   0   0   0   0   0   5   0   0 135 159 144 144 136 129
114 102 106 109 118 130 137 143 146 142 138 136 143 142 126 111 104 101 109 113  98  76  52  29
 17  15  13  11  10   8   6   6   6   6   6   6   5   6   6   5   5   5   4   5   5   5   5   5
  6   5   5   6   5  11  11   0 150 176   0   0  10   0   0   0   0   0   0   0   0   0   0   0
  0   0   0   0
  0   0   0   0   0   0   0   0   0   0   0   0   0   0   0   5   0   0 132 158 142 142 140 133
116 110 120 121 130 140 145 150 156 158 155 154 156 144 126 119 108 100 113 121 119 106  83  57
 33  18  14  13  11  10   7   6   6   6   5   5   5   5   6   5   5   5   5   5   5   5   5   6
  5   5   6   6   5  11  13   0 148 175   0   0  10   0   0   0   0   0   0   0   0   0   0   0
  0   0   0   0
  0   0   0   0   0   0   0   0   0   0   0   0   0   0   0   4   0   0 126 158 149 146 150 143
127 128 130 132 143 148 150 156 160 162 163 165 159 149 148 152 148 142 137 139 139 133 112  87
 58  33  18  14  12  11   9   6   6   6   5   5   6   6   5   5   5   5   5   5   5   5   5   6
  6   5   6   6   5  10  16   0 144 174   0   0  10   0   0   0   0   0   0   0   0   0   0   0
  0   0   0   0
  0   0   0   0   0   0   0   0   0   0   0   0   0   0   0   4   0   0 128 156 148 153 148 135
128 134 138 143 148 152 153 156 164 168 170 171 170 167 171 176 180 179 171 164 164 161 141 118
 91  59  31  18  14  12  10   8   5   6   5   5   6   5   5   5   5   5   5   5   5   5   5   6
  6   6   5   6   5   8  18   0 140 172   0   0  10   0   0   0   0   0   0   0   0   0   0   0
  0   0   0   0
  0   0   0   0   0   0   0   0   0   0   0   0   0   0   0   4   0   0 123 153 147 145 137 129
129 129 133 136 138 143 150 158 165 172 179 180 174 176 186 194 196 194 194 189 183 175 163 144
121  94  63  31  16  13  11  10   6   5   6   6   5   5   5   5   5   5   5   5   5   5   5   5
  6   6   6   6   5   8  19   0 138 171   0   0  10   0   0   0   0   0   0   0   0   0   0   0
  0   0   0   0
  0   0   0   0   0   0   0   0   0   0   0   0   0   0   0   4   0   0 122 150 142 142 134 126
128 126 127 130 134 142 159 166 169 173 180 185 183 186 194 200 200 201 204 203 196 189 179 165
145 124  98  59  28  15  12  11   8   6   6   6   5   6   5   5   5   5   5   5   5   5   5   6
  6   6   6   6   5   9  18   0 140 172   0   0  10   0   0   0   0   0   0   0   0   0   0   0
  0   0   0   0
  0   0   0   0   0   0   0   0   0   0   0   0   0   0   0   4   0   0 119 141 137 136 120 118
124 128 128 130 128 142 158 167 171 172 178 186 192 193 199 203 204 207 209 209 205 199 189 178
165 146 119  85  51  24  13  12  10   7   5   5   5   6   6   5   5   5   5   5   5   5   5   6
  6   6   6   6   5   8  19   0 138 171   0   0  10   0   0   0   0   0   0   0   0   0   0   0
  0   0   0   0
  0   0   0   0   0   0   0   0   0   0   0   0   0   0   0   4   0   0 116 138 133 126 109 113
117 124 130 139 136 145 159 173 177 180 188 196 200 203 206 211 213 214 214 212 210 206 201 192
180 162 139 108  74  41  18  12  11   8   5   5   5   5   6   5   5   5   5   5   6   6   6   6
  6   6   6   6   5   8  20   0 136 171   0   0  10   0   0   0   0   0   0   0   0   0   0   0
  0   0   0   0
  0   0   0   0   0   0   0   0   0   0   0   0   0   0   0   4   0   0 116 140 128 122 114 119
119 125 133 139 142 151 166 179 186 191 199 203 207 212 212 213 215 216 216 215 213 210 207 201
190 177 158 131  99  60  26  13  12   9   6   5   5   5   6   5   5   5   5   5   6   6   6   6
  6   6   6   6   6   8  20   0 135 171   0   0  10   0   0   0   0   0   0   0   0   0   0   0
  0   0   0   0
  0   0   0   0   0   0   0   0   0   0   0   0   0   0   0   3   0   0 111 131 120 111 109 120
128 126 129 137 141 149 164 181 190 198 205 205 208 211 211 209 214 217 217 215 215 214 210 206
199 189 173 151 121  84  45  17  12  11   8   6   5   5   5   5   5   5   5   5   5   5   6   6
  6   6   6   6   6   8  20   0 138 172   0   0  10   0   0   0   0   0   0   0   0   0   0   0
  0   0   0   0
  0   0   0   0   0   0   0   0   0   0   0   0   0   0   0   3   0   0 110 127 114 110 110 116
126 134 145 152 156 162 160 175 194 204 207 208 209 212 213 214 217 218 216 215 216 216 213 210
204 196 184 165 138 105  68  30  13  12  10   7   5   5   6   5   5   5   5   5   6   5   5   6
  6   6   6   6   5  10  16   0 145 174   0   0  10   0   0   0   0   0   0   0   0   0   0   0
  0   0   0   0
  0   0   0   0   0   0   0   0   0   0   0   0   0   0   0   3   0   0 104 123 105 106 111 114
121 132 143 157 163 166 169 179 197 208 209 210 211 214 215 218 220 221 219 217 217 217 214 212
208 200 189 177 156 123  87  50  20  12  11   8   5   5   5   5   5   5   5   6   6   5   6   6
  5   6   6   6   5  12  11   0 152 177   0   0  10   0   0   0   0   0   0   0   0   0   0   0
  0   0   0   0
  0   0   0   0   0   0   0   0   0   0   0   0   0   0   0   3   0   0 104 121 106 107 116 120
124 129 139 154 163 176 191 195 201 206 207 210 215 218 219 219 222 223 222 220 220 219 215 213
208 202 193 184 168 138 105  69  34  14  12  10   6   5   5   5   5   5   6   6   6   5   6   6
  6   6   6   6   5  13   7   0 156 179   0   0  10   0   0   0   0   0   0   0   0   0   0   0
  0   0   0   0
  0   0   0   0   0   0   0   0   0   0   0   0   0   0   0   3   0   0 106 124 107 111 119 121
121 128 136 145 154 170 188 198 203 205 206 208 215 220 221 220 222 224 224 223 222 220 217 213
209 204 198 189 177 155 123  87  50  19  12  11   7   5   5   5   5   5   6   6   6   6   6   6
  6   6   6   6   5  13   6   0 158 179   0   0  10   0   0   0   0   0   0   0   0   0   0   0
  0   0   0   0
  0   0   0   0   0   0   0   0   0   0   0   0   0   0   0   3   0   0 104 121 107 111 124 128
125 133 148 159 169 177 187 194 200 204 208 209 213 218 219 220 222 224 224 223 222 219 219 217
214 209 203 194 185 169 142 107  67  29  13  12   9   6   5   5   5   5   5   5   5   6   6   6
  6   6   6   6   5  13   6   0 159 180   0   0  10   0   0   0   0   0   0   0   0   0   0   0
  0   0   0   0
  0   0   0   0   0   0   0   0   0   0   0   0   0   0   0   3   0   0 100 120 113 119 126 135
131 134 147 161 178 190 195 200 204 206 209 211 217 219 219 220 220 221 221 222 223 221 221 219
217 215 209 201 194 179 153 125  85  44  15  12  10   7   5   5   5   5   5   6   6   6   6   6
  6   6   6   6   5  14   2   0 162 181   0   0  10   0   0   0   0   0   0   0   0   0   0   0
  0   0   0   0
  0   0   0   0   0   0   0   0   0   0   0   0   0   0   0   2   0   0  94 113 104 111 116 127
136 140 143 152 168 179 190 196 198 202 206 211 218 219 218 218 219 220 219 221 224 223 221 220
220 219 213 207 201 188 165 141 105  56  19  12  11   8   5   5   5   5   5   6   6   6   6   6
  6   6   6   6   5  15   0   0 165 182   0   0  11   0   0   0   0   0   0   0   0   0   0   0
  0   0   0   0
  0   0   0   0   0   0   0   0   0   0   0   0   0   0   0   2   0   0  95 109  97 104 108 118
128 135 145 156 167 178 185 188 193 201 206 212 216 216 215 215 217 219 222 222 221 224 222 220
220 219 214 209 205 194 176 154 123  73  25  13  12   9   5   5   5   5   5   5   6   6   6   6
  6   6   5   6   5  14   0   0 167 183   0   0  11   0   0   0   0   0   0   0   0   0   0   0
  0   0   0   0
  0   0   0   0   0   0   0   0   0   0   0   0   0   0   0   3   0   0  99 110  96 110 115 124
130 134 144 161 176 190 197 202 207 209 212 217 214 212 213 216 217 220 223 223 221 223 224 221
219 217 214 210 206 199 182 157 132  92  39   9  14   9   6   4   5   5   5   5   5   5   6   5
  6   6   5   6   5  14   0   0 167 183   0   0  11   0   0   0   0   0   0   0   0   0   0   0
  0   0   0   0
  0   0   0   0   0   0   0   0   0   0   0   0   0   0   0   3   0   0 102 117 102 110 121 134
144 145 155 170 185 197 205 211 215 218 218 219 215 212 213 218 222 222 224 224 221 220 223 222
219 216 215 210 205 201 186 162 136 101  49  10  14   9   7   4   5   5   5   5   5   5   5   5
  6   5   5   6   5  15   0   0 167 183   0   0  11   0   0   0   0   0   0   0   0   0   0   0
  0   0   0   0
  0   0   0   0   0   0   0   0   0   0   0   0   0   0   0   3   0   0 111 128 111 111 119 135
144 144 158 178 185 195 201 203 209 215 217 216 211 213 216 220 223 223 223 225 224 221 223 224
221 219 218 213 207 203 192 172 145 106  51  16  15  10   8   5   4   4   4   5   5   5   5   5
  6   6   6   6   5  15   0   0 169 184   0   0  11   0   0   0   0   0   0   0   0   0   0   0
  0   0   0   0
  0   0   0   0   0   0   0   0   0   0   0   0   0   0   0   3   0   0 108 127 119 122 125 130
136 149 166 180 189 192 196 198 201 202 207 210 209 214 218 222 224 225 225 225 226 224 224 223
222 221 218 214 208 203 194 178 153 114  64  18  16  11   8   5   4   4   4   4   4   5   5   5
  5   5   5   5   5  15   0   0 171 185   0   0  11   0   0   0   0   0   0   0   0   0   0   0
  0   0   0   0
  0   0   0   0   0   0   0   0   0   0   0   0   0   0   0   3   0   0 106 126 123 131 124 125
134 154 173 186 194 199 199 198 198 198 202 208 211 215 220 223 226 227 227 226 225 225 223 222
219 217 213 208 206 201 192 177 156 121  76  29  14  13   8   5   4   4   4   4   4   4   5   5
  5   5   5   6   5  15   0   2 172 185   0   0  11   0   0   0   0   0   0   0   0   0   0   0
  0   0   0   0
  0   0   0   0   0   0   0   0   0   0   0   0   0   0   0   3   0   0 110 139 139 138 132 139
147 158 173 187 195 198 200 202 203 207 209 211 213 217 221 222 224 225 224 225 224 224 221 218
216 214 211 205 201 195 183 167 153 125  81  36  15  13   9   6   4   4   4   4   4   4   5   5
  5   5   5   6   5  15   0   0 171 185   0   0  11   0   0   0   0   0   0   0   0   0   0   0
  0   0   0   0
  0   0   0   0   0   0   0   0   0   0   0   0   0   0   0   3   0   0 110 148 151 143 149 158
160 165 173 178 185 191 201 208 209 212 213 215 219 222 222 223 222 220 221 221 222 220 218 214
209 206 206 204 197 193 180 158 148 125  89  48  15  12  10   7   4   4   4   4   4   5   5   5
  5   5   5   6   4  15   0   0 172 186   0   0  11   0   0   0   0   0   0   0   0   0   0   0
  0   0   0   0
  0   0   0   0   0   0   0   0   0   0   0   0   0   0   0   3   2   0 106 150 149 143 150 158
163 166 168 170 179 184 201 213 210 213 217 220 221 224 226 224 223 222 221 220 219 217 214 213
207 199 198 198 194 191 169 140 137 130 101  61  22  12  11   7   4   4   4   4   4   5   5   5
  5   5   5   5   4  16   0   7 174 186   0   0  11   0   0   0   0   0   0   0   0   0   0   0
  0   0   0   0
  0   0   0   0   0   0   0   0   0   0   0   0   0   0   0   2   2   0 100 143 147 143 152 159
163 161 169 179 181 179 194 209 211 213 217 220 222 224 226 227 226 225 224 223 221 217 214 215
214 206 194 189 190 170 144 127 117 130 106  57  30  12  11   8   5   4   4   4   5   5   5   5
  5   5   5   5   4  16   0  23 177 187   0   0  11   0   0   0   0   0   0   0   0   0   0   0
  0   0   0   0
  0   0   0   0   0   0   0   0   0   0   0   0   0   0   0   2   1   0 102 146 160 155 159 169
171 166 171 181 188 187 195 207 209 212 216 219 221 223 225 226 225 224 222 221 221 221 221 217
218 213 200 189 174 147 136 125 111 128 114  61  34  13  11   8   5   4   4   4   5   5   5   5
  5   5   5   5   4  17   0  31 179 187   0   0  11   0   0   0   0   0   0   0   0   0   0   0
  0   0   0   0
  0   0   0   0   0   0   0   0   0   0   0   0   0   0   0   3   0   0 105 138 155 163 161 169
176 177 176 182 193 193 199 209 208 209 213 217 219 221 221 221 223 221 215 213 213 217 222 220
218 214 209 198 171 155 150 136 115 131 127  84  39  11  12   8   4   4   5   4   5   5   5   5
  5   5   5   5   5  17   0  34 180 188   0   0  11   0   0   0   0   0   0   0   0   0   0   0
  0   0   0   0
  0   0   0   0   0   0   0   0   0   0   0   0   0   0   0   3   0   0 106 134 146 161 169 172
171 176 176 181 189 190 194 203 207 211 213 214 216 217 217 218 219 217 212 207 207 209 216 218
217 215 211 200 182 173 157 132 124 147 146 106  53   7  14   9   4   4   5   5   5   5   5   5
  5   5   5   5   5  18   0  38 182 188   0   0  11   0   0   0   0   0   0   0   0   0   0   0
  0   0   0   0
  0   0   0   0   0   0   0   0   0   0   0   0   0   0   0   3   0   0 109 130 131 150 161 167
167 165 168 171 177 183 188 197 205 206 210 216 217 217 218 217 218 217 213 207 207 208 208 211
210 209 206 204 193 181 161 141 142 164 158 121  71  11  14  10   4   5   5   5   5   5   6   6
  6   5   5   6   5  18   0  41 183 189   0   0  11   0   0   0   0   0   0   0   0   0   0   0
  0   0   0   0
  0   0   0   0   0   0   0   0   0   0   0   0   0   0   0   3   0   0 113 127 117 133 143 151
161 165 171 179 180 184 186 193 200 203 205 213 215 213 214 215 214 212 213 208 206 206 202 205
204 203 202 203 198 189 175 153 157 168 163 137  89  24  11  12   4   5   5   5   6   6   6   6
  6   5   5   6   5  18   0  39 183 189   0   0  11   0   0   0   0   0   0   0   0   0   0   0
  0   0   0   0
  0   0   0   0   0   0   0   0   0   0   0   0   0   0   0   5   0   0 130 149 128 131 136 146
162 172 180 184 186 190 188 193 199 206 201 202 213 208 207 214 211 208 206 203 204 204 200 199
197 192 197 202 201 199 182 169 166 164 166 144  99  37  10  14   4   5   5   5   5   5   5   6
  6   5   5   6   5  18   0  37 182 189   0   0  11   0   0   0   0   0   0   0   0   0   0   0
  0   0   0   0
  0   0   0   0   0   0   0   0   0   0   0   0   0   0   0   4   0   0 131 161 147 141 140 141
160 177 186 190 188 188 193 205 212 215 211 202 207 210 209 210 208 205 201 202 205 206 204 205
203 197 196 200 203 206 198 180 167 165 168 144 102  43  11  15   4   4   4   5   5   5   5   6
  5   5   6   6   5  18   0  36 182 189   0   0  11   0   0   0   0   0   0   0   0   0   0   0
  0   0   0   0
  0   0   0   0   0   0   0   0   0   0   0   0   0   0   0   3   0   0 114 144 146 146 148 148
151 167 184 195 199 201 208 217 220 221 222 215 205 203 206 206 204 201 201 202 204 203 209 211
210 208 205 206 208 209 199 180 166 164 165 139 101  46  13  15   4   4   5   5   5   5   6   5
  5   6   6   6   5  18   0  39 183 189   0   0  11   0   0   0   0   0   0   0   0   0   0   0
  0   0   0   0
  0   0   0   0   0   0   0   0   0   0   0   0   0   0   0   3   0   0 110 140 138 142 143 147
147 163 186 199 208 215 217 221 223 222 221 221 214 205 202 205 205 203 201 199 204 205 210 209
209 213 213 210 212 215 205 185 168 166 161 138  99  47  15  15   4   4   5   5   5   5   5   5
  5   6   6   6   5  18   0  43 184 189   0   0  11   0   0   0   0   0   0   0   0   0   0   0
  0   0   0   0
  0   0   0   0   0   0   0   0   0   0   0   0   0   0   0   3   0   0 107 134 133 140 138 135
147 162 181 195 205 215 220 222 223 220 220 223 221 215 210 210 209 207 201 199 205 209 212 212
215 217 215 208 209 215 211 190 178 174 165 143  98  44  15  14   4   4   4   5   5   5   5   5
  5   5   5   6   5  18   0  44 185 189   0   0  11   0   0   0   0   0   0   0   0   0   0   0
  0   0   0   0
  0   0   0   0   0   0   0   0   0   0   0   0   0   0   0   3   0   0 108 128 123 133 138 128
137 151 170 185 195 211 219 220 220 221 222 223 221 215 205 206 210 212 211 207 207 207 207 210
217 219 214 209 211 213 213 198 190 184 172 142  90  43  18  11   4   4   4   4   4   4   5   4
  5   6   5   5   5  18   0  47 185 189   0   0  11   0   0   0   0   0   0   0   0   0   0   0
  0   0   0   0
  0   0   0   0   0   0   0   0   0   0   0   0   0   0   0   3   0   0 111 138 126 120 125 123
124 143 167 179 190 205 213 217 218 218 219 218 216 209 197 200 205 204 207 208 207 209 207 206
207 210 210 207 209 212 213 206 196 190 171 131  87  56  31   9   5   4   4   4   4   5   5   4
  5   5   5   5   5  18   0  44 184 189   0   0  11   0   0   0   0   0   0   0   0   0   0   0
  0   0   0   0
  0   0   0   0   0   0   0   0   0   0   0   0   0   0   0   3   0   0 111 143 140 135 129 123
120 128 154 178 196 207 210 215 215 215 216 215 212 206 192 196 206 202 198 203 204 206 207 204
202 202 206 205 206 211 212 211 202 186 160 117  77  59  42  11   4   5   4   5   5   5   5   5
  5   5   6   6   5  18   0  30 181 188   0   0  11   0   0   0   0   0   0   0   0   0   0   0
  0   0   0   0
  0   0   0   0   0   0   0   0   0   0   0   0   0   0   0   2   1   0 101 138 145 148 147 144
130 124 136 159 194 208 210 210 210 213 215 209 205 204 200 192 196 197 191 196 198 197 193 197
205 208 206 207 209 212 213 210 200 180 152 105  58  43  36  11   4   5   5   5   5   5   5   5
  6   5   6   6   5  18   0  23 179 188   0   0  11   0   0   0   0   0   0   0   0   0   0   0
  0   0   0   0
  0   0   0   0   0   0   0   0   0   0   0   0   0   0   0   3   0   0 108 136 134 150 154 156
153 139 129 140 171 198 206 208 211 214 215 208 197 193 193 189 185 187 189 185 186 194 197 201
209 211 209 210 211 209 211 208 196 175 138  83  43  37  30   6   5   5   5   5   6   5   5   6
  6   6   6   6   5  18   0  21 179 188   0   0  11   0   0   0   0   0   0   0   0   0   0   0
  0   0   0   0
  0   0   0   0   0   0   0   0   0   0   0   0   0   0   0   4   0   0 123 153 138 147 161 160
162 164 145 136 160 187 199 206 212 216 216 212 210 205 193 184 178 175 175 170 172 190 202 208
210 209 214 214 208 203 206 205 193 162 107  49  34  32  20   4   5   5   5   5   6   6   5   6
  6   6   6   6   5  17   0  11 177 188   0   0  11   0   0   0   0   0   0   0   0   0   0   0
  0   0   0   0
  0   0   0   0   0   0   0   0   0   0   0   0   0   0   0   2   2   0 102 142 146 150 159 167
169 169 163 157 168 186 198 209 216 220 217 215 217 217 208 195 183 168 161 153 158 182 196 205
209 206 210 214 206 201 200 197 182 134  60  30  28  23   9   6   6   6   6   6   6   6   6   6
  6   6   6   6   5  17   0   0 175 188   0   0  11   0   0   0   0   0   0   0   0   0   0   0
  0   0   0   0
  0   0   0   0   0   0   0   0   0   0   0   0   0   0   0   2   0   0  83 109 116 128 127 145
169 173 165 170 182 194 201 212 218 219 217 214 216 217 216 210 201 184 175 176 173 172 180 196
205 208 211 212 207 203 191 185 164  94  32  32  22  13   6   6   6   6   6   6   6   6   6   5
  5   5   5   6   5  17   0   6 177 188   0   0  11   0   0   0   0   0   0   0   0   0   0   0
  0   0   0   0
  0   0   0   0   0   0   0   0   0   0   0   0   0   0   0   2   0   0  92 111 102 110 119 116
136 166 166 158 169 188 202 207 210 212 214 217 219 219 221 219 212 205 200 197 187 176 176 186
198 209 211 205 199 191 177 176 134  28  28  22  11   8   6   6   6   6   6   6   6   6   6   6
  5   5   6   6   5  18   0  25 180 188   0   0  11   0   0   0   0   0   0   0   0   0   0   0
  0   0   0   0
  0   0   0   0   0   0   0   0   0   0   0   0   0   0   0   2   0   0  88 110 108 110 122 134
137 151 160 160 162 168 191 204 209 211 215 220 223 224 222 219 214 207 200 193 189 188 187 189
198 204 205 198 189 174 159 159 103   0  20  11   9   7   6   6   6   6   6   6   6   6   6   6
  6   6   6   6   5  18   0  38 184 189   0   0  11   0   0   0   0   0   0   0   0   0   0   0
  0   0   0   0
  0   0   0   0   0   0   0   0   0   0   0   0   0   0   0   2   0   0  85 100  96 105 115 131
138 141 155 167 175 181 190 205 213 216 219 222 224 225 223 218 215 211 200 187 185 185 184 188
193 195 192 186 175 154 142 129  74   0  16  11   9   6   6   6   6   6   6   6   6   6   6   6
  7   7   6   6   5  19   0  48 188 191   0   0  11   0   0   0   0   0   0   0   0   0   0   0
  0   0   0   0
  0   0   0   0   0   0   0   0   0   0   0   0   0   0   0   2   0   0  83 106  99  91  94 101
109 119 142 159 167 175 185 195 199 206 212 213 216 219 219 217 216 217 216 209 198 188 180 184
187 182 165 161 151 140 136 103  48  11  15  10   8   6   6   6   6   6   6   6   6   6   7   7
  7   6   7   7   6  20   0  59 191 191   0   0  11   0   0   0   0   0   0   0   0   0   0   0
  0   0   0   0
  0   0   0   0   0   0   0   0   0   0   0   0   0   0   0   2   0   0  79  98 103 105  96  91
 94  98 118 146 159 166 174 181 187 192 201 207 209 212 213 214 215 215 211 206 193 177 172 163
152 146 138 144 133 134 123  70  27  18  13  10   7   6   6   6   6   6   6   6   6   7   7   7
  7   7   7   7   6  20   0  70 195 192   0   0  11   0   0   0   0   0   0   0   0   0   0   0
  0   0   0   0
  0   0   0   0   0   0   0   0   0   0   0   0   0   0   0   2   0   0  81  93  88  96  97  96
101 107 110 141 159 162 173 174 181 186 192 202 207 209 211 210 209 202 193 181 162 148 139 123
114 117 129 137 131 126  98  37  21  16  11  10   7   7   7   6   6   6   6   6   6   7   7   7
  7   7   7   7   7  21   0  78 199 193   0   0  11   0   0   0   0   0   0   0   0   0   0   0
  0   0   0   0
  0   0   0   0   0   0   0   0   0   0   0   0   0   0   0   2   0   0  84  99  88  87  89  89
 90 106 124 138 159 159 160 168 168 176 182 189 198 209 215 213 208 195 185 175 156 141 129 115
110 117 124 122 123 110  70  21  20  13  12   8   6   7   6   6   6   6   6   6   6   6   7   7
  7   7   7   7   7  21   0  82 202 194   0   0  11   0   0   0   0   0   0   0   0   0   0   0
  0   0   0   0
  0   0   0   0   0   0   0   0   0   0   0   0   0   0   0   2   0   0  81  96  85  86  87  91
 91 100 105 117 137 154 152 155 156 161 172 179 187 198 210 217 211 203 196 184 169 155 140 119
114 121 116 110 111  87  41  18  18  12  11   7   6   7   6   6   6   6   6   6   6   6   6   6
  7   7   7   7   7  21   0  89 205 194   0   0  11   0   0   0   0   0   0   0   0   0   0   0
  0   0   0   0
  0   0   0   0   0   0   0   0   0   0   0   0   0   0   0   1   0   0  74  87  76  78  83  87
 93 101 104 101 106 127 140 133 144 152 160 170 177 183 191 204 211 208 200 189 176 155 141 141
142 131 116 108  96  58  26  19  15  12   9   6   6   6   6   6   6   6   6   6   6   6   6   6
  7   7   6   6   8  20   0 101 209 195   0   0  12   0   0   0   0   0   0   0   0   0   0   0
  0   0   0   0
  0   0   0   0   0   0   0   0   0   0   0   0   0   0   0   1   0   0  68  81  69  71  81  79
 75  85  98 108 121 134 143 136 131 140 149 162 170 175 183 195 202 200 193 185 177 167 160 157
154 142 122 106  73  36  25  17  14  11   7   6   6   6   6   6   6   6   6   6   6   7   7   6
  7   7   6   6   9  19   0 113 214 196   0   0  12   0   0   0   0   0   0   0   0   0   0   0
  0   0   0   0
  0   0   0   0   0   0   0   0   0   0   0   0   0   0   0   1   0   0  68  77  64  61  61  67
 70  68  75  92 116 131 139 143 137 132 139 155 166 171 180 188 194 195 195 192 185 181 175 164
154 134 109  81  46  27  19  15  13   9   7   7   7   6   6   6   6   7   6   6   6   6   7   7
  7   7   7   7  10  17   0 123 217 197   0   0  12   0   0   0   0   0   0   0   0   0   0   0
  0   0   0   0
  0   0   0   0   0   0   0   0   0   0   0   0   0   0   0   1   0   0  60  71  62  57  50  48
 58  65  65  77  96 112 117 119 128 131 125 136 154 162 168 170 173 185 191 191 188 186 180 160
144 119  85  54  28  21  16  15  12   7   7   7   7   7   6   6   6   7   7   7   7   6   7   7
  7   7   7   7  11  14   0 134 222 198   0   0  12   0   0   0   0   0   0   0   0   0   0   0
  0   0   0   0
  0   0   0   0   0   0   0   0   0   0   0   0   0   0   0   1   0   0  49  59  53  49  45  44
 41  52  74  85  90  99 105 104 104 118 117 110 126 145 157 152 143 158 176 184 187 179 158 134
115  93  62  29  20  17  15  13   9   7   7   7   6   7   6   6   6   6   6   7   6   6   6   7
  7   7   6   6  13  10   0 143 225 199   0   0  12   0   0   0   0   0   0   0   0   0   0   0
  0   0   0   0
  0   0   0   0   0   0   0   0   0   0   0   0   0   0   0   1   0   0  45  51  35  34  34  35
 37  38  53  74  84  89 100 102  93  96 103 101 110 127 139 144 143 148 160 171 164 139 111  93
 76  56  33  20  18  14  13   9   7   7   7   6   6   7   6   6   6   6   6   6   6   6   7   7
  7   7   6   6  14   1   0 152 227 199   0   0  12   0   0   0   0   0   0   0   0   0   0   0
  0   0   0   0
  0   0   0   0   0   0   0   0   0   0   0   0   0   0   0   1   0   0  43  43  26  26  26  25
 26  29  35  41  54  61  73  82  86  85  90  90  93 107 121 132 135 135 134 128 110  94  75  60
 47  27  17  18  14  13  10   7   7   7   6   6   6   6   6   6   6   6   6   6   6   6   7   7
  7   7   6   6  15   0  18 161 230 201   0   0  12   0   0   0   0   0   0   0   0   0   0   0
  0   0   0   0
