P2
# 8-bit pgm gray
100 100
255
  0   0   0   0   0   0   0   0   0   0   0   0   0   0   0   0   0   0   3   5   5   5   8   0
 23  85  91  88  90  90  98  96  89  87  85  82  77  77  70  54  42  41  36  30  27  23  19  17
 17  16  18  22  28  36  45  56  68  80  94 104 114 126 140 146 151 157 161 164 167 180 197 203
205 208 209 211 212 213 213 215 222 188   0   0  11   0   0   0   0   0   0   0   0   0   0   0
  0   0   0   0
  0   0   0   0   0   0   0   0   0   0   0   0   0   0   0   0   0   0   4   6   6   6   6   9
  0   0   0   0   0   0   4   8   0   0   0   0   0   0   0   0   0   0   0   0   0   0   1   2
  7  12  17  23  30  40  49  62  75  89 105 119 131 143 157 163 169 174 178 181 182 190 211 221
225 228 230 232 233 234 235 234 243 208   0   0  14   0   0   0   0   0   0   0   0   0   0   0
  0   0   0   0
  0   0   0   0   0   0   0   0   0   0   0   0   0   0   0   0   0   0   3   6   6   6   6   5
  8  25  26  26  25  31  54  50  29  24  24  22  22  22  20  15  11  11  10   9   9   8   7   7
 10  14  17  22  29  37  49  62  75  90 104 115 127 139 153 161 166 171 174 176 177 178 195 209
215 220 222 223 225 226 228 227 235 201   0   0  13   0   0   0   0   0   0   0   0   0   0   0
  0   0   0   0
  0   0   0   0   0   0   0   0   0   0   0   0   0   0   0   0   0   0   4   6   6   6   6   6
  6   4   3   5   2  11  46  56  37   0  12  18   5   4   4   5   5   5   5   5   7   6   6   6
 10  15  17  23  31  39  50  64  76  87 101 114 127 139 152 161 168 171 175 177 179 178 185 203
214 218 221 223 226 228 228 228 238 202   0   0  13   0   0   0   0   0   0   0   0   0   0   0
  0   0   0   0
  0   0   0   0   0   0   0   0   0   0   0   0   0   0   0   0   0   0   5   6   5   6   6   6
  6   6   6   7   5  15  34  36  32  16  34  31  30   2   6   5   6   6   5   6   6   6   6   6
 11  16  19  24  31  40  49  61  75  87 100 113 125 139 152 160 165 168 173 176 177 177 178 197
211 214 218 221 224 226 227 225 235 201   0   0  13   0   0   0   0   0   0   0   0   0   0   0
  0   0   0   0
  0   0   0   0   0   0   0   0   0   0   0   0   0   0   0   0   0   0   3   6   5   6   6   6
  6   6   5   6   4  15  28  30  23  16  29  17  27   3   6   5   6   5   5   6   6   6   6   7
 11  15  19  24  31  39  50  61  76  87 102 116 127 140 149 157 160 165 171 172 176 177 178 189
203 211 217 219 221 225 226 224 233 200   0   0  13   0   0   0   0   0   0   0   0   0   0   0
  0   0   0   0
  0   0   0   0   0   0   0   0   0   0   0   0   0   0   0   0   0   0   3   6   5   6   6   5
  6   6   5   7   0  23  41  37  35   4  34  35  10   5   6   6   5   5   5   6   6   6   6   7
 12  16  19  24  31  39  50  62  77  90 103 117 130 142 148 153 156 164 169 170 176 179 181 183
196 208 214 218 221 223 226 225 233 201   0   0  13   0   0   0   0   0   0   0   0   0   0   0
  0   0   0   0
  0   0   0   0   0   0   0   0   0   0   0   0   0   0   0   0   0   0   3   5   5   5   6   7
  6   5   6   6   6   7  26  34  13  11  40  44  20   3   7   6   6   6   6   6   6   6   6   7
 12  15  19  23  30  39  49  62  76  89 102 113 128 141 146 150 156 164 166 169 174 177 177 180
190 203 211 216 220 222 224 224 234 201   0   0  13   0   0   0   0   0   0   0   0   0   0   0
  0   0   0   0
  0   0   0   0   0   0   0   0   0   0   0   0   0   0   0   0   0   0   3   6   5   5   6   7
  6   6   5   6   8   3   4  29   3   4  20  33  24   2   7   6   6   6   6   6   6   6   6   7
 13  15  18  23  30  38  48  60  73  86 101 113 125 142 149 152 157 162 164 170 175 173 174 177
181 195 206 212 217 219 222 223 233 200   0   0  13   0   0   0   0   0   0   0   0   0   0   0
  0   0   0   0
  0   0   0   0   0   0   0   0   0   0   0   0   0   0   0   0   0   0   3   6   6   6   6   6
  6   6   6   6   6   8  26  36  20   3  29  44  21   1   8   6   6   6   6   6   6   6   6   8
 13  15  19  23  29  37  48  59  72  85  99 112 122 135 147 151 154 159 164 167 173 172 173 176
178 186 201 208 213 217 221 221 230 199   0   0  13   0   0   0   0   0   0   0   0   0   0   0
  0   0   0   0
  0   0   0   0   0   0   0   0   0   0   0   0   0   0   0   0   0   0   4   6   6   6   6   6
  6   6   6   6   6   9  18  25  34   5  26  34  22   5   7   6   5   5   5   6   6   6   6   9
 13  15  19  24  31  37  48  57  69  81  94 104 117 128 137 143 152 154 156 160 169 172 173 176
177 180 194 205 211 216 221 219 228 197   0   0  13   0   0   0   0   0   0   0   0   0   0   0
  0   0   0   0
  0   0   0   0   0   0   0   0   0   0   0   0   0   0   0   0   0   0   4   6   6   6   6   6
  6   6   6   6   7   7   4  23  30   0  46  49  19   4   7   6   6   5   5   5   6   6   6  10
 13  16  20  25  33  41  49  59  70  80  92 104 114 125 135 144 148 149 153 158 164 172 173 174
176 176 186 202 209 213 216 217 226 196   0   0  13   0   0   0   0   0   0   0   0   0   0   0
  0   0   0   0
  0   0   0   0   0   0   0   0   0   0   0   0   0   0   0   0   0   0   3   6   5   6   5   6
  6   6   6   7   6   5  38  53  27   0  31  45  25   3   7   7   7   6   5  10  12   5   8  12
 14  18  22  28  34  43  54  64  76  88  98 109 116 127 144 148 149 150 155 162 165 170 172 175
179 179 183 197 206 209 212 213 225 195   0   0  12   0   0   0   0   0   0   0   0   0   0   0
  0   0   0   0
  0   0   0   0   0   0   0   0   0   0   0   0   0   0   0   0   0   0   3   6   5   5   6   6
  6   6   6   6   5   9  22  34  24   3  12  10   9   7   7   6   5   5   5   7   9   5   9  13
 16  19  24  30  37  45  56  68  78  89  99 112 124 138 145 147 150 154 156 162 164 167 170 173
176 177 178 187 199 205 210 213 224 193   0   0  12   0   0   0   0   0   0   0   0   0   0   0
  0   0   0   0
  0   0   0   0   0   0   0   0   0   0   0   0   0   0   0   0   0   0   3   6   5   6   6   6
  5   6   6   7   1  19  40  30  22   5   5   4   5   6   6   6   5   5   5   8   8   6  10  13
 17  20  26  32  40  49  58  71  87  98 111 123 134 145 152 154 156 157 159 164 166 170 173 172
173 174 175 181 193 203 208 209 221 191   0   0  12   0   0   0   0   0   0   0   0   0   0   0
  0   0   0   0
  0   0   0   0   0   0   0   0   0   0   0   0   0   0   0   0   0   0   4   6   5   6   6   6
  6   6   6   7   3  15  32  23  14   6   9   8   7   6   6   6   5   5   5   7   6   7  12  14
 18  23  29  37  45  55  69  84  97 105 115 124 130 144 158 155 155 157 161 165 165 168 172 168
170 173 174 176 187 199 206 207 218 190   0   0  12   0   0   0   0   0   0   0   0   0   0   0
  0   0   0   0
  0   0   0   0   0   0   0   0   0   0   0   0   0   0   0   0   0   0   4   6   5   6   6   6
  6   6   6   6   7   6   0   0   4   8   7   6   7   6   6   6   6   6   6   5   5   9  13  15
 20  27  34  42  49  62  80  89  95 107 118 128 135 144 154 154 156 157 161 163 165 166 170 170
171 173 174 174 180 193 202 205 217 188   0   0  12   0   0   0   0   0   0   0   0   0   0   0
  0   0   0   0
  0   0   0   0   0   0   0   0   0   0   0   0   0   0   0   0   0   0   4   6   6   6   6   6
  6   6   6   6   7   7   7   8   7   7   7   7   6   6   6   6   6   5   6   5   7  12  14  18
 24  29  35  45  58  72  83  91 102 116 126 136 141 146 155 154 158 159 162 165 167 168 169 169
173 175 173 174 177 188 198 202 214 185   0   0  11   0   0   0   0   0   0   0   0   0   0   0
  0   0   0   0
  0   0   0   0   0   0   0   0   0   0   0   0   0   0   0   0   0   0   3   7   7   6   6   6
  6   6   6   6   6   6   6   6   6   7   7   6   6   6   6   6   6   5   5   6   9  12  15  20
 25  31  41  55  66  74  85 100 112 122 134 140 142 146 156 160 158 162 164 168 169 168 169 168
172 175 172 174 175 182 193 197 211 184   0   0  11   0   0   0   0   0   0   0   0   0   0   0
  0   0   0   0
  0   0   0   0   0   0   0   0   0   0   0   0   0   0   0   0   0   0   4   7   6   6   6   6
  6   6   6   6   6   6   6   6   6   6   7   6   6   6   6   6   6   5   5   6  11  14  18  22
 27  37  50  59  68  80  93 107 117 127 138 141 143 150 158 163 161 163 164 167 168 169 171 172
173 175 175 173 173 180 189 194 208 183   0   0  11   0   0   0   0   0   0   0   0   0   0   0
  0   0   0   0
  0   0   0   0   0   0   0   0   0   0   0   0   0   0   0   0   0   0   3   6   6   6   6   6
  6   6   6   6   6   6   6   6   6   6   6   6   6   6   6   6   6   5   5   9  12  16  20  24
 34  45  54  64  76  89 102 115 127 134 140 146 151 153 159 162 163 162 165 167 167 169 173 172
171 174 174 174 174 177 186 192 206 179   0   0  11   0   0   0   0   0   0   0   0   0   0   0
  0   0   0   0
  0   0   0   0   0   0   0   0   0   0   0   0   0   0   0   0   0   0   3   6   6   6   6   6
  6   6   6   6   6   6   6   6   6   6   6   6   6   6   6   6   5   5   6  11  14  18  23  30
 40  48  58  72  86 100 112 125 137 145 148 150 153 157 162 164 165 164 163 164 165 168 170 168
169 171 171 171 172 173 181 188 203 178   0   0  10   0   0   0   0   0   0   0   0   0   0   0
  0   0   0   0
  0   0   0   0   0   0   0   0   0   0   0   0   0   0   0   0   0   0   4   7   6   6   6   6
  6   7   7   6   6   6   6   6   6   6   6   6   6   6   6   6   6   5   8  12  16  20  28  37
 43  54  68  82  96 107 120 127 138 148 147 150 156 160 161 162 163 165 164 164 166 168 166 168
169 169 172 173 172 172 176 185 202 177   0   0  10   0   0   0   0   0   0   0   0   0   0   0
  0   0   0   0
  0   0   0   0   0   0   0   0   0   0   0   0   0   0   0   0   0   0   4   7   6   6   6   6
  6   7   7   6   6   6   6   6   6   6   6   6   5   6   6   6   5   6  11  14  18  25  33  41
 51  64  77  94 107 120 131 138 146 146 150 154 158 159 159 161 163 164 166 167 167 167 167 166
169 171 172 173 173 174 177 183 198 173   0   0  10   0   0   0   0   0   0   0   0   0   0   0
  0   0   0   0
  0   0   0   0   0   0   0   0   0   0   0   0   0   0   0   0   0   0   4   7   6   6   6   6
  6   6   6   6   6   6   6   6   6   6   6   5   5   6   6   6   5   8  12  16  22  29  37  45
 57  72  89 106 117 131 141 148 148 148 156 160 161 160 162 162 163 164 164 167 169 168 170 170
170 172 175 177 176 176 176 177 193 171   0   0   9   0   0   0   0   0   0   0   0   0   0   0
  0   0   0   0
  0   0   0   0   0   0   0   0   0   0   0   0   0   0   0   0   0   0   4   7   6   6   6   6
  6   6   6   6   6   6   6   6   6   5   5   5   5   6   6   5   6  10  13  19  25  32  42  53
 66  84 102 112 120 131 147 150 146 150 156 161 164 164 165 164 164 166 165 169 168 169 172 172
171 171 172 174 170 170 173 174 192 170   0   0   9   0   0   0   0   0   0   0   0   0   0   0
  0   0   0   0
  0   0   0   0   0   0   0   0   0   0   0   0   0   0   0   0   0   0   4   7   7   6   6   6
  6   6   6   6   6   6   6   5   5   5   5   5   5   5   5   5   8  12  15  21  27  37  46  60
 78  92 106 121 128 145 157 151 150 155 160 159 161 166 166 165 166 164 165 168 166 166 167 168
167 167 167 169 170 171 171 172 187 168   0   0   9   0   0   0   0   0   0   0   0   0   0   0
  0   0   0   0
  0   0   0   0   0   0   0   0   0   0   0   0   0   0   0   0   0   0   4   7   6   6   6   6
  6   6   6   6   6   6   6   5   5   5   5   5   5   5   5   6  10  14  18  23  31  42  55  72
 85 102 116 126 142 162 166 156 155 157 159 161 163 163 164 163 164 165 166 169 168 167 169 171
169 169 169 172 174 175 175 174 185 164   0   0   9   0   0   0   0   0   0   0   0   0   0   0
  0   0   0   0
  0   0   0   0   0   0   0   0   0   0   0   0   0   0   0   0   0   0   4   7   6   6   6   6
  6   6   6   6   6   6   6   6   5   5   5   5   5   5   5   7  12  16  21  28  37  53  69  82
 90 107 130 140 157 166 166 166 160 161 163 162 162 161 163 164 166 166 164 167 167 167 172 174
171 172 173 173 172 174 175 175 184 163   2   0   9   0   0   0   0   0   0   0   0   0   0   0
  0   0   0   0
  0   0   0   0   0   0   0   0   0   0   0   0   0   0   0   0   0   0   4   7   6   6   6   6
  6   6   6   6   6   6   6   6   5   5   5   5   5   5   5   9  14  18  24  33  44  57  78  90
 98 115 140 153 164 166 163 167 169 168 162 162 162 161 163 164 166 164 163 167 170 170 170 169
170 172 171 168 168 169 171 173 180 158   2   0   8   0   0   0   0   0   0   0   0   0   0   0
  0   0   0   0
  0   0   0   0   0   0   0   0   0   0   0   0   0   0   0   0   0   0   4   7   6   6   6   6
  6   6   6   6   6   6   5   5   5   5   5   5   6   5   7  12  18  24  29  38  48  60  87  98
111 126 147 166 169 165 165 168 169 167 161 162 159 160 161 163 166 165 163 167 170 170 169 169
169 170 170 169 169 170 173 174 179 154   0   0   8   0   0   0   0   0   0   0   0   0   0   0
  0   0   0   0
  0   0   0   0   0   0   0   0   0   0   0   0   0   0   0   0   0   0   4   6   6   6   6   6
  6   6   6   6   6   6   5   5   5   6   6   5   6   5   8  15  21  25  32  42  55  71  91 108
122 139 166 180 176 178 178 170 167 169 168 165 162 162 166 167 165 167 166 168 169 167 169 171
171 171 172 172 170 172 176 172 178 155   0   0   8   0   0   0   0   0   0   0   0   0   0   0
  0   0   0   0
  0   0   0   0   0   0   0   0   0   0   0   0   0   0   0   0   0   0   4   6   6   6   6   6
  7   6   6   6   6   5   5   5   5   5   5   5   5   6  10  15  21  26  36  49  66  80 101 121
134 154 177 186 191 189 180 170 171 171 168 165 165 167 168 168 166 167 168 168 171 169 168 168
169 171 172 173 174 175 176 171 179 157   0   0   8   0   0   0   0   0   0   0   0   0   0   0
  0   0   0   0
  0   0   0   0   0   0   0   0   0   0   0   0   0   0   0   0   0   0   4   6   6   6   6   6
  6   6   6   6   6   5   5   5   5   5   5   6   5   7  12  17  23  31  41  56  71  87 109 128
140 157 179 189 195 194 182 172 170 168 166 164 162 162 164 167 166 165 167 167 168 168 167 168
169 172 171 171 176 176 176 173 183 159   0   0   8   0   0   0   0   0   0   0   0   0   0   0
  0   0   0   0
  0   0   0   0   0   0   0   0   0   0   0   0   0   0   0   0   0   0   4   6   5   6   6   6
  6   6   6   5   6   6   5   5   5   5   6   5   5  10  14  20  26  34  46  60  76  95 109 127
148 151 173 192 192 194 186 167 163 166 166 166 166 166 165 163 165 166 168 169 168 167 167 168
168 170 172 173 172 172 175 175 182 156   0   0   8   0   0   0   0   0   0   0   0   0   0   0
  0   0   0   0
  0   0   0   0   0   0   0   0   0   0   0   0   0   0   0   0   0   0   4   6   5   6  10   6
  5   6   6   6   6   6   5   5   5   5   5   5   6  12  15  23  30  38  52  68  84 101 116 127
142 149 166 186 187 185 176 165 164 163 163 165 166 167 164 165 168 168 168 168 169 170 168 167
169 171 171 171 171 170 173 173 181 156   0   0   8   0   0   0   0   0   0   0   0   0   0   0
  0   0   0   0
  0   0   0   0   0   0   0   0   0   0   0   0   0   0   0   0   0   0   4   6   5   6   7   6
  6   6   6   6   5   5   5   6   5   6   6   5   8  13  17  26  33  43  58  75  89 109 122 133
143 154 163 173 176 171 170 163 163 162 162 163 164 168 170 168 167 167 171 171 167 165 165 166
168 172 175 174 174 174 176 175 180 153   0   0   7   0   0   0   0   0   0   0   0   0   0   0
  0   0   0   0
  0   0   0   0   0   0   0   0   0   0   0   0   0   0   0   0   0   0   4   6   6   6   6   6
  6   6   6   6   5   6   5   6   6   6   6   6  11  14  20  31  38  48  63  79  98 114 122 138
149 155 161 171 168 165 170 163 162 163 161 164 166 171 170 168 167 166 169 168 164 165 165 166
171 176 176 175 174 176 178 174 178 153   0   0   7   0   0   0   0   0   0   0   0   0   0   0
  0   0   0   0
  0   0   0   0   0   0   0   0   0   0   0   0   0   0   0   0   0   0   4   6   6   6   6   6
  6   6   5   6   5   5   5   5   5   5   5   7  12  16  22  35  45  53  68  86 104 118 128 141
153 157 163 169 167 163 167 167 167 167 166 167 169 171 166 167 166 164 167 166 164 166 168 171
175 173 169 171 174 174 173 172 180 153   0   0   7   0   0   0   0   0   0   0   0   0   0   0
  0   0   0   0
  0   0   0   0   0   0   0   0   0   0   0   0   0   0   0   0   0   0   4   7   6   6   6   6
  6   6   5   6   6   5   5   6   5   5   5   9  13  19  24  39  55  61  75  91 107 123 137 147
158 169 168 165 164 161 160 162 164 163 164 169 168 166 166 164 165 166 168 169 169 169 169 169
169 169 169 172 171 170 172 172 181 154   0   0   7   0   0   0   0   0   0   0   0   0   0   0
  0   0   0   0
  0   0   0   0   0   0   0   0   0   0   0   0   0   0   0   0   0   0   4   7   6   6   6   6
  6   6   6   6   6   5   5   5   5   5   6  11  15  21  28  40  64  82  87  96 113 130 142 150
162 170 166 165 165 164 161 161 161 158 161 168 168 167 167 165 164 165 166 168 170 167 167 169
170 173 176 176 174 174 175 174 180 156   0   0   8   0   0   0   0   0   0   0   0   0   0   0
  0   0   0   0
  0   0   0   0   0   0   0   0   0   0   0   0   0   0   0   0   0   0   4   7   6   6   6   6
  6   6   6   6   5   6   5   5   5   5   8  13  17  23  31  44  58  88 107 108 118 137 147 152
165 167 168 166 163 166 162 162 163 164 167 168 166 165 166 167 166 166 165 165 167 169 168 170
174 174 174 176 177 174 173 171 179 157   0   0   8   0   0   0   0   0   0   0   0   0   0   0
  0   0   0   0
  0   0   0   0   0   0   0   0   0   0   0   0   0   0   0   0   0   0   4   7   6   6   6   6
  6   6   6   6   6   5   6   5   5   6  10  14  19  26  35  49  62  80 108 128 132 144 154 156
167 171 170 168 164 166 165 163 166 169 168 166 163 163 165 165 166 165 164 165 167 168 168 169
170 169 172 172 169 168 170 170 177 153   0   0   7   0   0   0   0   0   0   0   0   0   0   0
  0   0   0   0
  0   0   0   0   0   0   0   0   0   0   0   0   0   0   0   0   0   0   4   7   6   6   6   6
  6   6   6   6   6   5   5   6   6   6  12  15  21  28  39  56  73  92 104 128 147 149 160 161
170 170 165 164 162 163 169 168 166 165 166 164 163 165 166 166 163 163 165 167 167 165 166 168
170 173 172 171 170 167 170 170 176 151   0   0   7   0   0   0   0   0   0   0   0   0   0   0
  0   0   0   0
  0   0   0   0   0   0   0   0   0   0   0   0   0   0   0   0   0   0   4   7   6   6   6   6
  6   6   6   6   6   6   5   6   5   8  13  17  23  34  48  64  77  93 108 122 142 156 164 166
172 170 164 164 164 164 166 164 163 163 167 165 162 163 163 162 163 167 171 168 163 166 169 172
173 171 168 170 169 167 171 171 178 151   0   0   7   0   0   0   0   0   0   0   0   0   0   0
  0   0   0   0
  0   0   0   0   0   0   0   0   0   0   0   0   0   0   0   0   0   0   4   7   6   6   6   6
  6   6   6   6   6   6   5   5   5  10  15  19  25  40  54  69  83  98 114 128 143 156 173 182
177 172 169 169 171 168 166 166 164 161 161 163 163 165 165 164 166 170 174 170 168 170 169 170
172 172 168 169 166 170 174 175 181 150   0   0   7   0   0   0   0   0   0   0   0   0   0   0
  0   0   0   0
  0   0   0   0   0   0   0   0   0   0   0   0   0   0   0   0   0   0   4   7   6   6   6   7
  6   6   6   6   6   6   6   6   6  12  16  21  31  43  57  79  96 106 118 133 145 149 169 188
187 185 189 185 175 171 167 163 162 161 162 162 162 164 169 167 166 170 172 171 170 169 168 168
172 172 168 166 169 176 175 175 180 149   0   0   7   0   0   0   0   0   0   0   0   0   0   0
  0   0   0   0
  0   0   0   0   0   0   0   0   0   0   0   0   0   0   0   0   0   0   4   6   6   6   6   6
  6   6   6   6   6   6   6   6   7  13  17  24  35  46  63  86 102 114 129 143 148 154 164 173
183 196 199 193 180 170 166 169 166 166 167 164 165 165 169 168 169 171 169 167 170 171 172 171
171 170 169 172 175 176 180 176 178 150   0   0   7   0   0   0   0   0   0   0   0   0   0   0
  0   0   0   0
  0   0   0   0   0   0   0   0   0   0   0   0   0   0   0   0   0   0   4   7   6   6   6   6
  6   6   6   6   6   6   6   6   9  14  19  28  38  50  70  89 104 124 137 146 151 156 161 165
184 198 195 186 176 172 169 175 179 175 169 170 170 168 172 167 168 168 167 169 170 171 172 169
170 172 174 178 179 179 178 174 178 150   0   0   7   0   0   0   0   0   0   0   0   0   0   0
  0   0   0   0
  0   0   0   0   0   0   0   0   0   0   0   0   0   0   0   0   0   0   4   7   6   6   6   6
  6   7   6   6   6   6   6   6  11  15  21  32  43  54  77  94 110 131 139 144 154 161 163 172
191 199 190 185 179 172 172 180 188 180 172 170 171 173 175 172 170 168 167 169 172 170 167 170
174 176 178 180 180 177 174 168 173 148   0   0   7   0   0   0   0   0   0   0   0   0   0   0
  0   0   0   0
  0   0   0   0   0   0   0   0   0   0   0   0   0   0   0   0   0   0   4   6   6   6   6   6
  6   6   6   6   6   6   6   7  12  16  24  34  47  61  81  99 115 127 139 147 154 162 169 185
195 198 193 188 186 176 177 183 179 172 171 172 173 173 177 179 174 170 169 173 177 175 173 176
175 176 176 173 172 172 169 164 174 149   0   0   7   0   0   0   0   0   0   0   0   0   0   0
  0   0   0   0
  0   0   0   0   0   0   0   0   0   0   0   0   0   0   0   0   0   0   4   6   6   6   6   5
  5   6   6   6   6   6   5   8  13  18  27  37  51  68  90 105 116 130 143 150 156 159 169 189
195 199 204 193 194 197 188 179 174 170 168 170 172 174 178 178 178 179 178 177 183 181 178 179
179 180 176 170 169 169 168 170 178 153   0   0   7   0   0   0   0   0   0   0   0   0   0   0
  0   0   0   0
  0   0   0   0   0   0   0   0   0   0   0   0   0   0   0   0   0   0   4   6   6   6   6   5
  5   6   6   6   6   6   5   9  13  20  28  40  55  73  98 111 122 135 145 152 159 161 174 188
190 203 210 204 199 196 189 182 182 175 173 176 182 184 181 180 182 180 174 177 184 180 179 184
182 178 172 167 168 170 173 175 180 154   0   0   7   0   0   0   0   0   0   0   0   0   0   0
  0   0   0   0
  0   0   0   0   0   0   0   0   0   0   0   0   0   0   0   0   0   0   4   6   6   6   6   6
  6   6   6   6   6   6   6  11  16  21  30  43  59  79  97 111 128 138 148 155 159 165 179 193
198 208 216 208 198 189 181 179 177 179 183 190 195 188 187 180 176 178 179 185 187 185 185 181
175 172 167 166 172 178 177 177 180 150   0   0   7   0   0   0   0   0   0   0   0   0   0   0
  0   0   0   0
  0   0   0   0   0   0   0   0   0   0   0   0   0   0   0   0   0   0   4   7   6   6   6   6
  6   6   6   6   6   6   6  13  18  24  33  46  65  82 101 114 129 141 151 158 156 160 178 198
209 213 211 203 197 193 187 179 173 179 180 181 185 184 188 182 180 184 185 189 191 188 181 175
173 172 173 176 179 178 173 175 182 153   0   0   7   0   0   0   0   0   0   0   0   0   0   0
  0   0   0   0
  0   0   0   0   0   0   0   0   0   0   0   0   0   0   0   0   0   0   4   7   6   6   6   6
  6   6   6   6   6   6   7  13  18  26  35  52  68  84 105 120 132 143 150 158 163 175 190 202
210 207 204 209 207 199 189 180 180 178 173 174 180 180 179 175 176 178 180 181 178 176 175 174
168 169 173 177 180 176 175 176 181 153   0   0   7   0   0   0   0   0   0   0   0   0   0   0
  0   0   0   0
  0   0   0   0   0   0   0   0   0   0   0   0   0   0   0   0   0   0   4   6   6   6   6   6
  6   6   6   6   6   6   8  15  20  28  40  56  70  86 108 123 132 143 157 167 172 182 191 203
206 207 209 207 204 199 189 182 178 174 173 171 173 173 179 179 173 174 176 177 175 173 173 169
164 169 173 179 183 179 177 172 178 152   0   0   7   0   0   0   0   0   0   0   0   0   0   0
  0   0   0   0
  0   0   0   0   0   0   0   0   0   0   0   0   0   0   0   0   0   0   3   6   6   6   6   6
  6   6   6   6   7   5  10  20  24  35  45  56  73  87 111 127 141 157 165 165 165 177 194 213
216 217 209 203 206 201 190 187 185 180 173 170 168 174 179 175 170 169 171 180 176 170 171 169
169 177 179 182 182 176 174 172 178 150   0   0   7   0   0   0   0   0   0   0   0   0   0   0
  0   0   0   0
  0   0   0   0   0   0   0   0   0   0   0   0   0   0   0   0   0   0   4   7   6   6   6   6
  6   6   6   6   6   6  11  18  22  33  48  58  75  92 117 142 152 157 156 159 169 190 207 213
214 201 199 206 209 199 189 191 186 179 173 171 176 176 173 172 173 175 175 176 171 168 169 170
174 177 179 187 183 175 171 171 174 149   0   0   7   0   0   0   0   0   0   0   0   0   0   0
  0   0   0   0
  0   0   0   0   0   0   0   0   0   0   0   0   0   0   0   0   0   0   4   7   6   6   6   6
  6   6   6   6   6   6  12  16  22  31  49  62  75 103 131 146 147 147 152 164 184 207 211 209
202 191 200 206 198 189 185 182 178 175 182 181 180 180 180 178 176 173 171 171 169 170 172 173
175 177 186 194 182 173 172 169 175 152   0   0   7   0   0   0   0   0   0   0   0   0   0   0
  0   0   0   0
  0   0   0   0   0   0   0   0   0   0   0   0   0   0   0   0   0   0   4   7   6   6   6   6
  6   6   6   6   6   6  13  17  23  33  46  69  93 110 120 133 144 152 160 180 206 213 217 208
198 204 208 203 189 182 179 185 186 185 188 182 181 182 180 176 170 167 171 173 173 172 176 177
181 187 186 185 176 168 168 167 177 154   0   0   7   0   0   0   0   0   0   0   0   0   0   0
  0   0   0   0
  0   0   0   0   0   0   0   0   0   0   0   0   0   0   0   0   0   0   4   7   6   6   6   6
  7   6   6   6   6   6  14  18  24  33  46  78 104 109 113 130 143 157 181 208 210 204 209 204
200 208 205 189 176 175 185 193 188 185 177 176 179 177 177 171 170 171 172 173 175 174 176 180
184 185 179 178 172 166 167 167 177 155   0   0   8   0   0   0   0   0   0   0   0   0   0   0
  0   0   0   0
  0   0   0   0   0   0   0   0   0   0   0   0   0   0   0   0   0   0   4   6   6   6   6   6
  6   6   6   6   6   7  14  19  22  35  59  77  85 101 123 143 150 169 204 215 199 199 203 205
203 205 196 182 179 183 187 185 181 177 170 173 180 182 182 174 171 169 170 174 172 173 180 183
176 175 177 181 174 168 172 171 178 156   1   0   8   0   0   0   0   0   0   0   0   0   0   0
  0   0   0   0
  0   0   0   0   0   0   0   0   0   0   0   0   0   0   0   0   0   0   4   6   6   6   6   6
  6   6   6   6   6   8  15  19  26  46  62  66  78  94 113 135 163 195 206 206 200 201 203 202
204 204 197 194 192 189 183 176 177 178 173 175 179 188 185 175 174 172 173 172 169 174 181 176
171 176 180 184 177 173 173 171 181 160   0   0   8   0   0   0   0   0   0   0   0   0   0   0
  0   0   0   0
  0   0   0   0   0   0   0   0   0   0   0   0   0   0   0   0   0   0   4   6   6   6   6   6
  6   6   6   6   6   8  14  24  37  45  52  62  77  93 108 129 172 197 199 196 203 208 203 204
204 202 203 201 194 186 179 177 179 179 177 174 177 187 181 177 174 172 172 171 171 176 178 174
177 176 178 181 175 175 175 171 182 162   0   0   8   0   0   0   0   0   0   0   0   0   0   0
  0   0   0   0
  0   0   0   0   0   0   0   0   0   0   0   0   0   0   0   0   0   0   4   7   6   6   6   6
  6   6   6   6   6   6  13  23  32  35  48  65  80  96 119 152 179 196 195 196 206 211 204 196
192 195 193 192 193 184 181 181 181 178 175 173 183 191 186 181 178 177 177 175 177 178 177 179
178 175 173 180 180 175 174 172 185 163   0   0   8   0   0   0   0   0   0   0   0   0   0   0
  0   0   0   0
  0   0   0   0   0   0   0   0   0   0   0   0   0   0   0   0   0   0   4   6   6   6   6   6
  6   6   6   6   5  17  19  16  24  34  50  67  86 106 138 161 175 193 192 191 192 202 204 189
184 187 181 180 185 183 186 185 184 179 178 187 195 193 185 175 178 182 176 174 178 176 175 175
171 169 172 180 184 178 177 179 193 164   0   0   8   0   0   0   0   0   0   0   0   0   0   0
  0   0   0   0
  0   0   0   0   0   0   0   0   0   0   0   0   0   0   0   0   0   0   4   6   6   6   6   6
  6   6   6   6   5  14  16  16  23  35  51  72  90 110 133 159 175 181 183 186 186 193 201 205
197 187 191 189 182 183 189 182 180 187 194 198 190 180 180 178 181 178 174 178 176 171 171 173
174 172 172 174 181 184 185 188 194 158   0   0   7   0   0   0   0   0   0   0   0   0   0   0
  0   0   0   0
  0   0   0   0   0   0   0   0   0   0   0   0   0   0   0   0   0   0   4   6   6   6   6   6
  6   6   7   7   6   6  13  17  21  32  51  76  92 106 129 155 170 178 180 187 190 186 195 209
207 197 203 199 191 194 193 185 188 198 200 196 182 177 185 188 178 171 178 177 170 174 173 170
171 175 178 175 179 184 188 188 193 163   0   0   8   0   0   0   0   0   0   0   0   0   0   0
  0   0   0   0
  0   0   0   0   0   0   0   0   0   0   0   0   0   0   0   0   0   0   4   7   6   6   6   6
  6   6   6   7   6   7  13  17  20  29  42  71  95 113 131 149 176 185 197 203 194 193 206 207
202 201 200 192 190 191 183 187 193 194 193 189 183 188 187 185 183 179 176 175 177 178 171 169
172 174 175 179 183 182 189 191 199 169   0   0   9   0   0   0   0   0   0   0   0   0   0   0
  0   0   0   0
  0   0   0   0   0   0   0   0   0   0   0   0   0   0   0   0   0   0   4   7   6   7   7   6
  6   6   6   6   6   7  13  17  19  28  37  64  93 110 128 155 181 190 194 197 197 200 208 204
200 200 195 187 188 185 181 184 189 189 193 190 189 187 190 194 193 185 180 181 182 175 169 169
172 177 175 184 193 190 189 188 190 161   0   0   8   0   0   0   0   0   0   0   0   0   0   0
  0   0   0   0
  0   0   0   0   0   0   0   0   0   0   0   0   0   0   0   0   0   0   4   7   6   7   7   7
  7   6   7   6   6   7  15  19  21  26  37  53  76  98 130 153 168 178 175 180 191 197 193 187
193 195 193 193 189 186 186 187 184 195 201 200 202 197 194 193 194 190 183 186 186 177 172 170
176 180 182 193 193 187 185 180 183 159   0   0   8   0   0   0   0   0   0   0   0   0   0   0
  0   0   0   0
  0   0   0   0   0   0   0   0   0   0   0   0   0   0   0   0   0   0   4   7   7   7   7   7
  7   7   7   7   6   7  16  21  24  30  39  54  75 105 130 142 160 178 174 173 184 193 186 181
192 192 188 184 180 183 187 191 194 202 199 199 197 191 187 184 186 189 188 188 184 181 178 179
188 192 191 187 184 185 183 178 185 159   0   0   8   0   0   0   0   0   0   0   0   0   0   0
  0   0   0   0
  0   0   0   0   0   0   0   0   0   0   0   0   0   0   0   0   0   0   4   7   7   7   7   7
  7   7   7   7   7   7  15  22  23  32  44  59  77  96 123 136 147 167 174 180 184 190 189 191
189 177 172 179 178 181 188 191 198 195 190 190 184 187 189 181 181 187 190 188 184 184 185 188
189 188 184 183 188 186 184 182 190 162   0   0   8   0   0   0   0   0   0   0   0   0   0   0
  0   0   0   0
  0   0   0   0   0   0   0   0   0   0   0   0   0   0   0   0   0   0   4   7   7   7   8   7
  6   6   6   7   7   6  13  22  22  28  40  54  70  87 111 132 140 152 164 169 177 184 190 194
181 175 180 185 188 196 194 186 186 183 184 182 186 191 187 185 185 183 185 185 184 182 182 182
179 182 187 190 188 183 184 184 196 165   0   0   8   0   0   0   0   0   0   0   0   0   0   0
  0   0   0   0
  0   0   0   0   0   0   0   0   0   0   0   0   0   0   0   0   0   0   4   7   7   7   7   7
  6   6   6   6   7   6   9  19  20  22  31  42  58  78  97 121 137 143 154 167 179 183 182 184
188 192 188 191 195 195 184 180 179 181 187 188 189 186 188 185 179 181 185 180 178 177 178 178
179 181 180 184 188 185 186 184 188 162   0   0   8   0   0   0   0   0   0   0   0   0   0   0
  0   0   0   0
  0   0   0   0   0   0   0   0   0   0   0   0   0   0   0   0   0   0   4   7   6   7   7   6
  6   6   6   6   6   6   7  14  18  18  24  32  45  66  87 100 117 135 149 162 173 174 173 178
183 189 194 191 190 185 177 175 174 181 185 187 185 183 184 177 175 180 179 176 177 178 179 182
180 177 177 181 185 186 185 179 184 161   0   0   8   0   0   0   0   0   0   0   0   0   0   0
  0   0   0   0
  0   0   0   0   0   0   0   0   0   0   0   0   0   0   0   0   0   0   4   7   6   7   7   7
  6   6   6   6   6   6   7  11  14  16  20  30  38  55  73  90 114 130 147 156 165 173 175 185
184 190 196 188 189 181 173 171 177 180 179 182 184 184 182 176 174 182 178 177 181 180 182 180
177 176 179 180 182 182 181 178 187 162   0   0   8   0   0   0   0   0   0   0   0   0   0   0
  0   0   0   0
  0   0   0   0   0   0   0   0   0   0   0   0   0   0   0   0   0   0   4   7   7   7   7   7
  7   7   7   7   7   7   7   9  13  15  19  25  35  47  68  91 104 116 137 159 165 173 180 183
189 197 193 188 189 181 175 178 179 177 177 181 189 187 180 173 180 185 180 183 183 181 178 176
177 178 179 179 182 183 181 179 187 160   0   0   8   0   0   0   0   0   0   0   0   0   0   0
  0   0   0   0
  0   0   0   0   0   0   0   0   0   0   0   0   0   0   0   0   0   0   4   7   6   7   7   6
  7   7   7   7   7   7   7   7  12  15  18  22  32  43  59  83  97 114 130 141 162 183 189 186
195 199 189 189 185 181 186 178 174 178 180 185 189 183 174 178 186 181 182 185 183 179 176 177
179 178 179 179 181 183 180 178 187 160   0   0   8   0   0   0   0   0   0   0   0   0   0   0
  0   0   0   0
  0   0   0   0   0   0   0   0   0   0   0   0   0   0   0   0   0   0   4   7   6   7   7   6
  7   7   7   7   7   7   7   7  10  16  17  20  26  35  46  66  90 112 137 155 170 192 195 185
197 201 199 203 192 186 188 180 179 181 186 187 187 178 177 186 186 182 182 183 180 178 176 178
181 181 182 179 178 181 180 180 189 162   0   0   8   0   0   0   0   0   0   0   0   0   0   0
  0   0   0   0
  0   0   0   0   0   0   0   0   0   0   0   0   0   0   0   0   0   0   4   6   6   6   7   7
  7   7   7   7   7   7   7   7   8  14  16  18  23  32  43  60  83 103 133 160 170 184 188 180
187 201 210 214 210 194 184 182 177 183 195 195 184 177 180 185 180 180 184 183 179 178 178 179
181 180 178 181 182 181 185 185 191 162   0   0   8   0   0   0   0   0   0   0   0   0   0   0
  0   0   0   0
  0   0   0   0   0   0   0   0   0   0   0   0   0   0   0   0   0   0   4   8   7   7   7   7
  7   7   7   7   7   7   7   7   7  10  15  16  20  27  39  52  70  95 118 136 150 172 181 180
183 198 206 203 198 193 188 185 180 184 195 196 185 178 182 180 174 177 184 182 178 179 177 180
181 181 187 192 186 183 190 184 186 158   0   0   8   0   0   0   0   0   0   0   0   0   0   0
  0   0   0   0
  0   0   0   0   0   0   0   0   0   0   0   0   0   0   0   0   0   0   4   8   8   8   8   8
  7   7   8   8   7   7   7   8   7   8  13  15  17  23  31  41  53  71  91 106 134 162 176 182
192 194 194 200 192 189 199 194 185 182 182 183 183 183 183 179 179 184 186 181 176 177 177 182
179 182 187 189 185 185 188 179 184 161   0   0   8   0   0   0   0   0   0   0   0   0   0   0
  0   0   0   0
  0   0   0   0   0   0   0   0   0   0   0   0   0   0   0   0   0   0   5   9   8   8   8   8
  8   8   8   8   8   8   8   8   8   7   9  14  16  19  26  34  44  61  75  89 116 145 159 174
187 184 185 187 184 178 183 185 187 187 181 184 184 187 189 182 182 182 181 179 175 177 183 180
177 181 183 185 182 179 181 179 185 158   0   0   8   0   0   0   0   0   0   0   0   0   0   0
  0   0   0   0
  0   0   0   0   0   0   0   0   0   0   0   0   0   0   0   0   0   0   5   9   8   8   8   8
  8   8   8   8   8   8   8   8   8   8   8  12  16  17  21  29  38  52  68  84 100 133 147 157
167 166 166 166 165 167 167 166 170 174 179 178 179 185 189 181 180 180 179 178 175 177 180 178
178 183 185 181 176 178 178 181 191 162   0   0   8   0   0   0   0   0   0   0   0   0   0   0
  0   0   0   0
  0   0   0   0   0   0   0   0   0   0   0   0   0   0   0   0   0   0   5   9   8   9   9   8
  8   8   8   8   8   8   8   8   8   8   8   8  14  17  18  24  33  43  60  74  93 117 131 142
151 153 155 160 160 164 165 163 167 172 174 173 178 180 185 180 179 181 179 177 175 176 181 180
176 179 180 177 177 178 177 182 195 165   0   0   8   0   0   0   0   0   0   0   0   0   0   0
  0   0   0   0
  0   0   0   0   0   0   0   0   0   0   0   0   0   0   0   0   0   0   6   9   8   9   9   8
  8   8   8   8   8   8   8   8   8   8   9   8   9  15  18  20  27  37  47  66  85  89 107 126
136 145 149 153 155 159 162 163 169 173 173 176 177 178 181 178 175 176 175 176 176 179 184 176
174 181 177 177 181 180 178 179 186 157   0   0   8   0   0   0   0   0   0   0   0   0   0   0
  0   0   0   0
  0   0   0   0   0   0   0   0   0   0   0   0   0   0   0   0   0   0   5   9   9   9   9   8
  8   9   8   8   8   8   8   9   9   8   8   8   8  11  15  19  25  30  38  53  68  80  99 117
128 134 138 146 149 152 156 160 163 168 171 178 178 175 176 179 178 176 178 178 176 178 180 173
178 180 176 179 178 175 176 177 180 151   0   0   7   0   0   0   0   0   0   0   0   0   0   0
  0   0   0   0
  0   0   0   0   0   0   0   0   0   0   0   0   0   0   0   0   0   0   5  10   9   9   9   9
  9   8   9   9   9   8   8   9   8   8   9   9   8   8  12  16  20  25  32  40  58  72  90 110
112 121 130 138 144 146 149 155 160 163 165 171 174 173 175 180 179 178 177 175 176 179 178 179
181 174 172 173 170 171 173 168 174 150   0   0   7   0   0   0   0   0   0   0   0   0   0   0
  0   0   0   0
  0   0   0   0   0   0   0   0   0   0   0   0   0   0   0   0   0   0   6  10   9   9   9   9
  9   9   9   9   9   9   9   9   8   8   9   9   8   8   9  13  15  19  26  34  45  53  71  93
 99 110 122 129 134 140 145 150 156 161 165 167 173 175 178 177 177 172 170 169 171 174 178 177
170 167 167 167 167 169 169 163 170 143   0   0   6   0   0   0   0   0   0   0   0   0   0   0
  0   0   0   0
  0   0   0   0   0   0   0   0   0   0   0   0   0   0   0   0   0   0   6  10   9   9   9   9
  9   9   9   9   9   9   9   9   9   9   9   9   9   9   8   9  13  16  19  25  35  46  54  67
 85  98 110 123 130 138 147 152 156 160 162 164 166 170 172 165 165 160 161 162 165 169 171 166
166 165 163 166 164 168 167 159 159 133   0   0   5   0   0   0   0   0   0   0   0   0   0   0
  0   0   0   0
  0   0   0   0   0   0   0   0   0   0   0   0   0   0   0   0   0   0   6  10   9   9  10   9
  9   9   9  10  10   9   9   9   9   9   9   9   9   9   9   8  10  14  17  20  25  35  46  55
 70  79  90 107 119 128 136 144 150 153 155 156 159 167 168 163 162 162 161 162 165 171 165 163
164 161 160 161 162 160 152 148 151 127   0   0   5   0   0   0   0   0   0   0   0   0   0   0
  0   0   0   0
  0   0   0   0   0   0   0   0   0   0   0   0   0   0   0   0   0   0   6  10   9  10  10  10
 10  10   9  10  10   9   9   9   9   9   9   9   9   9   9   9   9  10  14  17  21  25  33  43
 56  67  77  94 104 114 120 125 131 135 141 146 156 161 161 162 159 162 162 159 160 160 157 157
152 151 152 153 150 142 139 137 139 117   0   0   4   0   0   0   0   0   0   0   0   0   0   0
  0   0   0   0
  0   0   0   0   0   0   0   0   0   0   0   0   0   0   0   0   0   0   6  10   9  10  10  10
 10  10  10  10  10  10   9  10   9   9  10   9   9   9   9   9   9   9  10  14  18  21  26  31
 39  53  68  82  89  92 100 109 115 124 132 140 145 142 147 147 143 150 150 146 150 145 146 147
144 144 142 138 134 128 126 121 121 102   0   0   3   0   0   0   0   0   0   0   0   0   0   0
  0   0   0   0
  0   0   0   0   0   0   0   0   0   0   0   0   0   0   0   0   0   0   6  10   9  10  10  10
 10  10  11  11  10  10  10  10   9   9  10  10   9  10  10   9   9  10   9  11  15  18  21  26
 32  38  48  61  77  93  96 101 111 120 126 129 128 129 134 133 133 133 137 143 140 132 133 133
135 135 129 124 118 113 111 103 103  87   0   0   2   0   0   0   0   0   0   0   0   0   0   0
  0   0   0   0
  0   0   0   0   0   0   0   0   0   0   0   0   0   0   0   0   0   0   6  11  10  10  10  10
 10  10  10  10  10  10  10  10  10  10  10  10  10  10  10  10  10  10  10   9  10  14  18  21
 25  31  36  42  51  71  84  91  96 101 105 107 110 115 113 111 114 115 120 121 118 118 118 121
121 112 106 101  96  94  89  85  86  68   0   0   2   1   1   1   1   1   1   1   1   1   1   1
  1   1   1   1
  0   0   0   0   0   0   0   0   0   0   0   0   0   0   0   0   0   0   6  11  10  10  10  10
 10  11  11  10  10  10  10  10  10  10  10  10  10  10  10  10  10  10  10  11  10  10  13  17
 20  24  29  33  38  42  52  65  75  82  89  95 100 104 104 105 106 108 110 105 109 110 107 108
106  98  94  89  88  84  78  77  70  52   0   0   1   0   0   0   0   0   0   0   0   0   0   0
  0   0   0   0
  0   0   0   0   0   0   0   0   0   0   0   0   0   0   0   0   0   0   6  11  10  11  11  11
 11  11  11  11  11  11  10  10  10  10  10  10  10  11  11  11  11  11  11  11  11  11  10  12
 16  19  22  26  30  35  41  48  55  64  72  80  86  90  92  95  99  98  94  93  94  92  88  91
 88  84  84  81  75  67  64  60  55  43   0   0   1   0   0   0   0   0   0   0   0   0   0   0
  0   0   0   0
  0   0   0   0   0   0   0   0   0   0   0   0   0   0   0   0   0   0   6  11  10  11  11  11
 11  12  11  11  11  11  11  11  11  11  11  11  11  11  11  11  11  11  11  11  11  11  11  11
 11  14  17  20  23  26  29  34  40  47  54  64  71  75  76  80  86  81  77  81  85  82  83  81
 76  73  69  64  59  53  52  46  45  34   0   0   0   0   0   0   0   0   0   0   0   0   0   0
  0   0   0   0
