P2
# 8-bit pgm gray
100 100
255
  0   0   0   0   0   0   0   0   0   0   0   0   0   0   0   0   0   0   0   0   0   0   3   0
 21  86  94  94  96  94  93  94  94  94  95  94  93  92  91  91  92  90  86  84  81  74  66  55
 42  36  32  26  20  16  14  13  18  25  32  39  44  55  79 105 117 120 138 139 127 130 136 133
138 145 142  58   0  12   0   0   0   0   0   0   0   0   0   0   0   0   0   0   0   0   0   0
  0   0   0   0
  0   0   0   0   0   0   0   0   0   0   0   0   0   0   0   0   0   0   0   0   0   0   0   3
  0   0   0   0   0   0   0   0   0   0   0   0   0   0   0   0   0   0   0   0   0   0   0   0
  0   0   0   0   3   7   9  10  16  25  34  42  49  53  61  77 105 123 133 153 154 144 148 150
151 159 157  64   0  14   0   0   0   0   0   0   0   0   0   0   0   0   0   0   0   0   0   0
  0   0   0   0
  0   0   0   0   0   0   0   0   0   0   0   0   0   0   0   0   0   0   0   0   0   0   0   0
  2  23  26  26  26  26  26  26  26  26  26  26  25  25  25  25  25  25  23  23  22  19  17  13
 10  10  10  10  10  10  11  12  14  22  29  37  45  53  58  52  57  92 114 124 144 153 145 145
145 157 156  60   0  14   0   0   0   0   0   0   0   0   0   0   0   0   0   0   0   0   0   0
  0   0   0   0
  0   0   0   0   0   0   0   0   0   0   0   0   0   0   0   0   0   0   0   0   0   0   0   0
  0   0   0   0   0   0   0   0   0   0   0   0   0   0   0   0   0   0   1   1   1   2   2   2
  3   5   6   7   8  10  11  12  13  19  28  37  46  51  56  61  64  59  82 101 112 144 161 149
148 155 152  58   0  13   0   0   0   0   0   0   0   0   0   0   0   0   0   0   0   0   0   0
  0   0   0   0
  0   0   0   0   0   0   0   0   0   0   0   0   0   0   0   0   0   0   0   0   0   0   0   0
  0   2   3   3   4   4   4   3   3   4   3   3   3   3   3   3   3   3   3   3   3   3   3   3
  3   5   6   8   9  10  11  12  13  16  26  35  44  49  54  60  68  70  64  68  84 106 144 163
160 155 153  62   0  14   0   0   0   0   0   0   0   0   0   0   0   0   0   0   0   0   0   0
  0   0   0   0
  0   0   0   0   0   0   0   0   0   0   0   0   0   0   0   0   0   0   0   0   0   0   0   0
  0   2   3   3   3   3   3   3   3   3   3   3   3   2   2   3   3   3   2   2   3   3   3   3
  3   5   6   7   9  10  11  12  14  14  21  31  40  48  53  60  68  71  71  68  67  70  83 138
174 171 162  68   0  15   0   0   0   0   0   0   0   0   0   0   0   0   0   0   0   0   0   0
  0   0   0   0
  0   0   0   0   0   0   0   0   0   0   0   0   0   0   0   0   0   0   0   0   0   0   0   0
  0   2   3   3   3   3   3   3   3   3   2   3   3   2   3   3   3   3   2   2   3   3   3   3
  3   5   6   7   8  10  11  12  14  15  18  28  38  46  53  59  68  71  66  66  69  65  55  64
136 188 175  64   0  16   0   0   0   0   0   0   0   0   0   0   0   0   0   0   0   0   0   0
  0   0   0   0
  0   0   0   0   0   0   0   0   0   0   0   0   0   0   0   0   0   0   0   0   0   0   0   0
  0   2   3   3   3   3   3   3   3   3   3   2   3   3   3   3   3   3   3   3   3   3   3   4
  3   3   5   6   7   9  11  12  14  15  16  24  35  44  54  60  69  74  69  66  66  60  56  51
 17 146 190  72   0  19   0   0   0   0   0   0   0   0   0   0   0   0   0   0   0   0   0   0
  0   0   0   0
  0   0   0   0   0   0   0   0   0   0   0   0   0   0   0   0   0   0   0   0   0   0   0   0
  0   3   3   3   3   4   3   3   3   3   3   3   3   2   3   3   3   3   3   3   3   3   3   4
  3   2   4   6   6   8   9  12  13  15  16  20  33  43  53  60  67  74  73  66  62  57  51  54
 37  37 146  83   0  17   0   0   0   0   0   0   0   0   0   0   0   0   0   0   0   0   0   0
  0   0   0   0
  0   0   0   0   0   0   0   0   0   0   0   0   0   0   0   0   0   0   0   0   0   0   0   0
  0   3   4   3   4   4   4   4   4   4   4   3   3   3   3   3   3   3   3   3   3   3   3   3
  3   3   5   6   6   7   8  10  13  15  16  17  28  41  50  60  67  72  71  65  63  57  52  48
 49  37  44  37   0   3   0   0   0   0   0   0   0   0   0   0   0   0   0   0   0   0   0   0
  0   0   0   0
  0   0   0   0   0   0   0   0   0   0   0   0   0   0   0   0   0   0   0   0   0   0   0   0
  0   3   3   3   4   4   4   4   4   4   3   3   3   3   3   3   3   3   3   3   3   3   3   3
  3   3   5   6   7   8   9  10  11  14  16  17  22  35  46  57  66  71  71  70  65  58  52  48
 43  46  38   0   0   0   0   0   0   0   0   0   0   0   0   0   0   0   0   0   0   0   0   0
  0   0   0   0
  0   0   0   0   0   0   0   0   0   0   0   0   0   0   0   0   0   0   0   0   0   0   0   0
  0   3   3   3   3   4   4   4   4   4   3   4   3   3   3   3   3   3   3   2   3   3   3   3
  3   3   5   7   8   9  10  11  11  12  15  16  19  29  40  52  63  71  72  70  63  56  52  49
 45  44  41  13   0   1   0   0   0   0   0   0   0   0   0   0   0   0   0   0   0   0   0   0
  0   0   0   0
  0   0   0   0   0   0   0   0   0   0   0   0   0   0   0   0   0   0   0   0   0   0   0   0
  0   3   3   3   3   3   4   4   4   4   3   3   4   3   3   3   3   3   3   3   3   3   3   3
  4   4   5   7   8   9  10  12  12  12  14  17  17  23  35  48  61  68  69  66  62  58  52  49
 47  45  41   8   0   1   0   0   0   0   0   0   0   0   0   0   0   0   0   0   0   0   0   0
  0   0   0   0
  0   0   0   0   0   0   0   0   0   0   0   0   0   0   0   0   0   0   0   0   0   0   0   0
  0   3   4   4   4   4   4   4   4   3   3   3   3   3   3   3   3   3   3   3   3   3   3   3
  3   4   5   7   8   9  10  12  13  14  15  17  18  19  30  43  54  62  66  65  63  59  53  48
 46  45  41   9   0   1   0   0   0   0   0   0   0   0   0   0   0   0   0   0   0   0   0   0
  0   0   0   0
  0   0   0   0   0   0   0   0   0   0   0   0   0   0   0   0   0   0   0   0   0   0   0   0
  0   3   3   3   4   4   3   4   3   3   3   3   3   3   3   3   3   3   3   3   3   3   4   4
  3   4   5   8   8   9  10  11  13  15  16  17  18  18  25  39  48  58  65  65  61  58  54  49
 46  45  41  10   0   1   0   0   0   0   0   0   0   0   0   0   0   0   0   0   0   0   0   0
  0   0   0   0
  0   0   0   0   0   0   0   0   0   0   0   0   0   0   0   0   0   0   0   0   0   0   0   0
  0   3   3   3   3   3   3   3   3   3   3   3   3   3   3   3   3   3   3   3   3   3   4   4
  4   4   5   8   8   9  10  11  13  14  15  17  18  19  22  34  45  55  62  62  59  57  54  52
 47  45  41   9   0   1   0   0   0   0   0   0   0   0   0   0   0   0   0   0   0   0   0   0
  0   0   0   0
  0   0   0   0   0   0   0   0   0   0   0   0   0   0   0   0   0   0   0   0   0   0   0   0
  0   3   3   3   3   3   3   3   3   4   3   3   4   3   3   3   3   3   3   3   3   3   4   4
  4   4   5   7   7   8  10  11  13  14  15  17  17  19  19  29  42  51  57  59  59  60  57  53
 48  47  43  11   0   1   0   0   0   0   0   0   0   0   0   0   0   0   0   0   0   0   0   0
  0   0   0   0
  0   0   0   0   0   0   0   0   0   0   0   0   0   0   0   0   0   0   0   0   0   0   0   0
  0   3   3   3   3   4   4   4   4   4   4   4   4   3   3   3   3   3   3   3   3   4   4   4
  4   3   4   7   7   8  10  11  13  14  15  16  18  19  19  25  37  47  53  56  58  63  59  53
 52  49  45  13   0   1   0   0   0   0   0   0   0   0   0   0   0   0   0   0   0   0   0   0
  0   0   0   0
  0   0   0   0   0   0   0   0   0   0   0   0   0   0   0   0   0   0   0   0   0   0   0   0
  0   3   4   3   3   4   4   4   3   3   3   4   4   3   3   3   3   3   3   3   3   4   3   4
  4   4   5   7   7   9  10  11  12  14  15  16  18  18  19  21  32  44  50  54  58  62  59  56
 54  52  50  16   0   1   0   0   0   0   0   0   0   0   0   0   0   0   0   0   0   0   0   0
  0   0   0   0
  0   0   0   0   0   0   0   0   0   0   0   0   0   0   0   0   0   0   0   0   0   0   0   0
  0   3   4   3   3   3   3   3   3   3   3   3   3   3   3   3   3   3   3   3   3   3   3   4
  4   4   4   6   7   8   9  10  12  13  14  16  16  18  20  20  28  41  47  55  59  60  61  59
 55  58  55  11   0   1   0   0   0   0   0   0   0   0   0   0   0   0   0   0   0   0   0   0
  0   0   0   0
  0   0   0   0   0   0   0   0   0   0   0   0   0   0   0   0   0   0   0   0   0   0   0   0
  0   3   4   3   3   3   3   3   3   3   3   3   4   4   3   3   3   4   3   3   3   3   3   3
  3   3   4   6   7   8   9  10  11  12  14  15  16  17  20  20  24  35  44  51  57  60  60  59
 61  60  65  32   0   3   0   0   0   0   0   0   0   0   0   0   0   0   0   0   0   0   0   0
  0   0   0   0
  0   0   0   0   0   0   0   0   0   0   0   0   0   0   0   0   0   0   0   0   0   0   0   0
  0   3   3   3   3   3   3   4   4   3   3   3   3   3   3   3   3   3   3   3   3   4   4   4
  3   4   5   6   7   8   9  10  11  12  14  15  16  18  19  21  22  30  40  48  57  61  61  66
 62  77 132  70   0  13   0   0   0   0   0   0   0   0   0   0   0   0   0   0   0   0   0   0
  0   0   0   0
  0   0   0   0   0   0   0   0   0   0   0   0   0   0   0   0   0   0   0   0   0   0   0   0
  0   3   3   3   3   3   4   4   4   3   3   3   3   3   3   3   3   3   3   3   3   4   4   4
  4   4   5   6   7   8  10  10  12  13  14  15  16  18  19  21  22  28  40  48  55  60  66  66
 76 142 171  68   0  16   0   0   0   0   0   0   0   0   0   0   0   0   0   0   0   0   0   0
  0   0   0   0
  0   0   0   0   0   0   0   0   0   0   0   0   0   0   0   0   0   0   0   0   0   0   0   0
  0   3   3   3   3   3   4   4   3   3   3   3   3   3   3   3   3   3   3   3   3   4   4   4
  4   3   5   6   7   9   9  11  12  13  15  15  17  19  20  22  23  26  39  46  51  61  68  82
128 174 171  62   0  16   0   0   0   0   0   0   0   0   0   0   0   0   0   0   0   0   0   0
  0   0   0   0
  0   0   0   0   0   0   0   0   0   0   0   0   0   0   0   0   0   0   0   0   0   0   0   0
  0   3   3   3   3   3   3   4   3   3   3   3   3   3   3   3   3   3   3   3   3   3   3   4
  4   3   5   6   7   8  10  11  12  14  15  16  17  19  21  22  23  25  36  45  53  60  81 124
153 171 170  68   0  16   0   0   0   0   0   0   0   0   0   0   0   0   0   0   0   0   0   0
  0   0   0   0
  0   0   0   0   0   0   0   0   0   0   0   0   0   0   0   0   0   0   0   0   0   0   0   0
  0   3   3   3   3   3   3   3   3   3   3   3   3   2   3   3   3   3   3   3   3   3   3   3
  3   3   5   6   7   8   9  11  13  15  16  17  18  20  21  23  24  24  31  45  54  66 108 140
156 171 174  71   0  17   0   0   0   0   0   0   0   0   0   0   0   0   0   0   0   0   0   0
  0   0   0   0
  0   0   0   0   0   0   0   0   0   0   0   0   0   0   0   0   0   0   0   0   0   0   0   0
  0   3   3   3   3   3   3   3   3   3   3   3   3   2   2   3   3   3   3   3   3   3   3   3
  3   3   6   7   8   9  10  12  14  15  16  17  19  20  22  23  24  25  29  42  60  95 121 141
161 179 178  70   0  17   0   0   0   0   0   0   0   0   0   0   0   0   0   0   0   0   0   0
  0   0   0   0
  0   0   0   0   0   0   0   0   0   0   0   0   0   0   0   0   0   0   0   0   0   0   0   0
  0   3   3   3   3   3   3   3   3   3   3   3   3   2   3   3   3   3   3   3   3   3   3   3
  3   4   6   7   8   9  11  12  14  15  16  18  18  20  22  23  25  27  26  47  84 108 124 148
167 187 184  71   0  18   0   0   0   0   0   0   0   0   0   0   0   0   0   0   0   0   0   0
  0   0   0   0
  0   0   0   0   0   0   0   0   0   0   0   0   0   0   0   0   0   0   0   0   0   0   0   0
  0   3   3   3   3   3   3   3   3   3   2   2   2   2   2   2   3   3   2   2   3   3   3   3
  3   4   6   7   8   9  11  13  14  16  17  18  19  20  22  24  26  29  34  64  94 108 129 151
169 183 181  74   0  18   0   0   0   0   0   0   0   0   0   0   0   0   0   0   0   0   0   0
  0   0   0   0
  0   0   0   0   0   0   0   0   0   0   0   0   0   0   0   0   0   0   0   0   0   0   0   0
  0   3   3   3   3   3   3   3   2   3   2   2   2   3   2   3   3   2   2   2   3   3   3   3
  3   5   7   8   8  10  12  13  15  16  17  19  20  21  23  24  26  36  48  70  94 112 131 154
171 179 175  72   0  17   0   0   0   0   0   0   0   0   0   0   0   0   0   0   0   0   0   0
  0   0   0   0
  0   0   0   0   0   0   0   0   0   0   0   0   0   0   0   0   0   0   0   0   0   0   0   0
  0   3   3   3   3   3   3   3   3   3   3   3   3   3   3   3   2   2   2   2   2   3   3   3
  4   6   7   8   9  10  12  13  15  17  19  20  21  22  23  26  34  45  52  65  97 120 141 160
172 179 175  70   0  17   0   0   0   0   0   0   0   0   0   0   0   0   0   0   0   0   0   0
  0   0   0   0
  0   0   0   0   0   0   0   0   0   0   0   0   0   0   0   0   0   0   0   0   0   0   0   0
  0   3   3   3   3   3   3   3   3   3   3   3   3   3   3   3   3   3   2   2   3   3   3   3
  5   6   7   8  10  11  12  14  15  17  19  21  22  22  26  35  44  51  64  77 100 125 145 163
170 174 174  70   0  17   0   0   0   0   0   0   0   0   0   0   0   0   0   0   0   0   0   0
  0   0   0   0
  0   0   0   0   0   0   0   0   0   0   0   0   0   0   0   0   0   0   0   0   0   0   0   0
  0   2   3   3   3   3   3   3   3   3   3   3   3   2   3   3   3   3   2   2   3   3   3   3
  5   7   8   9  10  12  13  15  16  18  20  21  22  25  36  45  48  61  78  86 101 135 151 163
166 172 171  68   0  16   0   0   0   0   0   0   0   0   0   0   0   0   0   0   0   0   0   0
  0   0   0   0
  0   0   0   0   0   0   0   0   0   0   0   0   0   0   0   0   0   0   0   0   0   0   0   0
  0   3   3   3   3   3   3   3   3   3   3   3   3   3   3   3   3   3   3   3   3   3   3   4
  6   7   9  10  12  13  14  16  18  19  21  24  25  34  44  46  51  70  84  91 110 146 156 161
165 175 170  66   0  16   0   0   0   0   0   0   0   0   0   0   0   0   0   0   0   0   0   0
  0   0   0   0
  0   0   0   0   0   0   0   0   0   0   0   0   0   0   0   0   0   0   0   0   0   0   0   0
  0   3   3   3   3   3   3   3   3   3   3   3   3   3   3   3   3   3   3   2   3   3   3   5
  6   7   9  10  12  13  15  17  19  21  23  27  33  40  41  45  58  84  96 100 112 144 160 165
169 178 174  71   0  17   0   0   0   0   0   0   0   0   0   0   0   0   0   0   0   0   0   0
  0   0   0   0
  0   0   0   0   0   0   0   0   0   0   0   0   0   0   0   0   0   0   0   0   0   0   0   0
  0   3   3   3   3   3   3   4   3   3   3   3   3   3   3   3   3   3   3   2   3   3   3   5
  6   8   9  10  12  14  16  17  19  22  25  35  46  47  52  65  80 101 109 110 116 143 164 170
174 183 180  73   0  18   0   0   0   0   0   0   0   0   0   0   0   0   0   0   0   0   0   0
  0   0   0   0
  0   0   0   0   0   0   0   0   0   0   0   0   0   0   0   0   0   0   0   0   0   0   0   0
  0   3   4   3   3   3   3   3   3   3   3   3   3   3   3   3   3   3   3   3   3   3   3   6
  7   8  10  11  13  14  17  19  21  25  35  49  56  70  88  91  96 100 106 110 113 140 168 178
179 183 180  72   0  18   0   0   0   0   0   0   0   0   0   0   0   0   0   0   0   0   0   0
  0   0   0   0
  0   0   0   0   0   0   0   0   0   0   0   0   0   0   0   0   0   0   0   0   0   0   0   0
  0   3   4   3   4   4   3   3   3   3   3   3   3   4   3   3   3   3   3   3   3   3   4   7
  7   9  11  12  14  16  17  20  22  30  51  59  61  74  87  92  98 105 107 116 131 145 173 188
186 191 183  72   0  18   0   0   0   0   0   0   0   0   0   0   0   0   0   0   0   0   0   0
  0   0   0   0
  0   0   0   0   0   0   0   0   0   0   0   0   0   0   0   0   0   0   0   0   0   0   0   0
  0   3   4   3   4   4   4   4   3   4   4   3   4   4   4   3   3   3   3   3   3   3   6   7
  8  10  11  13  15  17  18  20  26  40  58  65  65  75  87  97 106 110 117 136 152 155 176 190
187 194 183  68   0  17   0   0   0   0   0   0   0   0   0   0   0   0   0   0   0   0   0   0
  0   0   0   0
  0   0   0   0   0   0   0   0   0   0   0   0   0   0   0   0   0   0   0   0   0   0   0   0
  0   3   4   3   4   4   4   4   4   4   4   4   4   4   4   3   3   4   3   3   3   4   7   8
  8  10  12  14  15  17  20  24  36  55  70  80  84  91 104 111 119 121 136 155 164 172 184 193
190 195 184  68   0  17   0   0   0   0   0   0   0   0   0   0   0   0   0   0   0   0   0   0
  0   0   0   0
  0   0   0   0   0   0   0   0   0   0   0   0   0   0   0   0   0   0   0   0   0   0   0   0
  0   3   4   4   4   4   4   4   4   4   4   4   3   4   4   3   3   3   3   3   3   5   7   8
  9  11  13  14  16  19  21  28  53  77  95  99  96 103 112 116 124 130 140 156 164 178 192 201
197 192 182  71   0  18   0   0   0   0   0   0   0   0   0   0   0   0   0   0   0   0   0   0
  0   0   0   0
  0   0   0   0   0   0   0   0   0   0   0   0   0   0   0   0   0   0   0   0   0   0   0   0
  0   3   4   3   4   4   4   4   3   4   4   3   3   3   3   4   3   3   3   3   3   7   8   9
 10  12  14  15  18  21  23  37  80 116 122 110 104 114 125 128 127 136 147 157 163 174 192 202
199 195 186  74   0  19   0   0   0   0   0   0   0   0   0   0   0   0   0   0   0   0   0   0
  0   0   0   0
  0   0   0   0   0   0   0   0   0   0   0   0   0   0   0   0   0   0   0   0   0   0   0   0
  0   3   4   4   4   4   4   4   3   4   4   3   3   3   3   3   3   3   3   3   4   7   8   9
 11  12  15  16  19  22  28  54 110 137 124 117 122 129 141 142 141 148 155 160 167 178 186 196
198 196 186  73   0  18   0   0   0   0   0   0   0   0   0   0   0   0   0   0   0   0   0   0
  0   0   0   0
  0   0   0   0   0   0   0   0   0   0   0   0   0   0   0   0   0   0   0   0   0   0   0   0
  0   3   4   4   4   4   4   4   3   3   4   4   4   4   4   3   4   3   3   3   5   7   8  10
 12  13  16  18  22  30  42  65 110 131 122 121 130 135 150 147 151 166 164 167 174 179 183 195
194 187 175  68   0  17   0   0   0   0   0   0   0   0   0   0   0   0   0   0   0   0   0   0
  0   0   0   0
  0   0   0   0   0   0   0   0   0   0   0   0   0   0   0   0   0   0   0   0   0   0   0   0
  0   4   5   4   4   4   4   4   3   4   4   4   4   4   4   4   4   4   3   4   6   8   9  11
 13  14  16  19  28  37  47  72 103 129 134 137 142 146 152 149 155 175 173 172 175 179 185 194
187 176 164  64   0  15   0   0   0   0   0   0   0   0   0   0   0   0   0   0   0   0   0   0
  0   0   0   0
  0   0   0   0   0   0   0   0   0   0   0   0   0   0   0   0   0   0   0   0   0   0   0   0
  0   4   5   4   4   4   4   4   4   4   4   4   4   4   4   4   4   4   3   4   7   8   9  11
 13  15  18  26  33  39  53  77 102 129 143 153 157 157 161 161 164 176 181 179 181 186 187 187
188 177 162  66   0  15   0   0   0   0   0   0   0   0   0   0   0   0   0   0   0   0   0   0
  0   0   0   0
  0   0   0   0   0   0   0   0   0   0   0   0   0   0   0   0   0   0   0   0   0   0   0   0
  0   4   5   5   4   4   4   4   4   4   4   4   4   4   4   4   4   4   4   5   7   9  10  12
 14  16  22  35  41  43  62  83  94 119 142 158 161 161 169 172 173 178 184 180 180 187 187 188
193 191 171  67   0  16   0   0   0   0   0   0   0   0   0   0   0   0   0   0   0   0   0   0
  0   0   0   0
  0   0   0   0   0   0   0   0   0   0   0   0   0   0   0   0   0   0   0   0   0   0   0   0
  0   4   5   5   5   4   4   4   4   4   4   4   4   4   4   4   4   4   4   6   8   9  11  13
 15  17  24  36  48  65  79  87 102 128 156 169 175 176 175 182 183 179 179 180 189 189 184 181
184 193 177  66   0  17   0   0   0   0   0   0   0   0   0   0   0   0   0   0   0   0   0   0
  0   0   0   0
  0   0   0   0   0   0   0   0   0   0   0   0   0   0   0   0   0   0   0   0   0   0   0   0
  0   4   5   5   4   4   4   4   4   4   4   4   4   4   4   4   4   4   4   6   8  10  11  13
 16  20  26  35  48  78  91 109 133 152 170 182 191 192 187 187 182 179 173 182 195 190 182 181
184 189 178  71   0  17   0   0   0   0   0   0   0   0   0   0   0   0   0   0   0   0   0   0
  0   0   0   0
  0   0   0   0   0   0   0   0   0   0   0   0   0   0   0   0   0   0   0   0   0   0   0   0
  0   4   5   5   4   5   4   4   4   4   4   4   4   4   4   4   4   4   5   7   9  10  12  14
 17  22  29  36  55  90 121 149 163 171 183 192 198 198 195 184 175 178 183 194 196 193 193 188
182 188 181  72   0  18   0   0   0   0   0   0   0   0   0   0   0   0   0   0   0   0   0   0
  0   0   0   0
  0   0   0   0   0   0   0   0   0   0   0   0   0   0   0   0   0   0   0   0   0   0   0   0
  0   4   5   4   5   5   5   4   4   4   4   4   4   4   4   4   4   4   5   8   9  11  13  16
 20  26  35  47  68 106 138 158 168 182 192 195 200 204 205 201 199 199 196 198 203 201 198 190
181 180 176  71   0  17   0   0   0   0   0   0   0   0   0   0   0   0   0   0   0   0   0   0
  0   0   0   0
  0   0   0   0   0   0   0   0   0   0   0   0   0   0   0   0   0   0   0   0   0   0   0   0
  0   4   5   4   5   5   5   4   4   4   4   4   4   4   4   4   4   4   6   8   9  11  13  17
 22  28  37  50  82 114 142 165 176 189 196 201 205 205 207 209 212 208 200 201 202 197 191 186
180 175 171  71   0  17   0   0   0   0   0   0   0   0   0   0   0   0   0   0   0   0   0   0
  0   0   0   0
  0   0   0   0   0   0   0   0   0   0   0   0   0   0   0   0   0   0   0   0   0   0   0   0
  0   4   5   4   5   5   5   5   4   4   4   4   4   4   4   4   4   4   7   8   9  12  14  18
 24  31  38  71 106 126 149 171 180 193 203 205 207 207 209 209 209 211 211 205 203 198 188 185
179 173 166  65   0  15   0   0   0   0   0   0   0   0   0   0   0   0   0   0   0   0   0   0
  0   0   0   0
  0   0   0   0   0   0   0   0   0   0   0   0   0   0   0   0   0   0   0   0   0   0   0   0
  0   4   5   4   5   5   5   5   5   4   4   4   4   4   4   4   4   5   7   8  10  12  16  20
 28  33  60 100 120 138 161 172 176 192 198 199 203 206 210 211 209 213 209 204 205 197 190 188
181 176 159  58   0  13   0   0   0   0   0   0   0   0   0   0   0   0   0   0   0   0   0   0
  0   0   0   0
  0   0   0   0   0   0   0   0   0   0   0   0   0   0   0   0   0   0   0   0   0   0   0   0
  0   4   5   5   5   5   5   5   5   5   5   5   4   4   4   4   4   6   8   9  10  13  17  22
 30  38  74 110 128 147 165 176 174 185 195 192 190 198 206 205 200 206 207 206 206 199 191 185
181 176 155  55   0  12   0   0   0   0   0   0   0   0   0   0   0   0   0   0   0   0   0   0
  0   0   0   0
  0   0   0   0   0   0   0   0   0   0   0   0   0   0   0   0   0   0   0   0   0   0   0   0
  0   4   5   5   5   5   5   5   4   5   5   5   4   4   4   4   4   6   8   9  11  14  18  24
 31  48  85 120 137 153 169 179 173 179 186 182 186 196 205 206 203 206 210 205 197 193 190 183
181 176 154  57   0  13   0   0   0   0   0   0   0   0   0   0   0   0   0   0   0   0   0   0
  0   0   0   0
  0   0   0   0   0   0   0   0   0   0   0   0   0   0   0   0   0   0   0   0   0   0   0   0
  0   4   5   5   5   5   5   5   4   5   4   5   5   4   4   4   5   7   8   9  12  15  19  25
 37  61 100 121 137 159 172 179 172 174 184 187 187 199 207 207 209 212 211 201 190 191 194 193
185 181 163  59   0  14   0   0   0   0   0   0   0   0   0   0   0   0   0   0   0   0   0   0
  0   0   0   0
  0   0   0   0   0   0   0   0   0   0   0   0   0   0   0   0   0   0   0   0   0   0   0   0
  0   4   5   5   5   5   5   5   4   4   4   4   4   4   4   4   5   7   8  10  13  16  21  34
 54  79 109 124 138 152 170 184 181 182 188 191 196 203 208 204 206 213 213 208 202 203 198 197
191 185 165  61   0  15   0   0   0   0   0   0   0   0   0   0   0   0   0   0   0   0   0   0
  0   0   0   0
  0   0   0   0   0   0   0   0   0   0   0   0   0   0   0   0   0   0   0   0   0   0   0   0
  0   4   5   5   5   5   5   4   4   4   4   4   4   4   4   4   5   7   8  10  13  16  24  45
 69  90 109 117 128 146 168 187 186 181 183 190 199 204 208 205 206 213 213 213 204 202 205 204
198 187 168  64   0  15   0   0   0   0   0   0   0   0   0   0   0   0   0   0   0   0   0   0
  0   0   0   0
  0   0   0   0   0   0   0   0   0   0   0   0   0   0   0   0   0   0   0   0   0   0   0   0
  0   4   5   5   5   5   5   4   4   4   4   4   4   4   4   4   5   8   9  11  13  17  23  44
 63  85 102 113 123 147 173 188 184 179 178 187 194 200 210 214 212 214 218 218 209 207 207 206
197 186 164  57   0  14   0   0   0   0   0   0   0   0   0   0   0   0   0   0   0   0   0   0
  0   0   0   0
  0   0   0   0   0   0   0   0   0   0   0   0   0   0   0   0   0   0   0   0   0   0   0   0
  0   4   5   4   5   5   4   4   4   4   4   4   4   4   4   4   5   8   9  11  14  18  22  42
 64  87 104 112 130 155 170 184 189 187 184 188 193 202 210 213 213 217 219 218 213 208 204 199
193 185 163  60   0  14   0   0   0   0   0   0   0   0   0   0   0   0   0   0   0   0   0   0
  0   0   0   0
  0   0   0   0   0   0   0   0   0   0   0   0   0   0   0   0   0   0   0   0   0   0   0   0
  0   4   5   4   4   4   4   4   4   4   3   4   4   4   4   4   6   8  10  11  15  17  24  51
 71  93 109 114 137 161 166 179 186 185 193 194 193 203 208 203 210 218 216 212 208 205 201 196
197 192 169  61   0  15   0   0   0   0   0   0   0   0   0   0   0   0   0   0   0   0   0   0
  0   0   0   0
  0   0   0   0   0   0   0   0   0   0   0   0   0   0   0   0   0   0   0   0   0   0   0   0
  0   4   5   4   4   4   4   4   4   4   4   3   4   4   4   4   5   9   9  11  15  16  34  58
 69  88 110 120 139 162 177 188 187 189 195 195 194 199 205 201 210 215 212 207 206 208 205 205
202 199 174  60   0  15   0   0   0   0   0   0   0   0   0   0   0   0   0   0   0   0   0   0
  0   0   0   0
  0   0   0   0   0   0   0   0   0   0   0   0   0   0   0   0   0   0   0   0   0   0   0   0
  0   4   5   4   4   4   4   4   3   3   3   3   3   4   4   4   6   9   9  12  14  22  42  56
 66  82 106 114 126 152 178 181 181 189 196 190 188 193 198 200 206 209 207 208 217 218 216 212
203 199 176  63   0  16   0   0   0   0   0   0   0   0   0   0   0   0   0   0   0   0   0   0
  0   0   0   0
  0   0   0   0   0   0   0   0   0   0   0   0   0   0   0   0   0   0   0   0   0   0   0   0
  0   4   5   4   4   4   4   4   4   4   3   3   3   3   4   4   6   9   9  12  16  26  38  53
 64  71  92 106 109 125 159 162 166 175 185 191 191 195 196 200 201 203 207 212 221 220 213 209
200 195 175  61   0  16   0   0   0   0   0   0   0   0   0   0   0   0   0   0   0   0   0   0
  0   0   0   0
  0   0   0   0   0   0   0   0   0   0   0   0   0   0   0   0   0   0   0   0   0   0   0   0
  0   4   4   4   4   4   4   4   4   4   4   3   4   4   4   3   6  10  10  12  17  27  39  53
 59  72  97 108 109 128 155 161 168 181 185 189 193 201 204 204 202 204 211 217 220 217 209 210
205 199 174  58   0  15   0   0   0   0   0   0   0   0   0   0   0   0   0   0   0   0   0   0
  0   0   0   0
  0   0   0   0   0   0   0   0   0   0   0   0   0   0   0   0   0   0   0   0   0   0   0   0
  0   4   4   4   4   4   4   4   4   4   4   4   4   4   4   4   6  10  10  12  18  29  39  46
 60  84 107 114 117 136 150 158 169 189 193 189 191 201 207 210 211 216 219 218 218 215 214 212
203 198 168  57   0  14   0   0   0   0   0   0   0   0   0   0   0   0   0   0   0   0   0   0
  0   0   0   0
  0   0   0   0   0   0   0   0   0   0   0   0   0   0   0   0   0   0   0   0   0   0   0   0
  0   4   4   4   4   4   4   4   4   4   4   4   4   4   4   4   5  10  11  12  19  28  36  48
 67  82  96 117 125 133 142 156 162 172 187 194 191 193 207 215 216 221 223 219 215 213 213 212
207 200 172  62   0  15   0   0   0   0   0   0   0   0   0   0   0   0   0   0   0   0   0   0
  0   0   0   0
  0   0   0   0   0   0   0   0   0   0   0   0   0   0   0   0   0   0   0   0   0   0   0   0
  0   4   5   5   4   5   5   4   4   4   4   4   4   4   5   5   5  10  14  15  20  27  37  46
 57  76  97 116 128 134 146 159 161 165 176 190 193 193 205 211 215 219 223 219 217 216 215 216
217 205 175  62   0  16   0   0   0   0   0   0   0   0   0   0   0   0   0   0   0   0   0   0
  0   0   0   0
  0   0   0   0   0   0   0   0   0   0   0   0   0   0   0   0   0   0   0   0   0   0   0   0
  0   4   5   5   5   5   5   5   5   4   4   4   4   5   5   5   5   9  14  17  20  27  37  46
 54  76  95 114 130 133 145 162 165 174 182 186 190 190 198 205 209 215 220 220 215 213 217 221
217 208 178  61   0  16   0   0   0   0   0   0   0   0   0   0   0   0   0   0   0   0   0   0
  0   0   0   0
  0   0   0   0   0   0   0   0   0   0   0   0   0   0   0   0   0   0   0   0   0   0   0   0
  0   4   5   5   5   5   5   5   5   5   5   5   5   5   5   5   5   8  13  17  22  29  34  43
 54  68  87 107 111 117 144 168 171 173 181 180 187 188 195 203 209 208 213 218 215 216 221 221
217 210 182  62   0  16   0   0   0   0   0   0   0   0   0   0   0   0   0   0   0   0   0   0
  0   0   0   0
  0   0   0   0   0   0   0   0   0   0   0   0   0   0   0   0   0   0   0   0   0   0   0   0
  0   4   5   5   5   5   5   5   5   5   5   5   5   5   5   5   5   8  13  17  21  31  38  42
 52  58  76  89  98 124 152 163 163 165 170 176 188 201 203 203 207 206 210 216 221 219 214 219
215 206 185  66   0  17   0   0   0   0   0   0   0   0   0   0   0   0   0   0   0   0   0   0
  0   0   0   0
  0   0   0   0   0   0   0   0   0   0   0   0   0   0   0   0   0   0   0   0   0   0   0   0
  0   5   6   5   5   5   5   5   5   5   5   5   5   5   6   6   6   8  12  17  21  30  41  51
 62  68  77  87 110 135 140 143 157 170 169 171 183 204 207 204 207 206 211 218 220 211 208 212
211 210 198  75   0  20   0   0   0   0   0   0   0   0   0   0   0   0   0   0   0   0   0   0
  0   0   0   0
  0   0   0   0   0   0   0   0   0   0   0   0   0   0   0   0   0   0   0   0   0   0   0   0
  0   5   6   5   6   6   5   5   5   5   5   5   5   6   6   7   7   8  11  16  20  27  35  45
 61  72  76  89 109 128 139 140 151 167 171 170 173 184 198 207 207 207 215 219 218 212 212 214
215 217 203  77   0  21   0   0   0   0   0   0   0   0   0   0   0   0   0   0   0   0   0   0
  0   0   0   0
  0   0   0   0   0   0   0   0   0   0   0   0   0   0   0   0   0   0   0   0   0   0   0   0
  0   5   6   6   6   6   6   6   6   6   5   5   6   6   6   6   7   8  11  15  18  24  35  38
 51  72  75  85 105 117 128 130 133 147 163 179 183 182 195 205 204 208 220 223 219 214 214 216
215 215 199  76   0  20   0   0   0   0   0   0   0   0   0   0   0   0   0   0   0   0   0   0
  0   0   0   0
  0   0   0   0   0   0   0   0   0   0   0   0   0   0   0   0   0   0   0   0   0   0   0   0
  0   5   6   5   6   6   6   6   6   6   6   6   6   6   6   6   7   8  10  14  17  20  32  41
 48  60  68  79  95 110 117 124 128 134 153 184 193 193 199 205 204 206 208 211 211 207 206 204
203 206 195  76   0  20   0   0   0   0   0   0   0   0   0   0   0   0   0   0   0   0   0   0
  0   0   0   0
  0   0   0   0   0   0   0   0   0   0   0   0   0   0   0   0   0   0   0   0   0   0   0   0
  0   5   6   6   6   6   6   6   6   6   6   6   6   6   6   6   7   8   9  12  16  18  24  30
 38  46  56  76  93  94 103 122 129 141 161 176 183 195 202 207 208 202 191 193 199 197 195 191
190 200 188  71   0  18   0   0   0   0   0   0   0   0   0   0   0   0   0   0   0   0   0   0
  0   0   0   0
  0   0   0   0   0   0   0   0   0   0   0   0   0   0   0   0   0   0   0   0   0   0   0   0
  0   5   7   6   6   6   6   6   6   6   6   6   6   6   6   6   6   7   8  10  14  16  20  27
 30  32  47  63  82  92  94 103 118 139 165 180 190 193 196 206 204 199 196 197 197 196 190 185
192 197 179  68   0  17   0   0   0   0   0   0   0   0   0   0   0   0   0   0   0   0   0   0
  0   0   0   0
  0   0   0   0   0   0   0   0   0   0   0   0   0   0   0   0   0   0   0   0   0   0   0   0
  0   6   7   6   7   6   6   6   6   6   6   6   6   6   6   6   6   6   7   7  11  15  15  21
 28  34  44  53  66  83  94 113 131 139 158 183 195 193 193 202 201 199 200 200 197 195 187 187
194 182 163  66   0  15   0   0   0   0   0   0   0   0   0   0   0   0   0   0   0   0   0   0
  0   0   0   0
  0   0   0   0   0   0   0   0   0   0   0   0   0   0   0   0   0   0   0   0   0   0   0   0
  0   6   7   7   7   7   7   6   6   6   6   6   6   6   6   6   6   6   6   6   9  13  14  15
 19  28  35  47  60  76  93 110 131 144 159 176 178 184 191 192 196 202 201 193 181 174 182 186
177 161 170  79   0  18   0   0   0   0   0   0   0   0   0   0   0   0   0   0   0   0   0   0
  0   0   0   0
  0   0   0   0   0   0   0   0   0   0   0   0   0   0   0   0   0   0   0   0   0   0   0   0
  0   6   7   7   7   7   7   6   6   6   6   6   6   6   6   6   6   6   6   6   8  13  14  14
 15  19  27  37  46  64  85  84 101 128 142 148 152 166 185 193 195 197 192 182 175 175 182 181
172 172 185  79   0  19   0   0   0   0   0   0   0   0   0   0   0   0   0   0   0   0   0   0
  0   0   0   0
  0   0   0   0   0   0   0   0   0   0   0   0   0   0   0   0   0   0   0   0   0   0   0   0
  0   6   7   7   7   7   6   7   7   6   6   6   6   6   6   6   6   6   6   6   7  11  13  13
 14  16  21  32  38  44  65  75  87 108 116 122 126 134 161 180 188 187 178 172 180 186 177 175
170 162 160  65   0  15   0   0   0   0   0   0   0   0   0   0   0   0   0   0   0   0   0   0
  0   0   0   0
  0   0   0   0   0   0   0   0   0   0   0   0   0   0   0   0   0   0   0   0   0   0   0   0
  0   6   7   7   7   7   7   7   7   7   7   7   6   6   6   6   6   6   7   6   6   8  12  13
 14  16  19  23  29  38  55  66  77 101 106 102 110 124 141 159 176 178 169 173 174 165 166 164
151 138 140  59   0  12   0   0   0   0   0   0   0   0   0   0   0   0   0   0   0   0   0   0
  0   0   0   0
  0   0   0   0   0   0   0   0   0   0   0   0   0   0   0   0   0   0   0   0   0   0   0   0
  0   6   7   7   7   7   7   7   7   7   7   7   7   7   6   7   7   7   7   6   6   7  10  13
 13  15  17  19  21  25  36  52  67  87 100 100 110 125 145 156 154 162 163 163 164 168 160 141
124 123 130  55   0  10   0   0   0   0   0   0   0   0   0   0   0   0   0   0   0   0   0   0
  0   0   0   0
  0   0   0   0   0   0   0   0   0   0   0   0   0   0   0   0   0   0   0   0   0   0   0   0
  0   6   7   7   7   7   7   7   7   7   8   7  10  13   7   7   7   7   7   7   7   6   8  12
 12  13  15  17  19  22  26  31  43  59  83 101 118 133 149 155 149 161 157 154 155 159 141 122
119 113 120  56   0  10   0   0   0   0   0   0   0   0   0   0   0   0   0   0   0   0   0   0
  0   0   0   0
  0   0   0   0   0   0   0   0   0   0   0   0   0   0   0   0   0   0   0   0   0   0   0   0
  0   6   8   7   7   7   7   7   7   7   8   7  10  14   7   7   7   7   7   7   7   7   7  10
 12  12  13  15  17  18  22  26  28  37  53  68  87 106 122 134 144 143 136 136 125 132 121 114
108  96 120  55   0  10   0   0   0   0   0   0   0   0   0   0   0   0   0   0   0   0   0   0
  0   0   0   0
  0   0   0   0   0   0   0   0   0   0   0   0   0   0   0   0   0   0   0   0   0   0   0   0
  0   6   8   7   7   7   8   7   7   7   8   6  10  15   7   7   7   7   7   7   7   7   6   7
 10  11  12  13  15  19  19  21  25  31  39  46  53  71  93 102 107 110 112 104 101 104  94  96
 80  79 119  54   0   9   0   0   0   0   0   0   0   0   0   0   0   0   0   0   0   0   0   0
  0   0   0   0
  0   0   0   0   0   0   0   0   0   0   0   0   0   0   0   0   0   0   0   0   0   0   0   0
  0   6   8   7   7   7   7   7   7   8   8   6  10  14   7   7   7   7   7   7   7   7   7   6
  7  10  11  12  13  21  18  18  20  24  28  35  42  47  56  64  75  86  87  82  81  89 102 102
 69  77 122  55   0  10   0   0   0   0   0   0   0   0   0   0   0   0   0   0   0   0   0   0
  0   0   0   0
  0   0   0   0   0   0   0   0   0   0   0   0   0   0   0   0   0   0   0   0   0   0   0   0
  0   6   8   7   7   7   8   8   8   8   8   6  10  14   7   7   7   7   7   7   7   7   7   7
  6   8  10  12  12  13  15  16  18  20  22  25  28  32  38  46  54  60  65  66  71  82 100 105
 80  96 134  58   0  11   0   0   0   0   0   0   0   0   0   0   0   0   0   0   0   0   0   0
  0   0   0   0
  0   0   0   0   0   0   0   0   0   0   0   0   0   0   0   0   0   0   0   0   0   0   0   0
  0   6   8   7   7   8   8   8   8   8   8   7  11  15   7   7   7   7   7   7   7   7   7   7
  7   6   8  10  11  12  13  14  16  17  19  21  24  26  30  32  34  38  40  44  49  53  54  57
 55 122 151  56   0  13   0   0   0   0   0   0   0   0   0   0   0   0   0   0   0   0   0   0
  0   0   0   0
  0   0   0   0   0   0   0   0   0   0   0   0   0   0   0   0   0   0   0   0   0   0   0   0
  0   6   8   8   8   8   8   8   8   8   8   7  11  15   7   7   8   7   7   7   7   7   7   7
  7   7   7   8  10  12  12  13  14  15  17  19  21  22  23  25  28  27  28  29  28  26  19   0
 13 136 153  46   0  11   0   0   0   0   0   0   0   0   0   0   0   0   0   0   0   0   0   0
  0   0   0   0
  0   0   0   0   0   0   0   0   0   0   0   0   0   0   0   0   0   0   0   0   0   0   0   0
  0   7   8   8   8   8   8   8   8   8   8   6  13  19   7   8   8   8   7   7   7   7   7   7
  7   7   7   7   8  10  11  12  13  13  14  15  17  18  20  20  20  21  22  22  21  19  26   0
 52 145 149  47   0  11   0   0   0   0   0   0   0   0   0   0   0   0   0   0   0   0   0   0
  0   0   0   0
  0   0   0   0   0   0   0   0   0   0   0   0   0   0   0   0   0   0   0   0   0   0   0   0
  0   7   8   7   8   8   8   8   8   8   8   6  14  20   6   8   8   8   8   7   7   7   7   7
  7   7   7   7   7   8   9  11  12  12  12  13  13  14  15  15  16  16  16  16  16  16  24   0
 76 148 142  48   0  11   0   0   0   0   0   0   0   0   0   0   0   0   0   0   0   0   0   0
  0   0   0   0
  0   0   0   0   0   0   0   0   0   0   0   0   0   0   0   0   0   0   0   0   0   0   0   0
  0   7   9   7   8   8   8   8   8   8   9   6  14  20   7   8   8   8   8   8   8   8   7   7
  7   7   7   8   8   8   8   8  10  11  12  12  12  12  13  13  13  13  14  14  14  16  22   0
 91 147 141  54   0  11   0   0   0   0   0   0   0   0   0   0   0   0   0   0   0   0   0   0
  0   0   0   0
  0   0   0   0   0   0   0   0   0   0   0   0   0   0   0   0   0   0   0   0   0   0   0   0
  0   7   9   8   8   8   8   8   9   8   8   6  14  20   7   8   8   8   8   8   8   8   7   8
  7   8   8   8   8   8   8   8   8   9  10  11  11  12  12  12  12  12  13  13  13  16  17   0
 95 142 146  61   0  13   0   0   0   0   0   0   0   0   0   0   0   0   0   0   0   0   0   0
  0   0   0   0
  0   0   0   0   0   0   0   0   0   0   0   0   0   0   0   0   0   0   0   0   0   0   0   0
  0   7   9   8   8   8   8   8   8   8   9   6  14  20   7   8   9   8   8   8   8   8   8   8
  8   8   8   8   8   8   8   8   8   8   8   9   9  10  11  11  12  12  13  13  13  16  11  31
 93 135 148  61   0  13   0   0   0   0   0   0   0   0   0   0   0   0   0   0   0   0   0   0
  0   0   0   0
  0   0   0   0   0   0   0   0   0   0   0   0   0   0   0   0   0   0   0   0   0   0   0   0
  0   7   9   8   9   9   8   8   8   8   9   7  14  20   8   9   9   9   9   8   8   8   8   8
  8   8   8   8   8   9   8   8   8   8   7   7   7   7   8   8   9   9  10  10  11  14   7  45
 89 129 149  62   0  13   0   0   0   1   1   1   1   1   1   1   1   1   1   1   1   3   1   1
  1   1   1   1
  0   0   0   0   0   0   0   0   0   0   0   0   0   0   0   0   0   0   0   0   0   0   0   0
  0   8   9   9   9   9   9   9   9   9   9   7  15  21   8   9   9   9   9   9   9   9   8   9
  9   9   9   9   9   9   9   9   9   8   9   9   8   8   8   8   8   8   9   9   9  11  13  29
 52 100 135  63   0  12   0   0   0   0   0   0   0   0   0   0   0   0   0   0   0   0   0   0
  0   0   0   0
  0   0   0   0   0   0   0   0   0   0   0   0   0   0   0   0   0   0   0   0   0   0   0   0
  0   8  10   9   9  10  10   9   9   9  10   8  15  21   8   9   9   9   9   9   9   9   9   9
  9   9   9   9   9   9   9   9   9   9   8   9   8   9   9   8   9   9   9  10  10  11  15  16
  5  28  69  36   0   4   0   0   0   0   0   0   0   0   0   0   0   0   0   0   0   0   0   0
  0   0   0   0
  0   0   0   0   0   0   0   0   0   0   0   0   0   0   0   0   0   0   0   0   0   0   0   0
  0   8  10   9  10  10  10  10  10  10  10   8  15  21   9  10  10  10   9   9   9   9   9   9
  9   9   9   9   9   9   9   9   9   9   9   9   8   9   9   9   9   9   9  10  10  12  16  21
 25  23  16   2   0   0   0   0   0   0   0   0   0   0   0   0   0   0   0   0   0   0   0   0
  0   0   0   0
