P2
# 8-bit pgm gray
100 100
255
  0   0   0   0   0   0   0   0   0   0   0   0   0   0   0   0   0   0   0   0   0   0   4   0
 23  92  99  96  96  95  95  94  93  93  91  89  83  69  57  47  37  32  29  30  36  46  62  79
 93 107 138 161 176 187 195 200 204 204 205 205 205 205 202 201 200 201 199 197 204 155   0   9
  6   0   0   0   0   0   0   0   0   0   0   0   0   0   0   0   0   0   0   0   0   0   0   0
  0   0   0   0
  0   0   0   0   0   0   0   0   0   0   0   0   0   0   0   0   0   0   0   0   0   0   0   3
  0   0   0   0   0   0   0   0   0   0   0   0   0   0   0   0   0   0   7  21  35  50  69  87
105 117 145 175 192 205 214 218 222 224 226 227 228 225 222 222 223 222 220 218 225 170   0  11
  7   0   0   0   0   0   0   0   0   0   0   0   0   0   0   0   0   0   0   0   0   0   0   0
  0   0   0   0
  0   0   0   0   0   0   0   0   0   0   0   0   0   0   0   0   0   0   0   0   0   0   0   0
  2  24  26  25  25  25  25  25  24  24  23  23  21  16  11   8   5   9  15  24  36  48  64  83
100 111 132 164 182 195 204 209 213 216 218 221 221 218 217 217 217 216 213 212 219 166   0  11
  7   0   0   0   0   0   0   0   0   0   0   0   0   0   0   0   0   0   0   0   0   0   0   0
  0   0   0   0
  0   0   0   0   0   0   0   0   0   0   0   0   0   0   0   0   0   0   0   0   0   0   0   0
  0   0   0   0   0   0   0   0   0   0   0   0   0   0   0   0   0   5  13  23  36  49  65  83
 97 110 124 156 179 193 201 208 214 215 219 223 220 219 219 218 216 216 216 214 221 168   0  11
  7   0   0   0   0   0   0   0   0   0   0   0   0   0   0   0   0   0   0   0   0   0   0   0
  0   0   0   0
  0   0   0   0   0   0   0   0   0   0   0   0   0   0   0   0   0   0   0   0   0   0   0   0
  0   0   0   0   0   0   0   0   0   0   1   2   0   0   0   0   0   5  13  22  34  49  65  80
 94 109 121 146 174 189 198 204 210 215 220 219 217 218 218 218 217 217 216 213 222 168   0  12
  7   0   0   0   0   0   0   0   0   0   0   0   0   0   0   0   0   0   0   0   0   0   0   0
  0   0   0   0
  0   0   0   0   0   0   0   0   0   0   0   0   0   0   0   0   0   0   0   0   0   0   0   0
  0   0   0   0   0   0   0   0   0   0   0   0   0   0   0   0   0   4  13  22  34  47  62  78
 93 107 121 138 167 183 193 200 207 216 219 215 217 218 219 219 218 217 216 214 223 169   0  12
  7   0   0   0   0   0   0   0   0   0   0   0   0   0   0   0   0   0   0   0   0   0   0   0
  0   0   0   0
  0   0   0   0   0   0   0   0   0   0   0   0   0   0   0   0   0   0   0   0   0   0   0   0
  0   0   0   0   0   0   0   0   0   0   0   0   0   0   0   0   0   4  12  22  34  47  61  79
 94 105 119 130 156 178 188 195 207 218 214 214 217 218 219 219 219 217 216 215 224 169   0  12
  7   0   0   0   0   0   0   0   0   0   0   0   0   0   0   0   0   0   0   0   0   0   0   0
  0   0   0   0
  0   0   0   0   0   0   0   0   0   0   0   0   0   0   0   0   0   0   0   0   0   0   0   0
  0   0   0   0   0   0   0   0   0   0   0   0   0   0   0   0   0   5  13  22  34  47  61  78
 92 108 119 123 148 172 184 194 209 215 211 213 216 217 217 218 219 217 216 215 224 170   0  12
  7   0   0   0   0   0   0   0   0   0   0   0   0   0   0   0   0   0   0   0   0   0   0   0
  0   0   0   0
  0   0   0   0   0   0   0   0   0   0   0   0   0   0   0   0   0   0   0   0   0   0   0   0
  0   0   0   0   0   0   0   0   0   0   0   0   0   0   0   0   0   4  14  22  33  48  63  78
 92 105 116 122 138 161 179 193 206 208 208 212 214 216 217 217 217 217 218 215 224 170   0  12
  7   0   0   0   0   0   0   0   0   0   0   0   0   0   0   0   0   0   0   0   0   0   0   0
  0   0   0   0
  0   0   0   0   0   0   0   0   0   0   0   0   0   0   0   0   0   0   0   0   0   0   0   0
  0   0   0   0   0   0   0   0   0   0   0   0   0   0   0   0   0   4  12  21  33  48  63  79
 92 105 115 121 131 152 174 190 198 201 206 211 213 215 216 217 217 219 218 215 224 170   0  12
  7   0   0   0   0   0   0   0   0   0   0   0   0   0   0   0   0   0   0   0   0   0   0   0
  0   0   0   0
  0   0   0   0   0   0   0   0   0   0   0   0   0   0   0   0   0   0   0   0   0   0   0   0
  0   0   0   0   0   0   0   0   0   0   0   0   0   0   0   0   0   3  12  22  34  48  63  78
 92 105 114 120 129 144 168 188 193 196 203 209 212 214 216 217 217 218 218 216 225 170   0  12
  7   0   0   0   0   0   0   0   0   0   0   0   0   0   0   0   0   0   0   0   0   0   0   0
  0   0   0   0
  0   0   0   0   0   0   0   0   0   0   0   0   0   0   0   0   0   0   0   0   0   0   0   0
  0   0   0   0   0   0   0   0   0   0   0   0   0   0   0   0   0   4  12  22  34  48  63  78
 91 106 116 124 132 141 165 185 190 194 201 208 212 213 214 217 218 218 218 217 225 170   0  12
  7   0   0   0   0   0   0   0   0   0   0   0   0   0   0   0   0   0   0   0   0   0   0   0
  0   0   0   0
  0   0   0   0   0   0   0   0   0   0   0   0   0   0   0   0   0   0   0   0   0   0   0   0
  0   0   0   0   0   0   0   0   0   0   0   0   0   0   0   0   0   4  12  22  34  47  62  77
 95 107 112 123 132 143 158 176 188 190 198 205 208 211 214 218 216 215 217 217 225 171   0  12
  7   0   0   0   0   0   0   0   0   0   0   0   0   0   0   0   0   0   0   0   0   0   0   0
  0   0   0   0
  0   0   0   0   0   0   0   0   0   0   0   0   0   0   0   0   0   0   0   0   0   0   0   0
  0   0   0   0   0   0   0   0   0   0   0   0   0   0   0   0   0   5  13  22  36  51  66  81
 96 103 111 120 127 142 149 166 184 189 195 202 207 210 215 219 215 214 217 216 224 170   0  12
  7   0   0   0   0   0   0   0   0   0   0   0   0   0   0   0   0   0   0   0   0   0   0   0
  0   0   0   0
  0   0   0   0   0   0   0   0   0   0   0   0   0   0   0   0   0   0   0   0   0   0   0   0
  0   0   0   0   0   0   0   0   0   0   0   0   0   0   0   0   0   6  15  25  37  50  65  80
 92 101 113 119 129 140 145 159 174 187 195 202 208 212 217 218 215 215 218 217 225 170   0  12
  7   0   0   0   0   0   0   0   0   0   0   0   0   0   0   0   0   0   0   0   0   0   0   0
  0   0   0   0
  0   0   0   0   0   0   0   0   0   0   0   0   0   0   0   0   0   0   0   0   0   0   0   0
  0   0   0   0   0   0   0   0   0   0   0   0   0   0   0   0   0   6  14  23  34  47  60  75
 89 103 111 117 130 135 139 151 166 178 191 200 206 212 213 213 213 215 218 219 226 171   0  12
  7   0   0   0   0   0   0   0   0   0   0   0   0   0   0   0   0   0   0   0   0   0   0   0
  0   0   0   0
  0   0   0   0   0   0   0   0   0   0   0   0   0   0   0   0   0   0   0   0   0   0   0   0
  0   0   0   0   0   0   0   0   0   0   0   0   0   0   0   0   0   6  14  23  34  47  59  77
 92 102 109 118 130 132 138 146 158 175 184 194 202 208 210 212 214 215 216 217 224 170   0  12
  7   0   0   0   0   0   0   0   0   0   0   0   0   0   0   0   0   0   0   0   0   0   0   0
  0   0   0   0
  0   0   0   0   0   0   0   0   0   0   0   0   0   0   0   0   0   0   0   0   0   0   0   0
  0   0   0   0   0   0   0   0   0   0   0   0   0   0   0   0   0   6  15  25  37  48  63  78
 91 102 112 121 128 130 138 143 152 168 181 193 200 206 209 211 212 211 214 216 224 170   0  11
  7   0   0   0   0   0   0   0   0   0   0   0   0   0   0   0   0   0   0   0   0   0   0   0
  0   0   0   0
  0   0   0   0   0   0   0   0   0   0   0   0   0   0   0   0   0   0   0   0   0   0   0   0
  0   0   0   0   0   0   0   0   0   0   0   0   0   0   0   0   1   7  16  26  38  50  63  77
 88 101 111 123 127 128 138 142 145 162 180 190 198 203 207 210 212 211 215 217 224 170   0  12
  7   0   0   0   0   0   0   0   0   0   0   0   0   0   0   0   0   0   0   0   0   0   0   0
  0   0   0   0
  0   0   0   0   0   0   0   0   0   0   0   0   0   0   0   0   0   0   0   0   0   0   0   0
  0   0   0   0   0   0   0   0   0   0   0   0   0   0   0   0   1   9  17  26  38  49  62  76
 88 100 109 122 128 130 138 143 146 160 175 184 193 201 207 210 211 211 213 214 224 169   0  12
  7   0   0   0   0   0   0   0   0   0   0   0   0   0   0   0   0   0   0   0   0   0   0   0
  0   0   0   0
  0   0   0   0   0   0   0   0   0   0   0   0   0   0   0   0   0   0   0   0   0   0   0   0
  0   0   0   0   0   0   0   0   0   0   0   0   0   0   1   0   2  10  17  27  39  51  64  77
 90 101 109 121 127 133 142 145 147 154 168 180 190 201 207 208 210 209 210 212 222 169   0  12
  7   0   0   0   0   0   0   0   0   0   0   0   0   0   0   0   0   0   0   0   0   0   0   0
  0   0   0   0
  0   0   0   0   0   0   0   0   0   0   0   0   0   0   0   0   0   0   0   0   0   0   0   0
  0   0   0   0   0   0   0   0   0   0   0   0   0   0   0   0   3  10  18  28  40  52  64  77
 90  99 107 120 127 134 140 142 145 148 159 175 189 199 204 207 210 209 210 211 221 168   0  12
  7   0   0   0   0   0   0   0   0   0   0   0   0   0   0   0   0   0   0   0   0   0   0   0
  0   0   0   0
  0   0   0   0   0   0   0   0   0   0   0   0   0   0   0   0   0   0   0   0   0   0   0   0
  0   0   0   0   0   0   0   0   0   0   0   0   0   0   0   0   4  12  19  30  40  51  63  77
 87  97 110 120 126 133 137 139 144 146 151 169 185 196 201 208 211 209 210 209 219 167   0  12
  7   0   0   0   0   0   0   0   0   0   0   0   0   0   0   0   0   0   0   0   0   0   0   0
  0   0   0   0
  0   0   0   0   0   0   0   0   0   0   0   0   0   0   0   0   0   0   0   0   0   0   0   0
  0   0   0   0   0   0   0   0   0   0   0   0   0   0   0   0   5  13  21  30  40  51  64  74
 87 100 114 122 125 133 138 140 142 145 151 165 179 191 199 208 210 207 208 208 218 167   0  11
  7   0   0   0   0   0   0   0   0   0   0   0   0   0   0   0   0   0   0   0   0   0   0   0
  0   0   0   0
  0   0   0   0   0   0   0   0   0   0   0   0   0   0   0   0   0   0   0   0   0   0   0   0
  0   0   0   0   0   0   0   0   0   0   0   0   0   0   0   0   6  14  22  31  43  54  66  79
 93 104 115 123 126 133 136 140 144 149 151 158 172 186 198 208 210 208 206 208 218 166   0  11
  7   0   0   0   0   0   0   0   0   0   0   0   0   0   0   0   0   0   0   0   0   0   0   0
  0   0   0   0
  0   0   0   0   0   0   0   0   0   0   0   0   0   0   0   0   0   0   0   0   0   0   0   0
  0   0   0   0   0   0   0   0   0   0   0   0   0   0   0   0   6  14  22  35  47  57  70  81
 90 102 112 119 124 132 136 140 144 148 146 153 168 184 198 208 211 208 205 207 215 164   0  10
  7   0   0   0   0   0   0   0   0   0   0   0   0   0   0   0   0   0   0   0   0   0   0   0
  0   0   0   0
  0   0   0   0   0   0   0   0   0   0   0   0   0   0   0   0   0   0   0   0   0   0   0   0
  0   0   0   0   0   0   0   0   0   0   0   0   0   0   0   1   7  15  25  35  45  56  68  79
 90 103 113 120 126 134 137 140 142 144 145 150 162 178 192 204 209 208 207 206 214 163   0  10
  7   0   0   0   0   0   0   0   0   0   0   0   0   0   0   0   0   0   0   0   0   0   0   0
  0   0   0   0
  0   0   0   0   0   0   0   0   0   0   0   0   0   0   0   0   0   0   0   0   0   0   0   0
  0   0   0   0   0   0   0   0   0   0   0   0   0   0   0   1   9  17  26  35  46  58  70  84
 94 104 115 124 129 131 134 136 140 143 146 149 156 173 191 203 206 206 207 204 213 163   0  11
  7   0   0   0   0   0   0   0   0   0   0   0   0   0   0   0   0   0   0   0   0   0   0   0
  0   0   0   0
  0   0   0   0   0   0   0   0   0   0   0   0   0   0   0   0   0   0   0   0   0   0   0   0
  0   0   0   0   0   0   0   0   0   0   0   0   0   0   0   2  11  19  27  36  49  64  75  85
 94 105 117 123 125 128 132 135 139 144 147 150 154 169 186 197 202 203 204 204 214 162   0  11
  6   0   0   0   0   0   0   0   0   0   0   0   0   0   0   0   0   0   0   0   0   0   0   0
  0   0   0   0
  0   0   0   0   0   0   0   0   0   0   0   0   0   0   0   0   0   0   0   0   0   0   0   0
  0   0   0   0   0   0   0   0   0   0   0   0   0   0   0   3  12  20  29  41  53  63  74  85
 97 109 116 121 127 131 133 138 142 145 146 148 152 165 181 191 198 202 204 205 213 161   0  11
  6   0   0   0   0   0   0   0   0   0   0   0   0   0   0   0   0   0   0   0   0   0   0   0
  0   0   0   0
  0   0   0   0   0   0   0   0   0   0   0   0   0   0   0   0   0   0   0   0   0   0   0   0
  0   0   0   0   0   0   0   0   0   0   0   0   0   0   0   4  13  22  32  42  53  64  76  87
101 112 117 122 128 133 136 140 143 145 146 148 150 159 176 186 194 199 203 204 214 162   0  11
  6   0   0   0   0   0   0   0   0   0   0   0   0   0   0   0   0   0   0   0   0   0   0   0
  0   0   0   0
  0   0   0   0   0   0   0   0   0   0   0   0   0   0   0   0   0   0   0   0   0   0   0   0
  0   0   0   0   0   0   0   0   0   0   0   0   0   0   0   6  14  23  33  44  56  69  79  92
107 115 121 129 132 135 136 138 141 143 144 146 148 157 172 183 192 197 201 204 214 163   0  10
  7   0   0   0   0   0   0   0   0   0   0   0   0   0   0   0   0   0   0   0   0   0   0   0
  0   0   0   0
  0   0   0   0   0   0   0   0   0   0   0   0   0   0   0   0   0   0   0   0   0   0   0   0
  0   0   0   0   0   0   0   0   0   0   0   0   0   0   0   7  15  24  34  46  57  69  82  95
108 117 124 131 134 137 137 138 141 142 144 147 152 158 166 181 190 195 200 204 213 162   0  10
  7   0   0   0   0   0   0   0   0   0   0   0   0   0   0   0   0   0   0   0   0   0   0   0
  0   0   0   0
  0   0   0   0   0   0   0   0   0   0   0   0   0   0   0   0   0   0   0   0   0   0   0   0
  0   0   0   0   0   0   0   0   0   0   0   0   0   0   1   9  17  26  34  46  59  71  84  97
108 118 127 132 134 136 138 139 141 143 146 151 155 158 165 176 186 190 196 202 215 163   0  11
  7   0   0   0   0   0   0   0   0   0   0   0   0   0   0   0   0   0   0   0   0   0   0   0
  0   0   0   0
  0   0   0   0   0   0   0   0   0   0   0   0   0   0   0   0   0   0   0   0   0   0   0   0
  0   0   0   0   0   0   0   0   0   0   0   0   0   0   2  10  17  26  36  48  61  74  88 101
112 123 132 135 134 135 140 143 143 147 150 153 155 154 158 170 182 187 194 201 214 163   0  11
  6   0   0   0   0   0   0   0   0   0   0   0   0   0   0   0   0   0   0   0   0   0   0   0
  0   0   0   0
  0   0   0   0   0   0   0   0   0   0   0   0   0   0   0   0   0   0   0   0   0   0   0   0
  0   0   0   0   0   0   0   0   0   0   0   0   0   0   3  11  18  27  38  51  65  79  93 106
115 124 133 136 136 138 141 146 148 148 150 154 153 148 154 167 179 188 194 201 212 162   0  11
  7   0   0   0   0   0   0   0   0   0   0   0   0   0   0   0   0   0   0   0   0   0   0   0
  0   0   0   0
  0   0   0   0   0   0   0   0   0   0   0   0   0   0   0   0   0   0   0   0   0   0   0   0
  0   0   0   0   0   0   0   0   0   0   0   0   0   0   4  12  19  28  40  55  69  85 100 108
115 126 135 139 141 141 142 147 149 151 150 155 154 151 153 163 176 186 193 199 211 161   0  11
  6   0   0   0   0   0   0   0   0   0   0   0   0   0   0   0   0   0   0   0   0   0   0   0
  0   0   0   0
  0   0   0   0   0   0   0   0   0   0   0   0   0   0   0   0   0   0   0   0   0   0   0   0
  0   0   0   0   0   0   0   0   0   0   0   0   0   0   5  13  20  30  44  59  73  87 102 111
120 130 137 140 141 141 146 150 148 149 151 154 151 151 154 163 176 186 193 197 210 160   0  11
  6   0   0   0   0   0   0   0   0   0   0   0   0   0   0   0   0   0   0   0   0   0   0   0
  0   0   0   0
  0   0   0   0   0   0   0   0   0   0   0   0   0   0   0   0   0   0   0   0   0   0   0   0
  0   0   0   0   0   0   0   0   0   0   0   0   0   0   6  14  22  34  50  65  79  92 104 116
123 128 134 140 141 142 143 144 146 146 150 151 148 150 152 156 171 184 192 196 210 160   0  11
  6   0   0   0   0   0   0   0   0   0   0   0   0   0   0   0   0   0   0   0   0   0   0   0
  0   0   0   0
  0   0   0   0   0   0   0   0   0   0   0   0   0   0   0   0   0   0   0   0   0   0   0   0
  0   0   0   0   0   0   0   0   0   0   0   0   0   1   7  16  25  38  54  69  83  98 110 119
126 132 137 139 141 142 141 141 143 147 148 148 150 150 149 154 165 175 187 194 206 159   0  10
  6   0   0   0   0   0   0   0   0   0   0   0   0   0   0   0   0   0   0   0   0   0   0   0
  0   0   0   0
  0   0   0   0   0   0   0   0   0   0   0   0   0   0   0   0   0   0   0   0   0   0   0   0
  0   0   0   0   0   0   0   0   0   0   0   0   0   1   9  18  28  43  60  74  85 102 115 120
131 136 137 138 142 141 142 141 141 145 147 148 148 150 152 155 162 173 184 193 206 159   0   9
  7   0   0   0   0   0   0   0   0   0   0   0   0   0   0   0   0   0   0   0   0   0   0   0
  0   0   0   0
  0   0   0   0   0   0   0   0   0   0   0   0   0   0   0   0   0   0   0   0   0   0   0   0
  0   0   0   0   0   0   0   0   0   0   0   0   0   2  11  21  33  48  63  76  90 106 116 122
133 137 138 141 144 143 140 139 141 145 148 149 148 150 152 153 158 172 184 193 206 157   0   9
  6   0   0   0   0   0   0   0   0   0   0   0   0   0   0   0   0   0   0   0   0   0   0   0
  0   0   0   0
  0   0   0   0   0   0   0   0   0   0   0   0   0   0   0   0   0   0   0   0   0   0   0   0
  0   0   0   0   0   0   0   0   0   0   0   0   0   3  13  23  37  52  66  78  93 106 118 125
133 136 135 140 143 141 140 141 145 146 145 146 148 149 148 150 155 167 183 191 204 155   0  10
  6   0   0   0   0   0   0   0   0   0   0   0   0   0   0   0   0   0   0   0   0   0   0   0
  0   0   0   0
  0   0   0   0   0   0   0   0   0   0   0   0   0   0   0   0   0   0   0   0   0   0   0   0
  0   0   0   0   0   0   0   0   0   0   0   0   0   5  15  26  41  56  71  84  96 109 120 133
137 134 135 137 139 140 142 144 146 146 144 146 148 148 147 151 160 170 181 188 201 155   0  10
  6   0   0   0   0   0   0   0   0   0   0   0   0   0   0   0   0   0   0   0   0   0   0   0
  0   0   0   0
  0   0   0   0   0   0   0   0   0   0   0   0   0   0   0   0   0   0   0   0   0   0   0   0
  0   0   0   0   0   0   0   0   0   0   0   0   0   6  17  29  45  60  74  88 102 113 121 135
138 135 136 138 140 143 144 149 151 147 146 149 151 152 153 161 167 171 182 189 201 155   0   8
  6   0   0   0   0   0   0   0   0   0   0   0   0   0   0   0   0   0   0   0   0   0   0   0
  0   0   0   0
  0   0   0   0   0   0   0   0   0   0   0   0   0   0   0   0   0   0   0   0   0   0   0   0
  0   0   0   0   0   0   0   0   0   0   0   0   0   8  19  32  49  65  80  94 106 115 120 133
146 145 144 140 142 144 146 150 151 148 151 154 155 159 161 166 170 172 184 192 208 159   0  10
  6   0   0   0   0   0   0   0   0   0   0   0   0   0   0   0   0   0   0   0   0   0   0   0
  0   0   0   0
  0   0   0   0   0   0   0   0   0   0   0   0   0   0   0   0   0   0   0   0   0   0   0   0
  0   0   0   0   0   0   0   0   0   0   0   0   1   9  21  36  52  70  84  97 109 121 126 135
146 143 150 146 143 145 149 149 152 159 158 155 159 166 164 167 170 172 179 190 208 159   0  10
  6   0   0   0   0   0   0   0   0   0   0   0   0   0   0   0   0   0   0   0   0   0   0   0
  0   0   0   0
  0   0   0   0   0   0   0   0   0   0   0   0   0   0   0   0   0   0   0   0   0   0   0   0
  0   0   0   0   0   0   0   0   0   0   0   0   1  11  23  37  55  71  83  96 109 118 131 140
143 145 146 156 157 158 165 165 171 171 166 167 169 171 173 172 169 170 175 187 204 157   0   9
  6   0   0   0   0   0   0   0   0   0   0   0   0   0   0   0   0   0   0   0   0   0   0   0
  0   0   0   0
  0   0   0   0   0   0   0   0   0   0   0   0   0   0   0   0   0   0   0   0   0   0   0   0
  0   0   0   0   0   0   0   0   0   0   0   0   1  13  24  37  56  70  84  98 108 114 128 150
168 173 170 176 186 187 188 189 184 178 176 177 171 172 179 178 174 172 175 183 203 157   0  10
  6   0   0   0   0   0   0   0   0   0   0   0   0   0   0   0   0   0   0   0   0   0   0   0
  0   0   0   0
  0   0   0   0   0   0   0   0   0   0   0   0   0   0   0   0   0   0   0   0   0   0   0   0
  0   0   0   0   0   0   0   0   0   0   0   0   2  14  23  39  56  70  83  95 106 113 124 157
173 177 195 203 202 203 198 198 191 191 185 176 175 177 179 184 185 183 180 181 200 155   0  10
  6   0   0   0   0   0   0   0   0   0   0   0   0   0   0   0   0   0   0   0   0   0   0   0
  0   0   0   0
  0   0   0   0   0   0   0   0   0   0   0   0   0   0   0   0   0   0   0   0   0   0   0   0
  0   0   0   0   0   0   0   0   0   0   0   0   2  13  24  41  56  70  83  94 103 110 130 154
176 184 193 201 197 199 202 199 202 196 185 182 181 182 184 184 184 185 182 181 195 152   0   8
  6   0   0   0   0   0   0   0   0   0   0   0   0   0   0   0   0   0   0   0   0   0   0   0
  0   0   0   0
  0   0   0   0   0   0   0   0   0   0   0   0   0   0   0   0   0   0   0   0   0   0   0   0
  0   0   0   0   0   0   0   0   0   0   0   0   2  13  24  39  55  70  84  95 103 110 141 170
182 189 204 200 187 185 190 193 196 195 189 183 173 174 184 183 179 182 182 180 194 152   0   8
  6   0   0   0   0   0   0   0   0   0   0   0   0   0   0   0   0   0   0   0   0   0   0   0
  0   0   0   0
  0   0   0   0   0   0   0   0   0   0   0   0   0   0   0   0   0   0   0   0   0   0   0   0
  0   0   0   0   0   0   0   0   0   0   0   0   2  13  24  38  54  69  82  94  99 115 158 183
190 198 207 206 193 183 185 193 191 184 178 176 174 173 176 180 176 172 182 182 189 146   0   7
  6   0   0   0   0   0   0   0   0   0   0   0   0   0   0   0   0   0   0   0   0   0   0   0
  0   0   0   0
  0   0   0   0   0   0   0   0   0   0   0   0   0   0   0   0   0   0   0   0   0   0   0   0
  0   0   0   0   0   0   0   0   0   0   0   0   2  12  23  37  54  73  89 103 116 145 170 176
186 186 191 200 194 189 190 186 183 172 165 173 176 175 175 179 176 172 177 178 180 139   0   6
  5   0   0   0   0   0   0   0   0   0   0   0   0   0   0   0   0   0   0   0   0   0   0   0
  0   0   0   0
  0   0   0   0   0   0   0   0   0   0   0   0   0   0   0   0   0   0   0   0   0   0   0   0
  0   0   0   0   0   0   0   0   0   0   0   0   1  11  22  36  59  75  91 107 134 162 164 173
177 172 182 192 193 194 193 192 180 168 162 171 175 169 171 177 181 184 182 176 184 139   0   7
  5   0   0   0   0   0   0   0   0   0   0   0   0   0   0   0   0   0   0   0   0   0   0   0
  0   0   0   0
  0   0   0   0   0   0   0   0   0   0   0   0   0   0   0   0   0   0   0   0   0   0   0   0
  0   0   0   0   0   0   0   0   0   0   0   0   1  11  21  38  55  68  83  91 119 144 159 174
172 173 178 189 193 194 191 196 184 165 163 171 174 169 170 173 177 178 178 185 190 141   0   7
  5   0   0   0   0   0   0   0   0   0   0   0   0   0   0   0   0   0   0   0   0   0   0   0
  0   0   0   0
  0   0   0   0   0   0   0   0   0   0   0   0   0   0   0   0   0   0   0   0   0   0   0   0
  0   0   0   0   0   0   0   0   0   0   0   0   1  10  22  37  50  67  82  93 124 140 160 173
163 175 177 179 190 194 185 189 186 167 164 168 167 166 170 167 166 168 172 189 195 140   0   9
  5   0   0   0   0   0   0   0   0   0   0   0   0   0   0   0   0   0   0   0   0   0   0   0
  0   0   0   0
  0   0   0   0   0   0   0   0   0   0   0   0   0   0   0   0   0   0   0   0   0   0   0   0
  0   0   0   0   0   0   0   0   0   0   0   0   1   9  21  35  50  66  79  96 126 141 157 162
156 171 175 168 180 190 185 183 182 177 175 164 166 166 161 160 165 165 167 178 193 141   0  10
  4   0   0   0   0   0   0   0   0   0   0   0   0   0   0   0   0   0   0   0   0   0   0   0
  0   0   0   0
  0   0   0   0   0   0   0   0   0   0   0   0   0   0   0   0   0   0   0   0   0   0   0   0
  0   0   0   0   0   0   0   0   0   0   0   0   0   8  20  32  49  64  78  99 120 137 152 150
147 157 165 160 170 188 185 169 176 178 173 163 161 165 164 161 165 167 167 169 184 142   0   7
  5   0   0   0   0   0   0   0   0   0   0   0   0   0   0   0   0   0   0   0   0   0   0   0
  0   0   0   0
  0   0   0   0   0   0   0   0   0   0   0   0   0   0   0   0   0   0   0   0   0   0   0   0
  0   0   0   0   0   0   0   0   0   0   0   0   0   7  19  30  46  62  80 104 117 136 138 141
144 142 155 162 168 177 177 171 173 166 161 161 162 166 165 160 164 165 161 169 180 140   0   5
  5   0   0   0   0   0   0   0   0   0   0   0   0   0   0   0   0   0   0   0   0   0   0   0
  0   0   0   0
  0   0   0   0   0   0   0   0   0   0   0   0   0   0   0   0   0   0   0   0   0   0   0   0
  0   0   0   0   0   0   0   0   0   0   0   0   0   6  17  29  44  61  78 100 123 139 133 139
149 147 154 160 163 170 170 167 167 156 156 164 161 163 161 156 159 156 157 170 182 141   0   5
  5   0   0   0   0   0   0   0   0   0   0   0   0   0   0   0   0   0   0   0   0   0   0   0
  0   0   0   0
  0   0   0   0   0   0   0   0   0   0   0   0   0   0   0   0   0   0   0   0   0   0   0   0
  0   0   0   0   0   0   0   0   0   0   0   0   0   6  15  27  42  57  76  96 123 133 133 137
147 159 158 153 161 178 170 160 162 155 158 165 156 155 160 166 168 164 168 168 182 144   0   6
  6   0   0   0   0   0   0   0   0   0   0   0   0   0   0   0   0   0   0   0   0   0   0   0
  0   0   0   0
  0   0   0   0   0   0   0   0   0   0   0   0   0   0   0   0   0   0   0   0   0   0   0   0
  0   0   0   0   0   0   0   0   0   0   0   0   0   5  14  25  39  53  74  93 108 126 136 139
143 158 166 162 162 175 178 168 158 156 164 163 155 154 160 171 174 173 173 168 190 151   0   9
  6   0   0   0   0   0   0   0   0   0   0   0   0   0   0   0   0   0   0   0   0   0   0   0
  0   0   0   0
  0   0   0   0   0   0   0   0   0   0   0   0   0   0   0   0   0   0   0   0   0   0   0   0
  0   0   0   0   0   0   0   0   0   0   0   0   0   6  18  23  37  49  70  87 101 119 130 145
157 160 166 158 162 172 173 169 156 159 171 167 157 157 160 174 173 168 173 172 185 141   0   8
  5   0   0   0   0   0   0   0   0   0   0   0   0   0   0   0   0   0   0   0   0   0   0   0
  0   0   0   0
  0   0   0   0   0   0   0   0   0   0   0   0   0   0   0   0   0   0   0   0   0   0   0   0
  0   0   0   0   0   0   0   0   0   0   0   0   0   4  18  23  33  46  64  78  93 108 124 133
150 160 156 152 161 167 169 172 171 168 163 167 170 168 171 177 172 166 172 171 172 131   0   5
  5   0   0   0   0   0   0   0   0   0   0   0   0   0   0   0   0   0   0   0   0   0   0   0
  0   0   0   0
  0   0   0   0   0   0   0   0   0   0   0   0   0   0   0   0   0   0   0   0   0   0   0   0
  0   0   0   0   0   0   0   0   0   0   0   0   0   2  13  22  30  43  58  72  85  96 117 126
135 157 157 151 161 166 168 176 179 168 157 165 172 176 182 174 166 170 174 174 177 133   0   5
  5   0   0   0   0   0   0   0   0   0   0   0   0   0   0   0   0   0   0   0   0   0   0   0
  0   0   0   0
  0   0   0   0   0   0   0   0   0   0   0   0   0   0   0   0   0   0   0   0   0   0   0   0
  0   0   0   0   0   0   0   0   0   0   0   0   0   1  11  21  30  39  52  68  81  89 110 127
130 150 160 156 161 166 161 165 176 167 161 165 166 166 172 172 173 176 175 175 183 138   0   7
  5   0   0   0   0   0   0   0   0   0   0   0   0   0   0   0   0   0   0   0   0   0   0   0
  0   0   0   0
  0   0   0   0   0   0   0   0   0   0   0   0   0   0   0   0   0   0   0   0   0   0   0   0
  0   0   0   0   0   0   0   0   0   0   0   0   0   0   9  19  27  38  52  66  76  90 111 128
136 143 151 158 160 164 160 166 173 166 165 162 156 160 167 174 178 180 177 174 181 139   0   7
  5   0   0   0   0   0   0   0   0   0   0   0   0   0   0   0   0   0   0   0   0   0   0   0
  0   0   0   0
  0   0   0   0   0   0   0   0   0   0   0   0   0   0   0   0   0   0   0   0   0   0   0   0
  0   0   0   0   0   0   0   0   0   0   0   0   0   0   3  18  27  36  52  66  80  96 107 116
130 143 147 151 161 159 159 168 165 163 163 159 158 160 168 170 173 180 179 173 180 139   0   7
  5   0   0   0   0   0   0   0   0   0   0   0   0   0   0   0   0   0   0   0   0   0   0   0
  0   0   0   0
  0   0   0   0   0   0   0   0   0   0   0   0   0   0   0   0   0   0   0   0   0   0   0   0
  0   0   0   0   0   0   0   0   0   0   0   0   0   0   0  11  28  37  47  57  69  88 106 111
122 129 136 153 157 153 160 161 158 165 164 165 171 171 171 171 181 185 183 183 193 145   0  10
  5   0   0   0   0   0   0   0   0   0   0   0   0   0   0   0   0   0   0   0   0   0   0   0
  0   0   0   0
  0   0   0   0   0   0   0   0   0   0   0   0   0   0   0   0   0   0   0   0   0   0   0   0
  0   0   0   0   0   0   0   0   0   0   0   0   0   0   0   0  20  34  47  53  56  68  96 111
113 116 133 156 161 156 158 161 165 169 172 178 186 182 180 185 188 189 191 192 194 143   0   9
  5   0   0   0   0   0   0   0   0   0   0   0   0   0   0   0   0   0   0   0   0   0   0   0
  0   0   0   0
  0   0   0   0   0   0   0   0   0   0   0   0   0   0   0   0   0   0   0   0   0   0   0   0
  0   0   0   0   0   0   0   0   0   0   0   0   0   0   0   0   2  24  42  60  72  81  98 113
119 134 142 156 166 162 161 165 169 164 167 173 176 177 182 185 187 185 186 184 189 143   0   9
  5   0   0   0   0   0   0   0   0   0   0   0   0   0   0   0   0   0   0   0   0   0   0   0
  0   0   0   0
  0   0   0   0   0   0   0   0   0   0   0   0   0   0   0   0   0   0   0   0   0   0   0   0
  0   0   0   0   0   0   0   0   0   0   0   0   0   0   0   0   0   0  27  60  92 100  92 100
112 126 131 143 156 154 147 152 164 163 163 166 167 170 179 180 178 175 173 175 185 141   0   8
  5   0   0   0   0   0   0   0   0   0   0   0   0   0   0   0   0   0   0   0   0   0   0   0
  0   0   0   0
  0   0   0   0   0   0   0   0   0   0   0   0   0   0   0   0   0   0   0   0   0   0   0   0
  0   0   0   0   0   0   0   0   0   0   0   0   0   0   0   0   2   0  22  57  67  81  85  84
 93 107 117 127 140 134 131 142 155 157 158 162 169 172 175 178 172 173 176 176 183 140   0   8
  5   0   0   0   0   0   0   0   0   0   0   0   0   0   0   0   0   0   0   0   0   0   0   0
  0   0   0   0
  0   0   0   0   0   0   0   0   0   0   0   0   0   0   0   0   0   0   0   0   0   0   0   0
  0   0   0   0   0   0   0   0   0   0   0   0   0   0   0   0   0   0   0  46  60  59  77  78
 79  92  98 107 122 127 128 136 143 144 146 150 166 171 161 166 173 177 179 183 190 144   0   9
  5   0   0   0   0   0   0   0   0   0   0   0   0   0   0   0   0   0   0   0   0   0   0   0
  0   0   0   0
  0   0   0   0   0   0   0   0   0   0   0   0   0   0   0   0   0   0   0   0   0   0   0   0
  0   0   0   0   0   0   0   0   0   0   0   0   0   0   0   0   0   2   0  19  56  50  57  67
 66  75  85  94 105 115 125 131 132 137 145 145 159 168 163 165 173 174 181 186 190 139   0  10
  4   0   0   0   0   0   0   0   0   0   0   0   0   0   0   0   0   0   0   0   0   0   0   0
  0   0   0   0
  0   0   0   0   0   0   0   0   0   0   0   0   0   0   0   0   0   0   0   0   0   0   0   0
  0   0   0   0   0   0   0   0   0   0   0   0   0   0   0   0   0   0   1   0  31  43  41  49
 52  60  74  88  97 105 116 125 130 145 159 148 156 171 176 174 173 175 182 188 191 139   0  10
  4   0   0   0   0   0   0   0   0   0   0   0   0   0   0   0   0   0   0   0   0   0   0   0
  0   0   0   0
  0   0   0   0   0   0   0   0   0   0   0   0   0   0   0   0   0   0   0   0   0   0   0   0
  0   0   0   0   0   0   0   0   0   0   0   0   0   0   0   0   0   0   0   0   1  24  28  33
 40  46  57  73  89  94 103 112 120 135 142 147 153 161 174 180 178 181 184 183 190 142   0  10
  4   0   0   0   0   0   0   0   0   0   0   0   0   0   0   0   0   0   0   0   0   0   0   0
  0   0   0   0
  0   0   0   0   0   0   0   0   0   0   0   0   0   0   0   0   0   0   0   0   0   0   0   0
  0   0   0   0   0   0   0   0   0   0   0   0   0   0   0   0   0   0   0   1   0   3  20  26
 31  38  48  59  72  85  97 101 105 114 125 138 145 147 153 172 179 177 181 178 183 140   0   8
  5   0   0   0   0   0   0   0   0   0   0   0   0   0   0   0   0   0   0   0   0   0   0   0
  0   0   0   0
  0   0   0   0   0   0   0   0   0   0   0   0   0   0   0   0   0   0   0   0   0   0   0   0
  0   0   0   0   0   0   0   0   0   0   0   0   0   0   0   0   0   0   0   0   0   0  14  21
 24  33  44  54  64  74  90  99  97 104 116 122 133 145 149 164 177 175 177 176 177 136   0   4
  5   0   0   0   0   0   0   0   0   0   0   0   0   0   0   0   0   0   0   0   0   0   0   0
  0   0   0   0
  0   0   0   0   0   0   0   0   0   0   0   0   0   0   0   0   0   0   0   0   0   0   0   0
  0   0   0   0   0   0   0   0   0   0   0   0   0   0   0   0   0   0   0   0   0   0   5  17
 21  28  36  44  56  67  78  97 105 101 104 112 123 137 150 163 173 171 172 171 179 139   0   5
  5   0   0   0   0   0   0   0   0   0   0   0   0   0   0   0   0   0   0   0   0   0   0   0
  0   0   0   0
  0   0   0   0   0   0   0   0   0   0   0   0   0   0   0   0   0   0   0   0   0   0   0   0
  0   0   0   0   0   0   0   0   0   0   0   0   0   0   0   0   0   0   0   0   0   0   0  11
 17  22  30  39  48  62  70  85 105 108 106 112 122 132 146 159 168 170 169 169 182 140   0   6
  5   0   0   0   0   0   0   0   0   0   0   0   0   0   0   0   0   0   0   0   0   0   0   0
  0   0   0   0
  0   0   0   0   0   0   0   0   0   0   0   0   0   0   0   0   0   0   0   0   0   0   0   0
  0   0   0   0   0   0   0   0   0   0   0   0   0   0   0   0   0   0   0   0   0   0   0   4
 13  19  25  33  43  54  65  73  93 110 116 115 119 128 135 153 168 174 169 172 183 138   0   5
  5   0   0   0   0   0   0   0   0   0   0   0   0   0   0   0   0   0   0   0   0   0   0   0
  0   0   0   0
  0   0   0   0   0   0   0   0   0   0   0   0   0   0   0   0   0   0   0   0   0   0   0   0
  0   0   0   0   0   0   0   0   0   0   0   0   0   0   0   0   0   0   0   0   0   0   0   0
  8  15  20  27  37  45  56  64  77  95 109 117 118 136 150 157 171 183 186 184 185 139   0   6
  5   0   0   0   0   0   0   0   0   0   0   0   0   0   0   0   0   0   0   0   0   0   0   0
  0   0   0   0
  0   0   0   0   0   0   0   0   0   0   0   0   0   0   0   0   0   0   0   0   0   0   0   0
  0   0   0   0   0   0   0   0   0   0   0   0   0   0   0   0   0   0   0   0   0   0   0   0
  3  12  17  22  29  37  45  55  63  79  93 110 125 140 163 171 176 185 199 196 195 148   0   7
  6   0   0   0   0   0   0   0   0   0   0   0   0   0   0   0   0   0   0   0   0   0   0   0
  0   0   0   0
  0   0   0   0   0   0   0   0   0   0   0   0   0   0   0   0   0   0   0   0   0   0   0   0
  0   0   0   0   0   0   0   0   0   0   0   0   0   0   0   0   0   0   0   0   0   0   0   0
  0   6  14  18  24  31  38  49  56  65  79  94 112 129 147 163 175 185 195 195 197 152   0   7
  6   0   0   0   0   0   0   0   0   0   0   0   0   0   0   0   0   0   0   0   0   0   0   0
  0   0   0   0
  0   0   0   0   0   0   0   0   0   0   0   0   0   0   0   0   0   0   0   0   0   0   0   0
  0   0   0   0   0   0   0   0   0   0   0   0   0   0   0   0   0   0   0   0   0   0   0   0
  0   1  10  16  21  26  33  44  52  60  73  85  97 113 131 143 155 167 175 181 191 146   0   5
  6   0   0   0   0   0   0   0   0   0   0   0   0   0   0   0   0   0   0   0   0   0   0   0
  0   0   0   0
  0   0   0   0   0   0   0   0   0   0   0   0   0   0   0   0   0   0   0   0   0   0   0   0
  0   0   0   0   0   0   0   0   0   0   0   0   0   0   0   0   0   0   0   0   0   0   0   0
  0   0   3  12  17  22  28  36  49  59  68  83  98 111 121 130 143 152 158 165 183 140   0   6
  5   0   0   0   0   0   0   0   0   0   0   0   0   0   0   0   0   0   0   0   0   0   0   0
  0   0   0   0
  0   0   0   0   0   0   0   0   0   0   0   0   0   0   0   0   0   0   0   0   0   0   0   0
  0   0   0   0   0   0   0   0   0   0   0   0   0   0   0   0   0   0   0   0   0   0   0   0
  0   0   0   6  15  19  24  29  40  54  65  78  95 107 116 125 137 146 155 166 182 141   0   5
  5   0   0   0   0   0   0   0   0   0   0   0   0   0   0   0   0   0   0   0   0   0   0   0
  0   0   0   0
  0   0   0   0   0   0   0   0   0   0   0   0   0   0   0   0   0   0   0   0   0   0   0   0
  0   0   0   0   0   0   0   0   0   0   0   0   0   0   0   0   0   0   0   0   0   0   0   0
  0   0   0   0   9  16  21  27  35  45  57  74  86  97 112 127 133 142 152 166 179 140   0   4
  6   0   0   0   0   0   0   0   0   0   0   0   0   0   0   0   0   0   0   0   0   0   0   0
  0   0   0   0
  0   0   0   0   0   0   0   0   0   0   0   0   0   0   0   0   0   0   0   0   0   0   0   0
  0   0   0   0   0   0   0   0   0   0   0   0   0   0   0   0   0   0   0   0   0   0   0   0
  0   0   0   0   1  12  18  22  31  42  54  69  83  96 113 124 134 143 146 156 176 141   0   3
  6   0   0   0   0   0   0   0   0   0   0   0   0   0   0   0   0   0   0   0   0   0   0   0
  0   0   0   0
  0   0   0   0   0   0   0   0   0   0   0   0   0   0   0   0   0   0   0   0   0   0   0   0
  0   0   0   0   0   0   0   0   0   0   0   0   0   0   0   0   0   0   0   0   0   0   0   0
  0   0   0   0   0   3  14  20  26  36  50  63  79  93 107 117 129 138 142 151 172 138   0   3
  6   0   0   0   0   0   0   0   0   0   0   0   0   0   0   0   0   0   0   0   0   0   0   0
  0   0   0   0
  0   0   0   0   0   0   0   0   0   0   0   0   0   0   0   0   0   0   0   0   0   0   0   0
  0   0   0   0   0   0   0   0   0   0   0   0   0   0   0   0   0   0   0   0   0   0   0   0
  0   0   0   0   0   0   4  15  22  33  46  61  78  91 102 115 126 133 140 150 169 133   0   3
  5   0   0   0   0   0   0   0   0   0   0   0   0   0   0   0   0   0   0   0   0   0   0   0
  0   0   0   0
  0   0   0   0   0   0   0   0   0   0   0   0   0   0   0   0   0   0   0   0   0   0   0   0
  0   0   0   0   0   0   0   0   0   0   0   0   0   0   0   0   0   0   0   0   0   0   0   0
  0   0   0   0   0   0   0   4  15  27  41  56  72  85 101 116 126 131 140 148 162 128   0   2
  5   0   0   0   0   0   0   0   0   0   0   0   0   0   0   0   0   0   0   0   0   0   0   0
  0   0   0   0
  0   0   0   0   0   0   0   0   0   0   0   0   0   0   0   0   0   0   0   0   0   0   0   0
  0   0   0   0   0   0   0   0   0   0   0   0   0   0   0   0   0   0   0   0   0   0   0   0
  0   0   0   0   0   0   0   0   4  21  34  49  59  71  89 108 118 128 133 139 154 124   0   1
  5   0   0   0   0   0   0   0   0   0   0   0   0   0   0   0   0   0   0   0   0   0   0   0
  0   0   0   0
  0   0   0   0   0   0   0   0   0   0   0   0   0   0   0   0   0   0   0   0   0   0   0   0
  0   0   0   0   0   0   0   0   0   0   0   0   0   0   0   0   0   0   0   0   0   0   0   0
  0   0   0   0   0   0   0   0   0  11  30  39  51  65  78  96 109 120 129 136 151 122   0   2
  5   0   0   0   0   0   0   0   0   0   0   0   0   0   0   0   0   0   0   0   0   0   0   0
  0   0   0   0
  0   0   0   0   0   0   0   0   0   0   0   0   0   0   0   0   0   0   0   0   0   0   0   0
  0   0   0   0   0   0   0   0   0   0   0   0   0   0   0   0   0   0   0   0   0   0   0   0
  0   0   0   0   0   0   0   0   0   0  20  32  38  51  61  76  92 102 116 127 145 119   0   2
  4   0   0   0   0   0   0   0   0   0   0   0   0   0   0   0   0   0   0   0   0   0   0   0
  0   0   0   0
  0   0   0   0   0   0   0   0   0   0   0   0   0   0   0   0   0   0   0   0   0   0   0   0
  0   0   0   0   0   0   0   0   0   0   0   0   0   0   0   0   0   0   0   0   0   0   0   0
  0   0   0   0   0   0   0   0   0   0   4  27  36  48  59  76  92 102 113 124 148 123   0   1
  5   0   0   0   0   0   0   0   0   0   0   0   0   0   0   0   0   0   0   0   0   0   0   0
  0   0   0   0
  0   0   0   0   0   0   0   0   0   0   0   0   0   0   0   0   0   0   0   0   0   0   0   0
  0   0   0   0   0   0   0   0   0   0   0   0   0   0   0   0   0   0   0   1   1   1   0   0
  1   0   0   0   0   0   0   0   0   0   1  17  28  40  52  69  86  97 107 114 136 115   0   0
  4   0   0   0   0   0   0   0   0   0   0   0   0   0   0   0   0   0   0   0   0   0   0   0
  0   0   0   0
  0   0   0   0   0   0   0   0   0   0   0   0   0   0   0   0   0   0   0   0   0   0   0   0
  0   0   0   0   0   0   1   1   1   1   0   1   0   0   1   1   1   1   1   1   1   1   1   2
  1   1   1   1   0   0   0   0   0   1   0  13  27  35  46  61  77  89 100 110 129 106   0   1
  3   0   0   0   0   0   0   0   0   0   0   0   0   0   0   0   0   0   0   0   0   0   0   0
  0   0   0   0
