P2
# 8-bit pgm gray
100 100
255
  0   0   0   0   0   0   0   0   0   0   0   0   0   0   0   1   0   0  79 100  96  95  93  93
 92  93  93  94  94  94  94  94  95  95  93  93  91  90  87  76  71  70  68  65  56  50  52  40
 30  29  24  19  18  18  20  23  29  34  40  47  49  83 125 148 166 176 182 187 195 198 198 207
219 225 218 129  88 100 104 102  77   0   0   2   0   0   0   0   0   0   0   0   0   0   0   0
  0   0   0   0
  0   0   0   0   0   0   0   0   0   0   0   0   0   0   0   0   0   4   0   0   0   0   0   0
  0   0   0   0   0   0   0   0   0   0   0   0   0   0   0   0   0   0   0   0   0   0   0   0
  0   0   0   4   9  15  20  25  32  39  45  53  56  75 125 157 176 190 198 208 213 215 218 219
219 222 214  67   0   0   0   0   0   0   1   0   0   0   0   0   0   0   0   0   0   0   0   0
  0   0   0   0
  0   0   0   0   0   0   0   0   0   0   0   0   0   0   0   0   0   0  19  27  25  25  24  24
 24  24  24  25  25  25  25  25  25  25  24  24  24  23  22  18  17  16  15  14  11   9  10   6
  5   6   7  10  13  17  21  26  31  39  45  52  59  60 104 145 166 179 191 201 204 209 211 214
219 224 215  90   0  37  27  28  19   0   0   0   0   0   0   0   0   0   0   0   0   0   0   0
  0   0   0   0
  0   0   0   0   0   0   0   0   0   0   0   0   0   0   0   0   0   0   0   0   0   0   0   0
  0   0   0   0   0   0   0   0   0   0   0   0   0   0   0   0   0   0   0   0   0   0   0   0
  1   3   6   9  13  17  22  26  33  41  48  55  61  62  88 135 161 177 191 198 205 209 213 216
217 223 214  85   0  21   0   0   0   0   0   0   0   0   0   0   0   0   0   0   0   0   0   0
  0   0   0   0
  0   0   0   0   0   0   0   0   0   0   0   0   0   0   0   0   0   0   0   0   0   0   0   0
  0   0   0   0   0   0   0   0   0   0   0   0   0   0   0   0   0   0   0   0   0   0   0   0
  2   5   7  10  14  19  24  29  37  44  51  56  61  66  73 122 157 176 185 194 204 207 212 214
214 221 214  85   0  23   0   1   0   0   0   0   0   0   0   0   0   0   0   0   0   0   0   0
  0   0   0   0
  0   0   0   0   0   0   0   0   0   0   0   0   0   0   0   0   0   0   0   0   0   0   0   0
  0   0   0   0   0   0   0   0   0   0   0   0   0   0   0   0   0   0   0   0   0   0   0   0
  3   5   8  12  15  20  26  30  38  44  51  56  61  69  71 106 149 170 183 194 201 206 209 213
214 220 213  85   0  23   0   0   0   0   0   0   0   0   0   0   0   0   0   0   0   0   0   0
  0   0   0   0
  0   0   0   0   0   0   0   0   0   0   0   0   0   0   0   0   0   0   0   0   0   0   0   0
  0   0   0   0   0   0   0   0   0   0   0   0   0   0   0   0   0   0   0   0   0   0   0   0
  3   6   8  12  16  20  26  31  37  44  53  59  63  68  73  90 136 163 180 191 198 205 209 212
212 219 212  85   0  23   0   0   0   0   0   0   0   0   0   0   0   0   0   0   0   0   0   0
  0   0   0   0
  0   0   0   0   0   0   0   0   0   0   0   0   0   0   0   0   0   0   0   0   0   0   0   0
  0   0   0   0   0   0   0   0   0   0   0   0   0   0   0   0   0   0   0   0   0   0   0   1
  3   6   9  12  16  21  27  33  38  48  56  60  63  68  73  80 122 158 174 187 197 203 209 212
212 219 213  86   0  23   0   0   0   0   0   0   0   0   0   0   0   0   0   0   0   0   0   0
  0   0   0   0
  0   0   0   0   0   0   0   0   0   0   0   0   0   0   0   0   0   0   0   0   0   0   0   0
  0   0   0   0   0   0   0   0   0   0   0   0   0   0   0   0   0   0   0   0   0   0   0   1
  3   6  10  13  17  22  27  34  41  51  61  66  68  70  76  80 106 148 170 184 195 202 209 213
213 220 213  86   0  23   0   0   0   0   0   0   0   0   0   0   0   0   0   0   0   0   0   0
  0   0   0   0
  0   0   0   0   0   0   0   0   0   0   0   0   0   0   0   0   0   0   0   0   0   0   0   0
  0   0   0   0   0   0   0   0   0   0   0   0   0   0   0   0   0   0   0   0   0   0   0   2
  4   7  10  14  18  23  30  35  43  54  64  70  72  72  78  84  96 136 166 181 193 203 211 212
212 220 213  84   0  23   0   0   0   0   0   0   0   0   0   0   0   0   0   0   0   0   0   0
  0   0   0   0
  0   0   0   0   0   0   0   0   0   0   0   0   0   0   0   0   0   0   0   0   0   0   0   0
  0   0   0   0   0   0   0   0   0   0   0   0   0   0   0   0   0   0   0   0   0   0   0   3
  5   8  11  15  20  25  32  39  46  55  64  69  75  77  83  88  90 122 158 179 193 203 209 211
212 220 213  85   0  23   0   0   0   0   0   0   0   0   0   0   0   0   0   0   0   0   0   0
  0   0   0   0
  0   0   0   0   0   0   0   0   0   0   0   0   0   0   0   0   0   0   0   0   0   0   0   0
  0   0   0   0   0   0   0   0   0   0   0   0   0   0   0   0   0   0   0   0   0   0   1   3
  6   9  13  17  22  27  34  42  48  56  66  72  76  87  92  89  91 112 151 179 192 201 206 210
213 221 214  85   0  23   0   0   0   0   0   0   0   0   0   0   0   0   0   0   0   0   0   0
  0   0   0   0
  0   0   0   0   0   0   0   0   0   0   0   0   0   0   0   0   0   0   0   0   0   0   0   0
  0   0   0   0   0   0   0   0   0   0   0   0   0   0   0   0   0   0   0   0   0   0   2   4
  7  10  14  18  23  30  38  45  52  58  67  74  82  93  91  90  92 107 143 172 188 200 205 210
212 222 214  85   0  23   0   0   0   0   0   0   0   0   0   0   0   0   0   0   0   0   0   0
  0   0   0   0
  0   0   0   0   0   0   0   0   0   0   0   0   0   0   0   0   0   0   0   0   0   0   0   0
  0   0   0   0   0   0   0   0   0   0   0   0   0   0   0   0   0   0   0   0   0   1   3   5
  8  12  16  20  26  33  40  47  55  63  70  78  91  93  89  91  94 104 135 164 184 197 204 210
214 221 212  84   0  23   0   0   0   0   0   0   0   0   0   0   0   0   0   0   0   0   0   0
  0   0   0   0
  0   0   0   0   0   0   0   0   0   0   0   0   0   0   0   0   0   0   0   0   0   0   0   0
  0   0   0   0   0   0   0   0   0   0   0   0   0   0   0   0   0   0   0   0   0   2   4   6
 10  14  19  24  29  37  44  52  60  66  76  85  88  90  93  95  97 101 130 157 180 193 202 210
214 220 213  85   0  23   0   0   0   0   0   0   0   0   0   0   0   0   0   0   0   0   0   0
  0   0   0   0
  0   0   0   0   0   0   0   0   0   0   0   0   0   0   0   0   0   0   0   0   0   0   0   0
  0   0   0   0   0   0   0   0   0   0   0   0   0   0   0   0   0   0   0   0   0   3   5   8
 12  16  21  27  33  41  48  55  63  72  82  86  87  90  94  98 102 106 128 154 174 190 201 209
212 220 214  85   0  23   0   0   0   0   0   0   0   0   0   0   0   0   0   0   0   0   0   0
  0   0   0   0
  0   0   0   0   0   0   0   0   0   0   0   0   0   0   0   0   0   0   0   0   0   0   0   0
  0   0   0   0   0   0   0   0   0   0   0   0   0   0   0   0   0   0   0   0   1   4   7  10
 13  18  24  31  37  44  51  60  70  81  84  88  95  95  95 102 108 110 125 148 165 185 198 208
212 221 213  84   0  23   0   0   0   0   0   0   0   0   0   0   0   0   0   0   0   0   0   0
  0   0   0   0
  0   0   0   0   0   0   0   0   0   0   0   0   0   0   0   0   0   0   0   0   0   0   0   0
  0   0   0   0   0   0   0   0   0   0   0   0   0   0   0   0   0   0   0   0   2   5   8  12
 16  21  27  35  41  48  56  66  77  84  88  95 100  99  99 106 111 112 125 145 160 178 197 206
212 221 212  84   0  23   0   0   0   0   0   0   0   0   0   0   0   0   0   0   0   0   0   0
  0   0   0   0
  0   0   0   0   0   0   0   0   0   0   0   0   0   0   0   0   0   0   0   0   0   0   0   0
  0   0   0   0   0   0   0   0   0   0   0   0   0   0   0   0   0   0   0   0   4   6   9  14
 18  24  30  38  46  54  62  73  80  86  92  97 100 104 108 112 116 120 125 142 160 174 193 205
212 219 212  85   0  23   0   0   0   0   0   0   0   0   0   0   0   0   0   0   0   0   0   0
  0   0   0   0
  0   0   0   0   0   0   0   0   0   0   0   0   0   0   0   0   0   0   0   0   0   0   0   0
  0   0   0   0   0   0   0   0   0   0   0   0   0   0   0   0   0   0   0   1   5   8  11  16
 21  27  35  43  50  60  72  78  83  91  96  99 105 109 111 114 117 124 130 140 160 173 190 203
209 218 212  85   0  23   0   0   0   0   0   0   0   0   0   0   0   0   0   0   0   0   0   0
  0   0   0   0
  0   0   0   0   0   0   0   0   0   0   0   0   0   0   0   0   0   0   0   0   0   0   0   0
  0   0   0   0   0   0   0   0   0   0   0   0   0   0   0   0   0   0   0   3   6   9  13  18
 24  31  38  46  54  67  76  79  87  92  97 103 107 107 109 119 124 132 132 136 161 174 183 198
208 219 210  83   0  22   0   0   0   0   0   0   0   0   0   0   0   0   0   0   0   0   0   0
  0   0   0   0
  0   0   0   0   0   0   0   0   0   0   0   0   0   0   0   0   0   0   0   0   0   0   0   0
  0   0   0   0   0   0   0   0   0   0   0   0   0   0   0   0   0   0   1   5   8  12  16  21
 27  35  42  51  62  72  79  86  93  98 102 107 110 110 117 123 124 129 128 130 152 170 179 194
210 220 210  82   0  22   0   0   0   0   0   0   0   0   0   0   0   0   0   0   0   0   0   0
  0   0   0   0
  0   0   0   0   0   0   0   0   0   0   0   0   0   0   0   0   0   0   0   0   0   0   0   0
  0   0   0   0   0   0   0   0   0   0   0   0   0   0   0   0   0   0   3   6   9  14  19  24
 31  39  48  58  67  74  81  88  94  98 101 104 111 116 121 124 127 127 126 127 143 164 176 188
204 218 211  83   0  22   0   0   0   0   0   0   0   0   0   0   0   0   0   0   0   0   0   0
  0   0   0   0
  0   0   0   0   0   0   0   0   0   0   0   0   0   0   0   0   0   0   0   0   0   0   0   0
  0   0   0   0   0   0   0   0   0   0   0   0   0   0   0   0   0   0   4   8  11  16  22  27
 35  44  54  62  69  76  85  91  97 100 104 110 113 120 128 128 134 132 126 125 139 161 176 185
198 215 210  83   0  22   0   0   0   0   0   0   0   0   0   0   0   0   0   0   0   0   0   0
  0   0   0   0
  0   0   0   0   0   0   0   0   0   0   0   0   0   0   0   0   0   0   0   0   0   0   0   0
  0   0   0   0   0   0   0   0   0   0   0   0   0   0   0   0   0   2   5   9  13  18  24  30
 39  49  58  65  73  81  89  94 101 104 109 117 120 125 131 134 134 129 128 128 137 157 171 181
192 211 206  80   0  21   0   0   0   0   0   0   0   0   0   0   0   0   0   0   0   0   0   0
  0   0   0   0
  0   0   0   0   0   0   0   0   0   0   0   0   0   0   0   0   0   0   0   0   0   0   0   0
  0   0   0   0   0   0   0   0   0   0   0   0   0   0   0   0   0   3   6  10  15  20  27  34
 44  56  63  70  78  85  92 100 103 104 109 117 125 131 134 135 131 129 132 130 132 151 168 179
187 205 203  80   0  21   0   0   0   0   0   0   0   0   0   0   0   0   0   0   0   0   0   0
  0   0   0   0
  0   0   0   0   0   0   0   0   0   0   0   0   0   0   0   0   0   0   0   0   0   0   0   0
  0   0   0   0   0   0   0   0   0   0   0   0   0   0   0   0   1   4   7  12  16  23  30  38
 50  61  69  75  82  91  98 101 101 103 111 117 128 134 131 132 130 127 129 130 131 150 168 176
181 198 200  81   0  21   0   0   0   0   0   0   0   0   0   0   0   0   0   0   0   0   0   0
  0   0   0   0
  0   0   0   0   0   0   0   0   0   0   0   0   0   0   0   0   0   0   0   0   0   0   0   0
  0   0   0   0   0   0   0   0   0   0   0   0   0   0   0   0   2   6  10  14  19  26  35  44
 54  65  75  82  88  96  97  99 102 106 113 125 133 133 131 130 128 128 129 131 133 147 163 173
179 195 197  80   0  21   0   0   0   0   0   0   0   0   0   0   0   0   0   0   0   0   0   0
  0   0   0   0
  0   0   0   0   0   0   0   0   0   0   0   0   0   0   0   0   0   0   0   0   0   0   0   0
  0   0   0   0   0   0   0   0   0   0   0   0   0   0   0   1   4   7  12  17  22  30  39  49
 60  70  77  82  91  97  99 104 108 109 119 133 132 128 126 127 127 130 132 134 135 145 158 171
180 192 193  80   0  20   0   0   0   0   0   0   0   0   0   0   0   0   0   0   0   0   0   0
  0   0   0   0
  0   0   0   0   0   0   0   0   0   0   0   0   0   0   0   0   0   0   0   0   0   0   0   0
  0   0   0   0   0   0   0   0   0   0   0   0   0   0   0   2   5   8  13  19  26  34  44  54
 64  73  80  86  95 100 108 111 112 115 128 131 128 127 127 127 128 134 135 134 133 143 159 172
175 187 188  79   0  20   0   0   0   0   0   0   0   0   0   0   0   0   0   0   0   0   0   0
  0   0   0   0
  0   0   0   0   0   0   0   0   0   0   0   0   0   0   0   0   0   0   0   0   0   0   0   0
  0   0   0   0   0   0   0   0   0   0   0   0   0   0   0   3   6  10  16  22  30  40  48  58
 68  76  85  95 100 102 106 109 114 123 128 123 125 129 129 130 135 137 133 132 133 143 159 167
174 182 182  76   0  19   0   0   0   0   0   0   0   0   0   0   0   0   0   0   0   0   0   0
  0   0   0   0
  0   0   0   0   0   0   0   0   0   0   0   0   0   0   0   0   0   0   0   0   0   0   0   0
  0   0   0   0   0   0   0   0   0   0   0   0   0   0   2   5   8  13  19  25  34  44  52  64
 80  85  91 101 101 105 108 114 124 126 123 122 127 130 130 134 136 132 130 132 136 143 157 166
173 182 180  73   0  18   0   0   0   0   0   0   0   0   0   0   0   0   0   0   0   0   0   0
  0   0   0   0
  0   0   0   0   0   0   0   0   0   0   0   0   0   0   0   0   0   0   0   0   0   0   0   0
  0   0   0   0   0   0   0   0   0   0   0   0   0   0   3   6  10  15  22  29  38  47  57  67
 84  94 100 101 105 110 117 126 128 128 123 124 126 129 133 134 135 129 130 134 137 143 154 162
171 182 179  71   0  18   0   0   0   0   0   0   0   0   0   0   0   0   0   0   0   0   0   0
  0   0   0   0
  0   0   0   0   0   0   0   0   0   0   0   0   0   0   0   0   0   0   0   0   0   0   0   0
  0   0   0   0   0   0   0   0   0   0   0   0   0   1   4   7  12  18  24  33  42  52  61  72
 87  96 102 103 111 116 122 125 126 128 124 124 127 135 135 134 133 128 132 132 136 143 152 164
171 182 178  69   0  17   0   0   0   0   0   0   0   0   0   0   0   0   0   0   0   0   0   0
  0   0   0   0
  0   0   0   0   0   0   0   0   0   0   0   0   0   0   0   0   0   0   0   0   0   0   0   0
  0   0   0   0   0   0   0   0   0   0   0   0   0   2   6   9  15  21  28  38  48  57  67  79
 92 100 106 114 117 117 116 116 119 127 129 125 131 136 136 136 131 129 130 131 139 141 151 167
173 180 176  69   0  17   0   0   0   0   0   0   0   0   0   0   0   0   0   0   0   0   0   0
  0   0   0   0
  0   0   0   0   0   0   0   0   0   0   0   0   0   0   0   0   0   0   0   0   0   0   0   0
  0   0   0   0   0   0   0   0   0   0   0   0   0   4   7  12  18  24  33  43  54  64  75  87
 96 108 112 117 117 116 115 115 122 133 134 129 133 137 138 135 127 128 130 138 140 141 152 167
173 180 174  69   0  17   0   0   0   0   0   0   0   0   0   0   0   0   0   0   0   0   0   0
  0   0   0   0
  0   0   0   0   0   0   0   0   0   0   0   0   0   0   0   0   0   0   0   0   0   0   0   0
  0   0   0   0   0   0   0   0   0   0   0   0   1   5   9  15  22  29  38  49  59  71  86  98
103 112 115 116 119 116 117 123 128 131 135 133 139 139 137 132 128 133 136 138 140 150 161 168
171 176 172  69   0  16   0   0   0   0   0   0   0   0   0   0   0   0   0   0   0   0   0   0
  0   0   0   0
  0   0   0   0   0   0   0   0   0   0   0   0   0   0   0   0   0   0   0   0   0   0   0   0
  0   0   0   0   0   0   0   0   0   0   0   0   3   6  11  18  25  34  44  56  66  77  96 109
109 116 118 120 121 118 125 130 124 133 139 140 143 144 142 135 135 141 141 141 149 153 153 159
165 174 172  67   0  16   0   0   0   0   0   0   0   0   0   0   0   0   0   0   0   0   0   0
  0   0   0   0
  0   0   0   0   0   0   0   0   0   0   0   0   0   0   0   0   0   0   0   0   0   0   0   0
  0   0   0   0   0   0   0   0   0   0   0   1   5   8  13  20  28  37  50  62  72  85  95 111
116 122 123 123 122 124 129 124 128 135 142 146 145 147 143 140 145 146 144 150 150 147 147 155
163 171 167  67   0  16   0   0   0   0   0   0   0   0   0   0   0   0   0   0   0   0   0   0
  0   0   0   0
  0   0   0   0   0   0   0   0   0   0   0   0   0   0   0   0   0   0   0   0   0   0   0   0
  0   0   0   0   0   0   0   0   0   0   0   2   6  10  16  23  31  43  57  67  78  88  98 115
123 125 127 127 129 131 131 129 132 141 149 148 147 145 145 144 144 143 146 147 143 145 149 152
160 168 168  68   0  16   0   0   0   0   0   0   0   0   0   0   0   0   0   0   0   0   0   0
  0   0   0   0
  0   0   0   0   0   0   0   0   0   0   0   0   0   0   0   0   0   0   0   0   0   0   0   0
  0   0   0   0   0   0   0   0   0   0   0   4   8  12  19  28  37  51  63  71  83  93 103 122
137 129 127 127 128 132 138 141 144 151 150 146 145 148 149 146 144 146 150 146 143 144 149 155
160 170 169  68   0  16   0   0   0   0   0   0   0   0   0   0   0   0   0   0   0   0   0   0
  0   0   0   0
  0   0   0   0   0   0   0   0   0   0   0   0   0   0   0   0   0   0   0   0   0   0   0   0
  0   0   0   0   0   0   0   0   0   0   1   5   9  15  22  32  43  55  68  77  90 101 109 128
144 138 130 128 124 130 145 149 160 154 146 147 149 147 145 147 148 149 150 144 144 148 148 154
159 171 170  67   0  16   0   0   0   0   0   0   0   0   0   0   0   0   0   0   0   0   0   0
  0   0   0   0
  0   0   0   0   0   0   0   0   0   0   0   0   0   0   0   0   0   0   0   0   0   0   0   0
  0   0   0   0   0   0   0   0   0   0   2   6  11  18  26  36  48  59  73  85  96 108 114 135
151 151 141 132 133 135 143 153 164 157 149 151 150 150 145 147 150 148 145 143 147 150 144 151
160 169 166  65   0  15   0   0   0   0   0   0   0   0   0   0   0   0   0   0   0   0   0   0
  0   0   0   0
  0   0   0   0   0   0   0   0   0   0   0   0   0   0   0   0   0   0   0   0   0   0   0   0
  0   0   0   0   0   0   0   0   0   0   3   8  12  20  31  40  53  64  77  94 109 118 124 148
170 161 146 140 139 139 143 154 158 156 150 147 146 148 146 146 148 145 142 142 150 148 146 159
170 170 163  66   0  15   0   0   0   0   0   0   0   0   0   0   0   0   0   0   0   0   0   0
  0   0   0   0
  0   0   0   0   0   0   0   0   0   0   0   0   0   0   0   0   0   0   0   0   0   0   0   0
  0   0   0   0   0   0   0   0   0   0   5  10  15  24  34  46  58  68  80  95 110 128 135 156
182 169 150 139 134 139 148 151 153 152 147 143 144 144 151 151 141 142 146 147 148 147 152 166
167 167 163  64   0  15   0   0   0   0   0   0   0   0   0   0   0   0   0   0   0   0   0   0
  0   0   0   0
  0   0   0   0   0   0   0   0   0   0   0   0   0   0   0   0   0   0   0   0   0   0   0   0
  0   0   0   0   0   0   0   0   0   1   6  11  18  27  38  51  62  74  87  96 108 127 130 154
179 165 151 144 143 155 159 159 155 150 153 152 152 152 154 149 143 146 150 147 145 149 155 164
164 166 161  63   0  15   0   0   0   0   0   0   0   0   0   0   0   0   0   0   0   0   0   0
  0   0   0   0
  0   0   0   0   0   0   0   0   0   0   0   0   0   0   0   0   0   0   0   0   0   0   0   0
  0   0   0   0   0   0   0   0   0   2   7  13  20  30  41  53  66  79  91  99 111 123 129 157
171 158 152 147 154 165 167 160 150 149 154 159 156 156 153 151 150 153 152 146 148 154 161 162
163 165 161  64   0  15   0   0   0   0   0   0   0   0   0   0   0   0   0   0   0   0   0   0
  0   0   0   0
  0   0   0   0   0   0   0   0   0   0   0   0   0   0   0   0   0   0   0   0   0   0   0   0
  0   0   0   0   0   0   0   0   0   3   8  15  23  33  44  58  71  85  96 106 116 125 139 163
166 153 153 150 152 158 159 153 153 157 155 155 157 155 153 156 154 154 150 147 152 160 162 161
160 162 163  67   0  15   0   0   0   0   0   0   0   0   0   0   0   0   0   0   0   0   0   0
  0   0   0   0
  0   0   0   0   0   0   0   0   0   0   0   0   0   0   0   0   0   0   0   0   0   0   0   0
  0   0   0   0   0   0   0   0   1   5   9  16  25  36  48  62  77  89 101 114 124 130 148 169
163 158 162 163 156 154 148 140 142 144 150 151 146 150 147 156 156 150 150 147 151 157 165 162
156 161 159  64   0  14   0   0   0   0   0   0   0   0   0   0   0   0   0   0   0   0   0   0
  0   0   0   0
  0   0   0   0   0   0   0   0   0   0   0   0   0   0   0   0   0   0   0   0   0   0   0   0
  0   0   0   0   0   0   0   0   2   6  10  19  27  40  53  65  80  93 106 116 127 134 157 181
167 162 167 169 160 148 140 137 136 138 149 145 143 150 149 154 154 149 146 148 150 158 168 158
148 157 158  63   0  14   0   0   0   0   0   0   0   0   0   0   0   0   0   0   0   0   0   0
  0   0   0   0
  0   0   0   0   0   0   0   0   0   0   0   0   0   0   0   0   0   0   0   0   0   0   0   0
  0   0   0   0   0   0   0   0   3   7  12  20  31  43  57  70  83  96 110 118 127 135 158 190
186 172 173 172 158 141 141 141 139 136 145 145 144 148 152 160 156 150 147 149 154 165 169 155
146 151 154  64   0  14   0   0   0   0   0   0   0   0   0   0   0   0   0   0   0   0   0   0
  0   0   0   0
  0   0   0   0   0   0   0   0   0   0   0   0   0   0   0   0   0   0   0   0   0   0   0   0
  0   0   0   0   0   0   0   0   4   8  14  21  33  46  57  73  88 100 112 119 125 133 159 196
202 177 175 166 152 149 142 138 138 138 142 147 143 147 156 167 158 155 156 160 165 166 168 159
148 154 158  64   0  14   0   0   0   0   0   0   0   0   0   0   0   0   0   0   0   0   0   0
  0   0   0   0
  0   0   0   0   0   0   0   0   0   0   0   0   0   0   0   0   0   0   0   0   0   0   0   0
  0   0   0   0   0   0   0   0   5   9  15  23  35  49  62  77  97 111 118 127 138 153 175 197
206 193 181 161 151 150 144 145 142 137 140 146 147 153 161 165 163 162 163 162 159 165 165 156
151 163 165  65   0  15   0   0   0   0   0   0   0   0   0   0   0   0   0   0   0   0   0   0
  0   0   0   0
  0   0   0   0   0   0   0   0   0   0   0   0   0   0   0   0   0   0   0   0   0   0   0   0
  0   0   0   0   0   0   0   1   6  10  17  25  37  52  66  79  98 120 132 145 156 158 164 189
207 209 199 172 155 141 143 148 140 138 143 148 149 153 158 155 162 164 161 158 162 165 159 162
161 161 160  65   0  15   0   0   0   0   0   0   0   0   0   0   0   0   0   0   0   0   0   0
  0   0   0   0
  0   0   0   0   0   0   0   0   0   0   0   0   0   0   0   0   0   0   0   0   0   0   0   0
  0   0   0   0   0   0   0   2   6  10  18  26  38  53  69  82  95 112 125 137 143 148 153 179
206 213 206 175 147 143 148 151 148 146 150 155 150 148 146 145 152 155 157 161 169 167 167 173
170 166 161  65   0  15   0   0   0   0   0   0   0   0   0   0   0   0   0   0   0   0   0   0
  0   0   0   0
  0   0   0   0   0   0   0   0   0   0   0   0   0   0   0   0   0   0   0   0   0   0   0   0
  0   0   0   0   0   0   0   2   6  11  18  28  41  53  71  85  96 109 119 127 134 141 151 169
194 212 215 195 166 165 168 163 152 149 153 152 149 150 144 146 146 146 155 159 162 166 165 161
161 172 166  64   0  15   0   0   0   0   0   0   0   0   0   0   0   0   0   0   0   0   0   0
  0   0   0   0
  0   0   0   0   0   0   0   0   0   0   0   0   0   0   0   0   0   0   0   0   0   0   0   0
  0   0   0   0   0   0   0   3   7  12  18  29  45  60  76  90 100 112 122 127 135 145 153 166
186 200 213 202 176 169 165 153 146 149 151 149 148 147 146 144 142 149 154 152 152 157 155 154
158 161 150  56   0  12   0   0   0   0   0   0   0   0   0   0   0   0   0   0   0   0   0   0
  0   0   0   0
  0   0   0   0   0   0   0   0   0   0   0   0   0   0   0   0   0   0   0   0   0   0   0   0
  0   0   0   0   0   0   0   4   8  13  19  29  43  63  88 106 113 121 128 135 144 153 154 164
187 186 187 188 177 168 159 154 147 142 145 142 143 141 142 141 142 151 151 150 155 158 157 158
155 151 142  56   0  12   0   0   0   0   0   0   0   0   0   0   0   0   0   0   0   0   0   0
  0   0   0   0
  0   0   0   0   0   0   0   0   0   0   0   0   0   0   0   0   0   0   0   0   0   0   0   0
  0   0   0   0   0   0   1   4   9  13  20  30  42  57  76 102 120 130 136 138 143 150 153 169
183 175 175 183 182 175 168 155 142 149 150 143 141 141 140 142 149 150 148 156 163 160 159 159
155 153 147  59   0  13   0   0   0   0   0   0   0   0   0   0   0   0   0   0   0   0   0   0
  0   0   0   0
  0   0   0   0   0   0   0   0   0   0   0   0   0   0   0   0   0   0   0   0   0   0   0   0
  0   0   0   0   0   0   1   5   8  13  20  29  41  56  68  84 106 121 127 135 143 153 163 179
177 168 165 175 170 165 162 155 155 162 154 144 145 141 138 141 143 145 153 160 159 155 152 153
154 157 152  59   0  13   0   0   0   0   0   0   0   0   0   0   0   0   0   0   0   0   0   0
  0   0   0   0
  0   0   0   0   0   0   0   0   0   0   0   0   0   0   0   0   0   0   0   0   0   0   0   0
  0   0   0   0   0   0   1   5   8  13  20  29  40  55  71  83  96 116 130 138 146 159 174 182
175 170 176 176 164 156 149 151 159 155 151 145 142 137 136 136 138 152 152 153 151 153 152 152
149 154 151  61   0  13   0   0   0   0   0   0   0   0   0   0   0   0   0   0   0   0   0   0
  0   0   0   0
  0   0   0   0   0   0   0   0   0   0   0   0   0   0   0   0   0   0   0   0   0   0   0   0
  0   0   0   0   0   0   1   5   9  13  20  29  39  53  68  84  96 111 129 137 145 158 179 188
182 182 191 183 173 161 160 158 152 145 141 139 134 132 135 140 153 159 152 150 148 152 153 152
158 164 153  58   0  13   0   0   0   0   0   0   0   0   0   0   0   0   0   0   0   0   0   0
  0   0   0   0
  0   0   0   0   0   0   0   0   0   0   0   0   0   0   0   0   0   0   0   0   0   0   0   0
  0   0   0   0   0   0   1   5   9  14  20  28  39  54  65  82  99 107 116 125 136 155 176 182
182 180 183 180 174 168 159 154 147 143 144 143 142 142 144 154 159 150 149 146 146 151 153 153
157 155 141  52   0  11   0   0   0   0   0   0   0   0   0   0   0   0   0   0   0   0   0   0
  0   0   0   0
  0   0   0   0   0   0   0   0   0   0   0   0   0   0   0   0   0   0   0   0   0   0   0   0
  0   0   0   0   0   0   1   5   9  14  20  27  38  54  67  80  94 104 113 124 135 153 168 172
178 175 171 165 159 158 148 140 149 157 153 147 144 149 153 156 150 152 155 153 154 156 156 147
143 146 141  51   0  11   0   0   0   0   0   0   0   0   0   0   0   0   0   0   0   0   0   0
  0   0   0   0
  0   0   0   0   0   0   0   0   0   0   0   0   0   0   0   0   0   0   0   0   0   0   0   0
  0   0   0   0   0   0   1   5   8  13  20  27  37  49  64  77  90 104 111 121 135 147 161 175
183 182 176 165 156 146 152 152 151 151 152 153 152 149 149 154 156 161 169 163 152 149 143 139
142 151 148  54   0  12   0   0   0   0   0   0   0   0   0   0   0   0   0   0   0   0   0   0
  0   0   0   0
  0   0   0   0   0   0   0   0   0   0   0   0   0   0   0   0   0   0   0   0   0   0   0   0
  0   0   0   0   0   0   0   5   8  13  19  25  35  49  62  74  85  98 109 118 136 151 167 185
189 184 171 160 157 156 156 156 151 149 154 155 153 152 157 159 168 171 164 149 142 140 141 145
148 155 150  56   0  12   0   0   0   0   0   0   0   0   0   0   0   0   0   0   0   0   0   0
  0   0   0   0
  0   0   0   0   0   0   0   0   0   0   0   0   0   0   0   0   0   0   0   0   0   0   0   0
  0   0   0   0   0   0   0   4   8  12  18  24  35  49  58  70  80  88 105 119 123 144 180 193
190 181 163 154 147 150 147 143 141 147 154 153 155 158 162 165 170 171 157 146 143 142 141 147
150 152 147  55   0  12   0   0   0   0   0   0   0   0   0   0   0   0   0   0   0   0   0   0
  0   0   0   0
  0   0   0   0   0   0   0   0   0   0   0   0   0   0   0   0   0   0   0   0   0   0   0   0
  0   0   0   0   0   0   0   4   8  11  16  23  34  48  56  68  79  92 106 113 116 139 165 181
192 177 160 152 143 142 143 139 136 147 150 147 149 151 159 165 167 168 160 148 145 147 154 155
151 147 143  56   0  12   0   0   0   0   0   0   0   0   0   0   0   0   0   0   0   0   0   0
  0   0   0   0
  0   0   0   0   0   0   0   0   0   0   0   0   0   0   0   0   0   0   0   0   0   0   0   0
  0   0   0   0   0   0   0   3   7  10  15  22  33  48  59  68  78  91  99 106 119 129 141 159
184 183 165 157 153 142 139 142 146 153 146 147 154 154 160 169 173 165 159 154 155 160 159 156
152 151 147  56   0  12   0   0   0   0   0   0   0   0   0   0   0   0   0   0   0   0   0   0
  0   0   0   0
  0   0   0   0   0   0   0   0   0   0   0   0   0   0   0   0   0   0   0   0   0   0   0   0
  0   0   0   0   0   0   0   2   7   9  14  20  31  43  56  68  76  84  92 103 113 123 136 149
169 188 172 153 146 147 150 148 157 157 150 156 161 159 162 170 164 161 165 160 159 158 155 156
157 156 148  58   0  12   0   0   0   0   0   0   0   0   0   0   0   0   0   0   0   0   0   0
  0   0   0   0
  0   0   0   0   0   0   0   0   0   0   0   0   0   0   0   0   0   0   0   0   0   0   0   0
  0   0   0   0   0   0   0   1   6   8  12  17  27  40  49  60  71  78  86 100 109 122 139 149
154 182 179 152 151 159 158 162 162 161 171 174 162 155 162 167 169 171 169 162 155 154 159 160
154 146 139  54   0  11   0   0   0   0   0   0   0   0   0   0   0   0   0   0   0   0   0   0
  0   0   0   0
  0   0   0   0   0   0   0   0   0   0   0   0   0   0   0   0   0   0   0   0   0   0   0   0
  0   0   0   0   0   0   0   0   6   8  11  15  24  34  44  56  68  79  89  98 104 117 134 146
148 164 186 163 160 168 171 176 172 177 189 184 167 165 169 174 174 171 166 158 160 161 163 160
150 143 138  55   0  11   0   0   0   0   0   0   0   0   0   0   0   0   0   0   0   0   0   0
  0   0   0   0
  0   0   0   0   0   0   0   0   0   0   0   0   0   0   0   0   0   0   0   0   0   0   0   0
  0   0   0   0   0   0   0   0   4   9  10  14  21  30  39  51  64  80  93  97 108 120 137 147
143 144 182 173 166 173 171 171 172 179 185 180 178 180 184 193 181 167 164 168 171 165 162 157
146 143 147  59   0  12   0   0   0   0   0   0   0   0   0   0   0   0   0   0   0   0   0   0
  0   0   0   0
  0   0   0   0   0   0   0   0   0   0   0   0   0   0   0   0   0   0   0   0   0   0   0   0
  0   0   0   0   0   0   0   0   2   9  10  13  19  26  35  45  54  74  96 104 112 124 140 144
137 135 162 179 176 165 164 170 176 184 182 184 190 196 204 202 186 173 180 181 175 173 172 161
149 152 150  56   0  12   0   0   0   0   0   0   0   0   0   0   0   0   0   0   0   0   0   0
  0   0   0   0
  0   0   0   0   0   0   0   0   0   0   0   0   0   0   0   0   0   0   0   0   0   0   0   0
  0   0   0   0   0   0   0   0   0   7  11  12  16  23  31  43  51  64  84 100 110 125 136 133
129 134 151 179 175 168 166 164 178 184 182 192 201 211 209 195 188 188 195 185 181 182 175 161
154 157 147  52   0  11   0   0   0   0   0   0   0   0   0   0   0   0   0   0   0   0   0   0
  0   0   0   0
  0   0   0   0   0   0   0   0   0   0   0   0   0   0   0   0   0   0   0   0   0   0   0   0
  0   0   0   0   0   0   0   0   0   4  12  13  14  20  29  40  50  63  85 105 112 114 124 129
134 149 156 159 164 169 174 178 177 175 189 188 192 192 193 191 182 186 189 184 184 174 168 172
164 159 151  57   0  13   0   0   0   0   0   0   0   0   0   0   0   0   0   0   0   0   0   0
  0   0   0   0
  0   0   0   0   0   0   0   0   0   0   0   0   0   0   0   0   0   0   0   0   0   0   0   0
  0   0   0   0   0   0   0   0   0   1  10  14  15  18  29  41  51  66  90 102  98 105 117 142
157 149 145 151 156 164 170 183 183 186 192 176 177 177 177 171 173 189 189 183 182 176 179 179
167 160 151  56   0  12   0   0   0   0   0   0   0   0   0   0   0   0   0   0   0   0   0   0
  0   0   0   0
  0   0   0   0   0   0   0   0   0   0   0   0   0   0   0   0   0   0   0   0   0   0   0   0
  0   0   0   0   0   0   0   0   0   0   7  14  17  19  28  37  47  60  74  91  99 111 135 147
144 140 143 145 152 168 176 179 179 184 179 167 166 171 170 165 181 192 186 183 184 182 175 164
156 151 140  50   0  10   0   0   0   0   0   0   0   0   0   0   0   0   0   0   0   0   0   0
  0   0   0   0
  0   0   0   0   0   0   0   0   0   0   0   0   0   0   0   0   0   0   0   0   0   0   0   0
  0   0   0   0   0   0   0   0   0   0   4  12  17  23  27  38  49  59  71  85 104 115 123 124
120 132 141 147 156 167 174 164 158 162 153 150 153 163 169 173 188 187 180 184 183 177 169 160
149 147 142  51   0  11   0   0   0   0   0   0   0   0   0   0   0   0   0   0   0   0   0   0
  0   0   0   0
  0   0   0   0   0   0   0   0   0   0   0   0   0   0   0   0   0   0   0   0   0   0   0   0
  0   0   0   0   0   0   0   0   0   0   1   8  14  23  30  36  44  52  61  72  87  96  99 111
118 122 131 146 149 150 157 152 159 159 147 148 154 160 165 175 185 189 189 187 178 175 169 154
146 146 142  52   0  11   0   0   0   0   0   0   0   0   0   0   0   0   0   0   0   0   0   0
  0   0   0   0
  0   0   0   0   0   0   0   0   0   0   0   0   0   0   0   0   0   0   0   0   0   0   0   0
  0   0   0   0   0   0   0   0   0   0   0   4  11  18  27  29  34  43  50  59  67  74  90 104
116 129 135 136 138 145 152 160 165 163 159 156 158 162 174 182 184 195 202 192 182 176 164 158
152 144 138  57   0  12   0   0   0   0   0   0   0   0   0   0   0   0   0   0   0   0   0   0
  0   0   0   0
  0   0   0   0   0   0   0   0   0   0   0   0   0   0   0   0   0   0   0   0   0   0   0   0
  0   0   0   0   0   0   0   0   0   0   0   1   7  14  20  22  28  37  44  53  65  75  91 108
115 128 137 135 141 156 160 163 162 161 162 164 166 169 174 180 190 190 185 179 176 168 162 157
146 142 144  59   0  12   0   0   0   0   0   0   0   0   0   0   0   0   0   0   0   0   0   0
  0   0   0   0
  0   0   0   0   0   0   0   0   0   0   0   0   0   0   0   0   0   0   0   0   0   0   0   0
  0   0   0   0   0   0   0   0   0   0   0   0   3   9  13  18  21  28  37  50  67  83  90  97
107 127 137 137 146 155 154 150 150 159 165 170 172 167 164 172 173 173 168 165 166 156 151 146
138 143 150  61   0  13   0   0   0   0   0   0   0   0   0   0   0   0   0   0   0   0   0   0
  0   0   0   0
  0   0   0   0   0   0   0   0   0   0   0   0   0   0   0   0   0   0   0   0   0   0   0   0
  0   0   0   0   0   0   0   1   0   0   0   0   0   5  10  14  19  22  32  41  54  66  78  84
 97 118 122 128 133 141 149 148 147 158 162 160 158 161 164 161 162 173 164 156 150 140 137 138
135 149 155  61   0  14   0   0   0   0   0   0   0   0   0   0   0   0   0   0   0   0   0   0
  0   0   0   0
  0   0   0   0   0   0   0   0   0   0   0   0   0   0   0   0   0   0   0   0   0   0   0   0
  0   0   0   0   0   0   0   1   0   0   1   1   0   2   9  11  16  19  25  31  39  48  64  86
 98 111 122 125 124 140 152 145 148 155 156 154 155 161 156 153 165 169 153 142 131 131 133 132
141 155 146  53   0  11   0   0   0   0   0   0   0   0   0   0   0   0   0   0   0   0   0   0
  0   0   0   0
  0   0   0   0   0   0   0   0   0   0   0   0   0   0   0   0   0   0   0   0   0   0   0   0
  0   1   1   0   0   0   1   1   1   1   1   1   1   0   5  10  12  16  20  26  35  45  53  70
 86  92 103 109 117 132 139 139 141 146 147 150 160 154 148 145 162 155 137 130 125 128 130 134
139 137 127  48   0   9   0   0   0   0   0   0   0   0   0   0   0   0   0   0   0   0   0   0
  0   0   0   0
  0   0   0   0   0   0   0   0   0   0   0   0   0   0   0   0   0   0   0   0   0   0   0   0
  0   1   1   0   0   0   1   1   1   1   1   1   1   0   2   8  10  14  17  22  29  36  42  51
 70  79  88  98 106 115 119 124 130 137 134 142 153 144 138 151 163 139 133 126 125 127 131 132
126 126 122  51   0   9   0   0   0   0   0   0   0   0   0   0   0   0   0   0   0   0   0   0
  0   0   0   0
  0   0   0   0   0   0   0   0   0   0   0   0   0   0   0   0   0   0   0   0   0   0   0   0
  0   1   1   1   1   1   1   1   1   1   1   1   1   1   0   5  10  11  15  19  24  30  37  46
 61  72  78  87  97 108 113 116 113 117 120 132 144 135 143 160 151 132 124 116 117 124 125 121
117 116 119  54   0   9   0   0   0   0   0   0   0   0   0   0   0   0   0   0   0   0   0   0
  0   0   0   0
  0   0   0   0   0   0   0   0   0   0   0   0   0   0   0   0   0   0   0   0   0   0   0   0
  0   1   1   1   1   1   1   1   1   1   1   1   1   1   1   1   8  11  12  15  20  27  32  39
 51  64  68  75  82  94 101 106 106 113 117 129 136 144 157 149 132 124 115 111 115 120 114 114
113 117 121  55   0  10   0   0   0   0   0   0   0   0   0   0   0   0   0   0   0   0   0   0
  0   0   0   0
  0   0   0   0   0   0   0   0   0   0   0   0   0   0   0   0   0   0   0   0   0   0   0   0
  0   1   1   1   1   1   1   1   1   1   1   1   1   1   1   1   3   9  11  13  17  22  27  33
 43  54  60  69  73  85  99 104 113 116 118 135 144 139 136 122 116 113 108 110 111 108 111 112
109 114 120  53   0   9   0   0   0   0   0   0   0   0   0   0   0   0   0   0   0   0   0   0
  0   0   0   0
  0   0   0   0   0   0   0   0   0   0   0   0   0   0   0   0   0   0   0   0   0   0   0   0
  0   1   2   1   1   1   1   2   1   2   2   1   1   1   1   1   1   5  10  11  14  18  22  27
 39  46  51  62  69  85  92  92  98 102 118 136 129 110 110 102 100 102 100 103 104 104 109 108
106 112 109  44   0   7   0   0   0   0   0   0   0   0   0   0   0   0   0   0   0   0   0   0
  0   0   0   0
  0   0   0   0   0   0   0   0   0   0   0   0   0   0   0   0   0   0   0   0   0   0   0   0
  0   2   2   1   2   2   2   2   2   2   2   2   2   1   2   2   1   2   7  10  12  14  19  22
 29  37  42  49  58  66  65  72  79  88 107 116  97 100 102  94  95  93  93  96  96  99 105 106
104 105 111  51   0   8   0   0   0   0   0   0   0   0   0   0   0   0   0   0   0   0   0   0
  0   0   0   0
  0   0   0   0   0   0   0   0   0   0   0   0   0   0   0   0   0   0   0   0   0   0   0   0
  0   2   2   2   2   2   2   2   2   2   2   2   2   2   2   2   2   1   3   8  10  12  15  18
 21  28  34  37  44  50  55  61  68  84  97  88  90 100  93  87  86  86  88  91  89  95 106 103
 95 102 110  47   0   8   0   0   0   0   0   0   0   0   0   0   0   0   0   0   0   0   0   0
  0   0   0   0
  0   0   0   0   0   0   0   0   0   0   0   0   0   0   0   0   0   0   0   0   0   0   0   0
  0   2   2   2   2   2   2   3   2   2   2   2   2   2   2   2   2   2   2   4   8  10  12  14
 18  23  27  30  37  45  47  51  57  74  80  71  84  89  79  76  79  81  83  85  87  92  95  95
 90  97  97  39   0   6   0   0   0   0   0   0   0   0   0   0   0   0   0   0   0   0   0   0
  0   0   0   0
  0   0   0   0   0   0   0   0   0   0   0   0   0   0   0   0   0   0   0   0   0   0   0   0
  0   2   3   2   2   2   3   3   3   2   3   3   3   2   2   2   2   2   2   2   5   9  10  12
 14  18  21  24  29  35  38  40  48  55  57  64  67  64  68  70  73  76  74  77  75  78  87  89
 86  93  96  41   0   6   0   0   0   0   0   0   0   0   0   0   0   0   0   0   0   0   0   0
  0   0   0   0
  0   0   0   0   0   0   0   0   0   0   0   0   0   0   0   0   0   0   0   0   0   0   0   0
  0   3   3   3   3   3   3   3   3   3   3   3   3   3   3   3   3   3   3   2   3   6   9  10
 11  14  16  19  22  26  32  37  41  42  46  49  50  52  56  61  64  67  66  69  70  78  86  82
 80  89  92  39   0   5   0   0   0   0   0   0   0   0   0   0   0   0   0   0   0   0   0   0
  0   0   0   0
  0   0   0   0   0   0   0   0   0   0   0   0   0   0   0   0   0   0   0   0   0   0   0   0
  0   3   3   3   3   3   3   3   3   3   3   3   3   3   3   3   3   3   3   3   3   3   5   8
  9  11  13  15  18  20  25  31  30  32  35  36  40  39  42  45  50  58  57  60  60  64  70  70
 75  79  77  33   0   4   0   0   0   0   0   0   0   0   0   0   0   0   0   0   0   0   0   0
  0   0   0   0
  0   0   0   0   0   0   0   0   0   0   0   0   0   0   0   0   0   0   0   0   0   0   0   0
  0   3   4   3   4   3   4   4   3   3   4   4   3   3   3   3   3   3   3   3   3   3   3   5
  8   9  10  12  14  18  20  21  23  25  27  30  34  34  36  39  40  47  47  47  49  51  57  63
 68  73  78  37   0   4   0   0   0   0   0   0   0   0   0   0   0   0   0   0   0   0   0   0
  0   0   0   0
  0   0   0   0   0   0   0   0   0   0   0   0   0   0   0   0   0   0   0   0   0   0   0   0
  0   3   4   4   4   4   4   4   4   4   4   4   4   3   4   4   3   3   4   3   3   3   3   3
  4   7   9  10  11  12  15  17  19  20  21  23  25  27  29  31  34  36  35  37  39  42  47  51
 57  64  72  36   0   4   0   0   0   0   0   0   0   0   0   0   0   0   0   0   0   0   0   0
  0   0   0   0
  0   0   0   0   0   0   0   0   0   0   0   0   0   0   0   0   0   0   0   0   0   0   0   0
  0   4   5   4   4   4   4   4   4   4   4   4   4   4   4   4   4   4   4   4   4   4   4   3
  3   4   6   8   9  10  11  12  13  15  16  17  19  20  22  23  25  26  27  27  29  33  35  39
 46  55  63  32   0   3   0   0   0   0   0   0   0   0   0   0   0   0   0   0   0   0   0   0
  0   0   0   0
