P2
# 8-bit pgm gray
100 100
255
  0   0   0   0   0   0   0   0   0   0   0   0   0   0   0   0   0   0   0   0   0   0   0   0
  0   0   0   2  25   0 170 239 233 236 233 232 234 233 229 227 225 224 220 216 216 215 215 214
212 210 206 205 203 196 185 175 161 142 124  98  77  65  48  33  20  13   9   6   3   1   0   0
  0   0   0   0   0   0   0   0   0   0   0   0   0   0   0   0   0   0   0   0   0   0   0   0
  0   0   0   0
  0   0   0   0   0   0   0   0   0   0   0   0   0   0   0   0   0   0   0   0   0   0   0   0
  0   0   0   2  24   0 167 236 231 234 232 232 233 232 227 225 223 220 216 215 215 213 211 210
210 208 204 203 201 193 181 169 151 124 111  94  76  62  47  32  18  13   9   5   2   1   0   0
  0   0   0   0   0   0   0   0   0   0   0   0   0   0   0   0   0   0   0   0   0   0   0   0
  0   0   0   0
  0   0   0   0   0   0   0   0   0   0   0   0   0   0   0   0   0   0   0   0   0   0   0   0
  0   0   0   2  24   0 167 235 228 230 232 232 233 230 225 223 219 215 215 216 214 212 210 210
209 206 202 200 197 187 174 160 140 117 102  86  75  58  43  27  18  12   8   4   2   1   0   0
  0   0   0   0   0   0   0   0   0   0   0   0   0   0   0   0   0   0   0   0   0   0   0   0
  0   0   0   0
  0   0   0   0   0   0   0   0   0   0   0   0   0   0   0   0   0   0   0   0   0   0   0   0
  0   0   0   2  25   0 168 237 229 229 230 232 230 225 222 219 214 214 215 215 213 211 210 209
207 204 201 197 191 181 167 147 127 108  93  79  75  58  37  24  18  11   7   3   1   1   0   0
  0   0   0   0   0   0   0   0   0   0   0   0   0   0   0   0   0   0   0   0   0   0   0   0
  0   0   0   0
  0   0   0   0   0   0   0   0   0   0   0   0   0   0   0   0   0   0   0   0   0   0   0   0
  0   0   0   2  25   0 170 239 231 230 230 229 225 221 219 214 212 213 213 213 212 210 209 207
205 202 199 194 185 174 160 138 113 103  90  77  68  55  35  23  16  10   7   2   1   1   0   0
  0   0   0   0   0   0   0   0   0   0   0   0   0   0   0   0   0   0   0   0   0   0   0   0
  0   0   0   0
  0   0   0   0   0   0   0   0   0   0   0   0   0   0   0   0   0   0   0   0   0   0   0   0
  0   0   0   2  25   0 171 240 231 231 230 226 220 217 214 211 213 212 213 213 211 209 207 206
204 201 197 191 182 168 149 124 108 100  84  72  61  44  31  21  14  10   5   1   1   1   0   0
  0   0   0   0   0   0   0   0   0   0   0   0   0   0   0   0   0   0   0   0   0   0   0   0
  0   0   0   0
  0   0   0   0   0   0   0   0   0   0   0   0   0   0   0   0   0   0   0   0   0   0   0   0
  0   0   0   3  25   0 171 240 232 232 231 223 217 214 211 214 215 212 211 212 210 207 206 206
202 199 193 184 174 159 135 110 108  98  79  65  53  39  26  19  13   8   4   1   1   1   0   0
  0   0   0   0   0   0   0   0   0   0   0   0   0   0   0   0   0   0   0   0   0   0   0   0
  0   0   0   0
  0   0   0   0   0   0   0   0   0   0   0   0   0   0   0   0   0   0   0   0   0   0   0   0
  0   0   0   2  25   0 171 242 233 233 228 219 215 211 212 214 213 211 210 210 209 205 204 204
199 197 190 179 168 149 120 106 105 100  78  63  49  35  24  16  10   7   3   0   1   0   0   0
  0   0   0   0   0   0   0   0   0   0   0   0   0   0   0   0   0   0   0   0   0   0   0   0
  0   0   0   0
  0   0   0   0   0   0   0   0   0   0   0   0   0   0   0   0   0   0   0   0   0   0   0   0
  0   0   0   2  25   0 172 242 233 231 223 217 210 210 213 211 210 210 211 210 207 203 202 201
198 193 186 175 158 134 112 106 101  96  75  57  41  29  22  14   9   6   1   0   0   0   0   0
  0   0   0   0   0   0   0   0   0   0   0   0   0   0   0   0   0   0   0   0   0   0   0   0
  0   0   0   0
  0   0   0   0   0   0   0   0   0   0   0   0   0   0   0   0   0   0   0   0   0   0   0   0
  0   0   0   3  25   0 172 240 231 229 221 215 209 210 212 211 210 211 211 207 205 201 199 197
195 191 180 164 146 124 113 102  90  83  72  50  37  29  19  12   8   4   0   0   0   0   0   0
  0   0   0   0   0   0   0   0   0   0   0   0   0   0   0   0   0   0   0   0   0   0   0   0
  0   0   0   0
  0   0   0   0   0   0   0   0   0   0   0   0   0   0   0   0   0   0   0   0   0   0   0   0
  0   0   0   2  24   0 169 236 226 222 217 214 212 211 209 209 209 209 207 203 202 200 197 192
187 180 169 155 133 116 106  94  83  73  63  43  32  24  15  10   7   1   0   0   0   0   0   0
  0   0   0   0   0   0   0   0   0   0   0   0   0   0   0   0   0   0   0   0   0   0   0   0
  0   0   0   0
  0   0   0   0   0   0   0   0   0   0   0   0   0   0   0   0   0   0   0   0   0   0   0   0
  0   0   0   2  23   0 164 229 219 216 214 212 211 212 208 207 208 206 205 202 201 198 194 190
183 173 160 143 121 109 100  87  74  68  53  35  27  19  13   8   5   0   0   0   0   0   0   0
  0   0   0   0   0   0   0   0   0   0   0   0   0   0   0   0   0   0   0   0   0   0   0   0
  0   0   0   0
  0   0   0   0   0   0   0   0   0   0   0   0   0   0   0   0   0   0   0   0   0   0   0   0
  0   0   0   2  22   0 161 225 215 212 209 209 210 212 212 208 207 205 203 201 198 193 190 187
179 168 153 129 110 103  94  80  72  62  40  30  23  16  11   8   3   0   0   0   0   0   0   0
  0   0   0   0   0   0   0   0   0   0   0   0   0   0   0   0   0   0   0   0   0   0   0   0
  0   0   0   0
  0   0   0   0   0   0   0   0   0   0   0   0   0   0   0   0   0   0   0   0   0   0   0   0
  0   0   0   2  23   0 161 225 212 211 210 210 211 209 208 208 206 203 200 198 193 189 186 180
172 158 137 120 109  97  88  77  69  51  34  26  20  14  10   7   2   0   0   0   0   0   0   0
  0   0   0   0   0   0   0   0   0   0   0   0   0   0   0   0   0   0   0   0   0   0   0   0
  0   0   0   0
  0   0   0   0   0   0   0   0   0   0   0   0   0   0   0   0   0   0   0   0   0   0   0   0
  0   0   0   2  22   0 160 223 210 211 212 211 210 209 206 203 202 200 198 195 192 186 182 175
163 148 122 113 105  91  80  74  60  41  30  24  18  13   9   6   2   0   0   0   0   0   0   0
  0   0   0   0   0   0   0   0   0   0   0   0   0   0   0   0   0   0   0   0   0   0   0   0
  0   0   0   0
  0   0   0   0   0   0   0   0   0   0   0   0   0   0   0   0   0   0   0   0   0   0   0   0
  0   0   0   2  21   0 157 220 209 210 210 207 206 205 204 203 201 199 194 193 189 181 177 170
154 136 115 105  95  86  75  65  57  41  28  23  17  12   8   5   1   0   0   0   0   0   0   0
  0   0   0   0   0   0   0   0   0   0   0   0   0   0   0   0   0   0   0   0   0   0   0   0
  0   0   0   0
  0   0   0   0   0   0   0   0   0   0   0   0   0   0   0   0   0   0   0   0   0   0   0   0
  0   0   0   2  21   0 155 220 211 209 206 204 205 203 202 202 199 196 193 191 187 177 174 164
141 124 111  98  89  84  68  53  52  42  30  22  17  12   8   4   0   0   0   0   0   0   0   0
  0   0   0   0   0   0   0   0   0   0   0   0   0   0   0   0   0   0   0   0   0   0   0   0
  0   0   0   0
  0   0   0   0   0   0   0   0   0   0   0   0   0   0   0   0   0   0   0   0   0   0   0   0
  0   0   0   2  22   0 155 221 213 209 205 205 203 201 200 198 196 194 191 186 182 177 171 156
131 120 110  97  89  77  63  52  46  42  31  22  16  11   8   4   0   0   0   0   0   0   0   0
  0   0   0   0   0   0   0   0   0   0   0   0   0   0   0   0   0   0   0   0   0   0   0   0
  0   0   0   0
  0   0   0   0   0   0   0   0   0   0   0   0   0   0   0   0   0   0   0   0   0   0   0   0
  0   0   0   2  22   0 156 220 210 207 204 204 201 199 198 195 196 193 187 179 177 175 165 143
127 121 107  96  84  74  61  51  46  38  32  21  16  11   7   3   0   0   0   0   0   0   0   0
  0   0   0   0   0   0   0   0   0   0   0   0   0   0   0   0   0   0   0   0   0   0   0   0
  0   0   0   0
  0   0   0   0   0   0   0   0   0   0   0   0   0   0   0   0   0   0   0   0   0   0   0   0
  0   0   0   2  22   0 156 219 208 206 203 200 199 198 195 195 193 188 183 179 175 168 156 137
128 128 112  94  83  73  64  57  47  37  33  22  16  11   7   3   0   0   0   0   0   0   0   0
  0   0   0   0   0   0   0   0   0   0   0   0   0   0   0   0   0   0   0   0   0   0   0   0
  0   0   0   0
  0   0   0   0   0   0   0   0   0   0   0   0   0   0   0   0   0   0   0   0   0   0   0   0
  0   0   0   2  20   0 152 214 207 204 200 199 197 194 194 193 189 183 179 177 170 159 151 144
131 125 112  95  84  78  69  60  50  42  33  22  16  11   7   3   0   0   0   0   0   0   0   0
  0   0   0   0   0   0   0   0   0   0   0   0   0   0   0   0   0   0   0   0   0   0   0   0
  0   0   0   0
  0   0   0   0   0   0   0   0   0   0   0   0   0   0   0   0   0   0   0   0   0   0   0   0
  0   0   0   2  20   0 150 214 205 200 200 200 196 193 193 189 184 181 179 176 168 157 153 147
129 116 107 103  91  83  72  61  56  48  32  23  16  11   7   2   0   0   0   0   0   0   0   0
  0   0   0   0   0   0   0   0   0   0   0   0   0   0   0   0   0   0   0   0   0   0   0   0
  0   0   0   0
  0   0   0   0   0   0   0   0   0   0   0   0   0   0   0   0   0   0   0   0   0   0   0   0
  0   0   0   2  20   0 151 211 202 199 197 198 194 193 190 184 180 179 175 173 171 166 165 152
128 115 109 101  95  86  75  65  64  47  32  24  17  11   6   2   0   0   0   0   0   0   0   0
  0   0   0   0   0   0   0   0   0   0   0   0   0   0   0   0   0   0   0   0   0   0   0   0
  0   0   0   0
  0   0   0   0   0   0   0   0   0   0   0   0   0   0   0   0   0   0   0   0   0   0   0   0
  0   0   0   2  19   0 148 208 199 196 193 196 194 192 188 182 179 178 166 161 164 163 164 152
128 118 113 106  99  91  77  70  65  48  35  25  18  11   7   2   0   0   0   0   0   0   0   0
  0   0   0   0   0   0   0   0   0   0   0   0   0   0   0   0   0   0   0   0   0   0   0   0
  0   0   0   0
  0   0   0   0   0   0   0   0   0   0   0   0   0   0   0   0   0   0   0   0   0   0   0   0
  0   0   0   2  20   0 148 207 197 195 193 196 193 191 186 182 181 175 161 151 151 152 156 148
129 121 118 113 104  92  80  71  63  51  37  28  19  12   7   2   0   0   0   0   0   0   0   0
  0   0   0   0   0   0   0   0   0   0   0   0   0   0   0   0   0   0   0   0   0   0   0   0
  0   0   0   0
  0   0   0   0   0   0   0   0   0   0   0   0   0   0   0   0   0   0   0   0   0   0   0   0
  0   0   0   2  19   0 147 203 193 193 194 196 192 185 181 179 177 169 155 144 147 147 151 149
139 132 130 123 113 101  89  76  67  55  39  30  19  12   7   2   0   0   0   0   0   0   0   0
  0   0   0   0   0   0   0   0   0   0   0   0   0   0   0   0   0   0   0   0   0   0   0   0
  0   0   0   0
  0   0   0   0   0   0   0   0   0   0   0   0   0   0   0   0   0   0   0   0   0   0   0   0
  0   0   0   2  18   0 146 201 191 189 193 194 191 184 179 178 175 162 151 148 149 147 149 153
147 135 134 125 115 104  96  82  67  57  41  28  19  12   7   3   0   0   0   0   0   0   0   0
  0   0   0   0   0   0   0   0   0   0   0   0   0   0   0   0   0   0   0   0   0   0   0   0
  0   0   0   0
  0   0   0   0   0   0   0   0   0   0   0   0   0   0   0   0   0   0   0   0   0   0   0   0
  0   0   0   2  19   0 145 204 191 189 194 190 188 184 180 172 163 154 150 152 148 143 147 154
142 136 132 123 116 107 101  86  67  59  42  27  20  12   7   2   0   0   0   0   0   0   0   0
  0   0   0   0   0   0   0   0   0   0   0   0   0   0   0   0   0   0   0   0   0   0   0   0
  0   0   0   0
  0   0   0   0   0   0   0   0   0   0   0   0   0   0   0   0   0   0   0   0   0   0   0   0
  0   0   0   2  19   0 148 204 194 195 191 188 185 179 171 163 153 148 150 150 146 141 145 147
143 142 134 125 119 112 106  90  74  60  42  29  21  13   7   3   0   0   0   0   0   0   0   0
  0   0   0   0   0   0   0   0   0   0   0   0   0   0   0   0   0   0   0   0   0   0   0   0
  0   0   0   0
  0   0   0   0   0   0   0   0   0   0   0   0   0   0   0   0   0   0   0   0   0   0   0   0
  0   0   0   2  19   0 146 203 193 191 188 186 180 178 169 157 147 145 151 152 149 147 148 146
142 142 137 132 127 117 104  94  80  59  43  31  21  14   8   4   0   0   0   0   0   0   0   0
  0   0   0   0   0   0   0   0   0   0   0   0   0   0   0   0   0   0   0   0   0   0   0   0
  0   0   0   0
  0   0   0   0   0   0   0   0   0   0   0   0   0   0   0   0   0   0   0   0   0   0   0   0
  0   0   0   2  19   0 142 200 189 187 185 183 179 176 165 152 144 145 148 152 153 150 149 144
142 141 138 134 130 122 108  96  80  63  47  33  23  15   9   4   0   0   0   0   0   0   0   0
  0   0   0   0   0   0   0   0   0   0   0   0   0   0   0   0   0   0   0   0   0   0   0   0
  0   0   0   0
  0   0   0   0   0   0   0   0   0   0   0   0   0   0   0   0   0   0   0   0   0   0   0   0
  0   0   0   2  19   0 147 202 189 188 184 180 177 173 161 148 145 150 154 152 154 149 146 142
142 147 143 134 131 126 116 103  85  71  51  37  25  15   9   5   0   0   0   0   0   0   0   0
  0   0   0   0   0   0   0   0   0   0   0   0   0   0   0   0   0   0   0   0   0   0   0   0
  0   0   0   0
  0   0   0   0   0   0   0   0   0   0   0   0   0   0   0   0   0   0   0   0   0   0   0   0
  0   0   0   2  19   0 144 201 191 188 183 181 176 165 153 143 144 149 157 155 152 149 145 143
141 146 147 138 142 137 121 111  93  74  57  41  26  14   9   4   0   0   0   0   0   0   0   0
  0   0   0   0   0   0   0   0   0   0   0   0   0   0   0   0   0   0   0   0   0   0   0   0
  0   0   0   0
  0   0   0   0   0   0   0   0   0   0   0   0   0   0   0   0   0   0   0   0   0   0   0   0
  0   0   0   2  18   0 143 196 187 187 179 177 176 166 153 145 146 148 151 150 148 145 144 147
145 149 148 142 143 132 118 110  99  79  61  43  26  16   9   5   1   0   0   0   0   0   0   0
  0   0   0   0   0   0   0   0   0   0   0   0   0   0   0   0   0   0   0   0   0   0   0   0
  0   0   0   0
  0   0   0   0   0   0   0   0   0   0   0   0   0   0   0   0   0   0   0   0   0   0   0   0
  0   0   0   2  17   0 141 194 184 185 180 174 173 166 155 155 148 148 149 145 151 151 144 148
148 150 155 151 139 129 124 112  97  83  62  43  28  19  10   5   1   0   0   0   0   0   0   0
  0   0   0   0   0   0   0   0   0   0   0   0   0   0   0   0   0   0   0   0   0   0   0   0
  0   0   0   0
  0   0   0   0   0   0   0   0   0   0   0   0   0   0   0   0   0   0   0   0   0   0   0   0
  0   0   0   2  18   0 143 197 186 184 184 182 172 163 151 154 155 155 154 147 151 155 144 148
153 153 162 152 138 132 127 120 107  93  70  47  33  19  11   5   1   0   0   0   0   0   0   0
  0   0   0   0   0   0   0   0   0   0   0   0   0   0   0   0   0   0   0   0   0   0   0   0
  0   0   0   0
  0   0   0   0   0   0   0   0   0   0   0   0   0   0   0   0   0   0   0   0   0   0   0   0
  0   0   0   2  19   0 145 202 188 186 181 178 170 160 154 153 149 153 163 164 161 168 161 156
159 163 168 152 140 134 128 120 118 106  74  51  33  19  11   5   1   0   0   0   0   0   0   0
  0   0   0   0   0   0   0   0   0   0   0   0   0   0   0   0   0   0   0   0   0   0   0   0
  0   0   0   0
  0   0   0   0   0   0   0   0   0   0   0   0   0   0   0   0   0   0   0   0   0   0   0   0
  0   0   0   2  18   0 138 196 185 184 180 165 159 152 154 158 154 147 155 169 179 182 183 179
174 177 179 164 143 133 125 121 116 103  82  55  33  21  12   6   2   0   0   0   0   0   0   0
  0   0   0   0   0   0   0   0   0   0   0   0   0   0   0   0   0   0   0   0   0   0   0   0
  0   0   0   0
  0   0   0   0   0   0   0   0   0   0   0   0   0   0   0   0   0   0   0   0   0   0   0   0
  0   0   0   2  16   0 135 192 186 177 171 158 159 156 152 154 161 160 156 164 185 190 188 194
198 199 194 179 156 147 137 122 111  99  89  68  43  25  14   7   2   0   0   0   0   0   0   0
  0   0   0   0   0   0   0   0   0   0   0   0   0   0   0   0   0   0   0   0   0   0   0   0
  0   0   0   0
  0   0   0   0   0   0   0   0   0   0   0   0   0   0   0   0   0   0   0   0   0   0   0   0
  0   0   0   2  17   0 137 193 185 178 165 156 154 155 155 152 158 165 160 169 182 192 191 200
209 211 207 198 175 151 139 119 115 110  94  71  55  36  18   8   3   0   0   0   0   0   0   0
  0   0   0   0   0   0   0   0   0   0   0   0   0   0   0   0   0   0   0   0   0   0   0   0
  0   0   0   0
  0   0   0   0   0   0   0   0   0   0   0   0   0   0   0   0   0   0   0   0   0   0   0   0
  0   0   0   2  17   0 138 190 181 177 163 158 156 154 159 159 157 162 169 179 182 187 193 200
213 214 209 205 177 143 133 120 114 109  97  82  62  40  22  11   4   0   0   0   0   0   0   0
  0   0   0   0   0   0   0   0   0   0   0   0   0   0   0   0   0   0   0   0   0   0   0   0
  0   0   0   0
  0   0   0   0   0   0   0   0   0   0   0   0   0   0   0   0   0   0   0   0   0   0   0   0
  0   0   0   2  16   0 134 188 181 169 156 157 156 155 154 159 161 161 169 186 190 194 201 204
215 217 208 197 161 138 130 118 112 107 103  93  73  43  28  16   5   0   0   0   0   0   0   0
  0   0   0   0   0   0   0   0   0   0   0   0   0   0   0   0   0   0   0   0   0   0   0   0
  0   0   0   0
  0   0   0   0   0   0   0   0   0   0   0   0   0   0   0   0   0   0   0   0   0   0   0   0
  0   0   0   2  16   0 130 184 178 166 154 156 160 156 152 158 164 154 159 181 196 204 208 213
221 220 212 200 161 139 131 121 113 107 100  87  77  59  31  17   7   1   0   0   0   0   0   0
  0   0   0   0   0   0   0   0   0   0   0   0   0   0   0   0   0   0   0   0   0   0   0   0
  0   0   0   0
  0   0   0   0   0   0   0   0   0   0   0   0   0   0   0   0   0   0   0   0   0   0   0   0
  0   0   0   2  16   0 130 180 165 159 157 159 162 157 154 160 164 151 154 169 191 200 208 218
220 215 210 202 165 143 139 127 118 109 102  90  72  61  44  17   9   2   0   0   0   0   0   0
  0   0   0   0   0   0   0   0   0   0   0   0   0   0   0   0   0   0   0   0   0   0   0   0
  0   0   0   0
  0   0   0   0   0   0   0   0   0   0   0   0   0   0   0   0   0   0   0   0   0   0   0   0
  0   0   0   1  15   0 127 177 157 151 154 159 159 153 155 157 157 155 153 166 188 201 207 218
216 208 205 194 166 144 138 128 123 111 103  93  78  59  48  25   9   5   0   0   0   0   0   0
  0   0   0   0   0   0   0   0   0   0   0   0   0   0   0   0   0   0   0   0   0   0   0   0
  0   0   0   0
  0   0   0   0   0   0   0   0   0   0   0   0   0   0   0   0   0   0   0   0   0   0   0   0
  0   0   0   1  15   0 127 176 155 150 151 155 159 153 156 165 163 163 164 174 195 208 209 213
211 201 193 183 162 146 135 126 120 107  98  88  74  58  45  28  11   6   0   0   0   0   0   0
  0   0   0   0   0   0   0   0   0   0   0   0   0   0   0   0   0   0   0   0   0   0   0   0
  0   0   0   0
  0   0   0   0   0   0   0   0   0   0   0   0   0   0   0   0   0   0   0   0   0   0   0   0
  0   0   0   1  16   0 130 176 154 150 154 155 163 166 164 173 174 162 167 183 201 210 212 211
206 201 190 178 160 145 133 122 113 107  99  88  73  55  44  30  13   7   1   0   0   0   0   0
  0   0   0   0   0   0   0   0   0   0   0   0   0   0   0   0   0   0   0   0   0   0   0   0
  0   0   0   0
  0   0   0   0   0   0   0   0   0   0   0   0   0   0   0   0   0   0   0   0   0   0   0   0
  0   0   0   2  15   0 130 171 152 150 151 160 168 167 170 178 177 167 164 178 200 206 209 216
207 198 194 185 167 150 138 128 116 106  97  87  75  58  42  32  16   7   2   0   0   0   0   0
  0   0   0   0   0   0   0   0   0   0   0   0   0   0   0   0   0   0   0   0   0   0   0   0
  0   0   0   0
  0   0   0   0   0   0   0   0   0   0   0   0   0   0   0   0   0   0   0   0   0   0   0   0
  0   0   0   2  13   0 126 167 155 158 160 167 169 168 172 177 171 162 166 185 203 202 206 217
206 188 186 184 170 154 141 139 125 107  96  87  76  60  42  30  18   8   2   0   0   0   0   0
  0   0   0   0   0   0   0   0   0   0   0   0   0   0   0   0   0   0   0   0   0   0   0   0
  0   0   0   0
  0   0   0   0   0   0   0   0   0   0   0   0   0   0   0   0   0   0   0   0   0   0   0   0
  0   0   0   2  12   0 120 166 155 158 165 169 170 172 172 173 169 164 175 195 201 198 208 212
204 187 183 177 168 153 139 135 121 108  98  89  75  59  42  27  18   8   2   0   0   0   0   0
  0   0   0   0   0   0   0   0   0   0   0   0   0   0   0   0   0   0   0   0   0   0   0   0
  0   0   0   0
  0   0   0   0   0   0   0   0   0   0   0   0   0   0   0   0   0   0   0   0   0   0   0   0
  0   0   0   2  12   0 118 163 159 165 170 168 162 164 168 165 170 174 178 192 189 193 208 209
205 194 186 179 171 158 137 125 113 105  99  90  76  59  42  29  20   7   2   0   0   0   0   0
  0   0   0   0   0   0   0   0   0   0   0   0   0   0   0   0   0   0   0   0   0   0   0   0
  0   0   0   0
  0   0   0   0   0   0   0   0   0   0   0   0   0   0   0   0   0   0   0   0   0   0   0   0
  0   0   0   1  12   0 117 164 161 168 170 170 164 155 167 174 169 175 186 194 189 197 209 207
201 199 189 187 185 168 137 124 115 104  98  89  76  58  40  26  18   7   2   0   0   0   0   0
  0   0   0   0   0   0   0   0   0   0   0   0   0   0   0   0   0   0   0   0   0   0   0   0
  0   0   0   0
  0   0   0   0   0   0   0   0   0   0   0   0   0   0   0   0   0   0   0   0   0   0   0   0
  0   0   0   1  11   0 113 157 156 162 169 174 172 166 171 181 177 169 181 193 196 201 208 200
189 194 196 194 199 191 155 124 118 107 100  87  73  56  38  26  15   6   2   0   0   0   0   0
  0   0   0   0   0   0   0   0   0   0   0   0   0   0   0   0   0   0   0   0   0   0   0   0
  0   0   0   0
  0   0   0   0   0   0   0   0   0   0   0   0   0   0   0   0   0   0   0   0   0   0   0   0
  0   0   0   1  11   0 111 154 147 149 156 168 173 172 174 178 175 169 174 190 192 193 197 191
175 183 190 187 197 202 178 143 120 111 104  89  73  54  36  26  14   6   2   0   0   0   0   0
  0   0   0   0   0   0   0   0   0   0   0   0   0   0   0   0   0   0   0   0   0   0   0   0
  0   0   0   0
  0   0   0   0   0   0   0   0   0   0   0   0   0   0   0   0   0   0   0   0   0   0   0   0
  0   0   0   1  11   0 110 154 144 148 158 165 171 168 164 166 169 175 176 183 195 200 193 184
175 174 177 173 180 192 187 169 145 119 102  88  70  50  34  23  12   5   1   0   0   0   0   0
  0   0   0   0   0   0   0   0   0   0   0   0   0   0   0   0   0   0   0   0   0   0   0   0
  0   0   0   0
  0   0   0   0   0   0   0   0   0   0   0   0   0   0   0   0   0   0   0   0   0   0   0   0
  0   0   0   1  12   0 116 156 146 150 154 163 170 161 154 159 165 176 184 184 191 202 199 191
185 183 183 183 177 172 177 168 154 122  97  82  62  44  31  20  11   4   1   0   0   0   0   0
  0   0   0   0   0   0   0   0   0   0   0   0   0   0   0   0   0   0   0   0   0   0   0   0
  0   0   0   0
  0   0   0   0   0   0   0   0   0   0   0   0   0   0   0   0   0   0   0   0   0   0   0   0
  0   0   0   1  12   0 113 158 148 152 158 164 165 170 165 166 175 185 186 187 180 193 196 192
181 176 189 191 180 176 176 164 142 116  94  76  58  42  29  18   9   4   0   0   0   0   0   0
  0   0   0   0   0   0   0   0   0   0   0   0   0   0   0   0   0   0   0   0   0   0   0   0
  0   0   0   0
  0   0   0   0   0   0   0   0   0   0   0   0   0   0   0   0   0   0   0   0   0   0   0   0
  0   0   0   1  11   0 110 156 155 158 154 163 167 165 167 177 188 193 186 187 187 193 195 192
182 172 187 191 182 180 173 162 140 107  87  67  53  40  25  15   8   3   0   0   0   0   0   0
  0   0   0   0   0   0   0   0   0   0   0   0   0   0   0   0   0   0   0   0   0   0   0   0
  0   0   0   0
  0   0   0   0   0   0   0   0   0   0   0   0   0   0   0   0   0   0   0   0   0   0   0   0
  0   0   0   1  12   0 115 160 155 155 143 147 159 159 163 172 183 187 189 196 192 193 192 187
183 178 178 179 175 170 163 146 137 110  81  60  46  36  19  13   5   1   0   0   0   0   0   0
  0   0   0   0   0   0   0   0   0   0   0   0   0   0   0   0   0   0   0   0   0   0   0   0
  0   0   0   0
  0   0   0   0   0   0   0   0   0   0   0   0   0   0   0   0   0   0   0   0   0   0   0   0
  0   0   0   1  11   0 110 154 141 142 144 145 154 162 164 163 164 174 186 192 197 194 189 184
187 185 172 168 169 156 143 127 110  99  74  54  41  28  16  10   3   0   0   0   0   0   0   0
  0   0   0   0   0   0   0   0   0   0   0   0   0   0   0   0   0   0   0   0   0   0   0   0
  0   0   0   0
  0   0   0   0   0   0   0   0   0   0   0   0   0   0   0   0   0   0   0   0   0   0   0   0
  0   0   0   1  13   0 115 162 150 145 146 150 160 159 157 159 161 170 179 183 188 189 188 179
183 192 179 164 162 151 130 113  97  79  65  54  40  23  14   7   1   0   0   0   0   0   0   0
  0   0   0   0   0   0   0   0   0   0   0   0   0   0   0   0   0   0   0   0   0   0   0   0
  0   0   0   0
  0   0   0   0   0   0   0   0   0   0   0   0   0   0   0   0   0   0   0   0   0   0   0   0
  0   0   0   1  12   0 114 163 157 153 155 157 161 157 161 168 175 179 183 185 177 176 180 170
168 189 187 164 157 154 137 105  87  76  66  56  36  22  12   4   0   0   0   0   0   0   0   0
  0   0   0   0   0   0   0   0   0   0   0   0   0   0   0   0   0   0   0   0   0   0   0   0
  0   0   0   0
  0   0   0   0   0   0   0   0   0   0   0   0   0   0   0   0   0   0   0   0   0   0   0   0
  0   0   0   1  11   0 109 153 146 143 150 157 156 161 171 179 186 190 190 183 181 182 174 167
168 183 186 166 146 139 129 104  79  67  57  50  36  18   4   0   0   0   0   0   0   0   0   0
  0   0   0   0   0   0   0   0   0   0   0   0   0   0   0   0   0   0   0   0   0   0   0   0
  0   0   0   0
  0   0   0   0   0   0   0   0   0   0   0   0   0   0   0   0   0   0   0   0   0   0   0   0
  0   0   0   1  11   0 109 153 145 146 146 147 151 160 167 179 186 187 182 175 173 175 169 163
164 174 177 170 146 123 110  98  83  71  57  46  27   5   1   0   0   0   0   0   0   0   0   0
  0   0   0   0   0   0   0   0   0   0   0   0   0   0   0   0   0   0   0   0   0   0   0   0
  0   0   0   0
  0   0   0   0   0   0   0   0   0   0   0   0   0   0   0   0   0   0   0   0   0   0   0   0
  0   0   0   1  12   0 114 157 147 148 151 148 153 160 158 164 178 186 187 182 175 169 162 163
166 172 170 169 161 135 112 106 102  91  63  33   8   2   1   0   0   0   0   0   0   0   0   0
  0   0   0   0   0   0   0   0   0   0   0   0   0   0   0   0   0   0   0   0   0   0   0   0
  0   0   0   0
  0   0   0   0   0   0   0   0   0   0   0   0   0   0   0   0   0   0   0   0   0   0   0   0
  0   0   0   1  12   0 114 158 145 139 149 156 149 151 154 162 182 191 192 189 181 173 168 164
166 167 157 151 153 148 140 142 113  67  36  15   2   1   0   0   0   0   0   0   0   0   0   0
  0   0   0   0   0   0   0   0   0   0   0   0   0   0   0   0   0   0   0   0   0   0   0   0
  0   0   0   0
  0   0   0   0   0   0   0   0   0   0   0   0   0   0   0   0   0   0   0   0   0   0   0   0
  0   0   0   1  13   0 117 161 152 149 148 148 147 147 152 166 177 186 194 195 190 182 179 170
161 156 146 143 131 128 153 146  88  33  14   7   1   0   0   0   0   0   0   0   0   0   0   0
  0   0   0   0   0   0   0   0   0   0   0   0   0   0   0   0   0   0   0   0   0   0   0   0
  0   0   0   0
  0   0   0   0   0   0   0   0   0   0   0   0   0   0   0   0   0   0   0   0   0   0   0   0
  0   0   0   1  14   0 118 172 161 153 147 144 146 144 159 177 182 181 187 191 187 181 167 164
156 161 151 129 112 114 146 126  55  17  14   2   0   0   0   0   0   0   0   0   0   0   0   0
  0   0   0   0   0   0   0   0   0   0   0   0   0   0   0   0   0   0   0   0   0   0   0   0
  0   0   0   0
  0   0   0   0   0   0   0   0   0   0   0   0   0   0   0   0   0   0   0   0   0   0   0   0
  0   0   0   1  13   0 113 165 153 142 137 140 146 146 166 177 185 183 178 183 182 178 161 153
152 165 154 120 102 110 135 100  22  16   8   0   0   0   0   0   0   0   0   0   0   0   0   0
  0   0   0   0   0   0   0   0   0   0   0   0   0   0   0   0   0   0   0   0   0   0   0   0
  0   0   0   0
  0   0   0   0   0   0   0   0   0   0   0   0   0   0   0   0   0   0   0   0   0   0   0   0
  0   0   0   1  13   0 111 159 151 144 135 137 143 144 157 169 181 181 176 177 182 178 168 160
152 149 134 107  84  93 116  72   7  15   2   0   0   0   0   0   0   0   0   0   0   0   0   0
  0   0   0   0   0   0   0   0   0   0   0   0   0   0   0   0   0   0   0   0   0   0   0   0
  0   0   0   0
  0   0   0   0   0   0   0   0   0   0   0   0   0   0   0   0   0   0   0   0   0   0   0   0
  0   0   0   1  10   0 103 155 153 143 138 135 139 143 151 163 173 178 172 172 184 184 176 157
131 121 105  83  62  71  90  50   6   9   0   0   0   0   0   0   0   0   0   0   0   0   0   0
  0   0   0   0   0   0   0   0   0   0   0   0   0   0   0   0   0   0   0   0   0   0   0   0
  0   0   0   0
  0   0   0   0   0   0   0   0   0   0   0   0   0   0   0   0   0   0   0   0   0   0   0   0
  0   0   0   1  10   0 103 151 151 147 142 139 143 143 145 156 159 166 174 173 181 178 161 142
119 102  84  70  55  52  66  39   5   4   0   0   0   0   0   0   0   0   0   0   0   0   0   0
  0   0   0   0   0   0   0   0   0   0   0   0   0   0   0   0   0   0   0   0   0   0   0   0
  0   0   0   0
  0   0   0   0   0   0   0   0   0   0   0   0   0   0   0   0   0   0   0   0   0   0   0   0
  0   0   0   1  10   0 103 147 145 147 144 135 137 137 140 158 158 156 162 163 161 148 124 111
101  89  74  58  47  37  44  30   7   1   0   0   0   0   0   0   0   0   0   0   0   0   0   0
  0   0   0   0   0   0   0   0   0   0   0   0   0   0   0   0   0   0   0   0   0   0   0   0
  0   0   0   0
  0   0   0   0   0   0   0   0   0   0   0   0   0   0   0   0   0   0   0   0   0   0   0   0
  0   0   0   1   8   0  98 140 140 143 140 137 133 128 139 156 155 151 153 146 131 122 103  89
 83  77  65  49  37  29  28  20   6   0   0   0   0   0   0   0   0   0   0   0   0   0   0   0
  0   0   0   0   0   0   0   0   0   0   0   0   0   0   0   0   0   0   0   0   0   0   0   0
  0   0   0   0
  0   0   0   0   0   0   0   0   0   0   0   0   0   0   0   0   0   0   0   0   0   0   0   0
  0   0   0   1   8   0  99 140 135 138 134 132 129 123 133 138 130 128 135 126 110 105  94  84
 74  65  51  39  31  21  19  12   2   0   0   0   0   0   0   0   0   0   0   0   0   0   0   0
  0   0   0   0   0   0   0   0   0   0   0   0   0   0   0   0   0   0   0   0   0   0   0   0
  0   0   0   0
  0   0   0   0   0   0   0   0   0   0   0   0   0   0   0   0   0   0   0   0   0   0   0   0
  0   0   0   1   7   0  98 135 132 129 125 133 132 121 116 113 111 110 109 104  98  89  82  76
 62  51  41  32  23  15  13   8   0   0   0   0   0   0   0   0   0   0   0   0   0   0   0   0
  0   0   0   0   0   0   0   0   0   0   0   0   0   0   0   0   0   0   0   0   0   0   0   0
  0   0   0   0
  0   0   0   0   0   0   0   0   0   0   0   0   0   0   0   0   0   0   0   0   0   0   0   0
  0   0   0   2   6   0  99 131 124 125 126 128 124 116 107 103  95  92  97  92  85  77  68  60
 51  40  33  26  19  15  10   4   0   0   0   0   0   0   0   0   0   0   0   0   0   0   0   0
  0   0   0   0   0   0   0   0   0   0   0   0   0   0   0   0   0   0   0   0   0   0   0   0
  0   0   0   0
  0   0   0   0   0   0   0   0   0   0   0   0   0   0   0   0   0   0   0   0   0   0   0   0
  0   0   0   2   6   0  99 129 120 129 130 116 104  99  95  90  87  83  83  81  71  64  56  49
 42  33  25  20  16  12   7   0   0   0   0   0   0   0   0   0   0   0   0   0   0   0   0   0
  0   0   0   0   0   0   0   0   0   0   0   0   0   0   0   0   0   0   0   0   0   0   0   0
  0   0   0   0
  0   0   0   0   0   0   0   0   0   0   0   0   0   0   0   0   0   0   0   0   0   0   0   0
  0   0   0   1   7   0  99 127 124 124 108  94  84  84  83  78  75  70  69  66  60  53  48  42
 35  26  19  14  11  10   3   0   0   0   0   0   0   0   0   0   0   0   0   0   0   0   0   0
  0   0   0   0   0   0   0   0   0   0   0   0   0   0   0   0   0   0   0   0   0   0   0   0
  0   0   0   0
  0   0   0   0   0   0   0   0   0   0   0   0   0   0   0   0   0   0   0   0   0   0   0   0
  0   0   0   1   8   0  98 128 115 109  92  80  76  75  73  68  64  60  59  54  51  46  39  34
 29  20  14  10  11   5   0   0   0   0   0   0   0   0   0   0   0   0   0   0   0   0   0   0
  0   0   0   0   0   0   0   0   0   0   0   0   0   0   0   0   0   0   0   0   0   0   0   0
  0   0   0   0
  0   0   0   0   0   0   0   0   0   0   0   0   0   0   0   0   0   0   0   0   0   0   0   0
  0   0   0   1   7   0  96 123 101  95  90  76  64  59  58  57  56  54  51  45  39  35  30  26
 20  13  10   9   5   0   0   0   0   0   0   0   0   0   0   0   0   0   0   0   0   0   0   0
  0   0   0   0   0   0   0   0   0   0   0   0   0   0   0   0   0   0   0   0   0   0   0   0
  0   0   0   0
  0   0   0   0   0   0   0   0   0   0   0   0   0   0   0   0   0   0   0   0   0   0   0   0
  0   0   0   1   6   0  90 114  96  93  79  63  51  50  50  50  48  45  40  35  28  25  22  19
 13   9   7   4   0   0   0   0   0   0   0   0   0   0   0   0   0   0   0   0   0   0   0   0
  0   0   0   0   0   0   0   0   0   0   0   0   0   0   0   0   0   0   0   0   0   0   0   0
  0   0   0   0
  0   0   0   0   0   0   0   0   0   0   0   0   0   0   0   0   0   0   0   0   0   0   0   0
  0   0   0   1   5   0  89 109  98  91  66  49  47  45  41  41  39  34  28  25  22  19  15  11
  8   7   3   0   0   0   0   0   0   0   0   0   0   0   0   0   0   0   0   0   0   0   0   0
  0   0   0   0   0   0   0   0   0   0   0   0   0   0   0   0   0   0   0   0   0   0   0   0
  0   0   0   0
  0   0   0   0   0   0   0   0   0   0   0   0   0   0   0   0   0   0   0   0   0   0   0   0
  0   0   0   1   5   0  95 114 102  90  56  39  38  36  29  28  27  24  21  18  16  13   9   8
  5   2   0   0   0   0   0   0   0   0   0   0   0   0   0   0   0   0   0   0   0   0   0   0
  0   0   0   0   0   0   0   0   0   0   0   0   0   0   0   0   0   0   0   0   0   0   0   0
  0   0   0   0
  0   0   0   0   0   0   0   0   0   0   0   0   0   0   0   0   0   0   0   0   0   0   0   0
  0   0   0   2   6   0 104 122 106  91  47  28  30  30  25  22  19  14  12  10   8   7   6   4
  1   0   0   0   0   0   0   0   0   0   0   0   0   0   0   0   0   0   0   0   0   0   0   0
  0   0   0   0   0   0   0   0   0   0   0   0   0   0   0   0   0   0   0   0   0   0   0   0
  0   0   0   0
  0   0   0   0   0   0   0   0   0   0   0   0   0   0   0   0   0   0   0   0   0   0   0   0
  0   0   0   1  12   0 116 144 111  88  42  22  23  21  16  12  10   8   7   6   5   4   2   0
  0   0   0   0   0   0   0   0   0   0   0   0   0   0   0   0   0   0   0   0   0   0   0   0
  0   0   0   0   0   0   0   0   0   0   0   0   0   0   0   0   0   0   0   0   0   0   0   0
  0   0   0   0
  0   0   0   0   0   0   0   0   0   0   0   0   0   0   0   0   0   0   0   0   0   0   0   0
  0   0   0   1  14   0 117 161 132  91  41  18  20  14   7   5   4   4   3   2   1   0   0   0
  0   0   0   0   0   0   0   0   0   0   0   0   0   0   0   0   0   0   0   0   0   0   0   0
  0   0   0   0   0   0   0   0   0   0   0   0   0   0   0   0   0   0   0   0   0   0   0   0
  0   0   0   0
  0   0   0   0   0   0   0   0   0   0   0   0   0   0   0   0   0   0   0   0   0   0   0   0
  0   0   0   1  13   0 108 164 160 108  37  25  17   8   4   2   1   0   0   0   0   0   0   0
  0   0   0   0   0   0   0   0   0   0   0   0   0   0   0   0   0   0   0   0   0   0   0   0
  0   0   0   0   0   0   0   0   0   0   0   0   0   0   0   0   0   0   0   0   0   0   0   0
  0   0   0   0
  0   0   0   0   0   0   0   0   0   0   0   0   0   0   0   0   0   0   0   0   0   0   0   0
  0   0   0   1  11   0 100 154 175 160  79   0  15   0   0   0   0   0   0   0   0   0   0   0
  0   0   0   0   0   0   0   0   0   0   0   0   0   0   0   0   0   0   0   0   0   0   0   0
  0   0   0   0   0   0   0   0   0   0   0   0   0   0   0   0   0   0   0   0   0   0   0   0
  0   0   0   0
  0   0   0   0   0   0   0   0   0   0   0   0   0   0   0   0   0   0   0   0   0   0   0   0
  0   0   0   1   9   0 102 142 179 192 100   0  17   0   0   0   0   0   0   0   0   0   0   0
  0   0   0   0   0   0   0   0   0   0   0   0   0   0   0   0   0   0   0   0   0   0   0   0
  0   0   0   0   0   0   0   0   0   0   0   0   0   0   0   0   0   0   0   0   0   0   0   0
  0   0   0   0
  0   0   0   0   0   0   0   0   0   0   0   0   0   0   0   0   0   0   0   0   0   0   0   0
  0   0   0   1  12   0 111 153 162 167  82   0  13   0   0   0   0   0   0   0   0   0   0   0
  0   0   0   0   0   0   0   0   0   0   0   0   0   0   0   0   0   0   0   0   0   0   0   0
  0   0   0   0   0   0   0   0   0   0   0   0   0   0   0   0   0   0   0   0   0   0   0   0
  0   0   0   0
  0   0   0   0   0   0   0   0   0   0   0   0   0   0   0   0   0   0   0   0   0   0   0   0
  0   0   0   1  10   0 107 135 117 120  60   0   6   0   0   0   0   0   0   0   0   0   0   0
  0   0   0   0   0   0   0   0   0   0   0   0   0   0   0   0   0   0   0   0   0   0   0   0
  0   0   0   0   0   0   0   0   0   0   0   0   0   0   0   0   0   0   0   0   0   0   0   0
  0   0   0   0
  0   0   0   0   0   0   0   0   0   0   0   0   0   0   0   0   0   0   0   0   0   0   0   0
  0   0   0   1   6   0  90 110  95  94  37   0   3   0   0   0   0   0   0   0   0   0   0   0
  0   0   0   0   0   0   0   0   0   0   0   0   0   0   0   0   0   0   0   0   0   0   0   0
  0   0   0   0   0   0   0   0   0   0   0   0   0   0   0   0   0   0   0   0   0   0   0   0
  0   0   0   0
  0   0   0   0   0   0   0   0   0   0   0   0   0   0   0   0   0   0   0   0   0   0   0   0
  0   0   0   1   5   0  85 101  86  74  16   0   2   0   0   0   0   0   0   0   0   0   0   0
  0   0   0   0   0   0   0   0   0   0   0   0   0   0   0   0   0   0   0   0   0   0   0   0
  0   0   0   0   0   0   0   0   0   0   0   0   0   0   0   0   0   0   0   0   0   0   0   0
  0   0   0   0
  0   0   0   0   0   0   0   0   0   0   0   0   0   0   0   0   0   0   0   0   0   0   0   0
  0   0   0   1   3   0  71  92  82  56   8   3   1   0   0   0   0   0   0   0   0   0   0   0
  0   0   0   0   0   0   0   0   0   0   0   0   0   0   0   0   0   0   0   0   0   0   0   0
  0   0   0   0   0   0   0   0   0   0   0   0   0   0   0   0   0   0   0   0   0   0   0   0
  0   0   0   0
  0   0   0   0   0   0   0   0   0   0   0   0   0   0   0   0   0   0   0   0   0   0   0   0
  0   0   0   1   3   0  69  97  80  40   7   4   1   0   0   0   0   0   0   0   0   0   0   0
  0   0   0   0   0   0   0   0   0   0   0   0   0   0   0   0   1   0   0   0   0   0   0   0
  0   0   0   0   0   0   0   0   0   0   0   0   0   0   0   0   0   0   0   0   0   0   0   0
  0   0   0   0
  0   0   0   0   0   0   0   0   0   0   0   0   0   0   0   0   0   0   0   0   0   0   0   0
  0   0   0   1   4   0  73  97  67  26  10   5   1   0   0   0   0   0   0   0   0   0   0   0
  0   0   0   0   0   0   0   0   0   0   0   0   0   0   0   0   0   0   0   0   0   0   0   0
  0   0   0   0   0   0   0   0   0   0   0   0   0   0   0   0   0   0   0   0   0   0   0   0
  0   0   0   0
  0   0   0   0   0   0   0   0   0   0   0   0   0   0   0   0   0   0   0   0   0   0   0   0
  0   0   0   1   4   0  77  92  46  17  13   6   1   0   0   0   0   0   0   0   0   0   0   0
  0   0   0   0   0   0   0   0   0   0   0   0   0   0   0   0   0   0   0   0   0   0   0   0
  0   0   0   0   0   0   0   0   0   0   0   0   0   0   0   0   0   0   0   0   0   0   0   0
  0   0   0   0
  0   0   0   0   0   0   0   0   0   0   0   0   0   0   0   0   0   0   0   0   0   0   0   0
  0   0   0   1   2   0  72  80  37  19  13   7   2   0   0   0   0   0   0   0   0   0   0   0
  0   0   0   0   0   0   0   0   0   0   0   0   0   0   0   0   0   0   0   0   0   0   0   0
  0   0   0   0   0   0   0   0   0   0   0   0   0   0   0   0   0   0   0   0   0   0   0   0
  0   0   0   0
  0   0   0   0   0   0   0   0   0   0   0   0   0   0   0   0   0   0   0   0   0   0   0   0
  0   0   0   1   2   0  67  76  41  21  13   7   1   0   0   0   0   0   0   0   0   0   0   0
  0   0   0   0   0   0   0   0   0   0   0   0   0   0   0   0   0   0   0   0   0   0   0   0
  0   0   0   0   0   0   0   0   0   0   0   0   0   0   0   0   0   0   0   0   0   0   0   0
  0   0   0   0
