P2
# 8-bit pgm gray
100 100
255
  0   0   0   0   0   0   0   0   0   0   0   0   0   0   0   0   0   0   0   0   0   0  19   0
 66 211 226 221 220 219 220 221 220 218 218 218 216 217 218 217 218 216 214 213 210 202 187 156
134 127 118 105  91  78  63  46  32  22  12   5   0   0   0   0   0   0   0   0   0   0   0   0
  0   0   0   0   0   0   0   0   0   0   0   0   0   0   0   0   0   0   0   0   0   0   0   0
  0   0   0   0
  0   0   0   0   0   0   0   0   0   0   0   0   0   0   0   0   0   0   0   0   0   0  19   0
 66 211 225 219 219 218 218 219 218 217 219 217 216 216 216 216 216 215 214 213 208 197 181 153
138 131 115 105  93  83  67  47  33  21  12   5   0   0   0   0   0   0   0   0   0   0   0   0
  0   0   0   0   0   0   0   0   0   0   0   0   0   0   0   0   0   0   0   0   0   0   0   0
  0   0   0   0
  0   0   0   0   0   0   0   0   0   0   0   0   0   0   0   0   0   0   0   0   0   0  19   0
 66 210 225 218 219 218 219 220 218 217 219 218 216 216 215 214 214 213 211 209 200 187 175 153
137 126 115 108 100  84  67  46  32  20  10   5   0   0   0   0   0   0   0   0   0   0   0   0
  3  21  22   3   0   0   0   0   0   0   0   0   0   0   0   0   0   0   0   0   0   0   0   0
  0   0   0   0
  0   0   0   0   0   0   0   0   0   0   0   0   0   0   0   0   0   0   0   0   0   0  19   0
 66 209 223 219 219 217 217 219 218 217 217 219 216 215 214 215 212 211 210 205 195 185 173 149
141 130 121 115 101  86  72  47  30  21  11   4   0   0   0   0   0   0   0   0   0   0   0   2
  0   0   0   0   3   0   0   0   0   0   0   0   0   0   0   0   0   0   0   0   0   0   0   0
  0   0   0   0
  0   0   0   0   0   0   0   0   0   0   0   0   0   0   0   0   0   0   0   0   0   0  19   0
 65 207 222 218 219 217 217 218 218 217 215 217 216 213 212 212 211 209 206 200 194 193 172 148
143 132 126 121  99  88  69  43  30  19  11   4   0   0   0   0   0   0   0   0   0   0   3   0
 16  73  80  21   0   3   0   0   0   0   0   0   0   0   0   0   0   0   0   0   0   0   0   0
  0   0   0   0
  0   0   0   0   0   0   0   0   0   0   0   0   0   0   0   0   0   0   0   0   0   0  19   0
 64 207 221 216 218 218 218 219 218 216 216 216 217 214 209 209 208 205 203 198 190 183 157 143
138 131 121 118 104  87  65  43  31  18   9   4   0   0   0   0   0   0   0   0   0   0  20   0
 73 195 204  69   0  20   0   0   0   0   0   0   0   0   0   0   0   0   0   0   0   0   0   0
  0   0   0   0
  0   0   0   0   0   0   0   0   0   0   0   0   0   0   0   0   0   0   0   0   0   0  19   0
 64 209 223 217 220 217 218 218 218 217 215 214 213 214 211 206 204 202 197 192 180 166 145 137
133 128 120 111 101  81  61  43  30  17   9   4   0   0   0   0   0   0   0   0   0   0  25   0
 94 221 226  77   0  23   0   0   0   0   0   0   0   0   0   0   0   0   0   0   0   0   0   0
  0   0   0   0
  0   0   0   0   0   0   0   0   0   0   0   0   0   0   0   0   0   0   0   0   0   0  19   0
 65 209 224 219 220 217 217 217 217 217 215 212 209 209 210 206 202 200 195 182 169 155 137 132
135 130 118 108  96  82  63  43  27  16   9   3   0   0   0   0   0   0   0   0   0   0  25   0
102 224 226  77   0  23   0   0   0   0   0   0   0   0   0   0   0   0   0   0   0   0   0   0
  0   0   0   0
  0   0   0   0   0   0   0   0   0   0   0   0   0   0   0   0   0   0   0   0   0   0  19   0
 65 209 223 218 218 216 217 217 216 215 214 214 209 205 204 203 200 194 187 176 164 148 135 131
135 128 114 109  96  82  64  41  25  15   8   3   0   0   0   0   0   0   0   0   0   0  26   0
112 230 229  79   0  23   0   0   0   0   0   0   0   0   0   0   0   0   0   0   0   0   0   0
  0   0   0   0
  0   0   0   0   0   0   0   0   0   0   0   0   0   0   0   0   0   0   0   0   0   0  19   0
 65 210 223 216 217 215 215 216 215 213 213 212 210 206 202 198 198 193 182 170 158 142 132 129
133 129 115 110  95  80  60  40  25  14   7   2   0   0   0   0   0   0   0   0   0   0  26   0
121 233 229  79   0  23   0   0   0   0   0   0   0   0   0   0   0   0   0   0   0   0   0   0
  0   0   0   0
  0   0   0   0   0   0   0   0   0   0   0   0   0   0   0   0   0   0   0   0   0   0  19   0
 66 211 225 217 217 216 215 215 215 214 213 210 209 205 200 195 195 193 180 169 156 136 129 127
125 125 121 111  96  76  53  37  23  13   7   1   0   0   0   0   0   0   0   0   0   0  25   0
129 236 230  80   0  24   0   0   0   0   0   0   0   0   0   0   0   0   0   0   0   0   0   0
  0   0   0   0
  0   0   0   0   0   0   0   0   0   0   0   0   0   0   0   0   0   0   0   0   0   0  19   0
 66 211 224 217 217 216 215 214 213 213 212 209 206 205 199 193 190 185 172 162 151 132 129 127
122 120 117 109  90  69  49  35  21  12   5   1   0   0   0   0   0   0   0   0   0   2  24   0
136 237 229  80   0  24   0   0   0   0   0   0   0   0   0   0   0   0   0   0   0   0   0   0
  0   0   0   0
  0   0   0   0   0   0   0   0   0   0   0   0   0   0   0   0   0   0   0   0   0   0  19   0
 65 211 225 217 217 216 214 213 212 210 211 207 202 201 198 193 188 179 168 152 137 126 124 125
123 119 111 100  83  65  47  33  20  11   4   0   0   0   0   0   0   0   0   0   0   3  23   0
143 238 228  80   0  23   0   0   0   0   0   0   0   0   0   0   0   0   0   0   0   0   0   0
  0   0   0   0
  0   0   0   0   0   0   0   0   0   0   0   0   0   0   0   0   0   0   0   0   0   0  19   0
 65 212 226 217 217 215 213 213 211 208 209 208 200 195 193 193 187 177 166 148 129 124 125 125
120 113 109  96  77  60  44  30  18  10   4   0   0   0   0   0   0   0   0   0   0   4  21   0
149 238 227  79   0  23   0   0   0   0   0   0   0   0   0   0   0   0   0   0   0   0   0   0
  0   0   0   0
  0   0   0   0   0   0   0   0   0   0   0   0   0   0   0   0   0   0   0   0   0   0  20   0
 67 213 227 220 218 214 211 212 210 208 207 206 204 197 191 185 179 173 161 141 128 127 124 120
113 113 112  91  66  53  39  26  15   9   3   0   0   0   0   0   0   0   0   0   0   5  18   0
154 238 226  80   0  23   0   0   0   0   0   0   0   0   0   0   0   0   0   0   0   0   0   0
  0   0   0   0
  0   0   0   0   0   0   0   0   0   0   0   0   0   0   0   0   0   0   0   0   0   0  19   0
 66 211 226 219 218 214 212 210 208 208 207 203 202 198 193 185 177 169 151 133 125 124 123 117
113 112 100  80  63  51  35  23  13   7   2   0   0   0   0   0   0   0   0   0   0   7  17   0
163 229 192  64   0  18   0   0   0   0   0   0   0   0   0   0   0   0   0   0   0   0   0   0
  0   0   0   0
  0   0   0   0   0   0   0   0   0   0   0   0   0   0   0   0   0   0   0   0   0   0  19   0
 65 210 225 219 218 214 211 210 208 207 205 202 199 195 191 184 177 162 145 136 129 126 126 120
116 104  92  75  59  45  32  20  12   5   1   0   0   0   0   0   0   0   0   0   0   8  12   0
166 235 213  74   0  21   0   0   0   0   0   0   0   0   0   0   0   0   0   0   0   0   0   0
  0   0   0   0
  0   0   0   0   0   0   0   0   0   0   0   0   0   0   0   0   0   0   0   0   0   0  19   0
 66 210 225 219 217 214 210 209 210 209 205 201 196 192 187 180 169 153 136 133 132 125 120 116
112 100  86  67  51  40  28  18  10   4   1   0   0   0   0   0   0   0   0   0   0   9   5   0
169 239 230  83   0  24   0   0   0   0   0   0   0   0   0   0   0   0   0   0   0   0   0   0
  0   0   0   0
  0   0   0   0   0   0   0   0   0   0   0   0   0   0   0   0   0   0   0   0   0   0  19   0
 66 209 223 217 215 212 208 207 208 208 206 202 194 189 185 175 160 145 133 132 133 130 118 112
109  96  73  56  46  35  24  16   9   3   0   0   0   0   0   0   0   0   0   0   0   9   1   0
165 229 219  79   0  22   0   0   0   0   0   0   0   0   0   0   0   0   0   0   0   0   0   0
  0   0   0   0
  0   0   0   0   0   0   0   0   0   0   0   0   0   0   0   0   0   0   0   0   0   0  19   0
 65 209 223 217 217 211 207 205 205 204 205 201 196 190 182 170 155 140 133 131 125 123 119 107
 96  84  65  52  43  33  24  15   8   3   0   0   0   0   0   0   0   0   0   0   0   3   0   0
 95 139 140  50   0  10   0   0   0   0   0   0   0   0   0   0   0   0   0   0   0   0   0   0
  0   0   0   0
  0   0   0   0   0   0   0   0   0   0   0   0   0   0   0   0   0   0   0   0   0   0  19   0
 64 209 223 214 214 210 206 207 205 203 203 200 195 190 179 165 149 136 134 125 116 114 115 108
 93  71  55  46  37  28  21  13   7   2   0   0   0   0   0   0   0   0   0   0   0   0   0   2
  0   0   0   0   4   0   0   0   0   0   0   0   0   0   0   0   0   0   0   0   0   0   0   0
  0   0   0   0
  0   0   0   0   0   0   0   0   0   0   0   0   0   0   0   0   0   0   0   0   0   0  19   0
 64 209 224 216 212 207 207 207 205 202 200 197 194 186 174 162 146 133 129 121 115 111 108 103
 87  62  47  38  31  24  17  11   5   2   0   0   0   0   0   0   0   0   0   0   0   0   0   0
 17  30  29   4   0   0   0   0   0   0   0   0   0   0   0   0   0   0   0   0   0   0   0   0
  0   0   0   0
  0   0   0   0   0   0   0   0   0   0   0   0   0   0   0   0   0   0   0   0   0   0  19   0
 64 209 225 218 213 209 208 207 206 201 200 195 189 179 166 152 138 133 121 116 115 108 104 101
 80  65  52  41  31  23  17  11   5   1   0   0   0   0   0   0   0   0   0   0   0   0   0   0
  0   4   7   1   0   0   0   0   0   0   0   0   0   0   0   0   0   0   0   0   0   0   0   0
  0   0   0   0
  0   0   0   0   0   0   0   0   0   0   0   0   0   0   0   0   0   0   0   0   0   0  19   0
 65 207 224 217 211 209 206 204 203 198 197 192 185 175 158 139 133 135 130 122 117 111 103  91
 80  69  55  45  35  24  21  15   4   1   0   0   0   0   0   0   0   0   0   0   0   0   0   0
  0   2   4   0   0   0   0   0   0   0   0   0   0   0   0   0   0   0   0   0   0   0   0   0
  0   0   0   0
  0   0   0   0   0   0   0   0   0   0   0   0   0   0   0   0   0   0   0   0   0   0  19   0
 64 206 221 214 210 210 206 202 198 196 195 186 179 168 150 134 131 129 127 122 120 114 103  90
 86  75  60  46  36  26  20  11   5   1   0   0   0   0   0   0   0   0   0   0   0   0   0   0
  0   1   2   0   0   0   0   0   0   0   0   0   0   0   0   0   0   0   0   0   0   0   0   0
  0   0   0   0
  0   0   0   0   0   0   0   0   0   0   0   0   0   0   0   0   0   0   0   0   0   0  18   0
 64 205 219 213 211 209 208 205 200 196 192 187 175 161 146 133 130 128 124 120 116 116 115 103
 90  77  63  50  40  31  20  10   6   2   0   0   0   0   0   0   0   0   0   0   0   0   0   0
  0   0   0   0   0   0   0   0   0   0   0   0   0   0   0   0   0   0   0   0   0   0   0   0
  0   0   0   0
  0   0   0   0   0   0   0   0   0   0   0   0   0   0   0   0   0   0   0   0   0   0  19   0
 64 205 218 212 211 208 207 203 200 193 186 181 170 158 144 134 130 125 121 120 117 112 114 107
 87  73  66  54  42  32  20  12   6   3   0   0   0   0   0   0   0   0   0   0   0   0   0   0
  0   0   0   0   0   0   0   0   0   0   0   0   0   0   0   0   0   0   0   0   0   0   0   0
  0   0   0   0
  0   0   0   0   0   0   0   0   0   0   0   0   0   0   0   0   0   0   0   0   0   0  19   0
 65 205 217 212 214 209 204 199 196 190 184 175 161 147 140 135 127 121 117 116 114 110 110 109
 99  82  64  54  45  30  20  13   7   3   0   0   0   0   0   0   0   0   0   0   0   0   0   0
  0   0   0   0   0   0   0   0   0   0   0   0   0   0   0   0   0   0   0   0   0   0   0   0
  0   0   0   0
  0   0   0   0   0   0   0   0   0   0   0   0   0   0   0   0   0   0   0   0   0   0  18   0
 64 202 217 210 211 212 204 198 194 188 181 169 152 137 133 133 126 121 118 115 113 109 111 110
 99  86  67  56  47  32  21  14   8   3   0   0   0   0   0   0   0   0   0   0   0   0   0   0
  0   0   0   0   0   0   0   0   0   0   0   0   0   0   0   0   0   0   0   0   0   0   0   0
  0   0   0   0
  0   0   0   0   0   0   0   0   0   0   0   0   0   0   0   0   0   0   0   0   0   0  18   0
 63 200 213 206 206 208 207 201 194 187 176 162 145 135 131 130 129 124 120 116 113 114 112 104
 95  89  73  57  48  33  23  15   8   3   0   0   0   0   0   0   0   0   0   0   0   0   0   0
  0   0   0   0   0   0   0   0   0   0   0   0   0   0   0   0   0   0   0   0   0   0   0   0
  0   0   0   0
  0   0   0   0   0   0   0   0   0   0   0   0   0   0   0   0   0   0   0   0   0   0  18   0
 63 201 213 203 204 203 201 196 191 185 171 153 139 133 128 128 128 127 127 124 121 115 109 106
 95  89  79  63  45  35  25  16  10   4   1   0   0   0   0   0   0   0   0   0   0   0   0   0
  0   0   0   0   0   0   0   0   0   0   0   0   0   0   0   0   0   0   0   0   0   0   0   0
  0   0   0   0
  0   0   0   0   0   0   0   0   0   0   0   0   0   0   0   0   0   0   0   0   0   0  18   0
 63 202 213 205 203 201 196 192 187 179 164 146 135 133 130 127 129 129 126 123 122 115 107 105
101  90  82  70  48  36  26  18  11   5   1   0   0   0   0   0   0   0   0   0   0   0   0   0
  0   0   0   0   0   0   0   0   0   0   0   0   0   0   0   0   0   0   0   0   0   0   0   0
  0   0   0   0
  0   0   0   0   0   0   0   0   0   0   0   0   0   0   0   0   0   0   0   0   0   0  18   0
 64 203 214 205 204 200 194 188 183 175 159 141 136 135 131 129 131 129 122 119 119 115 108 106
107  96  80  73  58  38  28  20  13   7   2   0   0   0   0   0   0   0   0   0   0   0   0   0
  0   0   0   0   0   0   0   0   0   0   0   0   0   0   0   0   0   0   0   0   0   0   0   0
  0   0   0   0
  0   0   0   0   0   0   0   0   0   0   0   0   0   0   0   0   0   0   0   0   0   0  18   0
 63 200 211 200 199 196 189 183 178 166 152 141 135 134 132 128 126 127 127 120 118 116 114 110
106  98  81  74  62  46  32  22  14   8   3   0   0   0   0   0   0   0   0   0   0   0   0   0
  0   0   0   0   0   0   0   0   0   0   0   0   0   0   0   0   0   0   0   0   0   0   0   0
  0   0   0   0
  0   0   0   0   0   0   0   0   0   0   0   0   0   0   0   0   0   0   0   0   0   0  17   0
 62 197 208 197 195 192 185 178 172 161 141 134 131 127 128 126 121 123 124 121 120 120 115 110
104 101  89  79  69  54  41  26  16   9   3   0   0   0   0   0   0   0   0   0   0   0   0   0
  0   0   0   0   0   0   0   0   0   0   0   0   0   0   0   0   0   0   0   0   0   0   0   0
  0   0   0   0
  0   0   0   0   0   0   0   0   0   0   0   0   0   0   0   0   0   0   0   0   0   0  17   0
 60 193 205 194 193 189 184 178 170 154 136 129 129 126 125 126 123 123 122 125 122 116 116 110
105 103  97  84  74  60  46  34  21  11   5   1   0   0   0   0   0   0   0   0   0   0   0   0
  0   0   0   0   0   0   0   0   0   0   0   0   0   0   0   0   0   0   0   0   0   0   0   0
  0   0   0   0
  0   0   0   0   0   0   0   0   0   0   0   0   0   0   0   0   0   0   0   0   0   0  17   0
 60 192 202 193 189 185 180 176 168 145 133 131 130 130 130 126 125 125 126 125 122 118 117 112
105 102 101  92  80  70  54  39  25  14   7   2   0   0   0   0   0   0   0   0   0   0   0   0
  0   0   0   0   0   0   0   0   0   0   0   0   0   0   0   0   0   0   0   0   0   0   0   0
  0   0   0   0
  0   0   0   0   0   0   0   0   0   0   0   0   0   0   0   0   0   0   0   0   0   0  17   0
 60 190 199 191 186 183 177 171 160 139 134 132 129 127 128 124 123 120 119 119 120 121 117 113
109 102 101  97  85  76  60  42  30  19   9   3   0   0   0   0   0   0   0   0   0   0   0   0
  0   0   0   0   0   0   0   0   0   0   0   0   0   0   0   0   0   0   0   0   0   0   0   0
  0   0   0   0
  0   0   0   0   0   0   0   0   0   0   0   0   0   0   0   0   0   0   0   0   0   0  17   0
 61 190 198 189 187 183 175 166 151 139 136 132 130 127 125 122 124 124 120 120 118 116 115 114
112 106 100  97  85  75  62  47  34  23  12   5   1   0   0   0   0   0   0   0   0   0   0   0
  0   0   0   0   0   0   0   0   0   0   0   0   0   0   0   0   0   0   0   0   0   0   0   0
  0   0   0   0
  0   0   0   0   0   0   0   0   0   0   0   0   0   0   0   0   0   0   0   0   0   0  17   0
 61 192 200 190 191 186 180 166 146 138 135 131 129 128 127 123 122 123 125 122 118 115 114 114
114 109 103 100  90  80  68  51  37  25  15   7   2   0   0   0   0   0   0   0   0   0   0   0
  0   0   0   0   0   0   0   0   0   0   0   0   0   0   0   0   0   0   0   0   0   0   0   0
  0   0   0   0
  0   0   0   0   0   0   0   0   0   0   0   0   0   0   0   0   0   0   0   0   0   0  17   0
 61 193 203 193 191 185 178 163 140 133 134 130 127 123 125 125 124 121 120 120 119 118 115 114
115 113 107 102  96  84  74  57  42  30  18   9   3   0   0   0   0   0   0   0   0   0   0   0
  0   0   0   0   0   0   0   0   0   0   0   0   0   0   0   0   0   0   0   0   0   0   0   0
  0   0   0   0
  0   0   0   0   0   0   0   0   0   0   0   0   0   0   0   0   0   0   0   0   0   0  17   0
 62 192 202 195 191 182 171 152 139 138 134 129 128 124 122 122 123 122 120 120 121 119 119 119
117 111 106 105 104  91  78  65  48  34  22  12   5   0   0   0   0   0   0   0   0   0   0   0
  0   0   0   0   0   0   0   0   0   0   0   0   0   0   0   0   0   0   0   0   0   0   0   0
  0   0   0   0
  0   0   0   0   0   0   0   0   0   0   0   0   0   0   0   0   0   0   0   0   0   0  16   0
 59 191 201 196 194 176 160 142 135 136 132 128 127 125 122 121 121 121 121 119 121 121 120 125
120 109 110 110 102  98  86  68  54  38  25  14   7   1   0   0   0   0   0   0   0   0   0   0
  0   0   0   0   0   0   0   0   0   0   0   0   0   0   0   0   0   0   0   0   0   0   0   0
  0   0   0   0
  0   0   0   0   0   0   0   0   0   0   0   0   0   0   0   0   0   0   0   0   0   0  15   0
 57 183 193 188 190 183 168 143 132 132 131 130 128 125 123 122 120 121 120 117 116 118 120 121
122 116 115 109 100  97  96  80  58  44  29  17   9   2   0   0   0   0   0   0   0   0   0   0
  0   0   0   0   0   0   0   0   0   0   0   0   0   0   0   0   0   0   0   0   0   0   0   0
  0   0   0   0
  0   0   0   0   0   0   0   0   0   0   0   0   0   0   0   0   0   0   0   0   0   0  15   0
 57 178 186 179 175 171 169 160 149 136 129 128 128 126 126 123 119 118 119 118 115 114 117 117
124 129 117 109 107 102  95  87  68  47  33  22  11   4   0   0   0   0   0   0   0   0   0   0
  0   0   0   0   0   0   0   0   0   0   0   0   0   0   0   0   0   0   0   0   0   0   0   0
  0   0   0   0
  0   0   0   0   0   0   0   0   0   0   0   0   0   0   0   0   0   0   0   0   0   0  15   0
 57 179 188 179 168 154 149 155 158 154 144 133 129 126 126 123 120 117 118 121 119 115 114 122
129 139 132 118 120 119 102  85  75  57  37  25  13   5   1   0   0   0   0   0   0   0   0   0
  0   0   0   0   0   0   0   0   0   0   0   0   0   0   0   0   0   0   0   0   0   0   0   0
  0   0   0   0
  0   0   0   0   0   0   0   0   0   0   0   0   0   0   0   0   0   0   0   0   0   0  16   0
 58 183 193 181 169 152 142 142 142 147 149 147 137 128 126 124 122 122 119 120 124 124 121 126
126 151 154 138 142 144 118  89  76  66  45  27  16   7   2   0   0   0   0   0   0   0   0   0
  0   0   0   0   0   0   0   0   0   0   0   0   0   0   0   0   0   0   0   0   0   0   0   0
  0   0   0   0
  0   0   0   0   0   0   0   0   0   0   0   0   0   0   0   0   0   0   0   0   0   0  16   0
 58 189 200 185 174 158 149 144 140 138 139 143 141 134 129 125 125 124 121 121 127 130 134 133
126 154 168 163 166 166 141 106  82  68  54  33  18  10   3   0   0   0   0   0   0   0   0   0
  0   0   0   0   0   0   0   0   0   0   0   0   0   0   0   0   0   0   0   0   0   0   0   0
  0   0   0   0
  0   0   0   0   0   0   0   0   0   0   0   0   0   0   0   0   0   0   0   0   0   0  16   0
 60 189 199 189 177 161 152 149 148 140 136 136 136 134 132 127 126 123 120 122 126 135 136 143
148 161 180 189 181 170 156 125  92  67  55  39  21  11   5   0   0   0   0   0   0   0   0   0
  0   0   0   0   0   0   0   0   0   0   0   0   0   0   0   0   0   0   0   0   0   0   0   0
  0   0   0   0
  0   0   0   0   0   0   0   0   0   0   0   0   0   0   0   0   0   0   0   0   0   0  16   0
 59 185 193 179 170 160 153 154 150 140 130 127 131 132 135 133 128 126 126 126 127 134 133 148
168 175 190 201 192 174 155 130 105  72  54  43  28  14   5   1   0   0   0   0   0   0   0   0
  0   0   0   0   0   0   0   0   0   0   0   0   0   0   0   0   0   0   0   0   0   0   0   0
  0   0   0   0
  0   0   0   0   0   0   0   0   0   0   0   0   0   0   0   0   0   0   0   0   0   0  16   0
 60 181 184 170 163 154 154 156 152 148 138 127 126 129 131 132 132 132 130 131 135 131 140 159
179 187 194 197 188 174 154 139 113  75  57  44  32  20   6   2   0   0   0   0   0   0   0   0
  0   0   0   0   0   0   0   0   0   0   0   0   0   0   0   0   0   0   0   0   0   0   0   0
  0   0   0   0
  0   0   0   0   0   0   0   0   0   0   0   0   0   0   0   0   0   0   0   0   0   0  16   0
 59 188 191 173 161 150 153 157 147 144 143 140 135 132 130 128 134 138 133 132 147 154 159 178
193 195 196 190 183 180 167 151 117  77  62  48  30  20  11   2   0   0   0   0   0   0   0   0
  0   0   0   0   0   0   0   0   0   0   0   0   0   0   0   0   0   0   0   0   0   0   0   0
  0   0   0   0
  0   0   0   0   0   0   0   0   0   0   0   0   0   0   0   0   0   0   0   0   0   0  17   0
 61 194 197 180 165 151 151 152 147 141 142 144 142 146 144 133 132 135 135 130 146 169 177 196
207 202 200 192 185 185 179 158 124  81  66  51  31  19  12   5   0   0   0   0   0   0   0   0
  0   0   0   0   0   0   0   0   0   0   0   0   0   0   0   0   0   0   0   0   0   0   0   0
  0   0   0   0
  0   0   0   0   0   0   0   0   0   0   0   0   0   0   0   0   0   0   0   0   0   0  17   0
 61 189 191 179 168 153 147 147 151 147 144 149 149 149 149 145 140 136 133 132 146 164 183 202
204 203 199 194 189 187 181 165 147 101  76  64  45  30  19  10   1   0   0   0   0   0   0   0
  0   0   0   0   0   0   0   0   0   0   0   0   0   0   0   0   0   0   0   0   0   0   0   0
  0   0   0   0
  0   0   0   0   0   0   0   0   0   0   0   0   0   0   0   0   0   0   0   0   0   0  16   0
 57 185 188 174 173 158 149 149 151 146 142 146 142 136 142 145 144 141 139 142 148 158 176 183
184 193 198 199 195 186 179 169 152 112  79  63  46  31  21  12   2   0   0   0   0   0   0   0
  0   0   0   0   0   0   0   0   0   0   0   0   0   0   0   0   0   0   0   0   0   0   0   0
  0   0   0   0
  0   0   0   0   0   0   0   0   0   0   0   0   0   0   0   0   0   0   0   0   0   0  16   0
 58 186 191 175 178 163 151 149 152 149 141 137 134 127 130 139 141 142 142 150 150 151 160 162
169 183 192 200 202 194 175 155 126  92  72  56  40  26  15   9   3   0   0   0   0   0   0   0
  0   0   0   0   0   0   0   0   0   0   0   0   0   0   0   0   0   0   0   0   0   0   0   0
  0   0   0   0
  0   0   0   0   0   0   0   0   0   0   0   0   0   0   0   0   0   0   0   0   0   0  15   0
 59 182 189 181 178 173 170 156 157 157 147 139 134 129 128 130 136 135 130 138 149 151 148 154
163 178 191 194 197 199 181 150 117  90  77  59  44  30  18  10   3   0   0   0   0   0   0   0
  0   0   0   0   0   0   0   0   0   0   0   0   0   0   0   0   0   0   0   0   0   0   0   0
  0   0   0   0
  0   0   0   0   0   0   0   0   0   0   0   0   0   0   0   0   0   0   0   0   0   0  16   0
 60 182 188 183 182 184 182 167 167 159 149 145 137 133 134 126 126 126 128 135 141 146 153 162
166 180 188 187 188 197 196 167 119  93  78  61  46  33  22  10   4   0   0   0   0   0   0   0
  0   0   0   0   0   0   0   0   0   0   0   0   0   0   0   0   0   0   0   0   0   0   0   0
  0   0   0   0
  0   0   0   0   0   0   0   0   0   0   0   0   0   0   0   0   0   0   0   0   0   0  16   0
 60 188 191 179 181 187 185 179 178 170 157 150 145 139 142 133 126 125 133 140 141 146 153 162
172 184 187 187 184 187 195 178 140 102  79  63  49  36  20  11   6   0   0   0   0   0   0   0
  0   0   0   0   0   0   0   0   0   0   0   0   0   0   0   0   0   0   0   0   0   0   0   0
  0   0   0   0
  0   0   0   0   0   0   0   0   0   0   0   0   0   0   0   0   0   0   0   0   0   0  16   0
 58 189 194 174 180 192 184 182 178 175 170 156 149 146 149 142 129 124 130 137 139 145 151 159
171 185 191 190 183 179 183 180 169 132  95  76  61  34  17  13   8   0   0   0   0   0   0   0
  0   0   0   0   0   0   0   0   0   0   0   0   0   0   0   0   0   0   0   0   0   0   0   0
  0   0   0   0
  0   0   0   0   0   0   0   0   0   0   0   0   0   0   0   0   0   0   0   0   0   0  15   0
 57 179 189 176 170 183 183 183 182 172 166 163 157 146 153 151 130 125 128 130 137 141 148 155
165 180 192 196 192 183 177 178 178 163 125  81  57  40  25  11  10   0   0   0   0   0   0   0
  0   0   0   0   0   0   0   0   0   0   0   0   0   0   0   0   0   0   0   0   0   0   0   0
  0   0   0   0
  0   0   0   0   0   0   0   0   0   0   0   0   0   0   0   0   0   0   0   0   0   0  15   0
 57 175 186 181 171 172 179 181 189 182 169 175 167 151 152 158 146 143 138 134 141 145 141 147
162 171 184 198 199 183 173 184 181 167 150 104  55  39  39  23  10   1   0   0   0   0   0   0
  0   0   0   0   0   0   0   0   0   0   0   0   0   0   0   0   0   0   0   0   0   0   0   0
  0   0   0   0
  0   0   0   0   0   0   0   0   0   0   0   0   0   0   0   0   0   0   0   0   0   0  15   0
 59 177 187 186 174 166 178 183 187 196 181 174 176 167 155 163 160 151 146 149 146 148 150 152
159 170 175 195 200 184 176 187 188 166 150 131  80  52  47  35  11   0   0   0   0   0   0   0
  0   0   0   0   0   0   0   0   0   0   0   0   0   0   0   0   0   0   0   0   0   0   0   0
  0   0   0   0
  0   0   0   0   0   0   0   0   0   0   0   0   0   0   0   0   0   0   0   0   0   0  16   0
 60 182 188 190 179 165 177 183 183 195 196 182 180 174 158 159 154 142 144 153 147 142 154 167
170 159 170 190 198 187 186 187 190 184 159 145 110  68  52  38  16   0   0   0   0   0   0   0
  0   0   0   0   0   0   0   0   0   0   0   0   0   0   0   0   0   0   0   0   0   0   0   0
  0   0   0   0
  0   0   0   0   0   0   0   0   0   0   0   0   0   0   0   0   0   0   0   0   0   0  15   0
 57 183 193 191 190 189 191 195 196 195 196 191 180 167 158 155 155 146 140 144 140 141 149 174
181 156 167 184 194 188 190 190 188 188 172 153 127  75  57  50  16   0   1   0   0   0   0   0
  0   0   0   0   0   0   0   0   0   0   0   0   0   0   0   0   0   0   0   0   0   0   0   0
  0   0   0   0
  0   0   0   0   0   0   0   0   0   0   0   0   0   0   0   0   0   0   0   0   0   0  14   0
 55 177 193 194 195 193 196 204 206 197 192 192 185 168 155 150 158 149 139 143 141 140 147 146
150 166 175 187 193 191 190 190 182 182 171 149 126  84  67  54   6   0   1   0   0   0   1   0
  0   0   0   0   0   0   0   0   0   0   0   0   0   0   0   0   0   0   0   0   0   0   0   0
  0   0   0   0
  0   0   0   0   0   0   0   0   0   0   0   0   0   0   0   0   0   0   0   0   0   0  16   0
 55 187 204 198 195 192 198 204 208 201 193 193 192 183 166 151 151 154 146 146 149 142 140 138
143 159 174 184 190 192 188 185 191 180 163 151 119  86  73  45   5   0   0   0   0   2   3   0
  0   0   0   0   0   0   0   0   0   0   0   0   0   0   0   0   0   0   0   0   0   0   0   0
  0   0   0   0
  0   0   0   0   0   0   0   0   0   0   0   0   0   0   0   0   0   0   0   0   0   0  14   0
 49 178 200 195 194 191 199 209 209 205 197 195 193 195 188 171 156 155 157 153 158 144 134 140
148 160 175 175 175 187 191 180 192 186 162 140 120  87  69  50   5   0   1   0   0   0   0   0
  0   0   0   0   0   0   0   0   0   0   0   0   0   0   0   0   0   0   0   0   0   0   0   0
  0   0   0   0
  0   0   0   0   0   0   0   0   0   0   0   0   0   0   0   0   0   0   0   0   0   0  13   0
 48 168 193 192 190 191 196 209 213 208 204 205 201 201 199 188 175 162 161 156 160 155 151 146
149 158 165 174 176 189 196 181 183 180 159 122 113  93  66  48   3   0   1   0   0   0   0   0
  0   0   0   0   0   0   0   0   0   0   0   0   0   0   0   0   0   0   0   0   0   0   0   0
  0   0   0   0
  0   0   0   0   0   0   0   0   0   0   0   0   0   0   0   0   0   0   0   0   0   0  14   0
 53 177 194 193 193 196 196 204 214 215 208 202 201 196 194 189 179 171 169 158 152 161 176 170
158 164 162 167 182 187 190 193 185 164 156 126  88  85  70  36   2   0   0   0   0   0   0   0
  0   0   0   0   0   0   0   0   0   0   0   0   0   0   0   0   0   0   0   0   0   0   0   0
  0   0   0   0
  0   0   0   0   0   0   0   0   0   0   0   0   0   0   0   0   0   0   0   0   0   0  14   0
 52 176 190 189 194 195 195 202 210 216 212 204 204 194 189 182 175 177 178 173 166 168 181 179
178 184 178 173 174 170 168 180 182 166 159 126  83  93  76  31   3   0   0   0   0   0   0   0
  0   0   0   0   0   0   0   0   0   0   0   0   0   0   0   0   0   0   0   0   0   0   0   0
  0   0   0   0
  0   0   0   0   0   0   0   0   0   0   0   0   0   0   0   0   0   0   0   0   0   0  15   0
 54 181 194 189 194 198 199 199 203 208 211 213 209 198 191 179 171 174 177 174 169 171 175 167
168 171 171 178 179 167 157 173 170 166 135  97  80  87  63  28   1   0   0   0   0   0   0   0
  0   0   0   0   0   0   0   0   0   0   0   0   0   0   0   0   0   0   0   0   0   0   0   0
  0   0   0   0
  0   0   0   0   0   0   0   0   0   0   0   0   0   0   0   0   0   0   0   0   0   0  16   0
 58 186 202 200 194 193 202 202 201 206 206 205 204 198 189 180 167 163 172 165 164 179 176 166
161 162 168 172 181 181 176 168 148 142 107  76  70  68  51  19   0   1   0   0   0   0   0   0
  0   0   0   0   0   0   0   0   0   0   0   0   0   0   0   0   0   0   0   0   0   0   0   0
  0   0   0   0
  0   0   0   0   0   0   0   0   0   0   0   0   0   0   0   0   0   0   0   0   0   0  16   0
 59 192 205 201 197 192 199 201 199 204 207 205 202 196 190 183 177 170 173 174 170 174 179 174
171 177 178 173 179 186 190 177 147 111  84  69  62  58  36   3   0   0   0   0   0   0   0   0
  0   0   0   0   0   0   0   0   0   0   0   0   0   0   0   0   0   0   0   0   0   0   0   0
  0   0   0   0
  0   0   0   0   0   0   0   0   0   0   0   0   0   0   0   0   0   0   0   0   0   0  17   0
 59 192 205 199 195 193 196 200 201 203 201 200 203 201 196 191 188 177 171 183 188 180 179 179
169 166 170 172 166 160 157 141 108  84  79  65  53  40   9   0   1   0   0   0   0   0   0   0
  0   0   0   0   0   0   0   0   0   0   0   0   0   0   0   0   0   0   0   0   0   0   0   0
  0   0   0   0
  0   0   0   0   0   0   0   0   0   0   0   0   0   0   0   0   0   0   0   0   0   0  16   0
 53 192 206 195 195 192 195 202 205 207 209 207 209 210 206 198 193 184 169 169 177 175 181 185
180 170 165 168 159 133 108  92  84  88  85  58  38  14   0   0   0   0   0   0   0   0   0   0
  0   0   0   0   0   0   0   0   0   0   0   0   0   0   0   0   0   0   0   0   0   0   0   0
  0   0   0   0
  0   0   0   0   0   0   0   0   0   0   0   0   0   0   0   0   0   0   0   0   0   0  14   0
 48 184 205 195 192 196 196 201 207 209 213 214 211 207 207 203 202 198 181 176 183 181 180 185
178 169 164 158 145 127 108  95  89  82  62  29  10   0   0   0   0   0   0   0   0   0   0   0
  0   0   0   0   0   0   0   0   0   0   0   0   0   0   0   0   0   0   0   0   0   0   0   0
  0   0   0   0
  0   0   0   0   0   0   0   0   0   0   0   0   0   0   0   0   0   0   0   0   0   0  13   0
 47 170 198 200 195 190 192 200 205 209 212 210 210 206 203 202 202 203 196 187 191 190 180 184
183 168 157 152 141 122  96  87  71  49  28  13   0   0   0   0   0   0   0   0   0   0   0   0
  0   0   0   0   0   0   0   0   0   0   0   0   0   0   0   0   0   0   0   0   0   0   0   0
  0   0   0   0
  0   0   0   0   0   0   0   0   0   0   0   0   0   0   0   0   0   0   0   0   0   0  14   0
 53 172 195 198 194 191 184 187 199 208 209 206 205 204 206 204 202 201 204 198 194 190 182 184
188 186 176 169 157 136 113  91  55  33  22   6   0   0   0   0   0   0   0   0   0   0   0   0
  0   0   0   0   0   0   0   0   0   0   0   0   0   0   0   0   0   0   0   0   0   0   0   0
  0   0   0   0
  0   0   0   0   0   0   0   0   0   0   0   0   0   0   0   0   0   0   0   0   0   0  14   0
 52 175 196 196 185 185 193 190 191 201 206 209 204 202 206 205 203 199 197 198 202 195 185 185
184 178 176 161 146 133 102  74  48  32   8   0   0   0   0   0   0   0   0   0   0   0   0   0
  0   0   0   0   0   0   0   0   0   0   0   0   0   0   0   0   0   0   0   0   0   0   0   0
  0   0   0   0
  0   0   0   0   0   0   0   0   0   0   0   0   0   0   0   0   0   0   0   0   0   0  12   0
 47 167 188 187 182 167 169 185 187 189 190 202 209 205 201 201 202 199 191 187 188 184 175 173
170 160 152 127  98  69  35  26  34  19   0   0   0   0   0   0   0   0   0   0   0   0   0   0
  0   0   0   0   0   0   0   0   0   0   0   0   0   0   0   0   0   0   0   0   0   0   0   0
  0   0   0   0
  0   0   0   0   0   0   0   0   0   0   0   0   0   0   0   0   0   0   0   0   0   0  11   0
 46 156 178 177 175 164 143 156 174 176 168 177 193 203 203 196 193 192 187 177 165 161 155 148
141 128 112  90  57  38  31  24  23   2   0   0   0   0   0   0   0   0   0   0   0   0   0   0
  0   0   0   0   0   0   0   0   0   0   0   0   0   0   0   0   0   0   0   0   0   0   0   0
  0   0   0   0
  0   0   0   0   0   0   0   0   0   0   0   0   0   0   0   0   0   0   0   0   0   0  11   0
 45 156 171 167 168 159 140 141 157 164 161 165 174 185 198 200 193 192 184 165 144 130 123 118
110 100  84  70  55  38  23  20  10   0   0   0   0   0   0   0   0   0   0   0   0   0   0   0
  0   0   0   0   0   0   0   0   0   0   0   0   0   0   0   0   0   0   0   0   0   0   0   0
  0   0   0   0
  0   0   0   0   0   0   0   0   0   0   0   0   0   0   0   0   0   0   0   0   0   0  10   0
 44 150 163 152 157 159 149 142 144 153 158 160 163 171 180 180 168 166 174 156 135 120 109  98
 85  76  71  62  38  26  17  10   0   0   0   0   0   0   0   0   0   0   0   0   0   0   0   0
  0   0   0   0   0   0   0   0   0   0   0   0   0   0   0   0   0   0   0   0   0   0   0   0
  0   0   0   0
  0   0   0   0   0   0   0   0   0   0   0   0   0   0   0   0   0   0   0   0   0   0   9   0
 41 144 157 146 141 136 133 129 122 124 129 135 139 142 154 148 131 112 115 130 128 108  94  83
 70  57  54  44  22  16  10   1   0   0   0   0   0   0   0   0   0   0   0   0   0   0   0   0
  0   0   0   0   0   0   0   0   0   0   0   0   0   0   0   0   0   0   0   0   0   0   0   0
  0   0   0   0
  0   0   0   0   0   0   0   0   0   0   0   0   0   0   0   0   0   0   0   0   0   0   9   0
 41 140 154 146 126 110 111 114 110 108 113 113 117 116 122 127 113 105  96  94 101  93  78  70
 62  47  35  25  18  11   3   0   0   0   0   0   0   0   0   0   0   0   0   0   0   0   0   0
  0   0   0   0   0   0   0   0   0   0   0   0   0   0   0   0   0   0   0   0   0   0   0   0
  0   0   0   0
  0   0   0   0   0   0   0   0   0   0   0   0   0   0   0   0   0   0   0   0   0   0   9   0
 43 143 156 144 125 114 106 105 102 101 104 107 104 106 102 108 106  95  93  85  80  79  70  55
 45  34  23  18  12   4   0   0   0   0   0   0   0   0   0   0   0   0   0   0   0   0   0   0
  0   0   0   0   0   0   0   0   0   0   0   0   0   0   0   0   0   0   0   0   0   0   0   0
  0   0   0   0
  0   0   0   0   0   0   0   0   0   0   0   0   0   0   0   0   0   0   0   0   0   0  11   0
 45 151 155 133 118 110 101  97  97  94  94  97  98  96  95  95  95  88  79  74  69  62  54  42
 31  23  15  12   5   0   0   0   0   0   0   0   0   0   0   0   0   0   0   0   0   0   0   0
  0   0   0   0   0   0   0   0   0   0   0   0   0   0   0   0   0   0   0   0   0   0   0   0
  0   0   0   0
  0   0   0   0   0   0   0   0   0   0   0   0   0   0   0   0   0   0   0   0   0   0  10   0
 44 142 147 129 109  95  87  86  89  88  85  87  94  89  89  88  81  76  69  61  54  48  38  31
 22  15  11   4   0   0   0   0   0   0   0   0   0   0   0   0   0   0   0   0   0   0   0   0
  0   0   0   0   0   0   0   0   0   0   0   0   0   0   0   0   0   0   0   0   0   0   0   0
  0   0   0   0
  0   0   0   0   0   0   0   0   0   0   0   0   0   0   0   0   0   0   0   0   0   0   9   0
 42 137 147 134 107  85  76  77  77  78  84  80  83  82  77  75  69  64  58  50  42  35  26  20
 14  10   4   0   0   0   0   0   0   0   0   0   0   0   0   0   0   0   0   0   0   0   0   0
  0   0   0   0   0   0   0   0   0   0   0   0   0   0   0   0   0   0   0   0   0   0   0   0
  0   0   0   0
  0   0   0   0   0   0   0   0   0   0   0   0   0   0   0   0   0   0   0   0   0   0   8   0
 40 136 144 132 108  82  71  72  70  69  75  73  71  73  66  64  59  53  44  37  32  23  16  12
  8   2   0   0   0   0   0   0   0   0   0   0   0   0   0   0   0   0   0   0   0   0   0   0
  0   0   0   0   0   0   0   0   0   0   0   0   0   0   0   0   0   0   0   0   0   0   0   0
  0   0   0   0
  0   0   0   0   0   0   0   0   0   0   0   0   0   0   0   0   0   0   0   0   0   0   8   0
 41 133 138 133 116  82  65  65  62  63  61  61  57  60  55  51  47  40  32  26  19  13  11   7
  1   0   0   0   0   0   0   0   0   0   0   0   0   0   0   0   0   0   0   0   0   0   0   0
  0   0   0   0   0   0   0   0   0   0   0   0   0   0   0   0   0   0   0   0   0   0   0   0
  0   0   0   0
  0   0   0   0   0   0   0   0   0   0   0   0   0   0   0   0   0   0   0   0   0   0   8   0
 41 133 133 132 127  85  55  54  55  55  51  50  49  48  43  36  33  26  19  14  10   7   4   0
  0   0   0   0   0   0   0   0   0   0   0   0   0   0   0   0   0   0   0   0   0   0   0   0
  0   0   0   0   0   0   0   0   0   0   0   0   0   0   0   0   0   0   0   0   0   0   0   0
  0   0   0   0
  0   0   0   0   0   0   0   0   0   0   0   0   0   0   0   0   0   0   0   0   0   0   8   0
 41 134 134 124 128  94  45  46  46  45  44  40  38  34  27  24  20  17  11   7   5   1   0   0
  0   0   0   0   0   0   0   0   0   0   0   0   0   0   0   0   0   0   0   0   0   0   0   0
  0   0   0   0   0   0   0   0   0   0   0   0   0   0   0   0   0   0   0   0   0   0   0   0
  0   0   0   0
  0   0   0   0   0   0   0   0   0   0   0   0   0   0   0   0   0   0   0   0   0   0   8   0
 43 133 132 119 129 103  40  39  38  36  34  29  22  17  16  13  12   7   3   1   0   0   0   0
  0   0   0   0   0   0   0   0   0   0   0   0   0   0   0   0   0   0   0   0   0   0   0   0
  0   0   0   0   0   0   0   0   0   0   0   0   0   0   0   0   0   0   0   0   0   0   0   0
  0   0   0   0
  0   0   0   0   0   0   0   0   0   0   0   0   0   0   0   0   0   0   0   0   0   0   9   0
 45 138 134 118 130 112  39  30  33  27  20  16  14  12   7   4   1   0   0   0   0   0   0   0
  0   0   0   0   0   0   0   0   0   0   0   0   0   0   0   0   0   0   0   0   0   0   0   0
  0   0   0   0   0   0   0   0   0   0   0   0   0   0   0   0   0   0   0   0   0   0   0   0
  0   0   0   0
  0   0   0   0   0   0   0   0   0   0   0   0   0   0   0   0   0   0   0   0   0   0   8   0
 40 136 140 123 130 121  46  21  27  19  18  15  10   4   1   0   0   0   0   0   0   0   0   0
  0   0   0   0   0   0   0   0   0   0   0   0   0   0   0   0   0   0   0   0   0   0   0   0
  0   0   0   0   0   0   0   0   0   0   0   0   0   0   0   0   0   0   0   0   0   0   0   0
  0   0   0   0
  0   0   0   0   0   0   0   0   0   0   0   0   0   0   0   0   0   0   0   0   0   0   8   0
 39 131 140 124 125 129  58   7  25  16   9   3   0   0   0   0   0   0   0   0   0   0   0   0
  0   0   0   0   0   0   0   0   0   0   0   0   0   0   0   0   0   0   0   0   0   0   0   0
  0   0   0   0   0   0   0   0   0   0   0   0   0   0   0   0   0   0   0   0   0   0   0   0
  0   0   0   0
  0   0   0   0   0   0   0   0   0   0   0   0   0   0   0   0   0   0   0   0   0   0   8   0
 38 131 139 122 113 133  84   0  17   0   0   0   0   0   0   0   0   0   0   0   0   0   0   0
  0   0   0   0   0   0   0   0   0   0   0   0   0   0   0   0   0   0   0   0   0   0   0   0
  0   0   0   0   0   0   0   0   0   0   0   0   0   0   0   0   0   0   0   0   0   0   0   0
  0   0   0   0
  0   0   0   0   0   0   0   0   0   0   0   0   0   0   0   0   0   0   0   0   0   0   9   0
 41 138 139 116 110 141  98   0  10   0   0   0   0   0   0   0   0   0   0   0   0   0   0   0
  0   0   0   0   0   0   0   0   0   0   0   0   0   0   0   0   0   0   0   0   0   0   0   0
  0   0   0   0   0   0   0   0   0   0   0   0   0   0   0   0   0   0   0   0   0   0   0   0
  0   0   0   0
