P2
# 8-bit pgm gray
100 100
255
  0 195 221 158  92  89  90  87  84  83  83  82  82  81  80  80  78  76  72 100 141 165 169 159
166 159 136 100  67  67  68  64  66  65  63  60  57  56  52  48  46  40  35  32  27  25  22  19
 17  12   9   7   5   4   3   2   2   3   3   4   6   8  15  31  42  43  47  59  74  89 102 113
128 128 127 134 138 138 139 148 163 172 178 184 186 188 191 192 191 190 191 189 186 182 182 194
203 214 191  39
  0 197 221 141   0   0   0   0   0   0   0   0   0   0   0   0   0   0   0  85 146 180 171 122
170 172 141  85   0   0   0   0   0   0   0   0   0   0   0   0   0   0   0   0   0   0   0   0
  0   0   0   0   0   0   0   0   1   2   4   5   7  10  14  24  40  55  64  66  79  93 107 122
139 138 138 146 153 152 153 156 173 185 193 199 204 208 210 212 210 209 210 209 207 202 201 203
203 203 177  38
  0 196 220 145  28  19  27  22  21  21  21  20  20  20  20  19  21  17  21  99 156 189 178 122
176 180 151  96  21  14  17  14  14  14  14  12  11  11  10   8   8   6   5   4   3   3   2   2
  2   1   1   1   0   0   1   1   3   4   6   8  10  13  16  20  27  42  61  76  80  85  96 114
131 130 133 142 145 147 148 147 156 173 184 190 195 201 202 203 204 203 205 204 202 199 197 196
198 200 175  37
  0 196 220 143   5   0   5   0   0   0   0   0   0   0   0   0   1   0  10 102 161 183 145 114
183 183 153  94   5   0   1   0   0   0   0   0   0   0   0   0   0   0   0   0   0   0   0   0
  0   0   0   0   0   0   1   3   4   7   8  10  13  16  20  24  29  35  47  66  83  95 103 115
121 122 129 137 142 148 152 151 151 169 182 187 195 200 202 204 206 206 206 206 203 203 202 197
192 199 176  38
  0 196 220 143   7   0   7   0   0   0   0   0   0   0   0   0   4   0  18 107 167 182 148 163
193 186 155  94   2   0   3   0   0   0   0   0   0   0   0   0   0   0   0   0   0   0   0   0
  0   0   0   0   0   2   3   4   6   9  11  13  16  20  24  29  34  39  46  54  69  91 113 121
122 122 124 128 136 141 146 152 150 161 178 186 192 196 201 204 205 205 204 205 202 200 202 196
192 199 178  38
  0 196 220 143   5   0   7   0   0   0   0   0   0   0   0   0   4   0  22 111 167 191 201 202
196 184 155  92   0   0   2   0   0   0   0   0   0   0   0   0   0   0   0   0   0   0   0   0
  0   0   0   1   2   3   5   6   8  11  14  18  20  24  29  34  39  44  50  60  71  85  95 108
126 134 133 131 131 138 144 146 150 154 171 185 190 196 199 203 204 202 202 204 204 198 199 196
193 200 178  41
  0 196 219 142   4   0   7   0   0   0   0   0   0   0   0   0   4   0  24 112 155 147 139 148
147 135 147  85   0   0   2   0   0   0   0   0   0   0   0   0   0   0   0   0   0   0   0   0
  0   0   1   2   4   5   7   9  11  14  17  22  27  31  35  39  47  57  68  76  81  85  91  98
107 119 130 140 142 144 145 146 149 150 161 179 187 193 199 203 205 203 202 203 204 197 195 198
194 200 176  39
  0 196 219 141   1   0   7   0   0   0   0   0   0   0   0   0   4   0  26 113 147 115 100  62
 56 101 135  78   0   1   2   0   0   0   0   0   0   0   0   0   0   0   0   0   0   0   0   0
  0   1   2   3   5   7   9  11  14  17  21  26  32  35  42  52  63  75  84  84  84  85  91  94
 99 108 115 126 136 144 148 151 152 152 157 173 184 190 197 200 203 204 202 202 204 200 195 196
197 200 179  38
  0 196 219 140   0   0   6   0   0   0   0   0   0   0   0   0   4   0  31 111 135 107 110  78
 71 112 132  74   0   1   1   0   0   0   0   0   0   0   0   0   0   0   0   0   0   0   0   0
  1   2   4   5   7  10  12  14  17  21  26  30  35  45  60  68  70  73  78  81  86  93  98 100
105 110 115 118 123 133 141 146 151 155 157 168 184 189 197 200 202 203 204 203 202 199 195 193
198 203 178  40
  0 196 218 139   0   0   6   0   0   0   0   0   0   0   0   0   5   0  40 102 101 116 136 154
142 127 133  71   0   2   1   0   0   0   0   0   0   0   0   0   0   0   0   0   0   0   0   1
  2   4   6   7  10  13  15  19  23  27  32  39  49  61  64  62  66  72  81  88  92  97 104 108
111 113 118 123 126 131 134 137 142 145 148 158 178 190 197 200 201 205 205 203 201 201 197 193
194 203 178  39
  0 196 218 139   0   0   6   0   0   0   0   0   0   0   0   0   4   0  37 102 138 161 174 178
171 154 125  66   0   2   1   0   0   0   0   0   0   0   0   0   0   0   0   0   0   0   1   2
  4   6   8  10  13  16  20  24  27  35  46  54  57  60  64  70  73  79  86  91  96  97 102 110
114 117 121 127 131 132 136 138 141 142 145 148 166 185 193 199 201 205 205 204 203 203 199 193
194 203 178  38
  0 196 218 138   0   0   6   0   0   0   0   0   0   0   0   0   2   0  31  87 126 145 153 155
150 136 106  56   0   1   1   0   0   0   0   0   0   0   0   0   0   0   0   0   0   1   3   5
  6   8  13  14  15  21  24  29  38  47  54  55  58  61  69  75  80  86  90  95  99 105 109 111
117 124 127 128 132 135 139 140 141 146 150 149 159 179 187 194 199 203 205 202 201 201 199 195
193 202 178  36
  0 196 217 137   0   0   6   0   0   0   0   0   0   0   0   0   0   0  10  35  52  66  74  80
 79  73  59  31   0   0   0   0   0   0   0   0   0   0   0   0   0   0   0   0   1   3   4   7
  9  12  15  18  22  26  33  43  49  52  56  62  71  78  84  88  91  95  98 105 110 112 116 119
120 124 131 135 136 137 139 143 144 144 149 152 154 172 183 190 197 199 202 201 200 198 199 195
190 201 179  36
  0 195 217 136   0   0   6   0   0   0   0   0   0   0   0   0   0   0   0   0   0   0   0   0
  0   0   0   0   0   0   0   0   0   0   0   0   0   0   0   0   0   0   0   1   2   4   7  10
 13  16  19  23  28  37  47  53  55  59  64  72  78  84  90  95  99 101 105 108 111 116 121 124
127 129 135 140 139 142 143 147 147 145 146 149 151 162 178 187 194 197 200 199 199 197 197 196
191 202 180  38
  0 195 216 136   0   0   5   0   0   0   0   0   0   0   0   0   0   0   1   4   7   9  10   9
  8   5   2   0   0   0   0   0   0   0   0   0   0   0   0   0   0   0   1   3   5   7   9  12
 15  18  21  27  37  43  46  49  57  66  74  77  80  84  87  93 100 104 108 113 116 118 121 126
129 131 133 136 140 142 144 145 145 144 143 145 149 156 174 183 190 194 198 197 198 199 198 200
195 201 177  36
  0 195 216 135   0   0   5   0   0   0   0   0   0   0   0   0   0   0   0   0   0   0   0   0
  1   1   1   0   0   0   0   0   0   0   0   0   0   0   0   0   0   1   2   4   7   9  11  14
 17  21  28  37  44  45  47  55  65  70  74  83  90  95 101 102 105 109 112 116 123 125 126 130
132 134 133 135 139 140 141 143 144 146 146 147 149 151 167 182 189 195 196 199 200 201 199 198
194 199 178  37
  0 195 215 134   0   0   5   0   0   0   0   0   0   0   0   0   0   0   0   1   1   0   0   0
  0   0   0   0   0   0   0   0   0   0   0   0   0   0   0   0   1   2   4   6   8  11  14  17
 22  29  37  41  43  50  57  65  74  77  85  93  98 104 110 112 114 116 117 119 122 126 130 133
136 139 141 142 142 141 142 141 142 144 144 144 147 147 159 177 186 194 195 197 198 198 196 193
194 201 178  38
  0 195 215 133   0   0   5   0   0   0   0   0   0   0   0   0   0   0   0   6  12   0   0   1
  6   3   0   0   0   0   0   0   0   0   0   0   0   0   0   1   3   4   6   8  11  14  17  23
 32  38  39  44  50  58  66  78  90  90  96 109 109 108 111 115 119 121 123 127 129 129 134 136
137 140 143 145 143 142 143 141 141 142 144 144 143 143 149 167 179 186 191 194 194 194 194 193
194 203 178  34
  0 195 215 132   0   0   5   0   0   0   0   0   0   0   0   0   0   0   2  10   8   0   0   3
  9   2   0   0   0   0   0   0   0   0   0   0   0   0   1   2   4   5   7  11  14  16  22  31
 35  39  44  50  59  66  77  97 101  97 108 118 112 111 116 119 122 124 127 132 135 136 139 142
142 145 146 144 142 143 142 141 143 142 144 146 145 144 144 157 169 180 189 192 193 194 195 196
191 201 182  36
  0 195 214 131   0   0   5   0   0   0   0   0   0   0   0   0   0   0   3  10   2   0   0   0
  8   5   0   0   0   0   0   0   0   0   0   0   0   1   3   4   6   8  10  13  17  24  31  35
 37  43  54  64  73  84  92 101 106 111 120 119 114 115 120 123 125 131 135 134 137 141 143 146
147 145 145 144 142 142 142 141 143 142 142 146 148 147 145 155 167 176 185 191 193 194 194 195
190 199 182  39
  0 194 214 130   0   1   4   0   0   0   0   0   0   0   0   0   0   0   0   3   3   0   0   1
  6   4   0   0   0   0   0   0   0   0   0   0   0   2   4   6   8  11  15  19  27  33  34  38
 47  55  62  67  81  98 100 108 115 117 121 126 126 124 126 128 131 135 138 139 143 146 148 146
146 147 143 141 141 142 142 142 141 139 142 144 145 144 143 149 163 174 182 190 193 194 194 193
190 198 184  42
  0 194 213 129   0   2   4   0   0   0   0   0   0   0   0   0   0   0   0   0   0   0   0   0
  0   0   0   0   0   0   0   0   0   0   0   0   2   4   6   9  11  15  19  26  30  34  39  46
 56  63  69  78  90 102 103 113 118 118 123 130 132 131 132 132 135 137 138 142 145 146 147 150
151 152 149 145 143 142 142 142 140 142 142 141 144 143 139 144 157 171 177 185 191 194 193 192
193 199 181  44
  0 194 212 128   0   2   4   0   0   0   0   0   0   0   0   0   0   0   0   0   0   0   0   0
  0   0   0   0   0   0   0   0   0   0   1   3   4   5   8  11  14  19  25  29  32  39  48  58
 63  73  83  89 105 116 116 121 124 125 126 129 132 133 137 135 138 143 142 143 145 146 146 147
150 149 147 147 146 142 143 145 142 143 141 140 140 142 140 141 154 168 176 183 190 192 192 192
192 198 178  42
  0 193 212 127   0   3   4   0   0   0   0   0   0   0   0   0   0   0   0   0   0   0   0   0
  0   0   0   0   0   0   0   0   0   0   2   5   5   8  12  13  20  28  29  34  43  50  58  66
 73  86  91  93 106 113 120 121 123 131 130 131 133 134 137 139 141 144 146 148 147 146 146 148
150 148 145 146 147 145 145 145 143 143 140 140 140 142 140 141 150 162 173 181 187 191 192 189
188 198 175  35
  0 193 211 126   0   4   4   0   0   0   0   0   0   0   0   0   0   0   0   0   0   0   0   0
  0   0   0   0   0   0   0   0   0   1   3   6   9  12  16  21  28  31  34  43  50  57  66  75
 87  95  98 100 106 111 120 124 128 139 135 134 136 137 140 142 144 145 148 151 153 152 151 150
149 147 145 143 143 143 145 144 142 141 142 140 140 142 143 140 148 158 169 176 184 189 189 188
186 197 177  36
  0 193 211 124   0   4   4   0   0   0   0   0   0   0   0   0   0   0   0   0   0   0   0   0
  0   0   0   0   0   0   0   0   1   2   5   8  14  17  23  28  31  36  43  51  58  68  76  86
 95  96 103 109 114 122 130 132 135 141 141 142 144 145 147 150 152 152 157 159 159 158 154 154
148 144 142 140 141 140 141 143 142 141 144 144 140 140 142 140 145 156 166 173 180 186 189 190
188 193 178  43
  0 193 210 123   0   4   3   0   0   0   0   0   0   0   0   0   0   0   0   0   0   0   0   0
  0   0   0   0   0   0   0   1   2   4   7  11  16  23  29  31  36  42  52  62  69  78  83  94
101 104 114 122 127 132 138 140 142 146 145 147 150 151 152 154 153 152 155 158 156 155 153 152
152 146 145 144 142 141 141 141 141 140 142 143 140 139 140 140 144 154 162 171 176 183 188 190
187 193 179  43
  0 193 210 122   0   5   3   0   0   0   0   0   0   0   0   0   0   0   0   0   0   0   0   0
  0   0   0   0   0   0   1   2   4   7  11  16  21  27  35  38  44  56  63  69  79  89  98 106
114 124 127 132 135 137 142 144 146 152 150 150 150 153 157 158 157 155 154 153 154 153 151 151
152 148 144 144 144 146 145 144 142 138 139 140 138 139 142 143 145 150 159 169 174 180 187 189
188 193 175  40
  0 192 209 121   0   6   3   0   0   0   0   0   0   0   0   0   0   0   0   0   0   0   0   0
  0   0   0   0   0   0   2   4   6  10  15  20  27  34  42  45  53  66  73  81  93 106 116 119
122 129 133 137 144 148 150 151 153 157 157 156 156 156 160 160 162 166 164 159 161 158 155 152
150 148 147 145 145 145 143 143 142 142 141 139 139 140 144 143 142 148 158 167 173 176 185 190
188 193 173  39
  0 192 208 120   0   6   3   0   0   0   0   0   0   0   0   0   0   0   0   0   0   0   0   0
  0   0   0   0   0   1   3   6   9  13  18  26  36  40  51  59  66  78  87  94 105 113 121 131
132 137 146 151 155 155 156 157 157 158 158 156 157 158 158 156 157 161 160 158 159 157 155 150
150 150 147 147 148 143 141 140 140 140 140 140 141 140 142 142 145 150 156 165 172 175 179 186
188 193 171  40
  0 192 208 119   0   6   3   0   0   0   0   0   0   0   0   0   0   0   0   0   0   0   0   0
  0   0   0   0   1   3   5   9  12  18  24  33  42  47  56  68  77  86  94 101 107 115 126 133
142 150 152 152 150 151 157 157 158 161 159 156 155 155 154 154 154 155 151 149 150 151 153 152
147 149 148 147 148 146 142 142 142 139 141 143 142 140 140 144 143 148 156 164 172 176 178 187
187 191 170  40
  0 192 207 118   0   7   3   0   0   0   0   0   0   0   0   0   0   0   0   0   0   0   0   0
  0   0   0   1   2   4   8  12  17  23  31  38  47  55  65  76  83  92 101 111 122 129 129 135
145 149 149 147 147 153 157 158 158 159 160 159 156 155 157 155 152 152 152 151 149 147 150 152
149 146 147 147 147 146 141 140 139 141 142 141 140 140 139 141 143 147 155 162 170 177 182 188
185 189 170  38
  0 192 207 117   0   7   3   0   0   0   0   0   0   0   0   0   0   0   0   0   0   0   0   0
  0   0   0   2   4   7  11  15  22  28  36  44  54  67  78  85  94 102 112 122 130 132 135 146
153 154 155 156 158 159 160 161 160 160 162 162 161 160 157 154 152 153 155 153 150 150 149 149
152 150 148 148 147 143 144 142 140 140 140 140 139 139 139 142 141 142 150 158 167 173 174 181
183 190 168  36
  0 191 207 116   0   8   2   0   0   0   0   0   0   0   0   0   0   0   0   0   0   0   0   0
  0   0   2   4   6  10  14  20  27  35  46  53  65  81  88  94 105 114 120 128 134 140 148 153
157 157 156 159 161 160 158 157 157 156 158 156 157 156 152 154 153 151 151 150 150 152 154 153
155 153 147 146 148 143 141 143 145 143 140 139 139 138 138 141 138 142 150 156 164 168 170 178
182 187 167  37
  0 191 206 115   0   8   2   0   0   0   0   0   0   0   0   0   0   0   0   0   0   0   0   0
  0   1   3   5   9  14  19  25  33  45  54  65  76  89 101 111 121 127 131 139 145 150 153 155
159 160 159 161 160 160 160 161 158 157 159 156 153 153 152 153 152 150 150 151 151 151 151 150
149 149 147 146 147 144 142 146 149 149 145 140 140 138 138 138 139 143 148 156 163 170 171 176
180 187 170  38
  0 192 206 114   0   8   2   0   0   0   0   0   0   0   0   0   0   0   0   0   0   0   0   0
  0   2   4   8  12  17  23  32  42  55  64  78  88  99 111 120 129 134 139 149 153 154 158 162
165 163 162 161 160 160 163 163 161 160 160 159 155 155 153 151 151 151 150 151 151 151 148 147
147 148 148 147 145 146 145 144 144 145 145 139 137 135 136 138 140 143 151 158 163 170 172 176
179 187 169  36
  0 191 206 113   0   9   2   0   0   0   0   0   0   0   0   0   0   0   0   0   0   0   0   0
  1   3   6  10  15  21  30  40  51  64  77  89 101 110 118 125 134 139 146 153 157 161 162 163
165 168 167 164 163 162 163 164 163 161 163 162 159 157 154 153 154 154 151 150 150 151 149 148
148 148 148 146 146 146 146 145 144 142 143 140 136 137 138 139 141 144 149 155 161 167 173 176
179 191 174  39
  0 191 205 113   0   9   2   0   0   0   0   0   0   0   0   0   0   0   0   0   0   0   0   0
  2   5   9  13  20  28  39  49  63  76  85 101 114 119 129 135 142 151 158 161 164 167 168 167
166 166 167 165 162 161 161 161 164 162 163 163 162 159 154 155 154 152 150 150 149 148 146 147
146 146 147 146 143 143 146 145 146 146 143 140 137 138 139 140 139 142 148 155 161 167 175 179
187 199 174  38
  0 191 205 112   0   9   2   0   0   0   0   0   0   0   0   0   0   0   0   0   0   0   0   1
  4   7  12  18  26  35  45  60  75  84  94 112 121 130 138 143 154 162 165 163 163 167 167 165
165 163 163 162 160 160 162 160 160 160 161 161 159 156 155 154 153 153 150 149 150 149 147 148
149 146 146 149 147 145 145 144 145 142 140 140 140 138 139 140 139 142 150 161 169 173 177 183
184 187 164  36
  0 191 205 112   0   9   2   0   0   0   0   0   0   0   0   0   0   0   0   0   0   0   1   3
  6  10  16  24  33  44  55  71  83  92 106 120 131 137 144 153 163 164 165 165 166 166 165 165
166 163 162 161 157 158 159 159 159 159 157 156 156 156 157 157 154 154 151 149 151 151 150 150
148 148 148 148 149 148 148 145 147 143 140 141 143 145 145 144 145 150 157 165 169 172 177 181
177 182 165  34
  0 191 205 111   0  10   2   0   0   0   0   0   0   0   0   0   0   0   0   0   0   0   2   5
  9  14  20  30  42  54  67  84  94 107 120 132 139 145 153 162 163 163 166 167 166 164 164 164
167 165 162 162 161 162 162 162 162 159 156 157 157 157 159 156 153 153 153 153 153 150 148 147
148 147 146 144 143 147 146 144 149 146 143 142 140 142 145 146 148 149 152 157 164 170 174 180
178 183 165  34
  0 191 205 110   0  10   2   0   0   0   0   0   0   0   0   0   0   0   0   0   0   1   4   7
 11  18  26  37  51  64  82  98 106 120 133 139 144 156 162 163 168 171 170 168 165 164 162 161
165 167 165 166 167 166 163 164 165 160 158 158 158 157 155 152 154 153 154 154 153 152 149 148
150 148 147 147 145 147 147 146 145 144 143 144 144 146 146 142 140 145 148 155 166 168 171 179
176 182 165  34
  0 191 205 110   0  10   2   0   0   0   0   0   0   0   0   0   0   0   0   0   0   2   6  10
 15  23  33  46  60  75  95 107 116 130 142 147 153 163 165 165 170 168 165 165 167 166 164 164
167 166 165 166 166 165 163 162 161 158 157 158 157 157 156 155 152 151 151 149 147 150 150 149
148 147 147 150 149 150 149 144 144 146 150 151 149 145 142 144 143 147 148 158 163 166 173 177
176 184 165  34
  0 191 204 109   0  10   1   0   0   0   0   0   0   0   0   0   0   0   0   0   1   4   8  13
 20  29  41  57  72  90 106 114 127 138 152 160 163 162 165 169 167 164 164 167 167 169 169 164
163 164 165 168 166 165 164 161 158 159 160 159 159 158 156 154 151 147 148 147 146 150 149 148
146 146 147 149 153 152 148 146 147 149 151 149 146 144 144 144 143 145 147 158 163 169 173 178
177 184 165  34
  0 191 204 109   0  10   1   0   0   0   0   0   0   0   0   0   0   0   0   0   2   5  11  16
 25  38  53  67  81 105 116 125 138 148 157 159 165 167 168 170 170 169 169 167 166 167 163 161
163 164 169 170 166 164 162 160 161 160 157 158 157 155 153 152 151 150 151 151 151 149 150 149
147 151 152 152 151 149 147 145 145 145 145 145 144 142 139 139 143 144 151 162 167 169 173 179
177 182 164  35
  0 191 204 108   0  11   1   0   0   0   0   0   0   0   0   0   0   0   0   1   3   7  15  22
 32  47  63  78  93 116 129 140 146 152 156 164 171 168 169 169 167 169 170 168 166 163 163 164
167 170 173 169 164 164 165 162 159 159 160 161 159 156 156 158 157 159 158 156 156 154 150 149
149 150 149 150 147 145 144 145 144 140 141 142 142 141 141 143 143 146 154 161 166 170 175 178
176 181 163  35
  0 191 204 108   0  11   1   0   0   0   0   0   0   0   0   0   0   0   0   2   5   8  18  30
 40  56  74  90 106 124 133 146 155 155 166 172 169 167 169 168 167 168 168 167 165 164 166 166
166 171 170 166 164 165 168 165 161 163 160 158 157 156 157 159 157 155 155 153 150 148 147 149
151 148 149 150 147 147 148 147 145 143 141 141 142 142 143 141 140 145 152 158 165 170 175 175
174 179 161  35
  0 191 204 108   0  11   1   0   0   0   0   0   0   0   0   0   0   0   1   3   6  11  21  36
 49  67  84  99 114 127 138 151 161 164 170 170 168 167 168 170 169 167 166 168 168 168 168 167
169 170 165 164 167 167 165 165 162 161 158 155 154 156 155 153 150 150 150 150 150 152 153 150
150 148 149 148 146 146 147 145 142 142 141 142 143 141 140 140 141 146 154 160 167 171 172 171
170 181 163  34
  0 191 204 108   0  11   1   0   0   0   0   0   0   0   0   0   0   0   2   4   9  15  26  42
 62  80  91 106 122 136 150 157 162 166 169 169 169 168 171 171 170 168 166 169 171 171 170 170
170 167 164 163 167 165 162 158 158 159 158 155 156 156 153 149 148 148 148 147 148 153 156 154
153 153 150 148 150 147 146 146 142 143 143 145 144 140 140 142 146 147 155 161 165 166 169 169
170 181 163  35
  0 191 204 108   0  11   1   0   0   0   0   0   0   0   0   0   1   1   2   6  12  18  32  52
 71  89  99 115 133 143 153 160 161 164 169 168 169 171 171 171 172 173 173 174 173 174 174 171
169 166 163 161 161 161 162 159 160 161 159 155 155 155 152 151 152 151 151 152 153 156 154 152
153 154 148 146 150 150 150 148 146 146 144 143 143 143 144 146 146 147 154 159 163 166 169 171
171 181 164  35
  0 191 205 108   0  11   1   1   1   0   0   0   0   0   0   0   4   5   3   8  16  23  39  60
 75  94 109 124 140 146 156 161 162 168 171 171 172 172 173 173 173 176 177 176 173 173 172 169
166 165 161 161 161 161 161 161 163 162 160 157 155 155 158 157 155 157 158 157 155 153 149 150
150 149 149 149 145 143 144 145 146 146 145 144 147 149 148 145 143 146 153 158 164 168 174 176
172 182 166  36
  0 192 205 108   0  12   1   0   0   0   0   0   0   0   0   0   0   2   5   9  18  29  48  72
 86 102 118 136 144 154 163 164 168 172 172 176 172 171 174 173 174 172 172 171 170 168 170 168
163 163 161 162 161 161 159 161 162 160 161 163 159 158 161 156 155 160 162 160 157 152 153 153
151 154 151 151 149 148 149 149 148 147 145 145 146 145 144 143 145 145 152 161 166 170 175 175
171 182 166  36
  0 192 204 107   0  12   1   0   0   0   0   0   0   0   0   0   0   2   6  12  21  35  54  80
 98 110 129 145 148 160 163 166 170 171 171 173 173 171 171 170 170 169 168 167 168 166 166 166
164 162 162 159 158 160 161 161 159 158 159 157 154 154 153 153 155 157 158 158 156 150 154 154
153 152 148 151 152 154 151 148 147 148 147 144 141 142 140 142 144 148 154 161 163 167 168 170
170 181 164  35
  0 192 204 107   0  12   1   0   0   0   0   0   0   0   0   0   1   3   7  15  24  43  60  81
102 117 130 142 153 160 164 169 169 172 172 171 170 168 168 168 170 168 167 169 167 163 163 166
166 164 161 160 161 160 161 160 158 159 157 153 156 155 153 150 152 155 154 155 158 153 150 150
151 150 150 149 147 144 140 139 141 145 141 140 144 144 144 144 145 150 150 154 160 165 166 169
170 179 164  36
  0 191 204 106   0  12   1   0   0   0   0   0   0   0   0   0   1   4   9  18  30  46  67  86
108 126 131 143 153 161 168 172 172 174 171 169 168 169 170 170 171 170 170 170 167 165 166 164
164 165 165 166 163 161 158 158 156 155 155 155 156 157 156 155 158 156 153 155 155 153 151 152
156 153 148 147 143 140 141 141 142 142 140 144 145 143 143 142 144 146 152 157 161 164 165 168
171 180 164  36
  0 192 204 106   0  12   1   0   0   0   0   0   0   0   0   0   2   5  12  21  36  51  69  90
115 131 144 152 158 166 173 175 177 173 167 168 169 171 171 172 171 170 169 165 165 165 165 166
168 165 165 165 164 161 157 157 160 161 158 156 153 157 158 157 156 153 153 154 155 151 152 155
152 150 150 149 148 147 146 146 146 145 145 146 141 141 142 143 146 149 149 150 156 160 163 167
169 178 163  37
  0 192 205 106   0  12   1   0   0   0   0   0   0   0   0   1   2   7  14  24  41  57  74  93
113 134 148 158 169 172 173 174 176 170 168 169 170 172 172 171 169 170 168 165 163 163 167 168
165 165 164 160 161 162 161 162 162 161 158 157 159 164 165 162 156 149 151 151 152 151 152 156
149 149 150 149 148 146 145 143 142 142 144 142 141 143 142 141 142 140 139 140 150 158 162 167
170 180 163  35
  0 192 205 106   0  12   1   0   0   0   0   0   0   0   0   1   3   9  16  27  43  61  78  97
113 138 149 154 167 174 179 176 174 172 171 171 172 171 172 171 170 171 167 164 164 167 169 164
164 169 165 159 161 161 162 162 160 158 161 161 161 163 163 158 153 150 152 149 147 150 152 152
152 153 151 148 149 146 141 140 142 141 141 140 140 139 136 140 138 136 138 138 144 155 161 168
171 180 161  36
  0 192 205 105   0  12   1   0   0   0   0   0   0   0   0   1   4   9  17  30  45  64  80 101
117 137 153 162 165 173 184 179 174 174 173 173 173 173 174 171 171 169 164 165 167 166 163 165
168 168 163 162 160 158 159 159 162 165 165 163 161 159 155 152 153 150 151 152 150 153 155 154
156 153 151 150 147 145 145 145 144 145 144 142 138 139 144 143 137 136 137 137 142 154 162 167
167 175 158  36
  0 192 204 106   0  12   1   0   0   0   0   0   0   0   0   2   5  11  20  33  48  64  83 103
116 132 151 167 168 172 178 176 177 176 174 175 172 174 174 170 168 170 167 166 167 164 166 173
170 167 163 164 163 160 159 160 162 163 159 157 157 157 153 154 154 152 152 155 157 155 154 157
154 150 152 150 148 146 145 144 144 146 143 138 138 145 146 140 136 134 133 138 143 147 152 159
162 174 157  32
  0 192 204 106   0  12   1   0   0   0   0   0   0   0   0   2   5  13  25  35  49  65  84 104
116 131 150 161 169 174 174 173 172 174 176 175 175 173 170 169 167 169 167 167 169 171 172 171
167 168 165 164 163 161 162 160 160 158 155 154 156 152 150 151 153 157 154 154 154 154 154 153
151 149 147 148 149 146 142 144 143 142 140 140 148 146 139 138 136 135 138 141 139 137 140 147
156 169 155  34
  0 192 205 106   0  12   1   0   0   0   0   0   0   0   0   3   5  13  26  38  50  67  89 106
116 134 151 156 167 173 173 173 172 171 174 176 174 172 168 168 171 170 168 169 170 170 171 167
169 171 166 163 163 161 162 161 159 159 157 154 154 152 153 152 153 155 152 152 153 153 150 150
150 148 148 148 144 144 146 144 142 144 142 148 148 140 136 136 136 138 135 133 130 129 130 141
153 164 147  29
  0 192 205 106   0  12   1   0   0   0   0   0   0   0   0   3   5  13  25  35  57  75  92 109
119 140 151 158 168 170 170 172 173 172 176 175 170 171 171 172 170 170 173 170 167 167 171 172
169 166 163 165 166 164 167 164 159 160 158 155 153 154 155 151 150 149 147 147 150 151 150 147
146 149 148 147 147 148 146 145 146 146 151 148 137 136 138 136 138 137 133 130 127 127 130 139
145 154 139  30
  0 192 204 105   0  12   1   0   0   0   0   0   0   0   1   4   6  13  26  30  62  85  91 110
127 142 151 158 167 170 171 173 172 172 173 174 171 174 177 172 167 170 172 170 170 170 167 165
163 164 164 166 167 170 171 164 159 158 156 156 155 154 153 151 149 148 150 151 151 152 150 148
149 151 149 151 150 145 145 151 151 150 147 141 140 140 138 138 139 136 132 128 126 129 130 130
135 149 138  30
  0 192 204 105   0  12   0   0   0   0   0   0   0   0   0   2   8  14  26  33  61  84  89 110
128 142 151 156 164 171 172 171 173 173 170 173 174 176 176 172 171 169 168 170 169 167 165 163
164 163 163 162 163 167 167 166 163 160 158 156 155 153 151 149 149 152 158 155 152 150 149 152
153 152 152 153 148 146 149 149 149 147 144 143 143 142 141 142 138 130 125 126 126 126 122 120
128 141 128  24
  0 192 204 104   0  14   6   0  10   6   0   0   1   0  15  28   6  16  25  33  56  77  87 110
126 139 152 157 163 169 173 171 174 174 171 175 174 174 173 173 170 169 169 171 171 170 171 166
164 165 165 165 164 165 165 161 158 159 158 156 153 152 153 152 152 155 156 153 153 153 155 155
153 150 150 150 149 149 150 150 146 143 143 141 141 144 145 137 130 128 125 123 122 116 113 120
121 119 108  22
  0 192 204 104   0  14   5   0  10   6   0   0   0   0  11  23   7  15  25  31  46  72  88 108
126 141 153 156 160 167 172 172 173 173 172 173 171 173 173 172 172 171 172 177 174 171 170 167
167 164 164 167 165 163 163 158 157 158 154 154 155 154 156 155 154 155 153 153 155 156 156 153
152 150 149 149 152 150 152 148 142 142 140 140 143 145 140 132 131 128 122 118 114 110 116 116
104 106  96  17
  0 192 204 104   0  12   0   0   0   0   0   0   3   1   0   1  10  13  28  40  42  72 102 113
130 145 151 155 160 166 171 172 172 170 171 173 172 173 173 174 174 176 178 179 173 169 165 166
167 163 165 164 161 163 161 160 159 157 157 157 155 153 155 156 157 157 156 157 157 155 156 153
153 152 153 153 152 153 150 145 140 139 142 145 144 143 136 129 126 121 117 115 110 113 110  99
 96  97  81  11
  0 192 204 104   0  12   1   0   0   0   0   0   1   0   0   5   7  11  25  43  49  69 101 118
134 145 156 161 162 169 174 172 173 175 177 179 175 176 173 172 173 177 181 175 169 168 165 167
169 165 163 163 164 168 164 159 158 158 157 156 155 155 158 158 156 156 157 158 154 155 155 154
155 153 152 154 153 152 151 144 142 142 148 149 144 135 129 127 120 118 116 112 110 106  96  92
 88  84  70   9
  0 192 204 104   0  12   1   0   0   0   0   0   0   0   0   1   4   9  17  29  47  60  83 114
122 131 160 168 166 172 173 171 176 182 182 177 176 179 174 172 174 174 171 171 170 169 168 168
168 165 165 168 169 167 162 160 159 160 157 158 159 158 159 161 160 159 159 156 156 156 152 152
154 151 152 157 155 152 146 143 143 146 148 146 137 126 124 118 115 116 109 107 104  93  90  84
 77  75  61   4
  0 192 203 104   0  12   1   0   0   0   0   0   0   0   0   0   2   6  14  27  43  57  75 103
122 124 143 157 167 172 175 178 180 183 180 173 172 173 172 175 176 175 170 172 171 168 167 167
167 165 167 169 164 158 157 160 161 158 157 158 156 159 165 164 160 158 155 156 157 150 151 152
152 154 153 152 148 144 144 143 143 150 148 136 128 124 120 115 114 110 103  99  93  87  80  73
 67  61  52   6
  0 192 204 104   0  12   1   0   0   0   0   0   0   0   0   0   2   4  10  22  44  61  74  93
115 131 143 153 170 178 179 181 183 182 180 177 174 172 175 175 176 176 173 173 169 169 169 169
168 165 163 164 163 160 160 161 158 157 160 161 163 166 165 159 155 155 156 155 151 151 152 152
153 152 152 151 146 146 146 141 147 153 141 126 123 121 115 114 109 103  98  91  83  77  70  62
 54  54  48   3
  0 191 203 104   0  12   1   0   0   0   0   0   0   0   0   0   1   3   9  16  43  64  75  87
109 126 143 155 162 173 179 184 184 181 176 175 175 174 175 174 178 175 171 172 172 174 175 170
170 168 166 167 167 164 163 163 164 167 169 167 163 161 157 154 155 159 157 153 156 156 152 152
150 149 153 152 149 147 142 145 151 146 131 125 123 118 113 106 102 100  92  81  75  68  60  53
 49  48  39   2
  0 192 203 104   0  12   1   0   0   0   0   0   0   0   0   0   1   2   8  13  30  54  71  83
112 137 143 158 159 170 177 182 182 179 174 174 175 176 176 178 179 175 174 173 173 174 173 171
170 171 171 170 171 169 166 166 166 165 168 167 164 161 158 158 160 158 155 156 161 155 150 150
150 152 150 148 148 144 146 151 147 137 132 128 121 114 108 100  99  94  82  73  68  59  50  44
 39  37  31   3
  0 192 203 104   0  12   1   0   0   0   0   0   0   0   0   0   1   2   5  15  21  42  68  85
 98 126 150 164 169 179 177 176 182 178 177 179 178 177 175 176 175 176 177 174 173 173 171 173
171 170 172 175 175 170 166 161 160 161 163 167 166 163 160 157 157 154 154 155 154 150 149 151
151 153 150 148 147 147 152 152 139 134 130 121 114 107 102  98  90  79  71  65  58  48  39  35
 31  31  30   3
  0 192 204 104   0  12   1   0   0   0   0   0   0   0   0   0   0   2   4  10  20  32  56  81
 93 106 136 152 161 170 173 179 181 182 185 184 182 179 178 178 177 180 180 177 173 170 171 171
169 173 175 174 168 161 160 160 161 162 165 165 159 158 157 155 157 156 153 151 153 151 150 152
152 152 148 145 147 148 152 147 136 131 120 114 109 101  99  92  80  70  61  57  48  38  32  29
 24  27  29   4
  0 192 204 105   0  12   1   0   0   0   0   0   0   0   0   0   0   1   3   7  15  26  45  67
 92 110 128 141 148 159 172 180 180 181 181 182 179 183 189 185 182 179 176 174 170 171 174 174
175 171 169 167 163 163 163 163 164 163 165 162 158 156 158 161 158 153 152 153 153 152 150 149
152 150 146 145 149 150 150 139 132 123 116 113 103  99  92  79  69  61  53  47  38  31  27  24
 20  24  28   4
  0 192 204 105   0  12   1   0   0   0   0   0   0   0   0   0   0   3   3   5  12  19  35  55
 77  97 113 130 140 148 158 164 176 179 178 182 186 193 190 184 181 173 171 173 176 177 178 178
177 174 172 170 170 168 169 166 164 165 161 159 161 160 159 156 156 154 156 156 150 148 149 152
153 147 147 150 147 144 142 132 125 120 113 106  97  90  79  70  58  51  46  38  30  26  22  18
 17  21  30   7
  0 192 204 104   0  12   1   0   0   0   0   0   0   0   0   0   0   1   1   3   8  15  24  42
 61  82 102 118 133 141 150 158 167 177 180 183 184 183 182 188 191 184 175 175 179 176 172 170
169 171 170 170 169 168 168 165 165 164 160 162 160 157 158 160 161 157 153 150 150 151 152 155
152 150 151 147 141 140 137 128 125 119 105  98  90  78  71  60  50  44  38  30  26  22  17  16
 13  17  33  11
  0 192 204 104   0  12   1   0   0   0   0   0   0   0   0   0   0   0   0   2   5  10  20  31
 49  71  95 115 129 139 147 155 161 173 178 176 178 179 183 189 185 178 175 175 171 168 166 164
162 162 164 169 167 168 167 167 165 160 160 161 160 160 162 162 154 152 151 153 152 154 158 155
151 148 146 143 143 138 129 123 121 106  98  94  80  69  60  50  43  36  29  26  23  19  15  14
 11  13  34  14
  0 192 203 104   0  12   1   0   0   0   0   0   0   0   0   0   0   0   0   2   4   7  15  27
 41  58  80 104 120 135 142 144 153 166 178 182 182 180 179 178 172 173 175 172 169 166 166 165
164 167 168 167 169 168 167 167 165 163 164 166 166 161 158 153 149 150 154 153 151 154 154 149
146 149 145 144 143 133 127 124 111  97  95  84  70  59  49  42  36  29  24  21  19  15  13  11
 10   2  49  28
  0 191 203 103   0  12   1   0   0   0   0   0   0   0   0   0   0   0   0   0   3   6  10  19
 33  49  69  91 104 116 130 139 149 161 170 177 179 174 171 171 170 173 178 171 169 167 165 163
166 169 168 169 170 167 163 164 166 168 168 163 157 155 152 151 153 151 152 151 152 150 148 146
147 148 143 144 135 130 124 116 103  93  82  70  59  52  44  36  29  24  20  17  14  12  10  10
  6   0  73  43
  0 191 203 103   0  12   1   0   0   0   0   0   0   0   0   0   0   0   0   0   1   4   7  12
 25  39  58  85  96  99 113 132 143 153 158 164 176 179 172 172 172 172 174 168 168 170 165 165
171 169 167 166 166 167 168 169 169 164 164 160 154 155 151 153 155 152 149 152 151 147 146 144
146 145 142 136 128 127 117 103  93  81  71  59  50  43  35  28  22  18  17  13  11  10   7   8
  3   0  71  40
  0 191 203 103   0  12   1   0   0   0   0   0   0   0   0   0   0   0   0   0   0   2   4   8
 17  28  39  66  89  98 110 121 133 144 150 160 166 174 177 175 173 173 172 172 171 173 175 175
174 170 167 169 175 177 175 169 164 163 160 157 155 154 153 153 155 152 149 149 149 146 142 143
142 136 133 129 127 120 103  95  83  69  61  52  42  33  26  21  18  15  13  11  10   8   5   7
  0   5  61  30
  0 191 203 103   0  13   1   0   0   0   0   0   0   0   0   0   0   0   0   0   0   1   3   5
 11  21  30  45  70  88 100 110 121 132 142 153 164 169 174 177 179 180 177 177 178 177 177 176
174 175 179 184 183 175 169 166 164 160 157 155 155 155 152 151 154 151 146 146 147 144 142 140
134 128 126 124 119 102  93  90  71  59  50  40  33  26  21  18  15  12  10   9   7   5   4   6
  0  11  54  23
  0 191 203 102   0  13   1   0   0   0   0   0   0   0   0   0   0   0   0   0   0   0   1   4
  7  14  25  34  51  69  84  98 108 118 130 142 155 162 165 169 174 175 176 179 179 175 172 175
177 178 179 176 171 169 170 169 162 158 160 156 156 154 153 154 152 148 147 144 142 142 138 132
128 126 122 117 103  90  89  74  59  48  39  31  26  20  17  15  12  10   9   7   5   4   3   4
  0  15  44  15
  0 191 203 102   0  13   1   0   0   0   0   0   0   0   0   0   0   0   0   0   0   0   0   2
  5   9  17  27  37  54  68  87  98 107 117 133 147 154 156 160 168 173 178 180 178 173 172 173
168 167 169 166 162 163 168 165 159 160 161 157 157 157 156 153 146 145 146 144 141 140 132 127
124 121 115 104  91  88  74  56  49  38  30  25  20  17  14  12  10   9   7   5   5   4   3   3
  0  17  35   7
  0 191 203 102   0  13   1   0   0   0   0   0   0   0   0   0   0   0   0   0   0   0   0   0
  2   6  11  18  27  40  55  72  88  99 110 126 143 152 157 162 167 170 171 175 180 175 172 170
164 165 164 162 160 161 161 161 162 159 156 154 154 154 152 149 147 146 145 144 137 133 125 120
116 115 103  91  86  74  56  47  38  30  24  19  16  13  11  10   8   6   5   4   4   3   2   2
  0  17  29   4
  0 191 202 102   0  12   1   0   0   0   0   0   0   0   0   0   0   0   0   0   0   0   0   0
  1   4   7  13  20  29  41  56  71  86 100 115 130 144 152 154 158 160 157 165 175 176 175 171
164 160 159 159 159 158 159 159 160 156 151 151 150 149 148 146 146 143 139 135 129 123 115 113
112 101  90  81  75  58  45  37  29  25  19  15  13  11   9   8   6   5   4   3   3   2   1   1
  1  14  18   1
  0 191 203 103   0  13   1   0   0   0   0   0   0   0   0   0   0   0   0   0   0   0   0   0
  0   2   5   8  15  21  31  43  57  72  87 102 118 128 133 138 144 148 152 154 158 167 165 161
157 155 156 157 161 162 158 156 155 151 148 150 149 148 145 140 137 133 129 127 120 115 108 108
103  87  78  70  60  46  35  28  24  20  16  13  10   9   8   6   5   4   3   2   2   1   1   0
  2   6   4   0
  0 191 203 102   0  13   1   0   0   0   0   0   0   0   0   0   0   0   0   0   0   0   0   0
  0   0   3   5   9  16  25  35  46  60  75  89 104 113 119 128 135 137 142 146 147 153 155 153
153 157 156 155 158 157 156 156 153 149 147 146 143 140 138 134 130 127 121 117 113 108 106 100
 89  77  69  58  45  34  27  23  20  16  13  10   9   7   6   4   4   3   2   1   1   0   0   0
  0   2   3   0
  0 191 203 102   0  13   1   0   0   0   0   0   0   0   0   0   0   0   0   0   0   0   0   0
  0   0   1   4   6  10  16  26  34  44  59  74  85  97 108 117 123 128 134 137 139 145 149 149
152 154 153 150 151 152 151 149 150 145 140 141 139 137 135 130 127 123 114 112 111 103  96  85
 74  66  57  44  34  28  23  18  15  12  10   8   7   5   4   3   3   2   1   1   0   0   0   0
  0   3   4   0
  0 191 203 102   0  13   1   0   0   0   0   0   0   0   0   0   0   0   0   0   0   0   0   0
  0   0   0   1   4   6  11  17  24  33  43  56  69  82  92  97 103 114 123 131 135 138 142 144
142 143 145 144 148 150 146 143 143 140 137 136 134 130 125 123 123 116 112 108 101  95  82  72
 63  54  45  32  26  22  18  15  11   9   8   6   5   4   3   2   2   1   1   0   0   0   0   0
  0   3   4   0
  0 191 203 102   0  13   1   0   0   0   0   0   0   0   0   0   0   0   0   0   0   0   0   0
  0   0   0   0   2   4   7  11  15  22  30  40  51  63  75  82  89 101 108 116 123 129 133 133
133 137 138 140 142 143 141 140 142 138 134 131 127 121 119 119 115 107 104  97  91  78  69  61
 51  43  32  26  21  16  13  11   8   7   6   4   4   3   2   1   1   0   0   0   0   0   0   0
  0   3   4   0
  0 192 203 101   0  13   1   0   0   0   0   0   0   0   0   0   0   0   0   0   0   0   0   0
  0   0   0   0   0   2   5   7  10  14  20  27  38  51  57  68  77  86  94 103 113 124 127 127
128 130 133 131 131 134 132 132 132 128 125 123 119 115 112 110 103  96  90  84  73  61  58  49
 39  30  25  21  15  13  10   8   7   5   4   3   2   2   1   0   0   0   0   0   0   0   0   0
  0   3   4   0
  0 191 202 101   0  13   1   0   0   0   0   0   0   0   0   0   0   0   0   0   0   0   0   0
  0   0   0   0   0   0   2   5   7   9  14  19  27  36  41  52  64  72  81  91 100 109 116 122
123 121 123 120 121 122 122 120 117 119 119 114 108 103  97  92  89  84  73  63  55  53  47  36
 29  22  20  16  12   9   7   6   5   4   3   2   1   1   0   0   0   0   0   0   0   0   0   0
  1   3   4   1
  0 191 203 101   0  13   1   0   0   0   0   0   0   0   0   0   0   0   0   0   0   0   0   0
  0   0   0   0   0   0   0   2   5   6   8  12  16  22  30  36  44  57  67  72  79  86  96 106
106 108 112 111 110 109 107 107 102 113 118 101  91  86  81  78  73  63  55  49  43  40  31  23
 20  17  13  10   7   6   5   4   3   2   1   1   1   0   0   0   0   0   0   0   0   0   1   1
  1   4   5   2
  0 192 203 101   0  13   1   0   0   0   0   0   0   0   0   0   0   0   0   0   0   0   0   0
  0   0   0   0   0   0   0   0   1   4   6   8  10  14  18  23  31  40  49  56  65  73  79  83
 88  93  96  98  97  96  94  93  91  90  89  82  78  75  69  64  57  49  44  38  34  29  22  19
 16  12   9   7   5   4   3   2   2   1   1   0   0   0   0   0   0   0   0   0   0   0   0   0
  1   3   4   0
  0 192 203 102   0  13   1   0   0   0   0   0   0   0   0   0   0   0   0   0   0   0   0   0
  0   0   0   0   0   0   0   0   0   1   4   7   7  10  13  16  22  26  36  40  46  52  58  64
 72  79  79  82  84  81  80  78  75  72  71  66  62  59  52  45  41  37  32  27  24  21  17  14
 11   8   7   5   4   3   2   1   1   0   0   0   0   0   0   0   0   0   0   0   0   0   0   0
  1   3   4   0
  0 192 203 102   0  13   1   0   0   0   0   0   0   0   0   0   0   0   0   0   0   0   0   0
  0   0   0   0   0   0   0   0   0   0   0   3   5   6   8  11  14  18  23  27  32  36  41  44
 51  60  63  63  62  60  61  61  58  54  53  51  47  41  37  34  32  28  24  21  17  14  12   9
  7   6   4   3   2   2   1   0   0   0   0   0   0   0   0   0   0   0   0   0   0   0   0   0
  1   3   4   0
