P2
# 8-bit pgm gray
100 100
255
  0   0   0   0   0   0   0   0   0   0   0   0   0   0   0   0   0   0   0   0   0   0  14   0
 53 179 194 190 195 197 198 201 204 202 200 201 203 206 211 212 211 208 202 193 182 164 134  89
 37  24  20  12  10  10  10  10  10  11  11  11  11  11  12  11  12  12  12  12  13  12  12  12
 12  12  11   1   0   0   0   0   0   0   0   0   0   0   0   0   0   0   0   0   0   0   0   0
  0   0   0   0
  0   0   0   0   0   0   0   0   0   0   0   0   0   0   0   0   0   0   0   0   0   0  14   0
 52 174 189 189 193 196 197 199 203 199 199 199 204 208 211 210 207 203 198 190 177 153 119  69
 25  26  19  10  10  10  10  10  11  11  11  11  11  11  12  11  11  12  12  12  13  13  13  12
 12  13  11   1   0   0   0   0   0   0   0   0   0   0   0   0   0   0   0   0   0   0   0   0
  0   0   0   0
  0   0   0   0   0   0   0   0   0   0   0   0   0   0   0   0   0   0   0   0   0   0  13   0
 51 171 188 186 191 193 196 200 203 198 199 201 205 207 209 210 206 203 197 187 169 141 100  48
 25  24  16   9  10  10  10  10  10  10  11  11  11  11  12  11  12  12  12  12  12  12  12  12
 12  13  11   1   0   0   0   0   0   0   0   0   0   0   0   0   0   0   0   0   0   0   0   0
  0   0   0   0
  0   0   0   0   0   0   0   0   0   0   0   0   0   0   0   0   0   0   0   0   0   0  13   0
 51 171 182 183 189 190 194 199 203 199 198 203 206 207 208 210 205 199 192 179 159 126  77  30
 26  19  10   9  10  10  10  10  10  10  10  10  11  11  11  12  12  12  12  12  12  12  12  12
 12  12  11   1   0   0   0   0   0   0   0   0   0   0   0   0   0   0   0   0   0   0   0   0
  0   0   0   0
  0   0   0   0   0   0   0   0   0   0   0   0   0   0   0   0   0   0   0   0   0   0  13   0
 51 167 178 182 187 189 191 197 203 199 201 205 206 207 207 208 205 195 187 171 145 108  54  25
 25  15   9   9   9   9   9  10  10  10  10  11  11  11  11  11  11  11  11  11  12  12  12  12
 12  12  11   1   0   0   0   0   0   0   0   0   0   0   0   0   0   0   0   0   0   0   0   0
  0   0   0   0
  0   0   0   0   0   0   0   0   0   0   0   0   0   0   0   0   0   0   0   0   0   0  12   0
 49 165 181 181 186 192 198 202 205 200 202 206 207 207 206 204 203 194 180 161 131  84  35  26
 20  13   9   9  10   9   9   9  10  10  10  10  11  11  11  11  11  11  11  11  12  12  11  11
 11  12  10   1   0   0   0   0   0   0   0   0   0   0   0   0   0   0   0   0   0   0   0   0
  0   0   0   0
  0   0   0   0   0   0   0   0   0   0   0   0   0   0   0   0   0   0   0   0   0   0  12   0
 46 167 184 182 186 194 197 196 202 202 202 206 207 207 204 200 199 193 174 150 112  60  28  25
 17  10   9   9   9   9   9   9  10  10  10  10  10  11  11  11  11  11  11  11  11  11  11  11
 11  11  10   1   0   0   0   0   0   0   0   0   0   0   0   0   0   0   0   0   0   0   0   0
  0   0   0   0
  0   0   0   0   0   0   0   0   0   0   0   0   0   0   0   0   0   0   0   0   0   0  13   0
 48 170 187 183 188 193 191 195 199 203 205 205 206 207 203 199 198 184 165 138  89  41  27  22
 14   8   9   9   9   9   9   9   9   9  10  10  10  10  10  10  10  11  11  11  11  11  11  11
 11  11  10   1   0   0   0   0   0   0   0   0   0   0   0   0   0   0   0   0   0   0   0   0
  0   0   0   0
  0   0   0   0   0   0   0   0   0   0   0   0   0   0   0   0   0   0   0   0   0   0  13   0
 52 169 185 184 185 193 197 198 199 204 205 205 207 205 203 200 189 173 153 118  69  31  26  19
 11   8   9   9   9   9   8   9   9   9   9   9   9  10  10  10  10  10  10  10  11  11  11  10
 10  11  10   1   0   0   0   0   0   0   0   0   0   0   0   0   0   0   0   0   0   0   0   0
  0   0   0   0
  0   0   0   0   0   0   0   0   0   0   0   0   0   0   0   0   0   0   0   0   0   0  13   0
 52 167 181 180 184 191 200 201 201 205 205 205 205 204 203 195 181 167 140  97  47  29  25  16
  8   8   9   9   8   8   8   9   9   9   9   9   9   9   9   9  10  10  10  10  10  11  11  10
 10  11   9   1   0   0   0   0   0   0   0   0   0   0   0   0   0   0   0   0   0   0   0   0
  0   0   0   0
  0   0   0   0   0   0   0   0   0   0   0   0   0   0   0   0   0   0   0   0   0   0  13   0
 50 168 181 178 186 191 199 205 203 204 204 205 204 205 205 191 176 155 122  77  34  29  21  13
  8   8   8   9   8   8   8   9   9   8   9   9   9   9   9   9   9   9  10  10  10  10  10  11
 10  11  10   1   0   0   0   0   0   0   0   0   0   0   0   0   0   0   0   0   0   0   0   0
  0   0   0   0
  0   0   0   0   0   0   0   0   0   0   0   0   0   0   0   0   0   0   0   0   0   0  13   0
 50 167 181 178 187 193 197 205 204 205 205 205 203 202 196 189 172 140 103  60  30  28  19  10
  8   9   9   8   9   8   8   8   9   8   9   9   9   9   9   9   9  10  10  10  10  10  10  11
 10  10   9   1   0   0   0   0   0   0   0   0   0   0   0   0   0   0   0   0   0   0   0   0
  0   0   0   0
  0   0   0   0   0   0   0   0   0   0   0   0   0   0   0   0   0   0   0   0   0   0  13   0
 50 168 182 181 188 194 198 204 206 207 206 206 203 199 186 179 167 132  84  44  33  24  17   8
  8   8   8   8   8   8   8   8   8   9   9   9   9   9   9   9   9  10  10  10  10  10  10  10
 10  10   9   1   0   0   0   0   0   0   0   0   0   0   0   0   0   0   0   0   0   0   0   0
  0   0   0   0
  0   0   0   0   0   0   0   0   0   0   0   0   0   0   0   0   0   0   0   0   0   0  13   0
 50 170 185 184 191 195 200 205 207 204 202 201 198 191 185 170 149 121  70  34  32  23  13   7
  8   8   8   8   8   8   8   8   8   9   9   9   9   9   9   9   9   9   9   9  10  10  10  10
 10  10   9   1   0   0   0   0   0   0   0   0   0   0   0   0   0   0   0   0   0   0   0   0
  0   0   0   0
  0   0   0   0   0   0   0   0   0   0   0   0   0   0   0   0   0   0   0   0   0   0  13   0
 50 170 188 187 194 197 201 206 205 203 201 199 194 186 180 164 134 100  60  34  28  21  11   7
  8   8   8   8   8   8   8   8   8   8   8   8   9   9   9   8   9   9   9   9  10  10  10  10
 10  10   9   1   0   0   0   0   0   0   0   0   0   0   0   0   0   0   0   0   0   0   0   0
  0   0   0   0
  0   0   0   0   0   0   0   0   0   0   0   0   0   0   0   0   0   0   0   0   0   0  14   0
 52 175 189 189 196 199 201 206 205 202 199 196 191 184 173 154 121  78  49  37  26  20  10   7
  8   7   8   8   8   8   8   8   8   8   8   8   8   9   9   8   9   9   9   9  10  10   9   9
  9  10   9   1   0   0   0   0   0   0   0   0   0   0   0   0   0   0   0   0   0   0   0   0
  0   0   0   0
  0   0   0   0   0   0   0   0   0   0   0   0   0   0   0   0   0   0   0   0   0   0  14   0
 52 180 194 192 198 199 202 206 206 201 199 194 190 181 166 144 108  61  45  37  24  19   9   7
  7   7   7   8   8   8   7   8   8   8   8   8   8   8   9   9   9   9   9   9  10  10   9   9
  9  10   9   1   0   0   0   0   0   0   0   0   0   0   0   0   0   0   0   0   0   0   0   0
  0   0   0   0
  0   0   0   0   0   0   0   0   0   0   0   0   0   0   0   0   0   0   0   0   0   0  15   0
 54 181 200 198 199 201 203 204 206 203 197 192 187 178 159 132  94  53  44  37  26  19   9   7
  7   7   7   7   8   7   7   8   8   8   8   8   8   9   9   9   9   9   9   9   9  10   9   9
  9  10   9   1   0   0   0   0   0   0   0   0   0   0   0   0   0   0   0   0   0   0   0   0
  0   0   0   0
  0   0   0   0   0   0   0   0   0   0   0   0   0   0   0   0   0   0   0   0   0   0  16   0
 56 186 201 201 204 205 207 206 206 202 199 193 185 173 153 123  79  50  46  38  24  18   9   7
  7   7   7   7   7   7   7   8   7   8   8   8   8   8   8   8   9   9   9   9   9  10  10   9
  9  10   9   1   0   0   0   0   0   0   0   0   0   0   0   0   0   0   0   0   0   0   0   0
  0   0   0   0
  0   0   0   0   0   0   0   0   0   0   0   0   0   0   0   0   0   0   0   0   0   0  15   0
 53 187 205 203 208 207 208 207 203 201 202 198 189 173 152 123  76  56  50  38  24  19  10   7
  7   7   7   7   7   7   7   7   8   8   8   8   8   8   8   8   9   9   9   9   9   9  10   9
  9   9   9   1   0   0   0   0   0   0   0   0   0   0   0   0   0   0   0   0   0   0   0   0
  0   0   0   0
  0   0   0   0   0   0   0   0   0   0   0   0   0   0   0   0   0   0   0   0   0   0  16   0
 55 189 209 205 206 206 205 203 199 202 198 188 183 168 145 107  69  57  47  35  27  21  12   6
  7   7   7   7   7   7   7   7   8   8   7   7   8   8   8   8   9   9   9   9   9   9   9   9
  9   9   9   1   0   0   0   0   0   0   0   0   0   0   0   0   0   0   0   0   0   0   0   0
  0   0   0   0
  0   0   0   0   0   0   0   0   0   0   0   0   0   0   0   0   0   0   0   0   0   0  16   0
 58 192 211 207 207 207 206 202 197 201 200 186 174 154 125  83  62  52  42  35  27  21  14   6
  7   7   7   7   7   7   7   7   7   7   7   7   8   8   8   8   8   9   9   9   9   9   9   9
  9   9   8   1   0   0   0   0   0   0   0   0   0   0   0   0   0   0   0   0   0   0   0   0
  0   0   0   0
  0   0   0   0   0   0   0   0   0   0   0   0   0   0   0   0   0   0   0   0   0   0  17   0
 59 195 213 210 209 207 205 201 199 198 198 187 170 149 117  79  68  58  46  38  30  22  17   8
  6   7   7   7   7   7   7   7   7   7   7   7   7   8   8   8   8   9   9   9   9   9   9   9
  8   9   8   1   0   0   0   0   0   0   0   0   0   0   0   0   0   0   0   0   0   0   0   0
  0   0   0   0
  0   0   0   0   0   0   0   0   0   0   0   0   0   0   0   0   0   0   0   0   0   0  17   0
 60 199 216 211 212 209 204 201 200 197 194 182 165 144 106  78  69  62  54  42  33  25  18  11
  6   7   7   7   7   7   7   7   7   7   7   7   7   8   8   8   7   8   8   8   8   8   9   9
  8   9   8   1   0   0   0   0   0   0   0   0   0   0   0   0   0   0   0   0   0   0   0   0
  0   0   0   0
  0   0   0   0   0   0   0   0   0   0   0   0   0   0   0   0   0   0   0   0   0   0  18   0
 61 201 219 214 213 212 206 203 201 199 192 178 162 140  97  80  74  68  57  45  36  27  22  15
  7   7   7   7   7   7   6   7   7   7   7   7   7   7   9   9   7   8   8   8   9   8   9   9
  9   9   8   1   0   0   0   0   0   0   0   0   0   0   0   0   0   0   0   0   0   0   0   0
  0   0   0   0
  0   0   0   0   0   0   0   0   0   0   0   0   0   0   0   0   0   0   0   0   0   0  18   0
 62 204 221 216 219 211 208 207 202 197 187 175 161 132  97  84  82  75  62  48  39  32  25  18
 10   6   7   7   6   6   6   7   7   7   7   7   7   8   8   8   8   8   8   8   9   9   9   9
  9   9   8   1   0   0   0   0   0   0   0   0   0   0   0   0   0   0   0   0   0   0   0   0
  0   0   0   0
  0   0   0   0   0   0   0   0   0   0   0   0   0   0   0   0   0   0   0   0   0   0  18   0
 61 205 221 217 220 213 207 207 206 196 183 172 156 122  99  94  86  79  68  58  45  36  29  21
 14   6   7   7   7   7   7   7   7   7   7   7   8   8   8   8   8   8   8   8   9   9   9   9
  8   9   8   1   0   0   0   0   0   0   0   0   0   0   0   0   0   0   0   0   0   0   0   0
  0   0   0   0
  0   0   0   0   0   0   0   0   0   0   0   0   0   0   0   0   0   0   0   0   0   0  18   0
 62 204 219 216 217 214 210 205 205 195 180 168 148 123 113 101  89  86  79  64  51  41  32  25
 19   9   6   7   7   6   6   7   7   7   7   7   8   8   8   8   8   8   9   9   9   9   9   9
  9   9   8   1   0   0   0   0   0   0   0   0   0   0   0   0   0   0   0   0   0   0   0   0
  0   0   0   0
  0   0   0   0   0   0   0   0   0   0   0   0   0   0   0   0   0   0   0   0   0   0  18   0
 63 203 218 214 215 210 208 206 201 192 177 166 139 119 115 105  96  96  89  69  57  48  36  28
 22  14   6   7   7   6   6   7   7   7   7   7   7   8   8   8   8   8   8   9   9   9   9   9
  9   9   8   1   0   0   0   0   0   0   0   0   0   0   0   0   0   0   0   0   0   0   0   0
  0   0   0   0
  0   0   0   0   0   0   0   0   0   0   0   0   0   0   0   0   0   0   0   0   0   0  19   0
 64 205 219 212 212 208 206 204 199 195 178 161 133 119 115 113 104 100  88  78  71  59  44  33
 25  19   9   6   7   6   6   7   7   7   7   7   8   8   8   8   8   9   9   9   9   9   9   9
  9   9   8   1   0   0   0   0   0   0   0   0   0   0   0   0   0   0   0   0   0   0   0   0
  0   0   0   0
  0   0   0   0   0   0   0   0   0   0   0   0   0   0   0   0   0   0   0   0   0   0  19   0
 64 206 220 209 208 207 204 199 195 195 186 158 128 122 126 124 113 103  93  85  79  68  53  39
 29  22  14   6   7   6   6   7   7   7   8   8   8   8   8   8   8   9   9   9   9   9   9   9
  9   9   8   1   0   0   0   0   0   0   0   0   0   0   0   0   0   0   0   0   0   0   0   0
  0   0   0   0
  0   0   0   0   0   0   0   0   0   0   0   0   0   0   0   0   0   0   0   0   0   0  18   0
 62 201 217 209 208 207 201 195 191 188 185 156 134 129 134 132 126 107  93  88  83  71  59  48
 35  26  19   9   6   7   7   7   7   7  10   8   7   8   8   8   9   9   9   9   9   9   9   9
  9   9   8   1   0   0   0   0   0   0   0   0   0   0   0   0   0   0   0   0   0   0   0   0
  0   0   0   0
  0   0   0   0   0   0   0   0   0   0   0   0   0   0   0   0   0   0   0   0   0   0  18   0
 63 203 215 210 210 208 201 195 189 182 178 148 139 138 138 133 124 116 103  95  85  75  61  53
 42  31  23  14   6   6   7   7   7   7   7   8   8   8   9   9   9   9   9   9   9   9   9   9
  9   9   8   1   0   0   0   0   0   0   0   0   0   0   0   0   0   0   0   0   0   0   0   0
  0   0   0   0
  0   0   0   0   0   0   0   0   0   0   0   0   0   0   0   0   0   0   0   0   0   0  18   0
 62 201 213 205 207 205 201 198 188 180 170 150 144 142 138 135 130 127 123 111  96  84  70  58
 46  36  28  19   8   6   7   7   7   7   7   8   8   8   9   8   8   9   8   8   8   9   9   9
  8   9   8   1   0   0   0   0   0   0   0   0   0   0   0   0   0   0   0   0   0   0   0   0
  0   0   0   0
  0   0   0   0   0   0   0   0   0   0   0   0   0   0   0   0   0   0   0   0   0   0  18   0
 61 201 214 206 206 202 200 197 188 177 159 159 147 142 141 135 134 135 130 126 121  94  76  68
 56  45  32  22  14   6   6   7   7   7   7   8   8   8   8   8   8   8   8   8   8   8   8   8
  9   9   8   1   0   0   0   0   0   0   0   0   0   0   0   0   0   0   0   0   0   0   0   0
  0   0   0   0
  0   0   0   0   0   0   0   0   0   0   0   0   0   0   0   0   0   0   0   0   0   0  18   0
 61 201 215 208 206 201 197 193 189 172 150 152 148 146 140 137 133 137 138 128 132 122  90  74
 65  52  39  26  19   8   6   7   7   7   7   8   8   8   8   8   8   8   8   9   9   9   8   8
  8   9   8   1   0   0   0   0   0   0   0   0   0   0   0   0   0   0   0   0   0   0   0   0
  0   0   0   0
  0   0   0   0   0   0   0   0   0   0   0   0   0   0   0   0   0   0   0   0   0   0  18   0
 62 201 214 208 207 201 198 192 186 174 152 152 142 142 142 135 133 136 144 142 131 135 117  84
 68  58  47  33  23  13   6   7   7   7   7   8   8   8   9   9   9   8   8   9   9   9   8   8
  8   9   8   1   0   0   0   0   0   0   0   0   0   0   0   0   0   0   0   0   0   0   0   0
  0   0   0   0
  0   0   0   0   0   0   0   0   0   0   0   0   0   0   0   0   0   0   0   0   0   0  18   0
 64 205 218 208 206 202 197 191 179 164 161 163 148 139 147 144 151 149 140 140 136 132 140 119
 83  63  50  40  28  18   8   7   7   7   7   7   8   8   8   8   8   8   8   9   9   8   9   9
  8   9   8   1   0   0   0   0   0   0   0   0   0   0   0   0   0   0   0   0   0   0   0   0
  0   0   0   0
  0   0   0   0   0   0   0   0   0   0   0   0   0   0   0   0   0   0   0   0   0   0  19   0
 63 206 219 210 208 201 196 191 175 162 168 175 174 147 143 156 162 153 145 139 140 130 139 143
106  74  53  45  34  23  12   6   8   7   7   8   8   8   9   8   8   8   8   8   8   9   8   8
  8   9   8   1   0   0   0   0   0   0   0   0   0   0   0   0   0   0   0   0   0   0   0   0
  0   0   0   0
  0   0   0   0   0   0   0   0   0   0   0   0   0   0   0   0   0   0   0   0   0   0  19   0
 64 206 219 211 209 205 201 189 172 173 179 183 181 154 142 150 158 154 143 140 141 129 129 143
128  85  60  49  39  27  17   7   7   8   8   8   9   9   9   9   9   9   8   8   9   8   8   8
  8   9   8   1   0   0   0   0   0   0   0   0   0   0   0   0   0   0   0   0   0   0   0   0
  0   0   0   0
  0   0   0   0   0   0   0   0   0   0   0   0   0   0   0   0   0   0   0   0   0   0  19   0
 65 207 220 214 211 209 203 188 170 167 185 187 168 149 150 152 153 155 153 147 152 145 136 141
142 113  74  57  45  34  24  10   7   8   8   8   9   9   9   9   9   9   9   8   8   8   8   8
  8   9   8   1   0   0   0   0   0   0   0   0   0   0   0   0   0   0   0   0   0   0   0   0
  0   0   0   0
  0   0   0   0   0   0   0   0   0   0   0   0   0   0   0   0   0   0   0   0   0   0  19   0
 65 209 223 215 212 208 202 189 163 161 185 187 158 152 162 162 153 157 162 161 167 163 147 147
148 137  94  62  49  37  27  16   8   8   8   8   8   9   9   8   9   9   9   8   8   8   9   8
  8   9   8   1   0   0   0   0   0   0   0   0   0   0   0   0   0   0   0   0   0   0   0   0
  0   0   0   0
  0   0   0   0   0   0   0   0   0   0   0   0   0   0   0   0   0   0   0   0   0   0  19   0
 65 210 223 215 212 205 195 183 169 168 188 179 162 162 167 171 166 166 165 169 172 172 156 148
151 146 113  68  50  40  31  21   8   8   8   8   8   8   9   8   8   9   9   9   9   9   9   8
  8   9   8   1   0   0   0   0   0   0   0   0   0   0   0   0   0   0   0   0   0   0   0   0
  0   0   0   0
  0   0   0   0   0   0   0   0   0   0   0   0   0   0   0   0   0   0   0   0   0   0  19   0
 65 209 224 217 215 207 194 181 176 176 194 173 168 178 171 166 165 166 171 174 173 167 156 150
154 156 142  97  53  46  33  22  11   7   8   8   8   9   9   9   8   9  10   9   9   9   9   9
  9   9   8   1   0   0   0   0   0   0   0   0   0   0   0   0   0   0   0   0   0   0   0   0
  0   0   0   0
  0   0   0   0   0   0   0   0   0   0   0   0   0   0   0   0   0   0   0   0   0   0  19   0
 64 206 222 216 215 209 196 182 175 180 186 173 168 180 176 170 163 161 169 174 173 167 155 148
150 151 160 142  77  44  38  25  15   7   8   8   8   9   9   9   9   9   9   9   9   9   9   9
  9   9   8   1   0   0   0   0   0   0   0   0   0   0   0   0   0   0   0   0   0   0   0   0
  0   0   0   0
  0   0   0   0   0   0   0   0   0   0   0   0   0   0   0   0   0   0   0   0   0   0  19   0
 65 207 221 215 213 207 199 188 182 184 180 176 167 171 175 173 164 163 167 168 169 167 156 152
144 146 157 147 106  58  42  28  19   7   8   8   8   9   9   9   9   9   9   9   9   9   9   9
  9   9   8   1   0   0   0   0   0   0   0   0   0   0   0   0   0   0   0   0   0   0   0   0
  0   0   0   0
  0   0   0   0   0   0   0   0   0   0   0   0   0   0   0   0   0   0   0   0   0   0  19   0
 65 209 222 216 214 210 205 197 193 191 189 183 180 167 171 173 167 167 168 166 170 158 150 155
145 143 144 123  99  70  47  32  22  10   7   8   8   8   8   8   8   9   9   9   9   9   9   9
  9   9   8   1   0   0   0   0   0   0   0   0   0   0   0   0   0   0   0   0   0   0   0   0
  0   0   0   0
  0   0   0   0   0   0   0   0   0   0   0   0   0   0   0   0   0   0   0   0   0   0  19   0
 63 209 224 218 217 209 197 191 189 188 186 193 194 180 177 179 177 182 174 173 181 170 160 158
153 148 134 123 107  83  59  38  26  13   6   8   8   8   8   8   8   9   9   9   9   9   9   9
  9   9   8   1   0   0   0   0   0   0   0   0   0   0   0   0   0   0   0   0   0   0   0   0
  0   0   0   0
  0   0   0   0   0   0   0   0   0   0   0   0   0   0   0   0   0   0   0   0   0   0  19   0
 64 212 226 216 209 199 196 190 192 190 182 186 191 191 184 178 186 190 186 182 180 176 175 177
174 165 144 131 132 105  64  45  28  16   6   8   8   8   8   8   8   9   9   9   9   9   9   9
  8   9   8   1   0   0   0   0   0   0   0   0   0   0   0   0   0   0   0   0   0   0   0   0
  0   0   0   0
  0   0   0   0   0   0   0   0   0   0   0   0   0   0   0   0   0   0   0   0   0   0  19   0
 65 208 223 209 200 195 197 200 197 186 184 178 180 191 184 176 182 180 180 179 176 175 184 191
188 180 162 137 132 125  83  42  30  20   7   8   8   8   8   8   8   9   9   9   9   9   9   9
  9   9   8   1   0   0   0   0   0   0   0   0   0   0   0   0   0   0   0   0   0   0   0   0
  0   0   0   0
  0   0   0   0   0   0   0   0   0   0   0   0   0   0   0   0   0   0   0   0   0   0  19   0
 64 208 221 203 198 197 197 202 194 183 181 176 174 185 178 171 173 171 177 175 175 183 193 190
191 189 172 144 120 123  98  47  32  22   9   7   8   8   8   8   8   9   9   9   9   9   9   9
  9  10   9   1   0   0   0   0   0   0   0   0   0   0   0   0   0   0   0   0   0   0   0   0
  0   0   0   0
  0   0   0   0   0   0   0   0   0   0   0   0   0   0   0   0   0   0   0   0   0   0  19   0
 64 208 220 205 197 189 191 193 191 193 191 185 178 183 173 170 175 171 175 176 172 181 194 196
194 190 178 156 130 121 102  52  36  24  11   6   8   8   8   8   8   9   9   9   9   9   9   9
  9   9   8   1   0   0   0   0   0   0   0   0   0   0   0   0   0   0   0   0   0   0   0   0
  0   0   0   0
  0   0   0   0   0   0   0   0   0   0   0   0   0   0   0   0   0   0   0   0   0   0  19   0
 66 207 218 206 197 185 187 192 187 191 195 192 188 186 174 175 174 175 168 169 175 175 189 200
190 176 174 164 154 143 119  68  37  27  12   6   8   8   8   8   8   8   9   8   9   9   9   9
  8   9   8   1   0   0   0   0   0   0   0   0   0   0   0   0   0   0   0   0   0   0   0   0
  0   0   0   0
  0   0   0   0   0   0   0   0   0   0   0   0   0   0   0   0   0   0   0   0   0   0  19   0
 65 205 214 203 196 190 188 190 186 182 189 191 186 184 181 179 173 178 171 168 177 182 190 200
194 174 169 174 169 163 142  86  35  31  14   6   8   8   8   8   8   9   8   8   9   9   9   9
  8   9   8   1   0   0   0   0   0   0   0   0   0   0   0   0   0   0   0   0   0   0   0   0
  0   0   0   0
  0   0   0   0   0   0   0   0   0   0   0   0   0   0   0   0   0   0   0   0   0   0  18   0
 64 202 213 201 195 189 185 187 185 182 190 193 188 190 194 186 180 178 177 176 180 192 198 201
205 190 173 171 175 174 143  85  41  32  16   6   8   8   8   8   8   8   8   8   8   8   9   9
  8   9   8   1   0   0   0   0   0   0   0   0   0   0   0   0   0   0   0   0   0   0   0   0
  0   0   0   0
  0   0   0   0   0   0   0   0   0   0   0   0   0   0   0   0   0   0   0   0   0   0  18   0
 63 201 215 202 196 188 185 186 187 187 189 189 184 187 196 191 183 180 180 184 188 189 198 204
209 203 182 170 186 185 142  95  46  32  18   5   8   8   8   8   8   8   8   8   8   8   9   8
  8   9   8   1   0   0   0   0   0   0   0   0   0   0   0   0   0   0   0   0   0   0   0   0
  0   0   0   0
  0   0   0   0   0   0   0   0   0   0   0   0   0   0   0   0   0   0   0   0   0   0  18   0
 61 204 218 205 195 187 189 185 185 185 185 186 190 192 187 180 182 187 189 188 189 188 195 201
206 204 199 193 199 193 157 118  53  30  21   5   8   8   8   7   8   8   8   8   8   8   8   8
  8   9   8   1   0   0   0   0   0   0   0   0   0   0   0   0   0   0   0   0   0   0   0   0
  0   0   0   0
  0   0   0   0   0   0   0   0   0   0   0   0   0   0   0   0   0   0   0   0   0   0  17   0
 61 199 214 201 195 189 184 180 179 178 181 179 183 189 186 176 173 183 189 188 190 198 199 200
203 205 206 202 205 196 174 129  61  32  22   5   8   8   8   8   7   8   8   8   8   8   8   8
  8   8   8   1   0   0   0   0   0   0   0   0   0   0   0   0   0   0   0   0   0   0   0   0
  0   0   0   0
  0   0   0   0   0   0   0   0   0   0   0   0   0   0   0   0   0   0   0   0   0   0  17   0
 62 196 207 192 190 195 190 184 184 182 178 175 177 184 177 171 169 186 192 191 193 202 203 198
203 210 208 203 206 198 180 131  64  35  22   4   8   7   8   8   7   8   8   8   8   8   8   8
  8   9   8   1   0   0   0   0   0   0   0   0   0   0   0   0   0   0   0   0   0   0   0   0
  0   0   0   0
  0   0   0   0   0   0   0   0   0   0   0   0   0   0   0   0   0   0   0   0   0   0  18   0
 64 196 202 192 192 193 193 189 189 185 176 171 175 180 179 176 174 189 194 194 195 202 206 206
208 212 208 206 207 194 176 130  62  36  22   4   8   7   8   7   7   8   8   8   8   9   8   8
  8   9   8   1   0   0   0   0   0   0   0   0   0   0   0   0   0   0   0   0   0   0   0   0
  0   0   0   0
  0   0   0   0   0   0   0   0   0   0   0   0   0   0   0   0   0   0   0   0   0   0  18   0
 63 197 200 194 196 190 192 193 187 188 188 182 178 179 183 182 177 176 184 192 192 199 206 205
203 210 212 210 207 196 181 134  64  38  19   4   8   8   8   8   8   8   8   8   8   9   8   8
  8   8   8   1   0   0   0   0   0   0   0   0   0   0   0   0   0   0   0   0   0   0   0   0
  0   0   0   0
  0   0   0   0   0   0   0   0   0   0   0   0   0   0   0   0   0   0   0   0   0   0  17   0
 61 195 202 189 192 195 196 194 186 189 193 195 185 176 181 185 179 175 184 192 197 203 201 196
199 207 213 209 204 201 192 134  51  44  17   4   8   8   8   8   8   8   8   8   9   9   8   8
  8   9   8   1   0   0   0   0   0   0   0   0   0   0   0   0   0   0   0   0   0   0   0   0
  0   0   0   0
  0   0   0   0   0   0   0   0   0   0   0   0   0   0   0   0   0   0   0   0   0   0  17   0
 61 191 198 191 193 197 202 196 188 188 187 191 193 185 182 187 184 178 187 199 206 205 200 198
194 196 207 208 204 202 188 130  48  39  17   4   8   8   8   8   8   8   8   8   9   9   9   9
  9   9   8   1   0   0   0   0   0   0   0   0   0   0   0   0   0   0   0   0   0   0   0   0
  0   0   0   0
  0   0   0   0   0   0   0   0   0   0   0   0   0   0   0   0   0   0   0   0   0   0  17   0
 61 190 195 196 200 200 203 205 198 183 176 183 198 199 193 189 185 187 190 198 211 205 204 203
193 192 206 212 206 198 181 133  58  35  16   5   9   8   8   8   8   8   9   8   9   9   9   9
  9   9   8   1   0   0   0   0   0   0   0   0   0   0   0   0   0   0   0   0   0   0   0   0
  0   0   0   0
  0   0   0   0   0   0   0   0   0   0   0   0   0   0   0   0   0   0   0   0   0   0  16   0
 59 185 193 191 199 202 201 203 204 184 177 181 191 199 200 195 183 191 198 203 211 212 209 209
200 199 210 217 211 199 186 150  76  28  13   7   8   8   8   8   8   9   8   9   9   9   9   9
  9   9   8   1   0   0   0   0   0   0   0   0   0   0   0   0   0   0   0   0   0   0   0   0
  0   0   0   0
  0   0   0   0   0   0   0   0   0   0   0   0   0   0   0   0   0   0   0   0   0   0  14   0
 54 173 184 184 195 204 202 201 199 188 184 184 188 193 201 206 202 202 207 205 206 211 214 219
213 207 215 218 215 203 185 148  76  24  10   8   8   8   8   8   8   9   8   9   9   9   9   9
  9   9   8   1   0   0   0   0   0   0   0   0   0   0   0   0   0   0   0   0   0   0   0   0
  0   0   0   0
  0   0   0   0   0   0   0   0   0   0   0   0   0   0   0   0   0   0   0   0   0   0  14   0
 51 174 186 186 198 199 193 196 197 191 191 194 200 198 197 207 216 219 216 209 205 209 216 223
218 213 219 218 214 201 179 138  69  21   7   8   8   8   8   8   8   9   9   9   9  10   9   9
  9   9   8   1   0   0   0   0   0   0   0   0   0   0   0   0   0   0   0   0   0   0   0   0
  0   0   0   0
  0   0   0   0   0   0   0   0   0   0   0   0   0   0   0   0   0   0   0   0   0   0  14   0
 49 177 196 194 202 199 195 194 197 193 193 200 204 202 201 205 214 217 216 216 211 211 217 220
215 215 220 218 212 197 168 115  60  13   7   8   8   8   8   8   8   9   8   9   9   9   9   9
  9   9   8   1   0   0   0   0   0   0   0   0   0   0   0   0   0   0   0   0   0   0   0   0
  0   0   0   0
  0   0   0   0   0   0   0   0   0   0   0   0   0   0   0   0   0   0   0   0   0   0  15   0
 56 178 193 200 205 201 197 197 198 199 202 206 201 201 207 210 214 216 219 218 211 209 215 219
215 216 219 218 209 191 151  92  43   4   9   7   8   8   8   8   8   8   8   9   9   9   9   9
  8   9   8   1   0   0   0   0   0   0   0   0   0   0   0   0   0   0   0   0   0   0   0   0
  0   0   0   0
  0   0   0   0   0   0   0   0   0   0   0   0   0   0   0   0   0   0   0   0   0   0  16   0
 61 182 192 202 207 200 195 196 195 198 202 209 208 208 211 213 218 222 224 215 206 203 209 215
217 219 219 215 203 182 135  79  27   3   9   7   7   8   8   8   8   9   9   9   9   9   9   9
  8   9   8   1   0   0   0   0   0   0   0   0   0   0   0   0   0   0   0   0   0   0   0   0
  0   0   0   0
  0   0   0   0   0   0   0   0   0   0   0   0   0   0   0   0   0   0   0   0   0   0  14   0
 54 178 192 198 205 201 199 199 199 194 190 199 206 208 214 216 218 222 223 217 208 203 207 212
216 218 219 213 198 172 117  59   5   9   8   7   8   8   8   8   8   9   9   9   9   9   9   9
  9   9   8   1   0   0   0   0   0   0   0   0   0   0   0   0   0   0   0   0   0   0   0   0
  0   0   0   0
  0   0   0   0   0   0   0   0   0   0   0   0   0   0   0   0   0   0   0   0   0   0  15   0
 54 180 194 190 196 204 204 205 196 186 187 190 196 201 212 217 218 218 218 216 211 207 207 211
215 218 221 210 190 156 110  49   0  12   7   7   8   8   8   9   9   9   9   9   9   9   9   9
  9   9   8   1   0   0   0   0   0   0   0   0   0   0   0   0   0   0   0   0   0   0   0   0
  0   0   0   0
  0   0   0   0   0   0   0   0   0   0   0   0   0   0   0   0   0   0   0   0   0   0  16   0
 58 184 195 190 196 207 210 211 200 180 185 191 194 197 207 217 219 219 217 214 214 210 208 212
217 219 220 203 177 149 113  40   0  13   7   7   8   8   8   9   9   9   9   9   9   9   9   9
  9   9   8   1   0   0   0   0   0   0   0   0   0   0   0   0   0   0   0   0   0   0   0   0
  0   0   0   0
  0   0   0   0   0   0   0   0   0   0   0   0   0   0   0   0   0   0   0   0   0   0  15   0
 57 182 197 192 193 203 209 208 205 190 182 188 192 199 206 213 216 219 218 216 218 216 216 218
220 219 218 196 170 149  99   0  12   9   7   8   8   8   8   8   8   8   9   8   9   9   9   9
  9   9   8   1   0   0   0   0   0   0   0   0   0   0   0   0   0   0   0   0   0   0   0   0
  0   0   0   0
  0   0   0   0   0   0   0   0   0   0   0   0   0   0   0   0   0   0   0   0   0   0  14   0
 52 176 194 196 199 201 202 203 209 210 197 198 202 205 213 214 214 215 218 220 219 219 218 218
221 220 206 180 163 133  58   0  18   6   7   8   8   8   8   8   8   8   8   8   8   9   9   9
  9   9   8   1   0   0   0   0   0   0   0   0   0   0   0   0   0   0   0   0   0   0   0   0
  0   0   0   0
  0   0   0   0   0   0   0   0   0   0   0   0   0   0   0   0   0   0   0   0   0   0  13   0
 50 168 188 197 200 198 198 203 211 217 211 208 213 216 219 220 219 219 220 222 222 217 217 219
220 211 181 156 146  97   0  17  11   7   8   8   8   8   9   8   9   9   8   8   8   9   9   8
  8   8   7   1   0   0   0   0   0   0   0   0   0   0   0   0   0   0   0   0   0   0   0   0
  0   0   0   0
  0   0   0   0   0   0   0   0   0   0   0   0   0   0   0   0   0   0   0   0   0   0  12   0
 47 168 189 193 197 198 194 194 201 212 217 215 217 221 221 222 221 221 223 223 225 223 222 219
212 192 155 131 113  44   0  15   7   7   8   8   8   9   9   9   9   9   8   9   8   8   9   9
  9   9   8   1   0   0   0   0   0   0   0   0   0   0   0   0   0   0   0   0   0   0   0   0
  0   0   0   0
  0   0   0   0   0   0   0   0   0   0   0   0   0   0   0   0   0   0   0   0   0   0  14   0
 49 180 193 193 204 200 196 197 191 193 210 215 217 217 220 220 218 219 222 224 225 227 222 209
186 160 121  85  54   3  11   7   7   7   7   8   8   8   9   8   8   9   8   9   9   8   9   9
  9   9   8   1   0   0   0   0   0   0   0   0   0   0   0   0   0   0   0   0   0   0   0   0
  0   0   0   0
  0   0   0   0   0   0   0   0   0   0   0   0   0   0   0   0   0   0   0   0   0   0  16   0
 53 190 203 196 204 198 195 203 195 190 206 219 220 219 220 219 218 220 219 222 227 226 219 202
158 116  87  47   0  12   8   7   7   7   7   8   8   9   9   8   8   9   9   9   9   9   9   9
  9   9   8   1   0   0   0   0   0   0   0   0   0   0   0   0   0   0   0   0   0   0   0   0
  0   0   0   0
  0   0   0   0   0   0   0   0   0   0   0   0   0   0   0   0   0   0   0   0   0   0  16   0
 55 192 212 206 204 195 195 202 201 202 208 215 219 221 221 220 219 220 218 220 226 222 213 193
135  71  55  28   9   9   7   8   8   8   8   8   9   9   9   8   8   9   9   9   8   9   9   9
  9   9   8   1   0   0   0   0   0   0   0   0   0   0   0   0   0   0   0   0   0   0   0   0
  0   0   0   0
  0   0   0   0   0   0   0   0   0   0   0   0   0   0   0   0   0   0   0   0   0   0  17   0
 59 196 212 209 207 197 194 189 193 196 198 204 213 219 219 218 216 217 218 216 220 212 198 164
 94  59  45   4  10   8   7   7   8   8   8   8   9   9   9   8   9   8   8   8   8   9   8   8
  8   8   8   1   0   0   0   0   0   0   0   0   0   0   0   0   0   0   0   0   0   0   0   0
  0   0   0   0
  0   0   0   0   0   0   0   0   0   0   0   0   0   0   0   0   0   0   0   0   0   0  17   0
 60 199 213 209 215 209 192 178 185 192 193 200 209 212 214 215 212 213 212 212 209 200 176 119
 59  47  25   5   9   8   8   8   8   8   8   8   9   9   9   9   9   8   8   8   8   8   8   8
  8   8   8   1   0   0   0   0   0   0   0   0   0   0   0   0   0   0   0   0   0   0   0   0
  0   0   0   0
  0   0   0   0   0   0   0   0   0   0   0   0   0   0   0   0   0   0   0   0   0   0  17   0
 60 197 216 211 213 214 204 192 193 191 194 206 209 200 206 214 211 212 212 209 196 179 135  75
 48  32   6  10   9   8   8   8   8   8   8   8   9   9   9   9   9   9   9   8   8   8   8   8
  8   9   8   1   0   0   0   0   0   0   0   0   0   0   0   0   0   0   0   0   0   0   0   0
  0   0   0   0
  0   0   0   0   0   0   0   0   0   0   0   0   0   0   0   0   0   0   0   0   0   0  16   0
 58 192 215 215 209 210 204 199 201 188 189 206 206 195 193 196 197 201 194 184 175 149  91  54
 41  16   8  10   8   8   8   7   8   8   9   8   9   9   9   8   9   9   8   8   9   8   8   8
  9   9   7   1   0   0   0   0   0   0   0   0   0   0   0   0   0   0   0   0   0   0   0   0
  0   0   0   0
  0   0   0   0   0   0   0   0   0   0   0   0   0   0   0   0   0   0   0   0   0   0  17   0
 60 193 212 215 214 213 210 204 201 194 197 206 202 187 174 172 173 176 167 151 140 109  65  52
 27   5  10   9   8   8   8   7   8   8   8   9   9   9   9   9   9   9   9   9   9   9   9   9
  9   9   8   1   0   0   0   0   0   0   0   0   0   0   0   0   0   0   0   0   0   0   0   0
  0   0   0   0
  0   0   0   0   0   0   0   0   0   0   0   0   0   0   0   0   0   0   0   0   0   0  17   0
 59 194 210 209 214 218 222 216 209 206 202 198 193 182 176 177 172 163 143 129 110  72  54  39
  7   8   9   8   8   8   8   8   8   8   8   9   9   9   9   9   9   9   9   9   9   9   9   9
  8   9   8   1   0   0   0   0   0   0   0   0   0   0   0   0   0   0   0   0   0   0   0   0
  0   0   0   0
  0   0   0   0   0   0   0   0   0   0   0   0   0   0   0   0   0   0   0   0   0   0  16   0
 55 192 209 204 210 210 214 219 217 205 193 189 188 194 193 185 166 140 131 118  83  58  43  15
  6   9   8   8   8   8   8   8   8   8   9   9   9   9   9   9   9   9   9   9   9   9   9   9
  8   9   8   1   0   0   0   0   0   0   0   0   0   0   0   0   0   0   0   0   0   0   0   0
  0   0   0   0
  0   0   0   0   0   0   0   0   0   0   0   0   0   0   0   0   0   0   0   0   0   0  17   0
 57 194 209 205 214 216 213 215 215 202 193 192 192 191 179 167 148 138 126  90  59  49  25   4
  9   8   8   8   8   8   7   8   8   8   8   8   9   9   9   9   9   9   9   9   9   9  10   9
  9   9   8   1   0   0   0   0   0   0   0   0   0   0   0   0   0   0   0   0   0   0   0   0
  0   0   0   0
  0   0   0   0   0   0   0   0   0   0   0   0   0   0   0   0   0   0   0   0   0   0  16   0
 56 188 203 200 209 214 212 207 200 207 204 199 200 188 177 171 155 128  87  61  49  30   6   9
  8   8   8   8   8   8   8   8   8   8   8   8   8   9   9   8   9   9   9   9   9   9   9   9
  9  10   8   1   0   0   0   0   0   0   0   0   0   0   0   0   0   0   0   0   0   0   0   0
  0   0   0   0
  0   0   0   0   0   0   0   0   0   0   0   0   0   0   0   0   0   0   0   0   0   0  14   0
 49 177 197 197 204 205 208 203 200 199 191 187 189 181 163 146 117  82  61  49  33   8   8   9
  8   8   8   8   8   8   8   8   8   8   8   8   9   9   9   9   9   9   9   9   9   9   9   9
  9   9   8   1   0   0   0   0   0   0   0   0   0   0   0   0   0   0   0   0   0   0   0   0
  0   0   0   0
  0   0   0   0   0   0   0   0   0   0   0   0   0   0   0   0   0   0   0   0   0   0  14   0
 52 180 200 207 207 199 196 199 196 183 179 174 157 141 119  95  76  62  49  35  11   8   9   8
  8   8   8   8   7   8   8   8   8   8   8   8   9   9   9   9   9   9  10   9   9   9   9   9
  9   9   8   1   0   0   0   0   0   0   0   0   0   0   0   0   0   0   0   0   0   0   0   0
  0   0   0   0
  0   0   0   0   0   0   0   0   0   0   0   0   0   0   0   0   0   0   0   0   0   0  15   0
 53 180 201 202 203 203 199 198 192 178 172 161 133 115 101  82  65  49  34  13   7  10   8   8
  8   8   8   8   8   8   8   8   8   8   8   9   9   9   9   9   9  10   9   9   9   9   9   9
  9   9   9   1   0   0   0   0   0   0   0   0   0   0   0   0   0   0   0   0   0   0   0   0
  0   0   0   0
  0   0   0   0   0   0   0   0   0   0   0   0   0   0   0   0   0   0   0   0   0   0  16   0
 56 185 194 185 200 206 204 200 187 171 154 133 111  99  84  62  47  31  13   7  10   9   9   9
  9   9   9   9   9   8   8   8   8   8   9   9   9   9   9   9   9   9   9   9   9  10   9   9
  9   9   8   1   0   0   0   0   0   0   0   0   0   0   0   0   0   0   0   0   0   0   0   0
  0   0   0   0
  0   0   0   0   0   0   0   0   0   0   0   0   0   0   0   0   0   0   0   0   0   0  16   0
 57 184 197 185 188 185 172 158 138 123 112 101  91  77  62  45  30  12   7  10   9  10  10   9
  9   9   9  10   9   9   9   8   8   8   9   8   9   9   9   9   9   9   9   9   9   9   9   9
  9   9   8   1   0   0   0   0   0   0   0   0   0   0   0   0   0   0   0   0   0   0   0   0
  0   0   0   0
  0   0   0   0   0   0   0   0   0   0   0   0   0   0   0   0   0   0   0   0   0   0  13   0
 53 167 173 166 161 159 151 129 109 107 101  89  73  60  46  29  10   7   9   9   9  10  10   9
  9   9  10  10   9   8   8   8   8   8   8   8   9   9   9   9   8   9   8   9   9   9   9   9
  8   9   8   1   0   0   0   0   0   0   0   0   0   0   0   0   0   0   0   0   0   0   0   0
  0   0   0   0
  0   0   0   0   0   0   0   0   0   0   0   0   0   0   0   0   0   0   0   0   0   0  10   0
 48 145 145 137 132 129 127 118 103  98  84  66  56  45  22   6   8   9   9   9  10  10  10   9
  9   9   9   9   8   8   7   7   7   7   7   7   8   8   9   9   8   8   8   8   9   9   8   8
  8   8   7   1   0   0   0   0   0   0   0   0   0   0   0   0   0   0   0   0   0   0   0   0
  0   0   0   0
  0   0   0   0   0   0   0   0   0   0   0   0   0   0   0   0   0   0   0   0   0   0   8   0
 42 133 135 125 111 103  95  92  85  71  59  47  33  11   4   9   9   9   9   9  10   9   9   9
  9   9  10   8   8   7   7   7   7   7   7   7   8   8   8   8   7   7   7   8   8   8   8   8
  8   8   7   1   0   0   0   0   0   0   0   0   0   0   0   0   0   0   0   0   0   0   0   0
  0   0   0   0
  0   0   0   0   0   0   0   0   0   0   0   0   0   0   0   0   0   0   0   0   0   0   8   0
 40 126 127 113  96  88  80  71  60  48  35  18   3   6   9   8   9   9   9   9  10   9   9   9
  9  10  12   9   8   7   7   7   7   7   7   7   7   8   8   8   8   8   7   8   8   8   8   8
  8   8   7   1   0   0   0   0   0   0   0   0   0   0   0   0   0   0   0   0   0   0   0   0
  0   0   0   0
  0   0   0   0   0   0   0   0   0   0   0   0   0   0   0   0   0   0   0   0   0   0   7   0
 39 119 118  97  82  75  62  47  33  17   3   5   9   9   8   9   9   9   9   9   9   9   9   9
  8   8   8   8   7   7   7   7   7   7   7   7   7   8   8   8   7   8   7   8   8   8   8   8
  8   8   7   1   0   0   0   0   0   0   0   0   0   0   0   0   0   0   0   0   0   0   0   0
  0   0   0   0
  0   0   0   0   0   0   0   0   0   0   0   0   0   0   0   0   0   0   0   0   0   0   5   0
 32 101  94  67  53  40  22  10   4   5   9   9   9   8   9   9   9   9   9   9   9   9   8   8
  8   8   7   7   7   7   6   6   6   6   7   7   7   7   8   7   7   8   7   8   8   8   8   7
  7   8   7   1   0   0   0   0   0   0   0   0   0   0   0   0   0   0   0   0   0   0   0   0
  0   0   0   0
