P2
# 8-bit pgm gray
100 100
255
  0   0   0   0   0   0   0   0   0   0   0   0   0   0   0   0   0   0   0   0   0   0   3   0
 23  80  82  78  78  80  81  79  78  78  78  77  77  81  82  84  88  92 100 113 123 134 138 169
189 188 194 188 175 174 175 171 173 171 170 171 170 167 171 186 197 201 205 205 215 163   0  13
  8   1   1   0   0   0   0   0   0   0   0   0   0   0   0   0   0   0   0   0   0   0   0   0
  0   0   0   0
  0   0   0   0   0   0   0   0   0   0   0   0   0   0   0   0   0   0   0   0   0   0   0   3
  0   0   0   0   0   0   0   0   0   0   0   0   0   0   0   0   0   0  38  73  98 118 122 144
188 201 213 209 192 190 190 187 187 189 189 189 188 186 183 194 211 218 224 225 235 178   0  13
  7   0   0   0   0   0   0   0   0   0   0   0   0   0   0   0   0   0   0   0   0   0   0   0
  0   0   0   0
  0   0   0   0   0   0   0   0   0   0   0   0   0   0   0   0   0   0   0   0   0   0   0   0
  2  20  20  19  19  19  22  24  24  24  23  23  23  24  26  28  30  36  57  80 101 119 130 131
167 196 207 208 189 187 185 180 179 180 184 184 183 183 180 178 196 210 215 217 226 172   0  13
  7   0   0   0   0   0   0   0   0   0   0   0   0   0   0   0   0   0   0   0   0   0   0   0
  0   0   0   0
  0   0   0   0   0   0   0   0   0   0   0   0   0   0   0   0   0   0   0   0   0   0   0   0
  0   0   0   0   0   0   7  13   6   7   7   7   5   6  10  12  15  19  43  71  97 113 127 131
147 188 206 212 197 191 187 181 181 180 181 184 182 184 183 177 183 204 213 216 227 172   0  13
  7   0   0   0   0   0   0   0   0   0   0   0   0   0   0   0   0   0   0   0   0   0   0   0
  0   0   0   0
  0   0   0   0   0   0   0   0   0   0   0   0   0   0   0   0   0   0   0   0   0   0   0   0
  0   0   0   0   0   3   0   0  12   8   8   8   7   8  12  14  17  20  38  64  88 108 124 134
135 167 198 213 206 191 185 182 181 181 181 184 183 180 185 183 175 191 208 212 225 171   0  12
  7   0   0   0   0   0   0   0   0   0   0   0   0   0   0   0   0   0   0   0   0   0   0   0
  0   0   0   0
  0   0   0   0   0   0   0   0   0   0   0   0   0   0   0   0   0   0   0   0   0   0   0   0
  0   0   0   0   3   0  54  49   0  11   8   8   7   8  11  13  17  19  32  57  83 105 122 138
137 144 181 209 215 192 181 183 182 182 183 180 184 187 190 185 177 179 198 205 219 169   0  12
  7   0   0   0   0   0   0   0   0   0   0   0   0   0   0   0   0   0   0   0   0   0   0   0
  0   0   0   0
  0   0   0   0   0   0   0   0   0   0   0   0   0   0   0   0   0   0   0   0   0   0   0   0
  0   0   0   0   6   0  54  82  11   2  10   8   8   7  11  14  17  20  27  53  80 101 120 133
140 142 165 198 213 204 186 178 179 181 182 185 187 188 184 178 178 174 185 198 215 169   0  10
  7   0   0   0   0   0   0   0   0   0   0   0   0   0   0   0   0   0   0   0   0   0   0   0
  0   0   0   0
  0   0   0   0   0   0   0   0   0   0   0   0   0   0   0   0   0   0   0   0   0   0   0   0
  0   0   0   0   4   0  13  84  30   0  12   8   7   6  10  14  17  19  24  46  72  94 112 128
139 145 147 176 204 209 194 181 179 180 181 183 184 184 179 173 174 174 176 188 211 167   0   9
  7   0   0   0   0   0   0   0   0   0   0   0   0   0   0   0   0   0   0   0   0   0   0   0
  0   0   0   0
  0   0   0   0   0   0   0   0   0   0   0   0   0   0   0   0   0   0   0   0   0   0   0   0
  0   0   0   0   7   0  64  79   0   7  10   8   7   6   9  13  16  19  23  39  65  89 107 123
137 147 144 155 189 209 202 189 181 178 176 177 180 183 189 181 172 168 171 180 202 159   0   8
  7   0   0   0   0   0   0   0   0   0   0   0   0   0   0   0   0   0   0   0   0   0   0   0
  0   0   0   0
  0   0   0   0   0   0   0   0   0   0   0   0   0   0   0   0   0   0   0   0   0   0   0   0
  0   0   0   0   1   0  31  19   1  10   8   7   7   6   8  13  16  20  23  33  58  83 104 119
131 143 145 142 163 200 207 190 182 177 176 180 182 182 191 187 178 168 167 173 198 155   0   9
  6   0   0   0   0   0   0   0   0   0   0   0   0   0   0   0   0   0   0   0   0   0   0   0
  0   0   0   0
  0   0   0   0   0   0   0   0   0   0   0   0   0   0   0   0   0   0   0   0   0   0   0   0
  0   0   0   0   0   2   0   1  11   8   8   7   7   6   7  12  15  20  23  29  52  77  97 113
127 140 144 144 143 174 208 200 189 180 178 181 178 179 182 179 171 167 166 174 192 150   0   7
  6   0   0   0   0   0   0   0   0   0   0   0   0   0   0   0   0   0   0   0   0   0   0   0
  0   0   0   0
  0   0   0   0   0   0   0   0   0   0   0   0   0   0   0   0   0   0   0   0   0   0   0   0
  0   0   0   0   0   0   8  12   7   8   8   7   6   7   6  11  15  19  24  27  45  72  92 108
125 138 140 146 145 148 191 214 202 188 181 178 176 178 174 171 170 168 169 171 181 145   0   4
  6   0   0   0   0   0   0   0   0   0   0   0   0   0   0   0   0   0   0   0   0   0   0   0
  0   0   0   0
  0   0   0   0   0   0   0   0   0   0   0   0   0   0   0   0   0   0   0   0   0   0   0   0
  0   0   0   0   0   0   3   8   8   8   7   7   7   6   6  11  15  18  23  26  38  64  89 107
121 130 138 141 147 141 166 214 209 195 185 177 176 176 174 176 174 168 165 169 173 137   0   4
  5   0   0   0   0   0   0   0   0   0   0   0   0   0   0   0   0   0   0   0   0   0   0   0
  0   0   0   0
  0   0   0   0   0   0   0   0   0   0   0   0   0   0   0   0   0   0   0   0   0   0   0   0
  0   0   0   0   0   0   3   7   7   7   7   7   7   6   6  10  15  18  23  26  32  56  79  99
117 124 136 142 140 145 155 197 209 198 191 178 177 180 175 174 172 167 166 170 176 135   0   4
  5   0   0   0   0   0   0   0   0   0   0   0   0   0   0   0   0   0   0   0   0   0   0   0
  0   0   0   0
  0   0   0   0   0   0   0   0   0   0   0   0   0   0   0   0   0   0   0   0   0   0   0   0
  0   0   0   0   0   0   3   7   7   7   7   7   7   7   6  10  14  17  22  26  29  48  71  91
113 124 134 139 139 150 152 174 207 201 195 183 180 179 168 169 166 168 173 174 184 139   0   7
  5   0   0   0   0   0   0   0   0   0   0   0   0   0   0   0   0   0   0   0   0   0   0   0
  0   0   0   0
  0   0   0   0   0   0   0   0   0   0   0   0   0   0   0   0   0   0   0   0   0   0   0   0
  0   0   0   0   0   0   3   8   7   7   7   7   7   7   6   9  13  17  21  25  29  41  63  86
106 116 131 132 139 148 149 155 198 209 201 186 178 178 170 172 167 168 176 182 185 139   0   8
  5   0   0   0   0   0   0   0   0   0   0   0   0   0   0   0   0   0   0   0   0   0   0   0
  0   0   0   0
  0   0   0   0   0   0   0   0   0   0   0   0   0   0   0   0   0   0   0   0   0   0   0   0
  0   0   0   0   0   0   5   9   7   7   7   7   7   7   6   9  13  17  20  24  28  35  56  80
100 117 124 129 138 143 146 147 173 210 206 190 178 176 171 171 169 167 176 186 189 140   0   8
  5   0   0   0   0   0   0   0   0   0   0   0   0   0   0   0   0   0   0   0   0   0   0   0
  0   0   0   0
  0   0   0   0   0   0   0   0   0   0   0   0   0   0   0   0   0   0   0   0   0   0   0   0
  0   0   0   0   0   0   0   5   8   7   7   7   6   7   6   8  13  16  20  24  28  31  46  70
 92 113 123 127 137 139 143 151 153 191 211 197 181 174 170 166 168 168 170 186 197 142   0  10
  5   0   0   0   0   0   0   0   0   0   0   0   0   0   0   0   0   0   0   0   0   0   0   0
  0   0   0   0
  0   0   0   0   0   0   0   0   0   0   0   0   0   0   0   0   0   0   0   0   0   0   0   0
  0   0   0   0   0   0  17  15   6   7   7   7   9   8   6   8  12  15  19  23  27  30  38  63
 83 103 122 129 140 140 141 146 148 170 210 208 190 177 170 170 172 166 167 169 186 143   0   8
  5   0   0   0   0   0   0   0   0   0   0   0   0   0   0   0   0   0   0   0   0   0   0   0
  0   0   0   0
  0   0   0   0   0   0   0   0   0   0   0   0   0   0   0   0   0   0   0   0   0   0   0   0
  0   0   0   0   2   0  41  35   0   9   7   6  15  10   6   8  12  15  18  22  25  28  34  54
 74  95 115 131 139 141 141 145 153 159 188 214 202 178 168 167 170 171 165 166 181 144   0   7
  5   0   0   0   0   0   0   0   0   0   0   0   0   0   0   0   0   0   0   0   0   0   0   0
  0   0   0   0
  0   0   0   0   0   0   0   0   0   0   0   0   0   0   0   0   0   0   0   0   0   0   0   0
  0   0   0   0   0   0  33  24   2   8   7   7   7   7   7   7  12  15  18  21  24  28  34  45
 66  87 105 125 134 139 142 147 151 160 162 192 211 194 172 167 170 174 176 178 189 147   0   7
  6   0   0   0   0   0   0   0   0   0   0   0   0   0   0   0   0   0   0   0   0   0   0   0
  0   0   0   0
  0   0   0   0   0   0   0   0   0   0   0   0   0   0   0   0   0   0   0   0   0   0   0   0
  0   0   0   1   2   0  62  47   0  11   7   7   7   7   7   7  11  15  17  20  24  28  34  39
 57  80  97 113 127 138 143 146 152 161 165 171 197 202 188 182 182 184 186 187 197 151   0   8
  6   0   0   0   0   0   0   0   0   0   0   0   0   0   0   0   0   0   0   0   0   0   0   0
  0   0   0   0
  0   0   0   0   0   0   0   0   0   0   0   0   0   0   0   0   0   0   0   0   0   0   0   0
  0   0   0   0   1   0  36  30   0   8   7   7   7   7   7   7  11  14  17  20  24  28  32  37
 45  71  92 105 121 131 139 146 150 157 166 168 174 188 188 184 185 186 185 183 192 146   0   9
  5   0   0   0   0   0   0   0   0   0   0   0   0   0   0   0   0   0   0   0   0   0   0   0
  0   0   0   0
  0   0   0   0   0   0   0   0   0   0   0   0   0   0   0   0   0   0   0   0   0   0   0   0
  0   0   0   0   0   1   0   0   9   7   7   7   7   7   7   7  10  14  16  20  24  28  33  38
 42  66  86 100 115 124 133 145 151 157 168 171 172 180 182 176 175 184 184 182 189 141   0   9
  5   0   0   0   0   0   0   0   0   0   0   0   0   0   0   0   0   0   0   0   0   0   0   0
  0   0   0   0
  0   0   0   0   0   0   0   0   0   0   0   0   0   0   0   0   0   0   0   0   0   0   0   0
  0   0   0   0   0   0   7  11   7   8   7   7   7   7   7   7   9  14  17  20  24  28  33  38
 44  57  78  92 105 118 128 143 151 158 171 177 179 185 187 182 180 183 179 178 185 139   0   8
  5   0   0   0   0   0   0   0   0   0   0   0   0   0   0   0   0   0   0   0   0   0   0   0
  0   0   0   0
  0   0   0   0   0   0   0   0   0   0   0   0   0   0   0   0   0   0   0   0   0   0   0   0
  0   0   0   0   0   0   3   8   8   8   7   7   7   7   7   7   9  14  16  19  23  28  33  38
 46  49  65  84  99 116 128 138 149 161 170 176 180 185 188 186 182 181 179 179 185 138   0   8
  5   0   0   0   0   0   0   0   0   0   0   0   0   0   0   0   0   0   0   0   0   0   0   0
  0   0   0   0
  0   0   0   0   0   0   0   0   0   0   0   0   0   0   0   0   0   0   0   0   0   0   0   0
  0   0   0   0   0   0   4   8   8   8   7   7   7   7   7   7   9  13  16  19  23  28  33  39
 44  46  56  77  94 112 127 134 145 157 168 172 180 186 188 187 182 182 181 181 183 135   0   8
  4   0   0   0   0   0   0   0   0   0   0   0   0   0   0   0   0   0   0   0   0   0   0   0
  0   0   0   0
  0   0   0   0   0   0   0   0   0   0   0   0   0   0   0   0   0   0   0   0   0   0   0   0
  0   0   0   0   0   0   3   8   8   8   8   7   7   7   7   7   9  14  16  19  24  28  33  39
 44  47  50  69  91 108 125 135 143 155 164 169 182 187 184 187 187 185 182 179 182 134   0   8
  4   0   0   0   0   0   0   0   0   0   0   0   0   0   0   0   0   0   0   0   0   0   0   0
  0   0   0   0
  0   0   0   0   0   0   0   0   0   0   0   0   0   0   0   0   0   0   0   0   0   0   0   0
  0   0   0   0   0   0   3   8   8   8   7   7   7   7   7   6   9  14  16  21  25  28  32  37
 44  48  48  60  85 105 119 130 143 159 170 173 183 190 188 187 190 184 182 178 180 134   0   7
  4   0   0   0   0   0   0   0   0   0   0   0   0   0   0   0   0   0   0   0   0   0   0   0
  0   0   0   0
  0   0   0   0   0   0   0   0   0   0   0   0   0   0   0   0   0   0   0   0   0   0   0   0
  0   0   0   0   0   0   4   9   8   8   7   7   7   7   7   7  10  15  17  21  25  28  32  37
 42  48  51  56  73  97 114 127 144 159 170 174 182 187 185 185 184 179 175 176 183 137   0   7
  5   0   0   0   0   0   0   0   0   0   0   0   0   0   0   0   0   0   0   0   0   0   0   0
  0   0   0   0
  0   0   0   0   0   0   0   0   0   0   0   0   0   0   0   0   0   0   0   0   0   0   0   0
  0   0   0   0   0   0   4   8   8   8   7   7   7   7   7   7  10  15  18  22  25  29  34  39
 41  47  52  54  62  87 110 124 144 157 167 175 182 185 186 185 183 185 181 177 185 139   0   8
  5   0   0   0   0   0   0   0   0   0   0   0   0   0   0   0   0   0   0   0   0   0   0   0
  0   0   0   0
  0   0   0   0   0   0   0   0   0   0   0   0   0   0   0   0   0   0   0   0   0   0   0   0
  0   0   0   0   0   0   4   8   8   8   7   7   7   7   7   7  11  16  18  22  26  31  35  39
 41  47  54  55  59  77 104 123 141 159 169 177 185 186 183 184 186 187 182 175 186 144   0   7
  5   0   0   0   0   0   0   0   0   0   0   0   0   0   0   0   0   0   0   0   0   0   0   0
  0   0   0   0
  0   0   0   0   0   0   0   0   0   0   0   0   0   0   0   0   0   0   0   0   0   0   0   0
  0   0   0   0   0   0   4   8   8   8   7   7   7   7   7   7  13  16  19  23  28  31  35  40
 42  48  56  59  61  70  92 118 140 155 166 174 182 182 179 183 183 183 182 180 191 145   0   9
  5   0   0   0   0   0   0   0   0   0   0   0   0   0   0   0   0   0   0   0   0   0   0   0
  0   0   0   0
  0   0   0   0   0   0   0   0   0   0   0   0   0   0   0   0   0   0   0   0   0   0   0   0
  0   0   0   0   0   0   3   8   8   8   7   7   7   7   7   8  14  17  20  23  28  31  37  41
 43  51  57  61  65  68  83 117 139 147 160 170 177 180 181 185 185 186 187 182 186 142   0   9
  5   0   0   0   0   0   0   0   0   0   0   0   0   0   0   0   0   0   0   0   0   0   0   0
  0   0   0   0
  0   0   0   0   0   0   0   0   0   0   0   0   0   0   0   0   0   0   0   0   0   0   0   0
  0   0   0   0   0   0   3   8   8   7   7   7   7   7   7   9  15  17  20  24  28  32  38  42
 46  54  57  62  70  72  83 112 129 141 156 166 176 180 182 187 188 189 186 178 184 141   0   8
  5   0   0   0   0   0   0   0   0   0   0   0   0   0   0   0   0   0   0   0   0   0   0   0
  0   0   0   0
  0   0   0   0   0   0   0   0   0   0   0   0   0   0   0   0   0   0   0   0   0   0   0   0
  0   0   0   0   0   0   3   8   7   7   7   7   7   7   7  11  15  18  22  26  30  34  39  43
 49  53  58  65  69  76  87  95 117 134 149 160 170 176 180 184 186 189 188 183 189 143   0   9
  5   0   0   0   0   0   0   0   0   0   0   0   0   0   0   0   0   0   0   0   0   0   0   0
  0   0   0   0
  0   0   0   0   0   0   0   0   0   0   0   0   0   0   0   0   0   0   0   0   0   0   0   0
  0   0   0   0   0   0   3   8   8   8   7   7   7   7   7  13  16  19  23  27  32  37  42  45
 51  57  63  69  71  87  90  86 107 130 142 158 170 172 173 177 183 188 186 183 189 144   0   8
  5   0   0   0   0   0   0   0   0   0   0   0   0   0   0   0   0   0   0   0   0   0   0   0
  0   0   0   0
  0   0   0   0   0   0   0   0   0   0   0   0   0   0   0   0   0   0   0   0   0   0   0   0
  0   0   0   0   0   0   3   8   8   8   7   7   8   7   9  15  18  21  24  29  34  40  45  48
 52  58  66  74  82  88  85  82  95 118 136 150 163 169 168 173 179 180 177 177 186 143   0   8
  5   0   0   0   0   0   0   0   0   0   0   0   0   0   0   0   0   0   0   0   0   0   0   0
  0   0   0   0
  0   0   0   0   0   0   0   0   0   0   0   0   0   0   0   0   0   0   0   0   0   0   0   0
  0   0   0   0   0   0   3   8   8   8   8   8   8   7  11  16  18  22  26  35  41  44  48  51
 59  66  71  79  87  86  86  85  88 112 134 152 163 165 165 173 176 176 175 177 190 144   0   9
  5   0   0   0   0   0   0   0   0   0   0   0   0   0   0   0   0   0   0   0   0   0   0   0
  0   0   0   0
  0   0   0   0   0   0   0   0   0   0   0   0   0   0   0   0   0   0   0   0   0   0   0   0
  0   0   0   0   0   0   3   8   8   7   8   8   8   8  13  17  20  23  29  40  47  51  52  58
 73  76  76  85  90  91  90  87  88 108 130 146 153 159 164 169 169 171 173 177 189 144   0   9
  5   0   0   0   0   0   0   0   0   0   0   0   0   0   0   0   0   0   0   0   0   0   0   0
  0   0   0   0
  0   0   0   0   0   0   0   0   0   0   0   0   0   0   0   0   0   0   0   0   0   0   0   0
  0   0   0   0   0   0   3   8   8   8   7   8   8   9  15  18  21  26  32  38  45  51  58  69
 67  73  82  95 103 100  94  91  93  99 112 131 141 150 152 152 159 166 169 176 184 137   0   8
  4   0   0   0   0   0   0   0   0   0   0   0   0   0   0   0   0   0   0   0   0   0   0   0
  0   0   0   0
  0   0   0   0   0   0   0   0   0   0   0   0   0   0   0   0   0   0   0   0   0   0   0   0
  0   0   0   0   0   0   3   8   8   8   8   8   8  11  16  18  23  28  33  37  43  66  90 103
105 106 104 110 112 103  99 104 105  99 106 124 136 144 149 153 159 165 172 176 181 135   0   7
  4   0   0   0   0   0   0   0   0   0   0   0   0   0   0   0   0   0   0   0   0   0   0   0
  0   0   0   0
  0   0   0   0   0   0   0   0   0   0   0   0   0   0   0   0   0   0   0   0   0   0   0   0
  0   0   0   0   0   0   4   8   7   8   7   8   8  13  16  20  24  29  34  44  56  85 108 115
135 131 119 121 119 115 117 114 115 114 115 126 138 146 149 155 159 164 167 172 185 142   0   8
  5   0   0   0   0   0   0   0   0   0   0   0   0   0   0   0   0   0   0   0   0   0   0   0
  0   0   0   0
  0   0   0   0   0   0   0   0   0   0   0   0   0   0   0   0   0   0   0   0   0   0   0   0
  0   0   0   0   0   0   4   8   8   8   8   8   8  14  17  21  25  31  36  52  70  85 104 119
134 136 132 133 123 123 128 124 120 117 116 120 138 150 160 166 163 163 164 170 185 141   0   7
  5   0   0   0   0   0   0   0   0   0   0   0   0   0   0   0   0   0   0   0   0   0   0   0
  0   0   0   0
  0   0   0   0   0   0   0   0   0   0   0   0   0   0   0   0   0   0   0   0   0   0   0   0
  0   0   0   0   0   0   4   8   8   8   8   8   9  15  18  21  27  33  37  51  85  97 108 119
126 142 147 151 136 131 133 130 128 124 122 121 135 150 162 171 162 156 158 163 175 137   0   5
  5   0   0   0   0   0   0   0   0   0   0   0   0   0   0   0   0   0   0   0   0   0   0   0
  0   0   0   0
  0   0   0   0   0   0   0   0   0   0   0   0   0   0   0   0   0   0   0   0   0   0   0   0
  0   0   0   0   0   0   3   8   8   8   8   8  10  15  18  22  27  34  36  50  91 108 114 116
130 147 151 156 145 137 137 136 135 131 129 125 132 140 144 154 150 150 157 158 170 134   0   5
  5   0   0   0   0   0   0   0   0   0   0   0   0   0   0   0   0   0   0   0   0   0   0   0
  0   0   0   0
  0   0   0   0   0   0   0   0   0   0   0   0   0   0   0   0   0   0   0   0   0   0   0   0
  0   0   0   0   0   0   3   8   8   8   8   8  10  15  18  22  27  34  38  50  90 113 116 117
130 142 152 161 150 144 144 139 136 135 133 135 132 128 131 140 146 149 156 158 173 137   0   5
  5   0   0   0   0   0   0   0   0   0   0   0   0   0   0   0   0   0   0   0   0   0   0   0
  0   0   0   0
  0   0   0   0   0   0   0   0   0   0   0   0   0   0   0   0   0   0   0   0   0   0   0   0
  0   0   0   0   0   0   3   8   8   8   8   8  11  15  18  23  28  34  36  64  95 102 114 122
130 139 160 172 158 157 153 150 149 150 144 141 132 122 127 130 137 148 159 160 177 140   0   7
  5   0   0   0   0   0   0   0   0   0   0   0   0   0   0   0   0   0   0   0   0   0   0   0
  0   0   0   0
  0   0   0   0   0   0   0   0   0   0   0   0   0   0   0   0   0   0   0   0   0   0   0   0
  0   0   0   0   0   0   3   8   8   8   8   7  11  15  19  23  29  33  43  80  92  92 122 129
130 145 163 171 154 155 155 152 159 159 142 138 136 119 121 125 131 147 157 161 178 138   0   7
  5   0   0   0   0   0   0   0   0   0   0   0   0   0   0   0   0   0   0   0   0   0   0   0
  0   0   0   0
  0   0   0   0   0   0   0   0   0   0   0   0   0   0   0   0   0   0   0   0   0   0   0   0
  0   0   0   0   0   0   3   8   8   8   8   8  11  15  19  23  30  32  59  85  88 130 130 123
127 143 158 169 162 159 156 141 148 156 146 150 147 128 128 137 138 143 152 166 176 133   0   6
  4   0   0   0   0   0   0   0   0   0   0   0   0   0   0   0   0   0   0   0   0   0   0   0
  0   0   0   0
  0   0   0   0   0   0   0   0   0   0   0   0   0   0   0   0   0   0   0   0   0   0   0   0
  0   0   0   0   0   0   3   8   8   8   8   8  11  16  19  25  28  35  79  95  97 141 129 121
129 144 163 171 174 170 160 152 143 156 155 156 152 143 143 153 152 150 163 168 174 132   0   7
  4   0   0   0   0   0   0   0   0   0   0   0   0   0   0   0   0   0   0   0   0   0   0   0
  0   0   0   0
  0   0   0   0   0   0   0   0   0   0   0   0   0   0   0   0   0   0   0   0   0   0   0   0
  0   0   0   0   0   0   3   8   8   8   8   8  12  16  20  27  24  50  91 106 106 112 127 129
140 153 163 166 176 181 173 169 159 163 163 157 151 152 156 162 161 161 167 170 179 136   0   8
  4   0   0   0   0   0   0   0   0   0   0   0   0   0   0   0   0   0   0   0   0   0   0   0
  0   0   0   0
  0   0   0   0   0   0   0   0   0   0   0   0   0   0   0   0   0   0   0   0   0   0   0   0
  0   0   0   0   0   0   4   8   8   8   8   8  12  16  21  26  32  65  92 108 116 131 141 138
148 155 163 166 172 179 180 178 174 167 169 173 167 168 172 168 166 165 167 174 183 139   0   7
  5   0   0   0   0   0   0   0   0   0   0   0   0   0   0   0   0   0   0   0   0   0   0   0
  0   0   0   0
  0   0   0   0   0   0   0   0   0   0   0   0   0   0   0   0   0   0   0   0   0   0   0   0
  0   0   0   0   0   0   4   8   8   8   8   8  12  16  21  27  43  71  97 116 132 138 147 149
150 156 163 164 169 167 168 180 186 177 178 182 181 182 177 172 167 167 169 174 189 146   0   9
  5   0   0   0   0   0   0   0   0   0   0   0   0   0   0   0   0   0   0   0   0   0   0   0
  0   0   0   0
  0   0   0   0   0   0   0   0   0   0   0   0   0   0   0   0   0   0   0   0   0   0   0   0
  0   0   0   0   0   0   3   8   8   8   8   8  12  17  22  25  42  75 103 119 138 144 148 152
151 155 156 165 171 163 165 174 184 183 183 186 184 182 179 177 169 169 174 180 194 148   0   9
  5   0   0   0   0   0   0   0   0   0   0   0   0   0   0   0   0   0   0   0   0   0   0   0
  0   0   0   0
  0   0   0   0   0   0   0   0   0   0   0   0   0   0   0   0   0   0   0   0   0   0   0   0
  0   0   0   0   0   0   3   9   8   8   8   8  13  18  22  24  38  78 106 121 141 150 150 151
151 158 168 172 169 163 162 172 184 190 188 188 188 184 181 178 169 170 178 181 186 137   0   8
  4   0   0   0   0   0   0   0   0   0   0   0   0   0   0   0   0   0   0   0   0   0   0   0
  0   0   0   0
  0   0   0   0   0   0   0   0   0   0   0   0   0   0   0   0   0   0   0   0   0   0   0   0
  0   0   0   0   0   0   3   8   8   8   8   8  13  17  22  24  39  79 111 134 145 151 151 155
163 168 173 173 166 162 169 179 183 186 187 191 192 187 179 174 170 173 177 166 165 123   0   5
  4   0   0   0   0   0   0   0   0   0   0   0   0   0   0   0   0   0   0   0   0   0   0   0
  0   0   0   0
  0   0   0   0   0   0   0   0   0   0   0   0   0   0   0   0   0   0   0   0   0   0   0   0
  0   0   0   0   0   0   4   8   8   8   8   8  13  17  21  24  44  83 112 132 150 160 156 170
176 171 172 171 165 165 173 177 175 176 178 183 187 186 183 179 178 182 174 149 161 125   0   5
  4   0   0   0   0   0   0   0   0   0   0   0   0   0   0   0   0   0   0   0   0   0   0   0
  0   0   0   0
  0   0   0   0   0   0   0   0   0   0   0   0   0   0   0   0   0   0   0   0   0   0   0   0
  0   0   0   0   0   0   4   8   8   8   8   8  13  18  22  25  46  76 106 137 161 166 165 177
178 174 173 169 169 171 166 176 179 175 175 177 178 186 191 190 180 175 171 157 162 119   0   7
  3   0   0   0   0   0   0   0   0   0   0   0   0   0   0   0   0   0   0   0   0   0   0   0
  0   0   0   0
  0   0   0   0   0   0   0   0   0   0   0   0   0   0   0   0   0   0   0   0   0   0   0   0
  0   0   0   0   0   0   4   8   8   8   8   8  14  18  22  25  51  67 102 148 162 165 172 174
176 176 170 160 169 168 161 180 183 178 177 176 178 183 186 186 173 163 166 159 156 109   0   7
  2   0   0   0   0   0   0   0   0   0   0   0   0   0   0   0   0   0   0   0   0   0   0   0
  0   0   0   0
  0   0   0   0   0   0   0   0   0   0   0   0   0   0   0   0   0   0   0   0   0   0   0   0
  0   0   0   0   0   0   3   8   8   8   8   8  14  18  22  26  55  71 115 155 155 166 176 175
176 173 159 155 166 166 166 179 184 179 177 174 176 176 174 177 174 168 164 160 158 111   0   7
  2   0   0   0   0   0   0   0   0   0   0   0   0   0   0   0   0   0   0   0   0   0   0   0
  0   0   0   0
  0   0   0   0   0   0   0   0   0   0   0   0   0   0   0   0   0   0   0   0   0   0   0   0
  0   0   0   0   0   0   3   8   8   8   8   8  14  19  23  31  55  88 129 157 156 168 177 176
177 170 154 163 174 173 172 180 187 181 178 180 177 174 176 177 176 169 161 160 169 127   0   6
  4   0   0   0   0   0   0   0   0   0   0   0   0   0   0   0   0   0   0   0   0   0   0   0
  0   0   0   0
  0   0   0   0   0   0   0   0   0   0   0   0   0   0   0   0   0   0   0   0   0   0   0   0
  0   0   0   0   0   0   3   8   8   8   7   8  14  18  24  30  50 102 141 155 157 165 170 171
171 169 161 167 175 178 176 179 184 186 189 188 184 179 179 178 171 163 161 160 168 129   0   6
  4   0   0   0   0   0   0   0   0   0   0   0   0   0   0   0   0   0   0   0   0   0   0   0
  0   0   0   0
  0   0   0   0   0   0   0   0   0   0   0   0   0   0   0   0   0   0   0   0   0   0   0   0
  0   0   0   0   0   0   4   8   8   8   7   7  13  18  24  22  53 117 145 153 154 158 164 164
165 169 170 164 172 180 179 182 186 191 190 189 189 180 178 177 165 161 159 155 157 120   0   5
  4   0   0   0   0   0   0   0   0   0   0   0   0   0   0   0   0   0   0   0   0   0   0   0
  0   0   0   0
  0   0   0   0   0   0   0   0   0   0   0   0   0   0   0   0   0   0   0   0   0   0   0   0
  0   0   0   0   0   0   4   8   8   8   8   7  12  17  25  14  62 124 138 149 141 142 155 166
170 175 176 172 176 178 176 181 185 185 184 188 190 184 178 174 163 158 156 150 147 108   0   5
  3   0   0   0   0   0   0   0   0   0   0   0   0   0   0   0   0   0   0   0   0   0   0   0
  0   0   0   0
  0   0   0   0   0   0   0   0   0   0   0   0   0   0   0   0   0   0   0   0   0   0   0   0
  0   0   0   0   0   0   3   8   8   8   8   7  11  17  23  17  66 118 137 153 144 142 159 164
173 181 178 176 175 173 176 179 176 180 186 189 192 185 177 171 164 160 154 139 137 103   0   4
  2   0   0   0   0   0   0   0   0   0   0   0   0   0   0   0   0   0   0   0   0   0   0   0
  0   0   0   0
  0   0   0   0   0   0   0   0   0   0   0   0   0   0   0   0   0   0   0   0   0   0   0   0
  0   0   0   0   0   0   3   8   8   8   8   7  11  18  21  19  72 114 136 150 147 151 166 168
170 179 179 172 167 167 164 163 157 167 184 190 193 187 179 170 165 156 146 138 142 109   0   5
  3   0   0   0   0   0   0   0   0   0   0   0   0   0   0   0   0   0   0   0   0   0   0   0
  0   0   0   0
  0   0   0   0   0   0   0   0   0   0   0   0   0   0   0   0   0   0   0   0   0   0   0   0
  0   0   0   0   0   0   3   8   8   8   8   7   9  17  21  18  72 111 129 145 152 159 172 176
168 172 172 164 161 157 154 151 149 159 173 186 191 189 180 176 155 136 142 143 154 120   0   6
  3   0   0   0   0   0   0   0   0   0   0   0   0   0   0   0   0   0   0   0   0   0   0   0
  0   0   0   0
  0   0   0   0   0   0   0   0   0   0   0   0   0   0   0   0   0   0   0   0   0   0   0   0
  0   0   0   0   0   0   3   8   8   8   8   8   8  16  21  17  67 100 113 136 157 163 169 172
168 167 162 158 154 149 147 152 158 164 171 181 186 181 180 179 158 151 154 148 160 123   0   7
  3   0   0   0   0   0   0   0   0   0   0   0   0   0   0   0   0   0   0   0   0   0   0   0
  0   0   0   0
  0   0   0   0   0   0   0   0   0   0   0   0   0   0   0   0   0   0   0   0   0   0   0   0
  0   0   0   0   0   0   3   8   8   8   8   8   7  13  22  14  60  92 106 126 149 161 163 164
167 162 153 155 154 142 141 153 156 156 160 169 178 175 175 177 176 172 161 150 160 119   0   8
  3   0   0   0   0   0   0   0   0   0   0   0   0   0   0   0   0   0   0   0   0   0   0   0
  0   0   0   0
  0   0   0   0   0   0   0   0   0   0   0   0   0   0   0   0   0   0   0   0   0   0   0   0
  0   0   0   0   0   0   3   8   8   8   8   8   8  11  21  20  49  85 104 120 134 155 163 154
157 156 151 153 148 138 140 146 151 150 153 165 170 171 169 169 175 169 159 158 161 115   0   6
  3   0   0   0   0   0   0   0   0   0   0   0   0   0   0   0   0   0   0   0   0   0   0   0
  0   0   0   0
  0   0   0   0   0   0   0   0   0   0   0   0   0   0   0   0   0   0   0   0   0   0   0   0
  0   0   0   0   0   0   4   8   8   8   8   8   8   8  20  25  43  81 105 123 127 142 152 149
143 140 152 154 140 140 146 143 148 151 160 164 161 160 157 165 167 163 158 155 158 117   0   7
  3   0   0   0   0   0   0   0   0   0   0   0   0   0   0   0   0   0   0   0   0   0   0   0
  0   0   0   0
  0   0   0   0   0   0   0   0   0   0   0   0   0   0   0   0   0   0   0   0   0   0   0   0
  0   0   0   0   0   0   4   8   8   9   8   8   9   8  14  30  50  77  97 127 136 138 147 154
148 135 154 151 138 148 154 151 152 157 162 158 153 150 156 160 155 156 146 137 147 107   0   7
  2   0   0   0   0   0   0   0   0   0   0   0   0   0   0   0   0   0   0   0   0   0   0   0
  0   0   0   0
  0   0   0   0   0   0   0   0   0   0   0   0   0   0   0   0   0   0   0   0   0   0   0   0
  0   0   0   0   0   0   4   8   8   9   8   8   9   9   8  26  51  72  78 115 140 138 153 159
150 147 152 149 135 144 155 158 156 156 158 153 153 156 150 146 141 132 124 131 135  98   0   5
  2   0   0   0   0   0   0   0   0   0   0   0   0   0   0   0   0   0   0   0   0   0   0   0
  0   0   0   0
  0   0   0   0   0   0   0   0   0   0   0   0   0   0   0   0   0   0   0   0   0   0   0   0
  0   0   0   0   0   0   4   9   8   9   9   9   9   9   8  17  40  61  76 102 124 136 148 143
139 136 136 135 131 149 157 150 145 145 148 150 149 143 132 128 127 123 125 124 130  99   0   4
  2   0   0   0   0   0   0   0   0   0   0   0   0   0   0   0   0   0   0   0   0   0   0   0
  0   0   0   0
  0   0   0   0   0   0   0   0   0   0   0   0   0   0   0   0   0   0   0   0   0   0   0   0
  0   0   0   0   0   0   4   9   9   9   9   9   9   9   9   8  31  49  62  90 102 117 126 117
125 135 134 131 141 160 152 142 137 134 136 136 129 124 128 119 122 136 131 127 136 106   0   3
  3   0   0   0   0   0   0   0   0   0   0   0   0   0   0   0   0   0   0   0   0   0   0   0
  0   0   0   0
  0   0   0   0   0   0   0   0   0   0   0   0   0   0   0   0   0   0   0   0   0   0   0   0
  0   0   0   0   0   0   4   9   9   9   9   9   9   9  10   7  16  35  36  49  84  97 104 113
120 129 128 116 121 139 133 127 125 124 123 117 118 124 120 111 123 124 118 115 128 104   0   3
  3   0   0   0   0   0   0   0   0   0   0   0   0   0   0   0   0   0   0   0   0   0   0   0
  0   0   0   0
  0   0   0   0   0   0   0   0   0   0   0   0   0   0   0   0   0   0   0   0   0   0   0   0
  0   0   0   0   0   0   4   9   9   9   9   9   9   9   9   9   7  17  25  21  40  64  86 103
106 108 104  96  97 101 111 122 118 116 112 114 119 113  98  96 103 104 102 109 124  92   0   4
  2   0   0   0   0   0   0   0   0   0   0   0   0   0   0   0   0   0   0   0   0   0   0   0
  0   0   0   0
  0   0   0   0   0   0   0   0   0   0   0   0   0   0   0   0   0   0   0   0   0   0   0   0
  0   0   0   0   0   0   4  10  10  10   9  10  10   9   9   9   9   9  17  23  23  23  53  84
100 107 109 107 103 101 105 117 118 112 110 110 100  88  88  96  96  97 102 109 115  86   0   3
  2   0   0   0   0   0   0   0   0   0   0   0   0   0   0   0   0   0   0   0   0   0   0   0
  0   0   0   0
  0   0   0   0   0   0   0   0   0   0   0   0   0   0   0   0   0   0   0   0   0   0   0   0
  0   0   0   0   0   0   4  10  10  10  10  10   9   9   9   9   9   9  13  19  23  27  28  48
 80 100 114 116 118 127 119 117 114 109 104  92  79  77  92 106 100  99 104  98 104  82   0   2
  2   0   0   0   0   0   0   0   0   0   0   0   0   0   0   0   0   0   0   0   0   0   0   0
  0   0   0   0
  0   0   0   0   0   0   0   0   0   0   0   0   0   0   0   0   0   0   0   0   0   0   0   0
  0   0   0   0   0   0   4  10  10  10  10  10  10   9   9   9   9   9   9  15  20  22  27  34
 51  87 105 110 121 128 121 107  99  96  86  77  76  84 103 114 107 105  98  90 102  82   0   2
  2   0   0   0   0   0   0   0   0   0   0   0   0   0   0   0   0   0   0   0   0   0   0   0
  0   0   0   0
  0   0   0   0   0   0   0   0   0   0   0   0   0   0   0   0   0   0   0   0   0   0   0   0
  0   0   0   0   0   0   5  11  10  11  10  10  10   9   9  10   9  10   9  10  17  20  22  27
 36  56  75  88  89  87  92  90  86  81  76  73  80  88 100 106 101  99  92  91 102  79   0   2
  1   0   0   0   0   0   0   0   0   0   0   0   0   0   0   0   0   0   0   0   0   0   0   0
  0   0   0   0
  0   0   0   0   0   0   0   0   0   0   0   0   0   0   0   0   0   0   0   0   0   0   0   0
  0   0   0   0   0   0   5  11  10  11  10  10  10   9   9  10   9  10  10   9  12  18  20  22
 26  30  38  54  62  58  59  63  61  66  70  69  71  75  82  76  78  90  86  84  94  74   0   1
  2   0   0   0   0   0   0   0   0   0   0   0   0   0   0   0   0   0   0   0   0   0   0   0
  0   0   0   0
  0   0   0   0   0   0   0   0   0   0   0   0   0   0   0   0   0   0   0   0   0   0   0   0
  0   0   0   0   0   0   5  11  10  10  10  10   9   9  10  10  10  10  10  10   9  13  18  18
 21  25  28  31  36  40  42  48  51  52  55  58  61  66  69  65  77  85  77  76  85  74   0   0
  2   0   0   0   0   0   0   0   0   0   0   0   0   0   0   0   0   0   0   0   0   0   0   0
  0   0   0   0
  0   0   0   0   0   0   0   0   0   0   0   0   0   0   0   0   0   0   0   0   0   0   0   0
  0   0   0   0   0   0   4  11  10  10  10   9   9   9  10  10  10  10  10   9   9   9  14  18
 18  22  26  30  34  36  40  42  47  49  51  54  56  59  62  63  68  72  70  71  82  75   0   0
  2   0   0   0   0   0   0   0   0   0   0   0   0   0   0   0   0   0   0   0   0   0   0   0
  0   0   0   0
  0   0   0   0   0   0   0   0   0   0   0   0   0   0   0   0   0   0   0   0   0   0   0   0
  0   0   0   0   0   0   4  11  10  10  10   9   9   9  10  10  10  10  10   9  10   9   9  14
 17  19  22  26  29  32  34  38  45  51  50  51  54  56  56  57  59  62  65  66  79  74   0   0
  3   0   0   0   0   0   0   0   0   0   0   0   0   0   0   0   0   0   0   0   0   0   0   0
  0   0   0   0
  0   0   0   0   0   0   0   0   0   0   0   0   0   0   0   0   0   0   0   0   0   0   0   0
  0   0   0   0   0   0   5  11  10  10  10   9  10  10  10  10  10  10  10   9  10  10   9   9
 13  17  19  22  26  29  32  35  41  48  44  48  51  49  51  52  55  59  62  63  75  71   0   0
  3   0   0   0   0   0   0   0   0   0   0   0   0   0   0   0   0   0   0   0   0   0   0   0
  0   0   0   0
  0   0   0   0   0   0   0   0   0   0   0   0   0   0   0   0   0   0   0   0   0   0   0   0
  0   0   0   0   0   0   5  11  10  10  10   9   9  10  10  10  10  10  10   9  10   9   9   9
  9  12  17  19  21  24  27  29  33  37  39  42  43  45  47  49  49  51  58  58  67  66   0   0
  2   0   0   0   0   0   0   0   0   0   0   0   0   0   0   0   0   0   0   0   0   0   0   0
  0   0   0   0
  0   0   0   0   0   0   0   0   0   0   0   0   0   0   0   0   0   0   0   0   0   0   0   0
  0   0   0   0   0   0   5  11  10  10  10   9  10  10  10  10  10  10  10  10   9   9   9   9
  9   9  12  16  18  20  23  25  28  30  33  34  37  40  42  44  44  47  50  48  55  57   0   0
  2   0   0   0   0   0   0   0   0   0   0   0   0   0   0   0   0   0   0   0   0   0   0   0
  0   0   0   0
  0   0   0   0   0   0   0   0   0   0   0   0   0   0   0   0   0   0   0   0   0   0   0   0
  0   0   0   0   0   0   5  11  10  10  10  10  10  10  10  10  10  10  10  10   9   9  10  10
 10   9   9  12  15  17  19  21  23  25  27  29  32  35  38  38  39  41  42  42  47  47   1   0
  1   0   0   0   0   0   0   0   0   0   0   0   0   0   0   0   0   0   0   0   0   0   0   0
  0   0   0   0
  0   0   0   0   0   0   0   0   0   0   0   0   0   0   0   0   0   0   0   0   0   0   0   0
  0   0   0   0   0   0   5  11  11  10  10  10  10  10  10  10  10  10  10   9   9  10  10   9
  9   9   9   9  11  14  16  18  20  22  24  26  28  31  33  34  36  37  39  39  45  46   0   0
  1   0   0   0   0   0   0   0   0   0   0   0   0   0   0   0   0   0   0   0   0   0   0   0
  0   0   0   0
  0   0   0   0   0   0   0   0   0   0   0   0   0   0   0   0   0   0   0   0   0   0   0   0
  0   0   0   0   0   0   5  12  11  10  10  10  10  11  10  10  10  10  10  10  10  10  10   9
 10   9   9  10   9  10  13  15  17  19  21  23  25  27  29  31  33  35  36  34  41  41   0   0
  1   0   0   0   0   0   0   0   0   0   0   0   0   0   0   0   0   0   0   0   0   0   0   0
  0   0   0   0
  0   0   0   0   0   0   0   0   0   0   0   0   0   0   0   0   0   0   0   0   0   0   0   0
  0   0   0   0   0   0   5  11  11  11  10  10  10  11  11  11  10  10  11  10  10  10  10  10
  9   9  10  10  10   9   9  12  14  16  18  20  22  23  25  26  29  31  32  31  38  37   1   0
  1   0   0   0   0   0   0   0   0   0   0   0   0   0   0   0   0   0   0   0   0   0   0   0
  0   0   0   0
  0   0   0   0   0   0   0   0   0   0   0   0   0   0   0   0   0   0   0   0   0   0   0   0
  0   0   0   0   0   0   5  12  11  11  11  11  10  11  11  11  10  10  11  11  10  10  10  10
 10   9   9  10  10  10  10   9  11  13  15  18  19  21  23  24  26  28  30  31  35  35   1   0
  1   0   0   0   0   0   0   0   0   0   0   0   0   0   0   0   0   0   0   0   0   0   0   0
  0   0   0   0
  0   0   0   0   0   0   0   0   0   0   0   0   0   0   0   0   0   0   0   0   0   0   0   0
  0   0   0   0   0   0   5  12  11  11  11  11  11  11  11  11  11  11  11  11  10  10  10  10
 10  10   9  10  10  10  10  10  10  10  12  15  18  20  21  22  24  25  28  28  31  33   1   0
  1   0   0   0   0   0   0   0   0   0   0   0   0   0   0   0   0   0   0   0   0   0   0   0
  0   0   0   0
  0   0   0   0   0   0   0   0   0   0   0   0   0   0   0   0   0   0   0   0   0   0   0   0
  0   0   0   0   0   0   5  12  12  11  11  11  11  11  11  11  11  11  11  11  11  11  10  10
 10  10  10  10  10  10  10  10  10  10  10  11  14  17  19  20  21  22  23  23  29  32   2   0
  1   0   0   0   0   0   0   0   0   0   0   0   0   0   0   0   0   0   0   0   0   0   0   0
  0   0   0   0
  0   0   0   0   0   0   0   0   0   0   0   0   0   0   0   0   0   0   0   0   0   0   0   0
  0   0   0   0   0   0   5  12  11  12  11  11  11  11  11  12  11  12  12  12  11  11  11  10
 10  10  10  10  11  11  10  10  10   9   9   9   9  11  13  15  17  19  20  20  25  28   2   0
  1   0   0   0   0   0   0   0   0   0   0   0   0   0   0   1   1   1   1   1   1   1   1   1
  1   1   1   1
  0   0   0   0   0   0   0   0   0   0   0   0   0   0   0   0   0   0   0   0   0   0   0   0
  0   0   0   0   0   0   5  12  11  12  12  12  12  12  12  12  12  12  12  12  12  11  11  11
 10  10  10  11  11  11  10  10  11  10  10  10  10  11  11  12  14  16  17  18  24  29   2   0
  1   0   0   0   0   0   0   0   0   0   0   0   0   0   0   0   0   0   0   0   0   0   0   0
  0   0   0   0
  0   0   0   0   0   0   0   0   0   0   0   0   0   0   0   0   0   0   0   0   0   0   0   0
  0   0   0   0   0   0   5  12  12  12  12  12  12  13  12  12  12  12  12  12  12  12  12  11
 11  10  11  11  11  11  11  11  11  11  11  11  11  11  11  12  12  12  12  10  17  25   2   0
  1   0   0   0   0   0   0   0   0   0   0   0   0   0   0   0   0   0   0   0   0   0   0   0
  0   0   0   0
  0   0   0   0   0   0   0   0   0   0   0   0   0   0   0   0   0   0   0   0   0   0   0   0
  0   0   0   0   0   0   5  12  12  12  12  13  13  13  13  13  12  13  12  12  12  12  12  12
 12  11  11  11  11  11  11  11  11  11  11  11  11  11  11  12  12  12  11   9  12  21   3   0
  1   0   0   0   0   0   0   0   0   0   0   0   0   0   0   0   0   0   0   0   0   0   0   0
  0   0   0   0
