P2
# 8-bit pgm gray
100 100
255
  0   0   0   0   0   0   0   0   0   0   0   0   0   0   0   0   0   0   0   0   0   0  15   0
 54 179 199 194 192 196 200 201 200 194 190 188 180 170 164 157 144 130 128 128 126 125 120 118
113 106  96  89  79  67  54  46  40  26  23  18  13  13  13  13  13  13  12  12  13  13  13  13
 13  13  12   1   0   0   0   0   0   0   0   0   0   0   0   0   0   0   0   0   0   0   0   0
  0   0   0   0
  0   0   0   0   0   0   0   0   0   0   0   0   0   0   0   0   0   0   0   0   0   0  15   0
 56 181 197 191 192 196 198 201 198 190 187 185 177 167 163 155 140 128 128 127 125 124 120 117
112 108 100  87  78  66  51  45  39  26  22  18  13  12  12  12  12  12  12  12  12  12  13  13
 13  13  11   1   0   0   0   0   0   0   0   0   0   0   0   0   0   0   0   0   0   0   0   0
  0   0   0   0
  0   0   0   0   0   0   0   0   0   0   0   0   0   0   0   0   0   0   0   0   0   0  15   0
 56 179 193 188 193 196 197 200 195 188 186 183 174 166 161 151 136 126 127 128 124 123 120 116
112 109 103  88  76  65  51  45  39  25  22  17  12  12  12  12  12  12  12  12  12  12  12  12
 12  13  11   1   0   0   0   0   0   0   0   0   0   0   0   0   0   0   0   0   0   0   0   0
  0   0   0   0
  0   0   0   0   0   0   0   0   0   0   0   0   0   0   0   0   0   0   0   0   0   0  15   0
 57 179 192 188 191 195 197 199 192 187 186 182 171 166 158 144 131 127 127 126 123 123 120 115
111 108 101  88  74  64  51  46  40  25  22  17  12  12  12  12  12  12  12  12  12  12  12  12
 12  13  11   1   0   0   0   0   0   0   0   0   0   0   0   0   0   0   0   0   0   0   0   0
  0   0   0   0
  0   0   0   0   0   0   0   0   0   0   0   0   0   0   0   0   0   0   0   0   0   0  15   0
 59 179 190 188 192 195 197 197 188 184 184 179 169 166 156 141 130 128 126 124 125 124 119 117
112 107  99  89  76  65  51  46  40  25  22  17  12  12  12  11  11  12  12  12  12  12  12  12
 12  13  11   1   0   0   0   0   0   0   0   0   0   0   0   0   0   0   0   0   0   0   0   0
  0   0   0   0
  0   0   0   0   0   0   0   0   0   0   0   0   0   0   0   0   0   0   0   0   0   0  14   0
 56 175 188 186 193 195 196 191 185 183 184 175 167 164 153 136 130 129 127 126 127 122 118 120
114 105  96  89  78  66  53  47  41  26  22  17  12  11  12  11  11  12  12  12  12  12  12  12
 12  13  11   1   0   0   0   0   0   0   0   0   0   0   0   0   0   0   0   0   0   0   0   0
  0   0   0   0
  0   0   0   0   0   0   0   0   0   0   0   0   0   0   0   0   0   0   0   0   0   0  14   0
 56 172 187 186 191 194 193 186 181 183 183 172 166 161 148 133 130 130 127 125 126 123 120 117
112 104  97  89  76  66  53  45  39  26  22  17  12  11  12  11  11  11  11  11  12  12  12  12
 12  12  11   1   0   0   0   0   0   0   0   0   0   0   0   0   0   0   0   0   0   0   0   0
  0   0   0   0
  0   0   0   0   0   0   0   0   0   0   0   0   0   0   0   0   0   0   0   0   0   0  14   0
 53 171 188 188 192 193 189 183 179 183 180 170 167 158 142 132 130 128 127 125 121 121 116 114
112 105  95  88  76  64  52  44  37  27  22  17  12  11  11  11  11  12  13  11  11  11  11  12
 12  12  10   1   0   0   0   0   0   0   0   0   0   0   0   0   0   0   0   0   0   0   0   0
  0   0   0   0
  0   0   0   0   0   0   0   0   0   0   0   0   0   0   0   0   0   0   0   0   0   0  14   0
 54 172 191 191 195 192 185 180 179 184 175 167 167 154 138 130 127 127 126 122 120 118 116 113
113 106  95  86  76  64  51  45  38  26  22  17  12  11  11  11  11  11  12  11  11  11  11  11
 11  12  10   1   0   0   0   0   0   0   0   0   0   0   0   0   0   0   0   0   0   0   0   0
  0   0   0   0
  0   0   0   0   0   0   0   0   0   0   0   0   0   0   0   0   0   0   0   0   0   0  14   0
 53 172 192 192 193 189 181 178 180 183 171 167 165 151 133 130 127 126 123 122 121 120 119 113
110 106  96  85  75  65  54  45  37  26  22  17  12  11  11  11  11  11  11  11  11  11  11  11
 11  12  10   1   0   0   0   0   0   0   0   0   0   0   0   0   0   0   0   0   0   0   0   0
  0   0   0   0
  0   0   0   0   0   0   0   0   0   0   0   0   0   0   0   0   0   0   0   0   0   0  14   0
 53 177 195 191 190 183 178 176 179 179 168 166 159 145 134 129 128 127 125 123 122 117 119 116
108 103  96  85  75  66  53  44  37  26  22  17  12  10  11  11  11  11  11  11  11  11  11  11
 11  11  10   1   0   0   0   0   0   0   0   0   0   0   0   0   0   0   0   0   0   0   0   0
  0   0   0   0
  0   0   0   0   0   0   0   0   0   0   0   0   0   0   0   0   0   0   0   0   0   0  15   0
 53 179 194 189 186 177 176 177 180 172 166 166 155 140 134 129 129 126 128 128 122 118 117 117
112 103  96  86  78  66  50  43  37  27  22  18  13  10  11  11  11  11  11  11  11  11  11  11
 11  11  10   1   0   0   0   0   0   0   0   0   0   0   0   0   0   0   0   0   0   0   0   0
  0   0   0   0
  0   0   0   0   0   0   0   0   0   0   0   0   0   0   0   0   0   0   0   0   0   0  14   0
 53 180 194 189 181 175 174 179 180 168 167 164 151 137 134 129 127 127 127 128 123 119 120 118
112 104  97  86  79  66  51  44  37  27  22  18  12  10  11  11  11  10  11  11  11  11  11  11
 11  11  10   1   0   0   0   0   0   0   0   0   0   0   0   0   0   0   0   0   0   0   0   0
  0   0   0   0
  0   0   0   0   0   0   0   0   0   0   0   0   0   0   0   0   0   0   0   0   0   0  15   0
 54 179 193 182 176 175 175 180 177 169 170 160 143 133 131 132 128 125 125 124 123 122 120 118
112 106  99  88  78  66  52  43  34  27  22  18  12  10  11  11  11  11  11  11  11  10  11  11
 11  11  10   1   0   0   0   0   0   0   0   0   0   0   0   0   0   0   0   0   0   0   0   0
  0   0   0   0
  0   0   0   0   0   0   0   0   0   0   0   0   0   0   0   0   0   0   0   0   0   0  14   0
 53 179 190 175 170 173 176 177 170 168 167 155 142 133 130 132 132 128 128 125 125 121 118 117
114 106 100  90  80  67  52  43  34  28  23  18  12  10  11  11  11  11  10  10  10  10  11  11
 11  11  10   1   0   0   0   0   0   0   0   0   0   0   0   0   0   0   0   0   0   0   0   0
  0   0   0   0
  0   0   0   0   0   0   0   0   0   0   0   0   0   0   0   0   0   0   0   0   0   0  14   0
 51 178 186 171 170 173 176 174 167 168 161 145 138 134 130 130 133 131 127 124 126 121 120 119
114 107  99  91  82  70  56  44  35  29  23  18  13  10  10  10  10  10  10  10  11  11  11  11
 11  11  10   1   0   0   0   0   0   0   0   0   0   0   0   0   0   0   0   0   0   0   0   0
  0   0   0   0
  0   0   0   0   0   0   0   0   0   0   0   0   0   0   0   0   0   0   0   0   0   0  13   0
 50 173 180 165 171 175 176 172 167 165 156 142 132 132 129 129 130 128 125 124 126 125 121 120
115 110 100  91  82  72  59  46  36  29  24  19  14  10  10  10  10  11  10  10  11  10  11  11
 11  11  10   1   0   0   0   0   0   0   0   0   0   0   0   0   0   0   0   0   0   0   0   0
  0   0   0   0
  0   0   0   0   0   0   0   0   0   0   0   0   0   0   0   0   0   0   0   0   0   0  13   0
 52 171 175 166 173 176 174 169 166 161 148 141 135 131 129 128 129 128 125 125 125 124 122 120
115 109 101  91  82  73  58  47  38  31  24  20  15  10  10  10  10  11  11  10  10  10  11  10
 11  12  10   1   0   0   0   0   0   0   0   0   0   0   0   0   0   0   0   0   0   0   0   0
  0   0   0   0
  0   0   0   0   0   0   0   0   0   0   0   0   0   0   0   0   0   0   0   0   0   0  13   0
 52 165 171 170 176 175 173 170 166 156 142 136 137 133 130 128 128 129 127 125 126 124 122 121
116 110 100  95  88  74  59  49  40  32  25  21  16  10  10  10  10  11  10  10  10  10  10  10
 10  11  10   1   0   0   0   0   0   0   0   0   0   0   0   0   0   0   0   0   0   0   0   0
  0   0   0   0
  0   0   0   0   0   0   0   0   0   0   0   0   0   0   0   0   0   0   0   0   0   0  12   0
 52 157 170 176 179 176 171 168 164 154 141 135 137 136 130 128 130 128 127 126 127 125 123 121
117 113 105  99  90  76  63  52  42  33  26  21  17  11  10  10  10  10  10  10  10  11  10  10
 10  11  10   1   0   0   0   0   0   0   0   0   0   0   0   0   0   0   0   0   0   0   0   0
  0   0   0   0
  0   0   0   0   0   0   0   0   0   0   0   0   0   0   0   0   0   0   0   0   0   0  12   0
 49 157 176 178 177 175 171 166 158 151 142 138 136 136 137 131 130 130 126 127 128 127 127 123
117 112 106  98  90  77  67  54  44  35  27  22  18  12  10  10  10  10  10  10  10  10  10  10
 10  11  10   1   0   0   0   0   0   0   0   0   0   0   0   0   0   0   0   0   0   0   0   0
  0   0   0   0
  0   0   0   0   0   0   0   0   0   0   0   0   0   0   0   0   0   0   0   0   0   0  12   0
 46 161 181 178 174 170 169 163 157 147 141 139 136 134 136 135 130 129 128 129 128 128 130 124
119 113 107  99  91  79  70  57  45  37  29  22  19  13   9  10  10  10  10  10  10  10  10  10
 10  11  10   1   0   0   0   0   0   0   0   0   0   0   0   0   0   0   0   0   0   0   0   0
  0   0   0   0
  0   0   0   0   0   0   0   0   0   0   0   0   0   0   0   0   0   0   0   0   0   0  12   0
 48 164 181 176 171 169 167 160 150 144 140 139 138 136 135 134 133 130 129 131 130 128 127 126
121 117 110 101  92  81  72  61  46  38  31  24  20  14   9  10  10  10  10  10  10  10  10  10
 10  11  10   1   0   0   0   0   0   0   0   0   0   0   0   0   0   0   0   0   0   0   0   0
  0   0   0   0
  0   0   0   0   0   0   0   0   0   0   0   0   0   0   0   0   0   0   0   0   0   0  12   0
 49 164 180 176 172 170 162 153 143 141 142 141 140 137 138 137 135 134 131 130 132 132 128 124
122 119 112 103  94  82  72  64  51  40  32  25  21  15   9  10  10  10  10  10  10  10  10  10
 10  11   9   1   0   0   0   0   0   0   0   0   0   0   0   0   0   0   0   0   0   0   0   0
  0   0   0   0
  0   0   0   0   0   0   0   0   0   0   0   0   0   0   0   0   0   0   0   0   0   0  13   0
 49 167 181 177 174 165 155 148 141 139 142 139 145 147 140 134 133 134 134 136 135 133 133 128
123 119 112 105  99  87  77  68  55  44  35  27  22  17  10   9  10  10  10  10  10  10  10  10
 10  11   9   1   0   0   0   0   0   0   0   0   0   0   0   0   0   0   0   0   0   0   0   0
  0   0   0   0
  0   0   0   0   0   0   0   0   0   0   0   0   0   0   0   0   0   0   0   0   0   0  13   0
 50 168 181 174 171 162 153 143 138 136 138 138 142 144 141 139 134 131 132 137 141 136 132 129
127 120 114 108 101  90  82  70  59  48  37  30  23  18  12   9  10  10  10  10  10  10  10  10
 10  10   9   1   0   0   0   0   0   0   0   0   0   0   0   0   0   0   0   0   0   0   0   0
  0   0   0   0
  0   0   0   0   0   0   0   0   0   0   0   0   0   0   0   0   0   0   0   0   0   0  14   0
 53 170 181 172 166 161 152 141 136 137 138 140 142 142 141 141 139 135 131 134 139 138 134 131
128 124 120 113 106  96  85  73  63  50  40  32  25  20  14   9  10  10  10  10  10  10  10  10
 10  11   9   1   0   0   0   0   0   0   0   0   0   0   0   0   0   0   0   0   0   0   0   0
  0   0   0   0
  0   0   0   0   0   0   0   0   0   0   0   0   0   0   0   0   0   0   0   0   0   0  13   0
 52 169 179 167 160 157 148 140 137 137 137 140 140 138 142 142 138 139 137 137 136 134 136 136
132 126 120 113 110 102  87  76  65  54  44  35  27  21  16  10  10  10  10  10  10  10  10  10
 10  11   9   1   0   0   0   0   0   0   0   0   0   0   0   0   0   0   0   0   0   0   0   0
  0   0   0   0
  0   0   0   0   0   0   0   0   0   0   0   0   0   0   0   0   0   0   0   0   0   0  13   0
 51 168 177 163 157 150 142 138 140 142 141 145 144 142 143 146 141 139 140 140 138 133 134 135
136 128 121 117 111 103  93  80  67  57  47  38  29  23  18  11   9  10  10   9  10  10  10  10
 10  11   9   1   0   0   0   0   0   0   0   0   0   0   0   0   0   0   0   0   0   0   0   0
  0   0   0   0
  0   0   0   0   0   0   0   0   0   0   0   0   0   0   0   0   0   0   0   0   0   0  13   0
 51 166 173 163 156 146 140 137 141 147 149 148 142 142 143 146 141 138 137 137 136 134 136 135
133 132 129 122 115 106  97  85  72  61  50  40  32  24  19  13   9  10  10  10  10  10  10  10
 10  10   9   1   0   0   0   0   0   0   0   0   0   0   0   0   0   0   0   0   0   0   0   0
  0   0   0   0
  0   0   0   0   0   0   0   0   0   0   0   0   0   0   0   0   0   0   0   0   0   0  12   0
 50 162 174 165 156 148 143 142 144 149 146 146 140 139 140 139 141 138 137 137 134 133 135 137
134 133 135 130 117 106  97  87  78  67  52  43  34  27  23  15   9   9   9   9  10  10  10  10
 10  10   9   1   0   0   0   0   0   0   0   0   0   0   0   0   0   0   0   0   0   0   0   0
  0   0   0   0
  0   0   0   0   0   0   0   0   0   0   0   0   0   0   0   0   0   0   0   0   0   0  12   0
 49 157 168 164 154 146 145 142 142 145 143 143 145 141 140 139 141 139 137 136 135 133 133 135
132 131 127 127 120 107  97  90  81  72  59  47  38  30  25  17  10   9  10  10  10  10  10  10
 10  10   9   1   0   0   0   0   0   0   0   0   0   0   0   0   0   0   0   0   0   0   0   0
  0   0   0   0
  0   0   0   0   0   0   0   0   0   0   0   0   0   0   0   0   0   0   0   0   0   0  11   0
 47 154 164 156 145 140 141 140 141 144 145 144 146 139 139 139 141 142 141 139 136 135 136 137
137 135 131 126 120 114 103  93  84  74  64  53  41  32  26  19  12   9  10  10  10  10  10  10
 10  10   9   1   0   0   0   0   0   0   0   0   0   0   0   0   0   0   0   0   0   0   0   0
  0   0   0   0
  0   0   0   0   0   0   0   0   0   0   0   0   0   0   0   0   0   0   0   0   0   0  11   0
 48 154 161 153 147 142 138 141 143 140 142 146 147 144 142 142 143 144 141 140 140 140 139 140
141 138 135 128 121 118 113  99  86  76  65  55  45  36  27  21  14   9  10   9  10  10  10  10
 10  10   9   1   0   0   0   0   0   0   0   0   0   0   0   0   0   0   0   0   0   0   0   0
  0   0   0   0
  0   0   0   0   0   0   0   0   0   0   0   0   0   0   0   0   0   0   0   0   0   0  12   0
 48 157 162 149 149 147 143 145 150 150 148 147 145 146 142 141 139 140 141 138 138 141 142 142
138 135 133 129 125 119 112 104  93  81  68  57  48  37  29  22  16  10  10   9   9   9  10  10
 10  10   9   1   0   0   0   0   0   0   0   0   0   0   0   0   0   0   0   0   0   0   0   0
  0   0   0   0
  0   0   0   0   0   0   0   0   0   0   0   0   0   0   0   0   0   0   0   0   0   0  11   0
 47 154 160 148 150 149 144 144 147 152 151 146 146 145 140 136 135 137 140 142 141 138 145 144
139 134 134 131 126 121 113 105  98  90  75  61  51  41  32  24  19  11   9   9   9   9   9   9
  9  10   9   1   0   0   0   0   0   0   0   0   0   0   0   0   0   0   0   0   0   0   0   0
  0   0   0   0
  0   0   0   0   0   0   0   0   0   0   0   0   0   0   0   0   0   0   0   0   0   0  11   0
 48 151 156 150 149 152 150 144 147 153 150 147 145 144 142 139 136 135 136 140 144 141 144 149
142 137 137 133 127 121 115 107  98  90  82  69  55  44  35  26  20  13   9  10   9   9   9   9
  9  10   9   1   0   0   0   0   0   0   0   0   0   0   0   0   0   0   0   0   0   0   0   0
  0   0   0   0
  0   0   0   0   0   0   0   0   0   0   0   0   0   0   0   0   0   0   0   0   0   0  11   0
 47 151 161 158 155 154 155 151 153 158 154 149 149 148 145 147 145 141 140 142 143 145 146 152
151 149 146 136 128 123 117 110 102  94  85  73  62  50  39  29  22  15   9   9   9   9   9  10
  9  10   8   1   0   0   0   0   0   0   0   0   0   0   0   0   0   0   0   0   0   0   0   0
  0   0   0   0
  0   0   0   0   0   0   0   0   0   0   0   0   0   0   0   0   0   0   0   0   0   0   9   0
 42 142 158 158 163 164 157 154 152 156 155 148 146 146 149 151 150 147 147 146 148 152 158 162
163 159 153 141 131 126 120 112 105  97  87  77  66  56  42  30  23  17  10   9  10   9   9   9
  9   9   8   1   0   0   0   0   0   0   0   0   0   0   0   0   0   0   0   0   0   0   0   0
  0   0   0   0
  0   0   0   0   0   0   0   0   0   0   0   0   0   0   0   0   0   0   0   0   0   0   9   0
 42 140 150 149 155 164 165 157 150 155 156 150 146 145 146 146 150 152 154 154 156 160 163 167
162 148 142 137 131 124 120 113 105  99  91  81  68  56  45  32  24  18  11   9  10   9   9   9
  9   9   8   1   0   0   0   0   0   0   0   0   0   0   0   0   0   0   0   0   0   0   0   0
  0   0   0   0
  0   0   0   0   0   0   0   0   0   0   0   0   0   0   0   0   0   0   0   0   0   0   9   0
 45 140 152 149 146 152 161 164 159 156 157 155 155 153 151 151 156 157 157 155 158 166 170 165
148 139 135 135 135 128 121 116 110 104  93  82  71  58  47  37  26  20  12   8  10   9   9   9
  9   9   8   1   0   0   0   0   0   0   0   0   0   0   0   0   0   0   0   0   0   0   0   0
  0   0   0   0
  0   0   0   0   0   0   0   0   0   0   0   0   0   0   0   0   0   0   0   0   0   0  10   0
 44 142 154 152 150 149 151 157 164 162 158 156 160 158 158 159 160 159 156 154 157 161 166 163
148 143 140 139 141 138 125 119 112 106  97  85  74  64  51  39  29  21  14   9  10   9   9   9
  9  10   8   1   0   0   0   0   0   0   0   0   0   0   0   0   0   0   0   0   0   0   0   0
  0   0   0   0
  0   0   0   0   0   0   0   0   0   0   0   0   0   0   0   0   0   0   0   0   0   0   9   0
 41 137 150 150 151 152 152 152 157 160 161 162 159 158 165 166 160 158 154 153 161 160 157 159
156 156 156 149 140 134 128 123 115 107 100  90  80  68  55  41  32  24  15   9   9   9   9   9
  9   9   8   1   0   0   0   0   0   0   0   0   0   0   0   0   0   0   0   0   0   0   0   0
  0   0   0   0
  0   0   0   0   0   0   0   0   0   0   0   0   0   0   0   0   0   0   0   0   0   0   9   0
 42 137 149 152 152 150 153 155 157 160 166 166 161 158 164 168 167 163 160 162 167 173 166 154
156 161 160 146 133 129 126 122 117 114 108  98  85  71  58  45  33  26  17   9   9   9   9   9
  9   9   8   1   0   0   0   0   0   0   0   0   0   0   0   0   0   0   0   0   0   0   0   0
  0   0   0   0
  0   0   0   0   0   0   0   0   0   0   0   0   0   0   0   0   0   0   0   0   0   0   9   0
 43 137 152 157 154 149 149 153 156 160 164 164 165 166 169 174 172 170 169 167 165 172 173 164
167 169 166 159 138 129 129 124 120 117 110  99  88  74  61  48  35  26  19  10   9   9   9   9
  9   9   8   1   0   0   0   0   0   0   0   0   0   0   0   0   0   0   0   0   0   0   0   0
  0   0   0   0
  0   0   0   0   0   0   0   0   0   0   0   0   0   0   0   0   0   0   0   0   0   0  10   0
 44 143 154 156 158 155 153 150 154 160 158 162 167 170 170 167 170 172 164 164 169 174 174 176
177 182 182 167 155 141 131 127 125 121 114 103  90  78  64  51  38  28  21  11   9   9   9   9
  9   9   8   1   0   0   0   0   0   0   0   0   0   0   0   0   0   0   0   0   0   0   0   0
  0   0   0   0
  0   0   0   0   0   0   0   0   0   0   0   0   0   0   0   0   0   0   0   0   0   0  10   0
 43 146 160 155 158 161 161 159 157 163 162 162 170 173 170 167 167 162 152 161 169 172 174 181
180 176 179 179 163 147 138 131 126 121 117 110  97  83  68  54  41  29  22  13   8   9   9   9
  9   9   8   1   0   0   0   0   0   0   0   0   0   0   0   0   0   0   0   0   0   0   0   0
  0   0   0   0
  0   0   0   0   0   0   0   0   0   0   0   0   0   0   0   0   0   0   0   0   0   0   9   0
 42 143 159 155 153 157 161 164 164 168 174 170 172 177 169 163 164 162 156 154 156 163 168 171
174 169 177 182 159 145 138 131 127 124 117 109  98  87  74  59  45  32  23  14   8   9   9   9
  9   9   8   1   0   0   0   0   0   0   0   0   0   0   0   0   0   0   0   0   0   0   0   0
  0   0   0   0
  0   0   0   0   0   0   0   0   0   0   0   0   0   0   0   0   0   0   0   0   0   0   9   0
 41 138 155 157 154 154 160 159 159 164 171 168 169 171 163 165 169 168 167 168 159 157 156 156
161 163 169 170 154 148 145 139 131 125 119 111 100  88  76  61  47  33  24  15   8   9   9   9
  9   9   8   1   0   0   0   0   0   0   0   0   0   0   0   0   0   0   0   0   0   0   0   0
  0   0   0   0
  0   0   0   0   0   0   0   0   0   0   0   0   0   0   0   0   0   0   0   0   0   0   9   0
 45 140 148 152 153 150 157 160 162 161 169 174 169 165 165 167 164 167 167 166 159 153 155 152
154 166 168 172 163 145 142 141 135 125 118 113 105  92  76  62  49  34  25  17   8   9   9   9
  9   9   8   1   0   0   0   0   0   0   0   0   0   0   0   0   0   0   0   0   0   0   0   0
  0   0   0   0
  0   0   0   0   0   0   0   0   0   0   0   0   0   0   0   0   0   0   0   0   0   0  10   0
 46 145 152 149 156 158 155 157 163 166 170 183 175 167 167 162 159 164 165 160 158 155 158 160
159 166 171 172 169 153 139 132 132 131 123 115 104  91  77  63  50  36  26  18   9   9   9   9
  9   9   8   1   0   0   0   0   0   0   0   0   0   0   0   0   0   0   0   0   0   0   0   0
  0   0   0   0
  0   0   0   0   0   0   0   0   0   0   0   0   0   0   0   0   0   0   0   0   0   0  10   0
 43 147 161 155 157 162 161 162 166 168 173 186 184 165 158 162 161 160 160 158 158 157 160 169
171 161 163 160 161 160 148 135 126 130 123 112 104  92  77  65  50  36  27  18   9   9   9   9
  9   9   8   1   0   0   0   0   0   0   0   0   0   0   0   0   0   0   0   0   0   0   0   0
  0   0   0   0
  0   0   0   0   0   0   0   0   0   0   0   0   0   0   0   0   0   0   0   0   0   0  10   0
 46 149 161 161 165 164 168 174 170 168 172 175 181 170 159 155 153 156 157 148 154 165 164 167
174 167 157 154 149 159 156 144 131 127 121 112 104  92  79  64  49  38  28  18  10   9   9   9
  9   9   8   1   0   0   0   0   0   0   0   0   0   0   0   0   0   0   0   0   0   0   0   0
  0   0   0   0
  0   0   0   0   0   0   0   0   0   0   0   0   0   0   0   0   0   0   0   0   0   0  10   0
 41 148 163 154 159 168 172 176 172 171 167 158 165 169 159 151 149 151 153 151 151 163 168 164
167 171 159 153 152 152 158 144 133 128 124 112 101  91  77  63  50  38  28  18  10   9   9   9
  9   9   8   1   0   0   0   0   0   0   0   0   0   0   0   0   0   0   0   0   0   0   0   0
  0   0   0   0
  0   0   0   0   0   0   0   0   0   0   0   0   0   0   0   0   0   0   0   0   0   0   9   0
 40 139 159 153 152 159 165 174 177 172 160 154 152 160 164 158 154 153 152 151 151 155 161 167
167 167 167 161 158 161 172 159 135 126 126 121 106  90  77  64  50  38  27  19  10   8   9   9
  9   9   8   1   0   0   0   0   0   0   0   0   0   0   0   0   0   0   0   0   0   0   0   0
  0   0   0   0
  0   0   0   0   0   0   0   0   0   0   0   0   0   0   0   0   0   0   0   0   0   0  10   0
 44 143 156 152 154 158 163 173 175 170 163 157 155 155 166 163 156 156 153 147 145 146 149 156
164 161 163 167 161 162 170 171 158 143 124 117 107  92  79  65  51  39  27  18  10   8   9   9
  9   9   8   1   0   0   0   0   0   0   0   0   0   0   0   0   0   0   0   0   0   0   0   0
  0   0   0   0
  0   0   0   0   0   0   0   0   0   0   0   0   0   0   0   0   0   0   0   0   0   0   9   0
 41 145 159 151 152 155 153 161 169 165 162 161 159 159 163 161 158 156 156 149 144 141 147 152
153 156 159 158 154 151 146 149 157 154 128 109 101  92  81  67  50  38  28  18  10   9   9   9
  9   9   8   1   0   0   0   0   0   0   0   0   0   0   0   0   0   0   0   0   0   0   0   0
  0   0   0   0
  0   0   0   0   0   0   0   0   0   0   0   0   0   0   0   0   0   0   0   0   0   0  10   0
 43 145 162 160 153 151 150 151 159 165 166 167 161 158 159 160 166 164 156 154 151 145 152 156
157 161 165 161 150 146 142 143 148 140 119 107  98  88  78  65  49  36  27  18   9   9   9   9
  9   9   8   1   0   0   0   0   0   0   0   0   0   0   0   0   0   0   0   0   0   0   0   0
  0   0   0   0
  0   0   0   0   0   0   0   0   0   0   0   0   0   0   0   0   0   0   0   0   0   0  10   0
 43 143 156 158 160 155 154 154 157 164 171 163 158 160 153 153 162 163 159 158 156 155 157 154
152 161 165 166 161 151 147 145 145 140 123 104  95  85  74  61  47  36  27  17   9   9   9   8
  8   9   8   1   0   0   0   0   0   0   0   0   0   0   0   0   0   0   0   0   0   0   0   0
  0   0   0   0
  0   0   0   0   0   0   0   0   0   0   0   0   0   0   0   0   0   0   0   0   0   0  10   0
 43 146 158 155 159 165 164 160 164 165 167 164 157 158 152 151 156 159 159 160 158 157 161 163
154 158 162 161 165 156 150 153 151 149 129 104  91  82  74  60  46  37  27  17   8   9   9   9
  8   9   8   1   0   0   0   0   0   0   0   0   0   0   0   0   0   0   0   0   0   0   0   0
  0   0   0   0
  0   0   0   0   0   0   0   0   0   0   0   0   0   0   0   0   0   0   0   0   0   0  10   0
 45 149 163 161 161 168 172 169 167 172 170 168 165 161 156 161 162 159 164 166 163 160 156 158
159 156 157 158 161 163 160 157 149 135 127 110  91  81  71  58  45  35  28  18   7   9   9   9
  9   9   8   1   0   0   0   0   0   0   0   0   0   0   0   0   0   0   0   0   0   0   0   0
  0   0   0   0
  0   0   0   0   0   0   0   0   0   0   0   0   0   0   0   0   0   0   0   0   0   0  11   0
 45 157 173 174 175 172 168 172 177 179 178 173 172 169 162 164 168 164 166 172 163 158 153 150
150 152 157 159 162 160 159 150 134 123 117 105  90  79  66  52  43  33  29  18   6   9   9   8
  8   9   8   1   0   0   0   0   0   0   0   0   0   0   0   0   0   0   0   0   0   0   0   0
  0   0   0   0
  0   0   0   0   0   0   0   0   0   0   0   0   0   0   0   0   0   0   0   0   0   0  11   0
 45 155 171 171 177 170 165 163 171 176 175 178 179 171 164 165 169 169 168 172 166 156 150 149
150 151 154 157 162 159 150 140 124 118 108  94  85  73  61  50  40  32  28  16   7   8   8   8
  8   9   8   1   0   0   0   0   0   0   0   0   0   0   0   0   0   0   0   0   0   0   0   0
  0   0   0   0
  0   0   0   0   0   0   0   0   0   0   0   0   0   0   0   0   0   0   0   0   0   0  11   0
 48 156 166 159 164 167 167 166 161 165 174 178 179 174 171 167 165 167 165 165 167 161 153 149
152 157 160 158 154 148 142 136 123 110 105  93  79  69  57  47  38  33  29  14   7   9   8   8
  8   9   8   1   0   0   0   0   0   0   0   0   0   0   0   0   0   0   0   0   0   0   0   0
  0   0   0   0
  0   0   0   0   0   0   0   0   0   0   0   0   0   0   0   0   0   0   0   0   0   0  12   0
 47 157 166 157 155 161 162 163 162 162 172 179 173 166 166 171 174 177 176 173 171 164 156 153
152 163 170 164 155 139 130 133 122 108 104  92  77  67  53  43  36  35  31  12   7   9   8   8
  8   9   8   1   0   0   0   0   0   0   0   0   0   0   0   0   0   0   0   0   0   0   0   0
  0   0   0   0
  0   0   0   0   0   0   0   0   0   0   0   0   0   0   0   0   0   0   0   0   0   0  12   0
 48 160 170 161 155 155 161 158 162 161 164 177 178 165 158 163 173 176 178 184 180 171 167 158
157 163 170 169 159 153 140 124 110 107 107 106  86  63  50  42  34  35  31  10   8   9   8   8
  8   9   8   1   0   0   0   0   0   0   0   0   0   0   0   0   0   0   0   0   0   0   0   0
  0   0   0   0
  0   0   0   0   0   0   0   0   0   0   0   0   0   0   0   0   0   0   0   0   0   0  12   0
 47 161 175 164 156 154 159 163 162 167 167 167 175 176 174 170 164 163 159 165 181 184 185 180
171 168 172 174 159 150 141 127 113 101  99 100  81  63  51  40  31  37  31  10   9   8   8   8
  8   9   8   1   0   0   0   0   0   0   0   0   0   0   0   0   0   0   0   0   0   0   0   0
  0   0   0   0
  0   0   0   0   0   0   0   0   0   0   0   0   0   0   0   0   0   0   0   0   0   0  11   0
 43 156 172 167 158 155 155 160 159 163 172 165 162 161 168 176 172 162 158 154 160 165 175 180
163 154 155 159 151 134 119 113 111 101  95  81  63  56  50  40  36  45  29  13  12   9   8   8
  8   8   7   1   0   0   0   0   0   0   0   0   0   0   0   0   0   0   0   0   0   0   0   0
  0   0   0   0
  0   0   0   0   0   0   0   0   0   0   0   0   0   0   0   0   0   0   0   0   0   0  10   0
 45 149 161 163 159 152 153 156 160 157 158 161 162 161 155 160 172 171 165 161 157 151 152 163
157 148 141 131 127 128 115 100  92  87  92  83  63  58  54  45  49  48  24  18  14  10   8   8
  8   8   7   1   0   0   0   0   0   0   0   0   0   0   0   0   0   0   0   0   0   0   0   0
  0   0   0   0
  0   0   0   0   0   0   0   0   0   0   0   0   0   0   0   0   0   0   0   0   0   0  11   0
 45 156 167 159 157 152 148 154 159 159 156 156 159 161 157 151 155 159 157 159 160 156 152 159
159 145 137 128 114 110 106  94  84  73  69  66  59  55  49  43  54  43  24  19  15  10   8   8
  8   8   7   1   0   0   0   0   0   0   0   0   0   0   0   0   0   0   0   0   0   0   0   0
  0   0   0   0
  0   0   0   0   0   0   0   0   0   0   0   0   0   0   0   0   0   0   0   0   0   0  11   0
 47 156 164 156 151 157 156 155 156 161 162 161 161 155 156 154 147 147 149 147 146 147 150 156
151 131 123 116 107  98  93  87  81  70  56  54  50  38  33  44  52  32  22  18  14  10   8   8
  8   8   7   1   0   0   0   0   0   0   0   0   0   0   0   0   0   0   0   0   0   0   0   0
  0   0   0   0
  0   0   0   0   0   0   0   0   0   0   0   0   0   0   0   0   0   0   0   0   0   0  11   0
 48 152 154 147 148 147 155 158 155 153 156 157 156 159 160 154 147 148 150 150 147 140 142 146
139 125 114 108 104  97  85  79  75  69  55  47  41  31  29  44  39  21  17  15  12   9   8   8
  8   8   7   1   0   0   0   0   0   0   0   0   0   0   0   0   0   0   0   0   0   0   0   0
  0   0   0   0
  0   0   0   0   0   0   0   0   0   0   0   0   0   0   0   0   0   0   0   0   0   0  10   0
 43 145 154 145 147 145 146 149 152 155 152 148 150 153 158 161 151 146 147 145 143 138 131 130
128 117 106  97  91  89  83  73  63  57  49  39  34  29  29  33  22  14  13  11   9   8   8   8
  8   8   7   1   0   0   0   0   0   0   0   0   0   0   0   0   0   0   0   0   0   0   0   0
  0   0   0   0
  0   0   0   0   0   0   0   0   0   0   0   0   0   0   0   0   0   0   0   0   0   0   9   0
 43 142 151 145 141 140 143 145 146 150 157 151 145 148 147 153 150 147 141 134 128 125 119 113
111 103  95  86  79  71  67  64  55  45  40  35  27  25  27  18  10  10   9   8   8   8   8   8
  8   8   7   1   0   0   0   0   0   0   0   0   0   0   0   0   0   0   0   0   0   0   0   0
  0   0   0   0
  0   0   0   0   0   0   0   0   0   0   0   0   0   0   0   0   0   0   0   0   0   0   9   0
 41 135 142 142 141 133 134 136 140 140 141 149 149 142 141 139 142 139 134 130 123 118 113 106
 99  92  85  77  71  64  55  52  47  38  33  28  23  25  22   9   7   8   8   8   8   8   8   8
  8   8   7   1   0   0   0   0   0   0   0   0   0   0   0   0   0   0   0   0   0   0   0   0
  0   0   0   0
  0   0   0   0   0   0   0   0   0   0   0   0   0   0   0   0   0   0   0   0   0   0   8   0
 40 129 133 130 138 133 128 130 131 134 135 132 140 143 136 131 132 130 128 122 117 116 111 103
 96  85  77  72  64  59  52  45  40  32  28  23  20  21  14   7   8   8   8   8   8   8   8   8
  8   8   7   1   0   0   0   0   0   0   0   0   0   0   0   0   0   0   0   0   0   0   0   0
  0   0   0   0
  0   0   0   0   0   0   0   0   0   0   0   0   0   0   0   0   0   0   0   0   0   0   6   0
 35 118 124 115 122 129 125 123 126 126 126 125 125 130 132 130 129 124 123 119 113 105 100  95
 88  80  71  65  59  53  46  40  36  28  25  21  20  14   7   7   8   8   8   8   8   8   8   8
  8   8   7   1   0   0   0   0   0   0   0   0   0   0   0   0   0   0   0   0   0   0   0   0
  0   0   0   0
  0   0   0   0   0   0   0   0   0   0   0   0   0   0   0   0   0   0   0   0   0   0   6   0
 34 107 112 107 111 115 116 116 118 119 118 118 120 119 117 120 124 120 112 110 107  98  91  84
 78  70  64  57  52  46  40  36  32  24  20  21  17   8   7   8   8   8   8   8   8   8   8   8
  8   8   7   1   0   0   0   0   0   0   0   0   0   0   0   0   0   0   0   0   0   0   0   0
  0   0   0   0
  0   0   0   0   0   0   0   0   0   0   0   0   0   0   0   0   0   0   0   0   0   0   5   0
 32 101 105  99 102 105 104 107 108 110 110 109 110 112 107 104 105 108  99  94  94  88  82  80
 77  62  54  49  43  39  33  31  28  20  20  18   9   7   8   7   8   8   8   8   8   8   8   8
  8   8   7   1   0   0   0   0   0   0   0   0   0   0   0   0   0   0   0   0   0   0   0   0
  0   0   0   0
  0   0   0   0   0   0   0   0   0   0   0   0   0   0   0   0   0   0   0   0   0   0   4   0
 29  92  97  93  92  95  98  96  98 100 101 100 103 101  99  97  93  89  88  82  74  74  67  63
 61  53  46  42  37  33  27  27  24  18  18  10   7   8   7   7   8   8   8   8   8   8   8   8
  8   8   7   1   0   0   0   0   0   0   0   0   0   0   0   0   0   0   0   0   0   0   0   0
  0   0   0   0
  0   0   0   0   0   0   0   0   0   0   0   0   0   0   0   0   0   0   0   0   0   0   3   0
 25  84  87  85  85  84  88  87  88  89  91  93  93  91  90  88  84  79  74  70  62  58  54  48
 44  41  37  34  30  27  22  23  23  15   9   7   8   7   7   7   8   8   7   7   8   8   8   8
  8   8   7   1   0   0   0   0   0   0   0   0   0   0   0   0   0   0   0   0   0   0   0   0
  0   0   0   0
  0   0   0   0   0   0   0   0   0   0   0   0   0   0   0   0   0   0   0   0   0   0   3   0
 24  76  79  76  77  77  78  80  80  81  80  82  81  80  79  76  71  68  62  58  52  48  44  42
 39  34  31  28  25  22  18  21  19   8   7   8   7   7   7   7   7   8   7   8   8   8   8   8
  8   8   7   1   0   0   0   0   0   0   0   0   0   0   0   0   0   0   0   0   0   0   0   0
  0   0   0   0
  0   0   0   0   0   0   0   0   0   0   0   0   0   0   0   0   0   0   0   0   0   0   2   0
 21  70  72  67  67  68  68  71  70  70  70  69  71  70  65  63  58  55  51  48  43  40  37  35
 32  29  26  23  20  20  17  16  13   6   8   8   8   7   7   8   8   7   7   8   8   8   8   8
  8   8   7   1   0   0   0   0   0   0   0   0   0   0   0   0   0   0   0   0   0   0   0   0
  0   0   0   0
  0   0   0   0   0   0   0   0   0   0   0   0   0   0   0   0   0   0   0   0   0   0   2   0
 19  62  62  57  57  58  58  59  59  57  58  59  59  56  52  51  47  45  42  39  36  34  31  28
 26  23  21  20  18  15   9  11  12   7   7   8   8   7   7   8   7   8   7   7   8   8   8   8
  8   8   7   1   0   0   0   0   0   0   0   0   0   0   0   0   0   0   0   0   0   0   0   0
  0   0   0   0
  0   0   0   0   0   0   0   0   0   0   0   0   0   0   0   0   0   0   0   0   0   0   2   0
 16  54  54  50  49  49  50  51  50  48  48  48  46  43  42  40  37  35  33  30  29  27  25  23
 22  20  18  15  11   8   6  11  12   7   8   8   7   7   7   7   7   7   7   7   8   8   8   8
  8   8   7   1   0   0   0   0   0   0   0   0   0   0   0   0   0   0   0   0   0   0   0   0
  0   0   0   0
  0   0   0   0   0   0   0   0   0   0   0   0   0   0   0   0   0   0   0   0   0   0   2   0
 19  50  46  44  44  43  44  43  43  42  40  39  36  35  34  32  29  28  26  25  23  22  21  20
 18  14  10   8   7   8   7  11  12   7   8   7   7   7   7   7   7   7   7   7   7   8   8   7
  8   8   7   1   0   0   0   0   0   0   0   0   0   0   0   0   0   0   0   0   0   0   0   0
  0   0   0   0
  0   0   0   0   0   0   0   0   0   0   0   0   0   0   0   0   0   0   0   0   0   0   3   0
 34  61  38  37  36  35  36  36  35  34  33  31  29  28  27  25  24  24  22  21  19  17  14  11
  8   7   7   7   8   8   7  10  11   7   7   7   7   7   7   7   7   7   7   7   7   7   8   8
  8   8   7   1   0   0   0   0   0   0   0   0   0   0   0   0   0   0   0   0   0   0   0   0
  0   0   0   0
  0   0   0   0   0   0   0   0   0   0   0   0   0   0   0   0   0   0   0   0   0   0   5   0
 46  81  25  30  28  28  28  29  28  27  26  25  25  23  21  20  18  16  14  12  10   8   7   7
  7   7   7   7   7   8   7  10  11   7   7   7   7   7   7   7   7   7   7   7   7   7   8   8
  8   8   7   1   0   0   0   0   0   0   0   0   0   0   0   0   0   0   0   0   0   0   0   0
  0   0   0   0
  0   0   0   0   0   0   0   0   0   0   0   0   0   0   0   0   0   0   0   0   0   0   9   0
 55 113  45  20  28  25  24  24  22  20  18  17  15  13  11  10   9   8   7   7   7   8   8   8
  8   8   7   7   7   8   7  10  11   7   7   7   7   7   7   7   7   7   7   7   7   7   8   7
  7   8   7   1   0   0   0   0   0   0   0   0   0   0   0   0   0   0   0   0   0   0   0   0
  0   0   0   0
  0   0   0   0   0   0   0   0   0   0   0   0   0   0   0   0   0   0   0   0   0   0   8   0
 52 112  50   1  20  13  13  11  10   9   9   8   8   8   8   8   8   8   8   8   8   8   8   8
  8   7   8   7   8   8   7  10  10   7   7   7   7   7   7   7   7   7   7   7   7   7   8   7
  7   8   7   1   0   0   0   0   0   0   0   0   0   0   0   0   0   0   0   0   0   0   0   0
  0   0   0   0
  0   0   0   0   0   0   0   0   0   0   0   0   0   0   0   0   0   0   0   0   0   0   2   0
 21  44  17   5   6   6   7   8   8   8   8   8   9   9   8   8   8   8   8   8   7   7   7   8
  8   8   8   7   7   8   7  10  10   7   7   7   7   7   7   7   7   7   7   7   8   7   8   8
  7   8   7   1   0   0   0   0   0   0   0   0   0   0   0   0   0   0   0   0   0   0   0   0
  0   0   0   0
  0   0   0   0   0   0   0   0   0   0   0   0   0   0   0   0   0   0   0   0   0   0   1   0
  7  20  15   8   6   7   8   9   8   8   8   8   9   8   8   8   8   8   7   7   8   7   8   8
  8   7   7   8   8   8   7  10  11   7   7   8   7   8   8   7   7   7   7   8   8   8   8   8
  8   8   7   1   0   0   0   0   0   0   0   0   0   0   0   0   0   0   0   0   0   0   0   0
  0   0   0   0
  0   0   0   0   0   0   0   0   0   0   0   0   0   0   0   0   0   0   0   0   0   0   1   0
 13  38  27  10   6   7   7   8   8   8   8   8   8   8   8   8   7   7   8   8   8   7   8   8
  8   7   8   8   8   8   8  10  11   8   8   8   8   8   8   8   8   8   8   8   8   8   8   8
  8   9   8   1   0   0   0   0   0   0   0   0   0   0   0   0   0   0   0   0   0   0   0   0
  0   0   0   0
  0   0   0   0   0   0   0   0   0   0   0   0   0   0   0   0   0   0   0   0   0   0   1   0
 14  44  37  21   6   7   8   8   8   8   8   8   8   8   8   8   8   7   8   8   7   8   8   8
  8   8   8   9   9   9   8  10  10   8   8   8   8   8   8   8   8   8   8   8   8   8   8   8
  8   9   8   1   0   0   0   0   0   0   0   0   0   0   0   0   0   0   0   0   0   0   0   0
  0   0   0   0
  0   0   0   0   0   0   0   0   0   0   0   0   0   0   0   0   0   0   0   0   0   0   2   0
 20  51  44  35  13   5   8   8   8   8   8   8   8   8   7   7   8   7   8   8   7   8   7   8
  8   8   8   9   9   9   8  10  10   8   8   8   8   8   8   8   8   8   7   7   8   8   8   8
  8   9   7   1   0   0   0   0   0   0   0   0   0   0   0   0   0   0   0   0   0   0   0   0
  0   0   0   0
  0   0   0   0   0   0   0   0   0   0   0   0   0   0   0   0   0   0   0   0   0   0   3   0
 29  72  50  40  29   7   8   9   8   8   8   8   8   7   7   7   7   7   7   8   7   7   7   8
  8   8   8   9   9   9   8  10  10   8   9   9   8   8   8   8   8   8   7   7   8   8   8   8
  8   9   7   1   0   0   0   0   0   0   0   0   0   0   0   0   0   0   0   0   0   0   0   0
  0   0   0   0
  0   0   0   0   0   0   0   0   0   0   0   0   0   0   0   0   0   0   0   0   0   0   5   0
 36  92  68  43  41  21   5   9   8   8   7   8   7   7   7   7   7   7   7   7   7   7   7   8
  8   8   9   8   8   8   8   9  10   8   8   8   8   8   7   7   7   6   7   7   7   7   7   7
  7   8   7   1   0   0   0   0   0   0   0   0   0   0   0   0   0   0   0   0   0   0   0   0
  0   0   0   0
  0   0   0   0   0   0   0   0   0   0   0   0   0   0   0   0   0   0   0   0   0   0   6   0
 41 106  82  54  46  38  14   6   8   7   7   7   7   7   7   7   7   7   7   7   7   7   8   8
  8   9   8   8   8   8   8   9   9   8   8   8   8   8   8   7   7   7   6   6   7   7   7   7
  7   7   7   1   0   0   0   0   0   0   0   0   0   0   0   0   0   0   0   0   0   0   0   0
  0   0   0   0
  0   0   0   0   0   0   0   0   0   0   0   0   0   0   0   0   0   0   0   0   0   0   8   0
 45 122  96  65  53  47  31   7   7   8   7   7   6   6   7   7   7   7   7   7   7   8  10   8
  8   8   8   8   8   9   9   9   9   8   9   8   7   8   9   8   8   8   7   6   6   6   7   7
  7   8   6   1   0   0   0   0   0   0   0   0   0   0   0   0   0   0   0   0   0   0   0   0
  0   0   0   0
  0   0   0   0   0   0   0   0   0   0   0   0   0   0   0   0   0   0   0   0   0   0   9   0
 46 135 117  78  62  51  41  22   7   9   7   7   7   6   7   7   7   7   7   7   7   8   8   8
  8   8   8   8   8   9   9   9   9   9   9   8   7   7   8   9   8   8   8   7   6   6   7   7
  7   7   6   1   0   0   0   0   0   0   0   0   0   0   0   0   0   0   0   0   0   0   0   0
  0   0   0   0
