P2
# 8-bit pgm gray
100 100
255
  0   0   0   0   0   0   0   0   0   0   0   0   0   0   0   2   0   0  80  96  91  91  91  92
 92  93  93  93  93  93  93  92  91  89  86  80  71  56  36  26  21  15  13  13  13  16  21  27
 32  40  47  55  63  70  82  90  91  97 101 101 102 117 143 159 173 182 187 192 196 199 203 206
207 206 206 206 207 207 208 209 218 188   0   0  11   0   0   0   0   0   0   0   0   0   0   0
  0   0   0   0
  0   0   0   0   0   0   0   0   0   0   0   0   0   0   0   0   1   1   0   0   0   0   0   0
  0   0   0   0   0   0   0   0   0   0   0   0   0   0   0   0   0   0   0   4   7  13  20  28
 34  42  51  59  67  79  92  94  96 104 107 111 112 123 156 172 186 198 207 212 216 220 223 225
225 225 226 227 227 228 230 229 241 208   0   0  14   0   0   0   0   0   0   0   0   0   0   0
  0   0   0   0
  0   0   0   0   0   0   0   0   0   0   0   0   0   0   0   0   0   2   0   0   0   0   2  14
 23  27  28  25  24  24  24  24  24  23  22  20  17  11   5   3   2   1   3   7   9  13  20  27
 33  40  46  53  62  73  85  91  97 101 104 108 106 114 145 165 177 193 203 207 211 214 216 217
217 217 219 221 221 222 224 222 233 202   0   0  13   0   0   0   0   0   0   0   0   0   0   0
  0   0   0   0
  0   0   0   0   0   0   0   0   0   0   0   0   0   0   0   1   2   0  62  88  82  75  62  48
 35  12   0   0   0   0   0   0   0   0   0   0   0   0   0   0   0   0   2   7  10  14  20  26
 32  41  48  54  63  72  78  90 101 101 103 107 107 114 141 164 175 187 199 207 211 212 214 215
216 218 220 222 222 223 224 223 235 203   0   0  13   0   0   0   0   0   0   0   0   0   0   0
  0   0   0   0
  0   0   0   0   0   0   0   0   0   0   0   0   0   0   0   4  11   0 139 200 203 203 200 194
185 173 155 101   0   3   3   0   0   0   0   0   0   0   0   0   0   0   3   8  10  14  21  28
 34  41  50  56  65  76  83  90  98 102 103 110 113 112 131 160 170 179 196 206 206 208 211 212
214 216 218 219 220 222 224 224 235 202   0   0  13   0   0   0   0   0   0   0   0   0   0   0
  0   0   0   0
  0   0   0   0   0   0   0   0   0   0   0   0   0   0   0   5  14   0 160 228 233 237 237 236
233 227 213 144   0   5   6   0   0   0   0   0   0   0   0   0   0   0   4   8  12  15  22  28
 36  41  47  57  66  75  84  90  94 104 109 111 113 113 119 149 167 179 193 199 201 206 209 210
213 215 216 218 219 221 224 224 234 201   0   0  13   0   0   0   0   0   0   0   0   0   0   0
  0   0   0   0
  0   0   0   0   0   0   0   0   0   0   0   0   0   0   0   6  13   0 165 233 235 240 216 215
239 230 219 149   0   7   6   0   0   0   0   0   0   0   0   0   0   1   5   8  11  17  22  28
 37  45  50  57  64  74  83  88  95 100 105 109 111 112 114 140 165 176 184 193 198 203 206 210
213 214 216 219 220 222 223 223 231 199   0   0  13   0   0   0   0   0   0   0   0   0   0   0
  0   0   0   0
  0   0   0   0   0   0   0   0   0   0   0   0   0   0   0   6  13   0 170 236 237 245 211 210
243 233 223 150   0   9   6   0   0   0   0   0   0   0   0   0   0   2   6   8  12  18  24  31
 38  46  59  68  68  73  81  89  96  97 101 107 109 115 120 134 158 166 176 189 196 201 206 210
212 213 216 219 220 221 221 221 230 199   0   0  13   0   0   0   0   0   0   0   0   0   0   0
  0   0   0   0
  0   0   0   0   0   0   0   0   0   0   0   0   0   0   0   7  13   0 173 238 238 241 203 214
244 235 225 150   0  11   6   0   0   0   0   0   0   0   0   0   0   3   6  10  15  21  28  34
 41  52  63  76  80  84  86  91  95 100 105 106 108 115 121 123 145 161 171 183 194 199 205 209
210 211 214 217 218 219 221 221 230 198   0   0  13   0   0   0   0   0   0   0   0   0   0   0
  0   0   0   0
  0   0   0   0   0   0   0   0   0   0   0   0   0   0   0   7  13   0 175 239 240 218 185 226
241 235 225 147   0  13   5   0   0   0   0   0   0   0   0   0   0   4   8  13  18  24  31  38
 47  55  68  72  79  92  95  96  98 102 106 108 111 113 118 119 139 157 165 179 189 196 202 205
208 211 214 215 218 218 219 219 228 196   0   0  12   0   0   0   0   0   0   0   0   0   0   0
  0   0   0   0
  0   0   0   0   0   0   0   0   0   0   0   0   0   0   0   7  12   0 177 240 240 240 241 241
242 237 224 143   0  15   4   0   0   0   0   0   0   0   0   0   2   7  10  14  19  25  33  42
 48  55  70  75  78  86  96 102 106 106 111 122 124 121 121 119 130 151 162 175 186 193 199 204
207 211 213 215 217 217 218 217 228 197   0   0  13   0   0   0   0   0   0   0   0   0   0   0
  0   0   0   0
  0   0   0   0   0   0   0   0   0   0   0   0   0   0   0   7  12   0 177 242 228 227 223 237
221 232 222 137   0  17   4   0   0   0   0   0   0   0   0   0   4   9  11  16  22  29  37  44
 51  65  74  80  87  89  99 107 107 110 114 121 122 117 115 113 117 143 158 170 183 190 196 201
204 208 212 215 216 217 218 219 229 197   0   0  13   0   0   0   0   0   0   0   0   0   0   0
  0   0   0   0
  0   0   0   0   0   0   0   0   0   0   0   0   0   0   0   7  11   0 176 244 208 197 161 192
153 223 219 129   0  18   3   0   0   0   0   0   0   0   0   1   7   9  13  19  25  33  40  46
 60  70  75  77  81  88 102 102 104 110 112 112 108 108 111 109 109 130 151 162 177 186 192 198
203 208 212 214 215 215 215 218 227 195   0   0  12   0   0   0   0   0   0   0   0   0   0   0
  0   0   0   0
  0   0   0   0   0   0   0   0   0   0   0   0   0   0   0   7  11   0 176 245 207 201 171 140
164 226 215 122   0  19   2   0   0   0   0   0   0   0   0   4   7  11  15  21  29  35  41  55
 65  69  74  81  85  92  98  97 104 108 106 105 106 109 110 110 109 119 142 157 173 183 190 196
202 207 210 212 213 214 215 215 226 196   0   0  13   0   0   0   0   0   0   0   0   0   0   0
  0   0   0   0
  0   0   0   0   0   0   0   0   0   0   0   0   0   0   0   8   7   0 178 222 179 204 201 212
188 226 213 115   0  20   1   0   0   0   0   0   0   0   1   6   9  13  17  23  30  36  50  63
 63  67  73  82  90  92  96  99 101 104 103 104 107 108 107 109 112 114 135 154 169 181 189 195
201 206 210 212 215 214 214 215 228 196   0   0  13   0   0   0   0   0   0   0   0   0   0   0
  0   0   0   0
  0   0   0   0   0   0   0   0   0   0   0   0   0   0   0   8   8   0 178 223 212 232 234 240
225 229 209 107   0  20   0   0   0   0   0   0   0   0   4   7  10  14  20  26  33  43  55  61
 65  72  77  82  87  92  96  99 101 103 106 106 105 107 111 115 115 115 131 151 165 178 187 195
200 207 212 212 212 211 213 214 226 195   0   0  12   0   0   0   0   0   0   0   0   0   0   0
  0   0   0   0
  0   0   0   0   0   0   0   0   0   0   0   0   0   0   0   7  12   0 176 240 240 240 240 237
236 229 202  97   0  20   0   0   0   0   0   0   0   2   6   9  13  17  23  30  37  48  55  58
 69  78  81  83  89  94  95  97 102 107 109 108 108 110 113 114 113 113 126 147 160 176 188 195
202 208 209 209 209 211 214 213 223 194   0   0  12   0   0   0   0   0   0   0   0   0   0   0
  0   0   0   0
  0   0   0   0   0   0   0   0   0   0   0   0   0   0   0   6   9   0 159 216 217 224 226 226
222 216 186  81   0  18   0   0   0   0   0   0   0   5   8  11  14  21  27  33  45  53  57  63
 74  80  84  86  89  93  96  98 103 107 107 107 109 110 111 112 112 117 122 142 156 170 185 195
201 203 208 209 209 210 212 210 222 194   0   0  12   0   0   0   0   0   0   0   0   0   0   0
  0   0   0   0
  0   0   0   0   0   0   0   0   0   0   0   0   0   0   0   1   2   0  68 102 111 121 128 132
133 131 111  40   0   6   0   0   0   0   0   0   3   7   9  13  17  23  32  41  50  57  62  68
 75  80  86  88  90  94 100 105 108 109 106 109 114 114 114 113 117 118 120 137 154 167 183 191
195 201 206 207 207 210 210 210 221 192   0   0  12   0   0   0   0   0   0   0   0   0   0   0
  0   0   0   0
  0   0   0   0   0   0   0   0   0   0   0   0   0   0   0   0   0   4   0   0   0   0   0   0
  0   0   0   0   3   0   0   0   0   0   0   1   6   8  11  16  22  28  36  47  56  61  67  72
 79  86  87  89  94  98 103 109 112 110 113 115 119 124 125 128 124 121 126 141 159 170 179 188
194 198 202 206 207 207 210 210 220 191   0   0  12   0   0   0   0   0   0   0   0   0   0   0
  0   0   0   0
  0   0   0   0   0   0   0   0   0   0   0   0   0   0   0   0   0   0  15  26  27  28  28  28
 27  24  19   3   0   0   0   0   0   0   0   4   7  10  14  19  28  34  42  56  63  70  73  77
 83  93  98 100 101 105 108 111 110 113 120 122 127 136 138 139 136 134 132 137 154 163 176 187
192 198 203 205 205 204 207 208 218 190   0   0  12   0   0   0   0   0   0   0   0   0   0   0
  0   0   0   0
  0   0   0   0   0   0   0   0   0   0   0   0   0   0   0   0   0   0   1   0   0   0   0   0
  0   0   0   0   0   0   4   1   0   0   2   6   9  13  17  23  31  38  48  61  69  76  77  80
 88  96 106 112 109 106 108 111 115 118 121 124 124 128 132 138 139 135 131 129 144 159 171 182
190 199 200 201 203 204 206 207 217 189   0   0  12   0   0   0   0   0   0   0   0   0   0   0
  0   0   0   0
  0   0   0   0   0   0   0   0   0   0   0   0   0   0   0   0   0   0   0   0   0   2   0   0
  0   1   0   0   0   0   0   0   0   0   4   8  11  15  20  27  34  41  49  64  72  74  81  83
 89  94 105 110 109 109 109 110 118 124 126 128 127 125 125 131 130 126 128 126 135 155 166 178
190 194 194 198 201 202 206 208 217 188   0   0  12   0   0   0   0   0   0   0   0   0   0   0
  0   0   0   0
  0   0   0   0   0   0   0   0   0   0   0   0   0   0   0   0   0   2  16   0   1   0   3  49
 37   0   1   0   0   0   0   0   0   2   7   9  13  18  24  31  39  45  55  68  76  80  86  87
 94 100 104 111 112 112 119 127 132 135 133 132 129 123 121 124 122 122 125 124 132 152 165 178
188 188 191 196 200 203 207 207 216 188   0   0  12   0   0   0   0   0   0   0   0   0   0   0
  0   0   0   0
  0   0   0   0   0   0   0   0   0   0   0   0   0   0   0   1   0   0  63  33   0   0  11  60
 38   0   3   0   0   0   0   0   1   5   8  12  16  22  28  36  45  50  59  71  78  84  90  92
103 110 113 125 135 146 144 144 141 133 126 125 121 121 126 124 125 125 123 123 132 149 163 175
183 188 191 193 200 206 207 205 218 189   0   0  12   0   0   0   0   0   0   0   0   0   0   0
  0   0   0   0
  0   0   0   0   0   0   0   0   0   0   0   0   0   0   0   1   0   0  38  20   0   4   0  21
 58  28   0   2   0   0   0   0   3   7   9  14  19  27  33  42  52  57  64  78  80  86  98 103
110 119 128 138 156 166 151 143 139 134 129 125 125 127 131 128 127 124 122 125 131 143 163 175
181 190 195 196 201 207 208 209 220 189   0   0  12   0   0   0   0   0   0   0   0   0   0   0
  0   0   0   0
  0   0   0   0   0   0   0   0   0   0   0   0   0   0   0   0   0   0   0   0   3   2   0  18
 51  27   0   2   0   0   0   1   6   8  12  17  23  31  40  48  58  66  73  89  91  97 106 110
114 121 133 144 155 155 146 143 138 141 138 135 134 132 131 130 131 131 132 135 131 142 167 174
181 191 195 200 203 207 210 209 217 187   0   0  11   0   0   0   0   0   0   0   0   0   0   0
  0   0   0   0
  0   0   0   0   0   0   0   0   0   0   0   0   0   0   0   0   0   0   4   1   0   0   0   5
  0   0   2   0   0   0   0   4   7  11  15  21  28  35  44  54  61  69  85 107 103 103 111 121
124 130 143 151 155 160 156 148 139 145 143 142 146 143 136 136 143 147 144 140 136 146 166 176
181 189 195 198 200 205 206 204 214 185   0   0  11   0   0   0   0   0   0   0   0   0   0   0
  0   0   0   0
  0   0   0   0   0   0   0   0   0   0   0   0   0   0   0   0   0   0   0   0   0   0   0   0
  0   2   0   0   0   0   2   6   9  14  19  27  34  40  47  56  66  74  95 108 105 120 133 141
139 145 151 158 155 158 159 152 153 152 153 153 152 149 145 148 159 160 150 141 141 145 161 175
183 187 193 195 198 201 204 205 214 185   0   0  11   0   0   0   0   0   0   0   0   0   0   0
  0   0   0   0
  0   0   0   0   0   0   0   0   0   0   0   0   0   0   0   0   0   0   0   0   0   0   0   1
  1   0   0   0   0   0   4   9  12  15  21  30  41  49  53  58  68  78 100 105 119 139 147 147
151 157 161 161 160 160 158 159 161 159 155 156 153 154 157 157 160 155 148 145 147 143 154 170
175 181 190 194 197 202 205 204 214 186   0   0  11   0   0   0   0   0   0   0   0   0   0   0
  0   0   0   0
  0   0   0   0   0   0   0   0   0   0   0   0   0   0   0   0   0   0   0   0   0   0   0   0
  0   0   0   0   0   2   7  10  14  18  25  33  41  50  61  69  73  79  97 106 135 150 151 156
162 167 174 167 168 167 159 159 161 158 155 156 154 154 157 157 151 147 147 151 152 142 152 169
174 182 191 198 198 199 201 202 213 186   0   0  11   0   0   0   0   0   0   0   0   0   0   0
  0   0   0   0
  0   0   0   0   0   0   0   0   0   0   0   0   0   0   0   0   0   0   0   0   0   0   0   0
  0   0   0   0   0   5   8  12  17  22  28  38  46  55  65  73  78  87 114 127 144 153 154 159
162 169 169 163 165 169 163 160 159 158 160 157 152 155 153 148 144 140 140 147 149 145 152 166
176 183 190 194 196 199 200 201 212 187   0   0  12   0   0   0   0   0   0   0   0   0   0   0
  0   0   0   0
  0   0   0   0   0   0   0   0   0   0   0   0   0   0   0   0   0   0   0   0   0   0   0   0
  0   0   0   0   2   7  10  14  21  27  35  44  53  64  71  79  84 103 142 147 150 157 163 162
161 161 156 153 157 163 159 156 157 158 162 160 156 153 148 146 143 135 132 136 138 141 145 158
172 178 188 193 194 198 200 198 213 189   0   0  12   0   0   0   0   0   0   0   0   0   0   0
  0   0   0   0
  0   0   0   0   0   0   0   0   0   0   0   0   0   0   0   0   0   0   0   0   0   0   0   0
  0   0   0   0   5   8  12  17  23  32  43  51  58  67  74  85  95 128 159 158 161 165 169 171
162 153 150 151 155 156 151 148 153 152 159 159 155 152 150 148 143 140 140 135 136 142 150 160
170 178 187 190 192 198 202 202 214 184   0   0  11   0   0   0   0   0   0   0   0   0   0   0
  0   0   0   0
  0   0   0   0   0   0   0   0   0   0   0   0   0   0   0   0   0   0   0   0   0   0   0   0
  0   0   0   2   7  11  14  21  27  38  49  55  64  71  79  89 110 144 163 167 168 169 174 176
164 153 152 155 156 152 149 148 147 151 156 156 157 152 146 150 150 145 142 139 140 146 154 161
167 178 186 193 199 202 203 206 215 184   0   0  11   0   0   0   0   0   0   0   0   0   0   0
  0   0   0   0
  0   0   0   0   0   0   0   0   0   0   0   0   0   0   0   0   0   0   0   0   0   0   0   0
  0   0   0   4   8  12  19  25  32  43  55  68  86  95  99 106 129 158 169 170 171 173 182 180
164 154 153 157 158 155 156 160 162 158 156 162 158 148 146 149 148 143 140 145 149 149 154 164
171 179 188 196 197 201 205 206 214 185   0   0  11   0   0   0   0   0   0   0   0   0   0   0
  0   0   0   0
  0   0   0   0   0   0   0   0   0   0   0   0   0   0   0   0   0   0   0   0   0   0   0   0
  0   0   2   6  10  14  23  31  39  49  61  74  90 106 106 112 149 174 172 174 175 179 192 185
165 161 160 158 157 161 158 157 165 163 158 162 155 147 150 152 149 143 149 156 153 154 162 170
177 185 192 196 197 200 203 202 210 182   0   0  11   0   0   0   0   0   0   0   0   0   0   0
  0   0   0   0
  0   0   0   0   0   0   0   0   0   0   0   0   0   0   0   0   0   0   0   0   0   0   0   0
  0   0   5   8  12  18  25  34  45  56  67  72  79  93 102 112 153 171 168 170 175 180 186 177
172 169 166 164 155 156 153 157 167 160 158 157 155 156 152 151 149 148 150 152 150 154 160 170
177 186 190 193 198 197 198 197 206 178   0   0  10   0   0   0   0   0   0   0   0   0   0   0
  0   0   0   0
  0   0   0   0   0   0   0   0   0   0   0   0   0   0   0   0   0   0   0   0   1   0   0   0
  0   2   7   9  16  24  29  37  51  59  67  78  85  93  98 124 162 163 163 169 178 177 173 165
166 170 168 159 151 147 143 152 163 157 157 155 155 155 147 142 138 142 148 146 148 154 157 169
174 180 187 195 199 198 197 195 203 177   0   0  10   0   0   0   0   0   0   0   0   0   0   0
  0   0   0   0
  0   0   0   0   0   0   0   0   0   0   0   0   0   0   0   0   0   0   0   0   0   0   0   0
  0   4   8  11  20  27  34  43  57  64  69  83  90  89  99 147 164 159 161 172 181 177 171 160
159 162 159 151 147 142 141 150 161 159 158 157 158 150 141 140 140 146 151 154 155 156 156 166
175 177 188 192 193 195 191 189 203 180   0   0  11   0   0   0   0   0   0   0   0   0   0   0
  0   0   0   0
  0   0   0   0   0   0   0   0   0   0   0   0   0   0   0   0   0   0   0   0   0   0   0   0
  1   6   9  13  22  30  40  51  63  70  73  81  89  90 119 158 165 167 167 169 173 175 170 158
154 154 151 144 140 139 146 159 166 158 156 160 162 155 148 150 155 154 154 159 158 157 156 168
173 172 181 180 184 185 187 191 204 180   0   0  11   0   0   0   0   0   0   0   0   0   0   0
  0   0   0   0
  0   0   0   0   0   0   0   0   0   0   0   0   0   0   0   0   0   0   0   0   0   0   0   0
  3   8  11  17  26  35  44  54  66  74  79  86  88 108 142 163 174 175 164 161 166 173 167 161
155 154 147 139 140 140 142 152 162 160 160 162 160 157 155 158 160 157 158 154 149 149 150 162
168 170 178 176 181 184 190 191 202 178   0   0  10   0   0   0   0   0   0   0   0   0   0   0
  0   0   0   0
  0   0   0   0   0   0   0   0   0   0   0   0   0   0   0   0   0   0   0   0   1   1   0   0
  5   9  13  20  29  40  48  57  69  77  78  86  93 119 144 161 177 175 165 164 174 177 169 168
166 160 148 139 138 143 146 156 165 168 166 159 153 151 153 154 155 155 147 141 144 148 153 159
166 168 172 173 180 186 188 190 199 175   0   0  10   0   0   0   0   0   0   0   0   0   0   0
  0   0   0   0
  0   0   0   0   0   0   0   0   0   0   0   0   0   0   0   0   0   0   0   0   1   1   0   2
  7  11  15  24  31  42  55  62  71  78  80  84  93 124 145 160 178 169 164 168 172 167 164 168
168 156 151 142 140 149 155 164 169 166 158 151 153 157 159 153 148 146 139 138 141 145 149 150
157 164 171 173 175 182 189 191 201 174   0   0  10   0   0   0   0   0   0   0   0   0   0   0
  0   0   0   0
  0   0   0   0   0   0   0   0   0   0   0   0   0   0   0   0   0   0   0   0   1   1   0   4
  9  13  19  27  36  48  61  68  74  82  86  88  94 125 158 172 175 169 162 160 158 154 154 161
160 152 150 151 153 155 155 159 160 152 148 151 155 156 150 143 142 143 137 133 137 145 145 142
151 165 171 170 171 178 189 196 205 173   0   0   9   0   0   0   0   0   0   0   0   0   0   0
  0   0   0   0
  0   0   0   0   0   0   0   0   0   0   0   0   0   0   0   0   0   0   0   1   1   1   1   6
 10  15  23  31  42  53  64  72  77  83  85  92  98 123 162 174 169 168 165 167 160 160 158 152
155 150 144 144 148 151 149 149 146 142 143 147 147 142 138 133 136 134 129 132 138 145 145 141
152 165 166 169 172 177 190 192 195 168   0   0   9   0   0   0   0   0   0   0   0   0   0   0
  0   0   0   0
  0   0   0   0   0   0   0   0   0   0   0   0   0   0   0   0   0   0   0   1   1   1   2   8
 12  19  26  35  46  57  66  71  76  80  83  87  99 133 167 173 165 166 167 167 162 161 159 155
152 142 135 129 138 145 140 138 139 142 143 146 146 141 135 132 127 124 132 135 140 145 144 141
148 160 162 169 175 176 184 184 189 164   0   0   9   0   0   0   0   0   0   0   0   0   0   0
  0   0   0   0
  0   0   0   0   0   0   0   0   0   0   0   0   0   0   0   0   0   0   0   1   1   1   4   9
 15  22  29  40  49  60  66  71  77  79  84  90 117 147 163 175 177 177 167 162 157 156 156 158
147 135 129 128 140 141 131 135 138 145 147 145 145 146 140 137 129 136 145 145 145 143 141 140
146 160 170 172 174 177 179 179 188 163   0   0   9   0   0   0   0   0   0   0   0   0   0   0
  0   0   0   0
  0   0   0   0   0   0   0   0   0   0   0   0   0   0   0   0   0   0   0   1   1   2   6  10
 17  24  33  42  53  63  68  74  78  77  83 104 131 148 167 185 191 186 173 168 159 156 157 159
150 132 128 134 140 139 135 136 141 146 147 140 139 135 131 128 130 147 149 146 145 141 139 143
147 162 168 167 173 177 174 174 186 163   0   0   9   0   0   0   0   0   0   0   0   0   0   0
  0   0   0   0
  0   0   0   0   0   0   0   0   0   0   0   0   0   0   0   0   0   0   0   1   1   3   9  12
 19  27  37  46  56  65  71  76  79  89 104 123 134 141 171 189 191 190 176 160 160 156 152 155
153 136 131 134 141 141 141 143 149 150 148 145 135 123 125 122 137 151 147 144 144 138 139 144
147 156 162 169 172 168 168 170 184 163   0   0   8   0   0   0   0   0   0   0   0   0   0   0
  0   0   0   0
  0   0   0   0   0   0   0   0   0   0   0   0   0   0   0   0   0   0   1   1   1   5  11  14
 22  29  39  50  60  68  74  78  87 104 119 123 130 137 160 188 191 182 169 156 155 151 153 153
157 157 144 141 145 145 153 154 152 150 148 144 137 131 133 135 150 154 151 149 139 137 141 145
144 148 168 172 165 162 167 168 182 160   0   0   8   0   0   0   0   0   0   0   0   0   0   0
  0   0   0   0
  0   0   0   0   0   0   0   0   0   0   0   0   0   0   0   0   0   0   1   1   1   7  13  15
 24  32  42  52  62  70  80  88  96 104 118 122 126 139 160 188 190 179 170 161 155 158 166 166
168 171 162 155 150 156 165 154 144 151 153 144 137 136 141 146 152 157 155 150 146 145 143 143
142 150 166 166 157 160 166 168 180 160   0   0   8   0   0   0   0   0   0   0   0   0   0   0
  0   0   0   0
  0   0   0   0   0   0   0   0   0   0   0   0   0   0   0   0   0   0   1   1   3  11  15  18
 26  36  46  55  65  76  84  94 102 105 113 126 132 145 168 183 183 179 169 161 157 165 170 171
176 180 179 174 161 155 149 144 141 149 150 139 133 132 139 149 155 153 152 150 144 143 146 146
144 145 158 160 154 160 165 167 181 159   0   0   8   0   0   0   0   0   0   0   0   0   0   0
  0   0   0   0
  0   0   0   0   0   0   0   0   0   0   0   0   0   0   0   0   0   0   1   1   4  14  16  21
 30  40  50  57  66  76  81  88 100 108 115 131 149 162 169 178 180 177 169 158 158 166 169 172
180 184 186 188 172 144 132 134 131 143 143 127 133 141 144 147 146 149 150 142 138 139 145 142
136 141 153 154 155 160 163 161 175 158   0   0   8   0   0   0   0   0   0   0   0   0   0   0
  0   0   0   0
  0   0   0   0   0   0   0   0   0   0   0   0   0   0   0   0   0   0   1   1   6  14  17  24
 32  43  52  60  67  72  77  83  95 109 121 136 161 168 165 176 174 169 170 159 157 167 174 178
178 182 196 198 179 147 127 127 130 136 133 131 143 143 137 136 137 141 138 135 135 138 142 141
139 141 140 144 149 153 157 158 178 161   0   0   8   0   0   0   0   0   0   0   0   0   0   0
  0   0   0   0
  0   0   0   0   0   0   0   0   0   0   0   0   0   0   0   0   0   0   1   1   8  14  19  28
 35  45  55  62  68  71  77  84  93 103 126 152 173 170 163 174 171 166 166 164 163 165 168 174
174 184 199 195 179 157 135 133 134 131 130 138 136 131 133 134 137 135 135 140 139 137 136 139
141 129 125 139 145 154 162 164 182 162   0   0   8   0   0   0   0   0   0   0   0   0   0   0
  0   0   0   0
  0   0   0   0   0   0   0   0   0   0   0   0   0   0   0   0   0   0   0   1   9  15  20  29
 38  46  57  62  69  74  78  90  97 110 138 156 171 175 170 173 172 164 164 169 165 162 171 174
174 184 185 179 157 148 146 139 132 132 132 134 130 131 133 130 129 130 139 142 141 137 141 136
130 121 119 132 148 160 166 166 178 161   0   0   8   0   0   0   0   0   0   0   0   0   0   0
  0   0   0   0
  0   0   0   0   0   0   0   0   0   0   0   0   0   0   0   0   0   0   0   3  10  15  20  31
 40  48  61  66  70  77  79  99 113 127 142 145 153 165 174 172 171 163 162 168 169 175 178 176
176 181 179 170 145 140 145 139 135 138 136 131 129 133 130 128 127 134 140 140 144 144 135 122
117 117 118 128 145 154 161 167 181 162   0   0   8   0   0   0   0   0   0   0   0   0   0   0
  0   0   0   0
  0   0   0   0   0   0   0   0   0   0   0   0   0   0   0   0   0   0   0   3  11  16  21  30
 43  52  62  71  72  80  96 111 121 135 142 145 149 163 172 163 165 170 170 174 185 189 182 177
177 170 164 157 145 138 136 141 141 138 133 128 130 133 131 130 136 141 140 142 144 133 120 115
118 119 117 122 138 152 163 169 185 162   0   0   8   0   0   0   0   0   0   0   0   0   0   0
  0   0   0   0
  0   0   0   0   0   0   0   0   0   0   0   0   0   0   0   0   0   0   0   4  10  16  23  31
 42  59  68  76  84  91 104 115 128 141 147 154 159 171 171 163 163 173 181 186 188 186 178 171
171 161 155 153 141 143 140 139 139 136 128 127 134 136 133 134 139 137 137 138 128 118 117 118
123 120 121 123 137 154 161 168 183 162   0   0   8   0   0   0   0   0   0   0   0   0   0   0
  0   0   0   0
  0   0   0   0   0   0   0   0   0   0   0   0   0   0   0   0   0   0   0   5  11  17  23  33
 44  56  72  82 100 119 131 140 138 140 151 161 176 183 179 173 161 164 177 187 184 181 179 178
165 153 156 151 146 146 145 140 132 128 128 140 146 138 138 143 145 143 140 131 120 114 115 120
123 128 138 141 143 150 162 171 183 162   0   0   9   0   0   0   0   0   0   0   0   0   0   0
  0   0   0   0
  0   0   0   0   0   0   0   0   0   0   0   0   0   0   0   0   0   0   0   6  12  17  24  33
 47  56  65  81 111 147 167 171 163 155 160 169 177 181 179 174 168 167 174 175 170 174 177 174
160 155 156 154 153 145 138 141 134 131 145 153 150 145 144 148 150 143 137 132 123 118 116 119
127 138 142 143 139 146 167 167 177 163   0   0   9   0   0   0   0   0   0   0   0   0   0   0
  0   0   0   0
  0   0   0   0   0   0   0   0   0   0   0   0   0   0   0   0   0   0   0   6  12  16  25  33
 47  62  67  79 113 142 160 175 181 174 170 175 178 174 175 180 180 175 175 175 168 174 174 169
159 161 161 157 153 146 142 139 142 152 153 148 147 146 145 143 139 133 130 126 121 115 112 118
129 133 134 147 147 151 163 162 178 162   0   0   8   0   0   0   0   0   0   0   0   0   0   0
  0   0   0   0
  0   0   0   0   0   0   0   0   0   0   0   0   0   0   0   0   0   0   0   6  12  15  23  35
 46  63  75  81 101 124 137 166 179 176 173 177 179 168 171 177 178 177 176 175 173 178 179 173
166 164 167 167 156 147 143 140 145 153 148 146 147 150 147 141 140 135 126 123 120 119 120 128
133 133 140 149 148 147 147 154 174 157   2   0   8   0   0   0   0   0   0   0   0   0   0   0
  0   0   0   0
  0   0   0   0   0   0   0   0   0   0   0   0   0   0   0   0   0   0   0   7  12  16  22  33
 46  60  76  89 105 118 134 161 180 188 188 180 173 169 175 176 178 179 178 173 171 178 173 167
171 171 177 179 166 156 146 143 146 148 151 153 156 155 149 142 137 129 127 128 122 121 127 137
139 139 137 131 127 125 131 140 168 157   0   0   8   0   0   0   0   0   0   0   0   0   0   0
  0   0   0   0
  0   0   0   0   0   0   0   0   0   0   0   0   0   0   0   0   0   0   0   6  13  15  21  31
 46  56  77  97 106 121 145 167 178 188 189 174 171 181 185 187 181 175 173 170 166 170 163 168
174 179 179 175 170 163 153 155 156 148 150 160 163 158 148 135 130 132 128 125 123 127 137 147
144 134 124 123 120 126 132 142 169 150   0   0   7   0   0   0   0   0   0   0   0   0   0   0
  0   0   0   0
  0   0   0   0   0   0   0   0   0   0   0   0   0   0   0   0   0   0   0   6  13  15  21  30
 46  61  77 101 112 130 154 167 175 182 176 174 181 184 179 183 185 177 165 165 167 163 167 176
177 177 172 170 164 163 167 164 153 146 148 155 157 151 147 141 137 135 126 123 133 144 152 149
139 128 126 124 126 133 138 148 155 142  12   0   7   0   0   0   0   0   0   0   0   0   0   0
  0   0   0   0
  0   0   0   0   0   0   0   0   0   0   0   0   0   0   0   0   0   0   0   5  11  16  23  31
 45  72  93  96 120 152 168 168 168 173 178 178 176 183 179 174 171 166 164 164 170 177 180 175
166 159 165 168 165 165 173 163 150 145 148 153 153 149 145 144 144 134 126 134 148 153 147 138
132 126 127 126 127 134 141 137 145 135   2   0   6   0   0   0   0   0   0   0   0   0   0   0
  0   0   0   0
  0   0   0   0   0   0   0   0   0   0   0   0   0   0   0   0   0   0   0   4  11  18  32  40
 50  71 107 114 133 168 188 180 165 173 180 175 179 186 177 166 156 150 163 168 171 185 183 167
153 154 157 161 169 174 173 167 155 146 149 150 151 149 142 142 142 135 134 144 150 145 134 132
128 126 130 128 129 140 136 128 140 125   2   0   5   0   0   0   0   0   0   0   0   0   0   0
  0   0   0   0
  0   0   0   0   0   0   0   0   0   0   0   0   0   0   0   0   0   0   1   3  10  24  40  57
 74  88 108 147 169 182 187 184 179 181 179 182 185 182 166 151 144 145 162 176 177 179 176 159
146 148 147 152 156 153 161 170 156 147 144 145 152 147 150 154 146 140 145 151 149 139 137 135
135 140 134 128 139 141 131 128 141 127   0   0   5   0   0   0   0   0   0   0   0   0   0   0
  0   0   0   0
  0   0   0   0   0   0   0   0   0   0   0   0   0   0   0   0   0   0   1   3   8  28  45  69
 93 110 122 164 190 188 186 186 184 180 187 195 192 183 161 147 147 155 168 179 182 169 163 155
146 148 141 138 140 142 159 165 157 150 142 143 150 154 157 156 152 151 154 156 150 144 139 140
145 140 134 140 144 136 136 134 142 124   0   0   5   0   0   0   0   0   0   0   0   0   0   0
  0   0   0   0
  0   0   0   0   0   0   0   0   0   0   0   0   0   0   0   0   0   0   1   2   5  26  44  64
 89 113 131 171 189 187 187 182 170 167 189 203 198 181 160 158 162 167 171 179 184 178 168 157
154 150 144 141 143 151 169 170 168 161 144 147 152 156 155 153 152 151 154 152 148 148 144 147
141 136 141 143 139 134 137 138 140 122   2   0   5   0   0   0   0   0   0   0   0   0   0   0
  0   0   0   0
  0   0   0   0   0   0   0   0   0   0   0   0   0   0   0   0   0   0   1   2   5  17  34  61
 87 111 138 169 184 190 187 176 167 169 188 196 183 170 164 172 177 178 181 183 186 187 180 162
159 155 146 144 142 150 166 177 180 168 155 154 151 148 155 154 145 140 143 148 148 144 141 138
137 135 139 137 136 139 145 142 150 135   0   0   6   0   0   0   0   0   0   0   0   0   0   0
  0   0   0   0
  0   0   0   0   0   0   0   0   0   0   0   0   0   0   0   0   0   0   1   2   4  11  21  52
 91 124 140 157 174 185 189 178 173 181 193 186 172 163 163 168 170 174 188 191 188 181 170 164
159 155 152 146 148 154 159 177 176 166 165 155 146 144 147 152 146 144 151 158 149 139 139 137
136 136 135 135 142 150 154 148 161 141   0   0   6   0   0   0   0   0   0   0   0   0   0   0
  0   0   0   0
  0   0   0   0   0   0   0   0   0   0   0   0   0   0   0   0   0   0   1   2   2   9  13  25
 55  87 103 139 169 180 193 191 185 189 190 177 167 156 149 152 155 160 175 179 180 176 172 173
165 159 157 150 153 160 163 170 169 159 156 153 145 142 146 151 151 150 158 154 140 141 141 137
140 139 135 142 148 146 143 143 150 125   0   0   5   0   0   0   0   0   0   0   0   0   0   0
  0   0   0   0
  0   0   0   0   0   0   0   0   0   0   0   0   0   0   0   0   0   0   1   2   2   5  13  10
 11  18  51 114 158 180 196 203 203 198 189 178 167 155 143 141 145 151 165 173 177 178 177 177
171 158 145 145 146 152 160 168 168 156 150 148 144 146 154 154 149 151 154 148 141 136 131 135
139 134 136 138 134 138 135 133 143 127   0   0   5   0   0   0   0   0   0   0   0   0   0   0
  0   0   0   0
  0   0   0   0   0   0   0   0   0   0   0   0   0   0   0   0   0   0   1   2   2   2  10  16
 18  26  36  85 136 162 178 187 192 193 183 168 158 156 150 146 142 148 162 170 170 176 180 167
159 159 149 149 154 159 164 170 163 165 160 147 146 153 152 147 150 157 158 148 132 128 137 139
140 137 135 130 121 123 128 132 150 136   0   0   6   0   0   0   0   0   0   0   0   0   0   0
  0   0   0   0
  0   0   0   0   0   0   0   0   0   0   0   0   0   0   0   0   0   0   1   2   2   2   5  15
 15  24  37  54  96 133 158 169 174 182 173 159 151 143 134 136 135 141 150 157 161 173 180 161
155 156 151 156 159 161 170 169 170 178 167 154 156 156 155 158 159 153 146 138 130 129 127 130
136 129 121 117 112 116 128 135 154 133   0   0   5   0   0   0   0   0   0   0   0   0   0   0
  0   0   0   0
  0   0   0   0   0   0   0   0   0   0   0   0   0   0   0   0   0   0   1   2   2   2   2  10
 16  20  30  44  68  98 128 154 173 180 163 149 147 139 127 127 133 134 139 151 163 170 176 167
159 161 163 166 167 170 173 173 175 174 159 156 165 166 170 167 153 143 138 134 127 120 116 117
121 118 110 105 104 114 124 140 153 125   0   0   4   0   0   0   0   0   0   0   0   0   0   0
  0   0   0   0
  0   0   0   0   0   0   0   0   0   0   0   0   0   0   0   0   0   0   1   2   2   2   1   5
 14  19  24  34  49  71  95 138 170 174 155 135 131 136 133 133 139 143 143 149 164 163 159 158
160 164 158 159 166 166 161 159 160 155 156 170 184 184 175 163 148 137 138 133 122 114 114 116
119 114 105 113 113 112 123 149 152 118   0   0   4   0   0   0   0   0   0   0   0   0   0   0
  0   0   0   0
  0   0   0   0   0   0   0   0   0   0   0   0   0   0   0   0   0   0   1   2   2   2   2   2
 10  18  23  30  39  50  74 110 145 155 147 128 121 124 135 147 156 157 153 151 155 149 149 151
153 154 146 144 147 152 162 165 162 157 159 175 183 175 164 153 147 143 135 124 116 114 113 114
114 109 111 116 116 119 133 141 139 120   0   0   4   0   0   0   0   0   0   0   0   0   0   0
  0   0   0   0
  0   0   0   0   0   0   0   0   0   0   0   0   0   0   0   0   0   0   1   2   3   2   2   2
  3  16  22  25  37  47  61  75  98 121 128 124 123 127 146 169 176 163 161 157 143 136 153 160
154 149 142 137 136 151 165 164 161 157 162 172 160 150 143 142 145 144 133 123 120 115 110 115
113 109 112 117 124 133 132 124 142 128   0   0   5   0   0   0   0   0   0   0   0   0   0   0
  0   0   0   0
  0   0   0   0   0   0   0   0   0   0   0   0   0   0   0   0   0   0   1   2   3   3   2   3
  2   7  19  23  35  43  47  59  67  86 108 122 128 140 154 165 177 182 185 176 167 167 166 163
158 152 145 133 136 149 156 155 158 164 176 173 160 152 140 134 136 128 124 124 113 106 114 124
124 120 124 127 117 123 132 138 141 122   9   0   5   0   0   0   0   0   0   0   0   0   0   0
  0   0   0   0
  0   0   0   0   0   0   0   0   0   0   0   0   0   0   0   0   0   0   1   3   3   3   2   2
  3   2  11  18  25  33  36  47  60  74  91 110 128 141 149 155 165 171 176 177 178 177 163 153
146 136 126 127 134 139 150 156 159 173 177 168 163 151 141 134 129 111 108 114 110 106 117 123
124 121 118 114 121 121 123 125 135 126  15   0   5   0   0   0   0   0   0   0   0   0   0   0
  0   0   0   0
  0   0   0   0   0   0   0   0   0   0   0   0   0   0   0   0   0   0   1   3   3   3   2   3
  3   2   4  11  17  23  32  39  48  61  75  88 107 133 142 145 149 154 162 161 147 142 139 130
133 132 127 132 134 138 146 152 158 166 163 163 160 148 138 138 127 112 109 107 113 117 123 122
117 110 112 119 123 114 117 128 144 124   8   0   5   0   0   0   0   0   0   0   0   0   0   0
  0   0   0   0
  0   0   0   0   0   0   0   0   0   0   0   0   0   0   0   0   0   0   1   3   3   3   2   2
  3   3   3   6  14  19  26  33  42  49  62  70  82 114 146 155 144 149 153 146 136 127 133 137
147 157 158 155 156 146 147 159 154 153 158 159 153 144 136 131 119 115 117 111 116 120 127 131
127 119 123 123 117 121 129 127 136 120   8   0   5   0   0   0   0   0   0   0   0   0   0   0
  0   0   0   0
  0   0   0   0   0   0   0   0   0   0   0   0   0   0   0   0   0   0   2   3   3   3   2   2
  3   3   3   3   9  16  21  27  36  43  48  59  71  84 110 139 139 138 137 134 138 136 140 143
157 166 168 162 157 154 156 156 152 157 152 147 141 133 126 124 120 115 113 113 115 119 116 118
124 118 117 119 122 125 120 119 136 124   9   0   5   0   0   0   0   0   0   0   0   0   0   0
  0   0   0   0
  0   0   0   0   0   0   0   0   0   0   0   0   0   0   0   0   0   0   2   3   3   3   2   3
  3   3   3   2   4  10  17  23  30  37  44  53  61  68  79 103 112 107 104 107 113 117 124 129
147 153 145 142 142 142 134 133 151 152 146 137 128 130 136 131 119 115 115 115 114 111 109 113
112 103 102 111 108 106 106 117 131 119  13   0   5   0   0   0   0   0   0   0   0   0   0   0
  0   0   0   0
  0   0   0   0   0   0   0   0   0   0   0   0   0   0   0   0   0   0   2   3   3   3   3   3
  3   3   3   2   2   6  11  17  24  32  39  45  53  63  72  88  97  87  93 103  98  99 105 108
126 140 139 134 133 128 126 130 132 132 127 116 116 128 141 128 115 114 110 104 101  99 103 108
103  96  97  94  94 102 104 106 123 116  15   0   5   0   0   0   0   0   0   0   0   0   0   0
  0   0   0   0
  0   0   0   0   0   0   0   0   0   0   0   0   0   0   0   0   0   0   2   3   3   3   3   3
  3   3   3   3   2   3   8  11  17  24  31  37  44  49  56  71  80  84  87  92  90  86  98 111
121 134 137 138 135 131 128 122 126 120 104 102 105 114 130 122 112 106 100  99  96  95  98 103
 97  92  88  81  88  98  91  93 120 117  12   0   5   0   0   0   0   0   0   0   0   0   0   0
  0   0   0   0
  0   0   0   0   0   0   0   0   0   0   0   0   0   0   0   0   0   0   2   4   3   3   3   3
  3   3   3   3   3   2   4  10  12  17  24  30  36  44  51  59  68  84  97  87  88  92 111 133
135 127 126 125 126 129 126 122 117 104  95  96  98 110 116 116 111 101  95  93  94  95  98  96
 91  88  84  79  86  86  78  92 120 116  14   0   5   0   0   0   0   0   0   0   0   0   0   0
  0   0   0   0
  0   0   0   0   0   0   0   0   0   0   0   0   0   0   0   0   0   0   2   4   4   3   3   3
  3   3   3   3   3   3   2   6  11  11  16  23  28  34  42  51  58  73  89  92  90 101 111 121
113 104 111 120 123 126 123 107 100  95  89  90  94  98  98 100 103  97  92  90  89  96  94  90
 89  85  75  78  84  75  72  82 120 121  15   0   5   0   0   0   0   0   0   0   0   0   0   0
  0   0   0   0
  0   0   0   0   0   0   0   0   0   0   0   0   0   0   0   0   0   0   2   4   4   4   3   3
  3   4   3   3   3   3   3   2   7  11  12  16  22  27  34  42  49  55  65  79  87  97 101 104
100  99 102 103 106 112 113  99  96  94  90  94  95  91  85  87  92  93  94  93  98  97  89  89
 85  79  80  81  75  63  56  61 117 127  18   0   6   0   0   0   0   0   0   0   0   0   0   0
  0   0   0   0
  0   0   0   0   0   0   0   0   0   0   0   0   0   0   0   0   0   0   2   4   4   4   4   4
  4   4   4   3   3   3   3   3   3   7  11  12  15  21  27  34  42  48  54  64  75  85  93  92
 91  94  95  90  92  97  97  96  91  89  97 101  96  88  86  94  93  94  97 100  99  90  88  82
 79  83  82  73  62  50  51  41 102 127  21   0   6   0   0   0   0   0   0   0   0   0   0   0
  0   0   0   0
  0   0   0   0   0   0   0   0   0   0   0   0   0   0   0   0   0   0   3   5   5   4   4   4
  4   4   4   3   3   3   3   3   3   3   6  11  12  14  20  27  31  37  45  51  58  71  84  80
 84  87  83  79  80  81  83  87  90 101 105  93  88  87  86  90  95 102 102  95  85  81  79  72
 78  74  62  60  56  52  49  32  81 117  25   0   5   0   0   0   0   0   0   0   0   0   0   0
  0   0   0   0
  0   0   0   0   0   0   0   0   0   0   0   0   0   0   0   0   0   0   3   5   5   5   4   4
  4   4   4   4   4   4   3   4   4   3   3   5  10  12  15  19  23  27  33  40  46  56  62  67
 76  78  79  81  82  79  81  87  91  98  98  95  96  92  90  93  91  89  81  74  66  63  63  65
 62  54  53  49  48  49  43  36  47  86  29   0   3   0   0   0   0   0   0   0   0   0   0   0
  0   0   0   0
  0   0   0   0   0   0   0   0   0   0   0   0   0   0   0   0   0   0   3   5   5   5   4   4
  5   5   4   4   4   4   4   4   4   4   4   3   5   9  12  13  15  20  25  29  35  40  44  51
 54  56  63  72  74  77  86  88  86  87  90  87  82  77  83  83  72  66  62  59  57  55  52  48
 44  42  39  36  36  31  26  23  20  49  20   0   2   0   0   0   0   0   0   0   0   0   0   0
  0   0   1   1
  0   0   0   0   0   0   0   0   0   0   0   0   0   0   0   0   0   0   3   6   5   5   5   5
  5   5   5   4   4   4   4   4   4   4   4   4   4   4   7  11  12  14  17  20  23  27  33  37
 47  55  58  57  61  71  73  66  63  63  65  64  62  62  64  57  51  52  53  56  56  48  45  43
 39  33  31  31  26  21  19  18  18  25   7   0   0   0   0   0   0   0   0   0   0   0   0   0
  0   0   0   0
  0   0   0   0   0   0   0   0   0   0   0   0   0   0   0   0   0   0   3   6   6   5   5   5
  5   5   5   5   5   5   4   4   5   4   4   4   5   4   4   6   9  11  12  15  18  21  22  26
 33  41  44  42  43  45  43  42  44  47  48  50  50  49  48  44  42  44  50  51  44  37  33  30
 28  26  25  21  18  17  17  16  14  24   7   0   0   0   0   0   0   0   0   0   0   0   0   0
  0   0   0   0
  0   0   0   0   0   0   0   0   0   0   0   0   0   0   0   0   0   0   4   6   6   6   6   5
  6   5   5   5   5   5   5   5   5   5   5   5   5   5   5   5   5   7   9  11  13  15  17  19
 21  21  22  26  27  29  31  33  35  37  36  35  37  37  34  35  35  39  45  35  28  27  25  24
 23  20  19  17  15  15  14  14  13  23   7   0   0   0   0   0   0   0   0   0   0   0   0   0
  0   0   0   0
