P2
# 8-bit pgm gray
100 100
255
  0   0   0   0   0   0   0   0   0   0   0   0   0   0   0   8   0   0 175 218 212 214 212 214
215 213 214 215 216 215 216 215 212 212 207 199 179 159 155 151 153 150 147 144 142 140 133 124
111  98  84  69  56  42  28  19  15   9   7   7   7   7   7   7   7   7   7   7   7   7   7   7
  7   7   7   7   8   9   7   7   8   5   0   0   0   0   0   0   0   0   0   0   0   0   0   0
  0   0   0   0
  0   0   0   0   0   0   0   0   0   0   0   0   0   0   0   8   0   0 176 220 212 212 212 215
215 214 215 217 217 216 215 213 210 209 204 186 164 160 155 150 150 149 145 142 141 140 133 121
108  95  80  63  50  38  25  18  15   8   6   7   6   6   6   6   7   7   7   7   7   7   7   7
  7   7   6   7   7   6   6   7   7   5   0   0   0   0   0   0   0   0   0   0   0   0   0   0
  0   0   0   0
  0   0   0   0   0   0   0   0   0   0   0   0   0   0   0   9   0   0 178 220 211 211 213 216
216 215 215 216 216 215 214 212 207 206 197 172 156 154 152 150 147 144 140 141 140 139 133 121
106  94  78  61  48  34  23  18  14   7   6   6   6   6   6   6   6   6   6   6   6   6   6   6
  6   6   6   6   6   6   6   6   7   5   0   0   0   0   0   0   0   0   0   0   0   0   0   0
  0   0   0   0
  0   0   0   0   0   0   0   0   0   0   0   0   0   0   0   9   0   0 179 220 210 214 214 216
217 216 215 215 216 216 212 210 207 202 180 157 158 155 151 149 144 143 143 143 142 138 131 119
106  93  78  58  42  30  22  17  13   7   5   6   6   6   6   6   6   6   6   6   6   6   6   6
  6   6   6   6   6   6   5   4   4   3   0   0   0   0   0   0   0   0   0   0   0   0   0   0
  0   0   0   0
  0   0   0   0   0   0   0   0   0   0   0   0   0   0   0   9   0   0 181 222 213 216 215 215
216 215 216 215 217 216 211 208 203 192 169 154 154 153 150 148 147 147 147 146 145 137 127 117
105  93  76  55  39  30  20  15  12   7   5   5   5   5   5   5   5   6   5   5   5   5   5   5
  5   5   5   6   6   4   9  22  25  17   0   0   0   0   0   0   0   0   0   0   0   0   0   0
  0   0   0   0
  0   0   0   0   0   0   0   0   0   0   0   0   0   0   0   9   0   0 179 222 215 218 218 217
216 216 217 216 215 212 210 205 194 175 158 153 152 148 148 150 148 146 148 147 141 135 125 118
106  90  72  55  41  30  20  14  11   7   5   5   5   5   5   5   5   5   5   5   5   5   5   5
  5   5   5   5   4   8   0   0   0   0   2   0   0   0   0   0   0   0   0   0   0   0   0   0
  0   0   0   0
  0   0   0   0   0   0   0   0   0   0   0   0   0   0   0   9   0   0 180 222 214 217 216 215
216 217 217 216 213 210 206 198 181 158 154 152 149 146 144 146 145 147 148 142 140 136 125 116
101  85  70  53  40  27  19  14  11   7   4   5   5   5   5   5   5   5   5   5   4   4   4   4
  5   5   4   4   8   0  31  81  81  51   0   1   1   0   0   0   0   0   0   0   0   0   0   0
  0   0   0   0
  0   0   0   0   0   0   0   0   0   0   0   0   0   0   0   9   0   0 180 221 214 216 213 214
216 216 217 215 211 207 202 188 165 153 155 153 148 145 144 145 145 148 145 144 143 136 125 113
100  85  71  54  39  27  19  14  11   8   4   4   4   4   4   4   4   4   4   4   4   4   4   4
  4   4   4   3  21   0  90 184 209 172   0   0   8   0   0   0   0   0   0   0   0   0   0   0
  0   0   0   0
  0   0   0   0   0   0   0   0   0   0   0   0   0   0   0   9   0   0 179 221 214 215 215 218
217 216 216 213 211 205 197 176 155 153 150 153 153 148 147 146 147 149 148 145 141 131 121 113
 99  84  70  53  39  28  21  15  11   8   4   4   4   4   4   4   4   4   4   4   4   4   4   4
  4   4   4   3  25   0 120 213 240 201   0   0  12   0   0   0   0   0   0   0   0   0   0   0
  0   0   0   0
  0   0   0   0   0   0   0   0   0   0   0   0   0   0   0   9   0   0 178 221 213 216 215 217
217 217 214 209 206 199 186 166 154 152 150 152 154 148 150 153 154 153 147 141 136 130 123 111
 97  83  69  55  42  31  22  16  12   9   5   4   4   4   4   4   4   4   4   4   4   4   4   4
  4   4   4   3  24   0 140 221 241 201   0   0  12   0   0   0   0   0   0   0   0   0   0   0
  0   0   0   0
  0   0   0   0   0   0   0   0   0   0   0   0   0   0   0   9   0   0 179 223 215 216 214 216
217 214 210 207 200 189 173 157 153 151 151 153 156 149 150 150 148 147 146 141 137 132 126 110
 98  87  71  58  46  35  24  16  12   9   7   4   4   4   3   4   4   4   4   4   4   3   3   4
  4   3   3   6  19   0 159 228 244 204   0   0  12   0   0   0   0   0   0   0   0   0   0   0
  0   0   0   0
  0   0   0   0   0   0   0   0   0   0   0   0   0   0   0   9   0   0 180 223 216 217 215 215
216 211 207 204 193 181 161 151 150 150 149 148 153 155 148 146 146 147 146 139 135 128 121 111
 99  88  76  62  48  35  26  19  13  10   8   4   3   4   3   3   3   4   4   3   3   3   3   3
  4   3   3  10   5   0 175 232 246 205   0   0  12   0   0   0   0   0   0   0   0   0   0   0
  0   0   0   0
  0   0   0   0   0   0   0   0   0   0   0   0   0   0   0   9   0   0 181 223 214 216 214 216
213 209 205 197 184 167 150 149 149 149 149 147 147 151 152 149 144 143 140 135 130 126 119 113
102  94  81  65  52  38  28  21  15  11   9   5   3   3   3   3   3   3   4   3   3   3   3   3
  3   3   1  16   0  19 189 235 246 206   0   0  13   0   0   0   0   0   0   0   0   0   0   0
  0   0   0   0
  0   0   0   0   0   0   0   0   0   0   0   0   0   0   0   9   0   0 181 223 213 216 214 213
210 207 202 190 178 160 150 152 152 149 148 147 147 146 148 151 148 144 139 134 132 127 121 115
107  99  86  69  56  44  34  23  17  13  10   7   3   3   3   3   3   3   3   3   3   3   3   3
  4   3   0  21   0  57 200 236 247 210   0   0  13   0   0   0   0   0   0   0   0   0   0   0
  0   0   0   0
  0   0   0   0   0   0   0   0   0   0   0   0   0   0   0   9   0   0 181 222 213 216 216 213
208 204 194 182 167 156 153 152 152 150 148 149 147 147 146 147 150 144 143 140 134 129 126 121
112 102  91  77  63  52  39  28  20  14  10   8   4   3   3   3   3   3   3   3   3   3   3   3
  3   3   0  25   0  81 208 237 245 187   0   5   9   0   0   0   0   0   0   0   0   0   0   0
  0   0   0   0
  0   0   0   0   0   0   0   0   0   0   0   0   0   0   0   9   0   0 181 223 215 216 215 211
206 200 188 174 157 153 152 150 149 149 147 149 148 146 146 147 148 146 141 141 138 134 133 125
114 107  96  83  68  55  44  34  24  17  12   9   5   3   3   3   3   3   3   3   3   3   3   3
  3   3   0  27   0 103 214 238 236 140   0  19   2   0   0   0   0   0   0   0   0   0   0   0
  0   0   0   0
  0   0   0   0   0   0   0   0   0   0   0   0   0   0   0   9   0   0 182 223 213 216 213 209
204 196 181 165 156 154 152 149 149 150 147 148 146 144 144 145 144 146 146 141 140 140 138 130
118 110 100  88  76  63  51  39  28  20  14  11   7   3   3   3   3   3   3   3   3   3   3   3
  3   3   0  28   0 122 218 240 230 140   0   4   4   0   0   0   0   0   0   0   0   0   0   0
  0   0   0   0
  0   0   0   0   0   0   0   0   0   0   0   0   0   0   0   9   0   0 182 224 215 216 210 204
199 188 175 159 153 153 150 149 149 149 148 147 146 145 146 146 144 144 145 144 141 139 138 135
124 113 107  98  86  70  55  43  31  24  17  12   9   4   3   3   3   4   3   3   3   3   2   2
  3   2   1  25   0 138 225 222 184 150  33   0   8   0   0   0   0   0   0   0   0   0   0   0
  0   0   0   0
  0   0   0   0   0   0   0   0   0   0   0   0   0   0   0   9   0   0 181 222 215 214 209 203
190 178 166 154 153 151 148 147 146 146 146 145 146 146 148 148 146 146 145 149 147 141 137 136
128 119 112 104  91  73  59  46  34  25  19  13  10   6   3   3   3   3   3   3   3   3   2   3
  3   2   5  19   0 152 227 226 223 196   0   0  12   0   0   0   0   0   0   0   0   0   0   0
  0   0   0   0
  0   0   0   0   0   0   0   0   0   0   0   0   0   0   0   9   0   0 179 221 213 211 204 198
188 174 161 151 151 148 149 149 149 148 149 150 147 148 149 148 148 152 149 147 149 147 143 141
135 123 115 108  97  82  68  53  40  30  21  15  11   8   4   2   3   3   3   3   3   2   2   2
  3   1  10   3   0 166 227 235 250 207   0   0  13   0   0   0   0   0   0   0   0   0   0   0
  0   0   0   0
  0   0   0   0   0   0   0   0   0   0   0   0   0   0   0   9   0   0 179 221 209 207 200 193
183 170 160 155 154 151 149 153 154 150 150 151 152 152 153 153 154 154 150 149 148 147 147 145
143 133 121 114 105  86  73  60  46  35  25  18  12   9   6   2   3   3   3   3   2   2   2   2
  3   1  11   0   0 150 206 218 236 201   0   0  12   0   0   0   0   0   0   0   0   0   0   0
  0   0   0   0
  0   0   0   0   0   0   0   0   0   0   0   0   0   0   0   9   0   0 180 221 209 205 196 186
175 161 151 155 157 157 158 156 150 148 147 149 149 149 150 150 151 152 151 150 148 145 145 144
144 142 134 122 114  99  83  71  54  40  30  21  14  10   8   4   2   3   3   2   3   2   2   2
  3   2   3   2   2  57  96 121 152 139   0   0   6   0   0   0   0   0   0   0   0   0   0   0
  0   0   0   0
  0   0   0   0   0   0   0   0   0   0   0   0   0   0   0   9   0   0 180 221 205 198 186 179
170 156 150 150 150 150 153 155 152 151 149 149 149 148 149 149 150 151 151 150 149 147 146 144
144 145 136 126 116 104  91  77  62  47  36  26  18  13   9   6   2   3   3   2   2   2   2   2
  3   2   2   3   2   0   0   0   0   0   3   0   0   0   0   0   0   0   0   0   0   0   0   0
  0   0   0   0
  0   0   0   0   0   0   0   0   0   0   0   0   0   0   0   9   0   0 177 216 201 193 183 178
166 154 151 151 150 149 149 151 151 151 153 153 152 151 151 151 150 152 153 154 153 149 147 151
143 142 142 134 121 107  94  78  67  54  41  30  21  15  10   7   4   2   3   2   2   2   2   2
  2   2   2   2   2  14  26  30  32  23   0   0   0   0   0   0   0   0   0   0   0   0   0   0
  0   0   0   0
  0   0   0   0   0   0   0   0   0   0   0   0   0   0   0   8   0   0 174 211 196 187 180 175
163 152 150 150 148 149 149 151 150 149 152 157 158 153 154 152 152 153 155 156 155 150 148 154
151 145 150 143 129 113  98  87  72  58  46  34  24  18  12   9   5   2   2   2   2   2   2   2
  2   2   2   2   2   2   7  10  13  10   0   0   0   0   0   0   0   0   0   0   0   0   0   0
  0   0   0   0
  0   0   0   0   0   0   0   0   0   0   0   0   0   0   0   8   0   0 172 208 189 183 177 169
159 152 151 152 151 150 149 149 150 150 150 152 158 156 156 156 154 155 156 155 156 158 153 155
156 151 147 139 135 126 110  94  81  68  55  42  31  22  15  10   7   3   2   2   2   2   2   2
  2   2   2   2   2   3   6   9  11   7   0   0   0   0   0   0   0   0   0   0   0   0   0   0
  0   0   0   0
  0   0   0   0   0   0   0   0   0   0   0   0   0   0   0   8   0   0 170 204 187 182 175 166
156 153 152 153 150 150 149 148 149 149 152 154 156 154 151 153 157 156 159 161 158 161 161 161
165 159 149 138 135 128 120 110  93  79  65  50  38  24  17  12   8   5   2   2   2   2   2   2
  2   2   2   2   2   2   5   7   9   6   0   0   0   0   0   0   0   0   0   0   0   0   0   0
  0   0   0   0
  0   0   0   0   0   0   0   0   0   0   0   0   0   0   0   8   0   0 169 201 182 180 172 162
155 153 152 152 150 149 150 149 151 152 152 152 154 153 151 151 155 156 159 163 163 165 167 164
169 161 151 147 137 128 121 114 101  84  69  55  41  29  20  14  10   7   3   2   2   2   2   2
  2   2   2   2   2   2   4   6   7   5   0   0   0   0   0   0   0   0   0   0   0   0   0   0
  0   0   0   0
  0   0   0   0   0   0   0   0   0   0   0   0   0   0   0   8   0   0 166 196 182 176 168 157
152 152 152 150 151 151 150 152 154 153 153 153 152 155 157 153 152 157 159 160 163 168 169 165
168 162 151 145 141 137 127 116 106  90  75  61  48  36  25  17  11   8   4   2   2   2   2   2
  2   2   1   2   2   2   4   6   7   4   0   0   0   0   0   0   0   0   0   0   0   0   0   0
  0   0   0   0
  0   0   0   0   0   0   0   0   0   0   0   0   0   0   0   7   0   0 156 191 178 171 163 154
151 150 149 152 152 152 153 153 154 154 154 156 156 157 161 158 157 158 158 161 162 167 170 172
172 164 157 148 144 138 129 119 110  96  81  67  54  41  30  20  13   9   6   2   2   2   2   2
  2   2   1   2   2   2   4   5   6   4   0   0   0   0   0   0   0   0   0   0   0   0   0   0
  0   0   0   0
  0   0   0   0   0   0   0   0   0   0   0   0   0   0   0   6   0   0 155 189 175 168 158 152
153 151 152 153 152 153 153 152 152 154 155 158 157 155 157 161 163 160 158 158 163 169 174 169
168 166 163 156 147 141 134 124 117 104  89  74  61  47  35  24  16  11   7   3   1   2   1   2
  2   2   2   2   2   2   3   5   5   3   0   0   0   0   0   0   0   0   0   0   0   0   0   0
  0   0   0   0
  0   0   0   0   0   0   0   0   0   0   0   0   0   0   0   7   0   0 156 188 173 164 154 152
152 153 155 152 153 155 154 153 153 153 155 155 155 156 156 156 158 158 159 160 162 171 171 165
163 164 162 155 148 142 135 132 125 111  96  81  68  55  40  30  21  14   9   5   2   2   1   2
  2   2   1   2   2   2   3   4   5   3   0   0   0   0   0   0   0   0   0   0   0   0   0   0
  0   0   0   0
  0   0   0   0   0   0   0   0   0   0   0   0   0   0   0   6   0   0 154 189 175 164 153 151
153 154 154 156 154 152 152 153 154 156 157 156 156 155 156 157 157 156 158 160 161 168 170 166
163 160 158 153 150 145 138 134 127 115 104  91  78  63  47  36  25  16  10   7   3   1   1   1
  2   1   1   2   2   2   3   4   5   3   0   0   0   0   0   0   0   0   0   0   0   0   0   0
  0   0   0   0
  0   0   0   0   0   0   0   0   0   0   0   0   0   0   0   6   0   0 153 188 173 163 154 153
154 154 153 153 153 152 151 153 155 155 157 158 156 156 157 158 161 161 159 158 158 164 169 166
161 158 158 156 152 147 143 137 129 121 113 103  84  69  54  40  30  19  12   8   4   1   1   2
  2   2   1   2   2   2   3   4   9   3   0   0   0   0   0   0   0   0   0   0   0   0   0   0
  0   0   0   0
  0   0   0   0   0   0   0   0   0   0   0   0   0   0   0   6   0   0 153 185 169 158 152 153
153 153 154 153 153 154 153 154 155 158 158 160 159 157 156 158 161 164 162 159 160 168 169 164
166 164 161 159 154 150 144 141 135 125 118 107  90  76  62  47  34  23  15  10   6   2   1   2
  2   2   1   2   2   2   3   7   9   3   0   0   0   0   0   0   0   0   0   0   0   0   0   0
  0   0   0   0
  0   0   0   0   0   0   0   0   0   0   0   0   0   0   0   6   0   0 150 181 166 156 150 152
153 154 156 159 161 159 156 156 156 158 161 160 160 158 159 158 159 162 163 164 165 169 171 165
165 163 160 160 158 157 152 148 143 129 120 113 101  85  67  53  41  28  18  12   8   3   1   2
  2   2   2   2   2   2   3   0   1   3   0   0   0   0   0   0   0   0   0   0   0   0   0   0
  0   0   0   0
  0   0   0   0   0   0   0   0   0   0   0   0   0   0   0   6   0   0 151 182 165 154 150 153
153 157 158 161 161 159 162 163 158 157 163 163 159 157 158 160 160 161 162 167 170 169 171 165
162 160 160 161 158 153 151 151 146 138 129 119 106  92  78  62  48  34  22  14   9   5   1   2
  2   2   1   2   2   2   2   7  10   2   0   0   0   0   0   0   0   0   0   0   0   0   0   0
  0   0   0   0
  0   0   0   0   0   0   0   0   0   0   0   0   0   0   0   6   0   0 149 179 159 152 154 154
155 158 155 156 159 162 164 165 162 160 163 167 162 161 160 160 159 160 164 168 170 170 172 167
169 165 159 160 162 157 153 151 150 143 134 124 113 100  86  69  53  41  27  16  11   6   2   2
  2   1   1   1   4   0  23  64  38   0   1   0   0   0   0   0   0   0   0   0   0   0   0   0
  0   0   0   0
  0   0   0   0   0   0   0   0   0   0   0   0   0   0   0   6   0   0 152 180 156 151 151 152
156 156 155 155 157 163 162 163 166 166 163 166 164 163 166 167 164 163 166 169 171 170 171 172
178 173 164 161 161 158 155 153 151 147 141 131 121 108  92  78  65  48  30  18  12   8   3   1
  2   2   1   1   3   0  17  61  25   0   3   0   0   0   0   0   0   0   0   0   0   0   0   0
  0   0   0   0
  0   0   0   0   0   0   0   0   0   0   0   0   0   0   0   6   0   0 150 178 157 153 155 154
153 156 158 157 159 165 165 166 164 167 170 170 170 170 174 178 174 171 168 168 169 173 172 170
172 169 166 162 160 159 156 154 151 150 152 148 136 115  99  83  68  48  34  21  14   9   4   1
  2   2   1   1   2   0   0  48  29   0   4   0   0   0   0   0   0   0   0   0   0   0   0   0
  0   0   0   0
  0   0   0   0   0   0   0   0   0   0   0   0   0   0   0   6   0   0 148 175 157 157 154 153
152 155 159 161 162 163 165 168 169 171 172 172 173 173 177 179 178 176 173 170 169 172 170 162
159 164 166 166 165 161 160 158 154 150 152 157 140 121 104  86  68  50  38  26  15  11   6   2
  2   1   1   2   2   1   0  28  20   0   1   0   0   0   0   0   0   0   0   0   0   0   0   0
  0   0   0   0
  0   0   0   0   0   0   0   0   0   0   0   0   0   0   0   6   0   0 147 175 158 158 156 153
155 156 157 161 164 165 166 166 171 173 171 171 173 171 174 178 175 174 171 168 167 168 165 161
157 158 163 168 170 166 160 158 155 150 151 151 135 123 109  92  73  56  41  28  18  12   7   2
  1   1   1   1   1   2   3   0   1   3   0   0   0   0   0   0   0   0   0   0   0   0   0   0
  0   0   0   0
  0   0   0   0   0   0   0   0   0   0   0   0   0   0   0   6   0   0 145 173 156 157 159 157
158 158 159 159 161 164 166 167 173 180 178 175 179 176 175 177 173 174 175 170 166 164 162 159
159 159 157 160 165 168 167 159 154 155 153 148 135 122 111  97  78  60  46  29  20  12   8   3
  1   1   1   1   1   1   2   4   4   2   0   0   0   0   0   0   0   0   0   0   0   0   0   0
  0   0   0   0
  0   0   0   0   0   0   0   0   0   0   0   0   0   0   0   6   0   0 146 174 158 158 158 157
154 155 158 159 161 164 162 163 162 169 181 185 187 182 176 172 176 178 179 178 171 164 162 157
157 159 154 156 160 161 167 165 157 154 153 150 143 127 115 101  84  67  47  34  22  13   9   4
  1   1   1   1   1   1   2   3   3   2   0   0   0   0   0   0   0   0   0   0   0   0   0   0
  0   0   0   0
  0   0   0   0   0   0   0   0   0   0   0   0   0   0   0   5   0   0 140 165 155 157 156 155
154 155 156 157 159 159 159 161 162 160 162 176 181 179 178 174 169 168 169 173 170 167 165 161
156 158 158 156 158 159 157 161 160 154 153 157 152 132 115 101  87  70  49  35  25  15   9   5
  1   1   1   1   1   1   2   2   3   2   0   0   0   0   0   0   0   0   0   0   0   0   0   0
  0   0   0   0
  0   0   0   0   0   0   0   0   0   0   0   0   0   0   0   5   0   0 138 164 154 157 154 152
154 155 155 156 158 157 157 158 160 163 159 166 177 177 173 170 165 168 169 166 163 162 166 163
159 157 156 158 157 159 160 157 157 157 154 152 146 133 116 102  88  72  55  38  26  16  10   6
  2   1   1   1   1   1   1   2   2   2   0   0   0   0   0   0   0   0   0   0   0   0   0   0
  0   0   0   0
  0   0   0   0   0   0   0   0   0   0   0   0   0   0   0   5   0   0 140 166 154 156 155 155
155 156 158 158 158 158 156 161 158 159 162 164 170 176 171 166 165 167 170 168 165 160 160 163
165 164 158 158 158 157 158 155 152 151 146 145 145 136 120 105  92  75  59  43  29  18  11   7
  2   1   1   1   1   1   1   2   2   2   0   0   0   0   0   0   0   0   0   0   0   0   0   0
  0   0   0   0
  0   0   0   0   0   0   0   0   0   0   0   0   0   0   0   5   0   0 138 166 154 152 155 156
155 157 158 158 160 162 160 163 165 163 160 163 165 172 171 165 165 167 169 165 163 164 161 162
162 166 165 163 159 158 157 155 153 150 148 143 143 141 122 112  97  79  62  46  33  19  13   7
  3   1   1   1   1   1   1   2   2   2   0   0   0   0   0   0   0   0   0   0   0   0   0   0
  0   0   0   0
  0   0   0   0   0   0   0   0   0   0   0   0   0   0   0   5   0   0 135 161 155 156 154 156
155 154 156 157 159 159 164 167 173 173 169 168 168 169 168 167 164 162 166 165 166 166 165 162
158 157 162 166 165 160 160 157 152 147 145 141 137 134 127 114 101  82  66  50  35  23  13   8
  4   1   1   1   1   1   2   2   2   2   0   0   0   0   0   0   0   0   0   0   0   0   0   0
  0   0   0   0
  0   0   0   0   0   0   0   0   0   0   0   0   0   0   0   5   0   0 134 160 154 156 154 155
156 153 155 156 158 157 157 160 165 168 170 170 171 171 165 166 168 163 164 168 165 167 167 163
160 158 158 162 166 166 160 158 152 147 145 141 137 132 130 120 106  88  69  54  40  25  14   9
  4   1   1   1   1   1   1   2   2   1   0   0   0   0   0   0   0   0   0   0   0   0   0   0
  0   0   0   0
  0   0   0   0   0   0   0   0   0   0   0   0   0   0   0   5   0   0 131 158 152 152 152 155
156 156 156 155 155 155 155 155 156 158 161 168 178 178 169 165 167 166 164 167 161 160 163 159
158 158 156 159 159 166 164 157 155 147 146 141 138 133 127 120 112  98  77  63  44  24  15   9
  5   1   1   1   1   1   1   2   2   1   0   0   0   0   0   0   0   0   0   0   0   0   0   0
  0   0   0   0
  0   0   0   0   0   0   0   0   0   0   0   0   0   0   0   5   0   0 131 156 150 154 153 155
154 155 157 158 156 157 156 157 158 156 157 167 177 176 173 167 162 159 161 163 161 159 158 157
159 158 156 158 158 164 171 160 158 155 147 141 141 135 126 119 111 102  90  61  40  27  15   9
  6   1   1   1   1   1   1   2   2   1   0   0   0   0   0   0   0   0   0   0   0   0   0   0
  0   0   0   0
  0   0   0   0   0   0   0   0   0   0   0   0   0   0   0   5   0   0 134 163 151 153 152 153
153 152 156 156 157 157 156 154 156 158 155 164 175 171 172 165 162 159 161 163 165 163 158 158
158 161 160 158 159 164 168 166 161 159 153 146 142 137 127 120 109 101  89  56  41  28  17   9
  6   2   1   1   1   1   1   2   2   2   0   0   0   0   0   0   0   0   0   0   0   0   0   0
  0   0   0   0
  0   0   0   0   0   0   0   0   0   0   0   0   0   0   0   5   0   0 133 163 152 152 151 153
154 155 155 155 158 158 157 155 156 158 160 161 169 175 172 170 164 158 162 162 165 166 161 159
155 159 164 160 157 162 165 168 163 157 155 147 141 136 129 116 109 104  84  57  43  27  17  10
  6   2   1   1   1   1   1   1   2   2   0   0   0   0   0   0   0   0   0   0   0   0   0   0
  0   0   0   0
  0   0   0   0   0   0   0   0   0   0   0   0   0   0   0   5   0   0 133 164 157 155 155 156
155 155 156 155 156 155 154 154 156 159 161 162 165 171 173 173 165 159 162 159 163 164 161 163
161 160 163 163 159 160 165 165 168 160 154 150 144 136 130 118 111 105  82  61  45  29  16  10
  6   2   1   1   1   1   1   1   2   1   0   0   0   0   0   0   0   0   0   0   0   0   0   0
  0   0   0   0
  0   0   0   0   0   0   0   0   0   0   0   0   0   0   0   5   0   0 135 165 158 158 158 155
156 156 156 156 154 154 154 154 155 157 156 161 163 164 173 172 166 162 160 159 158 159 159 162
161 158 160 165 161 161 165 165 167 161 154 147 145 141 131 124 118 108  83  63  47  31  17  10
  6   2   1   1   1   1   1   1   2   1   0   0   0   0   0   0   0   0   0   0   0   0   0   0
  0   0   0   0
  0   0   0   0   0   0   0   0   0   0   0   0   0   0   0   5   0   0 134 163 153 157 160 159
159 158 159 158 155 156 155 155 153 156 158 158 158 161 165 164 164 165 160 159 159 158 159 158
161 162 159 164 161 160 169 165 170 166 156 146 142 142 134 127 124 109  84  62  44  29  19  11
  7   2   1   1   1   1   1   1   2   1   0   0   0   0   0   0   0   0   0   0   0   0   0   0
  0   0   0   0
  0   0   0   0   0   0   0   0   0   0   0   0   0   0   0   5   0   0 134 165 157 156 155 158
162 160 157 156 158 155 157 157 158 158 157 158 157 159 161 161 164 166 165 164 163 162 159 158
161 168 168 165 164 164 172 169 168 165 156 150 144 137 131 124 127 116  85  60  44  30  18  11
  7   2   1   1   1   1   1   1   2   1   0   0   0   0   0   0   0   0   0   0   0   0   0   0
  0   0   0   0
  0   0   0   0   0   0   0   0   0   0   0   0   0   0   0   5   0   0 133 166 157 156 152 154
157 159 161 160 159 158 157 159 160 159 159 161 162 162 161 160 164 164 163 166 164 163 164 161
158 163 166 165 165 164 165 174 171 157 155 152 143 136 125 119 120 118  97  66  46  32  17  10
  7   1   1   1   1   1   1   1   2   1   0   0   0   0   0   0   0   0   0   0   0   0   0   0
  0   0   0   0
  0   0   0   0   0   0   0   0   0   0   0   0   0   0   0   5   0   0 133 165 157 157 157 159
157 156 160 161 158 157 156 155 156 157 158 155 158 160 159 158 160 161 162 163 164 163 163 164
163 162 161 165 167 164 161 173 176 160 156 150 143 138 130 124 116 103  85  65  46  28  15  11
  7   1   1   1   1   1   1   1   2   1   0   0   0   0   0   0   0   0   0   0   0   0   0   0
  0   0   0   0
  0   0   0   0   0   0   0   0   0   0   0   0   0   0   0   5   0   0 134 165 159 158 157 160
161 161 157 161 159 155 156 158 157 154 156 156 156 158 157 158 158 160 162 164 164 162 162 161
161 163 165 166 169 168 159 167 177 164 159 150 147 143 131 125 111  91  72  55  39  25  15  11
  7   1   1   1   1   1   1   1   2   1   0   0   0   0   0   0   0   0   0   0   0   0   0   0
  0   0   0   0
  0   0   0   0   0   0   0   0   0   0   0   0   0   0   0   4   0   0 132 165 160 161 160 161
163 165 163 160 162 159 156 157 159 157 157 160 159 159 159 158 158 162 162 161 165 165 165 163
161 161 165 165 166 168 161 159 165 163 161 154 149 137 126 120 106  88  70  52  35  23  16  11
  6   0   1   1   1   1   1   1   2   1   0   0   0   0   0   0   0   0   0   0   0   0   0   0
  0   0   0   0
  0   0   0   0   0   0   0   0   0   0   0   0   0   0   0   5   0   0 134 167 161 161 163 165
164 164 166 163 160 163 162 157 160 159 157 157 159 161 160 160 160 159 161 161 165 165 165 162
162 161 162 164 164 166 169 159 156 165 163 156 147 136 125 111  98  86  64  46  34  22  14  10
  5   0   1   1   1   1   1   1   2   1   0   0   0   0   0   0   0   0   0   0   0   0   0   0
  0   0   0   0
  0   0   0   0   0   0   0   0   0   0   0   0   0   0   0   5   0   0 137 170 160 160 159 161
161 161 162 163 163 161 161 160 161 161 161 161 159 160 163 165 165 162 162 161 164 165 161 156
158 161 161 165 165 161 168 163 162 166 160 150 142 131 116 107  93  78  62  45  32  22  14  10
  3   0   1   1   1   1   1   1   2   1   0   0   0   0   0   0   0   0   0   0   0   0   0   0
  0   0   0   0
  0   0   0   0   0   0   0   0   0   0   0   0   0   0   0   5   0   0 138 171 162 162 161 159
161 161 160 159 163 162 160 162 162 161 161 162 162 162 164 163 165 166 166 163 160 163 162 158
157 157 161 161 166 166 165 165 166 166 157 150 137 127 114 102  89  72  57  42  30  21  14   9
  2   0   1   1   1   0   1   1   1   1   0   0   0   0   0   0   0   0   0   0   0   0   0   0
  0   0   0   0
  0   0   0   0   0   0   0   0   0   0   0   0   0   0   0   5   0   0 137 171 164 166 165 164
162 163 161 160 159 159 160 158 159 159 159 158 160 161 162 161 160 161 166 164 160 162 163 162
158 155 160 165 166 168 166 164 160 160 155 143 134 123 113  99  85  69  53  38  28  18  12   8
  1   0   1   1   1   0   1   1   1   1   0   0   0   0   0   0   0   0   0   0   0   0   0   0
  0   0   0   0
  0   0   0   0   0   0   0   0   0   0   0   0   0   0   0   5   0   0 134 168 161 163 163 165
165 163 161 161 162 158 161 161 158 158 159 161 161 161 161 162 163 160 163 164 163 163 163 163
162 160 164 169 164 163 169 163 156 157 157 144 130 119 111  98  80  65  49  34  24  16  11   6
  1   1   1   1   1   0   1   1   1   1   0   0   0   0   0   0   0   0   0   0   0   0   0   0
  0   0   0   0
  0   0   0   0   0   0   0   0   0   0   0   0   0   0   0   5   0   0 134 165 162 162 162 165
166 164 163 163 164 163 161 164 163 162 160 161 162 160 160 161 163 163 161 165 166 164 164 164
164 163 163 162 161 162 165 158 150 150 151 149 131 121 114  94  76  60  45  30  21  14  10   4
  1   1   1   1   1   0   0   1   1   1   0   0   0   0   0   0   0   0   0   0   0   0   0   0
  0   0   0   0
  0   0   0   0   0   0   0   0   0   0   0   0   0   0   0   5   0   0 132 162 159 162 162 165
169 169 165 164 165 167 166 164 163 165 163 163 163 161 162 162 164 165 163 166 167 161 161 163
163 165 163 161 169 166 162 160 146 146 146 141 134 124 114  92  71  53  41  29  19  13  10   2
  1   1   1   1   1   0   1   1   1   1   0   0   0   0   0   0   0   0   0   0   0   0   0   0
  0   0   0   0
  0   0   0   0   0   0   0   0   0   0   0   0   0   0   0   5   0   0 134 163 155 161 162 163
165 165 164 162 163 165 166 166 167 168 167 166 166 165 164 164 165 165 167 168 173 169 163 164
163 161 164 161 167 169 161 154 143 142 143 136 127 122 113  87  65  49  39  27  17  12   8   1
  1   1   0   1   1   1   1   1   1   1   0   0   0   0   0   0   0   0   0   0   0   0   0   0
  0   0   0   0
  0   0   0   0   0   0   0   0   0   0   0   0   0   0   0   5   0   0 135 167 160 160 163 162
162 160 161 163 164 161 161 166 168 167 167 167 167 168 169 169 168 167 168 168 173 174 164 161
165 161 159 162 162 167 161 149 146 140 139 136 125 118 103  77  61  50  37  23  16  13   5   0
  1   1   0   1   1   0   0   1   1   1   0   0   0   0   0   0   0   0   0   0   0   0   0   0
  0   0   0   0
  0   0   0   0   0   0   0   0   0   0   0   0   0   0   0   5   0   0 134 167 161 159 161 165
167 161 158 160 162 163 163 166 167 166 166 167 167 168 169 167 166 167 168 168 172 175 168 165
168 165 162 163 161 163 157 154 149 140 135 129 121 109  96  75  55  44  32  22  17  13   2   0
  1   1   1   1   1   1   1   1   1   1   0   0   0   0   0   0   0   0   0   0   0   0   0   0
  0   0   0   0
  0   0   0   0   0   0   0   0   0   0   0   0   0   0   0   5   0   0 136 167 163 163 162 165
165 161 156 158 159 158 159 162 164 164 166 167 167 166 167 167 162 162 167 166 163 169 172 166
164 165 166 165 161 160 159 158 148 135 131 121 111 102  85  65  48  38  29  19  17  10   0   1
  1   1   0   1   1   1   1   1   1   1   0   0   0   0   0   0   0   0   0   0   0   0   0   0
  0   0   0   0
  0   0   0   0   0   0   0   0   0   0   0   0   0   0   0   5   0   0 138 172 164 166 166 165
164 165 159 157 158 158 159 158 162 168 172 169 166 165 162 164 163 162 162 162 160 158 166 167
164 161 162 161 159 157 161 155 139 126 122 119 107  89  70  55  42  32  22  17  15   4   0   1
  1   0   0   1   1   0   0   1   1   1   0   0   0   0   0   0   0   0   0   0   0   0   0   0
  0   0   0   0
  0   0   0   0   0   0   0   0   0   0   0   0   0   0   0   5   0   0 133 169 169 164 166 170
169 168 164 160 158 160 162 158 159 174 182 180 171 162 160 158 158 159 159 158 161 164 166 165
165 162 159 157 154 153 153 148 136 125 113 108 101  75  61  47  36  27  17  19  13   0   0   0
  1   0   0   0   1   0   0   1   1   1   0   0   0   0   0   0   0   0   0   0   0   0   0   0
  0   0   0   0
  0   0   0   0   0   0   0   0   0   0   0   0   0   0   0   5   0   0 134 165 162 165 161 168
176 171 166 162 160 159 159 160 161 172 177 175 170 160 160 160 157 155 157 158 161 164 166 163
163 164 159 158 156 149 143 140 143 127 105  98  93  68  54  41  32  23  20  23   9   0   0   0
  0   0   0   0   0   0   0   1   1   1   0   0   0   0   0   0   0   0   0   0   0   0   0   0
  0   0   0   0
  0   0   0   0   0   0   0   0   0   0   0   0   0   0   0   5   0   0 136 170 161 165 164 164
170 175 171 164 161 158 157 161 161 166 165 160 158 157 158 159 159 155 154 154 158 161 160 159
163 167 161 154 156 150 141 133 135 124 100  95  86  64  49  35  28  20  26  21   4   1   0   0
  1   0   0   0   0   0   0   0   1   1   0   0   0   0   0   0   0   0   0   0   0   0   0   0
  0   0   0   0
  0   0   0   0   0   0   0   0   0   0   0   0   0   0   0   5   0   0 136 170 162 161 162 165
158 165 171 163 160 160 158 158 157 157 158 156 153 154 155 155 155 156 156 157 155 156 160 160
160 167 166 157 154 149 141 130 117 110  98  87  73  56  40  34  24  21  27  14   2   2   0   0
  0   0   0   0   0   0   0   1   1   1   0   0   0   0   0   0   0   0   0   0   0   0   0   0
  0   0   0   0
  0   0   0   0   0   0   0   0   0   0   0   0   0   0   0   5   0   0 140 174 161 160 160 164
162 159 164 162 157 156 154 153 152 152 155 158 156 155 154 153 155 157 160 159 156 154 155 160
161 159 158 157 158 151 137 129 118 106  96  82  65  43  35  33  24  26  22   6   2   1   0   0
  0   0   0   0   0   0   0   0   1   1   0   0   0   0   0   0   0   0   0   0   0   0   0   0
  0   0   0   0
  0   0   0   0   0   0   0   0   0   0   0   0   0   0   0   5   0   0 140 175 164 160 161 159
162 161 162 162 158 159 157 152 151 151 152 153 153 153 152 152 154 155 155 156 157 160 160 159
157 153 152 149 149 141 132 120 110  99  93  78  57  44  39  31  25  22  12   4   2   0   0   0
  1   0   0   0   0   0   0   0   1   1   0   0   0   0   0   0   0   0   0   0   0   0   0   0
  0   0   0   0
  0   0   0   0   0   0   0   0   0   0   0   0   0   0   0   5   0   0 140 173 162 158 160 162
161 161 160 160 163 163 161 158 156 156 156 153 153 152 149 150 153 151 153 155 154 158 165 162
153 152 147 143 139 131 129 111  96  88  75  60  49  44  36  27  21  13   5   3   1   0   0   0
  0   0   0   0   0   0   0   0   1   1   0   0   0   0   0   0   0   0   0   0   0   0   0   0
  0   0   0   0
  0   0   0   0   0   0   0   0   0   0   0   0   0   0   0   4   1   0 134 171 161 157 155 159
162 159 159 159 164 163 162 158 155 154 158 157 155 154 151 151 150 149 152 155 153 154 161 157
149 146 140 137 133 127 118  99  83  66  54  45  38  33  26  19  14   6   3   2   1   0   0   0
  1   0   0   0   0   0   0   1   1   1   0   0   0   0   0   0   0   0   0   0   0   0   0   0
  0   0   0   0
  0   0   0   0   0   0   0   0   0   0   0   0   0   0   0   4   0   0 129 164 161 160 156 154
157 161 162 162 159 160 158 156 154 153 150 152 153 154 154 152 149 148 148 151 152 157 157 152
151 143 137 130 124 115  98  85  67  53  50  38  32  25  19  15   6   2   1   1   0   0   0   0
  1   1   0   1   0   0   0   1   1   1   0   0   0   0   0   0   0   0   0   0   0   0   0   0
  0   0   0   0
  0   0   0   0   0   0   0   0   0   0   0   0   0   0   0   4   0   0 130 162 158 161 162 156
155 157 156 157 154 155 155 152 155 156 152 150 151 152 153 154 154 153 152 151 149 151 153 149
148 143 132 121 111 100  85  76  64  51  39  29  23  17  15   6   1   1   1   0   0   0   0   0
  1   0   0   0   0   0   0   1   1   1   0   0   0   0   0   0   0   0   0   0   0   0   0   0
  0   0   0   0
  0   0   0   0   0   0   0   0   0   0   0   0   0   0   0   4   0   0 129 160 157 160 158 155
157 157 159 160 156 152 151 150 150 152 154 155 156 153 152 153 154 156 157 153 150 151 148 141
135 132 121 114 103  84  76  64  51  35  26  24  21  16   7   1   1   1   1   1   0   0   0   0
  1   0   0   0   0   0   0   1   1   1   0   0   0   0   0   0   0   0   0   0   0   0   0   0
  0   0   0   0
  0   0   0   0   0   0   0   0   0   0   0   0   0   0   0   4   0   0 123 155 154 155 158 152
154 157 160 162 160 158 154 152 151 151 152 154 154 154 154 154 156 156 156 155 157 151 146 141
131 124 109 102  94  80  71  51  38  28  22  18  16   8   1   1   1   1   1   1   0   0   0   0
  1   0   0   0   0   0   0   0   1   0   0   0   0   0   0   0   0   0   0   0   0   0   0   0
  0   0   0   0
  0   0   0   0   0   0   0   0   0   0   0   0   0   0   0   4   0   0 118 148 150 153 157 154
147 155 155 154 157 157 159 156 150 148 148 152 153 150 147 146 147 147 145 144 144 141 141 134
122 113 101  87  74  68  54  38  31  23  19  14  11   6   0   1   1   1   1   1   1   0   0   0
  1   0   0   0   0   0   0   0   1   0   0   0   0   0   0   0   0   0   0   0   0   0   0   0
  0   0   0   0
  0   0   0   0   0   0   0   0   0   0   0   0   0   0   0   3   0   0 113 140 137 148 154 156
146 144 151 151 154 156 155 159 157 152 146 149 149 150 149 145 142 138 135 133 131 132 126 116
105  95  83  69  59  52  42  29  20  16  13   8   6   8   0   1   1   1   1   1   1   0   0   0
  1   0   0   0   0   0   0   0   1   1   0   0   0   0   0   0   0   0   0   0   0   0   0   0
  0   0   0   0
  0   0   0   0   0   0   0   0   0   0   0   0   0   0   0   2   1   0 101 130 127 136 147 152
151 142 144 148 148 151 152 153 156 157 152 148 144 145 144 139 135 132 129 125 124 120 111 105
 93  81  69  60  49  38  29  20  15  13   8   3   0   0   1   1   1   1   1   1   1   1   0   0
  1   0   0   0   0   0   0   0   1   1   0   0   0   0   0   0   0   0   0   0   0   0   0   0
  0   0   0   0
  0   0   0   0   0   0   0   0   0   0   0   0   0   0   0   2   1   0  82 113 116 122 133 145
145 141 138 143 144 144 148 150 149 149 152 150 146 142 139 136 134 134 132 126 120 109  98  90
 81  69  61  49  34  25  19  14  11   9   4   1   1   1   1   1   1   1   1   1   1   1   0   0
  1   0   0   0   0   0   0   0   1   1   0   0   0   0   0   0   0   0   0   0   0   0   0   0
  0   0   0   0
  0   0   0   0   0   0   0   0   0   0   0   0   0   0   0   1   0   0  67  91 100 107 113 130
141 142 137 132 133 135 135 140 144 143 140 140 143 140 137 135 130 122 116 112 105  98  86  78
 70  57  42  30  24  19  14  11   8   3   1   1   1   1   1   1   1   1   1   1   1   1   1   1
  1   0   0   0   0   0   0   0   1   0   0   0   0   0   0   0   0   0   0   0   0   0   0   0
  0   0   0   0
  0   0   0   0   0   0   0   0   0   0   0   0   0   0   0   1   0   0  51  70  81  89  97 106
122 132 140 131 123 123 124 127 132 133 130 125 124 124 119 112 108 102  96  89  84  79  71  64
 52  37  28  23  17  13  11   8   3   1   1   1   1   1   0   1   1   1   1   1   1   1   1   1
  1   0   0   0   0   0   0   0   0   0   0   0   0   0   0   0   0   0   0   0   0   0   0   0
  0   0   0   0
  0   0   0   0   0   0   0   0   0   0   0   0   0   0   0   0   0   0  36  51  57  67  78  86
 89 100 113 126 121 109 108 111 113 113 117 118 111 106 105 101  98  91  86  78  66  59  56  48
 34  27  21  16  12  11   8   3   1   1   1   1   1   1   0   0   1   1   1   1   1   1   1   1
  1   0   0   0   0   0   0   0   1   0   0   0   0   0   0   0   0   0   0   0   0   0   0   0
  0   0   0   0
  0   0   0   0   0   0   0   0   0   0   0   0   0   0   0   0   1   0  11  33  38  46  55  61
 66  71  81  92 103 105  94  91  95  96  97  99  95  91  88  83  81  74  69  65  59  54  41  29
 24  18  14  11  10   7   2   1   1   1   1   1   1   1   0   0   1   1   1   1   1   1   1   1
  1   0   0   0   0   0   0   0   1   0   0   0   0   0   0   0   0   0   0   0   0   0   0   0
  0   0   0   0
  0   0   0   0   0   0   0   0   0   0   0   0   0   0   0   1   0   7  37  20  25  30  33  41
 47  50  58  63  67  82  88  81  79  76  75  73  71  74  67  64  62  55  49  43  37  29  22  19
 15  11  10   8   5   1   1   1   1   1   1   1   1   1   1   1   1   1   1   1   1   1   0   1
  1   0   0   0   0   0   0   0   1   0   0   0   0   0   0   0   0   0   0   0   0   0   0   0
  0   0   0   0
  0   0   0   0   0   0   0   0   0   0   0   0   0   0   0   1   0   6  42  19  14  19  21  25
 30  36  39  40  42  48  61  65  63  64  61  61  59  56  52  47  40  36  33  26  21  18  16  13
 11   9   7   3   1   1   1   1   1   1   1   1   1   1   1   1   1   1   1   1   1   1   1   1
  1   0   0   0   0   0   0   0   1   0   0   0   0   0   0   0   0   0   0   0   0   0   0   0
  0   0   0   0
  0   0   0   0   0   0   0   0   0   0   0   0   0   0   0   0   0   0   3   7   8  13  14  16
 18  22  25  29  30  30  32  38  44  43  41  42  43  42  36  31  26  23  20  17  15  13  11   9
  7   5   2   1   1   1   1   1   1   1   1   1   1   1   0   0   1   1   1   1   1   0   0   1
  1   0   0   0   0   0   0   0   1   0   0   0   0   0   0   0   0   0   0   0   0   0   0   0
  0   0   0   0
  0   0   0   0   0   0   0   0   0   0   0   0   0   0   0   0   0   0  10   7   2   5   9  10
 12  14  15  17  20  21  21  20  23  24  22  21  22  25  23  19  16  15  13  12  10   9   7   5
  3   1   1   1   1   1   1   1   1   1   1   1   1   0   0   0   1   1   1   1   1   0   0   1
  1   0   0   0   0   0   0   0   1   1   0   0   0   0   0   0   0   0   0   0   0   0   0   0
  0   0   0   0
  0   0   0   0   0   0   0   0   0   0   0   0   0   0   0   0   0   0  13  10   3   2   3   5
  7   9  10  11  12  13  14  15  15  15  15  15  14  13  13  12  11  11  10   9   7   5   3   1
  1   2   1   1   1   1   1   1   1   1   1   1   1   0   0   0   0   1   1   1   0   0   1   1
  1   0   0   0   0   0   0   1   1   1   0   0   0   0   0   0   0   0   0   0   0   0   0   0
  0   0   0   0
  0   0   0   0   0   0   0   0   0   0   0   0   0   0   0   0   0   0  16  13   4   2   2   2
  2   3   5   7   8   9   9   9   9   9   9   9   9   9   8   8   9   7   5   4   3   2   1   1
  1   1   1   1   1   1   1   1   1   1   1   1   1   0   0   0   0   0   1   1   0   0   1   1
  1   0   0   0   1   0   0   1   1   1   0   0   0   0   0   0   0   0   0   0   0   0   0   0
  0   0   0   0
