P2
# 8-bit pgm gray
100 100
255
  0   0   0   0   0   0   0   0   0   0   0   0   0   0   0   0   0   0   0   0   0   0  21   0
 68 221 238 232 232 234 235 235 235 232 225 219 214 212 214 210 206 206 205 201 198 197 193 191
190 185 180 174 163 157 143  99  70  54  48  48  44  36  28  22  18  16  13  11  10   9   7   7
  7   7   6   1   0   0   0   0   0   0   0   0   0   0   0   0   0   0   0   0   0   0   0   0
  0   0   0   0
  0   0   0   0   0   0   0   0   0   0   0   0   0   0   0   0   0   0   0   0   0   0  20   0
 68 220 237 231 231 233 235 236 234 231 221 210 206 207 212 211 206 206 205 201 198 196 193 190
187 177 171 166 154 148 125  83  68  55  53  49  43  34  26  21  18  15  12  11   9   8   7   7
  7   6   5   1   0   0   0   0   0   0   0   0   0   0   0   0   0   0   0   0   0   0   0   0
  0   0   0   0
  0   0   0   0   0   0   0   0   0   0   0   0   0   0   0   0   0   0   0   0   0   0  20   0
 67 218 235 229 229 230 234 234 232 226 212 204 205 209 212 213 209 206 201 199 197 193 189 186
179 172 171 162 149 140 103  76  66  58  58  53  43  32  24  20  17  14  12  10   9   7   6   6
  6   6   5   1   0   0   0   0   0   0   0   0   0   0   0   0   0   0   0   0   0   0   0   0
  0   0   0   0
  0   0   0   0   0   0   0   0   0   0   0   0   0   0   0   0   0   0   0   0   0   0  20   0
 67 217 232 227 229 231 233 231 223 214 207 208 207 209 209 211 211 207 202 197 195 193 187 179
173 172 167 157 146 122  88  78  67  60  59  50  40  32  24  20  17  14  12  10   8   7   6   6
  6   6   5   1   0   0   0   0   0   0   0   0   0   0   0   0   0   0   0   0   0   0   0   0
  0   0   0   0
  0   0   0   0   0   0   0   0   0   0   0   0   0   0   0   0   0   0   0   0   0   0  20   0
 67 215 231 227 230 231 231 225 215 208 207 209 206 207 206 206 207 204 202 200 195 189 181 175
172 169 158 148 131 101  85  77  68  64  57  47  36  29  23  19  16  13  11   9   7   6   6   6
  6   6   5   0   0   0   0   0   0   0   0   0   0   0   0   0   0   0   0   0   0   0   0   0
  0   0   0   0
  0   0   0   0   0   0   0   0   0   0   0   0   0   0   0   0   0   0   0   0   0   0  20   0
 67 213 231 228 228 229 228 224 221 216 209 208 206 207 207 205 205 204 202 200 195 184 177 176
170 161 153 137 108  93  87  76  67  61  53  47  36  27  22  18  16  13  10   8   7   6   6   6
  6   6   5   1   0   0   0   0   0   0   0   0   0   0   0   0   0   0   0   0   0   0   0   0
  0   0   0   0
  0   0   0   0   0   0   0   0   0   0   0   0   0   0   0   0   0   0   0   0   0   0  19   0
 65 212 231 227 225 227 226 225 221 217 210 207 207 207 210 206 204 203 203 197 189 184 180 174
170 160 145 119  99  92  84  75  67  61  53  43  32  27  22  18  15  12  10   8   6   5   5   5
  5   5   5   1   0   0   0   0   0   0   0   0   0   0   0   0   0   0   0   0   0   0   0   0
  0   0   0   0
  0   0   0   0   0   0   0   0   0   0   0   0   0   0   0   0   0   0   0   0   0   0  19   0
 64 210 229 224 223 224 223 222 217 213 209 208 206 208 210 206 204 202 198 193 185 180 178 167
164 157 131 105  97  89  81  75  68  61  52  41  31  27  22  17  14  11   9   7   5   5   5   5
  5   5   5   0   0   0   0   0   0   0   0   0   0   0   0   0   0   0   0   0   0   0   0   0
  0   0   0   0
  0   0   0   0   0   0   0   0   0   0   0   0   0   0   0   0   0   0   0   0   0   0  19   0
 64 206 222 221 224 221 216 211 209 208 207 206 204 208 208 204 203 199 193 187 188 181 172 164
157 141 117 106  97  87  81  77  68  57  47  39  32  26  22  17  13  10   8   7   5   5   5   5
  5   5   4   1   0   0   0   0   0   0   0   0   0   0   0   0   0   0   0   0   0   0   0   0
  0   0   0   0
  0   0   0   0   0   0   0   0   0   0   0   0   0   0   0   0   0   0   0   0   0   0  18   0
 62 202 216 215 221 220 211 206 207 207 206 204 207 208 205 205 200 196 190 186 185 183 172 161
152 128 113 110  98  85  81  77  68  58  47  37  31  24  19  15  12   9   8   6   5   5   5   5
  5   5   4   0   0   0   0   0   0   0   0   0   0   0   0   0   0   0   0   0   0   0   0   0
  0   0   0   0
  0   0   0   0   0   0   0   0   0   0   0   0   0   0   0   0   0   0   0   0   0   0  18   0
 62 202 219 214 212 211 208 206 207 207 206 207 208 205 205 206 201 193 189 186 179 174 173 158
137 123 116 107 100  90  81  72  65  56  46  39  31  24  18  13  11   9   7   5   5   5   5   5
  5   5   4   0   0   0   0   0   0   0   0   0   0   0   0   0   0   0   0   0   0   0   0   0
  0   0   0   0
  0   0   0   0   0   0   0   0   0   0   0   0   0   0   0   0   0   0   0   0   0   0  18   0
 62 203 218 212 211 209 206 206 206 206 206 206 203 199 200 201 198 191 188 182 175 167 162 150
130 116 110 106 101  89  78  70  60  50  42  34  27  22  17  12  10   8   6   4   4   5   5   5
  5   5   4   0   0   0   0   0   0   0   0   0   0   0   0   0   0   0   0   0   0   0   0   0
  0   0   0   0
  0   0   0   0   0   0   0   0   0   0   0   0   0   0   0   0   0   0   0   0   0   0  17   0
 60 200 216 212 212 209 206 205 206 206 206 205 202 198 196 197 194 193 186 178 171 163 151 136
133 119 108 107  96  84  79  71  59  49  40  30  25  19  15  11   8   7   5   4   4   4   4   4
  5   4   4   0   0   0   0   0   0   0   0   0   0   0   0   0   0   0   0   0   0   0   0   0
  0   0   0   0
  0   0   0   0   0   0   0   0   0   0   0   0   0   0   0   0   0   0   0   0   0   0  17   0
 59 198 215 210 211 208 208 206 205 205 206 204 200 196 194 196 191 190 185 171 162 156 142 127
124 121 109 101  90  82  74  66  55  45  37  29  22  17  13  10   8   5   4   4   4   4   4   4
  4   4   4   0   0   0   0   0   0   0   0   0   0   0   0   0   0   0   0   0   0   0   0   0
  0   0   0   0
  0   0   0   0   0   0   0   0   0   0   0   0   0   0   0   0   0   0   0   0   0   0  17   0
 60 198 215 209 210 209 208 204 204 206 204 200 196 193 193 193 189 186 180 167 158 146 132 125
121 118 109  97  88  78  68  60  51  42  33  25  19  14  11  10   6   4   4   4   4   4   4   4
  4   4   4   0   0   0   0   0   0   0   0   0   0   0   0   0   0   0   0   0   0   0   0   0
  0   0   0   0
  0   0   0   0   0   0   0   0   0   0   0   0   0   0   0   0   0   0   0   0   0   0  17   0
 60 200 216 212 213 209 205 204 203 206 205 198 193 191 192 189 184 180 174 165 150 130 122 117
110 103 102  98  87  75  65  56  46  37  28  21  16  13  11   7   4   3   4   4   4   4   4   4
  4   4   4   0   0   0   0   0   0   0   0   0   0   0   0   0   0   0   0   0   0   0   0   0
  0   0   0   0
  0   0   0   0   0   0   0   0   0   0   0   0   0   0   0   0   0   0   0   0   0   0  18   0
 61 200 217 213 214 210 207 206 205 203 200 199 194 190 190 187 180 176 173 163 139 119 114 104
 95  89  87  90  80  66  62  53  40  31  26  20  15  12   9   5   3   3   4   4   4   4   4   4
  4   4   4   0   0   0   0   0   0   0   0   0   0   0   0   0   0   0   0   0   0   0   0   0
  0   0   0   0
  0   0   0   0   0   0   0   0   0   0   0   0   0   0   0   0   0   0   0   0   0   0  18   0
 61 201 216 210 213 209 207 207 206 201 196 194 192 192 188 183 179 176 168 151 125 111 106  98
 91  83  79  83  73  59  53  43  35  27  20  14  10   8   6   4   3   3   3   3   4   4   4   4
  4   4   3   0   0   0   0   0   0   0   0   0   0   0   0   0   0   0   0   0   0   0   0   0
  0   0   0   0
  0   0   0   0   0   0   0   0   0   0   0   0   0   0   0   0   0   0   0   0   0   0  18   0
 60 202 218 209 211 209 208 207 205 200 197 198 197 192 190 185 179 171 156 139 123 115 108 105
 97  91  84  77  69  53  41  31  24  16  12  10   8   8   6   4   3   3   3   3   3   4   4   4
  4   4   3   0   0   0   0   0   0   0   0   0   0   0   0   0   0   0   0   0   0   0   0   0
  0   0   0   0
  0   0   0   0   0   0   0   0   0   0   0   0   0   0   0   0   0   0   0   0   0   0  18   0
 61 203 218 210 210 210 210 208 204 199 198 203 203 197 193 187 183 171 153 143 127 111 102  93
 80  71  60  49  41  31  23  18  15  13  12  10   8   7   6   5   3   3   3   3   3   4   4   4
  4   3   3   0   0   0   0   0   0   0   0   0   0   0   0   0   0   0   0   0   0   0   0   0
  0   0   0   0
  0   0   0   0   0   0   0   0   0   0   0   0   0   0   0   0   0   0   0   0   0   0  18   0
 62 204 217 208 209 209 208 204 201 198 198 198 196 197 191 183 171 153 133 123 114  95  81  72
 63  50  41  39  33  27  25  21  16  14  12  10   8   6   6   4   3   3   3   3   3   4   4   4
  4   3   3   0   0   0   0   0   0   0   0   0   0   0   0   0   0   0   0   0   0   0   0   0
  0   0   0   0
  0   0   0   0   0   0   0   0   0   0   0   0   0   0   0   0   0   0   0   0   0   0  18   0
 62 203 217 209 211 211 206 200 196 198 198 195 192 191 187 176 155 133 118 113 105  93  82  75
 68  56  49  43  36  30  26  22  19  16  13  11   9   7   6   5   3   3   3   3   3   3   3   3
  3   3   3   0   0   0   0   0   0   0   0   0   0   0   0   0   0   0   0   0   0   0   0   0
  0   0   0   0
  0   0   0   0   0   0   0   0   0   0   0   0   0   0   0   0   0   0   0   0   0   0  18   0
 63 202 218 213 211 209 204 195 191 194 196 196 194 190 184 172 152 129 120 113 104  97  87  78
 71  67  59  48  40  34  29  24  20  18  15  12  10   8   7   5   3   3   3   3   3   3   3   3
  3   3   3   0   0   0   0   0   0   0   0   0   0   0   0   0   0   0   0   0   0   0   0   0
  0   0   0   0
  0   0   0   0   0   0   0   0   0   0   0   0   0   0   0   0   0   0   0   0   0   0  18   0
 62 203 220 211 208 206 200 193 194 195 194 196 194 190 178 161 146 135 127 121 114 105  96  87
 82  76  62  53  43  34  29  26  22  18  15  13  10   9   7   6   4   3   3   3   3   4   3   3
  3   3   3   0   0   0   0   0   0   0   0   0   0   0   0   0   0   0   0   0   0   0   0   0
  0   0   0   0
  0   0   0   0   0   0   0   0   0   0   0   0   0   0   0   0   0   0   0   0   0   0  18   0
 60 204 221 211 209 205 197 193 192 192 190 187 189 189 174 158 147 143 137 134 127 115 105  99
 92  80  65  56  48  41  32  26  23  19  16  13  11   9   8   6   5   3   3   3   3   3   3   3
  3   3   3   0   0   0   0   0   0   0   0   0   0   0   0   0   0   0   0   0   0   0   0   0
  0   0   0   0
  0   0   0   0   0   0   0   0   0   0   0   0   0   0   0   0   0   0   0   0   0   0  18   0
 61 205 221 212 211 204 199 194 190 188 189 189 188 184 171 151 139 139 139 133 123 116 110 102
 96  88  76  63  53  46  41  31  24  21  18  15  12  10   8   7   5   3   3   3   3   3   3   3
  3   3   3   0   0   0   0   0   0   0   0   0   0   0   0   0   0   0   0   0   0   0   0   0
  0   0   0   0
  0   0   0   0   0   0   0   0   0   0   0   0   0   0   0   0   0   0   0   0   0   0  18   0
 63 204 217 209 205 202 198 191 191 187 185 186 181 172 157 139 132 137 135 129 120 115 110 103
 96  87  77  66  58  49  42  35  28  23  20  18  14  11   9   7   6   4   3   3   3   3   3   3
  3   3   3   0   0   0   0   0   0   0   0   0   0   0   0   0   0   0   0   0   0   0   0   0
  0   0   0   0
  0   0   0   0   0   0   0   0   0   0   0   0   0   0   0   0   0   0   0   0   0   0  18   0
 63 203 216 207 203 204 199 189 187 185 179 178 175 159 144 138 137 133 128 126 120 116 113 105
 99  92  81  73  62  50  42  36  30  26  22  19  15  12  10   8   6   5   3   2   3   3   3   3
  3   3   2   0   0   0   0   0   0   0   0   0   0   0   0   0   0   0   0   0   0   0   0   0
  0   0   0   0
  0   0   0   0   0   0   0   0   0   0   0   0   0   0   0   0   0   0   0   0   0   0  18   0
 62 201 216 206 204 199 194 190 186 183 179 178 168 151 140 138 134 127 123 122 120 118 114 110
104  95  86  76  65  55  46  38  32  27  23  20  16  13  10   9   6   5   4   3   3   3   3   3
  3   3   2   0   0   0   0   0   0   0   0   0   0   0   0   0   0   0   0   0   0   0   0   0
  0   0   0   0
  0   0   0   0   0   0   0   0   0   0   0   0   0   0   0   0   0   0   0   0   0   0  17   0
 59 200 212 202 200 190 189 187 185 182 184 173 154 141 136 136 130 128 128 126 122 121 117 112
105  95  86  77  67  58  51  43  35  29  25  20  18  14  12   9   7   6   5   3   3   3   3   3
  3   3   2   0   0   0   0   0   0   0   0   0   0   0   0   0   0   0   0   0   0   0   0   0
  0   0   0   0
  0   0   0   0   0   0   0   0   0   0   0   0   0   0   0   0   0   0   0   0   0   0  17   0
 60 196 209 200 195 192 191 190 187 185 182 165 146 139 136 132 128 125 124 121 119 116 113 110
106  99  89  80  71  62  55  48  40  33  28  23  18  15  13  10   8   6   5   3   2   3   3   3
  3   3   2   0   0   0   0   0   0   0   0   0   0   0   0   0   0   0   0   0   0   0   0   0
  0   0   0   0
  0   0   0   0   0   0   0   0   0   0   0   0   0   0   0   0   0   0   0   0   0   0  17   0
 61 194 208 198 191 194 192 191 188 183 173 155 143 142 138 133 130 128 126 121 120 115 112 108
106 101  93  86  78  68  61  54  46  39  31  26  20  17  14  11   8   7   6   4   2   3   3   3
  3   2   2   0   0   0   0   0   0   0   0   0   0   0   0   0   0   0   0   0   0   0   0   0
  0   0   0   0
  0   0   0   0   0   0   0   0   0   0   0   0   0   0   0   0   0   0   0   0   0   0  16   0
 58 187 202 193 188 188 190 192 189 182 163 145 140 137 133 133 132 130 130 123 120 116 115 112
109 104  98  93  84  76  69  57  49  44  36  28  24  20  15  12   9   8   6   4   3   3   3   3
  3   2   2   0   0   0   0   0   0   0   0   0   0   0   0   0   0   0   0   0   0   0   0   0
  0   0   0   0
  0   0   0   0   0   0   0   0   0   0   0   0   0   0   0   0   0   0   0   0   0   0  15   0
 54 184 198 191 191 188 184 180 179 171 154 141 140 133 132 130 126 125 124 122 119 113 113 114
112 106 101 101  95  82  74  65  53  45  39  31  27  23  17  13  11   9   7   5   3   2   2   2
  3   2   2   0   0   0   0   0   0   0   0   0   0   0   0   0   0   0   0   0   0   0   0   0
  0   0   0   0
  0   0   0   0   0   0   0   0   0   0   0   0   0   0   0   0   0   0   0   0   0   0  15   0
 54 183 195 190 190 186 181 176 170 159 150 146 142 135 135 134 132 130 127 124 118 115 112 112
114 110 105 101  99  96  85  73  62  52  41  35  30  25  19  15  12  10   7   5   4   3   3   2
  3   3   2   0   0   0   0   0   0   0   0   0   0   0   0   0   0   0   0   0   0   0   0   0
  0   0   0   0
  0   0   0   0   0   0   0   0   0   0   0   0   0   0   0   0   0   0   0   0   0   0  15   0
 56 183 195 188 185 182 177 173 168 157 145 141 140 137 135 136 138 136 130 126 120 116 114 113
113 114 113 105  95 103 102  82  72  64  50  40  34  28  23  17  14  11   8   6   5   3   3   3
  3   2   2   0   0   0   0   0   0   0   0   0   0   0   0   0   0   0   0   0   0   0   0   0
  0   0   0   0
  0   0   0   0   0   0   0   0   0   0   0   0   0   0   0   0   0   0   0   0   0   0  15   0
 55 183 197 191 185 178 172 171 168 154 142 135 137 139 142 140 143 144 133 125 122 121 117 118
119 118 112 105 104 106 106  96  85  76  63  48  38  31  27  20  16  13  10   7   5   4   3   3
  3   3   2   0   0   0   0   0   0   0   0   0   0   0   0   0   0   0   0   0   0   0   0   0
  0   0   0   0
  0   0   0   0   0   0   0   0   0   0   0   0   0   0   0   0   0   0   0   0   0   0  15   0
 53 181 194 188 186 176 166 163 157 149 141 143 141 136 141 144 146 153 150 140 126 125 126 118
120 120 117 109 114 122 108 104  95  77  64  54  44  36  30  22  17  14  11   8   6   4   3   3
  3   3   2   0   0   0   0   0   0   0   0   0   0   0   0   0   0   0   0   0   0   0   0   0
  0   0   0   0
  0   0   0   0   0   0   0   0   0   0   0   0   0   0   0   0   0   0   0   0   0   0  15   0
 57 182 191 184 180 170 163 155 151 145 137 141 143 137 138 139 141 151 159 152 142 133 142 131
120 120 120 121 127 133 118 104  96  82  68  57  47  38  33  25  18  14  11   9   7   5   3   2
  3   3   2   0   0   0   0   0   0   0   0   0   0   0   0   0   0   0   0   0   0   0   0   0
  0   0   0   0
  0   0   0   0   0   0   0   0   0   0   0   0   0   0   0   0   0   0   0   0   0   0  16   0
 58 184 194 184 176 169 160 152 147 140 136 136 138 136 138 142 142 144 160 167 165 155 152 148
133 125 125 133 135 138 131 117 103  90  74  59  48  40  34  28  20  15  12   9   7   6   4   3
  3   2   2   0   0   0   0   0   0   0   0   0   0   0   0   0   0   0   0   0   0   0   0   0
  0   0   0   0
  0   0   0   0   0   0   0   0   0   0   0   0   0   0   0   0   0   0   0   0   0   0  15   0
 57 184 193 180 176 168 156 148 145 137 135 136 136 137 136 135 137 137 158 189 190 185 179 165
152 140 129 128 136 144 145 142 138 123  96  66  52  43  36  34  24  17  14  11   8   6   4   2
  2   2   2   0   0   0   0   0   0   0   0   0   0   0   0   0   0   0   0   0   0   0   0   0
  0   0   0   0
  0   0   0   0   0   0   0   0   0   0   0   0   0   0   0   0   0   0   0   0   0   0  15   0
 55 179 189 178 176 170 157 148 141 138 138 132 134 138 133 129 133 142 176 196 201 197 190 180
170 160 144 138 145 155 161 162 166 156 130  92  61  47  39  36  28  19  16  12   9   7   5   3
  2   2   2   0   0   0   0   0   0   0   0   0   0   0   0   0   0   0   0   0   0   0   0   0
  0   0   0   0
  0   0   0   0   0   0   0   0   0   0   0   0   0   0   0   0   0   0   0   0   0   0  14   0
 52 175 186 175 173 167 159 151 139 140 143 135 136 138 137 136 139 157 189 199 205 208 196 188
178 164 164 167 164 162 177 177 169 168 157 121  76  50  41  36  31  21  16  12   9   7   5   3
  2   2   2   0   0   0   0   0   0   0   0   0   0   0   0   0   0   0   0   0   0   0   0   0
  0   0   0   0
  0   0   0   0   0   0   0   0   0   0   0   0   0   0   0   0   0   0   0   0   0   0  14   0
 53 175 185 174 171 165 159 153 141 139 145 141 138 139 140 139 156 178 194 206 211 215 210 199
186 173 174 176 182 182 183 185 172 169 167 148 102  60  48  40  33  22  18  14  10   8   6   4
  2   2   2   0   0   0   0   0   0   0   0   0   0   0   0   0   0   0   0   0   0   0   0   0
  0   0   0   0
  0   0   0   0   0   0   0   0   0   0   0   0   0   0   0   0   0   0   0   0   0   0  14   0
 53 173 184 174 170 167 164 153 141 138 147 147 141 144 144 145 168 185 202 212 214 217 219 214
204 190 184 177 184 194 195 199 189 181 174 159 128  80  50  43  37  26  20  15  12   9   6   4
  2   2   2   0   0   0   0   0   0   0   0   0   0   0   0   0   0   0   0   0   0   0   0   0
  0   0   0   0
  0   0   0   0   0   0   0   0   0   0   0   0   0   0   0   0   0   0   0   0   0   0  14   0
 52 173 185 174 170 169 165 150 140 144 147 148 146 146 152 164 178 191 204 213 218 218 222 222
219 209 204 203 202 204 210 211 206 199 188 168 147 109  65  50  44  32  23  17  13  10   7   5
  3   2   2   0   0   0   0   0   0   0   0   0   0   0   0   0   0   0   0   0   0   0   0   0
  0   0   0   0
  0   0   0   0   0   0   0   0   0   0   0   0   0   0   0   0   0   0   0   0   0   0  14   0
 52 173 186 176 171 171 164 150 141 143 144 147 153 149 160 183 194 200 208 216 220 222 221 222
221 219 212 212 216 215 218 213 208 197 183 177 171 146 102  62  49  34  25  19  14  10   8   5
  3   2   2   0   0   0   0   0   0   0   0   0   0   0   0   0   0   0   0   0   0   0   0   0
  0   0   0   0
  0   0   0   0   0   0   0   0   0   0   0   0   0   0   0   0   0   0   0   0   0   0  14   0
 56 176 185 173 168 170 163 146 143 141 138 142 147 149 165 188 195 201 212 217 220 223 223 222
219 221 216 209 217 223 218 211 206 194 183 184 183 175 142  67  47  38  26  20  15  11   8   6
  4   2   2   0   0   0   0   0   0   0   0   0   0   0   0   0   0   0   0   0   0   0   0   0
  0   0   0   0
  0   0   0   0   0   0   0   0   0   0   0   0   0   0   0   0   0   0   0   0   0   0  15   0
 53 181 191 177 170 169 162 144 142 141 138 142 143 147 163 187 192 198 207 215 220 225 226 223
221 220 219 217 224 228 221 215 209 206 194 184 181 176 161  97  46  43  28  22  17  13   9   6
  5   2   2   0   0   0   0   0   0   0   0   0   0   0   0   0   0   0   0   0   0   0   0   0
  0   0   0   0
  0   0   0   0   0   0   0   0   0   0   0   0   0   0   0   0   0   0   0   0   0   0  14   0
 52 176 189 180 176 175 165 146 143 147 145 147 143 146 153 178 195 196 201 209 217 224 224 221
226 227 223 223 226 229 225 222 216 210 197 191 186 175 167 126  54  44  33  25  18  13  10   7
  5   3   1   0   0   0   0   0   0   0   0   0   0   0   0   0   0   0   0   0   0   0   0   0
  0   0   0   0
  0   0   0   0   0   0   0   0   0   0   0   0   0   0   0   0   0   0   0   0   0   0  14   0
 54 175 186 177 176 179 171 157 153 155 150 146 141 143 149 160 186 196 201 205 212 222 222 220
224 224 225 227 225 228 226 225 219 214 201 192 187 180 175 150  82  41  38  26  19  15  11   8
  6   4   1   0   0   0   0   0   0   0   0   0   0   0   0   0   0   0   0   0   0   0   0   0
  0   0   0   0
  0   0   0   0   0   0   0   0   0   0   0   0   0   0   0   0   0   0   0   0   0   0  14   0
 52 173 185 176 174 181 171 165 163 165 161 156 151 147 150 158 171 181 190 198 206 218 222 223
226 223 225 226 224 224 225 225 220 216 208 191 181 179 181 164 122  58  39  30  22  17  13   9
  7   4   2   0   0   0   0   0   0   0   0   0   0   0   0   0   0   0   0   0   0   0   0   0
  0   0   0   0
  0   0   0   0   0   0   0   0   0   0   0   0   0   0   0   0   0   0   0   0   0   0  13   0
 52 170 181 176 174 175 173 159 153 153 157 159 158 154 160 164 169 176 182 191 202 214 218 223
225 223 222 223 225 219 222 222 216 214 209 194 187 187 181 168 144  86  38  35  25  19  14  10
  7   5   2   0   0   0   0   0   0   0   0   0   0   0   0   0   0   0   0   0   0   0   0   0
  0   0   0   0
  0   0   0   0   0   0   0   0   0   0   0   0   0   0   0   0   0   0   0   0   0   0  13   0
 52 170 182 174 171 170 167 163 155 153 149 153 163 163 166 175 182 191 194 197 206 216 222 223
224 222 224 224 225 223 225 224 218 219 215 209 196 192 186 167 154 109  43  38  29  20  14  10
  8   6   2   0   0   0   0   0   0   0   0   0   0   0   0   0   0   0   0   0   0   0   0   0
  0   0   0   0
  0   0   0   0   0   0   0   0   0   0   0   0   0   0   0   0   0   0   0   0   0   0  13   0
 51 169 179 170 164 168 167 163 160 158 155 153 159 166 170 179 190 199 194 203 210 213 222 225
223 222 219 223 226 229 228 226 224 222 218 213 205 194 190 176 161 137  64  34  35  21  16  11
  8   6   3   0   0   0   0   0   0   0   0   0   0   0   0   0   0   0   0   0   0   0   0   0
  0   0   0   0
  0   0   0   0   0   0   0   0   0   0   0   0   0   0   0   0   0   0   0   0   0   0  13   0
 51 171 180 167 163 159 161 164 163 159 160 161 165 172 177 177 183 201 196 205 214 212 215 217
217 222 218 218 225 227 223 223 223 216 214 212 208 196 190 181 159 153 105  30  34  23  16  13
  9   6   3   0   0   0   0   0   0   0   0   0   0   0   0   0   0   0   0   0   0   0   0   0
  0   0   0   0
  0   0   0   0   0   0   0   0   0   0   0   0   0   0   0   0   0   0   0   0   0   0  13   0
 50 170 182 173 166 162 161 159 159 158 163 168 174 179 182 184 183 202 202 197 211 216 215 216
219 223 223 218 225 227 223 219 217 212 213 216 209 200 195 185 166 160 130  62  27  26  17  14
  9   6   4   0   0   0   0   0   0   0   0   0   0   0   0   0   0   0   0   0   0   0   0   0
  0   0   0   0
  0   0   0   0   0   0   0   0   0   0   0   0   0   0   0   0   0   0   0   0   0   0  13   0
 48 167 182 173 172 174 170 162 161 159 161 170 180 190 188 187 192 198 201 197 208 211 213 220
226 227 225 223 225 227 228 221 214 217 219 218 207 199 207 198 176 169 145  89  32  27  20  14
  9   7   4   0   0   0   0   0   0   0   0   0   0   0   0   0   0   0   0   0   0   0   0   0
  0   0   0   0
  0   0   0   0   0   0   0   0   0   0   0   0   0   0   0   0   0   0   0   0   0   0  14   0
 50 174 187 174 170 176 172 163 164 166 161 162 174 186 188 184 191 195 193 201 203 202 211 215
221 226 226 225 222 221 223 226 224 224 221 218 213 195 202 206 180 162 153 123  57  18  22  13
 10   7   5   0   0   0   0   0   0   0   0   0   0   0   0   0   0   0   0   0   0   0   0   0
  0   0   0   0
  0   0   0   0   0   0   0   0   0   0   0   0   0   0   0   0   0   0   0   0   0   0  13   0
 49 168 183 177 177 182 182 172 169 166 164 166 169 175 183 184 183 194 196 194 198 202 205 211
215 220 224 223 222 218 222 226 225 224 220 214 213 202 197 207 191 156 147 130  76  22  19  13
 10   8   5   0   0   0   0   0   0   0   0   0   0   0   0   0   0   0   0   0   0   0   0   0
  0   0   0   0
  0   0   0   0   0   0   0   0   0   0   0   0   0   0   0   0   0   0   0   0   0   0  12   0
 49 163 174 169 172 187 189 184 187 181 179 173 168 177 181 186 194 198 204 200 192 195 201 201
206 212 220 220 223 216 217 222 221 224 225 218 214 209 201 198 196 168 139 111  71  37  19  14
 10   8   5   0   0   0   0   0   0   0   0   0   0   0   0   0   0   0   0   0   0   0   0   0
  0   0   0   0
  0   0   0   0   0   0   0   0   0   0   0   0   0   0   0   0   0   0   0   0   0   0  12   0
 49 162 173 165 168 175 175 167 173 177 183 182 173 179 190 193 200 210 211 204 194 195 203 195
195 202 207 213 216 215 211 212 211 217 226 225 220 213 203 187 187 164 132 105  69  37  21  16
 11   8   5   0   0   0   0   0   0   0   0   0   0   0   0   0   0   0   0   0   0   0   0   0
  0   0   0   0
  0   0   0   0   0   0   0   0   0   0   0   0   0   0   0   0   0   0   0   0   0   0  12   0
 48 159 170 166 168 173 171 157 155 164 167 178 190 196 201 202 204 212 214 206 201 199 194 193
196 205 205 208 205 205 207 203 208 215 222 224 221 214 206 192 182 154 127 109  76  37  22  15
 12   8   5   0   0   0   0   0   0   0   0   0   0   0   0   0   0   0   0   0   0   0   0   0
  0   0   0   0
  0   0   0   0   0   0   0   0   0   0   0   0   0   0   0   0   0   0   0   0   0   0  12   0
 46 160 169 164 164 171 169 160 159 171 172 176 189 197 205 209 211 212 214 209 209 206 197 197
198 203 205 204 198 199 204 200 206 220 221 224 219 215 212 197 178 154 127 113  81  38  26  15
 11  10   6   0   0   0   0   0   0   0   0   0   0   0   0   0   0   0   0   0   0   0   0   0
  0   0   0   0
  0   0   0   0   0   0   0   0   0   0   0   0   0   0   0   0   0   0   0   0   0   0  11   0
 45 155 168 167 167 167 171 170 168 176 186 186 186 191 201 210 212 209 210 212 214 209 207 208
204 205 202 203 197 201 206 202 206 220 221 223 215 215 214 194 170 153 127 112  86  42  27  17
 12  11   5   0   0   0   0   0   0   0   0   0   0   0   0   0   0   0   0   0   0   0   0   0
  0   0   0   0
  0   0   0   0   0   0   0   0   0   0   0   0   0   0   0   0   0   0   0   0   0   0  11   0
 45 158 173 172 171 165 162 169 169 174 185 185 188 190 198 202 204 206 205 209 212 212 212 212
216 214 207 202 204 208 206 199 203 212 214 217 211 207 209 195 171 144 117  95  80  54  27  17
 13  11   5   0   0   0   0   0   0   0   0   0   0   0   0   0   0   0   0   0   0   0   0   0
  0   0   0   0
  0   0   0   0   0   0   0   0   0   0   0   0   0   0   0   0   0   0   0   0   0   0  12   0
 48 163 176 172 172 170 164 158 157 161 167 169 179 191 204 208 206 210 209 211 210 209 207 205
207 214 213 202 204 211 212 204 201 203 212 215 212 210 208 196 181 154 113  89  74  57  34  20
 14  11   4   0   0   0   0   0   0   0   0   0   0   0   0   0   0   0   0   0   0   0   0   0
  0   0   0   0
  0   0   0   0   0   0   0   0   0   0   0   0   0   0   0   0   0   0   0   0   0   0  11   0
 43 161 180 175 175 174 168 155 152 155 161 166 173 184 195 202 210 215 213 211 211 211 208 206
195 194 208 211 205 207 216 217 213 208 209 214 210 205 208 199 185 180 149  94  79  68  49  25
 15  11   3   0   0   0   0   0   0   0   0   0   0   0   0   0   0   0   0   0   0   0   0   0
  0   0   0   0
  0   0   0   0   0   0   0   0   0   0   0   0   0   0   0   0   0   0   0   0   0   0  10   0
 41 154 175 175 173 172 170 163 155 159 162 168 175 181 190 196 206 213 218 212 209 208 204 206
201 190 197 209 208 210 211 213 217 217 210 213 211 202 201 199 186 171 139  87  75  75  58  25
 16  11   3   0   0   0   0   0   0   0   0   0   0   0   0   0   0   0   0   0   0   0   0   0
  0   0   0   0
  0   0   0   0   0   0   0   0   0   0   0   0   0   0   0   0   0   0   0   0   0   0  11   0
 45 154 168 168 168 167 170 165 160 161 166 162 170 188 197 201 207 211 214 211 209 204 198 194
191 196 196 198 207 215 213 211 215 216 208 208 208 204 203 198 189 156 123  91  60  55  45  28
 19   9   3   0   0   0   0   0   0   0   0   0   0   0   0   0   0   0   0   0   0   0   0   0
  0   0   0   0
  0   0   0   0   0   0   0   0   0   0   0   0   0   0   0   0   0   0   0   0   0   0  11   0
 46 158 167 163 163 163 173 163 156 161 167 165 164 190 204 208 211 210 206 201 201 200 205 205
198 201 201 199 209 215 211 210 211 208 209 204 190 187 195 189 170 145 115  83  60  54  40  26
 18   7   3   0   0   0   0   0   0   0   0   0   0   0   0   0   0   0   0   0   0   0   0   0
  0   0   0   0
  0   0   0   0   0   0   0   0   0   0   0   0   0   0   0   0   0   0   0   0   0   0  12   0
 47 160 170 165 172 170 176 178 163 162 169 173 175 189 210 213 216 209 205 201 197 202 208 214
213 209 202 201 203 198 192 203 209 210 210 199 185 181 174 165 153 132 108  86  79  62  38  25
 15   5   2   0   0   0   0   0   0   0   0   0   0   0   0   0   0   0   0   0   0   0   0   0
  0   0   0   0
  0   0   0   0   0   0   0   0   0   0   0   0   0   0   0   0   0   0   0   0   0   0  12   0
 48 161 168 163 172 176 173 191 195 180 178 180 184 193 208 210 214 213 208 206 200 202 206 211
210 202 198 191 190 192 187 192 200 206 209 202 192 175 160 152 139 123 105  97  81  51  35  26
 12   4   3   0   0   0   0   0   0   0   0   0   0   0   0   0   0   0   0   0   0   0   0   0
  0   0   0   0
  0   0   0   0   0   0   0   0   0   0   0   0   0   0   0   0   0   0   0   0   0   0  12   0
 48 165 175 166 160 168 169 184 210 204 194 193 194 196 206 209 206 210 212 207 197 200 208 205
198 198 202 197 190 192 197 193 186 185 193 191 187 162 147 137 121 107  85  74  68  50  33  21
 10   6   4   0   0   0   0   0   0   0   0   0   0   0   0   0   0   0   0   0   0   0   0   0
  0   0   0   0
  0   0   0   0   0   0   0   0   0   0   0   0   0   0   0   0   0   0   0   0   0   0  11   0
 44 155 170 171 168 161 168 166 189 204 202 190 181 185 200 208 210 216 214 211 204 201 208 202
194 195 192 199 200 189 196 194 188 186 189 180 166 160 144 114  96  86  75  62  56  47  29  16
  9   6   5   0   0   0   0   0   0   0   0   0   0   0   0   0   0   0   0   0   0   0   0   0
  0   0   0   0
  0   0   0   0   0   0   0   0   0   0   0   0   0   0   0   0   0   0   0   0   0   0  10   0
 43 152 161 157 169 163 161 156 171 194 193 192 188 179 186 199 206 216 220 221 215 212 211 202
198 200 198 198 198 188 189 193 194 188 189 177 152 137 120  94  74  62  59  56  50  35  20  12
  8   6   5   0   0   0   0   0   0   0   0   0   0   0   0   0   0   0   0   0   0   0   0   0
  0   0   0   0
  0   0   0   0   0   0   0   0   0   0   0   0   0   0   0   0   0   0   0   0   0   0  11   0
 45 154 166 160 162 159 160 154 159 191 197 195 204 200 189 193 199 206 214 218 216 220 215 203
203 204 198 197 195 190 197 200 195 191 175 146 131 115  95  77  68  55  44  51  44  27  15   9
  9   7   5   1   0   0   0   0   0   0   0   0   0   0   0   0   0   0   0   0   0   0   0   0
  0   0   0   0
  0   0   0   0   0   0   0   0   0   0   0   0   0   0   0   0   0   0   0   0   0   0  11   0
 46 156 174 167 154 158 165 161 154 172 191 199 205 212 207 201 197 194 204 206 206 210 210 205
206 204 206 211 209 205 197 195 191 178 158 142 136 117  87  61  48  42  43  49  36  20  11   8
  7   6   4   0   0   0   0   0   0   0   0   0   0   0   0   0   0   0   0   0   0   0   0   0
  0   0   0   0
  0   0   0   0   0   0   0   0   0   0   0   0   0   0   0   0   0   0   0   0   0   0  11   0
 43 155 167 159 155 154 160 168 168 171 180 192 199 202 206 209 205 198 197 199 204 203 203 201
204 206 210 211 205 201 197 195 188 172 157 144 133 111  77  55  41  36  46  45  26  12   8   6
  5   5   4   0   0   0   0   0   0   0   0   0   0   0   0   0   0   0   0   0   0   0   0   0
  0   0   0   0
  0   0   0   0   0   0   0   0   0   0   0   0   0   0   0   0   0   0   0   0   0   0  10   0
 43 150 159 150 155 153 152 167 183 189 193 198 197 196 190 197 202 197 200 203 209 210 211 208
205 207 205 208 210 204 209 202 180 168 143 119 112 105  84  59  45  38  38  31  17   7   5   5
  5   4   3   0   0   0   0   0   0   0   0   0   0   0   0   0   0   0   0   0   0   0   0   0
  0   0   0   0
  0   0   0   0   0   0   0   0   0   0   0   0   0   0   0   0   0   0   0   0   0   0  10   0
 43 146 156 151 151 150 158 169 185 194 197 200 191 188 183 183 192 192 198 206 211 209 205 205
202 203 207 211 213 206 201 189 171 160 147 124 103  94  78  54  40  32  29  22  10   4   4   4
  4   3   3   0   0   0   0   0   0   0   0   0   0   0   0   0   0   0   0   0   0   0   0   0
  0   0   0   0
  0   0   0   0   0   0   0   0   0   0   0   0   0   0   0   0   0   0   0   0   0   0  10   0
 42 149 157 153 150 144 151 165 176 181 190 193 185 174 177 179 183 187 192 197 206 209 195 189
196 203 206 204 197 194 190 182 171 166 154 128 101  87  66  49  39  30  24  15   6   3   3   3
  3   3   3   0   0   0   0   0   0   0   0   0   0   0   0   0   0   0   0   0   0   0   0   0
  0   0   0   0
  0   0   0   0   0   0   0   0   0   0   0   0   0   0   0   0   0   0   0   0   0   0  11   0
 45 151 162 158 155 146 151 167 180 186 187 191 193 179 171 169 171 171 176 188 195 203 197 173
181 193 191 194 191 181 179 176 158 139 129 111  88  66  50  41  32  26  18   7   3   3   3   3
  3   3   3   0   0   0   0   0   0   0   0   0   0   0   0   0   0   0   0   0   0   0   0   0
  0   0   0   0
  0   0   0   0   0   0   0   0   0   0   0   0   0   0   0   0   0   0   0   0   0   0  10   0
 44 150 164 159 162 156 160 176 181 184 186 186 189 184 167 153 156 161 167 178 181 190 200 184
177 179 179 187 181 167 168 165 138 109  98  83  63  47  33  25  23  17  10   3   2   3   3   3
  3   3   3   0   0   0   0   0   0   0   0   0   0   0   0   0   0   0   0   0   0   0   0   0
  0   0   0   0
  0   0   0   0   0   0   0   0   0   0   0   0   0   0   0   0   0   0   0   0   0   0   9   0
 40 140 157 152 155 159 154 162 165 167 173 178 184 181 168 157 152 155 160 169 171 178 189 192
191 188 189 190 184 172 161 151 132 108  83  59  43  35  25  20  17  12   6   2   3   3   3   3
  3   3   2   0   0   0   0   0   0   0   0   0   0   0   0   0   0   0   0   0   0   0   0   0
  0   0   0   0
  0   0   0   0   0   0   0   0   0   0   0   0   0   0   0   0   0   0   0   0   0   0   8   0
 38 132 149 147 145 155 148 148 153 158 160 165 168 175 172 161 159 160 159 160 166 168 174 178
179 183 186 182 178 171 155 128  96  72  62  48  35  25  20  17  13   8   3   2   3   3   3   3
  3   3   2   0   0   0   0   0   0   0   0   0   0   0   0   0   0   0   0   0   0   0   0   0
  0   0   0   0
  0   0   0   0   0   0   0   0   0   0   0   0   0   0   0   0   0   0   0   0   0   0   8   0
 36 131 144 137 135 140 147 147 148 153 152 157 161 161 171 166 158 164 162 151 162 173 172 157
144 147 159 158 151 137 117  91  66  52  46  36  26  18  14  11   9   4   2   2   3   3   3   3
  3   3   3   0   0   0   0   0   0   0   0   0   0   0   0   0   0   0   0   0   0   0   0   0
  0   0   0   0
  0   0   0   0   0   0   0   0   0   0   0   0   0   0   0   0   0   0   0   0   0   0   7   0
 37 129 135 128 132 125 131 146 138 139 143 148 151 145 148 156 156 151 148 153 167 167 147 125
117 111 113 113  98  81  64  50  41  36  29  21  16  12  10   9   5   2   2   2   3   3   3   3
  3   3   3   0   0   0   0   0   0   0   0   0   0   0   0   0   0   0   0   0   0   0   0   0
  0   0   0   0
  0   0   0   0   0   0   0   0   0   0   0   0   0   0   0   0   0   0   0   0   0   0   6   0
 35 117 125 123 120 122 113 124 134 127 128 134 133 130 125 123 135 145 140 151 151 132 113 101
 97  91  79  69  61  57  48  32  25  21  19  15  12  10   9   7   3   2   2   2   2   3   3   3
  3   3   3   0   0   0   0   0   0   0   0   0   0   0   0   0   0   0   0   0   0   0   0   0
  0   0   0   0
  0   0   0   0   0   0   0   0   0   0   0   0   0   0   0   0   0   0   0   0   0   0   6   0
 33 110 117 117 111 112 110 105 117 115 112 113 115 123 124 115 110 134 150 136 116 104  90  78
 69  64  58  53  48  38  32  27  22  19  16  13  10   8   6   4   3   2   2   2   3   3   3   3
  3   3   3   0   0   0   0   0   0   0   0   0   0   0   0   0   0   0   0   0   0   0   0   0
  0   0   0   0
  0   0   0   0   0   0   0   0   0   0   0   0   0   0   0   0   0   0   0   0   0   0   5   0
 28 106 114 107 101 106 105  98 101 110 100  96  94 102 115 116 110 121 137 114  97  82  68  59
 52  46  41  37  33  29  25  22  19  16  13  10   8   7   4   3   3   2   2   3   3   3   3   3
  3   3   3   0   0   0   0   0   0   0   0   0   0   0   0   0   0   0   0   0   0   0   0   0
  0   0   0   0
  0   0   0   0   0   0   0   0   0   0   0   0   0   0   0   0   0   0   0   0   0   0   4   0
 25  97 104  99  95  95  90  86  88 106  98  79  79  78  86  92  95  94  97  95  81  65  60  49
 40  37  33  30  27  23  20  18  17  13  10   8   7   4   3   3   3   2   3   3   3   3   3   3
  3   3   3   0   0   0   0   0   0   0   0   0   0   0   0   0   0   0   0   0   0   0   0   0
  0   0   0   0
  0   0   0   0   0   0   0   0   0   0   0   0   0   0   0   0   0   0   0   0   0   0   4   0
 26  90  93  88  81  71  69  70  70  83  92  74  70  69  66  61  61  63  58  58  62  56  50  43
 34  31  28  25  21  19  16  14  12  10   9   7   4   3   3   3   3   3   3   3   3   3   3   3
  3   3   2   0   0   0   0   0   0   0   0   0   0   0   0   0   0   0   0   0   0   0   0   0
  0   0   0   0
  0   0   0   0   0   0   0   0   0   0   0   0   0   0   0   0   0   0   0   0   0   0   3   0
 18  87  90  74  68  63  59  61  62  61  69  67  62  59  55  51  47  46  46  40  39  41  40  36
 32  26  23  21  18  15  13  11   9   8   7   4   4   4   4   3   3   3   3   3   3   3   3   3
  3   3   2   0   0   0   0   0   0   0   0   0   0   0   0   0   0   0   0   0   0   0   0   0
  0   0   0   0
  0   0   0   0   0   0   0   0   0   0   0   0   0   0   0   0   0   0   0   0   0   0   3   0
 18  76  82  69  62  61  58  56  52  51  49  50  49  49  49  45  41  40  38  36  32  30  29  27
 25  24  20  17  15  12  11   9   9   7   4   4   4   4   4   4   3   3   3   3   3   3   3   3
  3   3   3   0   0   0   0   0   0   0   0   0   0   0   0   0   0   0   0   0   0   0   0   0
  0   0   0   0
  0   0   0   0   0   0   0   0   0   0   0   0   0   0   0   0   0   0   0   0   0   0   5   0
 44  89  66  62  54  52  45  42  39  39  41  41  41  39  40  40  35  33  31  30  27  25  24  22
 20  19  18  14  12  10   9   8   6   5   5   4   4   4   4   4   3   3   3   3   3   3   3   3
  3   3   3   0   0   0   0   0   0   0   0   0   0   0   0   0   0   0   0   0   0   0   0   0
  0   0   0   0
  0   0   0   0   0   0   0   0   0   0   0   0   0   0   0   0   0   0   0   0   0   0  10   0
 57 122  62  48  45  36  34  34  35  33  33  33  34  34  32  33  31  28  26  25  23  21  20  18
 17  15  13  12  11   9   7   6   5   5   4   4   4   4   4   4   3   3   3   3   3   3   3   3
  3   3   2   0   0   0   0   0   0   0   0   0   0   0   0   0   0   0   0   0   0   0   0   0
  0   0   0   0
  0   0   0   0   0   0   0   0   0   0   0   0   0   0   0   0   0   0   0   0   0   0  11   0
 54 146  92  13  41  31  28  28  29  28  28  28  28  28  27  26  24  24  23  21  20  18  17  15
 13  12  11  10   9   6   5   4   4   4   4   4   4   4   4   3   3   3   3   3   3   3   3   3
  3   3   2   0   0   0   0   0   0   0   0   0   0   0   0   0   0   0   0   0   0   0   0   0
  0   0   0   0
  0   0   0   0   0   0   0   0   0   0   0   0   0   0   0   0   0   0   0   0   0   0  12   0
 52 153 121  20  26  29  25  25  24  23  22  22  22  22  21  22  19  19  19  18  16  14  13  12
 10  10   9   7   5   5   4   4   4   4   4   4   3   3   3   3   3   3   3   3   3   3   3   3
  3   3   2   0   0   0   0   0   0   0   0   0   0   0   0   0   0   0   0   0   0   0   0   0
  0   0   0   0
  0   0   0   0   0   0   0   0   0   0   0   0   0   0   0   0   0   0   0   0   0   0  13   0
 55 160 141  68   6  24  21  20  20  19  18  18  19  18  17  17  17  15  15  14  13  12  11  10
  9   8   6   5   5   5   4   5   4   4   4   4   3   3   3   3   3   2   3   2   3   3   3   3
  3   3   2   0   0   0   0   0   0   0   0   0   0   0   0   0   0   0   0   0   0   0   0   0
  0   0   0   0
