P2
# 8-bit pgm gray
100 100
255
  0   0   0   0   0   0   0   0   0   0   0   0   0   0   0   0   0   0   0   0   1   1   0   0
 24  81  86  82  82  82  81  78  76  75  73  68  61  50  45  41  35  30  25  20  15  12  11  11
 12  13  15  18  22  26  30  35  41  47  51  56  70  83  89  91  97 103 112 130 147 160 168 176
181 187 191 193 194 197 199 197 206 177   0   0  10   0   0   0   0   0   0   0   0   0   0   0
  0   0   0   0
  0   0   0   0   0   0   0   0   0   0   0   0   0   0   0   0   0   0   0   0   2  14  10   7
  0   0   0   0   0   0   0   0   0   0   0   0   0   0   0   0   0   0   0   0   0   1   3   7
 11  14  18  21  25  30  36  43  48  52  59  68  85  97 102 110 116 124 132 142 158 174 184 189
196 203 208 210 211 214 218 217 228 195   0   0  12   0   0   0   0   0   0   0   0   0   0   0
  0   0   0   0
  0   0   0   0   0   0   0   0   0   0   0   0   0   0   0   0   0   0   0   0   0  17  29  20
  4  20  22  20  20  20  20  19  18  18  17  15  13   9   7   6   5   4   3   2   3   5   7  10
 13  16  20  23  27  33  39  43  50  55  61  76  94  98 102 110 118 127 134 136 146 164 175 180
188 194 201 204 205 208 210 211 222 190   0   0  12   0   0   0   0   0   0   0   0   0   0   0
  0   0   0   0
  0   0   0   0   0   0   0   0   0   0   0   0   0   0   0   0   0   0   0   0   2  18  19   8
  1   0   0   0   0   0   0   0   0   0   0   0   0   0   0   0   0   0   0   0   3   5   7  11
 14  17  21  25  29  35  43  46  52  63  73  88 102 101 108 118 125 130 136 136 140 153 169 179
187 195 198 201 204 207 211 211 221 191   0   0  12   0   0   0   0   0   0   0   0   0   0   0
  0   0   0   0
  0   0   0   0   0   0   0   0   0   0   0   0   0   0   0   0   0   0   0   0   9  10   0   0
  0   0   0   0   0   0   0   0   0   0   0   0   0   0   0   0   0   0   0   1   4   6   9  12
 15  19  22  27  32  38  44  50  62  76  86  96 101 104 114 121 129 132 136 135 135 146 162 175
185 189 191 197 202 208 212 209 219 188   0   0  11   0   0   0   0   0   0   0   0   0   0   0
  0   0   0   0
  0   0   0   0   0   0   0   0   0   0   0   0   0   0   0   0   0   0   1   0   9  16   8   7
  1   0   0   0   0   0   0   0   0   0   0   0   0   0   0   0   0   0   0   3   5   7  10  14
 17  20  24  28  34  42  50  62  74  82  89  98 101 109 117 122 129 131 135 137 135 143 159 173
179 184 192 198 203 207 208 207 217 186   0   0  11   0   0   0   0   0   0   0   0   0   0   0
  0   0   0   0
  0   0   0   0   0   0   0   0   0   0   0   0   0   0   0   0   0   0   0   0   2  11  12   8
  1   0   0   0   0   0   0   0   0   0   0   0   0   0   0   0   0   0   1   4   6   8  11  15
 19  22  26  30  39  48  59  68  74  80  86  94 101 108 114 121 127 130 134 136 137 134 146 166
176 183 190 194 199 202 205 205 214 185   0   0  11   0   0   0   0   0   0   0   0   0   0   0
  0   0   0   0
  0   0   0   0   0   0   0   0   0   0   0   0   0   0   0   0   0   0   0   0   0   0   9   2
  0   0   0   0   0   0   0   0   0   0   0   0   0   0   0   0   0   0   3   5   7   9  12  16
 20  24  29  37  48  54  60  65  74  83  89  96 103 110 118 125 130 131 131 130 132 130 139 159
173 180 185 189 194 199 205 205 213 184   0   0  11   0   0   0   0   0   0   0   0   0   0   0
  0   0   0   0
  0   0   0   0   0   0   0   0   0   0   0   0   0   0   0   0   0   0   1   0   0   1  12   4
  0   0   0   0   0   0   0   0   0   0   0   0   0   0   0   0   0   1   3   5   7  10  13  17
 21  26  33  43  50  55  61  70  81  90  95 100 108 113 121 128 128 128 133 133 134 136 142 151
163 174 183 187 192 198 202 201 213 184   0   0  11   0   0   0   0   0   0   0   0   0   0   0
  0   0   0   0
  0   0   0   0   0   0   0   0   0   0   0   0   0   0   0   0   0   1   8   1   0   0  11   3
  0   0   0   0   0   0   0   0   0   0   0   0   0   0   0   0   0   2   4   6   8  11  15  20
 24  30  36  46  51  56  65  78  84  93  98 100 106 112 119 124 124 126 131 135 134 135 138 142
157 169 178 185 189 193 198 200 213 183   0   0  11   0   0   0   0   0   0   0   0   0   0   0
  0   0   0   0
  0   0   0   0   0   0   0   0   0   0   0   0   0   0   0   0   0   0  13   4   0   2   9   1
  0   0   0   0   0   0   0   0   0   0   0   0   0   0   0   0   1   3   4   7  10  13  17  22
 28  32  40  51  51  58  69  79  87  94 100 105 112 118 118 122 126 128 131 135 133 135 138 140
154 168 178 185 188 191 197 200 210 182   0   0  11   0   0   0   0   0   0   0   0   0   0   0
  0   0   0   0
  0   0   0   0   0   0   0   0   0   0   0   0   0   0   0   0   0   0   3   0   3  14  11   9
  1   0   0   0   0   0   0   0   0   0   0   0   0   0   0   0   2   4   6   8  12  15  19  24
 30  33  46  52  53  62  72  79  85  94 104 108 113 118 122 126 128 130 134 134 133 136 138 142
150 164 176 180 185 191 196 197 208 181   0   0  11   0   0   0   0   0   0   0   0   0   0   0
  0   0   0   0
  0   0   0   0   0   0   0   0   0   0   0   0   0   0   0   0   0   0  19   5  11  20   6  17
  5   0   0   0   0   0   0   0   0   0   0   0   0   0   0   1   3   4   7   9  13  16  21  27
 31  39  51  52  56  64  74  82  90  98 105 113 120 122 123 125 126 128 131 129 131 136 137 141
146 156 168 176 182 188 192 194 205 177   0   0  10   0   0   0   0   0   0   0   0   0   0   0
  0   0   0   0
  0   0   0   0   0   0   0   0   0   0   0   0   0   0   0   0   0   0  22  10   1  14  12  11
  2   0   0   0   0   0   0   0   0   0   0   0   0   0   0   1   3   5   8  10  14  18  23  28
 34  44  50  53  59  68  76  82  90  99 108 117 121 121 121 119 120 125 129 130 132 136 140 144
145 148 160 170 177 181 187 191 200 172   0   0   9   0   0   0   0   0   0   0   0   0   0   0
  0   0   0   0
  0   0   0   0   0   0   0   0   0   0   0   0   0   0   0   0   0   0   3   0   8   6   1   7
  3   0   0   0   0   0   0   0   0   0   0   0   0   0   0   2   4   6   9  12  16  20  25  32
 40  45  48  54  63  72  79  86  93 102 109 113 117 119 119 120 120 124 128 131 134 138 141 144
143 143 154 165 173 178 185 188 199 173   0   0   9   0   0   0   0   0   0   0   0   0   0   0
  0   0   0   0
  0   0   0   0   0   0   0   0   0   0   0   0   0   0   0   0   0   0  14   1  14  22  23  20
  5   0   0   0   0   0   0   0   0   0   0   0   0   0   1   3   5   7  10  13  17  21  27  35
 41  44  50  56  62  69  79  91  99 108 113 120 122 121 122 125 126 127 129 133 137 133 132 134
141 139 148 161 169 178 184 185 198 172   0   0   9   0   0   0   0   0   0   0   0   0   0   0
  0   0   0   0
  0   0   0   0   0   0   0   0   0   0   0   0   0   0   0   0   0   0  16   5   3  17  17  11
  1   0   0   0   0   0   0   0   0   0   0   0   0   0   1   3   6   8  11  14  20  25  30  37
 41  45  51  57  65  73  80  88  98 106 114 126 133 135 134 133 132 130 130 130 128 127 129 131
138 136 145 157 167 176 180 184 197 168   0   0   9   0   0   0   0   0   0   0   0   0   0   0
  0   0   0   0
  0   0   0   0   0   0   0   0   0   0   0   0   0   0   0   0   0   0   2   0   2  11  19  15
  0   0   0   0   0   0   0   0   0   0   0   0   0   1   2   4   7  10  12  17  23  26  31  40
 44  47  54  61  67  74  84  92  99 108 113 121 129 140 138 129 127 124 127 129 129 132 133 135
139 138 140 151 165 171 176 180 191 165   0   0   9   0   0   0   0   0   0   0   0   0   0   0
  0   0   0   0
  0   0   0   0   0   0   0   0   0   0   0   0   0   0   0   0   0   0   0   0   0  11  25  12
  0   0   0   0   0   0   0   0   0   0   0   0   0   1   2   5   8  11  15  20  23  26  31  42
 47  52  58  65  72  78  87  95 103 111 116 121 125 132 137 129 126 126 127 133 134 136 137 135
141 139 139 151 161 167 173 176 189 165   0   0   9   0   0   0   0   0   0   0   0   0   0   0
  0   0   0   0
  0   0   0   0   0   0   0   0   0   0   0   0   0   0   0   0   0   0   0   0   0  12  24  11
  0   0   0   0   0   0   0   0   0   0   0   0   0   1   3   5   9  13  17  20  23  28  33  41
 48  53  61  70  77  84  90  98 106 111 117 120 126 129 131 136 137 134 132 134 137 135 136 137
138 138 137 146 153 162 169 172 187 165   0   0   9   0   0   0   0   0   0   0   0   0   0   0
  0   0   0   0
  0   0   0   0   0   0   0   0   0   0   0   0   0   0   0   0   0   0   0   0   2   8  13  11
  0   0   0   0   0   0   0   0   0   0   0   0   1   2   4   9  10  14  17  21  25  30  35  44
 52  56  63  73  81  88  96 102 109 113 117 120 126 133 137 144 141 131 129 129 132 134 135 136
137 137 138 140 144 155 165 171 187 163   0   0   8   0   0   0   0   0   0   0   0   0   0   0
  0   0   0   0
  0   0   0   0   0   0   0   0   0   0   0   0   0   0   0   0   0   0   0   0   0   0   0   0
  0   0   0   0   0   0   0   0   0   0   0   0   1   2   5  13  12  15  17  23  28  33  38  46
 54  62  69  78  85  90  98 104 111 121 125 127 135 139 143 141 130 125 128 129 128 133 133 131
137 136 137 135 139 152 163 170 183 158   0   0   8   0   0   0   0   0   0   0   0   0   0   0
  0   0   0   0
  0   0   0   0   0   0   0   0   0   0   0   0   0   0   0   0   0   0   0   0   0   0   0   0
  0   0   0   0   0   0   0   0   0   0   0   0   2   4   6   9  13  15  19  24  29  36  43  51
 62  69  76  82  88  95  99 106 112 123 130 136 143 137 133 127 124 126 127 128 126 129 133 135
137 132 131 131 134 148 161 167 179 156   0   0   8   0   0   0   0   0   0   0   0   0   0   0
  0   0   0   0
  0   0   0   0   0   0   0   0   0   0   0   0   0   0   0   0   0   0   0   0   0   0   0   0
  0   0   0   0   0   0   0   0   0   0   0   1   2   4   7  11  14  17  22  28  34  40  46  55
 65  70  76  85  91  96 102 108 113 125 135 143 141 135 131 127 126 128 128 127 128 129 133 137
134 133 130 129 132 141 155 167 180 156   0   0   8   0   0   0   0   0   0   0   0   0   0   0
  0   0   0   0
  0   0   0   0   0   0   0   0   0   0   0   0   0   0   0   0   0   0   0   0   1   0   0   0
  0   0   0   0   0   0   0   0   0   0   0   1   3   5   9  12  15  20  25  30  36  42  47  56
 66  73  78  88  98 103 113 117 126 134 135 136 133 136 139 138 136 137 138 133 134 132 133 136
137 137 135 134 133 136 155 171 180 155   0   0   8   0   0   0   0   0   0   0   0   0   0   0
  0   0   0   0
  0   0   0   0   0   0   0   0   0   0   0   0   0   0   0   0   0   0   0   0   9   3   0   0
  0   0   0   0   0   0   0   0   0   0   0   2   4   7  10  13  17  21  26  33  40  47  54  63
 76  86  93 102 114 119 122 123 127 133 138 134 134 139 141 144 143 146 147 143 138 138 141 144
141 138 139 139 138 141 155 168 176 152   0   0   7   0   0   0   0   0   0   0   0   0   0   0
  0   0   0   0
  0   0   0   0   0   0   0   0   0   0   0   0   0   0   0   0   0   0   0   0  10  11   8   6
  0   0   0   0   0   0   0   0   0   0   1   2   5   8  12  15  18  27  34  36  44  54  63  73
 82  91  97 104 115 119 120 126 134 140 140 134 131 140 144 148 152 154 156 151 140 140 145 143
138 137 138 139 136 133 140 154 171 149   0   0   7   0   0   0   0   0   0   0   0   0   0   0
  0   0   0   0
  0   0   0   0   0   0   0   0   0   0   0   0   0   0   0   0   0   0   0   0   2   5   5   3
  0   0   0   0   0   0   0   0   0   0   1   3   6   9  14  18  20  28  36  40  48  55  64  74
 80  86  95 106 116 124 132 144 153 151 149 147 145 149 152 148 153 155 149 144 137 139 143 141
141 139 133 131 131 131 137 147 165 145   0   0   7   0   0   0   0   0   0   0   0   0   0   0
  0   0   0   0
  0   0   0   0   0   0   0   0   0   0   0   0   0   0   0   0   0   0   0   0   0   0   0   0
  0   0   0   0   0   0   0   0   0   0   1   4   7  10  14  23  26  27  35  43  49  56  68  75
 84  95 107 121 137 144 150 151 153 150 152 155 155 157 153 151 151 150 149 145 143 145 142 137
136 133 133 134 132 130 134 146 163 148   0   0   7   0   0   0   0   0   0   0   0   0   0   0
  0   0   0   0
  0   0   0   0   0   0   0   0   0   0   0   0   0   0   0   0   0   0   0   0   0   0   0   0
  0   0   0   0   0   0   0   0   0   0   2   4   7  11  14  25  33  32  38  47  54  66  75  81
 89 100 110 122 141 154 155 161 162 157 162 164 166 171 167 162 157 157 157 146 147 144 136 135
134 135 136 130 130 130 133 146 165 144   0   0   6   0   0   0   0   0   0   0   0   0   0   0
  0   0   0   0
  0   0   0   0   0   0   0   0   0   0   0   0   0   0   0   0   0   0   0   0   0   0   0   0
  0   0   0   0   0   0   0   0   0   1   2   5   9  13  16  25  37  38  44  53  63  73  79  89
 99 108 122 139 152 168 173 175 176 177 179 179 181 183 178 174 171 170 164 150 147 141 138 136
136 137 136 131 133 132 131 141 161 142   0   0   6   0   0   0   0   0   0   0   0   0   0   0
  0   0   0   0
  0   0   0   0   0   0   0   0   0   0   0   0   0   0   0   0   0   0   0   0   0   0   0   0
  0   0   0   0   0   0   0   0   0   2   3   7  11  15  19  26  37  42  49  61  76  88  96 110
118 124 140 155 164 170 176 179 177 181 185 188 188 188 188 186 185 177 165 157 148 142 141 141
140 139 138 135 132 130 131 141 157 140   4   0   6   0   0   0   0   0   0   0   0   0   0   0
  0   0   0   0
  0   0   0   0   0   0   0   0   0   0   0   0   0   0   0   0   0   0   0   0   0   0   0   0
  0   0   0   0   0   0   0   0   1   2   5   8  12  17  22  32  48  52  59  70  83  93 107 123
131 146 164 168 167 171 185 193 193 188 192 196 195 196 192 187 188 185 170 160 151 143 143 143
140 138 135 132 132 132 134 138 153 140   0   0   6   0   0   0   0   0   0   0   0   0   0   0
  0   0   0   0
  0   0   0   0   0   0   0   0   0   0   0   0   0   0   0   0   0   0   0   0   0   0   0   0
  0   0   0   0   0   0   0   0   1   3   6   9  13  19  25  37  55  58  65  74  83  95 116 150
172 176 178 179 180 190 198 201 206 205 203 206 207 208 200 192 188 179 171 164 153 144 140 137
133 132 136 135 134 133 137 140 156 139   0   0   6   0   0   0   0   0   0   0   0   0   0   0
  0   0   0   0
  0   0   0   0   0   0   0   0   0   0   0   0   0   0   0   0   0   0   0   0   0   0   0   0
  0   0   0   0   0   0   0   1   2   4   7  11  16  21  27  37  55  62  71  87 109 125 144 165
176 184 187 189 194 199 201 200 209 216 213 212 212 212 204 195 191 180 172 166 149 139 136 130
131 131 133 137 137 138 139 140 152 137   0   0   6   0   0   0   0   0   0   0   0   0   0   0
  0   0   0   0
  0   0   0   0   0   0   0   0   0   0   0   0   0   0   0   0   0   0   0   0   0   0   0   0
  0   0   0   0   0   0   0   1   3   5   9  13  19  25  30  52  63  72  91 123 142 146 153 161
168 183 195 194 197 205 207 208 212 217 217 216 213 211 208 195 188 189 181 161 142 137 133 132
133 127 132 140 137 134 132 133 153 137   0   0   6   0   0   0   0   0   0   0   0   0   0   0
  0   0   0   0
  0   0   0   0   0   0   0   0   0   0   0   0   0   0   0   0   0   0   0   0   0   0   0   0
  0   0   0   0   0   0   0   2   4   7  12  15  21  26  43  62  65  81 115 151 160 157 159 170
177 187 195 200 202 206 212 216 213 211 214 216 215 215 212 203 188 183 178 158 143 139 136 136
136 139 144 136 132 133 132 138 152 132   0   0   5   0   0   0   0   0   0   0   0   0   0   0
  0   0   0   0
  0   0   0   0   0   0   0   0   0   0   0   0   0   0   0   0   0   0   0   0   0   0   0   0
  0   0   0   0   0   0   1   2   5   8  13  18  24  33  55  63  85 112 150 173 170 173 181 193
201 207 211 215 213 215 219 218 214 215 218 217 219 218 212 208 192 181 174 159 143 138 136 134
139 144 141 138 136 134 137 140 144 126   3   0   5   0   0   0   0   0   0   0   0   0   0   0
  0   0   0   0
  0   0   0   0   0   0   0   0   0   0   0   0   0   0   0   0   0   0   0   0   0   0   0   0
  0   0   0   0   0   0   2   4   6  10  15  23  33  49  62  81 116 151 175 188 187 186 191 202
215 221 224 225 224 225 225 222 222 223 223 221 219 217 216 206 193 183 170 153 142 137 133 137
138 137 138 134 134 137 140 135 142 128   4   0   5   0   0   0   0   0   0   0   0   0   0   0
  0   0   0   0
  0   0   0   0   0   0   0   0   0   0   0   0   0   0   0   0   0   0   0   0   0   0   0   0
  0   0   0   0   0   1   3   5   8  13  21  27  43  68  93 110 131 166 182 192 201 198 201 207
217 224 228 230 229 228 227 226 223 221 221 217 215 219 218 205 194 180 166 150 143 140 139 139
139 136 134 133 135 141 140 136 144 126   2   0   5   0   0   0   0   0   0   0   0   0   0   0
  0   0   0   0
  0   0   0   0   0   0   0   0   0   0   0   0   0   0   0   0   0   0   0   0   0   1   0   0
  0   0   0   0   0   1   4   6  10  17  22  29  46  63 100 133 156 177 193 201 205 207 207 213
221 226 229 232 231 228 224 222 218 214 215 214 214 217 213 207 197 180 167 153 146 144 140 140
141 136 135 134 136 140 134 133 140 124   4   0   5   0   0   0   0   0   0   0   0   0   0   0
  0   0   0   0
  0   0   0   0   0   0   0   0   0   0   0   0   0   0   0   0   0   0   0   0   0   1   0   0
  0   0   0   0   0   2   5   8  13  18  22  38  46  54  91 141 176 192 204 208 209 216 219 221
224 223 222 222 224 221 218 218 214 211 210 211 213 214 210 205 194 178 167 158 148 142 141 144
143 138 135 136 140 135 132 135 145 128   6   0   5   0   0   0   0   0   0   0   0   0   0   0
  0   0   0   0
  0   0   0   0   0   0   0   0   0   0   0   0   0   0   0   0   0   0   0   0   0   0   0   0
  0   0   0   0   1   3   6  10  14  18  28  45  48  68 110 149 181 203 212 212 217 225 223 219
219 220 217 216 219 216 213 213 210 210 211 213 213 211 208 204 190 176 167 152 141 140 138 139
141 137 139 141 136 133 134 138 150 131   1   0   5   0   0   0   0   0   0   0   0   0   0   0
  0   0   0   0
  0   0   0   0   0   0   0   0   0   0   0   0   0   0   0   0   0   0   0   0   0   0   0   0
  0   0   0   0   1   4   7  11  16  21  37  43  55  96 134 172 197 211 219 220 222 221 217 217
218 219 220 221 220 217 214 213 211 214 217 217 215 209 203 199 184 168 158 145 141 143 140 142
143 142 143 136 137 140 145 148 149 127   0   0   5   0   0   0   0   0   0   0   0   0   0   0
  0   0   0   0
  0   0   0   0   0   0   0   0   0   0   0   0   0   0   0   0   0   0   0   0   0   0   0   0
  0   0   0   0   2   4   8  13  18  26  40  43  73 115 151 189 206 215 221 222 224 220 221 223
220 220 225 225 222 219 217 219 221 224 225 222 217 210 198 186 175 164 155 146 147 148 145 148
146 146 140 140 146 148 151 147 145 123   4   0   5   0   0   0   0   0   0   0   0   0   0   0
  0   0   0   0
  0   0   0   0   0   0   0   0   0   0   0   0   0   0   0   0   0   0   0   0   0   0   0   0
  0   0   0   0   3   6   9  14  19  32  42  58  89 130 159 187 209 220 223 223 225 221 223 222
217 217 223 225 223 221 221 223 226 228 229 225 219 214 208 197 180 168 153 154 158 148 153 149
146 149 145 148 147 146 145 144 145 123   0   0   5   0   0   0   0   0   0   0   0   0   0   0
  0   0   0   0
  0   0   0   0   0   0   0   0   0   0   0   0   0   0   0   0   0   0   0   0   0   0   0   0
  0   0   0   1   4   7  11  15  22  37  47  58  87 131 162 198 217 222 223 224 222 222 225 221
219 219 226 224 220 220 220 222 225 224 224 224 222 221 217 202 180 171 163 168 163 156 157 148
151 158 153 150 144 144 149 148 152 128   0   0   5   0   0   0   0   0   0   0   0   0   0   0
  0   0   0   0
  0   0   0   0   0   0   0   0   0   0   0   0   0   0   0   0   0   0   0   0   0   0   0   0
  0   0   0   1   4   8  13  19  28  39  50  56  98 149 174 207 220 222 224 223 219 223 228 226
223 223 226 222 221 221 219 223 223 220 222 226 229 225 217 199 179 173 163 165 167 162 153 154
161 160 153 148 145 149 154 152 156 128   0   0   5   0   0   0   0   0   0   0   0   0   0   0
  0   0   0   0
  0   0   0   0   0   0   0   0   0   0   0   0   0   0   0   0   0   0   0   0   0   0   0   0
  0   0   0   2   5  10  13  21  40  49  55  72 135 177 185 205 222 226 226 226 223 227 229 229
227 228 227 219 218 224 224 222 224 227 229 230 231 224 217 200 176 162 157 169 171 163 164 168
163 152 151 148 146 149 154 148 148 122   0   0   4   0   0   0   0   0   0   0   0   0   0   0
  0   0   0   0
  0   0   0   0   0   0   0   0   0   0   0   0   0   0   0   0   0   0   0   0   0   0   0   0
  0   0   1   3   5  11  14  27  43  54  62 108 169 198 197 204 217 224 227 224 225 227 230 229
230 229 227 221 220 224 227 226 228 230 231 230 227 223 220 192 167 159 164 174 172 173 174 167
155 154 154 147 145 148 151 143 147 130   0   0   5   0   0   0   0   0   0   0   0   0   0   0
  0   0   0   0
  0   0   0   0   0   0   0   0   0   0   0   0   0   0   0   0   0   0   0   0   0   0   0   0
  0   0   1   3   6  11  18  33  46  56  69 140 192 208 203 198 210 222 225 223 225 226 224 225
225 223 225 225 222 219 219 226 229 230 230 227 223 223 214 185 173 168 172 173 175 171 165 160
155 158 151 144 147 153 146 143 156 129   0   0   5   0   0   0   0   0   0   0   0   0   0   0
  0   0   0   0
  0   0   0   0   0   0   0   0   0   0   0   0   0   0   0   0   0   0   0   0   0   0   0   0
  0   0   1   3   7  13  23  33  46  68 106 160 199 208 206 208 215 221 223 227 228 224 221 223
224 224 229 230 225 219 218 224 229 232 231 226 221 214 203 189 176 175 179 174 172 161 160 158
152 151 147 151 158 150 143 146 151 127   0   0   5   0   0   0   0   0   0   0   0   0   0   0
  0   0   0   0
  0   0   0   0   0   0   0   0   0   0   0   0   0   0   0   0   0   0   0   0   0   0   0   0
  0   0   1   4   8  15  24  33  44  85 128 167 198 208 222 222 221 221 222 226 227 224 224 228
232 230 233 235 232 229 228 229 232 233 233 227 220 213 201 190 179 177 173 166 170 170 160 155
154 154 159 164 154 146 146 141 154 135   0   0   5   0   0   0   0   0   0   0   0   0   0   0
  0   0   0   0
  0   0   0   0   0   0   0   0   0   0   0   0   0   0   0   0   0   0   0   0   0   0   0   0
  0   0   2   5   8  16  25  35  61 103 139 182 206 218 230 229 226 224 226 228 229 226 226 230
235 236 236 236 233 232 232 233 233 231 228 227 225 212 193 184 177 173 170 174 178 169 157 156
161 162 157 151 147 145 141 140 154 133   0   0   5   0   0   0   0   0   0   0   0   0   0   0
  0   0   0   0
  0   0   0   0   0   0   0   0   0   0   0   0   0   0   0   0   0   0   0   0   0   0   0   0
  0   0   2   5   9  17  29  39  81 130 164 193 211 221 228 230 230 231 233 234 233 228 226 229
235 237 236 236 233 230 232 232 228 225 223 224 215 201 190 181 181 176 182 184 165 153 154 160
164 151 143 147 145 140 144 145 155 132   0   0   5   0   0   0   0   0   0   0   0   0   0   0
  0   0   0   0
  0   0   0   0   0   0   0   0   0   0   0   0   0   0   0   0   0   0   0   0   0   0   0   0
  0   0   2   5  11  17  30  50 101 154 182 198 210 219 225 229 233 236 235 233 228 227 228 230
232 234 234 233 233 232 230 224 221 220 221 220 209 199 190 191 190 184 191 172 155 160 161 158
152 143 147 150 145 147 146 147 154 130   0   0   5   0   0   0   0   0   0   0   0   0   0   0
  0   0   0   0
  0   0   0   0   0   0   0   0   0   0   0   0   0   0   0   0   0   0   0   0   0   0   0   0
  0   1   4   6  12  20  28  51 115 170 195 204 212 218 222 229 233 234 231 229 229 226 226 228
227 230 231 230 232 233 227 220 220 222 224 224 217 205 202 202 198 196 182 166 170 168 158 150
148 149 155 153 150 146 142 146 155 133   0   0   5   0   0   0   0   0   0   0   0   0   0   0
  0   0   0   0
  0   0   0   0   0   0   0   0   0   0   0   0   0   0   0   0   0   0   0   0   0   0   0   0
  0   2   4   8  12  20  29  49 112 174 202 206 214 218 217 227 232 232 229 229 228 221 222 225
225 226 231 232 233 234 230 223 223 226 228 228 223 211 206 212 212 193 172 173 175 165 153 154
156 159 163 157 149 146 147 148 155 128   0   0   5   0   0   0   0   0   0   0   0   0   0   0
  0   0   0   0
  0   0   0   0   0   0   0   0   0   0   0   0   0   0   0   0   0   0   0   0   0   0   0   0
  0   2   5   8  13  20  31  54 102 156 195 209 220 220 211 224 231 232 234 233 230 226 226 227
225 226 232 235 236 236 233 227 226 228 230 227 220 211 211 219 211 184 179 182 172 155 151 160
163 167 165 154 152 153 154 154 156 128   0   0   5   0   0   0   0   0   0   0   0   0   0   0
  0   0   0   0
  0   0   0   0   0   0   0   0   0   0   0   0   0   0   0   0   0   0   0   0   0   0   0   0
  0   3   6  10  14  22  29  56  97 136 183 210 221 220 215 223 229 232 235 235 235 235 234 233
230 231 233 235 236 236 236 231 227 224 224 223 222 224 220 208 200 191 187 177 168 161 157 164
168 166 162 157 155 153 159 157 158 135   0   0   6   0   0   0   0   0   0   0   0   0   0   0
  0   0   0   0
  0   0   0   0   0   0   0   0   0   0   0   0   0   0   0   0   0   0   0   0   0   0   0   0
  0   3   7  12  16  23  29  54 105 139 184 215 223 221 215 219 225 229 231 234 237 236 234 233
231 233 234 235 235 235 236 234 229 226 226 226 228 228 215 197 196 188 174 170 170 165 166 169
166 163 164 156 154 161 169 171 167 137   1   0   6   0   0   0   0   0   0   0   0   0   0   0
  0   0   0   0
  0   0   0   0   0   0   0   0   0   0   0   0   0   0   0   0   0   0   0   0   0   0   0   0
  0   3   7  12  16  24  32  48 115 167 200 219 227 225 217 219 222 227 229 231 234 235 233 230
229 231 234 236 236 237 237 234 233 232 229 228 228 221 211 204 194 181 171 170 171 175 180 176
170 164 158 155 163 170 177 179 173 143   1   0   6   0   0   0   0   0   0   0   0   0   0   0
  0   0   0   0
  0   0   0   0   0   0   0   0   0   0   0   0   0   0   0   0   0   0   0   0   0   0   0   0
  0   3   7  11  17  25  35  47 115 174 206 220 225 218 218 221 220 223 226 228 231 234 232 229
229 233 235 235 237 239 238 234 230 227 225 227 223 212 211 209 199 184 170 169 185 192 184 175
170 159 153 164 172 180 178 178 177 143   0   0   6   0   0   0   0   0   0   0   0   0   0   0
  0   0   0   0
  0   0   0   0   0   0   0   0   0   0   0   0   0   0   0   0   0   0   0   0   0   0   0   0
  1   3   6  10  18  27  37  52 114 159 195 212 214 213 218 220 223 226 225 228 230 234 234 234
234 234 234 236 238 239 236 233 230 228 226 224 219 212 208 207 201 186 176 177 192 192 181 178
169 158 155 168 181 185 180 184 175 144   2   0   7   0   0   0   0   0   0   0   0   0   0   0
  0   0   0   0
  0   0   0   0   0   0   0   0   0   0   0   0   0   0   0   0   0   0   0   0   0   0   0   0
  1   3   7  12  17  30  40  57 109 150 189 204 210 217 222 225 228 232 230 230 233 234 234 235
236 237 237 238 238 238 235 235 233 229 225 223 220 215 210 210 208 195 185 184 186 183 185 184
173 166 169 177 189 187 186 182 177 158   0   0   8   0   0   0   0   0   0   0   0   0   0   0
  0   0   0   0
  0   0   0   0   0   0   0   0   0   0   0   0   0   0   0   0   0   0   0   0   0   0   0   0
  1   3   6  13  18  32  46  64 119 155 186 206 216 224 224 228 230 233 231 229 234 235 233 235
238 239 239 239 238 236 235 236 232 226 224 225 221 216 216 213 212 206 194 183 187 193 193 193
176 175 181 181 187 188 192 189 191 162   0   0   8   0   0   0   0   0   0   0   0   0   0   0
  0   0   0   0
  0   0   0   0   0   0   0   0   0   0   0   0   0   0   0   0   0   0   0   0   0   0   0   0
  1   3   6  11  19  30  46  76 125 157 179 201 218 226 224 226 229 229 230 232 234 234 235 238
239 239 238 238 236 235 237 236 231 226 226 225 219 219 223 216 216 216 201 191 202 202 204 197
183 179 180 185 190 200 205 195 187 160   0   0   8   0   0   0   0   0   0   0   0   0   0   0
  0   0   0   0
  0   0   0   0   0   0   0   0   0   0   0   0   0   0   0   0   0   0   0   0   0   0   0   0
  1   3   6  10  16  25  52  73 104 148 178 200 219 225 226 227 230 229 231 235 235 235 236 238
239 239 239 238 235 237 238 236 233 232 231 227 224 226 227 224 224 218 207 205 206 208 208 195
188 185 186 190 199 205 200 188 188 162   0   0   8   0   0   0   0   0   0   0   0   0   0   0
  0   0   0   0
  0   0   0   0   0   0   0   0   0   0   0   0   0   0   0   0   0   0   0   0   0   0   0   0
  1   3   6  10  15  25  45  63  95 140 178 206 221 224 227 228 230 229 230 235 237 237 238 238
239 240 240 239 238 239 239 238 238 238 233 227 226 229 228 230 227 218 212 208 209 215 209 200
197 197 194 197 198 197 193 189 200 170   0   0   9   0   0   0   0   0   0   0   0   0   0   0
  0   0   0   0
  0   0   0   0   0   0   0   0   0   0   0   0   0   0   0   0   0   0   0   0   0   0   0   0
  0   3   5   9  15  25  41  59  92 150 186 204 217 224 226 228 229 228 231 234 236 237 238 238
239 239 239 239 240 239 239 239 239 238 234 228 230 231 227 230 228 221 218 215 216 217 213 207
205 199 198 203 200 194 194 196 206 173   0   0   9   0   0   0   0   0   0   0   0   0   0   0
  0   0   0   0
  0   0   0   0   0   0   0   0   0   0   0   0   0   0   0   0   0   0   0   0   0   0   0   0
  0   3   5   9  16  23  38  48  90 156 191 203 214 223 227 228 231 232 233 235 236 236 237 238
239 239 240 240 239 239 239 239 239 239 236 233 234 231 228 228 227 225 221 219 219 216 214 205
196 195 202 202 196 192 195 192 192 162   0   0   8   0   0   0   0   0   0   0   0   0   0   0
  0   0   0   0
  0   0   0   0   0   0   0   0   0   0   0   0   0   0   0   0   0   0   0   0   0   0   0   0
  0   3   5  10  16  23  33  48 106 156 185 209 219 222 228 231 231 232 233 234 234 234 237 238
239 240 240 240 239 239 240 239 239 239 238 237 236 233 229 228 226 223 221 220 217 219 212 197
193 198 196 186 184 181 175 163 165 144   0   0   6   0   0   0   0   0   0   0   0   0   0   0
  0   0   0   0
  0   0   0   0   0   0   0   0   0   0   0   0   0   0   0   0   0   0   0   0   0   0   0   0
  0   2   5   9  14  22  32  53 103 160 190 209 220 222 227 232 232 231 233 232 233 236 238 238
239 240 240 240 239 239 240 239 239 239 239 239 238 234 230 229 224 221 221 220 220 218 209 200
197 193 183 182 175 159 146 147 153 130   0   0   5   0   0   0   0   0   0   0   0   0   0   0
  0   0   0   0
  0   0   0   0   0   0   0   0   0   0   0   0   0   0   0   0   0   0   0   0   0   0   0   0
  0   1   5   9  13  20  32  52  75 121 178 209 217 218 222 229 234 233 232 231 232 233 236 238
239 239 240 239 239 239 240 240 239 237 238 239 237 232 231 228 222 220 221 220 221 218 209 197
190 183 175 170 160 145 145 144 143 128   7   0   5   0   0   0   0   0   0   0   0   0   0   0
  0   0   0   0
  0   0   0   0   0   0   0   0   0   0   0   0   0   0   0   0   0   0   0   0   0   0   0   0
  0   1   5   8  11  18  27  48  64  85 133 184 205 213 222 224 226 229 227 227 229 229 234 238
238 238 239 238 238 239 240 239 239 238 238 238 236 232 230 223 219 220 221 220 212 208 200 195
187 175 158 152 141 132 135 131 135 119   0   0   4   0   0   0   0   0   0   0   0   0   0   0
  0   0   0   0
  0   0   0   0   0   0   0   0   0   0   0   0   0   0   0   0   0   0   0   0   0   0   0   0
  0   0   4   7  10  15  25  42  63  90 109 144 179 200 220 222 221 221 224 228 228 230 235 238
238 238 239 239 239 239 240 239 238 238 239 238 236 232 228 223 219 217 217 209 200 194 189 188
183 161 142 141 133 130 129 122 119  98   0   0   3   0   0   0   0   0   0   0   0   0   0   0
  0   0   0   0
  0   0   0   0   0   0   0   0   0   0   0   0   0   0   0   0   0   0   0   0   0   0   0   0
  0   0   3   7  10  16  25  36  56  87 106 121 157 184 203 218 225 224 227 232 231 233 237 239
239 239 239 238 239 239 239 239 238 237 238 237 234 231 228 222 213 208 208 201 198 192 187 186
174 152 143 136 129 129 124 106  99  82   0   0   2   0   0   0   0   0   0   0   0   0   0   0
  0   0   0   0
  0   0   0   0   0   0   0   0   0   0   0   0   0   0   0   0   0   0   0   0   0   0   0   0
  0   0   2   5   8  17  29  35  47  70 105 128 154 179 192 210 223 227 229 232 233 233 235 239
239 238 237 237 238 238 238 238 237 234 235 235 231 229 222 218 211 208 202 193 190 180 177 173
154 134 126 118 117 116 105  89  95  82   0   0   2   0   0   0   0   0   0   0   0   0   0   0
  0   0   0   0
  0   0   0   0   0   0   0   0   0   0   0   0   0   0   0   0   0   0   0   0   0   0   0   0
  0   0   1   4   7  11  25  36  47  71 100 135 154 174 189 201 216 225 229 231 232 233 233 236
238 237 235 236 235 236 236 236 234 230 229 227 224 222 221 221 215 203 186 181 176 166 159 144
134 124 116 115 109 102  98 100  99  77   0   0   2   0   0   0   0   0   0   0   0   0   0   0
  0   0   0   0
  0   0   0   0   0   0   0   0   0   0   0   0   0   0   0   0   0   0   0   0   0   0   0   0
  0   0   0   3   6   9  15  29  44  78 105 121 149 163 183 199 216 225 229 230 231 229 226 229
234 234 234 234 230 229 233 233 228 223 224 223 220 224 224 224 215 190 176 174 168 156 139 128
124 122 112 106 102 102 108  97  79  60   0   0   1   0   0   0   0   0   0   0   0   0   0   0
  0   0   0   0
  0   0   0   0   0   0   0   0   0   0   0   0   0   0   0   0   0   0   0   0   0   0   0   0
  0   0   0   2   5   8  12  22  32  50  88 113 148 175 189 205 217 224 227 229 228 227 224 224
228 229 233 233 229 226 229 231 225 221 224 224 225 226 224 222 207 183 176 173 163 145 118 110
113 113 108 107 106 104  89  73  69  56   0   0   1   0   0   0   0   0   0   0   0   0   0   0
  0   0   0   0
  0   0   0   0   0   0   0   0   0   0   0   0   0   0   0   0   0   0   0   0   0   0   0   0
  0   0   0   0   5   7  11  18  26  30  44  81 128 165 186 205 216 221 222 224 225 226 224 224
227 227 230 228 224 220 213 212 218 223 225 226 226 220 219 212 190 175 177 174 166 149 123 120
123 116 116 110  98  83  68  67  66  50   0   0   1   0   0   0   0   0   0   0   0   0   0   0
  0   0   0   0
  0   0   0   0   0   0   0   0   0   0   0   0   0   0   0   0   0   0   0   0   0   0   0   0
  0   0   0   0   3   8  10  14  22  29  36  53 103 137 156 179 201 211 215 219 222 220 220 224
223 223 220 219 220 206 189 189 202 213 223 225 220 216 211 198 186 187 182 165 161 150 139 134
124 118 112  97  79  68  68  64  60  74  22   0   2   0   0   0   0   0   0   0   0   0   0   0
  0   0   0   0
  0   0   0   0   0   0   0   0   0   0   0   0   0   0   0   0   0   0   0   0   0   0   0   0
  0   0   0   0   1   7   8  12  19  25  34  43  73 109 140 163 184 198 203 211 220 219 215 217
217 211 211 218 211 189 186 191 195 198 214 217 212 209 200 187 178 188 179 163 154 142 132 120
118 114  98  82  72  67  64  53  70 115  34   0   6   0   0   0   0   0   0   0   0   0   0   0
  0   0   0   0
  0   0   0   0   0   0   0   0   0   0   0   0   0   0   0   0   0   0   0   0   0   0   0   0
  0   0   0   0   0   4   8   9  15  21  29  42  69  89 121 150 172 183 186 214 220 214 210 205
199 196 206 211 200 178 180 184 187 193 206 214 206 195 198 188 176 175 167 160 143 129 123 121
111  95  82  71  66  65  61  32  98 142  27   0   8   0   0   0   0   0   0   0   0   0   0   0
  0   0   0   0
  0   0   0   0   0   0   0   0   0   0   0   0   0   0   0   0   0   0   0   0   0   0   0   0
  0   0   0   0   0   1   6   8  10  17  23  35  63  79  94 120 151 164 172 208 210 196 190 183
174 191 201 196 192 175 164 153 165 186 195 201 202 196 194 183 173 157 161 164 142 144 139 115
 93  88  82  67  68  63  53  37 134 154   0   0   8   0   0   0   0   0   0   0   0   0   0   0
  0   0   0   0
  0   0   0   0   0   0   0   0   0   0   0   0   0   0   0   0   0   0   0   0   0   0   0   0
  0   0   0   0   0   0   3   8   9  13  21  30  44  67  82 103 124 148 175 195 193 178 176 166
168 188 193 185 180 164 154 156 171 176 174 176 188 188 177 170 162 152 164 168 171 167 129  96
 92  94  85  76  73  61  40  80 161 152   0   0   7   0   0   0   0   0   0   0   0   0   0   0
  0   0   0   0
  0   0   0   0   0   0   0   0   0   0   0   0   0   0   0   0   0   0   0   0   0   0   0   0
  0   0   0   0   0   0   0   5  11  12  20  29  38  58  80  94  96 110 161 183 180 176 167 155
164 179 181 176 168 160 162 165 165 166 166 169 165 165 177 170 159 154 155 162 181 161 109  92
 91  84  78  79  68  55  45 124 171 150   0   0   7   0   0   0   0   0   0   0   0   0   0   0
  0   0   0   0
  0   0   0   0   0   0   0   0   0   0   0   0   0   0   0   0   0   0   0   0   0   0   0   0
  0   0   0   0   0   0   0   1   8  15  19  25  32  42  58  65  67  90 142 158 151 141 137 150
171 178 174 168 159 154 144 143 148 158 179 169 140 152 185 171 150 144 147 166 171 136  94  87
 78  82  85  74  62  44  70 140 163 144  10   0   7   0   0   0   0   0   0   0   0   0   0   0
  0   0   0   0
  0   0   0   0   0   0   0   0   0   0   0   0   0   0   0   0   0   0   0   0   0   0   0   0
  0   0   0   0   0   0   0   1   3   9  19  27  32  38  47  56  64  85 112 120 116 113 110 126
161 164 162 152 140 131 127 134 138 166 178 151 141 154 164 162 146 144 150 160 163 133 106  97
 92  96  84  61  51  31  84 140 155 141  15   0   7   0   0   0   0   0   0   0   0   0   0   0
  0   0   0   0
  0   0   0   0   0   0   0   0   0   0   0   0   0   0   0   0   0   0   0   0   0   0   0   0
  0   0   0   0   0   0   0   1   2   3  10  24  35  41  47  57  62  58  77  97 106 114 104 118
130 122 124 116 111 119 123 129 150 173 159 139 142 142 149 161 157 131 116 132 153 143 130 118
101  89  71  51  44  26  94 140 154 142  15   0   7   0   0   0   0   0   0   0   0   0   0   0
  0   0   0   0
  0   0   0   0   0   0   0   0   0   0   0   0   0   0   0   0   0   0   0   1   0   0   0   0
  0   0   0   0   0   0   0   1   2   3   3   9  25  39  45  46  51  66  82  86  88  85  91 108
107 103 101 102 107 121 132 139 153 151 137 132 127 129 150 165 155 122 112 128 146 139 131 115
 89  72  53  43  38  29 110 139 151 141  12   0   7   0   0   0   0   0   0   0   0   0   0   0
  0   0   0   0
  0   0   0   0   0   0   0   0   0   0   0   0   0   0   0   0   0   0   0   1   1   1   1   0
  0   0   0   0   0   0   0   1   2   2   2   3   7  23  35  37  42  60  75  80  86  88  92  93
 92  96  99 101 115 126 127 143 137 119 116 113 105 113 136 153 143 126 118 127 128 121 120 109
 87  62  44  40  27  47 120 138 152 139  10   0   6   0   0   0   0   0   0   0   0   0   0   0
  0   0   0   0
  0   0   0   0   0   0   0   0   0   0   0   0   0   0   0   0   0   0   0   1   1   1   1   0
  1   0   0   0   0   1   1   1   1   1   1   1   2   6  14  17  18  28  43  54  63  76  78  81
 91  90  94  98 105 121 124 126 108 102  99  92  96 103 101 112 114 101  95 102  86  83  82  78
 71  55  44  39  23  62 121 130 144 134  14   0   6   0   0   0   0   0   0   0   0   0   0   0
  0   0   0   0
  0   0   0   0   0   0   0   0   0   0   0   0   0   0   0   0   0   0   0   1   0   1   1   1
  1   1   1   1   1   1   1   1   1   1   0   0   1   1   4  11  13   9   7   8  15  28  38  48
 62  67  71  77  82  85  86  89  78  74  76  85  88  84  88  91  82  82  79  83  74  61  53  47
 43  41  37  35  22  63 112 122 141 133  14   0   6   0   0   0   0   0   0   0   0   0   0   0
  0   0   0   0
  0   0   0   0   0   0   0   0   0   0   0   0   0   0   0   0   0   0   0   1   1   1   1   1
  1   1   1   1   1   1   1   1   1   1   1   1   1   1   1   4  10  12  12  15  18  20  26  32
 40  47  58  63  55  44  51  64  65  67  76  77  73  74  79  74  70  67  59  66  62  50  47  42
 38  32  28  30  14  63 109 119 137 129  13   0   6   0   0   0   0   0   0   0   0   0   0   0
  0   0   0   0
  0   0   0   0   0   0   0   0   0   0   0   0   0   0   0   0   0   0   0   1   1   1   1   1
  1   1   1   1   1   1   1   1   2   2   1   1   1   1   1   1   3   7   7   8  12  15  17  21
 27  29  38  42  39  45  50  56  60  66  64  61  63  61  57  56  53  50  50  53  46  42  35  32
 31  26  24  28  10  62 103 111 127 118  11   0   5   0   0   0   0   0   0   0   0   0   0   0
  0   0   0   0
  0   0   0   0   0   0   0   0   0   0   0   0   0   0   0   0   0   0   1   1   1   1   1   1
  1   1   1   1   1   1   2   2   1   1   1   1   1   1   1   1   1   3   5   7   8  10  11  14
 15  19  22  24  30  33  35  37  41  45  49  50  48  45  45  46  45  43  45  45  40  35  31  29
 26  23  23  26   8  62 102 108 125 118  11   0   5   0   0   0   0   0   0   0   0   0   0   0
  0   0   0   0
  0   0   0   0   0   0   0   0   0   0   0   0   0   0   0   0   0   0   1   1   1   1   1   2
  1   1   1   1   1   1   1   2   2   2   2   2   2   2   1   2   2   1   2   5   6   7   8   9
 12  14  17  19  21  22  23  26  27  27  32  35  37  37  35  36  36  35  35  33  29  25  25  23
 20  19  20  21   6  54  94 104 120 115  13   0   4   0   0   0   0   0   0   0   0   0   0   0
  0   0   0   0
  0   0   0   0   0   0   0   0   0   0   0   0   0   0   0   0   0   0   1   2   2   2   2   2
  2   2   2   2   2   2   2   2   2   2   2   2   2   2   2   2   2   2   2   2   4   6   6   7
  8  10  12  13  14  15  17  18  19  21  24  25  26  27  26  26  28  28  27  24  23  22  21  20
 18  17  17  17   6  47  84  97 113 107  15   0   4   0   0   0   0   0   0   0   0   0   0   0
  0   0   0   0
