P2
# 8-bit pgm gray
100 100
255
  0   0   0   0   0   0   0   0   0   0   0   0   0   0   0   0   0   0   0   0   0   0  13   0
 49 168 181 176 174 170 169 167 162 154 146 137 121  98  76  74  72  70  68  62  55  49  45  41
 35  30  25  21  19  17  13  11  12  12  12  11  11  11  11  11  12  12  12  12  11  11  11  11
 11  11  10   1   0   0   0   0   0   0   0   0   0   0   0   0   0   0   0   0   0   0   0   0
  0   0   0   0
  0   0   0   0   0   0   0   0   0   0   0   0   0   0   0   0   0   0   0   0   0   0  12   0
 49 164 178 173 172 171 167 164 159 153 143 133 115  91  77  74  72  71  68  64  59  52  46  41
 35  30  24  21  19  17  13  11  12  11  11  11  12  11  11  11  11  11  11  11  11  11  11  11
 11  11  10   1   0   0   0   0   0   0   0   0   0   0   0   0   0   0   0   0   0   0   0   0
  0   0   0   0
  0   0   0   0   0   0   0   0   0   0   0   0   0   0   0   0   0   0   0   0   0   0  13   0
 50 165 177 172 170 167 164 162 157 150 140 125 105  85  78  76  73  71  66  61  58  52  45  41
 36  31  26  21  18  17  13  11  11  11  11  11  11  11  11  11  11  11  11  11  11  11  11  11
 11  11  10   1   0   0   0   0   0   0   0   0   0   0   0   0   0   0   0   0   0   0   0   0
  0   0   0   0
  0   0   0   0   0   0   0   0   0   0   0   0   0   0   0   0   0   0   0   0   0   0  12   0
 48 166 178 171 169 164 161 158 152 143 136 116  96  81  76  75  73  71  68  62  57  50  44  40
 34  30  27  21  18  17  13  10  10  10  10  10  11  10  10  11  10  10  10  10  10  10  10  10
 10  11   9   1   0   0   0   0   0   0   0   0   0   0   0   0   0   0   0   0   0   0   0   0
  0   0   0   0
  0   0   0   0   0   0   0   0   0   0   0   0   0   0   0   0   0   0   0   0   0   0  12   0
 48 166 176 169 168 163 159 151 144 139 126 107  89  77  75  74  72  71  68  62  58  51  44  38
 33  29  25  22  18  17  13   9  10  10  10   9   9   9   9   9  10  10  10  10  10  10  10  10
  9  10   9   1   0   0   0   0   0   0   0   0   0   0   0   0   0   0   0   0   0   0   0   0
  0   0   0   0
  0   0   0   0   0   0   0   0   0   0   0   0   0   0   0   0   0   0   0   0   0   0  13   0
 51 168 179 171 166 162 157 150 143 135 118 100  85  77  75  71  70  68  64  61  57  52  45  39
 33  29  24  21  19  16  14  10  10   9   9   9   9   9   9   9   9   9   9   9   9   9   9   9
  9   9   8   1   0   0   0   0   0   0   0   0   0   0   0   0   0   0   0   0   0   0   0   0
  0   0   0   0
  0   0   0   0   0   0   0   0   0   0   0   0   0   0   0   0   0   0   0   0   0   0  13   0
 50 168 179 171 165 157 153 148 140 128 112  96  81  79  77  74  70  67  65  62  59  55  47  41
 35  30  26  22  19  17  14  11   9  10  10   9   9   9   9   9   9   9   9   9   9   9   8   9
  9   9   8   1   0   0   0   0   0   0   0   0   0   0   0   0   0   0   0   0   0   0   0   0
  0   0   0   0
  0   0   0   0   0   0   0   0   0   0   0   0   0   0   0   0   0   0   0   0   0   0  12   0
 48 163 174 169 166 157 152 143 135 120 104  91  80  79  77  75  71  67  65  61  56  52  47  41
 36  31  27  24  20  17  15  11   9   9   9   9   9   9   9   9   9   9   9   9   9   8   8   8
  8   9   8   1   0   0   0   0   0   0   0   0   0   0   0   0   0   0   0   0   0   0   0   0
  0   0   0   0
  0   0   0   0   0   0   0   0   0   0   0   0   0   0   0   0   0   0   0   0   0   0  12   0
 49 160 172 168 163 157 151 142 131 115  98  84  81  80  76  73  73  69  63  60  58  53  47  42
 37  32  27  23  20  18  16  13   9   9   9   9   9   9   9   9   9   9   9   9   9   9   8   8
  8   9   8   1   0   0   0   0   0   0   0   0   0   0   0   0   0   0   0   0   0   0   0   0
  0   0   0   0
  0   0   0   0   0   0   0   0   0   0   0   0   0   0   0   0   0   0   0   0   0   0  12   0
 49 161 174 165 156 154 149 141 129 113  96  81  79  78  75  73  71  70  64  59  56  55  48  42
 38  33  29  24  21  18  16  14   9   8   9   9   9   9   9   9   9   9   9   9   9   9   8   8
  8   9   7   1   0   0   0   0   0   0   0   0   0   0   0   0   0   0   0   0   0   0   0   0
  0   0   0   0
  0   0   0   0   0   0   0   0   0   0   0   0   0   0   0   0   0   0   0   0   0   0  12   0
 49 161 171 161 154 151 145 134 123 110  94  83  82  79  76  72  69  67  64  60  54  52  49  46
 40  34  30  27  23  20  17  15  11   8   9   9   9   9   9   9   9   9   9   9   8   9   8   9
  8   9   8   1   0   0   0   0   0   0   0   0   0   0   0   0   0   0   0   0   0   0   0   0
  0   0   0   0
  0   0   0   0   0   0   0   0   0   0   0   0   0   0   0   0   0   0   0   0   0   0  12   0
 50 161 169 160 153 149 140 126 116 101  86  83  80  79  77  75  70  67  65  63  59  54  51  47
 41  36  32  29  25  21  18  15  13   9   9   9   9   9   9   9   9   9   9   9   8   8   8   9
  8   9   8   1   0   0   0   0   0   0   0   0   0   0   0   0   0   0   0   0   0   0   0   0
  0   0   0   0
  0   0   0   0   0   0   0   0   0   0   0   0   0   0   0   0   0   0   0   0   0   0  12   0
 48 158 168 162 157 149 139 127 112  96  83  83  80  77  76  74  73  69  66  63  62  57  52  48
 43  38  34  29  26  22  19  16  15  11   8   9   9   9   9   9   9   9   9   9   8   8   8   8
  8   8   7   1   0   0   0   0   0   0   0   0   0   0   0   0   0   0   0   0   0   0   0   0
  0   0   0   0
  0   0   0   0   0   0   0   0   0   0   0   0   0   0   0   0   0   0   0   0   0   0  11   0
 47 155 164 158 155 147 138 129 107  87  80  79  79  77  76  72  71  70  67  63  60  58  54  48
 44  39  34  31  27  23  20  17  15  13   9   8   9   9   9   9   9   9   9   9   8   8   8   8
  8   8   7   1   0   0   0   0   0   0   0   0   0   0   0   0   0   0   0   0   0   0   0   0
  0   0   0   0
  0   0   0   0   0   0   0   0   0   0   0   0   0   0   0   0   0   0   0   0   0   0  11   0
 45 153 162 155 151 141 131 123 110  94  85  81  79  77  74  74  72  69  67  65  61  59  59  52
 45  41  36  32  29  25  21  18  15  15  10   8   9   8   9   9   9   9   8   8   8   7   7   7
  7   8   7   1   0   0   0   0   0   0   0   0   0   0   0   0   0   0   0   0   0   0   0   0
  0   0   0   0
  0   0   0   0   0   0   0   0   0   0   0   0   0   0   0   0   0   0   0   0   0   0  10   0
 46 149 160 154 145 133 124 110 100  93  91  89  82  78  77  77  77  74  69  68  66  60  59  58
 48  43  38  34  30  27  23  20  17  15  12   8   8   8   8   8   8   8   8   8   8   7   7   8
  8   8   7   1   0   0   0   0   0   0   0   0   0   0   0   0   0   0   0   0   0   0   0   0
  0   0   0   0
  0   0   0   0   0   0   0   0   0   0   0   0   0   0   0   0   0   0   0   0   0   0  10   0
 44 149 159 151 141 131 122 105  91  84  86  89  86  82  80  80  80  81  75  69  67  65  61  60
 58  49  43  38  34  30  26  21  18  16  14  10   8   8   8   8   8   8   8   7   8   8   7   7
  7   8   7   1   0   0   0   0   0   0   0   0   0   0   0   0   0   0   0   0   0   0   0   0
  0   0   0   0
  0   0   0   0   0   0   0   0   0   0   0   0   0   0   0   0   0   0   0   0   0   0  11   0
 45 151 159 148 139 130 119 103  91  85  85  84  82  82  81  78  78  81  80  74  74  73  68  64
 63  60  49  45  38  32  27  23  19  17  15  12   8   8   8   8   8   8   8   8   7   7   7   7
  7   7   6   1   0   0   0   0   0   0   0   0   0   0   0   0   0   0   0   0   0   0   0   0
  0   0   0   0
  0   0   0   0   0   0   0   0   0   0   0   0   0   0   0   0   0   0   0   0   0   0  10   0
 45 150 154 139 132 123 111 102  90  84  81  81  77  76  76  74  72  77  79  77  77  74  71  65
 60  59  54  48  40  36  30  26  22  18  16  14  10   8   8   8   8   8   8   7   7   7   7   7
  7   7   6   1   0   0   0   0   0   0   0   0   0   0   0   0   0   0   0   0   0   0   0   0
  0   0   0   0
  0   0   0   0   0   0   0   0   0   0   0   0   0   0   0   0   0   0   0   0   0   0  10   0
 45 148 151 138 131 117 106  96  89  90  88  83  81  80  78  80  78  75  76  79  77  73  70  67
 63  58  55  50  44  39  34  29  24  21  17  15  13   8   8   8   8   8   8   7   7   7   7   7
  7   7   6   1   0   0   0   0   0   0   0   0   0   0   0   0   0   0   0   0   0   0   0   0
  0   0   0   0
  0   0   0   0   0   0   0   0   0   0   0   0   0   0   0   0   0   0   0   0   0   0   9   0
 43 143 149 137 129 116 101  89  85  86  87  87  86  82  82  85  82  78  75  77  78  79  78  73
 68  65  58  53  49  44  38  33  28  24  20  16  14  11   7   8   8   8   8   7   7   7   7   7
  7   7   6   1   0   0   0   0   0   0   0   0   0   0   0   0   0   0   0   0   0   0   0   0
  0   0   0   0
  0   0   0   0   0   0   0   0   0   0   0   0   0   0   0   0   0   0   0   0   0   0   9   0
 42 140 147 135 125 115  99  87  86  84  81  85  82  80  81  81  81  83  81  80  77  76  77  75
 69  67  62  56  50  47  43  36  31  27  23  19  16  13   8   7   7   7   7   7   7   7   7   7
  7   7   7   1   0   0   0   0   0   0   0   0   0   0   0   0   0   0   0   0   0   0   0   0
  0   0   0   0
  0   0   0   0   0   0   0   0   0   0   0   0   0   0   0   0   0   0   0   0   0   0   9   0
 41 135 145 138 122 109  98  88  86  85  86  87  85  83  83  84  87  88  87  87  88  86  84  85
 77  69  64  59  54  48  44  39  33  29  25  21  18  15  11   7   8   7   7   7   7   7   7   7
  7   7   6   1   0   0   0   0   0   0   0   0   0   0   0   0   0   0   0   0   0   0   0   0
  0   0   0   0
  0   0   0   0   0   0   0   0   0   0   0   0   0   0   0   0   0   0   0   0   0   0   8   0
 41 135 143 133 122 109  94  89  90  89  88  86  83  80  82  86  85  87  89  90  97  99  98  99
100  90  74  60  56  53  46  41  37  32  26  23  19  16  13   8   7   7   7   7   7   7   7   7
  7   7   6   1   0   0   0   0   0   0   0   0   0   0   0   0   0   0   0   0   0   0   0   0
  0   0   0   0
  0   0   0   0   0   0   0   0   0   0   0   0   0   0   0   0   0   0   0   0   0   0   8   0
 40 135 142 129 119 108  96  92  94  92  89  84  81  81  81  84  85  86  93  99 103 111 109 109
111 109  96  81  63  55  51  45  41  36  32  26  21  17  15  11   7   7   7   7   7   7   6   7
  7   7   6   1   0   0   0   0   0   0   0   0   0   0   0   0   0   0   0   0   0   0   0   0
  0   0   0   0
  0   0   0   0   0   0   0   0   0   0   0   0   0   0   0   0   0   0   0   0   0   0   8   0
 38 136 142 127 118 104  98  99  97  90  91  91  88  89  89  90  92  96 102 106 107 115 119 119
119 113 106  99  84  62  54  49  43  39  34  28  23  19  16  14   9   7   7   7   7   7   7   7
  7   7   6   1   0   0   0   0   0   0   0   0   0   0   0   0   0   0   0   0   0   0   0   0
  0   0   0   0
  0   0   0   0   0   0   0   0   0   0   0   0   0   0   0   0   0   0   0   0   0   0   9   0
 41 137 141 124 115 102  97  95  97  90  88  90  92  97  98  97  98 100 106 106 109 114 122 122
122 118 111 108 103  84  62  56  50  42  36  31  26  21  17  15  12   7   7   7   7   7   7   7
  7   7   6   1   0   0   0   0   0   0   0   0   0   0   0   0   0   0   0   0   0   0   0   0
  0   0   0   0
  0   0   0   0   0   0   0   0   0   0   0   0   0   0   0   0   0   0   0   0   0   0   9   0
 44 139 142 127 114 101  95  91  90  91  90  88  92  98 102 101 102 104 104 109 115 118 122 124
121 124 120 116 118 105  80  61  53  46  40  34  28  23  19  16  14   9   7   7   7   7   7   7
  7   7   6   1   0   0   0   0   0   0   0   0   0   0   0   0   0   0   0   0   0   0   0   0
  0   0   0   0
  0   0   0   0   0   0   0   0   0   0   0   0   0   0   0   0   0   0   0   0   0   0   9   0
 42 140 144 127 113  96  94  93  91  93  94  91  90  95 102 105 108 113 109 113 116 117 126 128
131 129 122 122 126 123 101  74  54  50  43  36  31  26  22  18  15  12   7   7   7   6   6   6
  6   7   6   1   0   0   0   0   0   0   0   0   0   0   0   0   0   0   0   0   0   0   0   0
  0   0   0   0
  0   0   0   0   0   0   0   0   0   0   0   0   0   0   0   0   0   0   0   0   0   0   8   0
 37 137 145 125 112 100  98  95  91  92  92  90  88  89  97 102 106 123 123 118 120 120 133 136
139 136 131 127 126 134 119  94  65  49  46  39  33  28  23  20  16  14   9   6   7   6   6   6
  7   7   6   1   0   0   0   0   0   0   0   0   0   0   0   0   0   0   0   0   0   0   0   0
  0   0   0   0
  0   0   0   0   0   0   0   0   0   0   0   0   0   0   0   0   0   0   0   0   0   0   8   0
 36 135 142 123 110 100  97  95  92  90  92  92  90  87  89  95  99 120 130 124 129 128 130 139
150 153 148 139 128 127 120 100  79  58  48  44  37  30  26  22  18  15  11   6   7   6   6   6
  7   7   6   1   0   0   0   0   0   0   0   0   0   0   0   0   0   0   0   0   0   0   0   0
  0   0   0   0
  0   0   0   0   0   0   0   0   0   0   0   0   0   0   0   0   0   0   0   0   0   0   8   0
 40 136 135 119 112 106  98  96  96  95  96  97  94  93  92  94  98 109 122 127 130 139 138 139
156 164 164 156 141 134 121 112  89  64  51  46  41  34  29  24  19  16  13   8   6   6   6   7
  7   7   6   1   0   0   0   0   0   0   0   0   0   0   0   0   0   0   0   0   0   0   0   0
  0   0   0   0
  0   0   0   0   0   0   0   0   0   0   0   0   0   0   0   0   0   0   0   0   0   0   9   0
 43 138 137 115 106 112 110 101  98  98  99  99  93  92  96 101 105 109 115 124 141 152 153 156
162 169 169 163 159 149 133 121 101  73  60  51  45  39  32  26  21  17  14  10   6   6   6   6
  6   7   6   1   0   0   0   0   0   0   0   0   0   0   0   0   0   0   0   0   0   0   0   0
  0   0   0   0
  0   0   0   0   0   0   0   0   0   0   0   0   0   0   0   0   0   0   0   0   0   0   8   0
 39 134 137 115 108 106 107 109 106 101 101 104  99  97 104 118 124 125 129 130 146 160 158 166
174 176 179 176 163 156 146 131 107  80  68  59  49  41  34  29  24  19  15  12   7   6   6   6
  7   7   6   1   0   0   0   0   0   0   0   0   0   0   0   0   0   0   0   0   0   0   0   0
  0   0   0   0
  0   0   0   0   0   0   0   0   0   0   0   0   0   0   0   0   0   0   0   0   0   0   8   0
 38 131 132 110 106 105 103 105 108 104 105 109 113 112 113 121 133 131 133 147 155 160 156 169
190 193 187 174 165 165 159 144 123  93  63  58  53  45  37  31  26  21  17  14   9   6   6   6
  7   7   6   1   0   0   0   0   0   0   0   0   0   0   0   0   0   0   0   0   0   0   0   0
  0   0   0   0
  0   0   0   0   0   0   0   0   0   0   0   0   0   0   0   0   0   0   0   0   0   0   7   0
 38 127 123 107 105 104 103 102 101 105 106 109 116 120 120 120 131 142 141 151 165 165 169 186
197 198 184 170 164 166 169 149 128 110  76  60  53  49  43  35  27  23  19  15  11   6   6   6
  6   7   6   1   0   0   0   0   0   0   0   0   0   0   0   0   0   0   0   0   0   0   0   0
  0   0   0   0
  0   0   0   0   0   0   0   0   0   0   0   0   0   0   0   0   0   0   0   0   0   0   7   0
 39 126 122 108 106 106 106 104 102 108 114 115 123 134 142 143 148 156 163 171 184 184 184 189
196 196 187 178 165 160 168 154 124 108  89  72  61  53  46  37  31  26  20  16  13   7   6   7
  7   7   6   1   0   0   0   0   0   0   0   0   0   0   0   0   0   0   0   0   0   0   0   0
  0   0   0   0
  0   0   0   0   0   0   0   0   0   0   0   0   0   0   0   0   0   0   0   0   0   0   6   0
 36 118 117 108 109 105 112 110 105 103 117 130 131 147 165 166 164 171 179 180 179 186 192 194
200 199 190 183 177 164 167 163 135 102  82  71  64  58  51  39  33  26  21  17  14   9   6   7
  7   7   6   1   0   0   0   0   0   0   0   0   0   0   0   0   0   0   0   0   0   0   0   0
  0   0   0   0
  0   0   0   0   0   0   0   0   0   0   0   0   0   0   0   0   0   0   0   0   0   0   6   0
 34 114 114 107 113 110 117 121 118 113 106 122 137 154 174 181 187 189 179 176 177 186 192 193
204 201 194 193 185 172 165 162 148 110  86  72  62  56  50  43  35  29  23  18  15  11   6   7
  7   6   5   1   0   0   0   0   0   0   0   0   0   0   0   0   0   0   0   0   0   0   0   0
  0   0   0   0
  0   0   0   0   0   0   0   0   0   0   0   0   0   0   0   0   0   0   0   0   0   0   6   0
 32 111 114 112 114 111 111 124 130 131 117 114 139 153 173 193 199 191 182 182 189 199 198 195
201 204 202 200 192 180 171 164 157 138 110  81  65  58  50  45  38  32  25  20  16  13   8   6
  7   6   4   0   0   0   0   0   0   0   0   0   0   0   0   0   0   0   0   0   0   0   0   0
  0   0   0   0
  0   0   0   0   0   0   0   0   0   0   0   0   0   0   0   0   0   0   0   0   0   0   5   0
 34 108 109 105 104 106 104 103 107 113 121 136 153 160 174 188 194 190 190 194 197 203 205 198
200 203 201 199 195 189 180 172 166 152 133  95  65  61  54  46  41  33  27  22  17  14   9   6
  7   6   5   0   0   0   0   0   0   0   0   0   0   0   0   0   0   0   0   0   0   0   0   0
  0   0   0   0
  0   0   0   0   0   0   0   0   0   0   0   0   0   0   0   0   0   0   0   0   0   0   5   0
 30 106 113 106 104 107 109 100  99 100 102 124 150 160 175 184 191 198 194 198 203 207 208 204
201 202 204 202 199 194 181 167 161 153 143 115  67  63  55  48  42  36  29  23  18  15  11   7
  6   6   5   0   0   0   0   0   0   0   0   0   0   0   0   0   0   0   0   0   0   0   0   0
  0   0   0   0
  0   0   0   0   0   0   0   0   0   0   0   0   0   0   0   0   0   0   0   0   0   0   4   0
 25  99 111 111 112 112 111 113 117 116 107 101 126 150 167 186 190 195 194 198 202 208 208 209
207 202 202 201 193 187 180 176 167 151 141 120  84  61  56  50  43  38  31  24  19  15  12   6
  6   7   6   1   0   0   0   0   0   0   0   0   0   0   0   0   0   0   0   0   0   0   0   0
  0   0   0   0
  0   0   0   0   0   0   0   0   0   0   0   0   0   0   0   0   0   0   0   0   0   0   4   0
 27  98 107 107 107 112 114 119 119 115 108 105 122 146 155 169 181 179 180 187 190 195 206 210
209 202 196 198 191 181 176 175 172 158 140 121 101  74  56  51  45  39  32  26  19  16  12   7
  6   7   6   1   0   0   0   0   0   0   0   0   0   0   0   0   0   0   0   0   0   0   0   0
  0   0   0   0
  0   0   0   0   0   0   0   0   0   0   0   0   0   0   0   0   0   0   0   0   0   0   5   0
 28 103 111 107 105 108 110 109 111 116 119 115 120 137 158 169 174 178 184 188 184 180 185 194
199 200 197 201 201 187 181 181 184 174 142 117 106  91  63  52  47  40  33  26  21  17  13   8
  6   7   6   1   0   0   0   0   0   0   0   0   0   0   0   0   0   0   0   0   0   0   0   0
  0   0   0   0
  0   0   0   0   0   0   0   0   0   0   0   0   0   0   0   0   0   0   0   0   0   0   5   0
 31 105 110 110 110 112 118 111 106 109 116 119 122 137 162 175 170 167 176 190 191 190 191 188
188 193 198 200 205 201 197 198 190 175 148 117 113 100  76  61  49  43  35  27  22  17  14  10
  6   6   5   1   0   0   0   0   0   0   0   0   0   0   0   0   0   0   0   0   0   0   0   0
  0   0   0   0
  0   0   0   0   0   0   0   0   0   0   0   0   0   0   0   0   0   0   0   0   0   0   5   0
 28 108 117 110 113 122 131 126 122 122 119 126 138 148 152 163 171 168 161 168 180 192 200 203
199 199 198 203 204 202 200 196 189 170 151 121 113 112  92  72  56  45  35  29  22  16  13  10
  5   6   5   1   0   0   0   0   0   0   0   0   0   0   0   0   0   0   0   0   0   0   0   0
  0   0   0   0
  0   0   0   0   0   0   0   0   0   0   0   0   0   0   0   0   0   0   0   0   0   0   5   0
 26 104 119 119 114 115 126 133 142 144 139 143 148 144 133 150 174 176 168 163 173 185 195 206
210 209 205 203 206 204 190 186 187 172 149 131 115 112 102  79  59  44  34  28  22  17  13  11
  6   6   5   0   0   0   0   0   0   0   0   0   0   0   0   0   0   0   0   0   0   0   0   0
  0   0   0   0
  0   0   0   0   0   0   0   0   0   0   0   0   0   0   0   0   0   0   0   0   0   0   5   0
 28 109 120 123 130 119 122 133 139 144 141 147 154 157 143 150 178 188 184 173 179 193 202 205
207 208 206 197 196 200 185 177 183 173 153 143 123 110 104  88  66  45  34  29  23  18  15  12
  5   5   4   0   0   0   0   0   0   0   0   0   0   0   0   0   0   0   0   0   0   0   0   0
  0   0   0   0
  0   0   0   0   0   0   0   0   0   0   0   0   0   0   0   0   0   0   0   0   0   0   5   0
 25 106 123 127 130 131 128 139 142 136 133 145 152 163 156 159 176 186 194 189 191 200 205 203
202 206 204 195 192 189 177 172 178 173 156 148 132 115 103  88  72  53  39  30  23  18  15  13
  6   4   4   0   0   0   0   0   0   0   0   0   0   0   0   0   0   0   0   0   0   0   0   0
  0   0   0   0
  0   0   0   0   0   0   0   0   0   0   0   0   0   0   0   0   0   0   0   0   0   0   4   0
 26 103 120 123 130 127 128 135 143 144 144 148 150 157 154 159 179 182 186 196 200 197 196 195
193 200 201 197 191 190 183 175 173 173 161 143 127 116 100  82  71  56  41  29  23  19  15  12
  6   4   4   0   0   0   0   0   0   0   0   0   0   0   0   0   0   0   0   0   0   0   0   0
  0   0   0   0
  0   0   0   0   0   0   0   0   0   0   0   0   0   0   0   0   0   0   0   0   0   0   5   0
 27 108 122 118 118 124 132 128 127 129 141 154 165 178 173 161 171 187 186 195 201 195 189 187
185 186 190 196 191 186 184 176 168 169 164 143 119 114  99  84  68  52  39  30  26  19  15  12
  5   4   3   0   0   0   0   0   0   0   0   0   0   0   0   0   0   0   0   0   0   0   0   0
  0   0   0   0
  0   0   0   0   0   0   0   0   0   0   0   0   0   0   0   0   0   0   0   0   0   0   5   0
 28 112 121 117 112 114 131 139 127 117 119 145 168 183 187 179 179 183 185 186 191 197 196 188
187 190 194 196 189 184 187 181 175 176 173 156 126 113 107  91  73  60  47  36  26  17  15  12
  6   5   4   0   0   0   0   0   0   0   0   0   0   0   0   0   0   0   0   0   0   0   0   0
  0   0   0   0
  0   0   0   0   0   0   0   0   0   0   0   0   0   0   0   0   0   0   0   0   0   0   5   0
 25 106 116 112 116 112 116 139 148 140 132 142 157 166 177 187 190 188 187 185 188 195 201 194
193 200 202 195 190 184 192 191 184 180 181 163 134 121 112  95  77  62  45  32  21  16  15  12
  6   6   5   0   0   0   0   0   0   0   0   0   0   0   0   0   0   0   0   0   0   0   0   0
  0   0   0   0
  0   0   0   0   0   0   0   0   0   0   0   0   0   0   0   0   0   0   0   0   0   0   5   0
 29 111 118 109 113 115 117 119 129 145 148 143 147 163 174 181 188 188 189 194 200 200 202 202
204 201 194 190 191 179 170 176 176 171 178 169 143 125 107  84  71  55  39  27  20  16  15  11
  6   6   4   0   0   0   0   0   0   0   0   0   0   0   0   0   0   0   0   0   0   0   0   0
  0   0   0   0
  0   0   0   0   0   0   0   0   0   0   0   0   0   0   0   0   0   0   0   0   0   0   5   0
 28 108 120 120 121 121 123 123 124 133 142 143 144 158 176 185 192 195 195 195 197 201 199 199
200 196 191 183 181 174 150 152 161 161 165 171 161 145 123  89  70  52  35  26  20  16  16  10
  5   5   4   1   0   0   0   0   0   0   0   0   0   0   0   0   0   0   0   0   0   0   0   0
  0   0   0   0
  0   0   0   0   0   0   0   0   0   0   0   0   0   0   0   0   0   0   0   0   0   0   4   0
 25  99 111 115 118 123 126 116 120 124 122 131 142 148 160 177 188 197 198 197 195 194 194 194
195 189 188 180 178 170 151 141 152 160 155 158 165 163 149 116  80  51  29  23  19  17  16   8
  5   5   5   1   0   0   0   0   0   0   0   0   0   0   0   0   0   0   0   0   0   0   0   0
  0   0   0   0
  0   0   0   0   0   0   0   0   0   0   0   0   0   0   0   0   0   0   0   0   0   0   5   0
 30 108 115 109 112 114 125 129 121 123 124 121 129 137 147 150 158 179 188 191 193 192 193 193
195 187 180 179 174 161 157 143 143 153 158 161 159 155 148 119  88  67  41  28  23  18  15   8
  5   6   5   1   0   0   0   0   0   0   0   0   0   0   0   0   0   0   0   0   0   0   0   0
  0   0   0   0
  0   0   0   0   0   0   0   0   0   0   0   0   0   0   0   0   0   0   0   0   0   0   5   0
 27 106 119 118 118 115 124 145 149 146 142 134 125 126 139 152 153 160 175 187 192 195 195 188
190 194 178 175 170 160 153 147 147 146 153 163 159 151 142 122 101  83  57  32  23  17  16   9
  6   5   5   1   0   0   0   0   0   0   0   0   0   0   0   0   0   0   0   0   0   0   0   0
  0   0   0   0
  0   0   0   0   0   0   0   0   0   0   0   0   0   0   0   0   0   0   0   0   0   0   4   0
 27  99 110 116 120 120 126 133 144 143 138 138 134 136 140 154 166 174 178 183 186 192 196 180
171 181 183 176 173 166 150 143 150 147 144 148 152 141 129 112  88  62  43  26  18  17  18   9
  6   6   5   1   0   0   0   0   0   0   0   0   0   0   0   0   0   0   0   0   0   0   0   0
  0   0   0   0
  0   0   0   0   0   0   0   0   0   0   0   0   0   0   0   0   0   0   0   0   0   0   5   0
 29 105 110 109 115 118 115 110 117 124 120 116 125 134 136 142 161 182 188 190 192 193 192 184
174 168 173 177 179 166 146 134 136 138 137 132 128 114 105  88  64  45  31  21  17  19  17   8
  7   6   5   0   0   0   0   0   0   0   0   0   0   0   0   0   0   0   0   0   0   0   0   0
  0   0   0   0
  0   0   0   0   0   0   0   0   0   0   0   0   0   0   0   0   0   0   0   0   0   0   4   0
 28 101 107 105 109 114 113 109 109 118 122 108 107 120 126 125 141 159 172 183 197 199 195 188
183 169 166 175 178 165 155 135 127 134 137 132 121 108 101  86  61  40  27  20  18  20  14   7
  6   6   5   0   0   0   0   0   0   0   0   0   0   0   0   0   0   0   0   0   0   0   0   0
  0   0   0   0
  0   0   0   0   0   0   0   0   0   0   0   0   0   0   0   0   0   0   0   0   0   0   4   0
 26  98 105 102 103 110 113 107 106 108 115 106 104 120 128 135 153 158 162 177 196 200 190 185
182 177 173 174 173 171 158 151 143 144 139 134 130 108 106  92  61  37  25  19  18  18  10   6
  6   6   6   1   0   0   0   0   0   0   0   0   0   0   0   0   0   0   0   0   0   0   0   0
  0   0   0   0
  0   0   0   0   0   0   0   0   0   0   0   0   0   0   0   0   0   0   0   0   0   0   4   0
 24  98 105 100 101 102 107 112 113 108 111 105 101 115 126 140 155 161 158 166 186 200 194 186
176 167 172 175 175 171 151 146 143 140 124 118 119 104 108  94  55  33  23  17  16  12   5   5
  5   5   6   1   0   0   0   0   0   0   0   0   0   0   0   0   0   0   0   0   0   0   0   0
  0   0   0   0
  0   0   0   0   0   0   0   0   0   0   0   0   0   0   0   0   0   0   0   0   0   0   4   0
 27 102 110 105 101 101 100 109 118 119 119 110 103 109 119 131 140 150 153 161 175 188 191 184
178 169 173 182 184 177 164 148 132 119 101  94  92  92  97  78  45  29  20  15  13   7   4   5
  5   5   4   0   0   0   0   0   0   0   0   0   0   0   0   0   0   0   0   0   0   0   0   0
  0   0   0   0
  0   0   0   0   0   0   0   0   0   0   0   0   0   0   0   0   0   0   0   0   0   0   5   0
 29 100 104 104 101  98  95  96 108 119 126 121 110 112 120 129 137 140 153 161 153 156 168 166
183 193 188 189 189 185 167 149 135 124 114 103  97  86  71  50  39  27  18  14  11   6   5   5
  5   5   4   0   0   0   0   0   0   0   0   0   0   0   0   0   0   0   0   0   0   0   0   0
  0   0   0   0
  0   0   0   0   0   0   0   0   0   0   0   0   0   0   0   0   0   0   0   0   0   0   4   0
 27  99 104 101 103 100 100  94  99 114 112 117 117 112 117 127 130 131 144 152 141 136 159 172
174 186 180 175 181 178 162 148 136 133 131 129 109  71  51  44  33  21  16  13   8   4   5   5
  5   5   4   1   0   0   0   0   0   0   0   0   0   0   0   0   0   0   0   0   0   0   0   0
  0   0   0   0
  0   0   0   0   0   0   0   0   0   0   0   0   0   0   0   0   0   0   0   0   0   0   4   0
 26  99 104 102 107 105 105 103  98 113 113 107 117 113 106 108 115 127 138 151 158 155 160 172
172 171 164 160 168 158 146 152 138 125 131 124  82  52  46  35  25  19  15  12   6   4   5   4
  4   5   4   1   0   0   0   0   0   0   0   0   0   0   0   0   0   0   0   0   0   0   0   0
  0   0   0   0
  0   0   0   0   0   0   0   0   0   0   0   0   0   0   0   0   0   0   0   0   0   0   4   0
 26  98 104 100 104 106 104 109 103 107 114 110 118 124 114 114 120 131 140 158 166 161 156 154
160 165 159 161 164 153 149 141 129 122 107  77  51  45  38  30  23  18  15  11   5   5   5   5
  5   5   4   0   0   0   0   0   0   0   0   0   0   0   0   0   0   0   0   0   0   0   0   0
  0   0   0   0
  0   0   0   0   0   0   0   0   0   0   0   0   0   0   0   0   0   0   0   0   0   0   4   0
 26  96 103  99 100 105 103 102 106 104 107 108 114 120 119 119 121 132 145 159 163 158 157 149
142 154 153 150 144 141 131 118 116 106  77  58  50  39  34  27  22  17  14   8   4   5   4   5
  5   5   4   0   0   0   0   0   0   0   0   0   0   0   0   0   0   0   0   0   0   0   0   0
  0   0   0   0
  0   0   0   0   0   0   0   0   0   0   0   0   0   0   0   0   0   0   0   0   0   0   4   0
 25  95 100  99 102 104 108 103 107 115 102  96 102 106 106 112 122 138 150 157 169 165 154 156
155 155 149 128 111 107 107 112  99  80  65  58  41  36  32  25  19  16  11   5   4   4   4   4
  4   4   4   0   0   0   0   0   0   0   0   0   0   0   0   0   0   0   0   0   0   0   0   0
  0   0   0   0
  0   0   0   0   0   0   0   0   0   0   0   0   0   0   0   0   0   0   0   0   0   0   4   0
 25  94 102 101 102 102 106 108 104 114 114 110 103  96  98  95 101 113 123 138 166 174 166 167
169 151 127 108 107 106 112 103  81  70  61  52  41  33  29  21  17  14   9   4   4   4   4   4
  4   4   4   0   0   0   0   0   0   0   0   0   0   0   0   0   0   0   0   0   0   0   0   0
  0   0   0   0
  0   0   0   0   0   0   0   0   0   0   0   0   0   0   0   0   0   0   0   0   0   0   4   0
 27  99 104 101 100  98  99 102 108 114 109 108 108 101 108 101  91  92 100 120 154 175 181 174
159 148 132 125 126 125 105  84  72  65  59  44  39  33  25  18  15  12   5   3   4   4   4   4
  4   4   3   0   0   0   0   0   0   0   0   0   0   0   0   0   0   0   0   0   0   0   0   0
  0   0   0   0
  0   0   0   0   0   0   0   0   0   0   0   0   0   0   0   0   0   0   0   0   0   0   5   0
 27 106 111 100  98  96  96  99 107 114 107 103 103 104 109 109 105 106 112 121 144 166 162 151
145 147 138 139 138 108  74  68  63  57  48  37  32  29  23  16  14   9   4   4   4   4   3   3
  3   4   3   0   0   0   0   0   0   0   0   0   0   0   0   0   0   0   0   0   0   0   0   0
  0   0   0   0
  0   0   0   0   0   0   0   0   0   0   0   0   0   0   0   0   0   0   0   0   0   0   5   0
 27 103 110 103  98  96  95 101 103 106 103 101 101  99 102 106 101 109 128 137 144 145 141 137
128 124 122 121 104  81  69  61  56  46  38  33  29  25  20  16  13   4   3   4   3   3   3   3
  3   3   3   0   0   0   0   0   0   0   0   0   0   0   0   0   0   0   0   0   0   0   0   0
  0   0   0   0
  0   0   0   0   0   0   0   0   0   0   0   0   0   0   0   0   0   0   0   0   0   0   4   0
 26  99 106 102 100  98  98  98  98 103  96  90  95  98  99 104 103  97 126 150 137 123 126 123
107 104 106  97  76  71  68  57  50  42  35  31  26  22  19  16   8   3   3   3   3   3   3   3
  3   4   3   0   0   0   0   0   0   0   0   0   0   0   0   0   0   0   0   0   0   0   0   0
  0   0   0   0
  0   0   0   0   0   0   0   0   0   0   0   0   0   0   0   0   0   0   0   0   0   0   4   0
 25  99 106 100  97  95  96  93  91  96  91  87  87  90  97 101 107 101 114 128 115 104 101 104
108 105  98  90  77  64  59  52  44  37  33  28  23  19  16  11   3   3   3   3   3   3   3   3
  3   3   4   1   0   0   0   0   0   0   0   0   0   0   0   0   0   0   0   0   0   0   0   0
  0   0   0   0
  0   0   0   0   0   0   0   0   0   0   0   0   0   0   0   0   0   0   0   0   0   0   4   0
 26  96 105 105 101  95  92  90  88  94  94  88  89  86  89  95 100 106 104 100 104 102 105 106
104 104  94  77  66  60  52  46  38  33  29  25  20  16  13   5   3   3   3   3   3   3   3   4
  3   3   3   0   0   0   0   0   0   0   0   0   0   0   0   0   0   0   0   0   0   0   0   0
  0   0   0   0
  0   0   0   0   0   0   0   0   0   0   0   0   0   0   0   0   0   0   0   0   0   0   4   0
 26  95 103 103 100  94  92  90  88  91  92  91  91  90  90  90  92  97  99  95  96 100 105 105
 97 100  87  61  55  50  47  42  34  30  25  21  17  15   8   2   3   3   3   3   3   2   3   5
  3   3   3   0   0   0   0   0   0   0   0   0   0   0   0   0   0   0   0   0   0   0   0   0
  0   0   0   0
  0   0   0   0   0   0   0   0   0   0   0   0   0   0   0   0   0   0   0   0   0   0   4   0
 27  97 102  98  96  92  90  90  87  88  89  91  94  93  89  86  88  87  90  93  87  88  91  91
 91  95  80  54  48  45  42  36  30  26  22  18  16  11   3   3   3   3   3   3   2   2   3   3
  3   3   3   0   0   0   0   0   0   0   0   0   0   0   0   0   0   0   0   0   0   0   0   0
  0   0   0   0
  0   0   0   0   0   0   0   0   0   0   0   0   0   0   0   0   0   0   0   0   0   0   5   0
 31 102 100  92  90  88  84  83  81  79  85  86  83  83  81  83  81  81  86  88  80  75  82  84
 91  88  66  47  43  41  36  30  27  22  18  16  13   4   3   3   3   3   3   3   3   2   3   3
  3   3   2   0   0   0   0   0   0   0   0   0   0   0   0   0   0   0   0   0   0   0   0   0
  0   0   0   0
  0   0   0   0   0   0   0   0   0   0   0   0   0   0   0   0   0   0   0   0   0   0   4   0
 27  97 101  97  90  85  81  78  77  75  78  78  77  77  77  76  77  76  78  78  74  71  73  77
 77  64  47  43  38  34  30  26  23  19  16  13   5   3   4   3   3   3   3   3   3   2   3   3
  3   3   3   0   0   0   0   0   0   0   0   0   0   0   0   0   0   0   0   0   0   0   0   0
  0   0   0   0
  0   0   0   0   0   0   0   0   0   0   0   0   0   0   0   0   0   0   0   0   0   0   4   0
 25  89  90  90  90  83  80  77  74  72  72  74  75  75  72  70  72  69  72  74  70  67  60  59
 60  49  40  38  33  30  26  22  19  17  14   6   2   2   3   3   3   3   3   3   3   3   3   3
  3   3   3   0   0   0   0   0   0   0   0   0   0   0   0   0   0   0   0   0   0   0   0   0
  0   0   0   0
  0   0   0   0   0   0   0   0   0   0   0   0   0   0   0   0   0   0   0   0   0   0   3   0
 25  86  84  79  80  78  76  74  70  69  70  71  72  70  68  66  66  65  67  71  67  60  53  53
 47  38  35  33  29  27  23  19  17  14   6   3   3   3   3   3   3   3   3   3   3   3   2   3
  3   3   3   0   0   0   0   0   0   0   0   0   0   0   0   0   0   0   0   0   0   0   0   0
  0   0   0   0
  0   0   0   0   0   0   0   0   0   0   0   0   0   0   0   0   0   0   0   0   0   0   3   0
 24  88  86  75  73  73  73  71  70  70  66  68  67  64  65  63  61  60  63  64  61  54  46  43
 40  34  31  28  26  23  19  16  14   7   4   4   4   4   3   3   3   3   3   3   3   3   2   3
  4   3   3   0   0   0   0   0   0   0   0   0   0   0   0   0   0   0   0   0   0   0   0   0
  0   0   0   0
  0   0   0   0   0   0   0   0   0   0   0   0   0   0   0   0   0   0   0   0   0   0   3   0
 22  84  83  74  70  66  68  66  61  61  63  66  61  59  59  59  57  53  55  57  52  44  39  35
 33  30  28  25  22  19  16  13   7   4   4   4   4   4   3   3   3   3   3   3   3   3   3   3
  3   3   3   0   0   0   0   0   0   0   0   0   0   0   0   0   0   0   0   0   0   0   0   0
  0   0   0   0
  0   0   0   0   0   0   0   0   0   0   0   0   0   0   0   0   0   0   0   0   0   0   3   0
 24  87  77  67  68  65  64  63  61  64  67  61  55  55  53  51  51  51  49  46  39  36  33  31
 28  26  24  21  17  16  14   7   4   4   4   4   4   4   3   3   3   3   3   3   3   3   3   3
  3   3   3   0   0   0   0   0   0   0   0   0   0   0   0   0   0   0   0   0   0   0   0   0
  0   0   0   0
  0   0   0   0   0   0   0   0   0   0   0   0   0   0   0   0   0   0   0   0   0   0   3   0
 23  79  71  59  57  55  56  55  56  62  60  55  53  52  48  46  45  43  39  35  32  31  29  28
 26  22  20  16  15  13   7   4   4   4   4   4   4   3   3   3   3   4   4   3   3   3   3   3
  3   4   3   0   0   0   0   0   0   0   0   0   0   0   0   0   0   0   0   0   0   0   0   0
  0   0   0   0
  0   0   0   0   0   0   0   0   0   0   0   0   0   0   0   0   0   0   0   0   0   0   2   0
 23  68  62  57  51  49  48  46  45  45  47  49  45  42  40  39  36  33  32  31  29  27  26  24
 21  18  16  14  11   7   5   5   4   4   4   4   4   4   4   3   3   4   3   3   3   3   3   3
  3   4   4   0   0   0   0   0   0   0   0   0   0   0   0   0   0   0   0   0   0   0   0   0
  0   0   0   0
  0   0   0   0   0   0   0   0   0   0   0   0   0   0   0   0   0   0   0   0   0   0   2   0
 21  62  56  51  48  46  43  42  42  42  39  39  40  38  36  34  31  30  28  27  25  24  22  19
 16  14  12   9   6   5   5   5   4   4   4   4   4   4   4   4   4   4   4   3   3   3   3   3
  3   4   3   0   0   0   0   0   0   0   0   0   0   0   0   0   0   0   0   0   0   0   0   0
  0   0   0   0
  0   0   0   0   0   0   0   0   0   0   0   0   0   0   0   0   0   0   0   0   0   0   1   0
 14  53  50  44  43  41  39  38  37  36  36  35  34  32  31  30  28  26  25  23  22  20  16  14
 13  10   7   6   6   5   5   4   5   5   4   4   4   4   4   3   4   4   4   3   3   3   3   3
  3   4   3   0   0   0   0   0   0   0   0   0   0   0   0   0   0   0   0   0   0   0   0   0
  0   0   0   0
  0   0   0   0   0   0   0   0   0   0   0   0   0   0   0   0   0   0   0   0   0   0   1   0
  8  43  42  36  35  35  35  34  34  33  32  31  29  27  26  25  24  24  22  20  18  15  13  11
  8   6   6   6   5   5   5   5   4   4   4   4   5   4   4   4   4   5   4   4   4   3   3   3
  3   4   3   0   0   0   0   0   0   0   0   0   0   0   0   0   0   0   0   0   0   0   0   0
  0   0   0   0
  0   0   0   0   0   0   0   0   0   0   0   0   0   0   0   0   0   0   0   0   0   0   1   0
  6  35  35  33  32  31  30  29  28  27  26  25  23  23  23  21  21  19  18  15  13  10   8   6
  6   6   6   6   6   6   5   5   5   4   4   5   5   4   4   5   4   5   5   4   4   4   4   4
  4   4   3   0   0   0   0   0   0   0   0   0   0   0   0   0   0   0   0   0   0   0   0   0
  0   0   0   0
  0   0   0   0   0   0   0   0   0   0   0   0   0   0   0   0   0   0   0   0   0   0   0   0
  5  31  32  30  29  27  26  24  23  22  22  20  19  19  19  17  16  14  12   9   7   6   5   6
  6   6   6   6   6   6   6   5   5   5   4   5   4   4   5   5   5   5   5   4   4   4   4   4
  4   4   3   0   0   0   0   0   0   0   0   0   0   0   0   0   0   0   0   0   0   0   0   0
  0   0   0   0
  0   0   0   0   0   0   0   0   0   0   0   0   0   0   0   0   0   0   0   0   0   0   0   0
  4  27  26  22  22  20  20  19  18  17  17  16  16  15  14  12  11   9   7   6   6   6   6   6
  6   5   6   6   6   6   6   5   5   5   5   5   5   4   5   5   5   5   4   4   4   4   4   4
  4   4   3   0   0   0   0   0   0   0   0   0   0   0   0   0   0   0   0   0   0   0   0   0
  0   0   0   0
  0   0   0   0   0   0   0   0   0   0   0   0   0   0   0   0   0   0   0   0   0   0   0   0
  2  16  17  16  16  16  16  15  15  14  14  14  13  11   9   7   6   6   8   7   6   7   6   6
  6   6   6   6   5   6   6   5   5   5   5   5   5   4   5   5   5   5   5   4   4   4   4   4
  4   4   4   0   0   0   0   0   0   0   0   0   0   0   0   0   0   0   0   0   0   0   0   0
  0   0   0   0
  0   0   0   0   0   0   0   0   0   0   0   0   0   0   0   0   0   0   0   0   0   0   0   0
  1  13  14  14  14  14  13  12  12  11   9   8   7   6   6   6   6   6   7   6   6   7   6   6
  6   6   6   6   6   6   6   5   5   5   5   5   5   5   5   5   6   5   5   5   4   4   4   4
  5   5   4   0   0   0   0   0   0   0   0   0   0   0   0   0   0   0   0   0   0   0   0   0
  0   0   0   0
  0   0   0   0   0   0   0   0   0   0   0   0   0   0   0   0   0   0   0   0   0   0   0   0
  1   7   8   8   8   7   7   7   6   6   6   6   6   6   6   6   6   6   6   6   7   6   6   6
  6   5   6   6   6   6   6   5   5   6   5   5   6   5   5   5   7   6   5   5   4   4   4   4
  5   4   4   0   0   0   0   0   0   0   0   0   0   0   0   0   0   0   0   0   0   0   0   0
  0   0   0   0
  0   0   0   0   0   0   0   0   0   0   0   0   0   0   0   0   0   0   0   0   0   0   0   0
  0   5   6   5   6   5   5   6   6   6   6   6   6   6   5   6   6   6   6   6   6   6   6   6
  5   5   5   6   6   6   6   5   5   5   5   5   5   5   5   5   5   5   5   5   5   4   4   4
  4   5   4   0   0   0   0   0   0   0   0   0   0   0   0   0   0   0   0   0   0   0   0   0
  0   0   0   0
  0   0   0   0   0   0   0   0   0   0   0   0   0   0   0   0   0   0   0   0   0   0   0   0
  1   5   6   6   6   6   6   6   6   6   6   6   6   6   5   5   5   5   6   6   6   6   6   6
  6   5   6   6   6   6   6   6   6   6   5   5   5   6   6   5   5   5   5   5   5   4   4   5
  5   5   5   0   0   0   0   0   0   0   0   0   0   0   0   0   0   0   0   0   0   0   0   0
  0   0   0   0
