P2
# 8-bit pgm gray
100 100
255
  0 190 223 218 221 221 223 223 218 215 214 212 209 204 188 163 158 158 164 162 160 154 143 132
124 118 106  92  71  51  37  31  21  13   9   7   5   3   1   0   0   0   0   0   0   0   0   0
  0   0   0   0   0   0   0   0   0   0   0   0   0   0   8   0  64 152 200 201 181 188 200 210
166  73   0  10  11   0  33 165 225 238 241 242 243 243 243 243 243 243 243 243 243 243 243 243
241 250 218  29
  0 188 223 217 220 221 221 221 219 213 212 209 206 198 175 159 157 158 160 156 160 157 140 129
128 116 100  84  65  49  42  33  23  15  11   8   6   4   2   1   0   0   0   0   0   0   0   0
  0   0   0   0   0   0   0   0   0   0   0   0   0   0   9   0  71 161 205 221 229 230 226 212
167  69   0  10  12   0  43 170 226 238 241 242 243 243 243 243 243 243 243 243 243 243 243 243
241 250 218  28
  0 187 223 216 219 220 218 218 218 215 210 206 202 189 165 155 156 160 160 153 154 154 142 133
129 110  92  81  62  53  45  33  25  17  12   9   6   5   3   1   0   0   0   0   0   0   0   0
  0   0   0   0   0   0   0   0   0   0   0   0   0   0   8   0  77 164 207 221 227 228 226 212
164  64   0  10  12   0  50 173 227 238 241 242 243 243 243 243 243 243 243 243 243 243 243 243
241 250 218  28
  0 188 223 216 219 219 217 215 216 217 209 206 198 183 162 154 156 160 161 157 153 152 147 130
123 114  99  85  70  58  44  34  25  20  14   9   7   5   3   1   0   0   0   0   0   0   0   0
  0   0   0   0   0   0   0   0   0   0   0   0   0   1   7   0  79 164 190 174 170 188 185 172
160  57   0   9  13   0  55 176 228 239 241 242 243 243 243 243 243 243 243 243 243 243 243 243
241 250 218  29
  0 190 224 216 220 219 215 214 217 215 207 203 192 175 158 155 156 153 153 154 155 155 147 130
125 112  98  85  71  58  46  36  29  21  15  11   8   6   4   2   1   0   0   0   0   0   0   0
  0   0   0   0   0   0   0   0   0   0   0   0   0   1   6   0  81 163 174 131 115 102  97 137
153  49   0   8  13   0  59 178 229 239 241 242 243 243 243 243 243 243 243 243 243 243 243 243
241 250 218  29
  0 190 226 216 217 219 215 215 219 212 207 200 189 171 159 160 157 154 156 155 155 156 146 134
123 110  98  84  71  58  50  40  34  23  16  12   9   7   5   3   1   0   0   0   0   0   0   0
  0   0   0   0   0   0   0   0   0   0   0   0   0   1   5   0  84 160 162 124 128  97  97 149
147  44   0   7  14   0  65 181 229 239 241 242 243 243 243 243 243 243 243 243 243 243 243 243
241 250 218  28
  0 189 225 215 216 214 217 217 214 212 209 200 186 168 156 156 154 154 152 149 151 155 144 132
127 111  97  84  73  62  51  43  34  24  18  14  12   8   6   4   2   1   0   0   0   0   0   0
  0   0   0   0   0   0   0   0   0   0   0   0   0   2   4   0  91 141 110 133 158 185 169 159
145  38   0   7  14   0  69 182 229 239 241 242 242 243 243 243 243 243 243 243 243 243 243 243
241 250 218  28
  0 189 223 214 215 212 217 217 210 210 207 195 180 160 153 151 152 153 150 149 152 157 144 131
123 109  98  87  76  64  53  45  35  27  21  17  13  10   8   5   3   2   1   0   0   0   0   0
  0   0   0   0   0   0   0   0   0   0   0   0   0   2   3   0  90 150 170 194 208 214 205 186
135  33   0   6  14   0  70 183 229 239 241 242 242 243 243 243 243 243 243 243 243 243 243 243
241 250 217  28
  0 190 224 214 214 215 213 211 210 206 200 187 169 153 152 151 151 153 151 152 152 151 141 133
121 107  98  86  76  68  57  47  37  30  25  20  15  12   9   6   4   2   1   1   0   0   0   0
  0   0   0   0   0   0   0   0   0   0   0   0   0   2   1   0  79 140 175 191 200 201 196 176
120  25   0   4  14   0  71 183 230 239 241 242 243 243 243 243 243 243 243 243 243 243 243 243
241 250 218  29
  0 190 224 214 216 212 209 208 209 203 196 185 164 152 152 150 150 149 150 149 148 148 139 128
121 108 100  91  83  73  61  52  44  36  30  24  17  13  11   8   6   4   2   2   1   0   0   0
  0   0   0   0   0   0   0   0   0   0   0   0   0   1   0   4  48  83 107 124 136 142 141 126
 87  19   0   2  15   0  72 184 229 239 241 242 243 243 243 243 243 243 243 243 243 243 243 243
241 250 218  29
  0 190 223 215 214 210 207 208 207 196 192 180 159 151 152 154 157 154 151 146 147 147 137 129
120 113 104  94  87  75  65  55  48  41  34  28  22  18  14  11   8   6   4   2   1   0   0   0
  0   0   0   0   0   0   0   0   0   0   0   0   0   0   0   1   0   0   0   0   5  21  30  32
 27   7   0   0  15   0  73 183 229 238 241 242 243 243 243 243 243 243 243 243 243 243 243 243
241 250 217  28
  0 189 222 213 212 210 206 207 203 190 191 177 156 153 155 156 158 158 150 148 150 142 135 127
120 117 108  96  89  79  69  61  54  46  41  34  27  22  18  13  10   7   5   3   2   0   0   0
  0   0   0   0   0   0   0   0   0   0   0   0   0   0   0   0   0   2   2   1   0   0   0   0
  0   0   0   0  14   0  75 183 228 238 241 242 243 243 243 243 243 243 243 243 243 243 243 243
241 250 218  29
  0 187 220 211 213 208 205 208 200 191 191 178 161 162 160 155 151 145 142 148 146 141 135 126
122 115 109 101  93  83  74  68  60  53  47  39  32  27  21  16  13  10   7   5   3   1   0   0
  0   0   0   0   0   0   0   0   0   0   0   0   0   0   0   0   1   2   3   4   6   7   7   6
  3   0   0   0  14   0  79 184 228 238 241 242 243 243 243 243 243 243 243 243 243 243 243 243
241 250 218  29
  0 187 220 210 211 207 203 201 194 190 181 169 163 161 162 154 150 145 145 146 142 138 136 131
122 118 115 101  91  84  82  75  67  60  52  45  39  32  26  21  16  13  10   7   4   2   1   0
  0   0   0   0   0   0   0   0   0   0   0   0   0   0   0   0   0   0   0   0   0   0   0   0
  0   0   0   0  14   0  81 184 228 238 241 242 243 243 243 243 243 243 243 243 243 243 243 243
241 250 218  28
  0 186 218 209 209 204 201 197 191 190 177 158 158 156 161 151 148 152 148 141 140 140 137 130
125 123 114 101  95  90  85  83  76  66  61  54  47  40  32  25  19  15  12   9   6   4   2   0
  0   0   0   0   0   0   0   0   0   0   0   0   0   0   0   0   0   0   0   0   0   0   0   0
  0   0   0   0  14   0  79 184 228 238 241 242 243 243 243 243 243 243 243 243 243 243 243 243
241 250 218  28
  0 182 216 208 208 202 198 195 191 187 171 153 153 158 158 152 150 152 146 141 140 142 138 131
130 124 117 111 104  98  93  90  81  72  69  59  53  47  39  31  25  21  17  13   9   6   4   1
  0   0   0   0   0   0   0   0   0   0   0   0   0   0   0   0   1   7   3   0   0   0   0   2
  1   0   0   0  14   0  80 184 228 238 241 242 243 243 243 243 243 243 243 243 243 243 243 243
241 250 218  28
  0 182 216 208 206 198 195 191 191 187 169 157 152 149 159 162 152 147 146 144 140 138 135 134
129 125 121 116 114 107 100  91  86  83  77  68  62  55  48  40  33  26  20  16  12   8   6   3
  1   0   0   0   0   0   0   0   0   0   0   0   0   0   0   0   1   9   2   0   0   0   4  10
  2   0   0   0  14   0  81 185 228 239 241 242 242 243 243 243 243 243 243 243 243 243 243 243
241 250 218  29
  0 183 215 207 205 196 195 192 193 184 166 160 154 151 159 156 151 148 142 140 140 139 136 136
132 129 123 122 119 114 108 100  95  88  83  80  73  64  55  46  39  33  27  21  15  11   8   5
  3   1   0   0   0   0   0   0   0   0   0   0   0   0   0   0   0   6   2   0   0   0   2   9
  2   0   0   0  15   0  81 185 228 238 241 242 243 243 243 243 243 243 243 243 243 243 243 243
241 249 218  29
  0 182 215 206 201 194 194 191 190 178 162 160 159 158 153 156 150 147 141 141 140 140 143 140
136 132 131 132 126 121 117 109 105 100  96  86  76  68  61  54  48  41  33  25  20  15  11   7
  5   2   0   0   0   0   0   0   0   0   0   0   0   0   0   0   0   2   1   0   0   0   0   9
  7   0   0   0  15   0  82 185 228 238 241 242 243 243 243 243 243 243 243 243 243 243 243 243
241 249 218  29
  0 182 214 205 198 193 194 193 189 174 158 154 155 151 148 156 152 147 145 143 144 142 140 137
137 138 136 136 135 129 124 123 119 110  97  87  80  75  70  65  59  51  43  35  27  22  17  12
  8   5   2   0   0   0   0   0   0   0   0   0   0   0   0   0   0   0   0   0   0   0   1   4
  2   0   0   0  14   0  82 185 228 238 241 242 242 243 243 243 243 243 243 243 243 243 243 243
241 249 218  28
  0 180 212 203 195 194 195 195 187 162 150 154 153 149 149 153 156 150 149 143 142 139 136 137
139 139 139 144 150 150 145 140 130 112 104  99  90  83  75  69  61  54  50  42  33  26  20  16
 11   7   4   2   0   0   0   0   0   0   0   0   0   0   0   0   0   0   0   0   0   0   0   0
  0   0   0   0  14   0  83 185 227 238 241 242 242 243 243 243 243 243 243 243 243 243 243 243
241 250 218  28
  0 178 211 198 195 197 196 193 179 157 152 159 153 147 148 148 154 155 153 149 144 146 152 156
157 158 167 168 163 156 150 143 130 121 115 107  97  90  84  76  66  57  49  42  36  30  24  18
 14  10   6   4   1   0   0   0   0   0   0   0   0   0   0   0   0   0   0   0   0   0   0   0
  0   0   0   0  14   0  86 186 228 238 241 242 242 243 243 243 243 243 243 243 243 243 243 243
241 250 218  29
  0 178 209 193 192 194 196 193 176 158 159 156 149 149 148 149 150 156 156 159 164 173 181 185
188 189 175 158 150 147 141 136 130 122 115 108  99  93  89  80  72  66  57  48  40  33  28  23
 18  13   9   6   3   1   0   0   0   0   0   0   0   0   0   0   0   0   0   0   0   0   0   0
  0   0   0   0  15   0  89 188 228 238 241 242 242 243 243 243 243 243 243 243 243 243 243 243
241 250 218  29
  0 177 202 189 193 194 193 189 170 158 162 154 149 150 153 156 154 159 165 171 185 190 194 196
196 185 146 144 143 140 138 134 132 126 117 110 104  96  87  80  75  71  68  62  51  42  34  27
 23  17  12   9   6   3   1   0   1   0   0   0   0   0   0   0   0   0   0   0   0   0   0   0
  0   0   0   0  15   0  94 191 229 238 241 242 242 243 243 243 243 243 243 243 243 243 243 243
241 249 218  29
  2 175 199 190 193 195 193 182 161 162 162 158 154 152 151 149 153 157 165 172 183 188 195 193
188 163 143 147 147 147 141 147 154 141 121 112 107 102  97  91  85  78  73  67  60  50  40  33
 28  22  15  11   8   5   2   1   0   0   0   0   0   0   0   0   0   0   0   0   0   0   0   0
  0   0   0   0  14   0 100 194 230 238 241 242 242 243 243 243 243 243 243 243 243 243 243 243
241 249 218  29
  5 173 199 190 193 194 192 177 161 163 156 158 160 155 149 150 150 150 156 161 166 177 184 180
167 146 148 148 153 154 144 155 162 151 126 113 109 106 103  98  94  90  82  73  68  59  50  43
 37  28  20  15  11   6   4   2   0   0   0   0   0   0   0   0   0   0   0   0   0   0   0   0
  0   0   0   1  13   0 108 197 230 239 241 242 243 243 243 243 243 243 243 243 243 243 243 243
241 249 218  28
  1 171 200 191 195 196 190 174 162 159 153 153 153 153 153 152 150 157 160 155 152 150 147 147
147 146 143 140 144 141 143 147 147 137 125 119 113 109 106 103  98  95  90  81  76  68  58  51
 43  34  27  19  14   9   6   3   1   0   0   2   0   0   0   0   0   0   0   0   0   0   0   0
  0   0   0   2  11   0 115 200 231 239 241 242 242 243 243 243 243 243 243 243 243 243 243 243
241 249 218  29
  0 169 200 190 194 196 191 172 156 154 153 151 150 149 151 154 156 155 147 145 145 141 145 151
142 137 139 136 142 138 142 143 133 131 130 126 121 117 113 111 109 103  97  88  82  73  66  59
 48  40  34  26  18  13   8   5   3   1   0   0   0   0   0   0   0   0   0   0   0   0   0   0
  0   0   0   2  10   0 120 202 231 239 241 242 242 243 243 243 243 243 243 243 243 243 243 243
241 249 218  29
  0 168 196 186 193 196 186 165 155 152 153 150 149 151 153 154 153 150 146 143 143 143 147 150
145 143 144 144 148 141 139 142 135 134 133 130 125 123 120 119 119 115 107  97  89  82  74  66
 58  48  38  28  22  17  12   8   5   2   0   0   0   0   0   0   0   0   0   0   0   0   0   0
  0   0   0   3   8   0 125 204 232 239 241 242 242 243 243 243 243 243 243 243 243 243 243 243
241 249 218  29
  1 171 199 190 193 191 177 159 153 152 153 156 155 154 155 151 154 157 152 141 142 141 143 144
140 143 142 140 147 144 139 142 142 137 133 130 130 135 133 129 126 121 113 104  99  91  82  71
 61  54  44  33  26  20  15  11   7   4   2   0   0   0   0   0   0   0   0   0   0   0   0   0
  0   0   0   4   5   0 129 206 233 239 241 242 242 243 243 243 243 243 243 243 243 243 243 243
241 249 218  29
  0 169 194 185 190 187 173 158 155 151 154 158 156 152 151 148 150 152 147 144 147 146 145 143
137 139 139 139 140 144 143 143 144 143 143 139 134 139 136 135 131 124 123 116 110 104  94  84
 71  62  48  40  32  25  19  15  10   6   4   1   0   0   0   0   0   0   0   0   0   0   0   0
  0   0   0   5   2   0 134 208 233 240 241 242 243 243 243 243 243 243 243 243 243 243 243 243
241 249 218  29
  4 165 188 187 192 183 169 156 154 154 154 152 153 155 153 149 149 150 148 148 146 146 147 142
140 141 141 139 135 136 134 137 139 140 143 144 145 138 130 131 131 130 129 125 118 109 101  96
 86  77  61  47  39  31  24  18  13   9   6   4   1   0   0   0   0   0   0   0   0   0   0   0
  0   0   0   5   1   0 136 209 233 240 241 242 242 243 243 243 243 243 243 243 243 243 243 243
241 249 218  28
  9 162 187 186 188 180 162 152 152 151 149 149 149 151 150 150 151 153 150 146 142 142 144 143
141 142 139 133 133 134 131 133 132 132 135 136 140 143 135 133 133 131 129 127 122 114 107 101
 94  87  78  61  46  36  29  23  16  12   8   6   2   0   0   0   0   0   0   0   0   0   0   0
  0   0   0   5   2   0 136 209 233 240 241 242 242 243 243 243 243 243 243 243 243 243 243 243
241 250 218  29
  9 161 187 185 185 176 159 151 153 150 149 150 148 145 145 143 143 144 144 142 143 140 139 144
142 142 138 133 133 133 134 134 132 132 132 133 131 139 143 136 134 131 128 126 122 116 114 111
103  93  86  77  61  47  36  28  22  15  11   8   4   1   0   0   0   0   0   0   0   0   0   0
  0   0   0   5   2   0 135 209 233 240 241 242 243 243 243 243 243 243 243 243 243 243 243 243
241 249 218  29
  0 160 192 187 182 170 154 152 152 150 151 149 146 144 142 142 140 140 139 137 139 137 137 141
139 138 138 138 135 134 134 136 134 134 131 130 131 133 140 135 131 128 126 122 118 114 110 109
106  98  90  84  76  66  51  36  28  21  14  10   6   3   1   0   0   0   0   0   0   0   0   0
  0   0   0   5   2   0 135 209 234 240 241 242 243 243 243 243 243 243 243 243 243 243 243 243
241 249 218  29
  0 158 191 188 184 171 155 151 151 149 149 146 147 146 143 143 143 142 141 139 138 137 139 141
139 140 138 135 134 132 135 135 133 133 132 130 129 130 132 128 125 126 127 124 119 116 112 109
104 100  98  87  79  74  64  51  36  26  20  13   9   6   2   0   0   0   0   0   0   0   0   0
  0   0   0   5   1   0 136 209 234 240 241 242 242 243 243 243 243 243 243 243 243 243 243 243
241 249 217  28
  0 162 194 188 184 169 156 152 152 152 152 150 146 146 146 147 144 142 143 140 138 138 141 138
137 138 136 133 135 135 138 138 134 132 129 127 127 129 131 126 127 128 128 127 125 122 116 114
108 102 103  97  82  77  68  59  50  35  23  17  13   7   3   1   0   0   0   0   0   0   0   0
  0   0   0   5   1   0 137 210 234 240 241 242 243 243 243 243 243 243 243 243 243 243 243 243
241 249 218  29
  0 161 193 188 178 164 154 155 153 152 150 149 147 148 147 145 147 144 137 138 139 138 142 139
138 138 136 135 136 134 136 141 139 135 133 129 128 131 136 134 129 129 130 131 131 128 123 117
112 108 103 102  94  80  73  64  58  48  30  20  15   9   6   3   0   0   0   0   0   0   0   0
  0   0   0   6   0   0 139 211 234 240 241 242 243 243 243 243 243 243 243 243 243 243 243 243
241 249 217  28
  0 162 193 184 176 163 155 158 155 150 150 149 147 145 145 146 147 143 141 143 143 146 143 140
141 138 136 135 136 136 135 137 139 139 135 132 131 133 134 139 137 132 132 131 130 129 127 122
119 114 109 103 100  90  78  71  62  49  38  26  18  12   7   4   1   0   0   0   0   0   0   0
  0   0   0   6   0   0 141 211 235 240 242 242 243 243 243 243 243 243 243 243 243 243 243 243
241 249 217  28
  0 161 192 179 173 160 154 154 154 152 150 147 145 143 146 147 146 144 149 150 146 146 142 139
140 140 136 134 134 136 138 139 139 136 135 133 132 133 133 136 142 139 133 131 129 132 135 132
128 123 115 109 104 100  89  76  67  54  44  33  23  15   9   6   3   0   0   0   0   0   0   0
  0   0   0   7   0   4 144 213 235 240 242 242 243 243 243 243 243 243 243 243 243 243 243 243
241 249 218  29
  0 160 190 179 170 158 154 154 152 149 147 146 147 151 152 149 149 151 154 152 146 145 142 141
140 139 136 136 134 135 141 141 140 137 137 135 133 133 136 135 136 140 136 135 135 135 135 135
132 129 124 117 111 105  94  86  75  63  52  40  30  22  11   8   4   2   0   0   0   0   0   0
  0   0   0   7   0  12 146 213 235 240 242 242 243 243 243 243 243 243 243 243 243 243 243 243
241 249 218  29
  0 159 186 176 171 156 153 155 153 151 151 151 152 151 149 147 149 151 147 147 148 145 141 143
143 140 139 141 140 141 141 141 138 139 144 140 136 136 135 137 137 141 141 135 136 136 134 133
133 132 129 125 119 113  98  90  86  74  60  49  36  28  18   9   6   3   1   0   0   0   0   0
  0   0   0   7   0  15 147 214 236 240 242 242 243 243 243 243 243 243 243 243 243 243 243 243
241 250 218  28
  0 158 184 171 165 160 154 153 155 151 153 153 148 145 144 144 146 146 145 146 147 145 140 143
142 142 143 142 146 146 144 144 141 141 144 143 138 137 135 136 137 140 143 137 133 133 135 135
132 130 130 128 126 126 114  93  93  87  72  58  42  30  23  13   8   4   2   0   0   0   0   0
  0   0   0   8   0  14 148 215 236 240 242 242 243 243 243 243 243 243 243 243 243 243 243 243
241 249 218  28
  0 161 187 172 163 160 157 155 154 152 150 151 148 147 147 145 148 147 146 145 147 144 142 143
144 145 143 143 145 144 141 138 139 140 140 143 143 137 136 138 142 149 150 141 133 133 135 135
135 135 132 130 125 132 139 109  92  88  81  65  51  36  25  17  10   6   3   1   0   0   0   0
  0   0   0   8   0  16 149 216 236 241 242 242 243 243 243 243 243 243 243 243 243 243 243 243
241 249 218  28
  0 162 185 169 157 155 160 158 153 150 150 152 150 148 148 146 145 145 146 143 146 146 146 144
143 143 142 143 143 142 139 137 139 139 137 140 146 144 142 142 144 147 149 147 140 137 136 132
133 134 134 132 128 126 138 134 102  86  78  71  59  46  31  21  14   7   4   1   0   0   0   0
  0   0   0   9   0  24 153 218 237 241 242 243 243 243 243 243 243 243 243 243 243 243 243 243
241 249 218  29
  3 158 180 165 158 156 152 151 156 152 149 148 147 148 150 148 147 146 147 144 145 145 143 145
146 144 143 141 142 141 138 138 140 138 136 137 139 142 143 138 135 135 136 141 141 141 141 138
133 131 132 133 135 130 121 140 123  92  83  74  63  51  38  27  18  10   6   2   0   0   0   0
  0   0   0  10   0  34 158 220 237 241 242 243 243 243 243 243 243 243 243 243 243 243 243 243
241 249 218  28
  4 159 180 163 159 153 151 151 154 152 147 144 143 143 143 144 145 146 145 145 148 147 147 149
157 147 140 141 139 141 142 140 141 141 140 139 138 137 139 138 137 134 134 140 139 136 138 142
141 139 140 138 135 138 129 129 136 106  92  78  70  58  42  34  22  12   7   4   1   0   0   0
  0   0   0  11   0  41 161 221 238 241 242 243 243 243 243 243 243 243 243 243 243 243 243 243
241 249 218  29
  0 155 177 160 156 152 152 152 154 152 148 146 144 143 142 142 146 145 146 149 151 149 149 147
150 150 145 143 138 137 143 143 141 143 143 140 136 134 136 139 140 137 136 140 142 138 137 138
139 144 145 140 136 136 138 126 131 126  98  81  73  68  47  40  27  15   8   5   2   0   0   0
  0   0   0  11   0  40 161 221 238 241 242 242 243 243 243 243 243 243 243 243 243 243 243 243
241 249 218  29
  0 154 175 158 157 152 155 154 151 150 150 149 148 146 145 144 144 147 147 147 150 147 144 147
146 147 147 148 147 142 143 146 146 146 141 139 137 135 135 134 134 138 137 138 143 144 140 137
138 141 141 138 134 131 135 131 122 132 112  89  76  73  59  41  32  18  12   6   3   0   0   0
  0   0   0  11   0  37 160 222 238 241 242 243 243 243 243 243 243 243 243 243 243 243 243 243
241 249 218  29
  0 153 173 157 156 153 152 153 150 150 150 148 146 146 145 146 145 147 144 141 149 148 146 147
144 144 142 144 146 148 151 154 152 150 144 139 138 137 135 134 132 133 134 137 140 137 137 137
139 138 136 135 130 133 135 131 121 130 129  97  83  73  65  47  36  23  13   8   3   1   0   0
  0   0   0  11   0  38 161 222 238 241 242 243 243 243 243 243 243 243 243 243 243 243 243 243
241 249 218  29
  3 150 167 153 155 152 151 150 151 152 148 149 149 147 145 146 149 146 143 142 145 146 147 148
144 144 145 145 143 143 149 155 148 145 147 140 137 138 136 134 134 135 135 135 136 133 135 135
135 136 135 134 134 136 134 134 128 126 139 109  85  77  68  52  38  29  16  10   5   2   0   0
  0   0   0  11   0  37 162 222 238 241 242 243 243 243 243 243 243 243 243 243 243 243 243 243
241 249 218  29
  5 145 166 157 158 157 153 152 149 150 151 153 154 151 147 150 147 145 145 143 145 147 148 146
147 145 145 143 142 140 142 148 150 147 146 145 138 136 136 134 132 134 135 137 136 131 133 135
135 137 136 136 136 136 135 135 135 125 139 128  92  82  74  62  40  29  20  11   6   2   0   0
  0   0   0  11   0  34 161 223 238 241 242 242 243 243 243 243 243 243 243 243 243 243 243 243
241 249 218  29
  9 139 162 163 166 160 157 158 158 157 160 155 148 154 155 150 148 148 149 145 146 146 146 143
144 146 147 145 143 144 143 142 146 147 144 143 142 140 138 136 133 133 135 138 136 130 131 133
135 136 137 138 137 137 136 134 134 128 127 130 106  86  76  72  48  28  22  13   7   3   0   0
  0   0   0  10   0  32 160 223 238 241 242 243 243 243 243 243 243 243 243 243 243 243 243 243
241 250 218  28
  0 139 160 153 157 155 153 154 157 157 157 155 151 154 152 146 145 147 150 150 151 151 147 145
143 146 149 152 149 146 146 146 144 145 146 143 143 144 142 140 138 136 135 136 135 133 132 132
131 134 135 136 140 140 140 136 135 135 127 125 112  93  77  74  60  32  24  15   8   4   1   0
  0   0   0  10   0  27 159 222 238 241 242 243 243 243 243 243 243 243 243 243 243 243 243 243
241 249 218  28
  0 136 163 156 153 152 151 150 152 151 148 155 156 153 152 148 149 148 144 146 149 153 150 149
150 146 146 151 151 149 148 149 149 148 143 142 142 142 142 139 138 137 138 138 133 130 130 133
132 131 134 134 142 145 137 133 133 136 134 128 118  96  81  72  65  41  24  17   8   4   1   0
  0   0   0   9   0  24 158 222 238 241 242 243 242 242 243 243 243 243 243 243 243 243 243 243
241 249 217  29
  0 133 158 153 157 154 151 153 152 152 151 153 154 153 149 149 150 148 147 144 147 147 149 148
148 149 150 151 153 155 154 153 154 148 145 145 147 144 140 140 137 135 137 140 135 129 129 133
134 132 132 132 137 148 147 138 136 138 132 127 122 105  83  75  67  49  28  18  10   4   1   0
  0   0   0   9   0  20 157 222 238 241 242 242 243 243 243 243 243 243 243 243 243 243 243 243
241 249 217  29
  0 135 157 149 152 153 154 156 157 158 156 153 155 157 152 147 149 147 148 144 144 145 145 144
142 144 147 148 151 153 151 151 158 155 149 146 144 144 142 142 142 139 140 142 134 131 131 133
130 132 133 131 133 142 152 153 143 143 136 128 121 109  86  73  68  52  32  21  11   5   2   0
  0   0   0   9   0  14 155 222 238 241 242 243 243 243 243 243 243 243 243 243 243 243 243 243
241 249 217  29
  0 134 156 151 151 150 150 151 154 156 157 155 158 161 155 153 151 148 146 145 146 146 145 144
143 143 145 144 145 148 149 150 153 155 152 148 144 142 143 146 146 144 147 146 136 132 133 132
129 131 133 134 132 136 141 147 149 146 138 129 117 112  97  74  66  56  37  22  13   6   2   0
  0   0   0   9   0  14 156 222 238 241 242 243 243 243 243 243 243 243 243 243 243 243 243 243
241 249 218  29
  0 136 157 148 149 149 149 147 149 150 152 155 154 155 156 152 152 150 145 146 148 149 151 151
149 147 147 146 147 146 150 152 152 151 153 153 150 146 147 145 146 146 149 150 142 141 139 136
133 132 132 132 132 133 138 138 144 150 142 128 118 108 100  84  69  58  42  25  14   7   3   1
  0   0   0   9   0  20 158 223 238 241 242 243 243 243 243 243 243 243 243 243 243 243 243 243
241 249 218  28
  0 133 158 153 149 146 150 152 149 149 147 149 150 150 153 149 146 149 148 148 148 151 152 152
153 152 153 153 149 148 150 152 153 150 150 150 148 147 148 145 146 151 150 150 145 143 140 135
133 133 133 132 133 131 135 142 141 145 148 134 122 111  94  87  72  60  50  27  15   8   4   1
  0   0   0  10   0  25 160 224 238 241 242 243 243 243 243 243 243 243 243 243 243 243 243 243
241 249 218  29
  0 134 155 150 154 151 149 149 150 150 148 146 148 149 151 149 145 147 147 148 146 149 152 152
153 156 157 157 155 153 154 153 152 153 150 149 148 147 146 144 146 148 147 148 149 145 140 137
135 132 133 134 139 137 137 142 142 139 145 141 124 115  99  85  74  64  56  28  17   9   4   1
  0   0   0  10   0  29 162 224 239 241 242 243 243 243 243 243 243 243 243 243 243 243 243 243
241 249 218  29
  0 135 160 152 152 151 151 149 146 147 149 147 149 151 149 150 151 148 146 146 149 148 150 156
153 153 158 158 155 154 154 156 154 152 151 151 152 152 156 154 148 145 146 144 146 149 146 140
139 138 138 135 137 137 135 137 139 143 142 144 131 114  99  85  77  67  54  30  19  10   6   2
  0   0   0  11   0  34 164 225 239 241 242 243 243 243 243 243 243 243 243 243 243 243 243 243
241 249 218  29
  0 133 158 155 157 152 150 154 154 152 153 154 155 156 156 153 153 153 149 148 149 151 150 152
151 149 152 157 154 153 154 155 152 148 150 149 147 151 152 148 148 149 150 145 141 144 154 152
145 141 141 138 134 135 135 136 138 146 150 146 134 116  98  85  80  72  53  30  21  11   6   2
  0   0   0  11   0  38 166 226 239 241 242 243 243 243 243 243 243 243 243 243 243 243 243 243
241 249 218  28
  0 129 153 149 154 159 156 154 155 154 155 156 157 160 162 164 162 160 156 153 154 154 153 153
153 151 153 158 160 156 154 154 153 148 148 148 147 144 143 144 143 146 151 147 146 143 142 152
152 142 136 136 135 135 134 133 137 143 146 143 137 118  96  87  81  74  54  33  21  12   6   3
  0   0   0  11   0  37 167 226 239 241 242 243 243 243 243 243 243 243 243 243 243 243 243 243
241 249 218  29
  0 136 161 153 153 153 159 160 157 155 153 153 153 155 156 160 164 166 164 161 159 158 156 156
158 157 156 158 161 159 153 151 151 149 150 150 147 148 148 149 145 144 147 146 146 142 138 141
143 145 142 134 135 135 136 136 134 140 142 137 135 122 101  89  80  70  53  32  21  12   6   3
  1   0   0  12   0  38 167 226 239 241 242 243 243 243 243 243 243 243 243 243 243 243 243 243
241 249 218  29
  0 132 160 157 155 153 153 155 159 158 157 157 155 151 150 152 155 160 161 159 159 158 158 159
161 161 160 158 156 157 158 154 150 147 149 151 150 150 147 148 149 148 144 142 142 143 144 143
142 145 149 143 141 140 137 141 142 140 141 136 135 119 104  91  82  73  55  30  22  12   6   3
  0   0   0  12   0  40 169 227 239 241 242 242 243 243 243 243 243 243 243 243 243 243 243 243
241 249 218  29
  0 126 152 150 152 153 153 150 151 153 154 154 158 155 154 154 153 155 155 154 153 152 154 156
157 160 162 162 159 157 155 155 154 150 151 153 152 148 146 144 145 147 144 142 142 142 146 143
143 146 146 146 149 148 146 142 146 146 145 142 135 120 103  88  85  79  55  29  22  12   6   2
  0   0   0  12   0  40 169 227 239 241 242 243 243 243 243 243 243 243 243 243 243 243 243 243
241 249 218  29
  0 123 148 145 147 147 148 151 150 151 154 155 159 160 158 155 153 151 152 154 150 150 151 152
154 155 158 160 159 157 156 152 151 152 151 153 155 153 151 146 146 146 145 146 145 145 145 147
147 145 146 147 147 149 162 152 144 152 148 144 134 120 103  88  85  79  50  28  22  12   6   2
  0   0   0  12   0  41 169 227 239 241 242 243 243 243 243 243 243 243 243 243 243 243 243 243
241 249 218  29
  1 124 146 147 147 146 148 147 148 146 148 150 153 160 158 150 150 151 149 152 153 150 149 151
153 151 151 154 159 158 157 154 154 152 150 148 149 148 145 144 149 146 143 143 143 145 147 150
153 148 145 146 147 145 150 154 149 152 147 137 129 115 100  91  84  75  53  28  21  12   5   2
  0   0   0  12   0  43 170 227 239 241 242 243 243 243 243 243 243 243 243 243 243 243 243 243
241 250 218  28
  0 126 147 144 148 146 146 149 148 144 144 149 152 159 160 152 150 151 149 150 151 153 152 152
150 150 150 151 156 159 158 156 154 152 152 150 147 147 144 147 146 141 140 140 139 143 149 145
146 151 149 145 142 140 144 148 144 144 148 139 127 115  99  90  85  74  59  29  20  11   5   2
  0   0   0  12   0  43 170 227 239 241 242 243 243 243 243 243 243 243 243 243 243 243 243 244
241 249 218  29
  0 126 149 141 145 145 144 147 149 145 145 147 150 155 157 152 151 150 149 150 147 150 153 152
150 152 150 148 148 150 153 156 153 148 149 152 153 154 151 151 146 144 144 143 142 143 144 145
144 146 146 147 143 140 143 147 148 144 146 142 129 115  97  87  87  78  58  28  20  10   5   2
  0   0   0  13   0  45 171 227 239 241 242 243 243 243 243 243 243 243 243 243 243 243 243 243
241 249 217  29
  0 127 153 146 144 144 143 143 148 148 146 144 146 149 155 153 150 151 150 152 150 147 147 146
147 148 148 148 149 149 149 152 155 150 146 148 149 150 152 151 151 148 142 141 142 143 143 143
143 144 143 144 144 137 140 148 147 148 148 138 129 112  97  90  85  72  49  29  19  10   5   1
  0   0   0  13   0  49 173 228 239 241 242 243 243 243 243 243 243 243 243 243 243 243 243 243
241 249 217  29
  1 128 153 147 146 145 145 144 144 150 152 148 145 145 153 155 151 148 145 147 151 150 148 145
143 143 148 150 152 155 154 156 153 150 147 147 149 151 154 149 147 147 141 141 145 147 144 139
139 146 143 142 144 139 140 149 150 151 153 135 122 107  97  86  79  70  44  25  18  10   4   1
  0   0   0  14   0  54 175 228 239 241 242 243 243 243 243 243 243 243 243 243 243 243 243 243
241 249 217  29
  0 131 155 147 147 147 145 147 147 148 153 156 150 145 148 154 155 153 151 151 154 154 154 154
151 149 151 151 153 157 159 157 154 152 150 154 157 156 154 154 153 152 149 150 150 147 148 143
142 148 144 140 142 140 140 146 152 149 148 138 122 106  95  80  74  70  42  22  16   9   4   1
  0   0   0  14   0  59 178 229 239 241 242 242 243 243 243 243 243 243 243 243 243 243 243 243
241 250 218  29
  0 128 151 146 144 148 148 144 146 147 149 157 157 152 149 150 153 154 151 152 152 154 155 153
152 152 151 151 151 153 157 155 153 151 149 153 154 153 149 154 156 154 154 152 150 150 148 144
143 151 152 146 143 142 142 144 150 147 142 133 119 106  97  79  71  64  39  22  14   7   3   0
  0   0   0  15   0  65 180 229 239 241 242 243 243 243 243 243 243 243 243 243 243 243 243 243
241 249 217  29
  0 128 146 141 143 142 146 145 145 146 146 152 156 154 154 152 154 154 152 150 150 153 156 154
152 150 147 151 153 149 150 154 156 155 151 152 150 149 147 153 154 151 151 149 148 149 149 148
145 147 149 151 145 145 143 144 147 144 137 128 114 105 103  84  66  54  32  18  12   5   2   0
  0   0   0  15   0  70 182 230 239 241 242 243 243 243 243 243 243 243 243 243 243 243 243 243
241 249 217  29
  0 127 149 138 146 141 141 147 145 142 142 143 149 149 152 154 154 153 151 151 149 149 153 155
152 153 149 148 153 151 147 148 155 159 156 153 150 153 153 154 155 154 152 147 145 145 148 152
149 142 144 148 145 142 144 144 148 145 137 131 111  98 104  85  63  47  25  17   9   4   1   0
  0   0   0  15   0  73 183 230 239 241 242 243 243 243 243 243 243 243 243 243 243 243 243 243
241 249 217  28
  1 119 146 142 143 141 139 141 140 138 141 139 142 146 150 152 150 148 145 149 149 148 146 149
150 153 156 150 151 154 150 149 151 152 155 159 156 155 155 158 156 152 154 150 145 145 148 151
150 150 147 147 148 143 144 144 145 140 132 125 111 100  97  80  58  38  23  16   7   3   1   0
  0   0   0  15   0  73 183 230 239 241 242 243 243 243 243 243 243 243 243 243 243 243 243 243
241 249 218  29
  3 121 139 138 142 135 134 136 142 140 140 140 139 144 146 146 148 146 145 144 145 147 146 146
148 148 151 151 151 153 151 150 149 148 149 149 150 151 152 154 158 155 152 152 145 147 147 147
149 153 154 148 149 148 145 144 139 130 126 121 113  98  88  76  49  31  22  13   6   2   0   0
  0   0   0  15   0  71 182 229 239 241 242 243 243 243 243 243 243 243 243 243 243 243 243 243
241 249 218  29
  0 119 138 130 140 137 132 131 135 139 133 137 142 143 142 142 146 146 144 145 144 145 150 149
147 147 149 148 146 146 146 145 147 149 147 146 146 147 145 145 151 159 154 151 143 145 147 144
144 145 150 149 147 147 146 143 136 129 121 120 108  86  82  76  50  33  19  10   4   1   0   0
  0   0   0  15   0  71 182 229 239 241 242 243 243 243 243 243 243 243 243 243 243 243 243 243
241 249 217  28
  0 113 135 128 131 136 133 127 124 129 133 137 141 140 143 141 143 146 147 151 150 146 147 149
147 144 142 140 140 141 144 142 142 145 144 145 144 144 143 143 147 154 157 154 147 145 147 148
147 145 145 147 148 147 147 144 133 127 124 118 107  80  75  78  49  28  15   7   3   1   0   0
  0   0   0  16   0  75 184 230 239 241 242 243 243 243 243 243 243 243 243 243 243 243 243 243
241 249 217  28
  0 112 131 126 126 127 131 125 121 124 135 133 133 136 142 140 140 142 144 147 146 146 143 142
145 146 143 141 139 138 141 143 141 141 142 141 144 145 145 143 146 152 158 158 153 149 147 148
149 148 147 144 143 145 144 138 131 124 118 110 101  84  73  75  42  20  12   5   3   0   0   0
  0   0   0  16   0  82 187 230 239 241 242 243 243 243 243 243 243 243 243 243 243 243 243 243
241 249 217  29
  2 107 126 123 121 120 128 124 116 119 127 133 129 128 134 135 136 138 137 141 144 142 142 141
142 143 143 141 138 138 139 142 141 141 143 143 142 143 146 146 148 151 155 156 150 150 155 153
150 147 148 146 143 140 137 133 127 119 113  99  83  77  73  68  39  16   7   4   1   0   0   0
  0   0   0  16   0  87 189 230 239 241 242 243 243 243 243 243 243 243 243 243 243 243 243 243
241 249 217  29
  3 109 123 115 112 107 108 115 112 112 117 125 131 128 127 134 135 137 138 141 144 140 140 139
141 142 140 140 140 140 142 143 142 142 144 145 142 142 145 148 149 148 152 155 148 145 152 154
153 149 148 150 142 135 131 128 120 116 108  86  72  65  67  63  33   8   7   3   0   0   0   0
  0   0   0  16   0  90 190 230 239 241 242 243 243 243 243 243 243 243 243 243 243 243 243 243
241 250 218  29
  3 111 120 102  97  94  99 109 116 112 116 118 123 125 124 130 133 135 133 134 138 138 140 140
140 143 143 143 140 139 142 145 144 144 150 152 146 146 149 151 152 150 151 152 154 147 147 154
156 151 147 147 143 137 128 117 113 107  91  74  68  65  68  60  22   7   6   2   0   0   0   0
  0   0   0  16   0  92 191 230 239 241 242 243 243 243 243 243 243 243 243 243 243 243 243 243
241 250 218  29
  1 104 117  98  93  94  95  98 105 109 108 112 110 114 119 123 127 129 133 133 133 137 140 142
142 143 142 141 140 137 136 142 145 149 152 147 144 144 144 144 145 146 148 148 153 152 148 148
148 150 146 139 134 129 121 113 105  93  82  69  68  69  72  54  12   7   4   0   0   0   0   0
  0   0   0  16   0  92 191 230 239 241 242 243 243 243 243 243 243 243 243 243 243 243 243 243
241 250 218  28
  9 103 112  97  88  85  85  85  89 100 106 101 102 106 109 115 121 123 131 138 133 133 138 138
142 144 140 140 142 140 138 141 143 144 146 143 143 142 138 137 138 142 145 148 152 159 154 146
143 143 136 130 128 123 116 106  96  86  76  74  73  65  71  44   6   6   2   0   0   0   0   0
  0   0   0  16   0  93 192 230 239 241 242 243 243 243 243 243 243 243 243 243 243 243 243 243
241 250 218  28
  7 100 107  89  80  72  71  72  74  79  97  89  85  94  99 104 111 114 119 130 130 126 131 135
135 137 141 141 142 140 141 142 140 142 143 141 138 140 139 138 138 140 143 146 149 158 158 151
145 135 126 121 120 119 111 103  90  80  74  73  66  67  70  35  12   4   1   0   0   0   0   0
  0   0   0  16   0  96 193 231 239 241 242 242 243 243 243 243 243 243 243 243 243 243 243 243
241 249 218  29
 12  99  98  72  65  57  56  60  64  68  80  85  80  81  86  93  99 102 107 115 120 120 126 133
135 138 141 143 146 143 140 139 139 141 142 140 137 137 139 138 138 142 142 144 146 146 149 152
149 135 121 118 118 110 100  94  81  77  79  65  52  73  58  32  14   1   0   0   0   0   0   0
  0   0   0  15   0  98 194 231 239 241 242 243 243 243 243 243 243 243 243 243 243 243 243 243
241 249 218  29
 17 102  88  52  51  50  53  53  58  68  70  76  80  78  82  89  93  98 103 112 118 121 123 128
133 134 135 136 141 144 141 138 141 142 141 145 147 141 137 141 141 142 142 142 143 141 136 137
147 130 117 119 117 105  91  81  77  76  70  54  63  70  41  30   5   0   0   0   0   0   0   0
  0   0   0  15   0 100 195 231 239 241 242 243 243 243 243 243 243 243 243 243 243 243 243 243
241 249 217  29
 15 103  86  47  50  47  49  50  54  61  65  68  79  78  79  87  93  94  99 103 110 118 118 123
124 124 129 131 133 136 138 136 137 139 139 143 149 150 145 147 147 143 144 143 140 135 132 127
132 127 117 115 110  95  83  81  73  70  61  49  71  53  34  21   1   0   0   0   0   0   0   0
  0   0   0  15   0 102 196 231 239 241 242 243 243 243 243 243 243 243 243 243 243 243 243 243
240 249 217  28
 18  95  82  49  39  37  39  41  43  49  55  59  69  76  75  80  90  94  96 100 102 108 113 116
117 119 122 129 131 134 134 134 139 141 142 141 138 146 155 153 146 140 141 138 135 133 130 129
119 123 118 109 106  89  85  76  61  60  49  50  56  37  29   8   0   0   0   0   0   0   0   0
  0   0   0  15   0 103 196 231 239 241 242 242 243 243 243 243 243 243 243 243 243 243 243 243
240 249 217  28
 17  87  72  37  33  31  32  34  37  41  46  51  55  68  69  70  79  87  91  97  96 100 108 111
113 117 118 125 131 131 129 131 135 136 139 137 134 138 140 147 145 138 135 131 127 124 122 120
113 116 113 104  96  86  75  60  53  51  41  45  37  29  17   1   0   0   0   0   0   0   0   0
  0   0   0  15   0 106 197 231 239 241 242 242 242 243 243 243 243 243 243 243 243 243 243 243
241 249 217  28
 13  91  71  20  28  26  26  28  30  33  39  43  45  53  60  63  69  74  81  86  86  90  96  98
105 113 116 120 124 124 123 125 127 127 126 124 129 131 131 134 139 137 128 124 119 117 121 114
106 105 104  97  81  71  60  56  52  44  34  33  25  15   4   0   0   0   0   0   0   0   0   0
  0   0   1  14   0 109 199 231 239 241 242 242 242 243 243 243 243 243 243 243 243 243 243 243
240 249 217  28
 10  90  70   9  21  21  23  24  25  27  31  35  38  41  51  51  56  62  69  73  77  80  85  89
 93  97 102 108 109 113 117 117 122 120 115 115 121 123 123 123 125 124 118 115 112 116 112 106
107  99  90  82  66  56  56  51  46  36  29  23  11   4   0   0   0   0   0   0   0   0   0   0
  0   0   1  13   0 113 201 232 239 241 242 243 243 243 243 243 243 243 243 243 243 243 243 243
240 249 217  28
 13  93  70   0  18  15  17  19  22  23  27  31  33  36  46  47  48  56  63  66  74  77  77  82
 85  88  95  96  96 102 108 111 113 114 113 113 114 113 114 116 113 109 107 104 103 100  92  96
101  88  78  69  59  56  52  41  38  29  24  14   7   1   0   0   0   0   0   0   0   0   0   0
  0   0   2  12   0 118 202 232 239 241 242 243 243 243 243 243 243 243 243 243 243 243 243 243
241 249 217  28
 13 101  76   0  16  12  13  14  16  18  20  23  27  31  38  44  44  49  56  62  66  74  76  76
 79  83  91  92  93  95  95 100 103 104 108 109 108 107 107 106 105 102  98  97  91  87  88  90
 81  72  62  56  55  51  40  34  30  24  15   9   2   0   0   0   0   0   0   0   0   0   0   0
  0   0   2  10   0 121 204 232 239 241 242 243 243 243 243 243 243 243 243 243 243 243 243 243
241 249 217  28
  7  99  77   0  14  10  10  12  13  14  15  17  20  24  30  37  42  43  47  54  59  64  73  73
 72  77  82  82  85  86  85  87  92  96  96  94  96  93  92  92  91  89  90  91  81  81  87  80
 70  66  57  49  42  34  30  27  24  16   8   2   0   0   0   0   0   0   0   0   0   0   0   0
  0   0   3  10   0 122 204 232 239 241 242 243 243 243 243 243 243 243 243 243 243 243 243 243
241 249 217  28
  8 101  78   0  14  10   9  10  12  12  13  15  16  19  22  28  35  36  40  44  50  54  61  63
 65  70  71  70  72  76  79  80  80  78  81  84  82  77  76  76  75  78  80  80  71  75  78  72
 65  54  48  41  35  29  25  22  15   9   2   0   0   0   0   0   0   0   0   0   0   0   0   0
  0   0   3  10   0 123 205 233 240 241 242 243 243 243 243 243 243 243 243 243 243 243 243 243
241 249 217  29
  5  99  78   0  11   8   8   9  10  11  12  13  14  16  17  20  26  29  31  36  40  45  49  50
 54  58  59  59  63  65  67  69  68  70  70  71  67  65  67  68  67  69  67  68  67  67  66  57
 47  39  31  29  28  25  22  15   9   2   0   0   0   0   0   0   0   0   0   0   0   0   0   0
  0   0   3   9   0 124 205 233 239 241 242 243 243 243 243 243 243 243 243 243 243 243 243 243
241 249 217  28
