P2
# 8-bit pgm gray
100 100
255
  0 204 246 236 237 236 234 225 175  90  87  89  87  85  83  80  75  71  65  64  64  63  66  66
 65  65  65  64  63  63  64  63  62  62  61  62  62  61  56  51  44  40  35  28  23  18  14  11
  9   7   6   3   2   1   1   1   1   1   1   1   1   1   1   1   3   5   9  14  18  22  28  35
 42  50  57  65  68  77  86  90 104 126 135 137 125 131 141 158 162 158 147 151 156 157 160 163
166 175 158  37
  0 208 251 241 243 242 239 229 166   0   0   0   0   0   0   0   0   0   0   0   0   0   0   0
  0   0   0   0   0   0   0   0   0   0   0   0   0   0   0   0   0   0   0   0   0   0   0   0
  0   0   0   0   0   0   0   0   0   0   0   0   0   0   0   1   3   6  10  15  20  25  31  37
 46  54  62  72  80  87  94 101 102 100  97  99 105 105 116 126 135 149 162 166 170 175 177 179
182 191 170  36
  0 207 250 240 242 241 238 228 171  31  10  29  21  22  21  20  18  16  14  15  13  16  47  62
 60  54  39  29  16   0   0  12  14  13  13  13  13  13  11   9   7   6   5   3   2   2   1   1
  1   1   1   0   0   0   0   0   0   0   0   0   0   0   1   2   5   8  12  16  20  27  33  38
 44  55  64  68  76  84  93  99 102 109 111 111 112 113 120 134 139 149 158 159 163 169 171 172
172 182 164  35
  0 207 250 240 242 241 238 229 171  20   0  11   0   0   0   0   0   0   0   3   0   8 111 158
170 171 168 160 148 129  94  28   0   2   0   0   0   0   0   0   0   0   0   0   0   0   0   0
  0   0   0   0   0   0   0   0   0   0   0   0   0   0   2   4   7  11  16  20  24  29  37  43
 50  57  66  70  76  86  90  98 107 110 109 112 113 113 117 130 139 145 156 162 165 168 170 171
169 181 165  35
  0 207 250 240 242 241 238 229 172  24   0  14   0   0   0   0   0   0   0   8   0  25 143 197
213 217 217 214 207 190 144  46   0   9   0   0   0   0   0   0   0   0   0   0   0   0   0   0
  0   0   0   0   0   0   0   0   0   0   0   0   0   1   4   7  10  14  19  24  29  34  41  48
 56  63  70  74  79  85  90  95 103 108 113 115 114 116 116 124 135 140 151 162 166 167 170 172
171 178 161  38
  0 207 250 240 242 241 238 229 173  25   0  13   0   0   0   0   0   0   0  10   0  39 155 206
222 219 178 209 221 203 154  43   0  10   0   0   0   0   0   0   0   0   0   0   0   0   0   0
  0   0   0   0   0   0   0   0   0   0   0   0   1   3   6   9  13  18  23  28  33  39  46  54
 59  67  72  74  81  86  91  95 100 106 110 115 118 119 119 123 137 143 151 164 168 165 169 173
171 175 159  37
  0 207 250 240 242 241 238 229 173  28   0  14   0   0   0   0   0   0   0  12   0  50 164 211
227 221 152 206 225 206 154  35   0  10   0   0   0   0   0   0   0   0   0   0   0   0   0   0
  0   0   0   0   0   0   0   0   0   0   0   0   2   5   8  13  16  21  27  33  39  44  51  57
 63  69  76  82  84  86  90  97 104 106 109 113 117 122 123 123 136 145 149 157 164 163 167 172
169 174 157  33
  0 207 250 240 242 241 238 229 174  30   0  14   0   0   0   0   0   0   0  13   0  62 171 214
226 208 148 212 226 208 152  26   0   9   0   0   0   0   0   0   0   0   0   0   0   0   0   0
  0   0   0   0   0   0   0   0   0   0   0   1   4   7  11  16  20  25  31  38  43  50  55  60
 68  71  76  83  85  88  92  96 102 109 113 113 118 119 121 120 129 142 148 154 162 164 166 168
168 174 154  34
  0 207 250 240 242 241 239 229 175  32   0  14   0   0   0   0   0   0   0  14   0  70 175 218
215 154 154 221 224 208 148  10   0   8   0   0   0   0   0   0   0   0   0   0   0   0   0   0
  0   0   0   0   0   0   0   0   0   0   0   3   6   9  15  20  23  30  35  42  47  52  57  62
 69  73  78  83  88  93  98 103 107 110 111 113 115 115 117 115 123 136 147 153 158 161 161 163
164 169 152  36
  0 207 250 240 242 241 238 230 176  35   0  14   0   0   0   0   0   0   0  15   0  79 180 219
227 221 224 231 227 207 143   0   0   7   0   0   0   0   0   0   0   0   0   0   0   0   0   0
  0   0   0   0   0   0   0   0   0   0   1   4   8  12  18  23  28  34  39  46  50  53  59  64
 69  78  84  87  91  95 100 104 106 106 108 110 109 111 111 112 116 130 139 145 151 156 161 163
164 168 152  34
  0 207 250 240 242 241 238 230 176  37   0  14   0   0   0   0   0   0   0  15   0  86 184 211
199 200 208 209 201 202 134   0   0   6   0   0   0   0   0   0   0   0   0   0   0   0   0   0
  0   0   0   0   0   0   0   0   0   0   3   6  12  16  21  27  32  39  46  51  54  59  65  70
 75  79  83  88  94  98 101 104 105 106 109 109 110 113 115 114 114 125 134 142 148 155 161 161
162 164 147  33
  0 207 250 240 242 241 239 230 177  39   0  15   0   0   0   0   0   0   0  14   0  90 184 195
141 115 117 116 139 191 122   0   3   4   0   0   0   0   0   0   0   0   0   0   0   0   0   0
  0   0   0   0   0   0   0   0   0   2   5   9  14  19  25  31  36  45  52  57  62  66  69  74
 77  79  83  87  94  98 100 104 106 107 108 110 111 112 113 112 111 119 131 138 145 153 157 156
156 158 142  31
  0 207 250 240 242 241 239 230 178  41   0  15   0   0   0   0   0   0   0  13   0  94 186 191
136 127  52  37 147 183 114   0   5   3   0   0   0   0   0   0   0   0   0   0   2   1   0   0
  0   0   0   0   0   0   0   0   1   4   7  12  17  24  29  37  45  52  61  65  68  71  73  75
 80  84  85  88  92  96  99 102 103 103 105 106 106 108 107 108 111 113 125 134 141 147 155 156
155 159 141  30
  0 207 250 240 242 241 239 230 178  42   0  15   0   0   0   0   0   0   1  11   0 104 169 135
130 142 156 133 157 184 107   0   8   2   0   0   0   0   0   0   0   0   0   0   0   0   0   0
  0   0   0   0   0   0   0   0   3   6  10  16  22  29  37  45  51  59  64  68  72  76  80  83
 85  85  87  91  93  96  98  98 102 103 102 102 105 107 108 108 110 112 120 131 138 143 148 153
151 158 143  30
  0 207 250 240 242 241 239 230 179  44   0  15   0   0   0   0   0   0   1  10   0 108 171 168
189 200 214 199 190 182 101   0  11   1   0   0   0   0   0   0   0   0   0   0   0   0   0   0
  0   0   0   0   0   0   0   2   5   9  14  19  27  36  43  48  55  62  65  71  75  79  84  89
 87  89  91  95  96  98  99  99 102 102 101 104 105 106 106 106 108 110 115 128 136 141 143 149
152 160 144  29
  0 207 250 240 242 241 239 230 179  47   0  15   0   0   0   0   0   0   1   7   0 102 173 203
211 216 215 212 202 171  89   0  11   1   0   0   0   0   0   0   0   0   0   0   0   0   0   0
  0   0   0   0   0   0   1   4   7  12  17  24  35  42  46  52  58  63  68  74  77  82  86  88
 89  92  96  97  98  99  99 101 101 101 103 103 102 103 105 106 107 107 112 121 131 139 141 147
149 157 142  29
  0 207 250 240 242 241 238 230 180  47   0  15   0   0   0   0   0   0   1   3   0  63 111 133
146 154 159 158 153 129  63   0   7   0   0   0   0   0   0   0   0   0   0   0   0   0   0   0
  0   0   0   0   0   0   3   7  10  16  24  30  38  47  52  57  63  69  74  78  82  85  88  90
 93  94  98  97  98  98  99  98  99 100 101 100 100 102 105 109 106 106 113 121 129 137 139 140
142 153 139  28
  0 207 250 240 242 241 238 230 180  48   0  15   0   0   0   0   0   0   0   0   1   0   0   0
  0   0   0  19  27  26   9   0   0   0   0   0   0   0   0   0   0   0   0   0   0   0   0   0
  0   0   0   0   0   2   5   9  14  22  28  35  44  51  57  64  71  75  79  82  83  85  87  90
 94  97  98  97  95  96  97  98  98  99  99  99 101 105 106 105 108 111 115 117 122 131 136 135
139 151 138  31
  0 207 250 240 242 241 238 230 180  49   0  15   0   0   0   0   0   0   0   0   0   3   6   3
  0   0   0   0   0   0   0   1   0   0   0   0   0   0   0   0   0   0   0   0   0   0   0   0
  0   0   0   0   1   4   7  13  20  26  33  41  48  55  63  70  75  76  78  81  85  88  89  91
 95  97  97  98  98  99  98  99 100 100 100 102 104 106 106 106 108 108 107 110 118 128 134 136
139 149 136  28
  0 207 250 240 242 241 238 230 181  50   0  16   0   0   0   0   0   0   0   0   0   1   3   5
  7   9  10  10  10   7   1   0   0   0   0   0   0   0   0   0   0   0   0   0   0   0   0   0
  0   0   0   1   3   6  11  18  24  29  37  44  51  60  67  72  76  79  80  83  86  89  91  94
 96  96  97  97 100 104 106 106 104 104 105 105 106 106 109 110 103 103 105 111 117 128 133 136
138 143 131  27
  0 207 250 240 242 241 238 230 181  52   0  16   0   0   0   0   0   0   0   0   0   0   0   0
  0   0   0   0   0   0   0   0   0   0   0   0   0   0   0   0   0   0   0   0   0   0   0   0
  0   0   0   2   6  10  17  23  28  35  41  48  56  66  74  75  77  81  84  86  90  92  94  96
 99 101 101 103 105 105 107 107 105 105 104 104 107 106 106 105 104 104 106 111 115 124 129 132
134 142 129  27
  0 207 250 240 242 241 238 230 182  54   0  16   0   0   0   0   0   0   0   0   0   0   0   0
  0   0   0   0   0   0   0   0   0   0   0   0   0   0   0   0   0   0   0   0   0   0   0   0
  0   0   2   5   9  15  21  27  34  42  48  55  62  69  78  80  80  84  86  90  92  94  97  99
103 105 102 104 103 102 103 102 105 107 105 105 103 104 105 106 107 104 106 110 114 118 124 134
137 143 128  25
  0 207 250 240 242 241 239 230 182  55   0  16   0   0   0   0   0   0   0   0   0   0   0   0
  0   0   0   0   0   0   0   0   0   0   0   0   0   0   0   0   0   0   0   0   0   0   0   0
  0   1   4   7  13  19  26  33  41  48  54  62  69  74  78  82  87  89  91  93  97  98  98 102
103 100 100 102 100 100 101 104 105 105 102 103 102 103 103 103 104 102 104 105 109 117 124 135
136 138 124  25
  0 207 250 240 242 241 238 230 183  56   0  16   0   0   0   0   0   0   0   0   0   0   0   0
  0   0   0   0   0   0   0   0   0   0   0   0   0   0   0   0   0   0   0   0   0   0   0   0
  0   3   7  11  17  24  33  40  48  55  60  66  72  77  82  88  91  93  96  99 100 101 104 105
100  99 103 105 101 100 103 105 103 101 100 102 104 104 103 100  99 100 103 105 107 114 120 128
131 139 126  25
  0 207 250 240 242 241 239 230 183  57   0  16   0   0   0   0   0   0   0   0   0   0   0   0
  0   0   0   0   0   0   0   0   0   0   0   0   0   0   0   0   0   0   0   0   0   0   0   0
  2   6  11  16  22  31  38  44  54  61  68  73  77  83  87  92  94  97 100 101 100 105 104 102
101  99 103 110 106 104 102 101 101 101 102 102 102 101  99  99  99 101 104 106 104 109 117 124
133 140 122  23
  0 207 250 240 242 241 239 230 184  58   0  16   0   0   0   0   0   0   0   0   0   0   0   0
  0   0   0   0   0   0   0   0   0   0   0   0   0   0   0   0   0   0   0   0   0   0   0   1
  5  10  14  21  28  37  45  52  59  67  76  79  84  88  91  95  98 100 101  99 101 104 102 103
103 100 108 112 104 106 105 101 101 102 104 104 101 100  99  99 100 102 103 104 104 111 116 122
132 138 122  22
  0 207 250 240 242 241 238 230 184  59   0  16   0   0   0   0   0   0   0   0   0   0   0   0
  0   0   0   0   0   0   0   0   0   0   0   0   0   0   0   0   0   0   0   0   0   0   1   4
  8  13  19  26  33  44  53  59  70  78  79  83  86  87  91  93  96  97 100 100 100 103 104 106
106 102 111 114 103 106 108 106 103 105 107 107 103 104 103 101 103 104 104 104 101 108 116 125
129 134 119  23
  0 207 250 240 242 241 238 230 184  60   0  16   0   0   0   0   0   0   0   0   0   0   0   0
  0   0   0   0   0   0   0   0   0   0   0   0   0   0   0   0   0   0   0   0   0   0   4   7
 11  17  26  33  41  54  60  69  80  83  81  86  87  90  91  92  94  98 102  99 103 106 104 105
105 105 108 113 114 107 102 103 106 107 107 106 105 104 102 100 101 102 101 101 104 108 116 123
123 130 117  24
  0 207 250 240 242 241 238 230 184  60   0  16   0   0   0   0   0   0   0   0   0   0   0   0
  0   0   0   0   0   0   0   0   0   0   0   0   0   0   0   0   0   0   0   0   0   2   6  10
 16  24  31  40  52  59  68  78  82  84  84  90  92  93  93  96 100 103 103  99 103 109 109 113
112 114 115 111 111 108 105 104 105 104 106 105 103 101 100 100  99 100  99 102 105 106 113 117
118 126 115  21
  0 207 250 240 242 241 238 230 185  61   0  16   0   0   0   0   0   0   0   0   0   0   0   0
  0   0   0   0   0   0   0   0   0   0   0   0   0   0   0   0   0   0   0   0   1   5   9  14
 22  29  38  48  60  73  82  82  84  90  93  96  96  95  96 101 102  99  99 100 101 105 108 112
116 121 115 106 106 107 104 104 104 101 100 102 103 103 103 103 103 103 105 103 102 105 108 115
119 129 116  19
  0 207 250 240 242 241 238 230 185  62   0  16   0   0   0   0   0   0   0   0   0   0   0   0
  4   2   0   0   0   0   0   0   0   0   0   0   0   0   0   0   0   0   0   1   4   8  12  21
 27  40  54  61  74  85  88  87  91  95 101 101  99  98  99  99  99  97  99 102 100 101 107 113
118 121 113 110 106 104 102 103 102 102 105 104 103 105 107 104 105 106 106 105 106 107 109 115
119 128 113  22
  0 207 250 240 242 241 238 230 185  62   0  17   0   0   0   0   0   0   0   0   0   0   0   0
  6   2   0   0   0   0   0   0   0   0   0   0   0   0   0   0   0   0   0   3   7  11  19  26
 40  69  72  72  83  94  94  93  97 102 109 106  99 100  99 100 101 102 104 104 101  99 112 120
120 121 119 109 103 102 103 105 106 109 106 104 103 103 103 106 109 108 106 106 106 109 110 112
114 122 110  22
  0 207 250 240 242 241 238 230 185  63   0  17   0   0   0   0   0   0   0   0   0   0   0   0
  4   1   0   0   0   0   0   0   0   0   0   0   0   0   0   0   0   0   1   5  10  17  24  30
 69  85  74  78  88  94  99 103 104 106 113 113 111 115 111 110 109 108 107 107 111 112 112 120
127 119 111 106 105 105 105 107 106 104 103 104 104 102 102 105 104 101 100 100 102 102 105 112
112 119 108  21
  0 207 250 240 242 241 238 230 186  64   0  17   0   0   0   0   0   0   0   0   0   0   0   0
  0   0   0   0   0   0   0   0   0   0   0   0   0   0   0   0   0   1   4   9  15  24  34  68
 94  85  82  90  94  96 109 111 113 115 117 124 131 123 120 120 120 113 112 116 117 116 117 126
127 110 110 113 108 107 107 107 107 106 106 104 103 103 103 102  98 100 102 100  99 101 106 106
105 114 106  20
  0 207 250 240 242 241 238 230 185  63   0  16   0   0   0   0   0   0   0   0   0   0   0   0
  0   0   0   0   0   0   0   0   0   0   0   0   0   0   0   0   0   3   7  14  20  37  69  98
 99  89  93  94 104 110 110 109 119 130 137 136 138 137 130 121 119 112 111 121 118 124 138 130
117 117 116 110 108 108 111 112 112 110 106 103 101 100 103 103 102 102  99 100 102 103  99  99
100 112 105  20
  0 207 250 240 242 241 238 230 185  64   0  16   0   0   0   0   0   0   0   0   0   0   0   0
  0   0   0   0   0   0   0   0   0   0   0   0   0   0   0   0   2   5  11  19  29  61  97 116
 98  80  92 110 119 114 112 128 136 145 146 149 151 151 134 125 129 123 127 133 133 137 137 123
115 116 109 105 106 108 111 108 107 105 101 100 101 101 102 100 100 100  99 101 102  99  99 103
102 111 104  20
  0 207 250 240 242 241 238 230 185  64   0  16   0   0   0   0   0   0   0   0   0   0   0   0
  0   0   0   0   0   0   0   0   0   0   0   0   0   0   0   1   4   8  17  24  40  84 123 131
 95  95 125 135 128 119 118 138 153 153 146 155 162 152 138 134 137 141 149 151 146 140 134 127
121 114 111 107 106 111 109 107 108 104 101 100 102 101  99  98 100 100  98 103 104  99 101 105
106 115 106  18
  0 207 250 240 242 241 238 230 186  65   0  17   0   0   0   0   0   0   0   0   0   0   0   0
  0   0   0   0   0   0   0   0   0   0   0   0   0   0   0   2   7  14  25  22  59 125 151 133
115 136 148 135 127 122 123 137 152 147 143 149 157 152 141 133 138 151 163 160 154 144 136 135
128 120 112 110 110 110 108 106 104 103 102 101 101 100 100  99 100 100  99 104 100 101 102 104
108 112  98  16
  0 207 250 240 242 241 238 230 187  67   0  17   0   0   0   0   0   0   0   0   0   0   0   0
  0   0   0   0   0   0   0   0   0   0   0   0   0   0   1   5  10  22  26  39 122 159 149 135
136 151 147 128 128 125 137 155 152 145 151 157 158 162 153 146 151 164 167 162 151 136 134 139
134 120 112 112 116 113 109 105 106 104 100 102 103 103 102 103 105 102 101 103 102 101 102 105
101 105  97  19
  0 207 250 240 242 241 238 231 187  68   0  17   0   0   0   0   0   0   0   0   0   0   0   0
  0   0   0   0   0   0   0   0   0   0   0   0   0   0   4   8  16  26  13 104 169 165 148 142
143 143 136 123 129 133 141 155 152 152 160 171 177 178 176 167 166 170 161 153 142 137 139 141
128 110 114 123 125 113 108 108 111 106 104 107 105 106 109 105 102 101  99 103 104 101 103 105
103 107  95  17
  0 207 250 240 242 241 238 231 188  69   0  17   0   0   0   0   0   0   0   0   0   0   0   0
  0   0   0   0   0   0   0   0   0   0   0   0   0   2   7  11  24  24  66 150 183 170 161 154
143 131 131 126 130 130 134 143 152 152 162 178 189 191 184 175 174 170 157 148 148 147 144 141
121 113 119 140 137 121 125 121 116 114 111 108 108 112 106 102 104 101 100 104 105 102 103 102
101 103  92  17
  0 207 250 240 242 241 238 231 189  71   0  17   0   0   0   0   0   0   0   0   0   0   0   0
  0   0   0   0   0   0   0   0   0   0   0   0   1   4   9  15  30  39 111 173 182 167 163 159
147 131 135 131 126 128 129 136 144 152 174 184 188 186 180 174 173 170 154 152 154 156 149 137
133 138 140 146 137 136 138 131 124 125 116 111 110 104 102 108 107 103 102 104 104 100 100  99
 99 105  96  17
  0 207 250 240 242 241 238 231 189  72   0  17   0   0   0   0   0   0   0   0   0   0   0   0
  0   0   0   0   0   0   0   0   0   0   0   0   3   7  11  24  29  68 149 181 180 168 163 159
152 145 139 123 126 127 126 140 153 171 188 186 185 183 175 170 181 173 159 157 147 147 145 143
144 145 146 138 137 136 130 127 123 121 120 118 114 110 114 113 107 103 102 107 104  97  98 102
104 111  98  17
  0 207 250 240 242 241 239 231 190  74   0  17   0   0   0   0   0   0   0   0   0   0   0   0
  0   0   0   0   0   0   0   0   0   0   0   1   5  10  20  27  34 124 175 183 183 167 162 159
156 147 133 122 124 128 131 145 156 167 182 190 189 185 174 168 190 183 157 149 145 138 137 143
142 145 144 141 139 131 123 128 131 128 130 128 121 112 113 109 104 101 105 111 101  98 105 109
108 109  92  13
  0 207 250 240 242 241 239 231 191  75   0  17   0   0   0   0   0   0   0   0   0   0   0   0
  0   0   0   0   0   0   0   0   0   0   0   3   7  18  22  20 105 167 176 177 175 167 164 160
150 135 119 123 126 132 138 147 156 163 176 185 187 180 173 181 197 182 154 148 142 138 147 150
149 150 152 151 149 144 139 140 140 136 128 121 113 110 106 100 102 102 106 106 104 106 107 108
102  97  85  14
  0 207 250 240 242 241 239 231 191  76   0  17   0   0   0   0   0   0   0   0   0   0   0   0
  0   0   0   0   0   0   0   0   0   0   1   4  13  20  18  97 160 179 177 169 157 160 163 154
137 127 127 135 141 140 136 149 159 169 175 180 184 182 180 191 198 183 168 158 148 155 159 153
147 153 159 154 151 147 146 141 134 125 116 116 114 105 103 104 103 102 107 110 108 108 105 103
100 104  94  18
  0 207 250 240 242 241 239 232 191  77   0  17   0   0   0   0   0   0   0   0   0   0   0   0
  0   0   0   0   0   0   0   0   0   0   3   9  15  10  82 147 178 185 175 162 156 158 163 148
142 140 144 154 152 143 135 149 162 169 179 185 185 183 186 198 209 199 175 156 153 155 154 153
151 153 147 137 129 134 136 128 119 112 107 114 112 109 112 110 107 106 106 108 106 106 100 101
104 108  94  17
  0 207 250 240 242 241 239 232 192  79   0  18   0   0   0   0   0   0   0   0   0   0   0   0
  0   0   0   0   0   0   0   0   0   1   6  12  24  65 116 156 177 177 170 166 160 162 159 147
151 151 151 153 142 138 139 147 150 165 182 180 181 186 187 201 215 198 178 160 147 148 145 149
146 138 129 119 124 132 124 114 108 109 114 116 118 118 117 111 106 106 107 104 101  99 102 108
107 104  90  15
  0 207 250 240 242 241 239 231 193  79   0  18   0   0   0   0   0   0   0   0   0   0   0   0
  0   0   0   0   0   0   0   0   0   2  10  17  49  90 125 160 173 163 163 165 161 167 165 162
166 154 142 144 143 146 157 153 149 166 183 184 192 192 183 196 207 188 175 163 151 148 144 142
133 127 126 131 133 126 116 115 114 117 121 121 119 109 110 111 107 107 102 100 101 104 111 106
100 102  91  14
  0 207 250 240 242 241 239 231 193  80   0  17   0   0   0   0   0   0   0   0   0   0   0   0
  0   0   0   0   0   0   0   0   0   5  14  30  69 105 133 164 171 155 146 146 159 170 163 163
171 169 153 146 155 168 162 156 162 167 175 186 194 192 184 194 198 180 170 159 155 144 141 136
134 139 143 143 134 121 114 116 117 118 118 120 116 114 115 110 106 101 102 108 107 109 108 100
 98 102  90  15
  0 207 250 240 242 241 239 232 193  81   0  18   0   0   0   0   0   0   0   0   0   0   0   0
  0   0   0   0   0   0   1   1   2   8  16  41  84 111 130 162 161 137 140 143 152 156 150 159
166 172 170 158 157 163 152 152 156 155 164 178 191 192 188 191 188 183 179 169 161 145 141 147
154 157 151 134 125 112 113 119 121 118 118 122 115 117 114 107 101 101 106 109 108 110 104 101
101 103  90  14
  0 207 250 240 242 241 239 232 193  81   0  18   0   0   0   0   0   0   0   0   0   0   0   0
  0   0   0   0   0   0   3   7   4  11  16  47  89 113 141 152 140 134 138 146 144 135 144 159
162 169 175 169 158 157 163 167 164 163 166 178 191 188 187 187 186 186 176 169 163 165 156 155
156 156 144 128 118 117 117 119 119 114 116 111 112 115 107 104 102 101 107 113 113 108 104 101
100 102  89  14
  0 207 250 240 242 241 239 232 194  82   0  18   0   0   0   0   0   0   0   0   0   0   0   0
  0   0   0   0   0   0   0   1   6  13  21  52  89 116 143 140 133 130 123 125 128 130 144 165
164 168 174 169 160 168 177 171 169 174 179 184 181 180 189 189 186 183 172 160 156 169 168 157
152 146 136 127 121 121 115 118 116 116 118 112 120 113 102 101 104 106 114 115 111 108 105 102
102 103  90  15
  0 207 250 240 242 241 239 232 194  83   0  18   0   0   0   0   0   0   0   0   0   0   0   0
  0   0   0   0   0   0   0   1  10  17  29  74  93 114 138 139 136 125 127 125 129 145 149 167
172 179 174 161 161 174 176 167 172 182 183 175 174 182 194 194 182 183 182 167 153 156 162 161
156 141 127 120 116 111 115 118 114 124 124 115 116 110 104 100 102 112 113 109 109 110 106 105
103 104  93  15
  0 207 250 240 242 241 239 232 195  83   0  18   0   0   0   0   0   0   0   0   0   0   0   0
  0   0   0   0   0   0   0   2  18  23  47  88 104 123 136 140 142 137 132 129 146 162 167 184
184 178 165 157 168 183 179 174 183 184 178 169 173 190 203 192 192 187 177 167 164 159 155 157
143 124 115 113 114 116 121 120 116 119 116 112 112 110 104 104 112 111 103 106 110 104 104 105
102 105  92  13
  0 207 250 240 242 241 239 232 195  84   0  18   0   0   0   0   0   0   0   0   0   0   0   0
  0   0   0   0   0   0   0   8  29  37  69 100 109 124 142 139 138 144 134 142 169 171 174 184
185 170 161 163 176 180 179 182 178 172 167 165 183 198 197 195 197 185 172 170 174 168 162 152
125 112 112 115 119 122 123 118 111 116 117 112 112 107 107 112 111  99 102 109 107 104 104 104
101 103  90  14
  0 207 250 240 242 241 238 232 195  84   0  18   0   0   0   0   0   0   0   0   0   0   0   0
  0   0   0   0   0   1   0  14  40  55  82 107 124 139 158 149 141 145 144 159 170 163 149 152
162 159 156 165 173 176 179 178 172 170 172 184 195 198 202 204 190 181 170 163 168 167 162 145
125 121 119 116 118 116 115 116 123 122 119 114 107 110 111 110 106 105 109 108 107 104 100 100
 99 101  90  15
  0 207 250 240 242 241 239 232 195  85   0  18   0   0   0   0   0   0   0   0   0   0   0   0
  0   0   0   0   0   1   0  15  52  77  96 113 132 152 166 148 140 147 155 163 159 145 135 135
146 157 162 175 175 169 169 178 186 190 195 201 197 202 211 201 183 178 168 155 156 157 153 144
135 134 130 119 120 115 122 127 123 119 113 107 106 107 108 111 109 114 112 105 104 101  99 100
 99 101  91  16
  0 207 250 240 242 241 239 232 196  86   0  18   0   0   0   0   0   0   0   0   0   0   0   0
  0   0   0   0   0   2   1  16  64  89 112 126 144 163 168 152 149 159 170 172 157 140 132 139
158 170 174 180 170 163 180 186 193 198 197 206 206 209 209 195 182 169 151 138 138 144 147 137
130 128 129 121 117 128 134 121 118 112 105 106 104 107 115 114 115 117 110 103 100 100 100 101
 99 103  89  13
  0 207 250 240 242 241 239 232 196  87   0  18   0   0   0   0   0   0   0   0   0   0   0   0
  0   0   0   0   0   3   1  20  75  96 122 132 152 171 164 154 158 167 172 172 156 150 143 151
164 170 175 172 170 179 189 197 197 198 197 201 204 209 203 189 174 155 140 131 132 142 130 121
121 115 118 119 122 126 118 114 114 106 111 111 110 116 117 114 120 113 102 103 107 102 102 103
 97  99  87  14
  0 207 250 240 242 241 239 232 197  89   0  18   0   0   0   0   0   0   0   0   0   0   0   0
  0   0   0   0   0   3   2  21  80 105 128 138 161 183 163 142 150 150 162 170 160 151 151 156
163 162 171 175 184 201 204 207 203 204 205 201 199 201 192 180 160 141 136 135 137 131 114 111
112 120 126 122 122 110 109 113 106 112 117 113 117 120 113 123 122 105 101 109 103 103 105 100
 97  97  85  13
  0 207 250 240 242 241 239 232 197  90   0  18   0   0   0   0   0   0   0   0   0   1   0   0
  0   0   0   0   0   5   0  33  83 112 145 158 178 183 149 141 145 145 167 166 156 161 167 173
175 176 179 178 187 204 210 209 209 215 214 205 194 189 184 170 153 142 145 146 136 126 117 114
114 118 120 114 112 112 116 112 113 120 120 122 122 112 119 134 118 101 106 105 108 110 102  99
 95  94  81  11
  0 207 250 240 242 241 239 233 198  92   0  18   0   0   0   0   0   0   0   0   0   0   0   0
  0   0   0   0   0   7   0  40  93 118 157 177 187 173 134 140 142 149 159 155 157 159 168 177
176 182 179 174 178 194 199 206 215 214 210 207 196 191 182 164 159 160 151 146 145 138 129 120
108 109 109 107 113 118 117 112 117 123 125 126 113 114 132 136 112 100 102 110 118 108 100  98
 91  96  83  14
  0 207 250 240 242 241 239 233 199  93   0  18   0   0   0   0   0   0   0   0   0   0   0   0
  0   0   0   0   0   8   0  39 109 136 157 180 183 164 130 133 141 140 142 144 151 158 161 166
173 170 173 172 173 186 197 211 215 213 217 214 208 200 185 176 177 176 165 157 155 146 126 110
112 112 107 115 120 120 114 113 117 126 127 112 107 124 133 120 109 105 114 118 108 100  97  92
 95  97  83  13
  0 207 250 240 242 241 239 233 200  95   0  18   0   0   0   0   0   0   0   0   0   0   0   0
  0   0   0   0   1   8   2  55 121 150 147 157 165 141 127 128 143 141 135 137 145 150 156 163
163 162 171 173 177 181 201 212 215 217 221 217 211 202 188 180 181 176 164 156 147 129 114 120
122 120 124 121 118 113 110 116 125 123 111 107 118 130 122 108 113 123 123 110 100  96  94  94
 94  93  84  16
  0 207 250 240 243 241 239 233 201  98   0  18   0   0   0   0   0   0   0   0   0   0   0   0
  0   0   0   0   2   7   6  66 127 139 122 137 156 135 129 142 150 146 135 133 144 143 150 159
157 172 185 179 162 170 194 210 215 212 212 212 200 193 187 185 179 171 161 153 146 135 136 142
139 135 129 121 117 112 109 116 125 115 106 115 132 131 118 113 117 126 117 100  96  98  95  92
 91  94  86  16
  0 207 250 240 242 241 239 233 202 100   0  18   0   0   0   0   0   0   0   0   0   0   0   0
  0   0   0   0   1   8  12  72 126 118 114 138 159 144 127 146 147 135 133 132 143 142 150 164
168 172 178 178 156 159 182 210 211 203 204 199 190 182 178 180 171 159 152 145 148 150 157 162
155 137 131 124 114 116 110 114 116 109 109 124 132 126 120 124 120 117 111 104  99  98  94  94
 93  97  88  13
  0 207 250 240 242 241 239 234 203 101   0  17   0   0   0   0   0   0   0   0   0   0   0   0
  0   0   0   0   1  10  32  76 120 103 114 145 150 139 131 143 140 138 134 137 149 148 152 156
159 164 162 157 155 167 194 213 207 200 202 202 192 178 168 164 168 161 156 147 144 154 169 161
145 138 132 119 118 123 116 115 111 109 121 134 129 128 126 125 128 128 112 102  99  96  95  99
102 106  90  13
  0 207 250 240 242 241 239 234 204 103   0  17   1   0   0   0   0   0   0   0   0   0   0   0
  0   0   0   0   6  10  52  91 110 104 119 150 126 126 142 138 135 128 130 146 151 154 160 149
147 161 161 143 151 176 201 208 200 198 207 209 195 179 159 153 166 182 175 154 163 173 164 154
148 143 131 128 132 125 112 114 112 118 131 140 136 132 131 125 137 131 107 103  97  98 101 109
111 104  85  11
  0 207 250 240 242 241 239 234 205 106   0  17   1   0   0   0   0   0   0   0   0   0   0   0
  0   0   0   0   9  24  59  99 109 107 138 149 120 124 146 149 141 134 139 157 160 169 183 167
153 163 165 160 163 179 199 204 195 196 204 202 196 181 166 161 166 174 172 170 178 170 156 163
150 140 143 145 132 114 112 114 119 128 141 141 139 135 128 134 128 116 108 102  97 103 112 112
 99  95  80  12
  0 207 250 240 242 241 239 234 205 107   0  17   1   0   0   0   0   0   0   0   0   0   0   0
  0   0   0   1   3  23  51  87 112 111 138 151 119 118 145 164 148 135 149 165 169 184 187 183
175 177 185 191 188 190 202 206 197 193 186 181 192 188 168 160 168 167 168 176 171 156 150 151
141 134 143 135 116 111 115 121 129 140 142 130 128 124 128 126 113 111 105  96  97 109 109  95
 89  91  79  13
  0 207 250 240 243 241 239 234 206 109   0  17   1   0   0   0   0   0   0   0   0   0   0   0
  0   0   0   1   7  18  51  75  96 121 138 144 132 114 130 161 153 133 140 145 153 170 179 181
179 190 200 202 198 200 205 206 199 194 188 195 195 180 162 171 176 174 172 171 161 149 150 152
154 150 134 116 116 116 124 137 139 135 120 124 125 131 128 117 114 110 102  96 108 109  96  90
 90  93  82  14
  0 207 250 240 242 241 239 234 206 110   0  17   1   0   0   0   0   0   0   0   0   0   0   0
  0   0   0   1   8  26  49  69  92 115 142 142 143 131 128 151 158 147 143 143 148 164 175 174
176 182 190 197 195 201 205 198 196 198 210 210 192 180 180 184 171 165 163 166 167 174 184 176
167 149 122 128 122 120 140 142 139 118 115 126 131 137 129 127 115 108 100 105 107  99  95  92
 90  92  80  11
  0 207 250 240 243 241 239 234 207 111   0  17   1   0   0   0   0   0   0   0   0   0   0   0
  0   0   0   0   5  22  37  65  94 110 122 137 146 150 144 143 151 143 144 150 156 159 165 176
175 164 171 190 196 196 199 191 195 205 217 202 191 188 185 182 176 170 171 179 188 191 182 165
147 131 136 131 116 136 146 138 128 119 138 145 142 134 137 130 112 104 102 103 102  98  92  88
 87  89  79  12
  0 207 250 240 243 241 239 235 208 114   0  17   2   0   0   0   0   0   0   0   0   0   0   0
  0   0   0   0   3  17  32  52  75  96 116 141 149 156 167 149 144 152 151 158 160 155 168 171
154 153 159 179 191 192 200 203 206 216 209 188 183 188 183 183 183 175 173 183 178 159 142 131
122 121 127 120 125 144 143 135 142 148 153 152 140 135 126 116 111 102 104 107  99  91  86  86
 86  88  76   8
  0 207 250 240 242 241 240 235 209 117   0  16   2   0   0   0   0   0   0   0   0   0   0   0
  0   0   0   0   1   9  28  47  63  94 113 131 146 150 155 143 137 155 163 158 159 162 172 171
164 165 167 176 178 185 198 211 218 215 196 180 166 171 178 172 165 161 168 169 151 131 129 129
122 124 125 126 135 141 142 148 150 150 158 147 133 122 111 119 111 102 106  97  85  84  85  86
 85  87  76  12
  0 207 250 240 242 241 240 235 210 118   0  16   2   0   0   0   0   0   0   0   0   0   0   0
  0   0   0   0   1   6  16  44  56  81 110 121 126 134 136 142 149 147 151 148 154 169 169 171
172 170 173 178 182 186 203 219 220 209 202 185 166 172 167 161 155 157 165 157 144 139 145 141
135 136 136 142 141 140 147 158 157 160 149 125 113 109 129 117  98  98  92  82  83  83  83  84
 83  86  76  13
  0 207 250 240 243 241 240 235 210 119   0  16   2   0   0   0   0   0   0   0   0   0   0   0
  0   0   0   0   2   8  11  29  55  69  93 108 113 122 133 142 144 138 140 155 161 159 160 169
177 178 192 199 195 205 218 219 216 218 213 192 183 183 177 174 170 158 154 153 143 143 155 148
141 141 148 153 143 147 154 157 158 147 122 121 124 133 125  96  89  84  87  84  83  83  83  81
 78  82  73  10
  0 207 249 240 242 241 240 235 210 120   0  15   2   0   0   0   0   0   0   0   0   0   0   0
  0   0   0   0   0   5  14  18  40  76  89 102 111 116 131 131 129 140 147 158 164 167 174 180
185 183 190 196 204 216 220 219 214 214 207 197 190 187 195 195 182 162 139 132 128 135 149 142
135 151 164 164 162 160 157 153 155 133 124 133 133 117  95  86  84  84  87  83  83  80  75  74
 75  79  71  10
  0 207 250 240 242 241 240 235 211 121   0  15   2   0   0   0   0   0   0   0   0   0   0   0
  0   0   0   0   0   1   9  15  19  65  88  98 112 115 131 141 143 148 146 154 172 185 188 182
173 171 171 186 207 208 211 210 206 205 198 189 185 187 194 189 171 159 143 135 138 149 149 151
154 168 174 170 164 163 156 147 133 125 125 120 111  94  84  81  79  80  78  75  72  71  67  70
 73  76  64   9
  0 207 250 240 242 241 240 235 211 121   0  15   3   0   0   0   0   0   0   0   0   0   0   0
  0   0   0   0   0   0   3   8  12  28  58  87 103 100 117 130 135 136 140 161 172 171 174 178
175 176 179 191 195 194 203 207 199 194 187 186 179 172 177 173 159 154 153 152 152 155 161 165
175 176 162 146 152 152 134 117 112 117 112 107  94  82  77  74  72  70  70  66  67  64  65  67
 65  68  59   8
  0 207 250 240 242 241 240 235 211 122   0  15   3   0   0   0   0   0   0   0   0   0   0   0
  0   0   0   0   0   0   0   6  12  12  28  53  76  92 101 113 131 142 154 159 166 171 172 176
173 175 183 185 189 195 208 213 204 187 176 182 174 173 181 175 163 155 144 143 136 146 167 170
173 161 130 123 125 109 102 100 100 111 115  97  81  77  74  67  64  64  64  62  58  55  55  57
 54  55  49   5
  0 207 250 240 242 241 240 235 212 123   0  15   3   0   0   0   0   0   0   0   0   0   0   0
  0   0   0   0   0   0   0   2  10  10   9  14  35  72 109 125 147 169 177 172 157 162 170 174
180 188 190 196 209 214 216 209 205 189 179 176 175 173 172 176 180 168 133 114 134 165 177 171
149 122 105 108 103 106 110 105  99 108 103  77  73  71  66  63  60  58  56  52  48  48  45  47
 45  43  37   3
  0 207 250 240 242 241 240 235 212 124   0  14   3   0   0   0   0   0   0   0   0   0   0   0
  0   0   0   0   0   0   0   0   5   9  15  20  30  49 112 138 143 168 179 161 153 164 174 184
191 198 203 213 220 222 216 208 201 193 184 179 172 149 150 168 172 153 119 131 165 176 180 162
120 103 101 106 109 105 102  99  86  82  83  75  67  62  55  50  48  50  46  40  38  37  34  32
 30  33  29   2
  0 207 250 240 242 241 239 235 212 125   0  14   3   0   0   0   0   0   0   0   0   0   0   0
  0   0   0   0   0   0   0   0   0   2   9  17  30  57  96  97  95 127 143 133 159 176 171 174
181 195 206 211 215 215 212 206 199 194 183 170 152 139 155 163 160 142 142 166 180 180 174 139
107 110 108 115 110  97  90  76  70  66  69  64  54  47  43  42  41  39  33  29  29  27  25  22
 22  22  18   1
  0 207 250 240 242 241 239 235 213 127   0  13   3   0   0   0   0   0   0   0   0   0   0   0
  0   0   0   0   0   0   0   0   0   0   1   6  17  41  55  64  93 120 119 125 138 161 163 161
178 197 206 207 205 203 199 193 199 194 180 166 148 148 155 164 175 167 169 182 185 176 149 122
125 119 117 111  97  82  73  66  62  61  61  51  44  41  39  34  30  27  24  24  21  18  17  15
 15  15  12   1
  0 207 250 240 242 241 240 235 214 128   0  14   3   0   0   0   0   0   0   0   0   0   0   0
  0   0   0   0   0   0   0   0   0   0   0   1   3  21  40  61  85 117 130 127 122 115 126 144
162 183 193 195 192 187 183 182 186 182 176 172 168 166 168 179 178 169 172 180 176 158 133 134
117 106 101  91  78  73  66  60  55  48  52  45  38  33  29  25  23  20  17  16  13  12  12  10
  9  10   8   1
  0 207 250 240 242 241 240 235 214 128   0  14   3   0   0   0   0   0   0   0   0   0   0   0
  0   0   0   0   0   0   0   0   0   0   0   0   1   4  15  25  37  64  92 108 121 116 108 123
147 166 174 182 179 167 159 164 179 180 176 177 177 175 171 161 155 155 160 164 150 142 138 116
 85  79  80  80  67  68  56  51  42  38  41  33  27  21  19  18  16  14  12  11   9   8   7   7
  6   6   4   0
  0 207 250 240 242 241 240 235 214 128   0  14   3   0   0   0   0   0   0   0   0   0   0   0
  0   0   0   0   0   0   0   0   0   0   0   0   0   1   5  10  18  17  27  62  92 115 132 143
161 170 170 171 170 159 151 156 174 179 178 186 181 162 137 118 123 135 140 131 127 128 112  83
 67  68  69  65  59  53  46  37  32  31  32  24  18  15  13  13  11   9   8   7   5   5   4   3
  3   3   2   0
  0 207 250 240 242 241 240 235 214 129   0  13   3   0   0   0   0   0   0   0   0   0   0   0
  0   0   0   0   0   0   0   0   0   0   0   0   0   0   0   2  13  20  21  24  58  90 120 148
158 157 154 154 163 161 156 162 169 167 165 160 145 137 133 129 123 112 108 108 109 107  95  79
 68  61  54  51  42  40  33  27  25  23  22  15  12  12   9   8   7   5   5   4   3   2   2   1
  1   1   0   0
  0 207 250 240 242 241 240 236 214 130   0  13   4   0   0   0   0   0   0   0   0   0   0   0
  0   0   0   0   0   0   0   0   0   0   0   0   0   0   0   0   0   6  16  25  37  54  74  97
109 123 133 139 148 155 163 161 137 118 111 107 106 108 110 106 100  98  98  99 101  92  81  65
 52  46  41  38  34  27  19  18  17  17  13  11   9   7   6   5   4   3   2   1   1   0   0   0
  0   0   0   0
  0 207 250 240 242 241 240 235 215 130   0  13   4   0   0   0   0   0   0   0   0   0   0   0
  0   0   0   0   0   0   0   0   0   0   0   0   0   0   0   0   0   1   2   7  12  20  41  44
 37  54  70  82  92  97 104  98  74  64  66  67  66  62  57  61  74  81  87  96  87  72  56  40
 32  32  33  30  21  15  14  12  13  11   8   6   5   4   3   2   2   1   0   0   0   0   0   0
  0   0   0   0
  0 207 250 240 242 241 240 235 215 131   0  12   4   0   0   0   0   0   0   0   0   0   0   0
  0   0   0   0   0   0   0   0   0   0   0   0   0   0   0   0   0   0   1   2   4   5   9  22
 29  30  32  30  47  51  41  46  52  54  54  54  48  46  51  57  64  79 100  94  67  47  35  31
 27  25  27  20  12  12  10   8   8   5   3   3   2   1   1   0   0   0   0   0   0   0   0   0
  0   0   0   0
  0 207 250 240 242 241 240 236 215 131   0  12   4   0   0   0   0   0   0   0   0   0   0   0
  0   0   0   0   0   0   0   0   0   0   0   0   0   0   0   0   0   0   0   1   2   3   6   6
  9  18  25  35  50  58  60  57  55  54  54  50  45  38  34  48  74  97  88  55  36  25  23  22
 20  23  18   9   8   7   5   3   3   2   1   1   0   0   0   0   0   0   0   0   0   0   0   0
  0   0   0   0
  0 207 250 240 242 242 240 236 215 132   0  12   4   0   0   0   0   0   0   0   0   0   0   0
  0   0   0   0   0   0   0   0   0   0   0   0   0   0   0   0   0   0   0   0   0   0   2   4
  5   5   7  12  19  27  36  42  44  38  34  27  20  17  25  48  64  57  24  10  14  13  13  12
 13  15   8   5   4   3   2   1   0   0   0   0   0   0   0   0   0   0   0   0   0   0   0   0
  0   0   0   0
  0 207 250 240 242 241 240 236 216 133   0  12   4   0   0   0   0   0   0   0   0   0   0   0
  0   0   0   0   0   0   0   0   0   0   0   0   0   0   0   0   0   0   0   0   0   0   0   0
  1   3   3   4   3   1   0   2   4  20  29  29  30  31  33  41  35  15  13  14   8   7   7   5
  5   3   3   2   1   0   0   0   0   0   0   0   0   0   0   0   0   0   0   0   0   0   0   0
  0   0   0   0
  0 207 250 240 242 241 240 236 216 133   0  12   4   0   0   0   0   0   0   0   0   0   0   0
  0   0   0   0   0   0   0   0   0   0   0   0   0   0   0   0   0   0   0   0   0   0   0   0
  0   0   0   0   2   3   4   6   0  56  83  80  80  80  80  79  74  51   2   1   3   2   2   1
  1   0   0   0   0   0   0   0   0   0   0   0   0   0   0   0   0   0   0   0   0   0   0   0
  0   0   0   0
  0 207 250 240 242 242 240 236 216 133   0  12   4   0   0   0   0   0   0   0   0   0   0   0
  0   0   0   0   0   0   0   0   0   0   0   0   0   0   0   0   0   0   0   0   0   0   0   0
  0   0   0   0   0   0   0   0   1   1   2   2   2   2   3   2   2   1   1   1   1   0   0   0
  0   0   0   0   0   0   0   0   0   0   0   0   0   0   0   0   0   0   0   0   0   0   0   0
  0   0   0   0
  0 207 250 240 243 241 240 236 216 133   0  12   4   0   0   0   0   0   0   0   0   0   0   0
  0   0   0   0   0   0   0   0   0   0   0   0   0   0   0   0   0   0   0   0   0   0   0   0
  0   0   0   0   0   0   0   0   0   0   0   0   0   0   0   0   0   0   0   0   0   0   0   0
  0   0   0   0   0   0   0   0   0   0   0   0   0   0   0   0   0   0   0   0   0   0   0   0
  0   0   0   0
  0 207 250 240 242 241 240 236 216 133   0  12   4   0   0   0   0   0   0   0   0   0   0   0
  0   0   0   0   0   0   0   0   0   0   0   0   0   0   0   0   0   0   0   0   0   0   0   0
  0   0   0   0   0   0   0   0   0   0   1   1   1   1   1   1   1   0   0   0   0   0   0   0
  0   0   0   0   0   0   0   0   0   0   0   0   0   0   0   0   0   0   0   0   0   0   0   0
  0   0   0   0
