P2
# 8-bit pgm gray
100 100
255
  0   0   0   0   0   0   0   0   0   0   0   0   0   0   0   3   0   0 102 103  67  68  67  67
 65  66  69  69  70  74  75  76  79  86  78  60  64  65  64  60  55  50  33  13  12   8   9  12
 15  18  24  33  44  55  64  73 106 142 159 169 175 182 187 186 185 185 185 186 186 185 184 185
186 183 175 166 165 166 160 158 165 141   0   0   6   0   0   0   0   0   0   0   0   0   0   0
  0   0   0   0
  0   0   0   0   0   0   0   0   0   0   0   0   0   0   0   7   0   0 158 146   0   0   0   0
  0   0   0   0   0   0   0   0   0   0   0   0   0   0   0   0   0   0   0   0   0   0   0   5
 10  16  24  32  44  59  72  84 101 138 168 181 189 193 199 204 203 203 204 204 204 204 204 203
206 204 197 187 184 185 178 173 181 154   0   0   7   0   0   0   0   0   0   0   0   0   0   0
  0   0   0   0
  0   0   0   0   0   0   0   0   0   0   0   0   0   0   0   9   0   0 181 171   0  19  12  37
 99 129 138 139 137 133 125 108  75  27  17  14  14  14  14  13  11   9   4   1   1   1   1   7
 10  14  23  30  40  56  70  80  91 111 146 169 180 186 188 193 198 199 199 200 201 200 200 198
199 203 199 190 185 177 175 178 184 156   0   0   8   0   0   0   0   0   0   0   0   0   0   0
  0   0   0   0
  0   0   0   0   0   0   0   0   0   0   0   0   0   0   0   9   0   0 177 169   0   6   0  42
139 184 197 201 201 193 183 158 105  10   0   3   0   0   0   0   0   0   0   0   0   0   0   7
 12  15  21  29  40  51  62  78  94 104 121 153 175 183 187 191 195 200 201 201 202 202 201 204
204 206 207 197 186 180 189 197 202 168   0   0   9   0   0   0   0   0   0   0   0   0   0   0
  0   0   0   0
  0   0   0   0   0   0   0   0   0   0   0   0   0   0   0   9   0   0 177 169   0  10   0  46
153 200 216 207 190 210 202 177 119  13   0   5   0   0   0   0   0   0   0   0   0   0   0   5
 11  15  20  26  34  45  60  74  86  99 107 131 162 173 181 188 190 195 200 199 199 201 203 205
207 206 206 200 188 184 196 202 200 166   0   0   9   0   0   0   0   0   0   0   0   0   0   0
  0   0   0   0
  0   0   0   0   0   0   0   0   0   0   0   0   0   0   0   8   0   0 175 162   0  17   0  48
158 206 224 198 155 215 209 185 125  15   0   6   0   0   0   0   0   0   0   0   0   0   1   5
  7  11  17  24  32  40  58  76  82  92 106 117 141 165 176 181 187 190 194 199 200 202 203 202
203 205 203 200 197 187 190 194 197 167   0   0   9   0   0   0   0   0   0   0   0   0   0   0
  0   0   0   0
  0   0   0   0   0   0   0   0   0   0   0   0   0   0   0   8   0   0 173 157   0  21   0  50
162 209 227 204 158 216 213 189 130  18   0   6   0   0   0   0   0   0   0   0   0   0   1   5
  8  10  15  22  30  38  49  67  78  89 102 110 125 152 170 177 182 186 189 197 200 200 200 200
202 203 202 201 200 196 188 182 194 169   0   0   9   0   0   0   0   0   0   0   0   0   0   0
  0   0   0   0
  0   0   0   0   0   0   0   0   0   0   0   0   0   0   0   8   0   0 172 153   0  23   0  52
162 212 217 162 156 220 214 191 131  19   0   6   0   0   0   0   0   0   0   0   0   0   2   5
  8  11  15  20  27  36  44  57  72  82  92 104 119 129 152 172 179 183 187 192 195 198 201 201
201 201 201 204 201 198 195 188 188 160   0   0   8   0   0   0   0   0   0   0   0   0   0   0
  0   0   0   0
  0   0   0   0   0   0   0   0   0   0   0   0   0   0   0   8   0   0 171 153   0  22   0  52
163 214 220 199 212 225 218 193 132  19   0   6   0   0   0   0   0   0   0   0   0   0   4   6
  9  12  15  20  26  33  43  53  65  77  86 101 116 118 127 153 172 178 185 188 192 198 201 201
200 202 204 205 204 201 197 193 192 160   0   0   8   0   0   0   0   0   0   0   0   0   0   0
  0   0   0   0
  0   0   0   0   0   0   0   0   0   0   0   0   0   0   0   8   0   0 172 154   0  22   0  51
164 211 221 223 223 216 205 191 132  21   0   6   0   0   0   0   0   0   0   0   0   2   6   7
 10  13  17  23  30  37  46  56  68  77  90 102 108 113 120 132 159 178 184 188 193 196 201 201
200 203 203 204 205 203 198 195 200 166   0   0   8   0   0   0   0   0   0   0   0   0   0   0
  0   0   0   0
  0   0   0   0   0   0   0   0   0   0   0   0   0   0   0   8   0   0 172 154   0  21   0  47
162 199 176 153 155 155 142 186 127  19   0   6   0   0   0   0   0   0   0   0   1   3   5   7
 11  14  19  26  33  41  50  62  74  85  94 102 110 114 121 127 140 164 179 186 190 192 197 201
202 202 201 203 203 204 201 196 201 170   0   0   9   0   0   0   0   0   0   0   0   0   0   0
  0   0   0   0
  0   0   0   0   0   0   0   0   0   0   0   0   0   0   0   8   0   0 171 153   0  21   0  45
159 195 158 140  86  68 134 178 124  17   0   6   0   0   0   0   0   0   0   0   3   4   7   9
 13  16  22  29  37  46  57  69  79  88  95 104 108 114 122 128 130 141 166 179 182 188 191 195
201 201 201 202 203 204 203 198 201 170   0   0   9   0   0   0   0   0   0   0   0   0   0   0
  0   0   0   0
  0   0   0   0   0   0   0   0   0   0   0   0   0   0   0   8   0   0 171 153   0  21   0  45
154 179 146 145 139 132 146 177 125  19   0   6   0   0   0   0   0   0   0   2   3   6   8  11
 15  19  25  32  42  52  63  72  81  88  98 104 105 111 118 124 130 134 146 168 181 185 187 191
195 199 201 205 204 201 202 199 203 171   0   0   9   0   0   0   0   0   0   0   0   0   0   0
  0   0   0   0
  0   0   0   0   0   0   0   0   0   0   0   0   0   0   0   8   0   0 171 152   0  21   0  47
147 152 159 183 198 199 177 179 124  20   0   6   0   0   0   0   0   0   1   3   4   7  10  14
 18  23  29  37  45  53  62  73  81  89  96  99 108 113 119 123 129 136 137 152 175 183 186 188
191 198 201 205 203 200 200 198 203 172   0   0   9   0   0   0   0   0   0   0   0   0   0   0
  0   0   0   0
  0   0   0   0   0   0   0   0   0   0   0   0   0   0   0   8   0   0 170 153   0  19   0  42
141 187 204 211 212 209 199 173 118  21   0   5   0   0   0   0   0   0   2   4   6  10  13  17
 22  27  33  41  50  58  65  72  80  90  96 102 108 113 119 123 130 135 137 140 158 179 184 186
190 196 200 204 205 199 198 197 205 175   0   0  10   0   0   0   0   0   0   0   0   0   0   0
  0   0   0   0
  0   0   0   0   0   0   0   0   0   0   0   0   0   0   0   8   0   0 170 154   0  16   0  31
116 160 175 180 182 181 171 148 100  20   0   4   0   0   0   0   0   1   3   5   8  12  16  19
 25  32  41  50  58  65  74  83  90  96 101 107 110 117 124 128 135 135 135 135 143 163 179 184
188 193 197 201 205 201 198 197 207 177   0   0  10   0   0   0   0   0   0   0   0   0   0   0
  0   0   0   0
  0   0   0   0   0   0   0   0   0   0   0   0   0   0   0   8   0   0 168 151   0  11   3   7
 45  64  73  78  83  86  81  69  46   7   0   1   0   0   0   0   1   3   5   7  11  14  18  24
 30  37  45  53  59  68  77  86  94 100 107 112 116 118 124 130 130 130 130 133 135 142 167 181
187 192 196 198 202 201 199 198 205 178   0   0  10   0   0   0   0   0   0   0   0   0   0   0
  0   0   0   0
  0   0   0   0   0   0   0   0   0   0   0   0   0   0   0   8   0   0 165 148   0   9   5   0
  0   0   0   0   0   0   0   0   0   0   0   0   0   0   0   0   3   5   7   9  13  17  22  27
 32  39  47  55  63  71  79  87  92  97 105 115 120 122 129 130 129 131 133 134 134 134 149 174
185 191 195 197 198 201 200 197 205 177   0   0  10   0   0   0   0   0   0   0   0   0   0   0
  0   0   0   0
  0   0   0   0   0   0   0   0   0   0   0   0   0   0   0   8   0   0 164 148   0   8   5   0
  6  12  15  16  16  15  13  10   4   0   0   0   0   0   0   2   4   6   8  12  16  19  23  29
 36  43  51  57  66  73  83  91  96 102 108 113 119 124 129 128 129 131 133 135 137 136 139 161
182 190 193 197 198 201 201 200 208 176   0   0  10   0   0   0   0   0   0   0   0   0   0   0
  0   0   0   0
  0   0   0   0   0   0   0   0   0   0   0   0   0   0   0   8   0   0 164 148   0   7   5   0
  0   0   0   0   0   1   1   0   0   0   0   0   0   0   0   4   5   7  11  15  17  22  28  34
 42  49  55  61  69  77  83  89  95 101 110 116 122 124 124 127 133 134 132 131 134 136 136 146
171 185 190 194 199 200 201 200 208 179   0   0  10   0   0   0   0   0   0   0   0   0   0   0
  0   0   0   0
  0   0   0   0   0   0   0   0   0   0   0   0   0   0   0   8   0   0 164 149   0   6   5   0
  0   0   0   0   0   0  17  13   0   0   0   0   0   0   2   4   6  10  13  15  19  25  32  41
 49  53  58  65  72  79  82  88  96 103 112 115 118 125 127 129 133 134 132 130 131 132 135 138
157 177 187 192 197 200 201 200 210 180   0   0  10   0   0   0   0   0   0   0   0   0   0   0
  0   0   0   0
  0   0   0   0   0   0   0   0   0   0   0   0   0   0   0   8   0   0 163 146   0   9   5   0
  0   4   9   2   0   4  21  12   0   0   0   0   0   1   3   5   9  12  14  18  23  28  36  46
 52  60  66  72  84  87  88  95 103 112 117 115 120 127 130 131 131 130 131 131 131 132 135 135
146 168 182 190 194 198 201 199 209 179   0   0  10   0   0   0   0   0   0   0   0   0   0   0
  0   0   0   0
  0   0   0   0   0   0   0   0   0   0   0   0   0   0   0   7   0   0 161 142   0  12   4   0
  0  17  26   0   0  12  19   2   0   0   0   0   0   2   4   7  11  14  18  22  27  34  42  48
 57  65  71  82  91  93  97 103 108 113 118 117 121 127 132 133 130 128 129 129 131 133 133 135
138 157 177 185 190 193 197 198 208 180   0   0  11   0   0   0   0   0   0   0   0   0   0   0
  0   0   0   0
  0   0   0   0   0   0   0   0   0   0   0   0   0   0   0   7   0   0 160 140   0  13   3   0
  0  19  17   0   0   1  12   6   0   0   0   0   1   3   6  10  13  17  21  26  33  40  50  57
 64  69  78  85  89  94  99 102 107 116 120 124 126 128 127 127 129 129 129 129 131 134 135 135
137 147 170 183 189 193 197 201 208 178   0   0  10   0   0   0   0   0   0   0   0   0   0   0
  0   0   0   0
  0   0   0   0   0   0   0   0   0   0   0   0   0   0   0   7   0   0 159 139   0  12   3   0
  0  16  20   3   0   0   0   0   0   0   0   0   2   5   8  12  15  20  25  31  40  50  58  63
 69  79  86  88  96 100 104 110 119 127 131 132 129 129 130 132 131 130 132 133 131 133 133 137
138 140 161 179 185 189 196 198 206 177   0   0  10   0   0   0   0   0   0   0   0   0   0   0
  0   0   0   0
  0   0   0   0   0   0   0   0   0   0   0   0   0   0   0   7   0   0 158 139   0  12   3   0
  0   1   7   1   0   0   0   0   0   0   0   1   4   7  11  14  18  23  29  37  45  53  61  69
 76  85  89  95 100 105 112 122 125 126 128 129 130 130 132 135 133 128 129 132 132 134 136 137
141 141 153 173 182 184 191 193 202 177   0   0  10   0   0   0   0   0   0   0   0   0   0   0
  0   0   0   0
  0   0   0   0   0   0   0   0   0   0   0   0   0   0   0   7   0   0 158 138   0  12   3   0
  0   0   0   0   0   0   0   0   0   0   1   3   6  10  12  17  21  27  34  41  49  57  67  76
 84  88  94  99 104 111 124 125 122 126 126 128 131 130 128 131 133 131 129 130 133 135 138 137
138 140 147 165 177 180 189 190 199 173   0   0  10   0   0   0   0   0   0   0   0   0   0   0
  0   0   0   0
  0   0   0   0   0   0   0   0   0   0   0   0   0   0   0   7   0   0 158 138   0  12   3   0
  0   0   0   0   0   0   0   0   0   0   2   4   8  11  15  19  26  34  39  46  55  63  73  84
 90  94  97 102 109 120 130 124 124 125 126 125 124 124 125 127 128 131 132 134 134 135 136 137
139 143 146 160 176 181 186 186 198 171   0   0  10   0   0   0   0   0   0   0   0   0   0   0
  0   0   0   0
  0   0   0   0   0   0   0   0   0   0   0   0   0   0   0   7   0   0 158 138   0  11   3   0
  0   0   0   0   0   0   0   0   0   1   3   6  10  13  17  23  29  37  46  51  60  68  80  90
 95 103 106 111 116 129 132 129 130 130 128 124 123 123 125 127 129 131 133 134 135 136 135 136
136 138 139 148 171 183 185 186 196 170   0   0   9   0   0   0   0   0   0   0   0   0   0   0
  0   0   0   0
  0   0   0   0   0   0   0   0   0   0   0   0   0   0   0   7   0   0 158 139   0  11   3   0
  0   0   0   0   0   0   0   0   0   2   5   8  10  16  20  26  32  40  52  61  69  80  91  98
103 110 115 116 123 131 131 134 132 132 129 124 123 124 124 126 128 131 131 132 134 134 134 134
135 134 137 138 161 181 184 187 194 167   0   0   9   0   0   0   0   0   0   0   0   0   0   0
  0   0   0   0
  0   0   0   0   0   0   0   0   0   0   0   0   0   0   0   7   0   0 159 140   0  10   4   0
  0   0   0   0   0   0   0   0   1   3   6   9  12  17  23  29  37  45  54  68  80  91  98 103
110 114 117 121 127 133 130 133 134 130 128 126 127 127 126 127 126 129 130 131 133 134 132 132
136 138 139 137 153 175 179 182 192 165   0   0   9   0   0   0   0   0   0   0   0   0   0   0
  0   0   0   0
  0   0   0   0   0   0   0   0   0   0   0   0   0   0   0   7   0   0 159 141   0  10   4   0
  0   0   0   0   0   0   0   0   2   5   7  10  14  18  25  33  41  53  64  74  88  95 100 106
112 119 122 126 132 140 133 129 134 136 130 128 131 130 130 132 132 131 132 135 135 132 130 133
135 137 140 139 148 169 176 178 191 167   0   0   9   0   0   0   0   0   0   0   0   0   0   0
  0   0   0   0
  0   0   0   0   0   0   0   0   0   0   0   0   0   0   0   7   0   0 160 143   0   9   4   0
  0   0   0   0   0   0   0   1   4   6   9  12  16  22  28  39  49  58  73  84  94 101 107 112
116 123 129 132 140 144 136 133 138 142 136 132 134 133 134 137 135 134 138 137 132 130 131 135
135 135 139 142 143 164 177 179 192 168   0   0   9   0   0   0   0   0   0   0   0   0   0   0
  0   0   0   0
  0   0   0   0   0   0   0   0   0   0   0   0   0   0   0   7   0   0 161 144   0   8   4   0
  0   0   0   0   0   0   0   2   4   7   9  13  19  25  33  44  55  66  78  89  99 107 114 122
129 131 134 135 144 151 141 138 142 144 141 137 138 136 138 135 132 133 135 134 131 131 135 135
136 136 138 142 142 161 175 178 189 164   0   0   9   0   0   0   0   0   0   0   0   0   0   0
  0   0   0   0
  0   0   0   0   0   0   0   0   0   0   0   0   0   0   0   7   0   0 161 144   0   8   4   0
  0   0   0   0   0   0   1   3   5   7  13  17  21  28  39  48  62  76  85  94 103 113 123 130
142 143 140 146 160 161 152 149 150 152 145 140 139 141 141 135 136 136 132 131 134 137 138 137
138 137 141 142 144 160 174 175 186 164   0   0   9   0   0   0   0   0   0   0   0   0   0   0
  0   0   0   0
  0   0   0   0   0   0   0   0   0   0   0   0   0   0   0   7   0   0 161 143   0   9   4   0
  0   0   0   0   0   0   2   4   7   9  15  19  23  33  43  54  68  81  96 105 112 126 137 151
161 165 168 180 183 177 170 164 163 158 150 147 142 142 138 134 136 134 134 136 137 138 137 137
138 137 139 141 149 160 173 173 183 161   0   0   8   0   0   0   0   0   0   0   0   0   0   0
  0   0   0   0
  0   0   0   0   0   0   0   0   0   0   0   0   0   0   0   7   0   0 161 145   0   7   4   0
  0   0   0   0   0   0   3   5   9  11  15  21  27  38  48  61  77  87 103 122 134 145 161 169
183 191 189 190 194 197 188 171 167 162 156 146 140 140 136 133 137 137 135 137 137 138 138 138
137 139 141 144 146 154 169 172 181 158   0   0   8   0   0   0   0   0   0   0   0   0   0   0
  0   0   0   0
  0   0   0   0   0   0   0   0   0   0   0   0   0   0   0   7   0   0 162 147   0   5   5   0
  0   0   0   0   0   1   3   6  11  14  19  26  34  46  58  73  86  97 116 138 150 162 175 182
192 201 201 197 200 204 196 184 177 172 157 145 146 144 139 139 140 136 137 137 139 137 136 137
136 140 142 144 141 146 167 172 182 159   0   0   8   0   0   0   0   0   0   0   0   0   0   0
  0   0   0   0
  0   0   0   0   0   0   0   0   0   0   0   0   0   0   0   7   0   0 163 149   0   4   5   0
  0   0   0   0   1   2   5   8  12  17  22  31  42  52  69  84  92 117 152 171 180 186 185 192
195 196 199 203 202 203 199 194 186 178 164 154 150 145 142 141 141 139 140 139 139 139 137 138
142 141 141 142 142 144 165 175 180 158   1   0   8   0   0   0   0   0   0   0   0   0   0   0
  0   0   0   0
  0   0   0   0   0   0   0   0   0   0   0   0   0   0   0   8   0   0 164 151   0   3   6   0
  0   0   0   0   1   3   6  10  13  19  27  36  50  63  78  93 118 155 185 198 199 194 189 197
200 197 201 208 210 209 209 208 197 186 177 162 149 143 144 143 145 146 143 141 144 145 148 148
149 145 143 144 146 147 161 174 179 157   4   0   8   0   0   0   0   0   0   0   0   0   0   0
  0   0   0   0
  0   0   0   0   0   0   0   0   0   0   0   0   0   0   0   8   0   0 163 150   0   4   6   0
  0   0   0   0   3   5   8  12  16  23  32  44  58  72  89 128 168 190 202 207 205 204 205 211
214 213 216 218 217 215 216 215 202 186 178 165 161 157 156 153 152 148 147 147 147 151 156 154
150 148 145 144 145 143 155 169 178 156   1   0   8   0   0   0   0   0   0   0   0   0   0   0
  0   0   0   0
  0   0   0   0   0   0   0   0   0   0   0   0   0   0   0   8   0   0 162 146   0   8   4   0
  0   0   0   1   4   7  11  16  22  29  39  50  71  99 122 160 193 205 212 217 218 218 217 217
218 218 219 221 219 217 216 210 204 197 190 176 176 171 167 166 159 151 146 145 144 147 148 146
149 153 147 144 144 141 150 167 178 154   1   0   8   0   0   0   0   0   0   0   0   0   0   0
  0   0   0   0
  0   0   0   0   0   0   0   0   0   0   0   0   0   0   0   7   0   0 161 142   0  11   4   0
  0   0   0   2   5   9  14  19  28  40  50  71 103 134 157 179 199 209 214 216 217 218 218 217
217 219 217 215 216 220 215 211 212 216 204 188 176 162 162 159 149 148 148 148 146 146 148 151
155 154 146 145 143 141 152 169 181 158   3   0   8   0   0   0   0   0   0   0   0   0   0   0
  0   0   0   0
  0   0   0   0   0   0   0   0   0   0   0   0   0   0   0   7   0   0 161 141   0  11   4   0
  0   0   1   3   6  11  15  22  31  44  62  97 130 155 172 186 201 210 211 211 216 220 220 220
218 213 210 210 215 223 221 216 214 214 205 197 182 167 165 161 155 154 155 152 149 149 151 156
163 157 153 155 151 151 159 169 186 166   0   0   9   0   0   0   0   0   0   0   0   0   0   0
  0   0   0   0
  0   0   0   0   0   0   0   0   0   0   0   0   0   0   0   7   0   0 160 141   0  11   4   0
  0   0   1   4   8  12  17  24  34  48  71 102 133 161 172 189 203 209 212 212 212 215 216 218
213 209 211 211 216 224 224 220 213 208 207 199 185 175 173 168 161 159 155 149 148 146 146 150
155 152 151 152 150 151 156 165 184 163   0   0   9   0   0   0   0   0   0   0   0   0   0   0
  0   0   0   0
  0   0   0   0   0   0   0   0   0   0   0   0   0   0   0   7   0   0 160 140   0  12   3   0
  0   0   2   5   9  14  19  28  38  53  76 102 134 160 164 180 197 206 208 207 206 210 210 208
207 209 214 217 220 219 217 215 212 209 210 196 176 173 173 171 166 162 155 152 153 151 151 149
149 149 148 150 149 147 151 159 177 158   0   0   8   0   0   0   0   0   0   0   0   0   0   0
  0   0   0   0
  0   0   0   0   0   0   0   0   0   0   0   0   0   0   0   7   0   0 160 140   0  13   3   0
  0   1   3   6  10  15  23  32  43  58  79 107 144 155 158 179 202 204 200 205 207 207 208 205
203 205 208 216 216 209 211 211 213 215 206 188 175 178 178 173 168 168 163 158 155 155 154 152
153 152 154 156 152 148 149 155 175 158   0   0   8   0   0   0   0   0   0   0   0   0   0   0
  0   0   0   0
  0   0   0   0   0   0   0   0   0   0   0   0   0   0   0   7   0   0 161 140   0  13   3   0
  0   1   4   7  12  17  26  36  48  63  86 125 152 149 170 187 199 200 192 198 199 198 207 201
201 209 207 210 212 211 209 210 212 207 194 182 174 178 184 176 169 171 168 162 160 159 161 158
155 152 152 155 151 145 149 159 178 158   0   0   8   0   0   0   0   0   0   0   0   0   0   0
  0   0   0   0
  0   0   0   0   0   0   0   0   0   0   0   0   0   0   0   8   0   0 162 142   0  12   3   0
  0   2   5   9  13  20  29  40  55  67  98 144 151 154 174 184 191 196 190 195 200 199 193 188
197 203 206 212 211 214 215 212 212 198 182 178 180 184 183 182 179 173 168 166 164 164 162 154
152 152 151 152 152 150 153 162 177 156   0   0   8   0   0   0   0   0   0   0   0   0   0   0
  0   0   0   0
  0   0   0   0   0   0   0   0   0   0   0   0   0   0   0   8   0   0 162 143   0  11   4   0
  0   2   6  10  14  23  33  43  57  71 119 156 151 153 166 181 185 188 198 201 201 197 187 192
202 204 211 212 209 213 212 205 196 183 182 181 183 181 180 181 181 170 160 162 162 158 154 151
147 150 152 153 154 154 152 156 177 157   0   0   8   0   0   0   0   0   0   0   0   0   0   0
  0   0   0   0
  0   0   0   0   0   0   0   0   0   0   0   0   0   0   0   8   0   0 163 145   0  11   4   0
  0   3   6  11  16  24  35  48  60  89 135 153 149 156 173 181 180 192 203 192 180 178 194 206
205 211 213 209 207 208 204 191 176 176 177 174 177 180 180 179 178 170 163 161 160 157 153 151
150 155 156 157 158 156 153 156 177 156   0   0   8   0   0   0   0   0   0   0   0   0   0   0
  0   0   0   0
  0   0   0   0   0   0   0   0   0   0   0   0   0   0   0   8   0   0 165 148   0   9   5   0
  1   3   8  12  17  25  37  52  68  99 130 143 147 171 184 180 179 192 185 165 163 172 189 192
195 207 206 198 193 195 191 179 177 179 175 177 183 182 180 176 169 165 166 165 162 157 153 153
155 156 154 157 156 151 153 158 176 156   0   0   8   0   0   0   0   0   0   0   0   0   0   0
  0   0   0   0
  0   0   0   0   0   0   0   0   0   0   0   0   0   0   0   8   0   0 166 150   0   8   5   0
  1   4   8  13  18  27  39  56  74  96 127 139 155 178 175 171 173 171 163 161 159 168 173 174
186 201 196 184 185 190 184 175 173 172 175 183 181 181 179 173 170 162 160 161 161 155 156 159
155 153 155 155 152 152 155 160 176 156   1   0   8   0   0   0   0   0   0   0   0   0   0   0
  0   0   0   0
  0   0   0   0   0   0   0   0   0   0   0   0   0   0   0   8   0   0 167 153   0   6   6   0
  1   4   9  13  19  31  45  61  80 100 126 141 160 174 168 165 170 168 165 168 160 159 160 170
181 191 192 190 188 185 180 173 169 171 180 185 179 177 176 172 170 164 156 154 156 152 151 150
151 155 156 156 153 151 156 160 176 157   0   0   8   0   0   0   0   0   0   0   0   0   0   0
  0   0   0   0
  0   0   0   0   0   0   0   0   0   0   0   0   0   0   0   8   0   0 169 157   0   3   7   0
  2   5   9  14  21  32  46  62  88 108 123 144 163 167 170 173 176 179 179 170 162 159 155 162
173 180 195 199 187 179 170 170 177 183 188 184 177 174 175 172 166 161 156 153 152 151 153 152
153 157 155 153 151 154 160 162 173 154   1   0   8   0   0   0   0   0   0   0   0   0   0   0
  0   0   0   0
  0   0   0   0   0   0   0   0   0   0   0   0   0   0   0   8   0   0 170 159   0   1   7   0
  2   5  10  15  23  34  46  70  92 109 124 145 155 158 169 178 182 183 176 167 162 156 157 172
181 182 195 201 191 182 178 182 190 183 180 175 169 174 179 174 168 163 160 159 163 167 161 157
158 159 154 155 158 161 162 158 171 155   2   0   8   0   0   0   0   0   0   0   0   0   0   0
  0   0   0   0
  0   0   0   0   0   0   0   0   0   0   0   0   0   0   0   8   0   0 171 161   0   0   7   0
  2   7  10  17  25  35  56  83  94 105 127 147 151 161 175 180 180 171 164 158 158 165 170 182
190 189 192 196 195 195 200 203 193 178 174 176 178 175 170 169 168 165 164 163 166 165 160 159
159 158 161 165 163 164 165 163 177 154   0   0   7   0   0   0   0   0   0   0   0   0   0   0
  0   0   0   0
  0   0   0   0   0   0   0   0   0   0   0   0   0   0   0   8   0   0 172 163   0   0   8   0
  3   8  11  18  27  42  69  93 104 104 126 138 145 161 172 178 178 166 158 153 161 177 177 183
189 187 189 194 203 204 205 201 194 182 172 176 177 167 164 164 161 158 156 155 155 156 157 158
155 161 165 164 163 164 165 168 174 145   0   0   7   0   0   0   0   0   0   0   0   0   0   0
  0   0   0   0
  0   0   0   0   0   0   0   0   0   0   0   0   0   0   0   8   0   0 173 165   0   0   8   0
  2   8  12  18  27  46  71  99 110 108 122 130 143 152 167 183 180 167 167 160 160 166 168 181
186 187 186 196 205 204 200 197 189 181 174 174 173 164 161 158 157 156 155 159 157 152 154 158
160 166 162 163 166 165 167 166 167 145   4   0   7   0   0   0   0   0   0   0   0   0   0   0
  0   0   0   0
  0   0   0   0   0   0   0   0   0   0   0   0   0   0   0   8   0   0 173 166   0   0   9   0
  1   7  13  17  30  50  75 102 106 110 120 129 144 158 179 184 173 160 166 167 162 160 164 178
185 183 188 196 200 195 194 193 181 173 175 176 171 164 158 159 163 162 166 164 156 157 160 159
162 162 165 169 165 160 161 165 168 144   2   0   7   0   0   0   0   0   0   0   0   0   0   0
  0   0   0   0
  0   0   0   0   0   0   0   0   0   0   0   0   0   0   0   8   0   0 174 167   0   0   9   0
  1   6  14  17  34  61  82  97 105 110 118 125 139 168 183 173 161 153 151 157 164 164 168 179
191 192 193 191 186 185 184 179 177 173 174 177 174 168 166 170 171 168 165 162 164 163 160 158
160 164 166 165 161 157 160 164 171 145   0   0   7   0   0   0   0   0   0   0   0   0   0   0
  0   0   0   0
  0   0   0   0   0   0   0   0   0   0   0   0   0   0   0   8   0   0 174 169   0   0   9   0
  1   6  13  21  34  66  87  96 113 119 125 128 139 165 181 171 162 153 149 158 168 171 177 178
181 180 178 178 175 173 166 165 170 169 168 172 171 170 173 175 173 165 160 163 161 157 156 154
155 160 162 163 162 158 161 165 170 144   0   0   6   0   0   0   0   0   0   0   0   0   0   0
  0   0   0   0
  0   0   0   0   0   0   0   0   0   0   0   0   0   0   0   8   0   0 175 171   0   0  10   0
  1   6  12  23  36  67  89 106 122 120 126 133 146 170 177 171 166 161 165 167 171 171 166 159
156 156 159 168 168 158 155 156 159 164 166 163 166 172 176 176 171 163 162 161 154 149 151 155
155 158 163 163 158 155 159 159 162 140   0   0   6   0   0   0   0   0   0   0   0   0   0   0
  0   0   0   0
  0   0   0   0   0   0   0   0   0   0   0   0   0   0   0   8   0   0 175 172   0   0  10   0
  1   6  11  20  36  68  87 105 123 112 115 131 151 174 174 170 173 169 171 171 163 162 158 153
154 154 157 158 158 160 160 157 158 162 159 157 162 172 173 173 165 156 154 153 158 159 158 153
155 162 162 160 160 161 162 159 167 146   1   0   7   0   0   0   0   0   0   0   0   0   0   0
  0   0   0   0
  0   0   0   0   0   0   0   0   0   0   0   0   0   0   0   8   0   0 175 171   0   0  10   0
  0   5  11  20  32  64  90 103 120 119 118 134 154 174 173 168 175 173 171 168 164 160 160 159
157 154 155 151 160 166 161 157 160 160 159 162 168 174 174 173 167 161 158 159 162 152 148 144
150 154 154 159 160 162 163 165 176 152   0   0   7   0   0   0   0   0   0   0   0   0   0   0
  0   0   0   0
  0   0   0   0   0   0   0   0   0   0   0   0   0   0   0   8   0   0 174 170   0   0  10   0
  0   5  10  19  33  55  93 115 124 123 124 140 165 182 176 173 175 172 173 170 170 164 164 160
159 165 163 165 171 167 166 162 159 162 170 176 177 179 174 168 168 169 162 164 153 147 148 147
146 147 157 165 162 163 165 165 173 149   0   0   7   0   0   0   0   0   0   0   0   0   0   0
  0   0   0   0
  0   0   0   0   0   0   0   0   0   0   0   0   0   0   0   8   0   0 174 169   0   0  10   0
  0   4  10  15  35  51  72 108 123 128 136 143 160 177 180 183 182 177 180 183 173 162 155 151
157 165 166 175 177 169 167 166 166 169 180 181 174 169 160 156 161 163 163 158 153 158 157 151
154 161 164 164 155 152 153 153 162 140   0   0   6   0   0   0   0   0   0   0   0   0   0   0
  0   0   0   0
  0   0   0   0   0   0   0   0   0   0   0   0   0   0   0   8   0   0 173 168   0   0   9   0
  0   2   9  12  30  53  56  81 114 131 141 152 158 171 177 177 176 182 185 183 170 157 155 159
162 165 173 179 177 171 171 167 168 174 181 175 171 164 154 155 162 159 157 152 158 161 160 160
159 159 155 148 145 146 147 144 155 139   4   0   6   0   0   0   0   0   0   0   0   0   0   0
  0   0   0   0
  0   0   0   0   0   0   0   0   0   0   0   0   0   0   0   8   0   0 173 167   0   0   9   0
  0   1   7  12  25  49  58  66 105 135 144 162 173 184 184 175 176 176 171 169 168 171 171 172
165 162 163 164 166 165 166 159 169 182 175 170 166 162 162 169 167 165 167 166 166 163 163 160
154 152 145 145 145 146 146 145 158 139   0   0   6   0   0   0   0   0   0   0   0   0   0   0
  0   0   0   0
  0   0   0   0   0   0   0   0   0   0   0   0   0   0   0   8   0   0 172 166   0   0   9   0
  0   0   5  12  22  40  55  71  95 123 143 156 162 176 179 173 174 174 174 172 176 177 170 166
160 158 158 169 171 165 169 176 180 179 172 163 161 167 173 171 170 174 173 168 161 163 158 148
143 141 140 141 138 139 139 141 152 136   6   0   6   0   0   0   0   0   0   0   0   0   0   0
  0   0   0   0
  0   0   0   0   0   0   0   0   0   0   0   0   0   0   0   8   0   0 172 166   0   0   9   0
  0   0   3  14  23  36  53  76 100 122 143 147 146 159 170 175 171 170 172 178 186 175 165 166
166 160 160 173 175 175 181 179 174 172 170 167 172 173 171 165 165 164 161 159 159 153 147 135
128 130 130 127 124 124 126 126 136 125   6   0   5   0   0   0   0   0   0   0   0   0   0   0
  0   0   0   0
  0   0   0   0   0   0   0   0   0   0   0   0   0   0   0   8   0   0 172 165   0   0   9   0
  0   0   1  16  26  39  58  82 113 132 145 149 144 153 170 185 187 181 182 183 180 178 175 172
171 167 165 171 174 177 179 175 177 177 179 177 177 173 168 164 159 155 159 157 153 142 134 122
120 120 117 117 115 113 114 116 127 115   3   0   4   0   0   0   0   0   0   0   0   0   0   0
  0   0   0   0
  0   0   0   0   0   0   0   0   0   0   0   0   0   0   0   8   0   0 171 165   0   0   9   0
  0   0   0  15  26  37  55  74  98 105 116 143 150 147 155 181 196 199 199 188 174 173 173 170
171 178 174 174 172 167 168 169 170 171 174 179 173 165 161 156 154 166 166 150 138 131 125 118
117 118 119 119 113 109 109 108 120 110   2   0   4   0   0   0   0   0   0   0   0   0   0   0
  0   0   0   0
  0   0   0   0   0   0   0   0   0   0   0   0   0   0   0   8   0   0 171 166   0   0   9   0
  0   0   0   8  22  34  47  56  68  79  88 119 156 167 161 174 190 194 188 182 176 174 172 167
167 170 172 177 173 167 167 165 167 168 172 171 168 164 162 162 165 165 154 139 126 123 124 119
114 114 110 107 101  99  98  98 109 103  11   0   4   0   0   0   0   0   0   0   0   0   0   0
  0   0   0   0
  0   0   0   0   0   0   0   0   0   0   0   0   0   0   0   8   0   0 171 166   0   0   9   0
  0   0   0   2  17  27  41  53  58  68  82  96 131 168 180 177 175 181 185 185 179 174 164 164
170 182 185 176 171 170 173 178 178 179 173 167 166 170 169 163 158 152 146 135 122 119 116 107
 99  99 100  98  96  94  93  88 100 117  26   0   5   0   0   0   0   0   0   0   0   0   0   0
  0   0   0   0
  0   0   0   0   0   0   0   0   0   0   0   0   0   0   0   8   0   0 171 166   0   0   9   0
  0   0   0   0   7  20  30  44  58  69  79  81 109 133 149 166 171 174 182 190 178 171 170 174
181 183 176 171 165 164 167 163 168 169 165 169 168 170 164 156 155 142 128 128 126 113 105  99
 98 101 100  97  91  85  83  72 111 140  26   0   7   0   0   0   0   0   0   0   0   0   0   0
  0   0   0   0
  0   0   0   0   0   0   0   0   0   0   0   0   0   0   0   8   0   0 171 167   0   0   9   0
  0   0   0   0   1   9  17  35  50  63  76  84 106 109 117 148 163 158 160 167 165 170 172 173
176 177 169 167 163 163 164 162 164 163 164 160 160 156 153 158 147 130 128 127 120 110 107 103
100  96  92  88  81  75  75  63 135 156  14   0   8   0   0   0   0   0   0   0   0   0   0   0
  0   0   0   0
  0   0   0   0   0   0   0   0   0   0   0   0   0   0   0   8   0   0 172 168   0   0   9   0
  0   0   0   0   0   3   8  24  41  46  56  84  99 110 135 144 154 160 155 152 160 171 175 176
172 164 158 162 170 171 166 168 170 166 162 157 159 156 148 137 127 122 118 116 111 107 105  95
 88  84  78  75  73  70  63  72 164 167   0   0   9   0   0   0   0   0   0   0   0   0   0   0
  0   0   0   0
  0   0   0   0   0   0   0   0   0   0   0   0   0   0   0   8   0   0 171 169   6   0  10   0
  0   0   0   0   0   1   6  11  28  47  55  72  89 112 137 153 167 172 162 165 176 180 188 188
171 162 166 169 168 165 169 170 166 160 155 153 158 151 130 116 119 113 108 106 104 104  94  86
 84  80  73  71  67  63  46 101 184 163   0   0   8   0   0   0   0   0   0   0   0   0   0   0
  0   0   0   0
  0   0   0   0   0   0   0   0   0   0   0   0   0   0   0   8   0   0 171 169   5   0  10   0
  0   0   0   0   0   0   3   8  14  34  54  62  75  97 102 120 146 162 156 154 161 159 166 181
191 185 174 169 164 169 165 155 149 143 141 151 143 128 116 112 110 103 100  99 102  93  86  80
 75  72  68  63  56  54  35 125 188 158   0   0   7   0   0   0   0   0   0   0   0   0   0   0
  0   0   0   0
  0   0   0   0   0   0   0   0   0   0   0   0   0   0   0   8   0   0 172 168   5   0   9   0
  0   0   0   0   0   0   0   4   9  13  31  50  60  74  82  96 121 148 155 141 143 149 146 152
169 167 158 159 164 165 153 140 135 133 144 144 119 112 110 105  98  95  94  95  89  78  71  64
 60  58  56  53  50  45  38 138 188 157   0   0   8   0   0   0   0   0   0   0   0   0   0   0
  0   0   0   0
  0   0   0   0   0   0   0   0   0   0   0   0   0   0   0   8   0   0 171 169  15   0  10   0
  0   0   0   0   0   0   0   1   8  10  16  30  50  66  86  94 102 122 128 119 128 136 142 144
143 142 149 156 153 148 136 130 134 139 143 118 106 103 104  99  93  94  89  78  70  62  55  54
 56  54  47  43  42  33  44 143 184 157   0   0   8   0   0   0   0   0   0   0   0   0   0   0
  0   0   0   0
  0   0   0   0   0   0   0   0   0   0   0   0   0   0   0   8   0   0 172 171  23   0  10   0
  0   0   0   0   0   0   1   0   4   7  10  17  30  39  58  73  73  84 111 120 123 124 131 140
145 146 142 137 131 132 131 133 139 141 118  99  99  95  95  92  89  82  73  65  57  53  52  50
 46  42  36  36  38  23  48 148 186 157   0   0   8   0   0   0   0   0   0   0   0   0   0   0
  0   0   0   0
  0   0   0   0   0   0   0   0   0   0   0   0   0   0   0   8   0   0 172 172  26   0  10   0
  0   0   0   0   0   0   1   0   0   2   7  10  16  24  27  40  56  70  88 105 111 110 117 120
124 126 123 117 116 126 127 126 133 120  98  94  91  91  88  85  74  62  62  55  51  51  45  39
 33  30  29  31  34   0  56 153 188 159   0   0   8   0   0   0   0   0   0   0   0   0   0   0
  0   0   0   0
  0   0   0   0   0   0   0   0   0   0   0   0   0   0   0   8   0   0 172 172  29   0  10   0
  0   0   0   0   0   0   0   0   0   0   3   6  10  16  23  29  39  52  65  78  90  98 101 106
112 108 107 112 114 113 110 119 118 100  91  81  81  78  72  66  58  57  53  51  50  38  30  29
 28  26  25  24  27   0  63 148 185 160   0   0   8   0   0   0   0   0   0   0   0   0   0   0
  0   0   0   0
  0   0   0   0   0   0   0   0   0   0   0   0   0   0   0   8   0   0 172 172  28   0  10   0
  0   0   0   0   0   0   0   0   0   0   0   3   6  10  16  21  28  34  42  52  65  75  82  97
104 104 102 103 104  98  99 109  98  81  75  73  67  60  54  51  53  53  48  48  38  28  27  26
 25  21  19  18  23   0  63 137 178 158   0   0   8   0   0   0   0   0   0   0   0   0   0   0
  0   0   0   0
  0   0   0   0   0   0   0   0   0   0   0   0   0   0   0   8   0   0 172 172  28   0  10   0
  0   0   0   0   0   0   0   0   0   0   0   0   3   6   9  14  18  23  33  41  44  47  63  78
 87  96  96  89  82  82  93  93  82  76  74  64  54  50  49  47  44  39  36  33  26  24  22  23
 20  15  15  14  19   0  63 123 172 158   0   0   8   0   0   0   0   0   0   0   0   0   0   0
  0   0   0   0
  0   0   0   0   0   0   0   0   0   0   0   0   0   0   0   8   0   0 172 173  29   0  10   0
  0   0   0   0   0   0   0   0   0   0   0   0   0   3   7   9  12  15  20  26  36  40  49  63
 67  71  71  73  74  68  69  72  73  66  55  48  44  41  39  34  30  27  25  23  21  19  16  18
 17  12  12  12  15   0  63 107 160 156   0   0   8   0   0   0   0   0   0   0   0   0   0   0
  0   0   0   0
  0   0   0   0   0   0   0   0   0   0   0   0   0   0   0   8   0   0 172 173  30   0  11   0
  0   0   0   0   0   0   0   0   0   0   0   0   0   0   3   6   9  11  14  16  24  31  34  40
 46  47  46  50  51  49  53  55  46  37  34  36  32  29  28  25  22  21  20  19  16  15  12  15
 14   9  10  10  11   0  54  82 142 150   5   0   8   0   0   0   0   0   0   0   0   0   0   0
  0   0   0   0
  0   0   0   0   0   0   0   0   0   0   0   0   0   0   0   8   0   0 172 173  30   0  11   0
  0   0   0   0   0   0   0   0   0   0   0   0   0   0   0   3   6   7   9  12  13  16  23  26
 27  32  36  36  36  39  38  32  29  29  28  26  23  21  21  20  18  17  16  14  13  12  10  13
 13   7   8   8   8   3  46  65 122 139  19   0   7   0   0   0   0   0   0   0   0   0   0   0
  0   0   0   0
  0   0   0   0   0   0   0   0   0   0   0   0   0   0   0   8   0   0 172 173  30   0  11   0
  0   0   0   0   0   0   0   0   0   0   0   0   0   0   0   0   2   5   7   8  10  12  14  17
 20  21  21  23  26  25  21  22  22  21  20  19  17  16  17  16  14  13  11  10  10  10   8  11
 11   5   7   7   5   5  38  53  96 118  24   0   5   0   0   0   0   0   0   0   0   0   0   0
  0   0   0   0
  0   0   0   0   0   0   0   0   0   0   0   0   0   0   0   8   0   0 173 174  33   0  11   0
  0   0   0   0   0   0   0   0   0   0   0   0   0   0   0   1   0   1   3   5   7   8   8   9
 11  11  13  14  14  14  16  15  14  14  14  13  13  12  12  12  10   9   8   8   7   7   6  10
  9   4   6   6   3   6  28  32  66  87  17   0   3   0   0   0   0   0   0   0   0   0   0   0
  0   0   0   0
  0   0   0   0   0   0   0   0   0   0   0   0   0   0   0   8   0   0 174 176  38   0  11   0
  0   0   0   0   0   0   0   0   1   0   0   0   1   0   1   1   1   0   0   2   4   5   6   7
  8   8   9   9  10  11  11  11  11  11  11  10   9   9   9   8   7   7   6   5   6   6   4   8
  8   3   4   4   2   5  19  23  46  55   5   0   1   0   0   0   0   0   0   0   0   0   0   0
  0   0   0   0
  0   0   0   0   0   0   0   0   0   0   0   0   0   0   0   8   0   0 175 179  43   0  12   0
  0   0   0   0   1   1   1   1   1   1   1   1   1   1   1   1   1   1   1   1   1   2   3   5
  6   6   6   6   6   7   7   7   7   8   8   7   7   6   6   5   5   5   4   4   4   4   3   9
  9   2   5   5   2   5  14  16  28  32   2   0   0   0   0   0   0   0   0   0   0   0   0   0
  0   0   0   0
  0   0   0   0   0   0   0   0   0   0   0   0   0   0   0   8   0   0 176 182  50   0  12   0
  0   0   0   1   1   1   1   1   1   1   1   1   1   1   1   1   1   1   1   1   1   1   1   1
  3   3   4   4   5   5   5   6   6   6   5   5   5   5   4   4   4   4   3   3   3   3   1  12
 13   0   0   0   0   2   5   5   5   4   0   0   0   0   0   0   0   0   0   0   0   0   0   0
  0   0   0   0
  0   0   0   0   0   0   0   0   0   0   0   0   0   0   0   8   0   0 177 185  56   0  13   0
  0   1   1   1   1   1   1   1   1   1   1   1   1   1   1   1   1   1   1   1   1   1   1   1
  1   1   1   1   2   3   3   3   3   4   4   4   3   3   3   3   3   2   2   2   1   1   0  10
 11   0  13  21   8   0   3   3   6   7   0   0   0   0   0   0   0   0   0   0   0   0   0   0
  0   0   0   0
  0   0   0   0   0   0   0   0   0   0   0   0   0   0   0   9   0   0 178 188  63   0  14   1
  1   1   1   1   1   1   1   2   1   1   1   1   1   1   1   1   1   1   1   1   1   1   1   1
  2   1   1   0   0   1   1   1   1   1   1   1   1   1   1   1   0   0   0   0   0   0   0   8
 13   0  47  69  36   0   4   4   6   6   0   0   0   0   0   0   0   0   0   0   0   0   0   0
  0   0   0   0
  0   0   0   0   0   0   0   0   0   0   0   0   0   0   0   9   0   0 179 191  70   0  14   2
  1   1   1   1   2   2   2   2   2   2   2   2   2   1   1   2   2   2   1   1   1   1   1   1
  2   1   1   1   1   1   1   1   1   1   1   1   0   0   0   0   0   0   0   0   0   0   0   9
 10   0   2   1   0   1   4   4   6   6   0   0   0   0   0   0   0   0   0   0   0   0   0   0
  0   0   0   0
  0   0   0   0   0   0   0   0   0   0   0   0   0   0   0   9   0   0 180 195  78   0  15   2
  1   2   2   1   2   2   2   2   2   2   2   2   2   2   2   2   2   2   2   1   1   1   1   2
  2   2   1   1   1   1   1   1   1   1   1   1   1   1   1   0   1   0   0   0   0   0   0   9
 10   0   0   0   0   1   4   5   6   6   0   0   0   0   0   0   0   0   0   0   0   0   0   0
  0   0   0   0
  0   0   0   0   0   0   0   0   0   0   0   0   0   0   0   9   0   0 182 199  86   0  14   2
  2   2   2   2   2   2   2   2   2   3   3   2   2   2   2   2   2   2   2   2   2   2   2   2
  2   2   1   1   1   1   1   1   1   1   1   1   1   1   1   1   1   1   0   0   0   1   0   9
 11   0   2   2   0   2   4   5   7   7   0   0   0   0   0   0   0   0   0   0   0   0   0   0
  0   0   0   0
