P2
# 8-bit pgm gray
100 100
255
  0   0   0   0   0   0   0   0   0   0   0   0   0   0   0  10   0   0 187 220 210 209 210 212
213 214 215 215 215 215 214 214 211 206 197 184 165 128  86  72  60  48  38  31  26  22  18  16
 13  12  12  12  12  12  12  12  12  12  12  12  12  11  12  12  12  11  11  11  11  11  11  12
 11  11  11  11  11  11  11  11  12   8   0   0   0   0   0   0   0   0   0   0   0   0   0   0
  0   0   0   0
  0   0   0   0   0   0   0   0   0   0   0   0   0   0   0  10   0   0 188 222 208 210 211 213
213 215 215 215 215 214 214 212 208 202 192 177 149 103  78  69  55  45  36  29  24  20  17  14
 11  11  11  11  11  11  11  12  12  12  11  11  11  11  11  11  11  11  11  11  11  11  11  11
 11  11  11  11  11  11  11  11  11   8   0   0   0   0   0   0   0   0   0   0   0   0   0   0
  0   0   0   0
  0   0   0   0   0   0   0   0   0   0   0   0   0   0   0  10   0   0 188 221 207 211 213 214
214 215 215 215 214 214 213 211 205 196 187 168 129  91  80  65  54  43  35  28  23  18  15  13
 11  11  11  11  11  11  11  11  11  11  11  11  11  11  11  11  11  11  11  10  11  11  10  11
 11  10  10  11  11  11  11  11  11   8   0   0   0   0   0   0   0   0   0   0   0   0   0   0
  0   0   0   0
  0   0   0   0   0   0   0   0   0   0   0   0   0   0   0  11   0   0 188 219 208 212 214 215
214 215 215 214 214 213 212 209 202 193 181 154 111  92  77  62  51  41  33  27  22  17  15  12
 11  11  11  11  11  11  11  11  11  11  11  11  11  11  11  11  11  11  10  10  11  10  10  10
 10  10  10  10  10  10  11  10  11   7   0   0   0   0   0   0   0   0   0   0   0   0   0   0
  0   0   0   0
  0   0   0   0   0   0   0   0   0   0   0   0   0   0   0  11   0   0 190 224 213 215 215 216
215 216 215 214 213 212 211 207 198 189 172 132  98  88  72  61  49  39  32  26  21  17  14  11
 10  11  10  10  11  11  11  11  11  11  11  11  11  11  10  11  11  11  10  10  10  10  10  12
 11  10  10  10  10  10  10  10  11  10   0   0   0   0   0   0   0   0   0   0   0   0   0   0
  0   0   0   0
  0   0   0   0   0   0   0   0   0   0   0   0   0   0   0  10   0   0 189 226 217 218 216 216
216 216 215 215 213 211 208 203 195 184 153 110  93  82  69  58  46  37  30  24  19  16  13  10
 10  10  10  10  10  10  11  11  11  11  11  11  11  11  10  11  10  10  10  10  10  10  10  12
 11  10  10  10  10  10  10  10  10  21   4   0   0   0   0   0   0   0   0   0   0   0   0   0
  0   0   0   0
  0   0   0   0   0   0   0   0   0   0   0   0   0   0   0  10   0   0 188 226 218 220 219 219
217 216 216 214 212 209 204 199 191 171 131 103  91  77  66  55  44  35  29  23  18  16  12  10
 10  10  10  10  10  10  10  10  10  10  10  10  10  10  10  10  10  10  10  10  10  10  10  10
 10  10  10  10  11  11  10  10  10  18   3   0   0   0   0   0   0   0   0   0   0   0   0   0
  0   0   0   0
  0   0   0   0   0   0   0   0   0   0   0   0   0   0   0  10   0   0 188 227 218 219 220 220
217 217 215 213 211 207 201 194 183 153 114  99  86  73  61  51  42  33  27  22  18  15  10  10
 10  10  10  10  10  10  10  10  10  10  10  10  10  10  10  10  10  10   9   9  10  10  10  10
 10  10  10  10  10  10  10  10  11   7   0   0   0   0   0   0   0   0   0   0   0   0   0   0
  0   0   0   0
  0   0   0   0   0   0   0   0   0   0   0   0   0   0   0  11   0   0 190 227 218 218 218 219
216 216 215 212 209 204 198 188 168 129 106  96  84  71  58  49  41  32  26  22  19  15  10  10
 10  10  10  10  10  11  11   9  10  10  10  10  10  10  10  10  10  10   9   9   9   9   9  10
 10  10  10  10   7  10  14  12  11   7   0   0   0   0   0   0   0   0   0   0   0   0   0   0
  0   0   0   0
  0   0   0   0   0   0   0   0   0   0   0   0   0   0   0  11   0   0 192 228 218 220 217 217
217 215 214 212 206 200 193 180 150 112 102  92  82  69  58  50  42  33  27  22  19  14  10  10
 10  10  10  10   9  10  10   9  10  10  10  10  10  10  10   9  10  10   9   9   9   9   9   9
  9   9  11   1  34  33   0   0   9   8   0   0   0   0   0   0   0   0   0   0   0   0   0   0
  0   0   0   0
  0   0   0   0   0   0   0   0   0   0   0   0   0   0   0  11   0   0 193 229 218 221 220 218
217 213 212 210 205 198 189 167 130 112 101  92  82  68  58  49  41  33  27  21  19  15  10  10
 10   9   9  10   9   9  10   9  10  10  10  10  10  10  10  10  10   9   9   9   9   9   9   9
  9   9  13   0  49  63  44  41  18   5   1   0   0   0   0   0   0   0   0   0   0   0   0   0
  0   0   0   0
  0   0   0   0   0   0   0   0   0   0   0   0   0   0   0  11   0   0 191 228 218 220 218 218
216 214 211 207 202 194 183 154 119 112 103  91  79  68  59  51  42  34  28  22  19  17  12  10
 10   9   9   9   9  10   9   9   9  10  10   9   9   9   9  10  10  10   9   9   9   9   9   9
  9   9  11   5  23  61  59  46  15   0   0   0   0   0   0   0   0   0   0   0   0   0   0   0
  0   0   0   0
  0   0   0   0   0   0   0   0   0   0   0   0   0   0   0  11   0   0 191 229 219 221 219 217
215 213 210 205 199 189 170 136 120 117 105  93  81  70  62  54  45  37  30  24  20  17  14  10
 10   9   9   9   9  10   9   9   9   9   9   9   9   9   9   9   9  13  11   9   9   9   9   9
  9   9  12   1  28  67  86  70  24  26  11   0   1   0   0   0   0   0   0   0   0   0   0   0
  0   0   0   0
  0   0   0   0   0   0   0   0   0   0   0   0   0   0   0  11   0   0 192 230 219 221 221 218
214 213 208 205 197 184 159 127 121 120 109  98  88  76  66  56  47  39  32  26  22  18  16  12
  9   9   9   9   9  10   9   9   9   9   9   9   9   9   9   9  10  10  10   9   9   9   9   9
  9   9  15   0  53  84 111 104  53  20  18   0   1   0   0   0   0   0   0   0   0   0   0   0
  0   0   0   0
  0   0   0   0   0   0   0   0   0   0   0   0   0   0   0  11   0   0 193 231 220 220 219 219
217 212 207 202 194 178 145 128 123 117 109  97  88  79  69  60  51  42  34  27  22  19  17  15
 11   9   9   9   9  10   9   9   9   9   9   9   9   9   9  10  10   9   9   9   9   9   9   9
  9   9  11   5  22  66  85  70  22  20   7   0   0   0   0   0   0   0   0   0   0   0   0   0
  0   0   0   0
  0   0   0   0   0   0   0   0   0   0   0   0   0   0   0  11   0   0 193 231 220 221 219 217
214 211 208 200 190 169 141 134 129 120 112 103  93  83  73  63  54  47  39  31  26  21  18  16
 14  10   9   9   9  10   9   9   9   9   9   9  11   9   9   9  10  10   9   9  10   9   9  10
  9   9  11   3  25  54  66  63  17  58  20   0   2   0   0   0   0   0   0   0   0   0   0   0
  0   0   0   0
  0   0   0   0   0   0   0   0   0   0   0   0   0   0   0  11   0   0 193 231 220 222 220 216
211 209 205 197 184 158 142 140 133 123 116 105  97  87  76  67  60  51  45  38  30  25  21  18
 15  13   9   9   9  10   9   9   9   9   9   9  10   9   9   9  10   9   9   9   9   9   9   9
  9   9  13   0  53  60  30  81  46  44  20   0   1   0   0   0   0   0   0   0   0   0   0   0
  0   0   0   0
  0   0   0   0   0   0   0   0   0   0   0   0   0   0   0  11   0   0 193 232 220 221 219 216
211 207 200 191 174 149 142 140 137 134 128 116 102  91  83  74  67  58  50  43  36  29  24  20
 17  15  12   9   9   9   9   9   9   9   9   9   9   9   9   9   9   9   9   9   9   9   9   9
  9   9  11   3  27  55  59  52  15   6   2   0   0   0   0   0   0   0   0   0   0   0   0   0
  0   0   0   0
  0   0   0   0   0   0   0   0   0   0   0   0   0   0   0  11   0   0 193 232 220 220 219 216
212 207 199 188 162 146 144 137 134 130 128 126 117 103  91  83  74  65  56  49  43  36  30  25
 20  17  15  11   9   9   9   9   9   9   9   9   9   9   9   9   9   9   9   9   9   9   9   9
  9   9   9  10   2  10  21   1   4  14   1   0   0   0   0   0   0   0   0   0   0   0   0   0
  0   0   0   0
  0   0   0   0   0   0   0   0   0   0   0   0   0   0   0  11   0   0 194 233 221 221 218 214
211 206 196 178 151 145 145 138 133 131 125 122 123 118 105  95  86  76  69  61  52  44  37  31
 24  20  17  15  11   9   9   9   9   9   9   9   9   9   9   9   9   9   9   8   9   9   9   9
  9   9   9   9  10   7   3  10  11   6   0   0   0   0   0   0   0   0   0   0   0   0   0   0
  0   0   0   0
  0   0   0   0   0   0   0   0   0   0   0   0   0   0   0  11   0   0 194 232 221 220 216 213
210 203 193 170 152 152 150 149 144 137 132 125 122 118 112 108 102  88  76  68  59  52  44  36
 30  24  20  16  14  11   9   9   9   9   9   9   9   9   9   9   9   9   9   9   9   9   9   9
  9   9   9   9   9  10  11   9   9  20   3   0   0   0   0   0   0   0   0   0   0   0   0   0
  0   0   0   0
  0   0   0   0   0   0   0   0   0   0   0   0   0   0   0  11   0   0 194 232 220 219 215 212
208 200 185 162 154 154 152 151 149 144 138 133 128 123 116 112 109  98  86  76  67  60  51  43
 36  29  23  20  17  14  11   9   9   9   9   9   9   9   9   9   9   9   9   9   8   8   9   9
  9   9   9   9   9   9   9   8   9  10   1   0   0   0   0   0   0   0   0   0   0   0   0   0
  0   0   0   0
  0   0   0   0   0   0   0   0   0   0   0   0   0   0   0  11   0   0 194 232 220 217 214 211
206 197 177 157 154 150 148 147 143 140 140 139 133 127 122 118 115 106  95  86  78  68  58  50
 44  35  28  24  19  17  15  10   9   9   9   9   9   9   9   9   9   9   9   8   8   8   8   9
  9   8   9  11  12  11  10   8   9   5   0   0   0   0   0   0   0   0   0   0   0   0   0   0
  0   0   0   0
  0   0   0   0   0   0   0   0   0   0   0   0   0   0   0  11   0   0 195 233 219 217 213 209
203 192 169 155 155 152 152 149 148 145 143 141 137 135 133 127 122 116 109  98  88  79  69  60
 52  43  36  29  24  20  17  14  11   9   9   9   9   9   9   9   9   9   9   9   9   8   8   9
  9   8  10   4   0   2   4   9   8   6   0   0   0   0   0   0   0   0   0   0   0   0   0   0
  0   0   0   0
  0   0   0   0   0   0   0   0   0   0   0   0   0   0   0  11   0   0 195 233 217 216 211 206
201 185 160 153 154 153 149 146 145 145 146 145 143 141 140 142 132 118 115 110  96  89  81  71
 62  52  44  36  29  24  19  16  14  10   9   9   9   8   9   9   9   9   9   9   8   8   8   8
  8  10   0  29  48  30  22   6   9   2   0   0   0   0   0   0   0   0   0   0   0   0   0   0
  0   0   0   0
  0   0   0   0   0   0   0   0   0   0   0   0   0   0   0  11   0   0 195 233 218 216 210 206
198 180 157 152 151 148 144 141 140 140 143 146 151 152 148 153 154 139 126 125 115  98  89  82
 72  62  52  44  35  28  23  18  16  14  10   9   9   9   8   9   9   9   8   8   8   8   8   8
  8  12   0  52  74  52  39   0  11  23   3   0   0   0   0   0   0   0   0   0   0   0   0   0
  0   0   0   0
  0   0   0   0   0   0   0   0   0   0   0   0   0   0   0  11   0   0 195 232 217 215 209 203
195 174 154 152 148 145 143 141 139 138 139 141 148 151 149 151 155 155 147 140 138 127 112  93
 80  74  63  52  44  35  28  21  17  15  12   9   9   8   8   9   9   8   8   8   8   9   8   9
  9   9   1  34  46  36  23   3  10  24   3   0   0   0   0   0   0   0   0   0   0   0   0   0
  0   0   0   0
  0   0   0   0   0   0   0   0   0   0   0   0   0   0   0  11   0   0 194 232 216 213 208 202
190 166 152 150 147 145 142 143 143 142 141 143 145 148 148 148 145 147 154 152 141 137 133 123
104  85  71  60  53  44  35  27  21  17  14  11   8   8   8   9   9   9   8   8   9   9   8   9
  9   8  10   2   0   4   8   7  12  30   4   0   0   0   0   0   0   0   0   0   0   0   0   0
  0   0   0   0
  0   0   0   0   0   0   0   0   0   0   0   0   0   0   0  11   0   0 195 231 216 212 205 196
183 166 155 151 147 145 141 139 140 142 143 144 146 149 149 152 148 145 151 157 150 137 131 135
131 108  89  72  59  50  41  34  26  20  16  13  10   8   8   8   9   9   8   8   9   9   9   9
  9   8   8  10  11   9   9   8   9  16   1   0   0   0   0   0   0   0   0   0   0   0   0   0
  0   0   0   0
  0   0   0   0   0   0   0   0   0   0   0   0   0   0   0  11   0   0 195 231 214 211 204 192
175 162 157 150 146 143 144 145 145 145 145 143 144 145 146 151 155 155 154 151 152 150 142 134
136 133 109  88  71  58  49  40  30  24  19  15  12   9   8   8   8   8   8   8   8   8   8   9
  9   9   9   9   8   8   8   8   8   2   0   0   0   0   0   0   0   0   0   0   0   0   0   0
  0   0   0   0
  0   0   0   0   0   0   0   0   0   0   0   0   0   0   0  11   0   0 195 231 212 210 202 189
173 159 156 150 148 147 148 146 144 144 146 148 144 143 143 153 158 157 162 154 150 146 142 139
137 142 132 108  86  73  58  46  37  28  22  17  14  11   8   8   8   8   8   8   8   8   9   9
  8   9   9   9   8   8   8   8   8   6   0   0   0   0   0   0   0   0   0   0   0   0   0   0
  0   0   0   0
  0   0   0   0   0   0   0   0   0   0   0   0   0   0   0  11   0   0 195 230 212 208 197 185
169 156 154 152 150 150 148 145 144 143 144 148 148 142 141 150 165 167 165 157 154 154 147 144
142 140 140 138 116  83  68  56  45  36  27  20  16  14  10   8   8   8   8   8   8   8   8   9
  8   8   9   8   8   8   8   8   8   5   0   0   0   0   0   0   0   0   0   0   0   0   0   0
  0   0   0   0
  0   0   0   0   0   0   0   0   0   0   0   0   0   0   0  11   0   0 194 229 211 206 192 178
160 152 153 156 150 148 154 154 150 148 145 146 149 145 142 144 156 168 165 159 152 154 154 145
144 142 138 141 147 123  80  65  54  44  35  27  19  15  12   9   8   8   8   8   8   8   8   8
  8   8   8   8   8   8   8   8   8   5   0   0   0   0   0   0   0   0   0   0   0   0   0   0
  0   0   0   0
  0   0   0   0   0   0   0   0   0   0   0   0   0   0   0  11   0   0 194 227 208 202 187 173
159 154 152 153 157 150 159 167 159 150 150 152 150 147 144 141 144 153 163 165 150 148 151 145
148 149 144 138 140 148 125  79  63  52  40  32  23  17  14  11   8   8   8   7   8   8   8   8
  8   8   8   8   8   8   8   7   8   5   0   0   0   0   0   0   0   0   0   0   0   0   0   0
  0   0   0   0
  0   0   0   0   0   0   0   0   0   0   0   0   0   0   0  11   0   0 195 227 207 197 183 172
161 154 151 150 154 161 160 168 173 160 155 153 149 148 145 146 152 152 162 164 155 159 153 148
159 161 143 136 135 141 147 122  79  58  47  36  27  21  16  13   9   7   8   7   8   8   8   8
  8   8   8   8   8   8   8   7   8   5   0   0   0   0   0   0   0   0   0   0   0   0   0   0
  0   0   0   0
  0   0   0   0   0   0   0   0   0   0   0   0   0   0   0  11   0   0 195 227 207 195 182 171
163 157 152 154 150 154 160 159 164 166 166 155 148 150 150 155 162 158 163 167 163 174 168 160
166 158 144 139 141 146 147 140 121  77  53  45  33  25  19  15  12   8   7   8   8   8   8   8
  8   8   8   7   7   8   8   7   8   5   0   0   0   0   0   0   0   0   0   0   0   0   0   0
  0   0   0   0
  0   0   0   0   0   0   0   0   0   0   0   0   0   0   0  11   0   0 194 225 204 193 180 167
158 157 150 152 158 156 157 158 157 163 166 164 164 160 157 157 159 164 167 171 174 177 181 178
167 156 150 149 150 157 158 141 133 113  71  50  40  29  22  17  14   9   7   7   8   8   8   8
  8   8   7   7   7   8   8   7   8   5   0   0   0   0   0   0   0   0   0   0   0   0   0   0
  0   0   0   0
  0   0   0   0   0   0   0   0   0   0   0   0   0   0   0  11   0   0 193 222 200 191 178 166
160 156 151 151 155 156 156 156 157 160 160 162 169 170 164 165 166 167 164 165 175 176 180 179
170 169 163 156 155 157 164 151 130 124 103  59  44  33  25  20  15  11   8   8   8   8   8   8
  8   7   8   8   7   7   8   7   7   5   0   0   0   0   0   0   0   0   0   0   0   0   0   0
  0   0   0   0
  0   0   0   0   0   0   0   0   0   0   0   0   0   0   0  11   0   0 194 222 198 188 173 163
160 154 151 152 149 151 155 156 155 155 155 158 163 167 169 168 174 170 162 165 175 178 179 181
180 181 179 170 155 156 163 161 140 128 116  83  54  41  30  22  16  13   9   7   8   8   8   8
  8   8   8   8   7   7   8   7   7   5   0   0   0   0   0   0   0   0   0   0   0   0   0   0
  0   0   0   0
  0   0   0   0   0   0   0   0   0   0   0   0   0   0   0  11   0   0 193 220 196 187 171 160
159 155 151 146 145 148 154 157 159 157 153 158 168 168 166 170 178 173 167 172 181 184 190 190
189 192 188 180 165 156 163 166 153 138 128 103  68  46  35  24  18  14  11   7   8   8   8   8
  8   8   7   8   8   7   7   7   8   5   0   0   0   0   0   0   0   0   0   0   0   0   0   0
  0   0   0   0
  0   0   0   0   0   0   0   0   0   0   0   0   0   0   0  11   0   0 192 218 195 187 171 162
160 157 153 145 147 149 153 158 163 161 157 158 163 163 164 169 178 180 178 181 181 183 188 188
185 188 187 181 176 161 165 169 162 149 142 118  81  52  39  28  19  15  12   8   7   8   8   8
  8   8   7   7   8   7   7   7   8   5   0   0   0   0   0   0   0   0   0   0   0   0   0   0
  0   0   0   0
  0   0   0   0   0   0   0   0   0   0   0   0   0   0   0  11   0   0 191 217 195 184 169 168
162 158 156 152 149 151 154 155 159 157 159 159 158 154 158 169 172 174 176 178 179 180 179 182
183 187 188 187 186 178 170 170 171 162 148 128  98  70  41  31  23  16  14  10   7   8   8   8
  8   8   8   7   7   7   7   7   8   5   0   0   0   0   0   0   0   0   0   0   0   0   0   0
  0   0   0   0
  0   0   0   0   0   0   0   0   0   0   0   0   0   0   0  11   0   0 192 217 194 184 166 161
159 153 153 151 150 155 156 156 156 154 158 158 157 156 157 167 168 168 170 170 174 178 171 170
180 191 187 186 188 188 181 182 178 170 150 133 113  75  43  35  26  19  14  11   8   8   8   8
  8   8   8   8   7   7   8   7   8   5   0   0   0   0   0   0   0   0   0   0   0   0   0   0
  0   0   0   0
  0   0   0   0   0   0   0   0   0   0   0   0   0   0   0  11   0   0 192 219 195 184 166 158
157 155 153 152 150 154 159 161 159 160 161 160 161 159 156 161 171 175 175 176 172 174 168 162
168 181 183 186 186 184 183 184 177 172 155 140 120  78  47  40  29  21  15  13   8   7   8   8
  8   8   8   8   7   7   8   7   8   5   0   0   0   0   0   0   0   0   0   0   0   0   0   0
  0   0   0   0
  0   0   0   0   0   0   0   0   0   0   0   0   0   0   0  11   0   0 192 218 196 185 162 153
153 151 152 152 152 154 160 158 159 163 163 166 167 164 167 170 177 177 172 174 177 178 173 163
163 171 183 193 189 187 191 186 174 166 153 149 129  91  53  44  32  22  17  13   9   7   7   8
  8   8   7   7   7   8   8   7   8   5   0   0   0   0   0   0   0   0   0   0   0   0   0   0
  0   0   0   0
  0   0   0   0   0   0   0   0   0   0   0   0   0   0   0  11   0   0 192 217 196 189 169 156
155 153 152 151 149 150 155 155 152 153 156 161 164 163 163 169 169 162 164 167 169 171 170 173
173 174 182 193 197 193 192 194 186 166 143 150 139 105  61  47  34  24  18  14  10   7   7   8
  8   7   7   7   8   8   8   8   8   5   0   0   0   0   0   0   0   0   0   0   0   0   0   0
  0   0   0   0
  0   0   0   0   0   0   0   0   0   0   0   0   0   0   0  11   0   0 193 217 195 188 173 163
160 161 160 159 157 157 159 158 153 153 155 153 153 153 153 153 155 157 157 158 156 160 161 167
173 180 183 184 198 207 193 184 195 176 151 154 154 124  71  48  36  26  19  14  11   7   7   8
  8   7   7   7   7   7   8   7   8   5   0   0   0   0   0   0   0   0   0   0   0   0   0   0
  0   0   0   0
  0   0   0   0   0   0   0   0   0   0   0   0   0   0   0  11   0   0 194 219 197 191 173 161
160 160 156 154 154 159 161 163 163 157 153 154 155 149 150 150 151 152 151 154 155 163 171 169
172 173 180 181 192 207 204 189 197 186 159 155 156 132  79  48  39  27  20  15  12   7   7   8
  7   7   7   8   7   7   8   7   8   5   0   0   0   0   0   0   0   0   0   0   0   0   0   0
  0   0   0   0
  0   0   0   0   0   0   0   0   0   0   0   0   0   0   0  11   0   0 194 219 198 194 176 163
159 160 158 153 152 153 154 162 163 158 154 154 157 152 150 149 152 151 150 157 162 160 168 171
174 182 193 198 201 206 206 200 201 197 166 151 151 137  89  49  41  28  21  16  13   8   7   8
  7   8   8   8   7   7   8   7   7   5   0   0   0   0   0   0   0   0   0   0   0   0   0   0
  0   0   0   0
  0   0   0   0   0   0   0   0   0   0   0   0   0   0   0  11   0   0 194 218 196 193 177 164
160 160 160 160 157 155 155 163 163 158 156 156 156 153 152 153 154 156 153 161 167 161 158 167
184 196 198 204 203 201 204 206 204 203 181 155 159 148 106  55  42  29  22  17  14   9   7   8
  8   8   8   8   7   7   8   7   8   5   0   0   0   0   0   0   0   0   0   0   0   0   0   0
  0   0   0   0
  0   0   0   0   0   0   0   0   0   0   0   0   0   0   0  11   0   0 195 220 195 188 176 166
159 159 160 163 159 156 155 159 162 164 162 157 156 153 149 154 159 161 161 165 164 163 166 173
189 193 192 198 205 195 196 207 201 198 189 170 164 157 123  72  44  33  23  17  15  10   7   8
  8   8   8   8   7   7   8   7   8   5   0   0   0   0   0   0   0   0   0   0   0   0   0   0
  0   0   0   0
  0   0   0   0   0   0   0   0   0   0   0   0   0   0   0  11   0   0 195 222 197 185 173 169
164 160 160 163 163 160 158 159 163 161 162 167 162 161 155 156 163 165 166 170 171 169 178 182
188 191 191 195 203 200 196 200 200 193 189 181 167 167 140  84  48  35  24  17  15  10   7   8
  8   8   8   7   7   7   7   8   8   5   0   0   0   0   0   0   0   0   0   0   0   0   0   0
  0   0   0   0
  0   0   0   0   0   0   0   0   0   0   0   0   0   0   0  11   0   0 195 223 197 185 174 169
167 165 164 162 164 162 156 153 161 160 154 162 159 156 156 155 156 160 163 168 178 179 178 180
187 188 187 196 202 203 195 193 198 194 192 180 166 174 154  86  46  36  24  18  15  11   7   8
  7   8   8   8   7   7   7   8   8   5   0   0   0   0   0   0   0   0   0   0   0   0   0   0
  0   0   0   0
  0   0   0   0   0   0   0   0   0   0   0   0   0   0   0  11   0   0 195 224 200 187 175 171
163 163 166 160 156 158 157 158 162 161 155 150 148 150 153 157 154 156 164 166 175 184 177 181
189 191 191 199 206 206 200 199 202 204 199 182 171 177 158  94  53  36  23  18  16  12   7   7
  7   7   8   8   7   8   8   7   7   5   0   0   0   0   0   0   0   0   0   0   0   0   0   0
  0   0   0   0
  0   0   0   0   0   0   0   0   0   0   0   0   0   0   0  11   0   0 195 223 194 184 173 170
163 160 167 165 159 156 160 163 162 164 160 155 149 148 150 155 160 157 156 164 170 171 170 184
194 201 206 202 203 207 208 212 215 215 206 185 179 186 165  98  54  34  24  18  16  12   6   7
  7   7   7   8   7   7   8   7   7   5   0   0   0   0   0   0   0   0   0   0   0   0   0   0
  0   0   0   0
  0   0   0   0   0   0   0   0   0   0   0   0   0   0   0  11   0   0 194 218 189 178 172 170
166 159 161 164 163 164 165 163 163 161 158 158 151 148 149 150 159 162 160 168 170 162 162 177
192 203 212 209 205 205 205 213 219 218 212 193 180 191 175 103  48  34  24  18  17  11   6   7
  7   7   7   7   7   7   7   7   7   5   0   0   0   0   0   0   0   0   0   0   0   0   0   0
  0   0   0   0
  0   0   0   0   0   0   0   0   0   0   0   0   0   0   0  11   0   0 193 211 183 179 172 169
165 164 164 165 165 165 164 162 163 163 158 157 156 151 152 150 158 168 170 169 168 164 165 176
191 201 205 211 214 217 217 219 219 215 213 203 180 187 180 108  41  35  24  19  17  11   6   7
  7   7   7   7   7   7   7   7   8   5   0   0   0   0   0   0   0   0   0   0   0   0   0   0
  0   0   0   0
  0   0   0   0   0   0   0   0   0   0   0   0   0   0   0  11   0   0 193 211 181 178 169 167
166 169 165 158 159 161 161 163 161 159 155 157 157 153 151 151 154 159 166 170 174 173 172 180
188 200 202 203 209 220 222 223 221 214 209 209 189 186 182 113  34  36  25  20  17  11   6   7
  7   7   7   7   7   7   7   7   8   5   0   0   0   0   0   0   0   0   0   0   0   0   0   0
  0   0   0   0
  0   0   0   0   0   0   0   0   0   0   0   0   0   0   0  11   0   0 191 207 182 180 175 168
169 170 169 165 163 159 160 164 164 161 158 157 159 158 157 160 160 159 159 167 174 174 172 175
184 191 200 206 209 212 209 210 216 215 209 210 200 188 177 122  40  38  28  20  17  10   6   7
  7   7   7   7   7   7   7   7   8   5   0   0   0   0   0   0   0   0   0   0   0   0   0   0
  0   0   0   0
  0   0   0   0   0   0   0   0   0   0   0   0   0   0   0  11   0   0 189 201 179 177 178 177
174 172 168 167 167 164 165 167 168 171 165 159 156 155 159 158 157 161 159 162 168 167 171 175
182 187 200 210 214 215 206 204 210 213 214 213 200 189 179 137  64  38  29  19  18   9   6   7
  7   7   7   7   7   7   8   7   8   5   0   0   0   0   0   0   0   0   0   0   0   0   0   0
  0   0   0   0
  0   0   0   0   0   0   0   0   0   0   0   0   0   0   0  11   0   0 190 203 178 177 171 174
178 176 173 168 162 164 167 167 163 168 173 168 166 156 155 155 154 158 159 157 159 162 171 174
178 180 192 202 209 216 216 208 207 209 213 214 201 187 178 146  95  44  27  23  18   8   6   7
  7   7   7   7   7   7   7   7   8   5   0   0   0   0   0   0   0   0   0   0   0   0   0   0
  0   0   0   0
  0   0   0   0   0   0   0   0   0   0   0   0   0   0   0  11   0   0 190 207 180 179 173 170
171 176 172 169 166 164 166 166 165 163 171 170 164 158 155 156 156 157 157 157 160 159 168 174
175 174 172 184 200 211 218 212 209 211 214 214 204 188 172 142  99  66  38  28  17   7   7   7
  7   7   7   7   7   7   7   7   8   5   0   0   0   0   0   0   0   0   0   0   0   0   0   0
  0   0   0   0
  0   0   0   0   0   0   0   0   0   0   0   0   0   0   0  11   0   0 189 206 185 179 171 171
167 167 173 170 165 162 165 166 165 165 172 176 160 154 158 156 154 153 155 163 168 164 161 170
173 181 182 186 198 210 218 218 216 220 215 210 203 192 171 138  98  73  46  26  16   6   7   7
  7   7   7   7   7   7   7   7   8   5   0   0   0   0   0   0   0   0   0   0   0   0   0   0
  0   0   0   0
  0   0   0   0   0   0   0   0   0   0   0   0   0   0   0  11   0   0 191 208 188 187 177 169
169 165 170 177 169 161 163 164 160 161 170 178 168 155 155 158 156 156 156 164 173 172 163 164
168 178 190 196 201 205 216 220 218 214 200 194 192 185 166 137 104  76  36  23  15   6   7   7
  7   7   7   7   7   7   7   7   7   5   0   0   0   0   0   0   0   0   0   0   0   0   0   0
  0   0   0   0
  0   0   0   0   0   0   0   0   0   0   0   0   0   0   0  11   0   0 191 213 185 177 176 171
166 167 168 175 181 176 168 166 162 161 164 171 168 165 159 158 156 156 156 155 161 165 160 162
167 168 177 191 199 203 216 219 213 203 189 188 180 160 142 128 102  72  36  25  12   6   7   7
  7   7   7   7   7   7   7   7   7   5   0   0   0   0   0   0   0   0   0   0   0   0   0   0
  0   0   0   0
  0   0   0   0   0   0   0   0   0   0   0   0   0   0   0  11   0   0 191 215 185 165 162 167
167 168 166 171 174 181 181 179 173 165 165 170 165 161 161 161 157 154 154 153 156 162 159 160
163 163 170 181 196 206 217 219 214 207 192 184 174 155 124 110  92  59  40  24   9   7   7   7
  7   7   7   7   7   7   7   6   7   5   0   0   0   0   0   0   0   0   0   0   0   0   0   0
  0   0   0   0
  0   0   0   0   0   0   0   0   0   0   0   0   0   0   0  11   0   0 192 214 183 160 153 158
162 168 166 168 173 168 172 178 182 177 171 173 168 159 159 165 168 165 161 164 162 165 163 159
160 165 175 184 192 198 214 221 212 209 200 174 161 155 128 105  82  49  35  19   8   7   6   6
  6   6   7   7   7   6   7   6   7   5   0   0   0   0   0   0   0   0   0   0   0   0   0   0
  0   0   0   0
  0   0   0   0   0   0   0   0   0   0   0   0   0   0   0  11   0   0 191 213 184 162 145 151
153 157 161 163 173 173 163 162 170 179 178 171 167 164 161 160 162 164 163 166 166 161 157 149
151 159 169 187 189 191 208 214 200 200 196 164 155 145 128 107  69  37  30  15   8   7   6   6
  6   6   6   6   6   7   6   6   7   4   0   0   0   0   0   0   0   0   0   0   0   0   0   0
  0   0   0   0
  0   0   0   0   0   0   0   0   0   0   0   0   0   0   0  11   0   0 190 209 179 162 137 140
149 150 154 160 164 173 173 165 167 168 179 181 168 159 159 157 153 157 156 154 161 158 152 149
146 150 156 169 185 202 204 201 196 202 199 171 148 133 118  96  55  31  24  11   7   6   6   6
  6   6   6   6   6   7   7   6   6   4   0   0   0   0   0   0   0   0   0   0   0   0   0   0
  0   0   0   0
  0   0   0   0   0   0   0   0   0   0   0   0   0   0   0  11   0   0 190 206 177 159 130 125
140 150 148 157 165 166 173 172 162 161 164 173 175 169 164 156 149 148 151 151 152 153 151 155
157 163 166 165 183 198 202 204 202 196 193 168 141 131 116  85  42  27  18   7   6   5   6   6
  6   6   6   6   6   6   6   6   6   4   0   0   0   0   0   0   0   0   0   0   0   0   0   0
  0   0   0   0
  0   0   0   0   0   0   0   0   0   0   0   0   0   0   0  11   0   0 190 204 180 166 127 115
126 142 145 148 161 168 166 167 165 158 157 161 168 170 168 163 155 150 148 147 150 149 150 150
160 178 182 185 192 195 195 193 182 166 171 165 139 122 101  64  31  24  13   5   5   5   6   6
  6   6   6   6   6   6   6   6   6   4   0   0   0   0   0   0   0   0   0   0   0   0   0   0
  0   0   0   0
  0   0   0   0   0   0   0   0   0   0   0   0   0   0   0  12   0   0 190 196 173 174 129 104
115 125 139 142 147 157 160 158 162 162 158 160 166 165 160 162 154 151 148 144 145 149 149 150
160 170 175 186 194 191 191 181 161 146 147 149 118  99  77  38  24  19   7   5   6   5   6   6
  6   6   6   6   6   6   6   6   7   5   0   0   0   0   0   0   0   0   0   0   0   0   0   0
  0   0   0   0
  0   0   0   0   0   0   0   0   0   0   0   0   0   0   0  12   0   0 190 194 166 169 130  90
104 115 127 138 138 146 156 155 153 157 154 153 160 164 158 152 151 151 148 143 142 146 147 151
158 159 166 184 187 181 192 190 160 137 135 125 103  81  52  30  22  14   5   5   5   5   6   6
  6   6   6   6   6   7   7   6   7   4   0   0   0   0   0   0   0   0   0   0   0   0   0   0
  0   0   0   0
  0   0   0   0   0   0   0   0   0   0   0   0   0   0   0  12   0   0 192 195 166 167 133  82
 94 104 113 124 123 133 148 151 154 154 148 150 156 160 158 151 144 145 149 148 146 145 146 144
147 154 160 168 173 181 193 194 158 139 127 106  90  58  28  27  20   9   5   5   5   5   6   6
  6   6   6   6   6   6   6   6   7   4   0   0   0   0   0   0   0   0   0   0   0   0   0   0
  0   0   0   0
  0   0   0   0   0   0   0   0   0   0   0   0   0   0   0  12   0   0 193 199 167 169 137  78
 80  92 102 114 118 119 131 139 146 149 145 148 153 154 152 153 149 143 143 149 148 142 139 141
149 159 169 175 170 172 194 190 156 139 111  89  71  42  26  24  16   6   5   5   5   5   6   6
  6   6   6   6   6   6   6   6   7   5   0   0   0   0   0   0   0   0   0   0   0   0   0   0
  0   0   0   0
  0   0   0   0   0   0   0   0   0   0   0   0   0   0   0  12   0   0 193 201 171 176 145  81
 68  83  92 104 114 119 121 127 139 140 135 140 145 147 154 160 157 149 146 144 140 140 144 148
148 155 164 170 157 161 188 182 152 127 100  78  53  34  23  21  12   5   5   5   5   5   6   6
  6   6   6   6   7   6   6   6   7   5   0   0   0   0   0   0   0   0   0   0   0   0   0   0
  0   0   0   0
  0   0   0   0   0   0   0   0   0   0   0   0   0   0   0  12   0   0 192 201 175 180 153  87
 62  77  83  98 105 114 121 119 134 144 143 142 146 152 155 159 162 160 152 148 143 143 149 149
145 152 163 162 155 163 183 170 136 115  87  60  39  28  22  16   8   5   5   5   5   5   6   6
  6   6   6   7   7   6   6   6   7   4   0   0   0   0   0   0   0   0   0   0   0   0   0   0
  0   0   0   0
  0   0   0   0   0   0   0   0   0   0   0   0   0   0   0  12   0   0 192 198 179 184 157  89
 55  69  75  86  98 106 110 109 119 135 143 146 145 155 157 152 152 157 155 150 151 148 150 150
153 160 163 162 160 165 173 152 120  99  68  48  31  22  18  12   6   6   5   5   6   6   6   6
  6   6   6   7   7   6   7   7   7   5   0   0   0   0   0   0   0   0   0   0   0   0   0   0
  0   0   0   0
  0   0   0   0   0   0   0   0   0   0   0   0   0   0   0  12   0   0 192 200 175 180 161  90
 48  66  68  76  92 104 105 104 105 117 123 130 140 148 151 156 157 153 149 151 153 152 154 154
152 150 152 162 168 158 148 137 112  78  49  36  26  21  14  10   6   6   6   6   6   6   6   6
  6   6   6   7   7   7   7   7   7   5   0   0   0   0   0   0   0   0   0   0   0   0   0   0
  0   0   0   0
  0   0   0   0   0   0   0   0   0   0   0   0   0   0   0  12   0   0 191 202 172 177 162  91
 35  59  65  70  79  96 104 101 104 112 118 121 128 137 145 155 158 162 155 151 148 141 141 140
136 138 149 163 152 120 108 105  87  55  35  28  20  15  14  12   6   6   6   6   6   6   6   6
  7   6   6   6   6   6   7   6   7   5   0   0   0   0   0   0   0   0   0   0   0   0   0   0
  0   0   0   0
  0   0   0   0   0   0   0   0   0   0   0   0   0   0   0  12   0   0 190 201 176 178 163  98
 27  49  57  65  72  81  94  94  99 105 110 119 127 133 134 142 151 151 153 147 138 132 130 130
129 131 131 126 107  89  92  83  60  44  31  24  16  13  10   7   7   6   6   6   6   6   6   6
  6   6   6   6   6   6   7   6   7   5   0   0   0   0   0   0   0   0   0   0   0   0   0   0
  0   0   0   0
  0   0   0   0   0   0   0   0   0   0   0   0   0   0   0  12   0   0 189 197 177 176 158 103
 31  44  48  55  66  74  81  87  88  91  94 103 113 120 122 127 141 141 139 141 138 129 122 116
112 111 102  93  88  87  87  65  43  36  25  19  14  12   7   6   6   6   6   6   6   6   6   6
  6   6   6   6   6   6   6   6   6   4   0   0   0   0   0   0   0   0   0   0   0   0   0   0
  0   0   0   0
  0   0   0   0   0   0   0   0   0   0   0   0   0   0   0  12   0   0 188 195 175 174 146 101
 39  34  41  43  49  61  70  79  81  82  88  92  94 100 104 107 118 135 138 136 137 129 118 107
103  97  90  87  80  77  67  42  36  29  21  16  13   9   6   6   6   6   6   6   6   6   6   6
  6   6   6   6   6   6   6   6   7   4   0   0   0   0   0   0   0   0   0   0   0   0   0   0
  0   0   0   0
  0   0   0   0   0   0   0   0   0   0   0   0   0   0   0  11   0   0 188 201 180 166 129  97
 50  24  35  37  41  48  55  65  77  75  77  88  90  91  94  94  97 110 127 134 129 119 108 100
 94  88  85  78  69  64  46  35  29  23  17  14  11   7   6   6   6   6   6   6   6   6   6   7
  6   6   6   6   6   6   6   6   7   4   0   0   0   0   0   0   0   0   0   0   0   0   0   0
  0   0   0   0
  0   0   0   0   0   0   0   0   0   0   0   0   0   0   0  11   0   0 188 203 191 169 112  84
 55  22  29  33  35  40  47  51  62  73  71  77  80  81  84  86  87  88  97 105 113 109  96  84
 78  76  71  63  59  49  37  30  24  19  15  12   8   6   6   6   6   6   6   6   6   6   6   6
  6   6   7   6   6   6   6   6   6   4   0   0   0   0   0   0   0   0   0   0   0   0   0   0
  0   0   0   0
  0   0   0   0   0   0   0   0   0   0   0   0   0   0   0  11   0   0 182 172 150 140 102  83
 57  21  23  27  29  33  38  43  47  58  71  73  69  72  73  74  76  77  82  83  89  92  84  81
 72  62  56  51  46  37  31  25  19  16  14  10   6   6   6   6   6   6   6   6   6   6   6   6
  6   7   6   6   6   6   6   8  15  12   0   0   0   0   0   0   0   0   0   0   0   0   0   0
  0   0   0   0
  0   0   0   0   0   0   0   0   0   0   0   0   0   0   0  11   0   3 176 139  35  32  47  64
 58  25  17  22  23  26  30  34  38  41  51  59  61  66  66  66  67  68  70  74  78  87  75  70
 62  53  47  40  33  29  24  19  16  14  11   7   7   6   6   6   6   6   6   6   6   6   6   6
  6   7   7   6   6   6   7  10  14  12   0   0   0   0   0   0   0   0   0   0   0   0   0   0
  0   0   0   0
  0   0   0   0   0   0   0   0   0   0   0   0   0   0   0  11   0  17 170 119   0  24   0   4
 27  23  15  18  19  21  24  27  29  33  37  40  43  49  56  58  57  56  56  58  62  66  58  49
 43  40  36  31  27  22  19  16  14  11   7   7   7   6   6   6   6   6   6   6   6   6   6   6
  6   6   6   6   6   6   6   6   7   5   0   0   0   0   0   0   0   0   0   0   0   0   0   0
  0   0   0   0
  0   0   0   0   0   0   0   0   0   0   0   0   0   0   0  11   0  24 166 105   0  34  18  14
  7   9  11  14  16  17  19  21  23  26  30  33  34  34  37  42  45  45  44  42  41  39  39  39
 35  31  28  24  20  18  16  13  11   8   7   7   6   6   6   6   6   6   6   6   6   6   6   6
  6   6   6   6   6   6   6   6   7   4   0   0   0   0   0   0   0   0   0   0   0   0   0   0
  0   0   0   0
  0   0   0   0   0   0   0   0   0   0   0   0   0   0   0  10   0  28 162  98   0  32  15  14
 13   9   7   8  11  13  15  17  18  19  22  24  27  29  29  30  33  35  36  36  34  32  30  27
 26  23  21  18  15  14  13  10   7   7   7   7   6   6   6   6   6   6   6   6   6   6   6   6
  6   6   6   6   6   6   7   7   7   5   0   0   0   0   0   0   0   0   0   0   0   0   0   0
  0   0   0   0
  0   0   0   0   0   0   0   0   0   0   0   0   0   0   0  10   0  27 161 100   0  33  16  14
 12  10   7   7   7   8  10  13  15  16  17  18  20  22  23  25  26  27  27  26  25  23  22  21
 20  18  16  14  13  12  10   7   7   7   6   6   6   6   6   6   6   5   5   6   6   6   6   6
  6   6   6   6   6   6   7   7   7   5   0   0   0   0   0   0   0   0   0   0   0   0   0   0
  0   0   0   0
  0   0   0   0   0   0   0   0   0   0   0   0   0   0   0  11   0  27 162 102   0  35  18  15
 12  10   7   7   7   7   7   8   9  11  13  15  16  16  17  18  19  20  20  20  19  18  17  17
 16  13  13  12  10   8   7   7   7   6   6   6   6   5   5   5   6   5   5   6   6   6   6   6
  6   6   6   6   6   6   6   6   7   5   0   0   0   0   0   0   0   0   0   0   0   0   0   0
  0   0   0   0
  0   0   0   0   0   0   0   0   0   0   0   0   0   0   0  11   0  27 163 103   0  39  21  16
 13  11   7   7   7   7   7   8   7   8   9  10  11  13  13  14  14  15  15  15  15  15  14  13
 12  11   9   8   7   7   7   7   6   6   6   6   6   6   5   5   5   5   5   5   6   6   6   6
  6   6   6   6   6   6   6   6   7   4   0   0   0   0   0   0   0   0   0   0   0   0   0   0
  0   0   0   0
  0   0   0   0   0   0   0   0   0   0   0   0   0   0   0  10   0  29 161 101  21  44  21  17
 14  12   7   7   7   7   7   8   8   8   8   7   7   8   8   9  11  11  11  11  11  10  10   9
  8   7   7   7   7   7   7   7   7   7   6   6   6   6   5   5   5   5   5   5   5   6   6   6
  6   6   6   6   6   6   6   6   6   4   0   0   0   0   0   0   0   0   0   0   0   0   0   0
  0   0   0   0
  0   0   0   0   0   0   0   0   0   0   0   0   0   0   0  11   0  26 164 108  12  40  22  18
 15  13   8   6   7   7   7   7   7   8   8   8   7   7   6   6   7   8   7   7   8   7   7   7
  7   7   7   7   7   7   7   7   7   7   6   6   6   6   5   5   5   5   5   5   5   5   5   6
  6   6   6   6   6   6   7   6   6   4   0   0   0   0   0   0   0   0   0   0   0   0   0   0
  0   0   0   0
  0   0   0   0   0   0   0   0   0   0   0   0   0   0   0  11   0  23 167 112  13  43  26  20
 16  14   8   6   7   7   7   7   7   7   8   7   7   7   7   7   7   7   7   7   7   7   7   7
  7   7   7   7   7   7   7   7   7   7   6   6   5   5   5   5   5   5   5   5   5   5   5   6
  5   5   5   5   5   6   6   5   6   4   0   0   0   0   0   0   0   0   0   0   0   0   0   0
  0   0   0   0
  0   0   0   0   0   0   0   0   0   0   0   0   0   0   0  11   0  25 166 109  21  46  28  22
 17  15   9   6   7   7   7   7   7   7   7   7   7   7   6   6   6   7   6   7   8   7   7   7
  7   7   7   7   7   7   7   6   6   6   6   6   5   5   5   5   5   5   5   5   5   5   5   5
  5   5   5   5   5   5   6   6   6   4   0   0   0   0   0   0   0   0   0   0   0   0   0   0
  0   0   0   0
  0   0   0   0   0   0   0   0   0   0   0   0   0   0   0  11   0  25 167 111  28  48  29  24
 18  15  10   7   7   7   7   7   7   7   7   7   7   6   6   6   6   6   6   8   9   6   7   7
  7   6   7   7   7   7   7   6   6   6   6   6   5   5   5   5   5   5   5   5   5   5   5   5
  5   5   5   5   5   5   6   6   6   4   0   0   0   0   0   0   0   0   0   0   0   0   0   0
  0   0   0   0
  0   0   0   0   0   0   0   0   0   0   0   0   0   0   0  11   0  24 168 114  38  51  32  24
 18  16  11   7   7   7   7   7   6   7   7   7   6   6   6   6   6   7   6   6   7   7   7   7
  7   6   6   6   6   7   7   6   6   6   6   6   5   5   5   5   5   5   5   5   5   5   5   5
  5   5   5   5   5   5   6   6   6   4   0   0   0   0   0   0   0   0   0   0   0   0   0   0
  0   0   0   0
  0   0   0   0   0   0   0   0   0   0   0   0   0   0   0  11   0  20 171 122  47  54  35  25
 20  17  12   7   7   7   7   7   7   6   7   7   6   6   6   6   6   6   6   7   7   6   6   6
  6   6   6   6   6   6   6   6   6   6   6   6   5   5   5   5   5   5   5   5   5   5   5   5
  5   5   5   5   5   5   6   5   6   4   0   0   0   0   0   0   0   0   0   0   0   0   0   0
  0   0   0   0
