P2
# 8-bit pgm gray
100 100
255
  0   0   0   0   0   0   0   0   0   0   0   0   0   0   0   9   0   0 180 215 203 201 198 198
199 200 202 205 204 200 201 204 206 207 207 208 211 211 209 206 203 201 200 196 188 177 158 141
124 107  98  89  83  69  52  40  30  23  18  14  11   8   7   7   7   7   7   7   7   6   6   6
  6   6   6   6   7   7   6   7   8   6   0   0   0   0   0   0   0   0   0   0   0   0   0   0
  0   0   0   0
  0   0   0   0   0   0   0   0   0   0   0   0   0   0   0   9   0   0 175 210 197 197 199 201
202 204 206 206 209 205 202 205 207 208 209 210 212 213 210 206 204 202 200 195 183 173 163 145
128 118 108 100  89  70  54  43  32  23  17  14  11   7   6   7   6   6   6   6   6   6   6   6
  6   6   6   6   6   6   6   6   8   5   0   0   0   0   0   0   0   0   0   0   0   0   0   0
  0   0   0   0
  0   0   0   0   0   0   0   0   0   0   0   0   0   0   0   8   0   0 170 203 192 193 195 196
193 193 194 198 205 205 202 205 207 208 209 211 212 211 207 205 202 197 192 189 183 178 170 147
130 124 108  92  76  66  54  44  32  24  17  13  10   7   6   6   6   6   6   6   6   6   6   6
  6   6   6   6   6   6   6   6   7   5   0   0   0   0   0   0   0   0   0   0   0   0   0   0
  0   0   0   0
  0   0   0   0   0   0   0   0   0   0   0   0   0   0   0   7   0   0 164 197 188 192 193 191
191 193 197 201 204 206 204 205 207 207 209 210 209 206 205 206 206 205 201 195 183 165 158 146
132 119 104  89  74  64  51  38  29  22  16  12  10   6   6   6   6   6   6   6   6   6   6   6
  6   6   5   6   6   6   6   6   7   5   0   0   0   0   0   0   0   0   0   0   0   0   0   0
  0   0   0   0
  0   0   0   0   0   0   0   0   0   0   0   0   0   0   0   7   0   0 162 195 188 192 192 192
192 200 206 206 207 206 205 205 207 209 209 209 205 204 203 205 209 211 205 191 178 167 161 150
128 110  97  86  72  60  47  35  26  20  15  11   9   6   6   6   6   5   5   5   5   5   5   5
  5   5   5   6   6   6   6   6   7   5   0   0   0   0   0   0   0   0   0   0   0   0   0   0
  0   0   0   0
  0   0   0   0   0   0   0   0   0   0   0   0   0   0   0   7   0   0 160 199 190 189 192 193
191 200 207 207 209 208 205 206 206 208 209 208 207 206 209 211 212 212 210 199 181 165 153 133
117 103  96  85  73  60  46  34  24  18  13  11   8   6   5   5   5   5   5   5   5   5   5   5
  5   5   5   6   6   6   6   6   7   5   0   0   0   0   0   0   0   0   0   0   0   0   0   0
  0   0   0   0
  0   0   0   0   0   0   0   0   0   0   0   0   0   0   0   7   0   0 163 203 195 193 191 191
192 197 205 208 207 204 204 206 206 207 209 211 216 215 216 217 215 214 210 197 171 148 139 130
120 108  97  83  68  56  43  32  23  16  12  10   7   5   5   5   5   5   5   5   5   5   5   5
  5   5   5   5   6   6   6   6   7   5   0   0   0   0   0   0   0   0   0   0   0   0   0   0
  0   0   0   0
  0   0   0   0   0   0   0   0   0   0   0   0   0   0   0   7   0   0 163 204 199 195 189 193
196 196 200 203 206 207 207 207 208 210 213 216 218 216 212 213 211 202 188 167 144 135 128 122
112 100  89  74  61  47  37  28  20  15  12  10   6   5   5   5   5   5   5   5   5   5   5   5
  5   5   5   5   5   5   6   6   6   5   0   0   0   0   0   0   0   0   0   0   0   0   0   0
  0   0   0   0
  0   0   0   0   0   0   0   0   0   0   0   0   0   0   0   7   0   0 157 199 196 191 191 196
197 198 200 205 213 216 212 211 214 218 220 216 214 212 207 202 199 191 172 149 136 130 123 111
103  93  83  67  54  42  32  24  18  14  12   9   6   5   5   5   5   4   5   5   5   5   5   5
  5   5   5   5   5   5   5   5   6   4   0   0   0   0   0   0   0   0   0   0   0   0   0   0
  0   0   0   0
  0   0   0   0   0   0   0   0   0   0   0   0   0   0   0   7   0   0 159 197 188 190 193 194
196 201 206 208 213 215 212 212 210 214 213 208 206 204 196 183 174 163 153 146 137 126 120 111
101  89  77  61  46  37  28  22  17  13  11   8   5   5   5   5   4   4   5   5   5   5   5   5
  5   5   5   5   5   5   5   5   6   4   0   0   0   0   0   0   0   0   0   0   0   0   0   0
  0   0   0   0
  0   0   0   0   0   0   0   0   0   0   0   0   0   0   0   7   0   0 163 199 187 191 193 198
204 209 208 209 212 210 208 207 206 209 208 205 202 197 191 177 159 148 142 135 126 122 115 104
 92  77  62  51  40  32  25  19  15  12  10   6   5   5   5   5   4   4   4   5   5   5   5   5
  5   5   5   5   5   5   5   5   6   4   0   0   0   0   0   0   0   0   0   0   0   0   0   0
  0   0   0   0
  0   0   0   0   0   0   0   0   0   0   0   0   0   0   0   8   0   0 163 194 187 193 195 199
210 216 212 209 210 208 209 207 207 207 208 208 204 195 187 171 147 142 135 128 118 113 102  87
 77  67  54  46  38  32  26  21  18  14   9   5   5   4   5   4   4   4   4   5   5   5   5   5
  5   5   5   5   5   5   5   5   6   4   0   0   0   0   0   0   0   0   0   0   0   0   0   0
  0   0   0   0
  0   0   0   0   0   0   0   0   0   0   0   0   0   0   0   7   0   0 160 193 187 194 199 205
212 218 217 212 213 213 214 209 206 207 205 201 192 182 166 148 140 135 131 123 114 107  94  88
 83  78  71  59  53  44  32  24  22  15   7   5   5   4   4   4   4   4   5   5   5   5   5   5
  5   5   5   5   5   5   5   5   6   4   0   0   0   0   0   0   0   0   0   0   0   0   0   0
  0   0   0   0
  0   0   0   0   0   0   0   0   0   0   0   0   0   0   0   7   0   0 161 201 193 196 200 209
215 216 219 220 221 218 215 215 212 210 209 200 189 178 161 149 155 153 151 148 138 127 115 107
 96  82  71  54  42  32  23  17  18  14   7   5   5   5   4   4   4   4   5   5   5   5   5   5
  5   5   5   5   5   5   5   4   5   4   0   0   0   0   0   0   0   0   0   0   0   0   0   0
  0   0   0   0
  0   0   0   0   0   0   0   0   0   0   0   0   0   0   0   7   0   0 162 199 192 195 199 207
210 209 215 219 221 220 220 222 221 219 218 214 205 190 175 169 168 166 158 147 134 114  93  75
 58  43  32  26  20  18  17  16  14  11   9   6   4   4   4   4   4   4   4   5   5   5   5   5
  5   5   5   4   5   5   5   4   5   4   0   0   0   0   0   0   0   0   0   0   0   0   0   0
  0   0   0   0
  0   0   0   0   0   0   0   0   0   0   0   0   0   0   0   7   0   0 164 201 191 196 197 201
206 206 207 209 210 210 213 213 209 208 203 195 181 161 147 133 125 121 108  91  76  61  46  40
 36  34  32  31  27  23  20  17  13  11   9   8   6   5   4   4   4   4   4   4   4   4   5   5
  5   5   4   5   5   5   4   4   5   4   0   0   0   0   0   0   0   0   0   0   0   0   0   0
  0   0   0   0
  0   0   0   0   0   0   0   0   0   0   0   0   0   0   0   7   0   0 163 201 194 199 200 201
203 203 204 204 205 207 207 206 204 203 194 180 159 141 121 105 100  88  81  76  71  64  59  55
 50  45  41  36  35  29  22  20  15  12  10   8   8   8   3   4   4   4   4   4   4   5   5   5
  5   4   4   4   5   4   4   4   5   4   0   0   0   0   0   0   0   0   0   0   0   0   0   0
  0   0   0   0
  0   0   0   0   0   0   0   0   0   0   0   0   0   0   0   7   0   0 162 199 195 201 203 204
203 203 204 203 204 204 204 201 200 198 193 176 158 150 138 122 110  96  90  86  82  72  65  60
 56  51  44  39  37  32  25  22  18  14  11   9   8   5   4   4   4   4   4   4   5   5   5   5
  4   4   4   4   4   4   4   4   5   3   0   0   0   0   0   0   0   0   0   0   0   0   0   0
  0   0   0   0
  0   0   0   0   0   0   0   0   0   0   0   0   0   0   0   7   0   0 163 200 196 200 201 201
202 204 204 202 203 202 200 196 194 190 180 158 150 147 139 125 111 101  96  92  90  83  75  68
 62  55  49  43  39  35  30  24  20  16  13  10   8   6   4   4   4   4   4   4   4   4   5   5
  4   4   4   4   4   4   4   4   5   3   0   0   0   0   0   0   0   0   0   0   0   0   0   0
  0   0   0   0
  0   0   0   0   0   0   0   0   0   0   0   0   0   0   0   7   0   0 165 202 197 203 204 202
202 204 204 203 202 201 198 194 187 176 163 149 147 141 137 129 116 106  99  92  93  92  79  72
 66  61  56  50  45  40  34  29  24  18  14  11   9   8   6   4   4   4   4   4   4   4   4   4
  4   4   4   4   4   5   4   4   4   3   0   0   0   0   0   0   0   0   0   0   0   0   0   0
  0   0   0   0
  0   0   0   0   0   0   0   0   0   0   0   0   0   0   0   7   0   0 164 199 193 200 202 201
203 204 203 203 202 201 194 191 184 172 166 158 152 147 143 143 146 135 124 117 114 116 105  88
 79  72  65  59  52  46  40  34  28  21  17  13  11   9   7   4   3   4   3   4   4   4   4   4
  4   4   4   4   4   4   4   4   4   3   0   0   0   0   0   0   0   0   0   0   0   0   0   0
  0   0   0   0
  0   0   0   0   0   0   0   0   0   0   0   0   0   0   0   8   0   0 167 201 194 200 199 199
203 203 204 202 200 198 196 194 185 174 161 156 161 162 161 158 165 161 156 155 156 157 146 125
109  90  79  71  62  55  47  38  30  26  20  16  12  10   8   6   4   4   4   4   4   4   4   4
  4   4   4   4   4   4   4   4   5   3   0   0   0   0   0   0   0   0   0   0   0   0   0   0
  0   0   0   0
  0   0   0   0   0   0   0   0   0   0   0   0   0   0   0   8   0   0 166 202 196 200 199 200
204 205 205 202 200 197 196 193 182 163 156 164 165 167 165 161 167 167 161 167 173 166 157 150
137 120 104  85  68  59  53  46  37  30  25  18  14  11   9   7   5   3   4   4   4   4   4   4
  4   4   4   4   4   4   4   4   5   3   0   0   0   0   0   0   0   0   0   0   0   0   0   0
  0   0   0   0
  0   0   0   0   0   0   0   0   0   0   0   0   0   0   0   7   0   0 164 200 195 200 201 203
203 205 208 206 201 194 191 189 174 164 167 165 168 171 166 168 168 170 168 176 181 175 174 169
154 144 135 120 104  88  65  49  44  35  28  22  17  14  11   8   7   4   3   4   4   3   3   3
  3   4   3   4   4   4   4   4   5   3   0   0   0   0   0   0   0   0   0   0   0   0   0   0
  0   0   0   0
  0   0   0   0   0   0   0   0   0   0   0   0   0   0   0   7   0   0 163 201 194 198 200 203
204 204 206 207 199 191 189 184 170 165 164 169 173 171 175 177 181 188 189 196 200 198 194 188
180 168 158 148 138 122 100  73  52  44  34  27  22  16  13  10   8   6   3   4   4   3   3   3
  3   3   3   3   4   4   4   4   4   3   0   0   0   0   0   0   0   0   0   0   0   0   0   0
  0   0   0   0
  0   0   0   0   0   0   0   0   0   0   0   0   0   0   0   7   0   0 161 200 194 197 199 201
202 201 203 204 197 192 191 179 166 164 167 170 175 184 191 188 190 193 196 201 208 209 207 204
198 191 187 177 167 153 137 112  74  48  41  33  25  19  14  12   9   7   4   3   4   3   3   3
  3   3   3   3   3   4   4   4   4   3   0   0   0   0   0   0   0   0   0   0   0   0   0   0
  0   0   0   0
  0   0   0   0   0   0   0   0   0   0   0   0   0   0   0   8   0   0 166 202 196 198 201 203
201 199 201 201 195 192 190 179 171 175 177 179 185 192 197 198 198 199 195 204 213 213 215 215
209 204 200 195 188 178 164 148 120  76  44  38  29  22  17  13  10   8   6   4   3   3   3   3
  3   3   3   3   4   4   4   3   4   3   0   0   0   0   0   0   0   0   0   0   0   0   0   0
  0   0   0   0
  0   0   0   0   0   0   0   0   0   0   0   0   0   0   0   7   0   0 166 206 193 197 201 202
200 200 201 198 193 188 184 174 175 180 185 191 188 191 201 206 206 201 200 208 213 211 215 217
217 214 210 207 202 195 184 170 151 122  79  40  31  27  21  16  11   9   7   5   3   3   3   3
  2   3   3   3   4   4   4   3   4   3   0   0   0   0   0   0   0   0   0   0   0   0   0   0
  0   0   0   0
  0   0   0   0   0   0   0   0   0   0   0   0   0   0   0   7   0   0 163 205 196 198 200 199
198 199 199 196 191 185 176 168 175 180 188 197 199 199 198 201 208 208 206 213 216 217 221 221
221 221 217 213 213 209 199 185 168 147 119  84  51  28  25  19  14  10   8   7   4   3   3   2
  2   2   3   3   4   4   3   3   4   3   0   0   0   0   0   0   0   0   0   0   0   0   0   0
  0   0   0   0
  0   0   0   0   0   0   0   0   0   0   0   0   0   0   0   7   0   0 161 202 200 202 203 201
197 199 200 196 191 186 175 162 176 187 192 197 203 206 201 205 212 215 215 218 220 223 224 225
225 224 222 219 218 216 209 199 186 168 145 121  92  51  29  23  17  12   9   7   5   3   3   3
  2   3   3   3   4   4   3   3   4   3   0   0   0   0   0   0   0   0   0   0   0   0   0   0
  0   0   0   0
  0   0   0   0   0   0   0   0   0   0   0   0   0   0   0   7   0   0 159 199 198 203 206 202
197 200 199 195 190 183 168 157 175 185 188 192 204 209 214 215 217 217 217 221 221 221 223 226
227 227 226 224 222 221 217 211 198 185 168 144 121  87  45  27  21  15  11   8   7   3   2   3
  3   2   3   3   4   4   3   3   4   3   0   0   0   0   0   0   0   0   0   0   0   0   0   0
  0   0   0   0
  0   0   0   0   0   0   0   0   0   0   0   0   0   0   0   7   0   0 160 197 193 201 206 204
200 200 197 194 194 190 172 166 185 190 193 200 206 207 213 210 210 215 218 222 223 223 224 227
229 229 228 227 225 224 223 219 212 200 187 170 142 109  73  41  25  18  13  10   8   4   2   3
  3   3   3   3   3   4   3   3   4   3   0   0   0   0   0   0   0   0   0   0   0   0   0   0
  0   0   0   0
  0   0   0   0   0   0   0   0   0   0   0   0   0   0   0   7   0   0 163 199 192 197 202 204
203 200 199 196 199 204 190 181 198 200 199 203 208 207 211 211 207 216 219 221 223 223 226 229
230 230 229 229 228 227 225 223 219 212 199 185 165 127  85  60  33  20  17  11   9   6   3   3
  3   3   3   3   3   3   3   3   3   2   0   0   0   0   0   0   0   0   0   0   0   0   0   0
  0   0   0   0
  0   0   0   0   0   0   0   0   0   0   0   0   0   0   0   7   0   0 166 203 194 196 198 202
203 200 200 200 199 200 194 182 196 202 203 204 209 211 210 212 211 216 218 220 221 224 226 227
228 229 229 230 230 227 226 223 220 214 205 194 180 157 120  85  51  26  20  13  11   7   5   2
  3   3   3   2   3   3   2   2   3   2   0   0   0   0   0   0   0   0   0   0   0   0   0   0
  0   0   0   0
  0   0   0   0   0   0   0   0   0   0   0   0   0   0   0   8   0   0 168 206 195 196 198 199
202 199 196 196 189 192 193 185 196 200 200 201 207 213 214 214 216 218 221 222 223 224 225 226
226 226 228 229 227 227 228 225 220 215 209 202 192 180 158 123  90  48  14  18  11   8   6   3
  3   3   3   3   3   3   2   2   3   2   0   0   0   0   0   0   0   0   0   0   0   0   0   0
  0   0   0   0
  0   0   0   0   0   0   0   0   0   0   0   0   0   0   0   8   0   0 168 203 194 195 197 197
197 197 196 192 185 188 179 169 181 187 194 202 207 212 215 215 217 218 220 222 222 222 223 225
225 225 228 228 227 227 226 225 221 217 213 207 204 195 177 156 119  67  29  19  15   9   7   4
  3   2   2   2   3   3   2   2   3   2   0   0   0   0   0   0   0   0   0   0   0   0   0   0
  0   0   0   0
  0   0   0   0   0   0   0   0   0   0   0   0   0   0   0   8   0   0 167 200 192 193 197 198
195 195 194 191 189 182 174 166 171 178 184 193 202 206 210 215 215 216 218 219 221 222 222 223
224 225 228 229 228 226 225 224 223 220 216 210 208 204 190 170 134  83  57  26  17  12   7   5
  3   2   2   2   2   3   3   3   4   3   0   0   0   0   0   0   0   0   0   0   0   0   0   0
  0   0   0   0
  0   0   0   0   0   0   0   0   0   0   0   0   0   0   0   7   0   0 161 198 190 192 196 197
197 197 191 190 188 179 174 170 177 181 179 186 197 202 206 214 215 215 216 215 217 220 222 224
224 226 228 228 229 229 227 226 224 222 218 215 211 207 196 175 149  98  58  44  17  15  10   7
  4   3   3   3   3   3   3   3   4   3   0   0   0   0   0   0   0   0   0   0   0   0   0   0
  0   0   0   0
  0   0   0   0   0   0   0   0   0   0   0   0   0   0   0   7   0   0 158 195 187 187 188 187
190 192 194 194 184 176 175 174 183 185 183 187 194 200 205 208 211 211 212 215 215 219 222 223
225 226 227 229 230 230 230 228 225 224 221 217 213 208 197 181 158 120  67  51  30  15  13   8
  6   4   3   3   4   4   3   3   4   3   0   0   0   0   0   0   0   0   0   0   0   0   0   0
  0   0   0   0
  0   0   0   0   0   0   0   0   0   0   0   0   0   0   0   7   0   0 160 196 186 187 185 183
184 188 195 187 179 178 179 177 179 176 176 183 188 193 194 196 201 203 207 213 216 218 221 223
226 227 229 231 232 231 231 230 228 225 222 219 216 208 198 188 171 142  90  57  36  17  14  10
  7   4   3   3   4   4   4   3   4   3   0   0   0   0   0   0   0   0   0   0   0   0   0   0
  0   0   0   0
  0   0   0   0   0   0   0   0   0   0   0   0   0   0   0   7   0   0 163 195 186 187 185 186
188 193 191 180 178 183 184 182 176 168 168 178 182 187 187 186 191 196 201 206 211 214 216 220
224 228 231 231 230 230 229 228 227 225 222 221 220 215 208 199 185 156 111  73  41  20  16  11
  8   5   3   3   3   3   3   3   4   3   0   0   0   0   0   0   0   0   0   0   0   0   0   0
  0   0   0   0
  0   0   0   0   0   0   0   0   0   0   0   0   0   0   0   7   0   0 162 194 186 186 185 187
191 193 187 180 180 184 182 181 175 170 175 185 190 193 196 194 199 205 205 206 206 211 213 217
222 225 228 228 227 226 226 223 221 221 218 219 221 223 218 210 192 161 129  91  53  24  18  13
  9   6   3   3   3   3   3   3   4   2   0   0   0   0   0   0   0   0   0   0   0   0   0   0
  0   0   0   0
  0   0   0   0   0   0   0   0   0   0   0   0   0   0   0   7   0   0 162 194 184 186 188 189
189 189 186 186 180 177 176 169 168 177 194 201 200 196 197 196 200 201 201 200 201 207 213 218
221 221 224 225 225 225 224 223 222 223 222 220 220 222 220 209 190 166 142 111  67  27  21  15
 11   7   4   3   3   3   3   3   4   3   0   0   0   0   0   0   0   0   0   0   0   0   0   0
  0   0   0   0
  0   0   0   0   0   0   0   0   0   0   0   0   0   0   0   7   0   0 163 198 187 189 192 188
186 188 183 184 182 181 181 171 169 177 189 196 198 197 198 198 197 192 187 189 193 197 204 209
215 218 220 222 221 221 219 219 220 222 223 221 219 218 217 207 189 169 154 126  81  38  22  18
 11   8   5   3   3   3   3   3   4   3   0   0   0   0   0   0   0   0   0   0   0   0   0   0
  0   0   0   0
  0   0   0   0   0   0   0   0   0   0   0   0   0   0   0   7   0   0 163 200 188 188 191 187
184 190 190 187 181 181 180 168 166 170 179 185 190 193 194 193 190 184 179 180 189 198 203 208
211 215 220 220 218 215 215 216 218 221 219 217 216 214 214 210 198 178 160 127  86  55  28  20
 12   9   6   3   3   3   3   3   4   3   0   0   0   0   0   0   0   0   0   0   0   0   0   0
  0   0   0   0
  0   0   0   0   0   0   0   0   0   0   0   0   0   0   0   8   0   0 167 205 192 188 191 190
184 188 193 189 179 176 174 158 156 162 171 185 188 189 189 189 187 179 173 170 180 199 211 217
216 216 222 221 218 217 217 218 219 218 217 216 216 213 211 211 202 182 165 136 100  68  36  22
 15  10   7   3   2   3   3   3   4   3   0   0   0   0   0   0   0   0   0   0   0   0   0   0
  0   0   0   0
  0   0   0   0   0   0   0   0   0   0   0   0   0   0   0   7   0   0 164 205 196 191 187 187
180 182 194 188 177 173 169 161 159 163 168 181 191 195 194 193 195 191 183 182 186 198 211 215
219 222 224 224 222 224 225 221 218 217 216 215 216 215 211 212 206 186 166 153 123  84  45  25
 17  12   8   5   3   3   3   3   4   3   0   0   0   0   0   0   0   0   0   0   0   0   0   0
  0   0   0   0
  0   0   0   0   0   0   0   0   0   0   0   0   0   0   0   7   0   0 162 203 196 192 186 182
181 181 188 185 182 176 163 155 155 156 163 172 182 187 192 194 196 194 195 197 204 216 217 217
221 226 228 228 224 226 225 220 220 221 218 215 215 215 215 211 203 191 172 164 144 110  63  25
 21  14  10   6   3   3   3   3   4   2   0   0   0   0   0   0   0   0   0   0   0   0   0   0
  0   0   0   0
  0   0   0   0   0   0   0   0   0   0   0   0   0   0   0   7   0   0 155 194 195 186 185 181
179 182 185 180 183 184 165 156 155 156 158 164 174 183 189 193 196 198 203 209 214 220 222 226
227 226 229 227 226 227 226 219 218 222 220 216 214 211 209 209 200 191 180 167 152 132  82  27
 24  16  10   7   4   3   3   3   3   2   0   0   0   0   0   0   0   0   0   0   0   0   0   0
  0   0   0   0
  0   0   0   0   0   0   0   0   0   0   0   0   0   0   0   6   0   0 153 187 187 183 176 175
170 170 175 175 177 180 177 165 159 164 166 168 173 182 188 195 205 211 214 220 221 220 222 225
227 228 227 225 227 227 227 222 219 222 223 221 216 212 205 205 202 194 186 170 159 148  99  34
 25  19  11   8   5   3   3   3   4   2   0   0   0   0   0   0   0   0   0   0   0   0   0   0
  0   0   0   0
  0   0   0   0   0   0   0   0   0   0   0   0   0   0   0   7   0   0 158 192 186 187 176 172
168 165 168 163 166 170 171 170 165 162 167 167 167 173 190 199 208 216 222 225 224 224 224 224
224 226 227 225 225 225 225 225 223 222 225 227 219 209 208 204 202 194 187 186 175 161 128  58
 25  23  13   9   6   4   3   3   3   2   0   0   0   0   0   0   0   0   0   0   0   0   0   0
  0   0   0   0
  0   0   0   0   0   0   0   0   0   0   0   0   0   0   0   7   0   0 159 193 188 192 180 175
171 164 163 158 155 156 159 160 164 162 164 167 170 183 195 203 207 211 221 226 225 224 226 226
226 228 226 225 223 224 225 226 224 223 226 227 220 208 207 208 203 197 188 188 180 164 157  92
 15  26  14   9   7   3   3   3   3   2   0   0   0   0   0   0   0   0   0   0   0   0   0   0
  0   0   0   0
  0   0   0   0   0   0   0   0   0   0   0   0   0   0   0   7   0   0 157 187 179 187 183 171
165 159 155 159 151 142 152 157 152 160 162 164 166 185 199 205 210 217 223 225 222 221 223 224
226 226 224 224 223 222 223 222 220 222 224 224 220 216 211 209 206 203 191 189 179 170 167 106
 20  26  16  10   8   4   3   3   3   2   0   0   0   0   0   0   0   0   0   0   0   0   0   0
  0   0   0   0
  0   0   0   0   0   0   0   0   0   0   0   0   0   0   0   6   0   0 152 183 172 174 178 172
161 151 146 147 149 143 145 157 155 161 165 167 170 185 203 213 219 224 226 225 224 223 223 225
226 224 223 226 225 223 222 221 219 220 222 221 217 218 217 209 206 204 201 196 183 177 158 115
 44  21  19  11   9   4   3   3   3   2   0   0   0   0   0   0   0   0   0   0   0   0   0   0
  0   0   0   0
  0   0   0   0   0   0   0   0   0   0   0   0   0   0   0   5   0   0 143 176 164 162 164 171
166 153 143 138 136 140 146 153 156 167 170 179 183 189 205 217 223 226 227 227 228 226 226 227
225 222 223 225 226 225 223 225 223 223 221 217 217 216 212 208 202 204 208 200 180 171 156 130
 67  10  23  11  10   5   2   3   3   2   0   0   0   0   0   0   0   0   0   0   0   0   0   0
  0   0   0   0
  0   0   0   0   0   0   0   0   0   0   0   0   0   0   0   6   0   0 145 174 162 160 157 161
158 150 145 141 130 127 141 156 161 169 176 183 180 185 197 210 215 213 215 219 220 224 226 224
222 221 219 221 226 227 225 223 223 224 221 218 216 215 210 204 203 200 202 200 183 169 168 149
 90  16  23  13  10   6   2   3   4   2   0   0   0   0   0   0   0   0   0   0   0   0   0   0
  0   0   0   0
  0   0   0   0   0   0   0   0   0   0   0   0   0   0   0   6   0   0 148 174 161 158 152 150
150 151 146 136 128 125 136 151 157 160 170 183 183 185 197 204 213 214 212 211 212 218 220 220
222 225 222 220 222 223 223 223 225 224 223 224 222 215 207 204 206 198 199 200 189 174 170 152
110  41  14  18  10   7   3   3   3   2   0   0   0   0   0   0   0   0   0   0   0   0   0   0
  0   0   0   0
  0   0   0   0   0   0   0   0   0   0   0   0   0   0   0   6   0   0 152 179 160 155 143 137
138 145 150 139 129 131 136 151 159 162 170 185 197 194 196 204 214 220 218 215 215 217 219 221
224 227 228 226 221 220 220 223 226 225 225 225 224 218 207 205 204 197 203 205 201 190 165 138
107  61  13  17  11   7   3   3   3   2   0   0   0   0   0   0   0   0   0   0   0   0   0   0
  0   0   0   0
  0   0   0   0   0   0   0   0   0   0   0   0   0   0   0   6   0   0 150 182 159 146 139 138
134 136 139 137 140 144 148 158 166 169 173 182 192 197 199 206 214 218 220 222 221 221 223 225
225 224 227 228 223 218 215 217 221 222 223 223 225 221 211 208 205 201 207 210 203 193 165 147
112  66  28  14  13   8   3   3   3   2   0   0   0   0   0   0   0   0   0   0   0   0   0   0
  0   0   0   0
  0   0   0   0   0   0   0   0   0   0   0   0   0   0   0   6   0   0 149 179 161 147 142 144
141 137 133 121 122 147 165 168 169 166 168 176 182 194 202 208 216 220 220 223 226 228 227 226
227 225 227 227 224 222 219 219 223 223 224 224 225 226 218 212 207 203 208 212 201 180 157 149
119  65  34  16  13   9   3   2   3   2   0   0   0   0   0   0   0   0   0   0   0   0   0   0
  0   0   0   0
  0   0   0   0   0   0   0   0   0   0   0   0   0   0   0   6   0   0 148 178 159 152 142 130
125 125 123 120 113 120 151 173 175 171 171 178 188 197 208 216 221 224 222 224 230 230 228 227
226 226 227 228 225 225 223 221 224 226 227 224 222 225 220 215 214 206 208 212 207 189 168 153
120  74  34  18  13   8   3   2   3   2   0   0   0   0   0   0   0   0   0   0   0   0   0   0
  0   0   0   0
  0   0   0   0   0   0   0   0   0   0   0   0   0   0   0   6   0   0 150 182 159 147 142 124
111 110 110 114 123 115 126 157 179 184 184 189 190 194 208 220 222 225 227 226 227 227 227 228
228 228 228 225 222 223 223 220 221 225 227 224 220 223 222 218 220 210 206 214 210 200 183 152
114  75  35  19  14   8   3   2   3   2   0   0   0   0   0   0   0   0   0   0   0   0   0   0
  0   0   0   0
  0   0   0   0   0   0   0   0   0   0   0   0   0   0   0   6   0   0 148 175 155 136 128 124
112 102 101 102 112 120 124 135 163 184 185 187 187 188 208 221 222 224 226 226 225 224 225 227
228 226 225 223 219 219 222 221 221 223 226 227 224 220 219 218 218 215 213 219 208 200 192 153
112  68  27  19  14   8   2   2   3   2   0   0   0   0   0   0   0   0   0   0   0   0   0   0
  0   0   0   0
  0   0   0   0   0   0   0   0   0   0   0   0   0   0   0   6   0   0 144 168 147 133 114 107
106  97  94  95 100 119 122 117 132 159 171 179 191 198 210 218 220 221 222 224 223 222 220 224
227 225 224 225 223 222 222 221 222 223 224 227 225 222 220 217 215 217 216 218 210 194 192 166
120  63  23  18  15   8   2   2   3   2   0   0   0   0   0   0   0   0   0   0   0   0   0   0
  0   0   0   0
  0   0   0   0   0   0   0   0   0   0   0   0   0   0   0   5   0   0 137 162 141 124 113 102
 98 100  94  95 101 113 122 114 119 141 168 181 195 203 209 215 218 220 220 223 224 223 223 224
226 227 225 225 223 224 226 224 221 219 219 222 223 223 223 221 220 217 215 212 208 193 180 166
128  66  24  19  16   8   2   2   3   2   0   0   0   0   0   0   0   0   0   0   0   0   0   0
  0   0   0   0
  0   0   0   0   0   0   0   0   0   0   0   0   0   0   0   6   0   0 140 160 139 118 102  97
 98  99  97  96 105 111 120 123 118 131 164 188 205 212 216 217 217 220 223 223 224 224 223 225
226 225 225 226 225 224 224 224 223 218 219 222 220 221 221 223 222 215 212 210 205 184 166 168
136  66  25  21  17   7   2   3   3   2   0   0   0   0   0   0   0   0   0   0   0   0   0   0
  0   0   0   0
  0   0   0   0   0   0   0   0   0   0   0   0   0   0   0   6   0   0 150 170 138 120  98  87
 90  89  92 106 123 130 137 138 124 138 173 199 213 217 220 223 222 222 223 224 225 225 224 224
226 226 224 226 226 225 225 224 223 220 219 217 213 217 221 220 217 208 209 206 200 174 162 164
126  61  26  21  15   5   2   3   3   2   0   0   0   0   0   0   0   0   0   0   0   0   0   0
  0   0   0   0
  0   0   0   0   0   0   0   0   0   0   0   0   0   0   0   6   0   0 144 178 158 126 103  91
 84  85  86  98 122 141 154 163 152 156 184 202 209 217 222 224 224 221 222 222 223 225 226 224
225 226 226 223 222 223 224 224 223 221 219 215 211 213 216 216 214 209 211 202 192 178 169 153
112  67  30  19  13   4   2   3   3   2   0   0   0   0   0   0   0   0   0   0   0   0   0   0
  0   0   0   0
  0   0   0   0   0   0   0   0   0   0   0   0   0   0   0   5   0   0 138 174 173 153 117 107
100  94  92  96 106 124 138 156 169 171 183 200 209 212 219 223 223 218 219 219 218 218 221 222
223 224 225 224 221 217 219 221 220 221 224 223 218 214 209 216 218 206 203 196 189 183 161 136
117  68  26  20  10   3   2   3   3   2   0   0   0   0   0   0   0   0   0   0   0   0   0   0
  0   0   0   0
  0   0   0   0   0   0   0   0   0   0   0   0   0   0   0   5   0   0 133 173 170 165 146 114
108 105  98 101 107 117 131 143 157 172 189 202 212 210 213 221 223 224 223 222 219 219 221 220
218 220 221 223 223 216 214 216 217 220 224 222 217 215 213 215 217 203 196 191 190 180 148 138
124  65  18  18   8   2   3   3   3   2   0   0   0   0   0   0   0   0   0   0   0   0   0   0
  0   0   0   0
  0   0   0   0   0   0   0   0   0   0   0   0   0   0   0   4   0   0 127 166 172 164 142 117
 98  96  95  98 104 111 122 141 153 165 186 199 204 206 205 211 218 220 220 218 213 216 222 221
220 218 219 219 218 216 216 215 220 225 222 220 220 215 212 211 210 205 202 192 177 161 130 116
101  63  22  13   5   2   3   3   3   2   0   0   0   0   0   0   0   0   0   0   0   0   0   0
  0   0   0   0
  0   0   0   0   0   0   0   0   0   0   0   0   0   0   0   5   0   0 130 159 160 161 137 118
107  86  83  91 102 111 130 146 147 150 166 186 204 210 210 213 216 219 217 216 215 212 218 223
222 220 220 217 212 212 212 212 216 220 216 215 217 213 203 200 207 208 202 185 158 135 106  91
 84  66  36  14   2   3   3   3   3   2   0   0   0   0   0   0   0   0   0   0   0   0   0   0
  0   0   0   0
  0   0   0   0   0   0   0   0   0   0   0   0   0   0   0   4   0   0 129 154 146 149 135 121
110  92  76  76  90 110 133 160 172 165 168 183 201 210 212 214 211 213 219 219 219 219 219 222
222 221 219 217 216 213 213 216 217 219 211 207 214 215 204 198 200 192 183 173 147 118  94  87
 79  67  53  16   0   4   3   3   4   2   0   0   0   0   0   0   0   0   0   0   0   0   0   0
  0   0   0   0
  0   0   0   0   0   0   0   0   0   0   0   0   0   0   0   4   0   0 125 152 143 141 125 114
114 105  91  78  82 102 121 143 168 181 179 184 200 214 216 208 206 206 209 217 220 222 222 224
225 224 221 219 217 215 216 217 219 214 209 210 213 212 201 186 184 163 157 157 136 104  72  62
 59  60  47   4   3   4   3   3   4   2   0   0   0   0   0   0   0   0   0   0   0   0   0   0
  0   0   0   0
  0   0   0   0   0   0   0   0   0   0   0   0   0   0   0   4   0   0 128 155 153 147 128 108
105 110 105  98  92  89 103 118 134 154 171 178 191 204 211 213 208 211 213 219 221 222 224 224
226 226 225 221 218 215 212 213 212 207 204 207 204 199 195 185 168 154 157 146 124  91  64  61
 55  49  25   0   5   3   3   3   4   3   0   0   0   0   0   0   0   0   0   0   0   0   0   0
  0   0   0   0
  0   0   0   0   0   0   0   0   0   0   0   0   0   0   0   5   0   0 131 154 154 157 145 123
105 107 109 107 109  96  92 104 119 137 147 160 176 189 204 217 215 216 222 225 224 225 228 227
224 223 223 222 219 218 216 212 204 200 198 205 197 187 192 180 155 139 149 144 103  81  63  54
 46  34   8   3   4   4   3   3   4   3   0   0   0   0   0   0   0   0   0   0   0   0   0   0
  0   0   0   0
  0   0   0   0   0   0   0   0   0   0   0   0   0   0   0   5   0   0 135 157 140 144 152 141
117 108 107 105 111 120 111 107 118 126 138 148 164 181 200 212 220 223 223 224 226 226 224 223
224 222 220 218 213 210 204 204 204 200 195 201 188 181 192 181 155 133 136 123  85  63  37  34
 29  12   3   3   3   4   3   3   4   3   0   0   0   0   0   0   0   0   0   0   0   0   0   0
  0   0   0   0
  0   0   0   0   0   0   0   0   0   0   0   0   0   0   0   5   0   0 139 169 151 144 139 135
118 103  95  98  97 106 125 126 123 125 138 144 157 178 196 209 216 223 223 222 222 223 220 217
217 218 219 216 211 207 203 203 201 196 195 191 181 181 182 162 140 127 113  90  65  31  15  16
  8   3   3   3   3   3   3   3   4   3   0   0   0   0   0   0   0   0   0   0   0   0   0   0
  0   0   0   0
  0   0   0   0   0   0   0   0   0   0   0   0   0   0   0   5   0   0 133 166 163 162 146 128
116 102  88  84  83  78  97 117 121 127 138 154 160 171 187 204 214 220 223 224 223 225 226 222
217 214 216 214 211 212 218 216 202 196 197 189 181 170 157 144 135 116  99  75  42  19  16   9
  5   3   2   3   3   3   3   3   4   3   0   0   0   0   0   0   0   0   0   0   0   0   0   0
  0   0   0   0
  0   0   0   0   0   0   0   0   0   0   0   0   0   0   0   5   0   0 131 162 164 170 163 149
125 106  95  76  67  75  77  95 113 125 139 159 172 173 183 193 212 223 222 223 223 223 224 223
219 215 214 216 214 217 220 220 208 199 191 176 163 156 152 135 128 122  91  56  28  16  11   7
  3   3   2   3   3   3   3   3   4   3   0   0   0   0   0   0   0   0   0   0   0   0   0   0
  0   0   0   0
  0   0   0   0   0   0   0   0   0   0   0   0   0   0   0   5   0   0 136 165 167 170 165 163
140 108 102  87  65  67  72  82 111 123 136 151 168 179 188 194 201 216 221 221 222 221 221 220
219 220 221 221 218 217 212 213 196 185 181 165 150 135 132 123 120 109  73  36  19  12   8   4
  3   3   3   3   3   3   3   3   4   3   0   0   0   0   0   0   0   0   0   0   0   0   0   0
  0   0   0   0
  0   0   0   0   0   0   0   0   0   0   0   0   0   0   0   5   0   0 137 170 159 162 156 154
147 119 100  91  77  68  71  75 101 120 126 139 153 166 174 187 196 202 215 221 223 222 222 222
221 218 216 216 208 205 209 203 188 184 178 166 149 132 125 122  90  59  38  18  15   8   4   3
  3   3   3   3   3   3   3   3   4   3   0   0   0   0   0   0   0   0   0   0   0   0   0   0
  0   0   0   0
  0   0   0   0   0   0   0   0   0   0   0   0   0   0   0   4   0   0 127 157 152 148 147 144
140 119 105  83  68  63  69  76  82  99 111 127 139 148 158 171 186 197 203 216 222 218 216 217
211 211 207 200 196 195 203 204 193 175 152 146 139 116 108  92  50  28  20  16  10   4   3   3
  3   3   3   3   3   3   3   3   4   3   0   0   0   0   0   0   0   0   0   0   0   0   0   0
  0   0   0   0
  0   0   0   0   0   0   0   0   0   0   0   0   0   0   0   4   0   0 126 155 142 136 134 138
133 118 102  72  52  52  57  70  78  83  91 107 121 135 142 154 169 186 197 206 215 216 209 201
194 192 188 178 176 177 182 179 161 137 125 121 104  87  78  57  35  21  17  12   6   3   3   3
  3   3   3   3   3   3   3   3   4   3   0   0   0   0   0   0   0   0   0   0   0   0   0   0
  0   0   0   0
  0   0   0   0   0   0   0   0   0   0   0   0   0   0   0   4   0   0 121 148 141 135 125 122
131 131  93  46  45  46  49  56  61  77  83  81 101 127 143 150 155 161 177 190 196 201 198 188
180 174 176 173 164 164 156 147 146 140 120  98  77  62  44  32  21  17  13   6   3   3   3   3
  3   2   3   2   3   3   3   3   4   3   0   0   0   0   0   0   0   0   0   0   0   0   0   0
  0   0   0   0
  0   0   0   0   0   0   0   0   0   0   0   0   0   0   0   4   0   0 116 141 135 133 122 112
132 139  87  15  36  38  41  43  47  60  79  82  83 110 126 135 144 135 148 172 178 179 182 185
180 174 168 164 154 142 127 131 130 105  76  68  56  38  25  20  16  12   7   4   3   3   3   3
  3   2   2   3   3   3   3   3   4   3   0   0   0   0   0   0   0   0   0   0   0   0   0   0
  0   0   0   0
  0   0   0   0   0   0   0   0   0   0   0   0   0   0   0   3   0   0 112 139 132 126 117 116
137 140  70   3  31  28  31  33  40  47  56  71  74  82 100 105 119 123 126 135 145 146 152 163
161 156 147 125 116 108  97  99  99  86  72  56  34  23  19  15  12   7   3   3   3   3   3   3
  3   3   2   3   3   3   3   3   4   3   0   0   0   0   0   0   0   0   0   0   0   0   0   0
  0   0   0   0
  0   0   0   0   0   0   0   0   0   0   0   0   0   0   0   3   0   0 101 125 124 122 118 122
138 122  36  17  27  22  23  24  26  32  39  47  58  61  73  92 107 119 127 121 120 122 117 122
125 114 104  92  92  85  73  72  72  64  47  31  23  17  13  12   7   3   3   3   3   3   3   3
  3   3   3   3   3   3   3   3   4   2   0   0   0   0   0   0   0   0   0   0   0   0   0   0
  0   0   0   0
  0   0   0   0   0   0   0   0   0   0   0   0   0   0   0   2   0   0  96 111 109 127 135 134
119  80  11  20  22  22  21  20  20  22  25  28  36  44  46  52  78 103 114 113 112 108 108 102
 92  84  78  76  76  73  64  53  40  26  18  16  14  13  11   7   4   3   3   3   3   3   3   3
  2   2   2   2   3   3   3   3   3   2   0   0   0   0   0   0   0   0   0   0   0   0   0   0
  0   0   0   0
  0   0   0   0   0   0   0   0   0   0   0   0   0   0   0   3   0   0 102 130 142 154 143 110
 77  47   7  14  14  16  17  17  16  17  19  20  23  26  33  39  47  70  80  72  72  70  77  86
 81  73  64  51  43  38  30  21  17  18  17  14  12  10   6   4   4   3   3   3   3   3   3   2
  2   3   2   2   2   3   3   3   3   2   0   0   0   0   0   0   0   0   0   0   0   0   0   0
  0   0   0   0
  0   0   0   0   0   0   0   0   0   0   0   0   0   0   0   5   0   0 136 170 158 138  96  54
 49  30   6  11   9  10  11  13  14  14  13  15  16  18  19  25  32  40  44  38  34  34  35  35
 34  34  35  31  26  20  18  19  17  14  12  11   8   5   4   4   4   3   3   3   3   3   3   3
  3   3   2   2   3   3   3   3   4   3   0   0   0   0   0   0   0   0   0   0   0   0   0   0
  0   0   0   0
  0   0   0   0   0   0   0   0   0   0   0   0   0   0   0   2   0   0  89 109  89  59  31  38
 34  18   7   9   8   8   9   9  10  11  11  11  12  12  14  14  12  14  21  24  25  25  25  22
 18  19  17  17  17  16  16  15  12  11   9   7   5   4   4   4   3   3   3   3   3   3   3   3
  3   2   2   2   3   3   3   3   4   3   0   0   0   0   0   0   0   0   0   0   0   0   0   0
  0   0   0   0
  0   0   0   0   0   0   0   0   0   0   0   0   0   0   0   0   0   5   0   0   0  27  33  28
 23  12   7   7   7   7   8   8   8   8   8   9  10  11  11  12  14  14  14  15  16  16  16  17
 17  16  15  14  13  12  11  11   9   7   5   4   4   4   4   3   3   3   3   3   3   2   2   3
  2   2   2   2   3   4   3   3   4   2   0   0   0   0   0   0   0   0   0   0   0   0   0   0
  0   0   0   0
  0   0   0   0   0   0   0   0   0   0   0   0   0   0   0   0   0   1  24  24  19  13  10  16
 16   8   6   7   7   7   7   7   7   7   7   8   9   9   9  10  10  11  12  13  12  12  12  12
 12  12  11  10  10   9   8   7   5   4   4   4   4   4   4   3   3   3   3   3   3   2   2   3
  2   2   2   2   2   3   2   3   4   2   0   0   0   0   0   0   0   0   0   0   0   0   0   0
  0   0   0   0
  0   0   0   0   0   0   0   0   0   0   0   0   0   0   0   0   0   2  15  14  12  11   9   9
  8   5   5   6   5   6   6   6   6   6   6   7   7   8   8   8   8   9   9   9  10  10  10  10
  9  10   9   8   7   6   5   5   4   4   4   4   4   3   3   3   3   3   3   3   3   3   3   3
  2   2   2   2   2   3   3   3   4   2   0   0   0   0   0   0   0   0   0   0   0   0   0   0
  0   0   0   0
  0   0   0   0   0   0   0   0   0   0   0   0   0   0   0   0   0   2  16  13  11  10   9  10
  7   5   4   4   4   5   5   4   5   5   5   6   6   6   7   7   7   7   8   8   8   8   8   7
  7   7   6   5   5   5   5   5   4   4   4   4   3   3   3   3   3   3   3   3   3   3   3   3
  2   2   2   2   3   2   2   3   3   2   0   0   0   0   0   0   0   0   0   0   0   0   0   0
  0   0   0   0
  0   0   0   0   0   0   0   0   0   0   0   0   0   0   0   0   0   1  16  13  11  10   9   9
  7   5   4   4   3   4   4   3   4   3   4   4   4   4   5   5   5   5   5   6   5   5   5   5
  5   5   5   5   5   5   5   5   4   4   4   3   3   3   3   3   3   3   3   3   3   3   3   3
  3   2   2   2   3   7   7   3   3   2   0   0   0   0   0   0   0   0   0   0   0   0   0   0
  0   0   0   0
  0   0   0   0   0   0   0   0   0   0   0   0   0   0   0   0   0   1  15  12  10   9   9   9
  6   5   4   4   3   3   4   3   3   3   3   4   4   4   4   4   4   4   4   4   5   4   5   5
  5   5   5   5   5   4   5   5   4   3   3   3   3   3   3   3   3   3   3   3   3   3   3   3
  3   2   2   2   5   0   0   5   4   2   0   0   0   0   0   0   0   0   0   0   0   0   0   0
  0   0   0   0
  0   0   0   0   0   0   0   0   0   0   0   0   0   0   0   0   0   2  15  11  10   9   9   8
  6   5   4   4   3   3   3   3   3   3   4   4   4   4   4   4   4   4   4   4   5   4   5   5
  5   5   5   5   4   4   4   4   3   3   3   3   3   3   3   3   3   3   3   3   3   3   3   3
  3   2   2   5   0  25  33   0   2   3   0   0   0   0   0   0   0   0   0   0   0   0   0   0
  0   0   0   0
  0   0   0   0   0   0   0   0   0   0   0   0   0   0   0   0   0   2  15  11  10   8   9   7
  5   5   4   4   3   3   5   4   3   4   4   4   4   4   4   4   4   4   4   4   4   4   5   4
  4   5   5   5   4   4   4   4   3   3   3   3   3   3   3   3   3   3   3   3   3   3   3   3
  2   2   1   9   0  43  74  53  10   0   2   0   0   0   0   0   0   0   0   0   0   0   0   0
  0   0   0   0
