P2
# 8-bit pgm gray
100 100
255
  0   0   0   0   0   0   0   0   0   0   0   0   0   0   0   8   0   0 170 211 205 209 211 218
219 220 221 221 222 222 221 221 221 220 220 218 217 216 214 210 204 189 158 138 136 135 132 130
127 124 120 113 102  90  80  62  48  37  27  20  16  12   8   9   9   9   9   9   9   9   7  19
  0  22 179 226 237 211 175 175 223 209   0   0  12   0   0   0   0   0   0   0   0   0   0   0
  0   0   0   0
  0   0   0   0   0   0   0   0   0   0   0   0   0   0   0   8   0   0 167 209 208 213 218 220
219 222 221 221 222 221 221 221 220 219 219 218 215 213 211 205 195 169 143 142 138 134 135 132
129 128 122 113 101  89  75  59  48  37  29  22  17  13   9   8   8   9   8   8   9   9   8  15
 11   0 170 229 236 237 191 189 222 210   0   0  12   0   0   0   0   0   0   0   0   0   0   0
  0   0   0   0
  0   0   0   0   0   0   0   0   0   0   0   0   0   0   0   8   0   0 168 211 210 218 221 220
221 223 221 222 221 220 221 220 219 220 218 217 214 211 207 200 178 147 138 139 136 136 136 131
128 125 119 112 101  88  72  59  49  39  31  24  18  15   9   8   8   8   8   8   8   8   8  10
 24   0 157 228 237 237 223 233 243 206   0   0  12   0   0   0   0   0   0   0   0   0   0   0
  0   0   0   0
  0   0   0   0   0   0   0   0   0   0   0   0   0   0   0   8   0   0 172 215 211 221 222 221
222 222 221 221 220 220 221 219 220 218 217 215 213 210 205 189 158 141 140 137 136 135 131 130
130 125 115 109 103  90  73  59  51  42  32  25  19  16  11   8   8   8   8   8   8   8   8   6
 29   0 141 225 237 239 243 241 249 207   0   0  13   0   0   0   0   0   0   0   0   0   0   0
  0   0   0   0
  0   0   0   0   0   0   0   0   0   0   0   0   0   0   0   8   0   0 177 220 215 222 222 221
223 223 222 221 222 222 221 220 220 218 215 214 211 205 196 173 145 141 140 137 137 135 134 132
128 124 116 109 104  90  75  63  53  43  34  27  21  16  13   8   7   8   8   8   8   8   8   5
 30   0 122 220 237 239 241 236 248 200   0   0  11   0   0   0   0   0   0   0   0   0   0   0
  0   0   0   0
  0   0   0   0   0   0   0   0   0   0   0   0   0   0   0   9   0   0 179 222 218 222 223 223
222 222 222 221 221 221 221 220 219 217 213 210 205 197 182 154 141 142 141 142 140 138 136 132
128 123 116 112 104  89  77  66  55  45  36  29  23  18  14   9   7   7   7   8   8   7   8   5
 28   0 100 212 238 229 218 191 214 171   0  22   4   0   0   0   0   0   0   0   0   0   0   0
  0   0   0   0
  0   0   0   0   0   0   0   0   0   0   0   0   0   0   0   9   0   0 181 226 220 223 223 223
223 222 221 220 220 220 219 220 217 214 210 205 198 187 164 144 143 141 142 141 139 135 134 133
131 127 118 112 102  90  80  68  58  49  39  31  24  19  15  11   7   7   7   7   7   7   8   6
 24   0  75 201 236 227 197 191 161 149   0   0   6   0   0   0   0   0   0   0   0   0   0   0
  0   0   0   0
  0   0   0   0   0   0   0   0   0   0   0   0   0   0   0   9   0   0 181 227 218 222 223 223
222 221 220 220 220 220 218 218 215 211 206 201 191 173 148 142 141 143 142 140 138 139 136 129
125 122 116 110 101  89  81  72  61  52  42  33  27  21  16  13   7   7   7   7   7   7   7   6
 20   0  45 189 233 233 194 201 199 185   0   0  11   0   0   0   0   0   0   0   0   0   0   0
  0   0   0   0
  0   0   0   0   0   0   0   0   0   0   0   0   0   0   0   9   0   0 182 225 217 221 223 223
221 218 219 220 219 218 217 215 212 207 201 195 180 157 141 139 140 141 140 137 137 138 135 130
125 119 116 110 101  91  82  73  66  57  47  36  28  23  18  14   9   6   7   7   7   7   7   7
 15   0   0 175 229 204 182 216 237 210   0   0  13   0   0   0   0   0   0   0   0   0   0   0
  0   0   0   0
  0   0   0   0   0   0   0   0   0   0   0   0   0   0   0   9   0   0 182 227 219 222 222 221
218 218 219 219 218 217 215 211 207 201 194 185 164 147 143 139 139 138 136 136 136 134 134 133
129 121 115 111 101  92  85  77  69  60  52  41  32  25  20  15  11   6   7   7   7   7   7   7
 12  16   0 158 225 219 228 238 246 203   0   0  12   0   0   0   0   0   0   0   0   0   0   0
  0   0   0   0
  0   0   0   0   0   0   0   0   0   0   0   0   0   0   0   9   0   0 183 228 219 222 222 220
218 218 217 217 217 215 211 207 201 196 187 170 150 141 141 139 137 138 137 137 135 134 134 133
130 124 118 111 102  94  88  79  71  63  54  45  36  28  21  16  13   7   6   6   6   6   7   7
  9  22   0 135 217 234 238 235 245 203   0   0  12   0   0   0   0   0   0   0   0   0   0   0
  0   0   0   0
  0   0   0   0   0   0   0   0   0   0   0   0   0   0   0   9   0   0 184 228 221 223 221 217
217 216 215 216 213 211 208 204 198 191 177 158 143 140 139 139 139 141 139 135 134 134 134 133
131 127 122 113 104  96  90  82  75  66  57  47  38  30  24  18  14   9   6   6   6   6   6   6
  7  21   0 104 192 206 206 201 199 158   0   0   7   0   0   0   0   0   0   0   0   0   0   0
  0   0   0   0
  0   0   0   0   0   0   0   0   0   0   0   0   0   0   0   9   0   0 184 229 222 221 218 217
215 215 215 215 212 208 204 201 194 184 168 152 144 143 143 143 142 142 139 137 135 136 134 132
130 129 125 117 109  99  92  85  78  71  61  50  41  33  26  20  15  11   6   5   7  14   7   6
  6  11   0  49 102 103  89  70  45   5   0   1   0   0   0   0   0   0   0   0   0   0   0   0
  0   0   0   0
  0   0   0   0   0   0   0   0   0   0   0   0   0   0   0   9   0   0 184 229 221 219 217 217
213 213 214 212 209 205 199 194 186 171 154 146 143 142 142 143 143 142 141 139 140 138 136 135
131 130 125 121 114 108 101  93  85  76  65  54  45  36  29  22  17  13   7   5   6   8   6   6
  6   5  10   0   0   0   0   0   0  14   0   0   0   0   0   0   0   0   0   0   0   0   0   0
  0   0   0   0
  0   0   0   0   0   0   0   0   0   0   0   0   0   0   0   9   0   0 184 228 217 218 217 215
212 213 212 208 206 201 196 189 175 158 145 143 140 139 138 139 138 138 140 137 138 138 138 138
134 130 126 120 116 109 103  95  87  80  71  60  50  41  32  25  19  14   9   6   6   5   6   6
  6   6   6  13  26  31  31  29  27  18   0   0   0   0   0   0   0   0   0   0   0   0   0   0
  0   0   0   0
  0   0   0   0   0   0   0   0   0   0   0   0   0   0   0   9   0   0 185 227 214 215 216 213
210 213 209 205 202 198 193 181 163 148 143 142 138 139 140 140 140 139 140 139 139 139 140 138
135 134 130 121 118 110 104  98  89  82  75  65  54  45  36  28  21  16  12   6   6   6   6   6
  6   6   6   8  11  11  10  11  12   9   0   0   0   0   0   0   0   0   0   0   0   0   0   0
  0   0   0   0
  0   0   0   0   0   0   0   0   0   0   0   0   0   0   0   9   0   0 184 225 213 216 215 212
210 210 206 203 200 196 187 169 154 142 142 142 138 138 139 141 144 141 139 141 140 137 138 138
136 133 133 128 121 115 107 101  93  85  80  67  57  47  38  30  23  18  13   8   6   6   6   6
  6   6   6   8  11  12  12  12  13   9   0   0   0   0   0   0   0   0   0   0   0   0   0   0
  0   0   0   0
  0   0   0   0   0   0   0   0   0   0   0   0   0   0   0   9   0   0 183 222 212 216 214 210
212 207 204 202 198 190 178 162 148 140 140 141 142 140 142 142 142 142 139 137 140 137 136 137
137 136 133 130 123 119 116 104  97  92  85  71  60  51  42  33  25  19  15  10   6   6   6   6
  6   6   6   8  10  11  10  10  12   8   0   0   0   0   0   0   0   0   0   0   0   0   0   0
  0   0   0   0
  0   0   0   0   0   0   0   0   0   0   0   0   0   0   0   9   0   0 181 221 211 215 211 212
210 204 204 200 193 183 172 157 142 141 141 140 139 143 145 144 143 146 148 143 139 139 139 138
137 137 136 131 125 122 126 117 102  99  90  77  66  54  45  36  28  21  16  12   6   5   6   6
  6   6   6   7   9  10  10  10  11   7   0   0   0   0   0   0   0   0   0   0   0   0   0   0
  0   0   0   0
  0   0   0   0   0   0   0   0   0   0   0   0   0   0   0   9   0   0 178 220 213 213 208 210
207 203 203 196 187 177 165 149 141 141 142 145 148 152 151 144 146 149 156 153 142 138 141 139
139 138 137 140 136 134 131 122 109 102  92  83  73  59  48  40  31  23  17  14   8   5   6   6
  6   6   6   7   9   9   9   9  10   7   0   0   0   0   0   0   0   0   0   0   0   0   0   0
  0   0   0   0
  0   0   0   0   0   0   0   0   0   0   0   0   0   0   0   9   0   0 177 219 212 210 209 208
203 204 201 194 183 171 154 144 144 142 145 159 162 156 153 149 151 155 158 153 147 141 142 143
141 141 141 142 143 148 148 138 131 113  94  91  79  65  54  44  34  26  19  15  10   5   5   5
  6   6   6   7   8   8  10  13  12   7   0   0   0   0   0   0   0   0   0   0   0   0   0   0
  0   0   0   0
  0   0   0   0   0   0   0   0   0   0   0   0   0   0   0   9   0   0 177 219 210 209 208 206
203 202 197 188 176 165 147 146 145 144 154 162 160 162 156 152 164 167 163 154 153 147 146 150
150 147 146 146 154 178 183 176 158 133 120 102  83  71  60  49  38  29  22  16  12   6   5   5
  5   6   6   7   8   9   7   0   5   8   0   0   0   0   0   0   0   0   0   0   0   0   0   0
  0   0   0   0
  0   0   0   0   0   0   0   0   0   0   0   0   0   0   0   9   0   0 177 219 207 209 208 204
204 201 194 182 172 155 146 147 144 153 160 162 160 161 162 170 174 174 172 159 159 156 148 155
161 160 165 171 182 198 203 204 178 140 126 107  89  79  68  55  44  33  25  19  13   8   5   5
  5   6   6   7   8   7   8  32  18   1   1   0   0   0   0   0   0   0   0   0   0   0   0   0
  0   0   0   0
  0   0   0   0   0   0   0   0   0   0   0   0   0   0   0   9   0   0 178 219 206 208 208 204
203 201 189 175 166 148 145 144 145 157 160 155 158 160 165 177 176 177 179 175 172 167 163 167
168 167 177 186 196 200 204 201 191 158 117 102  93  83  71  59  49  38  28  21  15  10   5   5
  5   5   6   6  11   0  42  83  61   0   0   1   0   0   0   0   0   0   0   0   0   0   0   0
  0   0   0   0
  0   0   0   0   0   0   0   0   0   0   0   0   0   0   0   9   0   0 178 216 205 208 205 204
204 199 184 173 158 146 147 145 151 160 166 160 165 161 160 167 171 174 173 176 175 175 179 176
171 171 178 193 203 207 205 200 194 167 124 105  92  85  75  62  50  40  31  22  16  12   5   5
  5   5   6   6  12   0  52  95  74   0   0   2   0   0   0   0   0   0   0   0   0   0   0   0
  0   0   0   0
  0   0   0   0   0   0   0   0   0   0   0   0   0   0   0   9   0   0 176 215 204 205 203 204
202 195 183 170 151 145 147 151 158 165 169 162 167 164 160 170 178 179 172 170 167 176 180 169
164 175 186 190 200 208 206 204 195 167 133 115 100  90  79  69  57  45  35  24  17  13   7   5
  5   5   5   6  10   0  47  77  65   2   0   2   0   0   0   0   0   0   0   0   0   0   0   0
  0   0   0   0
  0   0   0   0   0   0   0   0   0   0   0   0   0   0   0   8   0   0 176 215 204 203 203 204
198 187 182 169 151 151 151 151 156 166 164 155 163 166 167 183 186 178 171 169 165 169 177 170
170 181 177 176 192 200 202 200 192 164 138 117 103  94  82  72  63  53  41  28  20  14   9   5
  5   5   5   6   7   4  12  46  29   0   2   0   0   0   0   0   0   0   0   0   0   0   0   0
  0   0   0   0
  0   0   0   0   0   0   0   0   0   0   0   0   0   0   0   8   0   0 174 213 202 202 203 200
192 181 175 163 155 163 156 151 162 169 167 159 165 174 178 184 187 180 179 175 165 163 180 178
166 165 168 165 174 183 187 184 170 158 144 120 108  98  85  74  63  53  41  33  24  17  11   5
  5   5   5   6   6   7   4   0   0   7   0   0   0   0   0   0   0   0   0   0   0   0   0   0
  0   0   0   0
  0   0   0   0   0   0   0   0   0   0   0   0   0   0   0   8   0   0 174 213 200 202 203 198
187 181 172 158 160 162 156 161 173 177 171 162 176 180 178 179 176 180 183 180 169 163 181 182
164 161 162 163 161 165 161 154 157 156 145 134 118 104  91  78  68  57  42  34  26  19  13   6
  5   5   5   5   6   6   8  13  11   5   0   0   0   0   0   0   0   0   0   0   0   0   0   0
  0   0   0   0
  0   0   0   0   0   0   0   0   0   0   0   0   0   0   0   8   0   0 171 210 201 203 202 196
185 178 162 154 161 165 169 169 174 183 177 172 178 178 174 180 167 170 183 180 170 164 168 174
166 161 158 163 160 158 153 145 149 147 142 143 128 109  95  84  73  59  47  36  27  20  14   8
  4   5   5   5   6   6   7   6   7   5   0   0   0   0   0   0   0   0   0   0   0   0   0   0
  0   0   0   0
  0   0   0   0   0   0   0   0   0   0   0   0   0   0   0   8   0   0 170 208 199 202 199 189
181 172 161 161 157 167 175 175 177 184 179 169 174 181 174 181 173 168 183 176 167 174 172 171
165 158 162 162 160 153 154 150 143 146 143 146 139 119 100  88  78  63  51  40  29  22  16  10
  4   5   5   5   6   6   6   6   7   5   0   0   0   0   0   0   0   0   0   0   0   0   0   0
  0   0   0   0
  0   0   0   0   0   0   0   0   0   0   0   0   0   0   0   8   0   0 170 209 199 198 192 183
178 168 163 163 162 167 174 177 179 182 175 165 169 177 179 183 181 174 181 173 169 176 178 173
162 162 164 159 165 156 146 152 144 143 147 148 145 126 108  95  81  68  56  45  33  24  17  12
  5   4   5   5   6   6   6   6   6   4   0   0   0   0   0   0   0   0   0   0   0   0   0   0
  0   0   0   0
  0   0   0   0   0   0   0   0   0   0   0   0   0   0   0   8   0   0 169 208 197 193 184 177
173 163 162 163 172 178 175 182 185 176 170 173 174 174 178 180 177 179 181 172 170 176 177 175
154 160 164 167 170 160 148 156 151 141 146 147 135 122 115 103  83  71  59  48  36  26  19  13
  6   4   5   5   6   6   6   6   6   4   0   0   0   0   0   0   0   0   0   0   0   0   0   0
  0   0   0   0
  0   0   0   0   0   0   0   0   0   0   0   0   0   0   0   8   0   0 169 206 193 190 182 175
168 156 161 166 176 179 170 181 187 181 178 177 170 165 175 172 163 170 177 164 169 173 167 168
157 154 161 168 164 156 158 161 154 143 143 143 130 127 119 109  91  74  62  50  39  29  21  15
  8   4   5   5   5   6   6   6   6   4   0   0   0   0   0   0   0   0   0   0   0   0   0   0
  0   0   0   0
  0   0   0   0   0   0   0   0   0   0   0   0   0   0   0   8   0   0 172 206 188 185 183 175
158 151 162 161 161 177 182 175 182 188 183 177 173 169 170 168 164 156 170 168 162 166 160 155
158 148 156 157 154 158 160 163 161 144 141 146 137 129 120 110  99  81  67  54  42  31  22  16
  9   4   5   5   5   5   5   5   6   4   0   0   0   0   0   0   0   0   0   0   0   0   0   0
  0   0   0   0
  0   0   0   0   0   0   0   0   0   0   0   0   0   0   0   8   0   0 173 207 188 185 180 173
160 156 156 154 166 183 183 173 173 178 179 178 175 171 163 163 166 160 164 167 153 161 161 148
152 154 153 150 150 153 150 162 167 149 147 148 139 129 123 112 102  87  71  55  44  33  24  16
 11   5   5   5   5   5   5   5   6   4   0   0   0   0   0   0   0   0   0   0   0   0   0   0
  0   0   0   0
  0   0   0   0   0   0   0   0   0   0   0   0   0   0   0   7   0   0 166 202 190 188 180 168
157 153 157 155 168 182 178 181 175 169 170 174 170 157 158 163 159 160 163 160 152 152 156 149
146 150 153 150 153 156 147 154 158 146 148 151 142 135 126 114 100  88  75  60  47  35  25  18
 12   6   4   5   5   5   5   5   6   4   0   0   0   0   0   0   0   0   0   0   0   0   0   0
  0   0   0   0
  0   0   0   0   0   0   0   0   0   0   0   0   0   0   0   7   0   0 160 194 181 179 175 163
153 147 155 157 165 180 180 174 174 166 162 169 164 151 157 169 162 158 158 158 155 148 152 159
155 148 151 150 148 151 156 158 155 149 148 152 142 138 133 115  99  89  76  63  50  37  27  19
 13   7   4   5   5   5   5   5   6   4   0   0   0   0   0   0   0   0   0   0   0   0   0   0
  0   0   0   0
  0   0   0   0   0   0   0   0   0   0   0   0   0   0   0   7   0   0 159 193 176 171 163 155
156 155 155 159 164 168 173 173 180 176 167 163 164 159 157 164 163 161 160 160 157 146 144 153
158 148 149 152 147 149 161 167 156 153 152 154 148 141 136 125 106  92  79  66  54  40  30  21
 14   8   4   4   5   5   5   5   5   4   0   0   0   0   0   0   0   0   0   0   0   0   0   0
  0   0   0   0
  0   0   0   0   0   0   0   0   0   0   0   0   0   0   0   7   0   0 158 193 175 171 159 149
147 152 162 167 161 163 167 174 182 179 167 155 158 159 160 158 152 158 165 162 156 148 151 151
149 152 154 152 146 146 151 162 158 154 150 154 153 150 139 132 115  96  83  69  57  44  32  23
 15   9   4   4   5   5   5   5   5   4   0   0   0   0   0   0   0   0   0   0   0   0   0   0
  0   0   0   0
  0   0   0   0   0   0   0   0   0   0   0   0   0   0   0   6   0   0 155 186 169 167 155 149
146 147 155 162 162 162 164 165 172 169 163 161 153 149 154 155 149 157 172 162 150 152 156 152
153 158 156 151 152 154 152 154 164 163 153 149 144 152 148 138 116 101  87  72  59  47  34  23
 17  11   5   4   5   5   4   4   5   4   0   0   0   0   0   0   0   0   0   0   0   0   0   0
  0   0   0   0
  0   0   0   0   0   0   0   0   0   0   0   0   0   0   0   6   0   0 154 182 166 161 151 149
147 148 154 159 160 166 167 161 165 164 156 158 156 155 157 153 148 155 169 169 161 160 154 156
162 159 153 146 147 152 153 162 161 152 149 143 140 146 141 131 115 104  92  74  61  49  35  26
 18  12   5   7   5   4   7   5   5   4   0   0   0   0   0   0   0   0   0   0   0   0   0   0
  0   0   0   0
  0   0   0   0   0   0   0   0   0   0   0   0   0   0   0   6   0   0 154 181 166 161 150 147
148 149 153 159 161 172 177 171 172 166 160 159 156 157 156 161 160 152 161 171 170 161 157 158
166 163 148 142 146 148 147 158 157 143 149 149 142 144 130 125 119 109  97  79  65  51  38  28
 19  13   6   4   4   4   8   5   5   4   0   0   0   0   0   0   0   0   0   0   0   0   0   0
  0   0   0   0
  0   0   0   0   0   0   0   0   0   0   0   0   0   0   0   6   0   0 149 178 164 157 152 150
149 150 154 156 161 165 166 169 173 168 172 166 158 159 163 172 173 164 165 171 166 156 157 158
161 167 152 145 149 146 146 155 159 151 150 158 146 145 134 133 125 108  94  82  67  52  41  28
 20  14   7   3   4   4   4   5   5   3   0   0   0   0   0   0   0   0   0   0   0   0   0   0
  0   0   0   0
  0   0   0   0   0   0   0   0   0   0   0   0   0   0   0   6   0   0 146 174 159 152 148 150
151 150 156 165 164 163 154 166 167 161 167 167 158 159 163 164 171 179 177 174 167 154 157 161
159 168 157 151 153 151 148 146 152 152 151 162 151 144 142 137 131 119  96  86  70  54  42  30
 21  14   8   4   4   5   4   4   5   3   0   0   0   0   0   0   0   0   0   0   0   0   0   0
  0   0   0   0
  0   0   0   0   0   0   0   0   0   0   0   0   0   0   0   6   0   0 145 171 154 149 148 147
150 152 154 161 162 157 155 166 172 162 160 170 170 170 165 161 170 175 169 172 179 161 161 159
155 159 155 157 153 152 156 147 143 147 154 158 153 144 142 138 141 134 108  93  70  55  44  32
 23  16   9   4   4   5   4   4   5   3   0   0   0   0   0   0   0   0   0   0   0   0   0   0
  0   0   0   0
  0   0   0   0   0   0   0   0   0   0   0   0   0   0   0   6   0   0 144 172 151 145 144 146
146 147 154 159 158 154 155 165 175 172 163 164 172 173 173 170 159 165 167 164 178 166 158 160
160 153 151 157 157 152 150 147 150 149 147 155 157 149 144 144 148 141 119  95  74  59  46  33
 24  17  10   4   4   4   4   4   5   3   0   0   0   0   0   0   0   0   0   0   0   0   0   0
  0   0   0   0
  0   0   0   0   0   0   0   0   0   0   0   0   0   0   0   5   0   0 142 171 157 153 148 146
147 148 151 156 156 158 159 163 167 168 161 157 163 164 173 172 157 170 176 159 163 171 165 161
166 157 152 159 167 159 154 152 152 152 141 144 163 160 148 161 154 141 121  92  77  61  48  35
 24  17  11   4   4   4   4   4   5   3   0   0   0   0   0   0   0   0   0   0   0   0   0   0
  0   0   0   0
  0   0   0   0   0   0   0   0   0   0   0   0   0   0   0   5   0   0 139 164 148 150 150 148
149 149 150 154 161 166 162 165 168 162 161 162 159 162 174 174 168 170 178 168 160 170 170 162
164 167 168 172 174 161 155 167 163 152 143 142 154 157 149 157 152 144 123  97  76  61  49  36
 25  18  12   5   4   4   4   4   5   3   0   0   0   0   0   0   0   0   0   0   0   0   0   0
  0   0   0   0
  0   0   0   0   0   0   0   0   0   0   0   0   0   0   0   5   0   0 137 161 150 148 146 147
148 150 151 156 162 163 163 171 181 174 163 159 159 164 175 177 173 177 182 175 170 175 183 173
164 174 178 184 180 161 150 157 166 165 153 146 146 150 158 155 153 158 132  99  81  65  50  38
 27  19  13   5   4   4   4   4   5   3   0   0   0   0   0   0   0   0   0   0   0   0   0   0
  0   0   0   0
  0   0   0   0   0   0   0   0   0   0   0   0   0   0   0   5   0   0 132 160 153 153 151 148
149 151 150 155 160 157 158 167 178 181 168 160 161 165 178 182 176 186 182 164 166 176 191 193
177 166 163 178 180 175 176 163 167 171 157 145 150 158 161 157 154 155 128  99  83  66  55  40
 29  20  14   6   4   4   4   4   5   3   0   0   0   0   0   0   0   0   0   0   0   0   0   0
  0   0   0   0
  0   0   0   0   0   0   0   0   0   0   0   0   0   0   0   4   0   0 127 158 151 151 154 153
150 152 151 153 160 162 161 161 165 171 173 174 174 169 179 188 181 178 176 168 167 166 180 193
184 168 157 170 179 175 188 183 176 173 152 150 157 164 162 155 159 147 126  99  84  69  55  42
 30  21  15   7   3   4   4   4   5   3   0   0   0   0   0   0   0   0   0   0   0   0   0   0
  0   0   0   0
  0   0   0   0   0   0   0   0   0   0   0   0   0   0   0   4   0   0 127 156 150 152 152 152
152 151 151 151 157 166 164 163 161 161 169 179 184 172 174 181 174 169 171 174 173 164 167 177
176 170 164 167 177 182 191 196 177 165 159 151 159 170 163 150 159 153 123 103  97  72  55  45
 31  22  16   7   3   4   4   4   5   3   0   0   0   0   0   0   0   0   0   0   0   0   0   0
  0   0   0   0
  0   0   0   0   0   0   0   0   0   0   0   0   0   0   0   4   0   0 127 159 150 148 149 150
151 151 152 153 153 159 159 162 165 162 166 175 180 177 178 172 166 170 171 167 169 167 167 176
171 167 169 161 166 188 203 204 184 165 162 156 166 172 169 155 161 149 118 109 103  77  57  46
 33  23  17   7   3   4   4   4   5   3   0   0   0   0   0   0   0   0   0   0   0   0   0   0
  0   0   0   0
  0   0   0   0   0   0   0   0   0   0   0   0   0   0   0   4   0   0 126 157 149 148 148 148
150 152 154 158 157 154 159 164 167 174 178 175 168 165 176 178 167 162 157 158 163 165 163 177
179 171 176 171 168 186 201 201 186 178 175 169 171 168 166 162 157 147 122 109  97  76  59  47
 34  24  17   8   3   4   4   4   5   3   0   0   0   0   0   0   0   0   0   0   0   0   0   0
  0   0   0   0
  0   0   0   0   0   0   0   0   0   0   0   0   0   0   0   4   0   0 126 154 147 148 149 148
148 151 153 159 162 159 160 161 169 180 181 176 179 172 172 185 171 159 160 164 177 182 173 174
179 178 181 184 184 191 203 207 196 186 188 178 168 168 165 153 149 155 129 101  92  73  60  48
 35  25  18   8   3   4   4   4   5   3   0   0   0   0   0   0   0   0   0   0   0   0   0   0
  0   0   0   0
  0   0   0   0   0   0   0   0   0   0   0   0   0   0   0   4   0   0 122 150 144 144 145 147
148 149 149 154 163 162 159 157 160 165 172 179 183 188 183 177 169 159 166 175 183 187 179 173
178 181 179 180 189 198 205 209 202 196 196 184 168 157 150 141 145 150 126 101  90  72  61  50
 36  26  19   8   3   4   4   4   5   3   0   0   0   0   0   0   0   0   0   0   0   0   0   0
  0   0   0   0
  0   0   0   0   0   0   0   0   0   0   0   0   0   0   0   4   0   0 126 152 142 144 145 145
147 149 151 152 157 165 165 166 164 158 166 171 169 179 186 179 175 168 164 170 179 185 181 182
183 183 183 179 170 193 205 196 185 193 193 183 168 147 144 142 143 143 125 106  96  78  62  49
 36  26  20   9   3   4   4   4   5   3   0   0   0   0   0   0   0   0   0   0   0   0   0   0
  0   0   0   0
  0   0   0   0   0   0   0   0   0   0   0   0   0   0   0   4   0   0 131 160 148 146 146 147
148 149 151 152 157 167 169 162 165 165 166 168 167 173 187 188 179 177 180 173 174 184 183 185
183 188 186 184 168 173 193 197 183 175 171 175 166 148 150 150 134 137 139 110  96  80  64  48
 35  25  19   8   3   4   4   4   4   3   0   0   0   0   0   0   0   0   0   0   0   0   0   0
  0   0   0   0
  0   0   0   0   0   0   0   0   0   0   0   0   0   0   0   4   0   0 125 156 150 149 146 147
152 151 153 156 161 170 173 164 162 163 162 165 165 171 178 187 182 166 179 181 170 171 173 172
171 179 186 184 179 171 182 192 195 184 171 182 171 147 149 148 130 125 133 114  93  81  64  47
 39  30  20   6   3   4   4   4   4   3   0   0   0   0   0   0   0   0   0   0   0   0   0   0
  0   0   0   0
  0   0   0   0   0   0   0   0   0   0   0   0   0   0   0   4   0   0 124 152 146 148 149 149
150 151 155 158 158 167 174 173 174 174 173 171 173 183 176 177 184 174 173 177 174 173 172 171
170 173 180 183 189 188 188 190 196 194 185 197 181 146 137 142 142 133 130 123  92  83  64  48
 40  31  18   5   3   4   4   4   4   3   0   0   0   0   0   0   0   0   0   0   0   0   0   0
  0   0   0   0
  0   0   0   0   0   0   0   0   0   0   0   0   0   0   0   4   0   0 125 154 147 148 148 149
151 155 154 156 157 162 170 167 173 177 175 173 175 187 191 180 178 180 178 183 182 179 188 192
187 187 184 182 194 192 190 197 194 189 179 185 170 147 135 137 147 136 125 123  92  82  68  51
 38  28  17   5   3   4   4   4   4   3   0   0   0   0   0   0   0   0   0   0   0   0   0   0
  0   0   0   0
  0   0   0   0   0   0   0   0   0   0   0   0   0   0   0   4   0   0 126 154 148 150 150 150
148 151 151 154 156 156 168 172 176 180 172 167 171 175 181 185 186 185 171 175 187 178 180 190
194 195 192 195 200 197 186 193 191 187 183 173 159 141 138 139 145 138 125 123  92  77  63  49
 35  26  18   3   4   4   4   4   4   3   0   0   0   0   0   0   0   0   0   0   0   0   0   0
  0   0   0   0
  0   0   0   0   0   0   0   0   0   0   0   0   0   0   0   4   0   0 130 159 149 151 151 152
152 150 151 151 157 158 162 173 175 175 173 167 169 172 172 181 188 197 194 179 179 179 177 180
191 193 189 199 198 196 192 188 185 183 186 170 151 135 139 136 129 132 125 124  94  69  58  45
 32  26  16   3   4   4   4   4   4   3   0   0   0   0   0   0   0   0   0   0   0   0   0   0
  0   0   0   0
  0   0   0   0   0   0   0   0   0   0   0   0   0   0   0   4   0   0 129 161 158 157 152 152
154 154 153 153 154 158 158 162 167 168 170 171 177 183 180 176 176 187 196 193 189 189 185 186
192 197 194 192 192 194 200 197 188 186 185 172 157 138 128 133 139 128 122 111  90  65  57  43
 32  25  13   2   4   4   4   4   4   3   0   0   0   0   0   0   0   0   0   0   0   0   0   0
  0   0   0   0
  0   0   0   0   0   0   0   0   0   0   0   0   0   0   0   4   0   0 127 156 153 160 158 156
155 154 155 155 152 153 156 157 159 163 172 178 184 186 189 178 169 175 183 182 188 194 185 189
196 198 201 195 191 196 201 202 195 195 195 182 166 141 125 134 145 134 122  92  74  64  53  42
 31  24   9   2   4   4   4   4   4   3   0   0   0   0   0   0   0   0   0   0   0   0   0   0
  0   0   0   0
  0   0   0   0   0   0   0   0   0   0   0   0   0   0   0   4   0   0 127 156 149 151 155 156
156 155 155 157 153 150 155 165 167 166 166 173 182 175 177 177 177 182 186 184 189 197 194 195
195 196 200 202 195 200 212 203 190 193 203 188 165 148 142 137 126 125 106  81  73  63  54  41
 32  24   6   3   4   4   4   4   4   3   0   0   0   0   0   0   0   0   0   0   0   0   0   0
  0   0   0   0
  0   0   0   0   0   0   0   0   0   0   0   0   0   0   0   4   0   0 128 156 148 149 148 150
153 154 155 159 159 155 157 168 170 164 159 163 172 178 177 176 174 180 193 196 188 183 190 198
196 201 203 204 196 199 209 208 190 191 205 187 162 161 163 150 118 112 108 100  91  71  56  45
 38  24   2   4   4   4   4   4   4   3   0   0   0   0   0   0   0   0   0   0   0   0   0   0
  0   0   0   0
  0   0   0   0   0   0   0   0   0   0   0   0   0   0   0   4   0   0 126 155 148 149 149 150
149 151 152 156 158 158 159 156 159 160 158 157 161 169 181 187 179 178 193 201 195 186 181 189
192 200 197 197 197 197 203 201 185 185 198 188 179 187 181 157 131 118 122 113  98  70  52  49
 46  23   0   5   3   4   4   4   4   3   0   0   0   0   0   0   0   0   0   0   0   0   0   0
  0   0   0   0
  0   0   0   0   0   0   0   0   0   0   0   0   0   0   0   5   0   0 132 159 148 150 150 151
150 150 152 155 158 160 157 153 156 158 158 157 160 164 166 167 170 170 165 179 195 198 198 194
189 196 195 184 187 195 202 205 193 188 194 192 190 186 184 169 137 124 120 117  91  60  53  52
 50  12   0   5   3   4   4   4   4   3   0   0   0   0   0   0   0   0   0   0   0   0   0   0
  0   0   0   0
  0   0   0   0   0   0   0   0   0   0   0   0   0   0   0   4   0   0 131 163 154 153 152 153
153 152 154 157 161 160 155 156 160 160 158 160 160 162 166 165 167 172 167 166 181 191 200 201
194 193 201 198 194 191 192 202 208 209 199 196 198 172 163 173 140 115 115 116  80  56  52  57
 43   0   5   4   3   4   4   3   4   3   0   0   0   0   0   0   0   0   0   0   0   0   0   0
  0   0   0   0
  0   0   0   0   0   0   0   0   0   0   0   0   0   0   0   4   0   0 128 158 154 159 156 152
154 152 150 156 162 165 160 158 163 163 157 161 160 156 165 174 173 172 171 169 171 178 188 200
202 196 196 206 211 198 189 195 201 207 196 178 175 157 144 145 131 120 112  96  70  52  49  52
 23   0   5   3   3   4   3   3   4   3   0   0   0   0   0   0   0   0   0   0   0   0   0   0
  0   0   0   0
  0   0   0   0   0   0   0   0   0   0   0   0   0   0   0   5   0   0 132 160 150 155 156 156
159 160 156 156 158 165 166 164 168 165 159 156 159 159 162 173 180 180 176 177 181 190 198 204
207 202 200 206 208 196 188 182 183 185 183 168 157 142 127 114 110 105  86  72  59  45  38  28
  4   3   4   3   3   4   3   3   4   3   0   0   0   0   0   0   0   0   0   0   0   0   0   0
  0   0   0   0
  0   0   0   0   0   0   0   0   0   0   0   0   0   0   0   4   0   0 133 164 153 151 151 153
158 163 164 163 159 157 165 168 171 170 162 161 164 162 159 165 176 184 192 195 196 197 196 202
203 196 192 196 199 192 183 172 178 184 180 163 152 140 115 113 107  91  72  59  55  43  23  14
  4   3   4   3   3   4   4   3   4   3   0   0   0   0   0   0   0   0   0   0   0   0   0   0
  0   0   0   0
  0   0   0   0   0   0   0   0   0   0   0   0   0   0   0   4   0   0 132 165 156 153 151 150
151 155 159 163 163 161 165 170 168 170 171 168 167 169 167 165 167 173 181 196 209 211 201 200
198 195 197 198 204 205 183 163 166 171 168 150 134 125 110 104  96  82  68  58  52  32  18  12
  2   4   4   3   3   4   4   3   4   3   0   0   0   0   0   0   0   0   0   0   0   0   0   0
  0   0   0   0
  0   0   0   0   0   0   0   0   0   0   0   0   0   0   0   5   0   0 135 165 157 156 153 152
148 150 152 158 162 166 171 173 173 173 172 180 180 179 180 173 171 168 172 186 201 211 215 207
201 204 210 210 211 210 183 165 164 172 174 147 133 126 109 110  98  75  61  51  35  18  16   5
  3   4   4   4   4   3   3   4   4   3   0   0   0   0   0   0   0   0   0   0   0   0   0   0
  0   0   0   0
  0   0   0   0   0   0   0   0   0   0   0   0   0   0   0   5   0   0 138 170 159 159 154 151
148 149 151 151 157 164 169 176 178 181 184 188 188 183 181 176 177 179 181 182 184 193 199 197
199 201 201 203 201 199 184 176 165 160 148 134 129 123 107  98  81  61  49  42  23  18  11   2
  3   3   4   3   3   4   4   3   4   3   0   0   0   0   0   0   0   0   0   0   0   0   0   0
  0   0   0   0
  0   0   0   0   0   0   0   0   0   0   0   0   0   0   0   5   0   0 133 169 163 163 160 154
149 147 148 149 150 159 170 184 182 177 182 191 189 179 175 178 186 192 185 182 182 184 175 173
177 181 188 186 173 175 179 175 159 151 144 137 127 111  86  75  64  45  39  30  19  16   6   3
  3   3   4   3   3   4   3   3   4   3   0   0   0   0   0   0   0   0   0   0   0   0   0   0
  0   0   0   0
  0   0   0   0   0   0   0   0   0   0   0   0   0   0   0   5   0   0 133 165 162 166 163 159
155 151 149 149 151 153 160 174 186 188 182 188 188 181 185 183 178 175 188 190 182 184 178 175
176 173 169 168 168 178 187 190 178 163 150 136 110  86  79  70  50  42  35  23  18  12   3   3
  3   4   4   4   4   4   3   3   4   3   0   0   0   0   0   0   0   0   0   0   0   0   0   0
  0   0   0   0
  0   0   0   0   0   0   0   0   0   0   0   0   0   0   0   5   0   0 135 166 158 164 164 160
157 156 155 153 151 152 154 157 172 185 189 184 179 180 184 179 171 169 181 189 183 183 183 181
174 169 166 165 169 172 177 175 155 146 138 120  97  79  69  56  48  41  29  20  15   6   3   4
  3   3   3   3   3   4   4   3   4   3   0   0   0   0   0   0   0   0   0   0   0   0   0   0
  0   0   0   0
  0   0   0   0   0   0   0   0   0   0   0   0   0   0   0   5   0   0 134 166 160 162 164 166
162 158 157 157 155 153 153 152 161 169 174 176 171 171 182 182 173 178 175 174 187 190 178 181
181 170 168 171 165 153 148 137 131 134 129 113  89  68  59  55  47  35  23  17  10   3   3   3
  3   3   3   3   3   3   3   3   4   3   0   0   0   0   0   0   0   0   0   0   0   0   0   0
  0   0   0   0
  0   0   0   0   0   0   0   0   0   0   0   0   0   0   0   5   0   0 135 167 160 165 165 163
164 164 161 156 153 152 153 152 160 168 168 167 165 163 173 183 178 174 173 165 178 193 184 178
185 181 180 183 168 147 133 132 128 120 121 103  78  65  62  54  37  25  19  14   5   3   3   3
  3   3   3   3   3   3   3   3   4   3   0   0   0   0   0   0   0   0   0   0   0   0   0   0
  0   0   0   0
  0   0   0   0   0   0   0   0   0   0   0   0   0   0   0   5   0   0 134 167 158 162 166 161
157 161 161 156 152 151 150 151 156 165 172 168 166 166 167 168 167 170 174 167 167 171 183 181
171 172 169 172 165 153 140 131 124 117 101  80  70  63  56  41  29  22  16   8   3   4   3   4
  3   4   4   4   3   3   3   4   5   3   0   0   0   0   0   0   0   0   0   0   0   0   0   0
  0   0   0   0
  0   0   0   0   0   0   0   0   0   0   0   0   0   0   0   4   0   0 131 164 156 160 162 167
162 157 156 156 156 156 154 155 159 164 168 168 166 167 166 165 165 165 171 167 157 161 173 181
175 162 155 152 150 156 139 117 111 107  90  74  67  54  42  33  24  18  11   4   3   4   3   3
  4   4   4   4   4   4   4   4   4   3   0   0   0   0   0   0   0   0   0   0   0   0   0   0
  0   0   0   0
  0   0   0   0   0   0   0   0   0   0   0   0   0   0   0   4   0   0 126 155 151 154 154 159
167 163 156 151 153 154 154 156 155 163 167 167 164 162 164 165 163 156 155 157 158 166 170 173
167 159 154 151 148 138 122 111 108 100  85  75  58  42  34  26  19  14   6   3   4   3   4   4
  3   4   4   3   4   4   4   4   4   3   0   0   0   0   0   0   0   0   0   0   0   0   0   0
  0   0   0   0
  0   0   0   0   0   0   0   0   0   0   0   0   0   0   0   5   0   0 130 154 145 146 147 149
155 161 161 156 151 150 147 150 149 151 161 165 161 161 160 156 155 151 153 157 157 159 165 169
161 155 148 150 156 141 128 119 110  92  74  60  43  35  28  21  16   8   3   4   4   3   4   5
  3   4   4   4   4   4   4   4   5   3   0   0   0   0   0   0   0   0   0   0   0   0   0   0
  0   0   0   0
  0   0   0   0   0   0   0   0   0   0   0   0   0   0   0   4   0   0 130 159 144 144 145 147
144 148 154 158 159 154 149 146 146 146 149 153 157 158 159 159 158 162 161 154 154 154 154 153
144 147 147 147 151 141 123 104  85  70  55  43  36  29  22  17  10   3   3   4   4   4   4   4
  3   4   4   4   4   4   4   4   4   3   0   0   0   0   0   0   0   0   0   0   0   0   0   0
  0   0   0   0
  0   0   0   0   0   0   0   0   0   0   0   0   0   0   0   4   0   0 122 151 142 141 141 145
143 142 147 149 155 156 155 152 149 149 148 148 146 146 151 153 155 161 166 159 156 153 151 145
136 145 147 140 129 108  91  77  65  55  46  37  30  23  17  11   4   3   3   3   4   4   4   4
  3   4   4   4   4   4   4   4   4   3   0   0   0   0   0   0   0   0   0   0   0   0   0   0
  0   0   0   0
  0   0   0   0   0   0   0   0   0   0   0   0   0   0   0   4   0   0 123 144 135 138 137 139
140 139 142 143 144 147 153 152 148 146 144 145 144 141 142 144 145 150 155 161 158 153 149 141
137 136 130 117 108  90  78  66  54  45  38  29  22  17  12   5   3   3   3   3   4   3   3   4
  4   4   4   3   4   4   3   3   4   2   0   0   0   0   0   0   0   0   0   0   0   0   0   0
  0   0   0   0
  0   0   0   0   0   0   0   0   0   0   0   0   0   0   0   4   0   0 121 143 130 132 132 133
133 135 137 138 140 138 144 148 145 143 139 137 140 144 146 147 152 152 146 144 136 142 151 139
129 122 112  95  85  76  65  53  45  36  28  22  17  12   5   3   3   3   3   3   3   3   3   4
  4   4   4   3   3   3   2   2   3   2   0   0   0   0   0   0   0   0   0   0   0   0   0   0
  0   0   0   0
  0   0   0   0   0   0   0   0   0   0   0   0   0   0   0   3   0   0 113 138 126 127 127 128
127 129 134 131 131 133 132 138 143 138 134 132 130 131 132 130 142 142 135 130 125 123 119 109
104  99  93  79  67  61  52  43  34  27  21  16  11   5   3   3   3   3   3   3   3   3   4   4
  3   4   4   3   4   4   3   3   4   3   0   0   0   0   0   0   0   0   0   0   0   0   0   0
  0   0   0   0
  0   0   0   0   0   0   0   0   0   0   0   0   0   0   0   2   0   0  99 120 113 118 120 123
121 124 129 126 123 121 125 130 131 128 125 123 121 121 119 115 117 113 111 109 107 100  90  88
 86  82  80  70  57  50  40  32  24  19  16  11   5   3   4   3   3   3   3   3   3   3   4   4
  4   4   4   4   4   4   4   4   5   3   0   0   0   0   0   0   0   0   0   0   0   0   0   0
  0   0   0   0
  0   0   0   0   0   0   0   0   0   0   0   0   0   0   0   2   0   0  86 105 106 113 108 110
113 116 117 118 118 115 113 117 124 123 115 113 113 112 109 106 106 101  97  93  89  85  82  78
 70  67  63  54  45  37  28  22  18  14   9   4   3   4   3   3   3   3   3   3   3   3   3   4
  3   4   4   3   3   4   4   4   4   3   0   0   0   0   0   0   0   0   0   0   0   0   0   0
  0   0   0   0
  0   0   0   0   0   0   0   0   0   0   0   0   0   0   0   2   0   0  81 101 105 110 104  98
101 105 101 105 107 105 102 101 108 114 107 100  98  98  97  94  92  87  84  82  78  72  66  62
 59  55  47  38  30  25  20  15  12   7   4   3   4   3   3   3   3   3   3   3   3   3   3   4
  3   3   3   3   3   4   4   4   4   3   0   0   0   0   0   0   0   0   0   0   0   0   0   0
  0   0   0   0
  0   0   0   0   0   0   0   0   0   0   0   0   0   0   0   1   0   0  73  89  86  90  90  88
 89  91  89  90  92  93  92  91  91  95  99  94  88  86  85  82  80  77  73  69  64  59  56  51
 47  41  33  27  22  17  14  10   5   3   4   4   3   3   3   3   3   3   3   4   4   4   4   4
  4   4   3   3   3   3   4   3   4   3   0   0   0   0   0   0   0   0   0   0   0   0   0   0
  0   0   0   0
  0   0   0   0   0   0   0   0   0   0   0   0   0   0   0   1   0   0  53  71  68  69  71  74
 76  73  73  73  75  78  79  79  81  81  87  85  81  76  72  68  65  63  61  56  53  49  45  39
 33  27  26  21  15  12   8   4   4   4   4   4   4   4   3   4   4   3   3   4   4   4   4   4
  4   4   4   4   4   4   4   4   4   3   0   0   0   0   0   0   0   0   0   0   0   0   0   0
  0   0   0   0
  0   0   0   0   0   0   0   0   0   0   0   0   0   0   0   0   0   0  40  55  58  58  58  60
 61  62  60  59  61  62  63  62  64  64  68  65  63  64  61  57  54  53  49  44  41  36  31  27
 23  20  20  15   8   6   4   4   4   4   4   4   4   4   4   4   4   4   4   4   4   4   4   4
  4   5   6   4   4   4   4   4   5   3   0   0   0   0   0   0   0   0   0   0   0   0   0   0
  0   0   0   0
  0   0   0   0   0   0   0   0   0   0   0   0   0   0   0   0   0   0  32  41  43  47  48  46
 46  51  52  49  49  48  48  48  47  48  49  48  47  48  46  44  42  41  36  31  28  25  21  20
 17  14   9   6   4   4   5   5   4   4   4   4   4   4   4   4   4   4   4   4   4   4   4   4
  7   4   0   5   4   5   5   4   5   3   0   0   0   0   0   0   0   0   0   0   0   0   0   0
  0   0   0   0
  0   0   0   0   0   0   0   0   0   0   0   0   0   0   0   0   0   0  22  31  32  35  37  36
 34  37  39  39  39  37  36  36  35  35  36  35  34  34  31  30  28  25  23  21  19  17  16  13
 10   6   5   4   4   4   5   4   4   4   4   4   4   4   4   4   4   4   4   4   4   4   4   5
  0   7  19   3   4   5   5   4   5   3   0   0   0   0   0   0   0   0   0   0   0   0   0   0
  0   0   0   0
  0   0   0   0   0   0   0   0   0   0   0   0   0   0   0   0   0   0  15  22  24  25  25  26
 26  26  26  26  27  27  26  26  26  25  25  25  25  24  21  21  19  17  16  15  13  11   9   6
  4   4   4   4   4   4   4   4   4   4   4   4   4   4   4   4   4   4   4   4   4   4   3   6
 29  21  20   4   4   4   4   5   5   3   0   0   0   0   0   0   0   0   0   0   0   0   0   0
  0   0   0   0
