P2
# 8-bit pgm gray
100 100
255
  0   0   0   0   0   0   0   0   0   0   0   0   0   0   0  10   0   0 194 241 228 227 226 225
224 223 222 221 218 214 206 189 181 173 156 139 128 114 104  87  73  61  47  36  27  20  17  12
 10   8   7   5   3   3   3   3   3   3   3   3   3   3   4   4   4   4   4   4   4   4   4   4
  4   4   4   4   4   4   6   7  10   9   0   0   0   0   0   0   0   0   0   0   0   0   0   0
  0   0   0   0
  0   0   0   0   0   0   0   0   0   0   0   0   0   0   0  10   0   0 192 239 228 226 225 225
224 223 222 219 216 212 204 190 183 168 153 145 135 117 107  91  77  64  50  39  30  22  17  13
 11   9   7   5   3   3   3   3   3   2   3   3   3   3   3   3   3   3   3   3   3   3   3   3
  3   3   3   3   5   0  30  63  91  84   0   0   2   0   0   0   0   0   0   0   0   0   0   0
  0   0   0   0
  0   0   0   0   0   0   0   0   0   0   0   0   0   0   0  10   0   0 191 236 225 225 224 225
223 222 220 217 214 211 198 184 171 158 155 149 137 121 109  96  83  70  54  41  33  24  18  14
 11   9   7   5   3   3   3   3   2   2   2   2   2   2   2   3   3   3   3   3   3   3   3   3
  3   3   3   3   7   0  41  94 136 121   0   0   4   0   0   0   0   0   0   0   0   0   0   0
  0   0   0   0
  0   0   0   0   0   0   0   0   0   0   0   0   0   0   0  10   0   0 190 234 225 226 224 224
222 222 220 218 214 207 193 181 166 159 158 151 136 125 112  99  91  75  60  47  34  26  19  15
 12   9   7   6   3   2   3   2   2   2   2   2   2   2   2   2   3   3   3   3   3   3   3   3
  3   2   3   3   8   0  44 107 157 137   0   0   5   0   0   0   0   0   0   0   0   0   0   0
  0   0   0   0
  0   0   0   0   0   0   0   0   0   0   0   0   0   0   0  10   0   0 187 232 223 224 223 223
223 222 219 215 212 202 188 177 165 158 156 147 134 123 114 103  90  79  65  50  36  28  21  16
 12   9   7   6   3   2   2   2   2   2   2   2   2   2   2   2   2   2   2   3   3   3   3   2
  2   2   2   2   8   0  45 114 170 153   0   0   7   0   0   0   0   0   0   0   0   0   0   0
  0   0   0   0
  0   0   0   0   0   0   0   0   0   0   0   0   0   0   0  10   0   0 186 229 220 223 223 222
222 219 217 213 210 201 187 174 164 160 153 145 137 130 122 108  91  81  69  52  39  31  23  17
 13  10   8   6   4   2   2   2   1   1   2   2   2   2   2   2   2   2   2   2   2   2   2   2
  2   2   2   2   8   0  45 120 181 164   0   0   8   0   0   0   0   0   0   0   0   0   0   0
  0   0   0   0
  0   0   0   0   0   0   0   0   0   0   0   0   0   0   0  10   0   0 187 230 220 222 221 220
220 218 216 213 209 198 187 176 165 162 157 151 143 132 120 108  95  82  71  55  43  34  25  18
 13  10   8   6   4   2   1   1   1   1   1   1   1   1   1   2   2   2   2   2   2   2   2   2
  2   2   2   2   8   0  44 122 187 173   0   0   9   0   0   0   0   0   0   0   0   0   0   0
  0   0   0   0
  0   0   0   0   0   0   0   0   0   0   0   0   0   0   0   9   0   0 185 229 219 221 219 219
219 217 215 212 205 193 184 170 156 156 155 150 142 132 121 109 100  86  73  60  47  36  26  20
 15  11   9   7   4   2   1   1   1   1   1   1   1   1   1   1   2   1   1   1   1   1   1   1
  1   1   2   1   8   0  43 122 187 173   0   0   9   0   0   0   0   0   0   0   0   0   0   0
  0   0   0   0
  0   0   0   0   0   0   0   0   0   0   0   0   0   0   0   9   0   0 184 227 218 220 221 221
220 217 213 208 200 188 178 164 154 151 149 146 145 137 126 116 105  92  78  62  48  36  28  21
 17  12   9   7   5   2   1   1   1   1   1   1   1   1   1   1   1   1   1   1   1   1   1   1
  1   1   1   1   7   0  41 119 178 157   0   0   7   0   0   0   0   0   0   0   0   0   0   0
  0   0   0   0
  0   0   0   0   0   0   0   0   0   0   0   0   0   0   0  10   0   0 186 229 218 220 220 219
219 218 213 205 195 187 179 163 158 154 147 144 144 139 128 118 106  95  84  66  50  40  30  23
 18  13  10   7   5   2   1   0   1   1   1   0   1   1   1   1   1   1   1   1   1   1   1   1
  1   1   1   1   6   0  38 115 169 141   0   0   5   0   0   0   0   0   0   0   0   0   0   0
  0   0   0   0
  0   0   0   0   0   0   0   0   0   0   0   0   0   0   0  10   0   0 186 229 218 219 218 216
216 216 213 205 193 186 179 161 155 153 148 145 145 139 130 118 108  96  89  71  57  46  34  26
 19  14  11   7   6   3   0   0   0   0   0   0   0   0   0   0   1   1   1   1   1   1   1   1
  1   1   1   1   6   0  36 110 162 137   0   0   5   0   0   0   0   0   0   0   0   0   0   0
  0   0   0   0
  0   0   0   0   0   0   0   0   0   0   0   0   0   0   0  10   0   0 185 227 217 218 217 217
215 213 210 205 194 187 179 168 165 157 151 150 146 140 134 123 111  97  89  75  60  48  37  29
 22  16  12   8   6   3   0   0   0   0   0   0   0   0   0   0   1   1   1   1   1   1   1   1
  1   1   1   1   6   0  32 108 135  98   0   0   2   0   0   0   0   0   0   0   0   0   0   0
  0   0   0   0
  0   0   0   0   0   0   0   0   0   0   0   0   0   0   0  10   0   0 188 229 218 218 216 215
213 212 210 200 193 189 176 169 168 161 157 153 148 144 136 126 114 105  94  81  66  54  42  32
 25  19  14  10   7   4   1   0   0   0   0   0   0   0   0   0   0   0   0   1   1   1   1   1
  1   1   1   1   5   0  30 101 142 124   0   0   4   0   0   0   0   0   0   0   0   0   0   0
  0   0   0   0
  0   0   0   0   0   0   0   0   0   0   0   0   0   0   0  10   0   0 192 233 219 216 214 214
212 212 207 197 189 184 171 163 164 161 154 151 147 142 135 129 120 112 101  88  74  57  47  37
 28  21  16  11   8   6   2   0   0   0   0   0   0   0   0   0   0   1   1   1   1   1   1   1
  1   1   1   1   4   0  28  88 146 140   0   0   6   0   0   0   0   0   0   0   0   0   0   0
  0   0   0   0
  0   0   0   0   0   0   0   0   0   0   0   0   0   0   0  10   0   0 189 233 223 222 219 215
211 209 201 194 188 177 165 165 165 162 154 150 148 147 141 133 121 113 104  95  79  60  50  42
 32  24  18  13   9   6   3   0   0   0   0   0   0   0   0   0   0   0   0   0   0   0   0   1
  0   0   1   0   3   0  22  65  99  92   0   0   2   0   0   0   0   0   0   0   0   0   0   0
  0   0   0   0
  0   0   0   0   0   0   0   0   0   0   0   0   0   0   0  10   0   0 187 231 224 227 225 219
212 207 198 191 186 171 163 161 158 157 153 153 151 149 145 136 124 116 105  98  85  67  55  43
 35  27  20  14  10   7   5   1   0   0   0   0   0   0   0   0   0   0   0   0   0   0   0   1
  0   0   0   0   1   0   7  21  24  18   0   0   0   0   0   0   0   0   0   0   0   0   0   0
  0   0   0   0
  0   0   0   0   0   0   0   0   0   0   0   0   0   0   0   9   0   0 187 231 223 226 225 222
219 208 198 190 181 166 166 166 160 160 155 153 150 144 142 138 130 124 117 103  90  74  61  50
 39  30  22  16  12   8   6   3   0   0   0   0   0   0   0   0   0   0   0   0   0   0   0   0
  0   0   0   0   0   1   0   0   0   0   0   0   0   0   0   0   0   0   0   0   0   0   0   0
  0   0   0   0
  0   0   0   0   0   0   0   0   0   0   0   0   0   0   0   9   0   0 183 226 218 223 223 223
220 206 196 189 178 166 165 164 162 159 154 152 152 147 142 139 131 128 122 108  96  80  66  56
 45  35  26  19  13   9   6   4   1   0   0   0   0   0   0   0   0   0   0   0   0   0   0   1
  0   0   0   0   0   0   1   2   5   4   0   0   0   0   0   0   0   0   0   0   0   0   0   0
  0   0   0   0
  0   0   0   0   0   0   0   0   0   0   0   0   0   0   0   9   0   0 181 221 211 220 223 223
218 201 192 188 174 169 169 163 163 162 165 163 156 151 148 141 137 134 123 114 105  89  74  61
 52  41  30  20  13  10   7   5   2   0   0   0   0   0   0   0   0   0   0   0   0   0   0   1
  0   0   0   0   0   1   0   0   1   1   0   0   0   0   0   0   0   0   0   0   0   0   0   0
  0   0   0   0
  0   0   0   0   0   0   0   0   0   0   0   0   0   0   0   9   0   0 181 220 211 214 216 217
208 195 195 189 168 168 169 165 159 158 161 158 154 156 154 149 151 142 129 122 115  99  85  74
 61  47  34  22  15  11   8   6   4   1   0   0   0   0   0   0   0   0   0   0   0   0   0   0
  0   0   0   0   0   0   1   1   1   1   0   0   0   0   0   0   0   0   0   0   0   0   0   0
  0   0   0   0
  0   0   0   0   0   0   0   0   0   0   0   0   0   0   0   9   0   0 182 222 211 211 211 207
202 195 193 183 171 168 164 162 162 160 158 158 158 158 156 158 157 144 136 129 124 114  98  82
 67  53  40  24  17  13  10   7   4   3   0   0   0   0   0   0   0   0   0   0   0   0   0   0
  0   0   0   0   0   0   0   1   1   1   0   0   0   0   0   0   0   0   0   0   0   0   0   0
  0   0   0   0
  0   0   0   0   0   0   0   0   0   0   0   0   0   0   0   9   0   0 180 222 211 210 210 203
197 193 185 175 176 166 161 162 161 162 161 157 159 161 159 162 155 146 141 138 135 125 105  88
 76  61  46  27  19  14  11   8   5   4   2   0   0   0   0   0   0   0   0   0   0   0   0   0
  0   0   0   0   0   0   0   0   1   1   0   0   0   0   0   0   0   0   0   0   0   0   0   0
  0   0   0   0
  0   0   0   0   0   0   0   0   0   0   0   0   0   0   0   9   0   0 179 221 210 211 207 200
193 190 181 168 170 172 161 157 161 160 157 156 158 162 161 158 152 149 144 140 140 128 110  98
 86  68  52  33  21  17  13  10   7   4   3   2   1   0   0   0   0   0   0   0   0   0   0   0
  0   0   0   0   0   0   0   0   1   1   0   0   0   0   0   0   0   0   0   0   0   0   0   0
  0   0   0   0
  0   0   0   0   0   0   0   0   0   0   0   0   0   0   0   9   0   0 182 222 208 209 206 198
195 192 174 163 163 166 165 161 159 159 161 158 161 163 161 159 153 151 150 144 140 134 122 109
 96  76  60  36  24  20  16  12   8   5   3   5   8   0   0   0   0   0   0   0   0   0   0   0
  0   0   0   0   0   0   0   1   1   1   0   0   0   0   0   0   0   0   0   0   0   0   0   0
  0   0   0   0
  0   0   0   0   0   0   0   0   0   0   0   0   0   0   0   9   0   0 183 223 212 209 206 201
199 183 164 167 162 158 162 166 163 159 163 162 162 161 157 155 153 152 150 148 144 141 128 114
104  85  66  42  30  24  17  14  10   6   4   3   3   1   0   0   0   0   0   0   0   0   0   0
  0   0   0   0   0   0   0   0   1   1   0   0   0   0   0   0   0   0   0   0   0   0   0   0
  0   0   0   0
  0   0   0   0   0   0   0   0   0   0   0   0   0   0   0   9   0   0 181 224 214 211 203 204
196 172 164 165 160 157 159 166 166 161 162 161 161 158 157 153 154 154 151 148 152 144 129 121
113 102  77  51  39  30  21  17  12   8   5   3   2   1   0   0   0   0   0   0   0   0   0   0
  0   0   0   0   0   0   0   0   0   0   0   0   0   0   0   0   0   0   0   0   0   0   0   0
  0   0   0   0
  0   0   0   0   0   0   0   0   0   0   0   0   0   0   0   9   0   0 180 223 212 209 208 206
191 166 160 161 158 157 157 164 173 172 170 167 167 166 161 154 153 154 150 149 153 149 141 132
116 107  87  64  47  35  26  19  14  10   6   5   4   2   0   0   0   0   0   0   0   0   0   0
  0   0   0   0   0   0   0   0   0   1   0   0   0   0   0   0   0   0   0   0   0   0   0   0
  0   0   0   0
  0   0   0   0   0   0   0   0   0   0   0   0   0   0   0   9   0   0 181 222 208 208 210 202
182 167 161 160 160 159 161 162 166 175 176 177 176 169 159 157 160 158 156 153 154 156 146 136
120 108  90  72  55  42  32  24  18  12   8   6   4   3   2   0   0   0   0   0   0   0   0   0
  0   0   0   0   0   0   0   0   0   0   0   0   0   0   0   0   0   0   0   0   0   0   0   0
  0   0   0   0
  0   0   0   0   0   0   0   0   0   0   0   0   0   0   0   9   0   0 180 220 207 206 203 191
175 173 171 165 163 164 165 171 170 174 173 172 173 167 163 165 168 165 162 156 152 162 157 142
130 117  99  83  70  56  42  32  24  16  11   8   6   4   3   1   0   0   0   0   0   0   0   0
  0   0   0   0   0   0   0   0   0   0   0   0   0   0   0   0   0   0   0   0   0   0   0   0
  0   0   0   0
  0   0   0   0   0   0   0   0   0   0   0   0   0   0   0   9   0   0 178 215 203 201 197 175
168 170 175 176 174 167 171 181 183 183 176 174 179 177 170 167 173 170 161 156 157 163 156 144
135 125 113  96  86  65  54  42  28  20  14  10   7   5   4   3   1   0   0   0   0   0   0   0
  0   0   0   0   0   0   0   0   0   0   0   0   0   0   0   0   0   0   0   0   0   0   0   0
  0   0   0   0
  0   0   0   0   0   0   0   0   0   0   0   0   0   0   0   8   0   0 175 216 203 200 193 170
163 167 173 179 185 181 181 186 193 197 195 196 193 181 174 171 176 173 162 161 164 156 150 149
143 132 119 110 103  83  67  49  37  28  21  15  11   8   5   4   3   0   0   0   0   0   0   0
  0   0   0   0   0   0   0   0   0   0   0   0   0   0   0   0   0   0   0   0   0   0   0   0
  0   0   0   0
  0   0   0   0   0   0   0   0   0   0   0   0   0   0   0   9   0   0 177 217 202 199 184 166
161 160 170 175 186 191 185 195 208 209 210 217 216 204 200 188 185 182 180 174 168 165 163 160
152 141 132 126 119  99  74  60  50  38  28  21  15  10   7   5   4   2   0   0   0   0   0   0
  0   0   0   0   0   0   0   0   0   0   0   0   0   0   0   0   0   0   0   0   0   0   0   0
  0   0   0   0
  0   0   0   0   0   0   0   0   0   0   0   0   0   0   0   9   0   0 176 209 197 196 175 164
165 162 167 175 184 195 202 211 217 215 216 222 223 222 221 204 188 186 184 178 174 170 162 155
151 146 141 132 119 108  88  71  60  46  36  25  18  14  10   6   5   3   1   0   0   0   0   0
  0   0   0   0   0   0   0   0   0   0   0   0   0   0   0   0   0   0   0   0   0   0   0   0
  0   0   0   0
  0   0   0   0   0   0   0   0   0   0   0   0   0   0   0   8   0   0 174 209 199 189 172 169
170 168 169 172 184 205 215 213 218 221 222 223 224 225 224 218 203 188 178 178 167 158 155 151
151 151 145 134 122 114  99  78  68  54  45  36  26  19  14   9   6   5   3   0   0   0   0   0
  0   0   0   0   0   0   0   0   0   0   0   0   0   0   0   0   0   0   0   0   0   0   0   0
  0   0   0   0
  0   0   0   0   0   0   0   0   0   0   0   0   0   0   0   9   0   0 175 209 191 180 171 168
163 168 169 175 193 209 217 217 220 226 229 229 227 226 225 222 217 202 184 179 176 168 162 157
159 157 146 137 125 114 108  94  80  67  52  43  32  25  17  13  10   6   4   2   0   0   0   0
  0   0   0   0   0   0   0   0   0   0   0   0   0   0   0   0   0   0   0   0   0   0   0   0
  0   0   0   0
  0   0   0   0   0   0   0   0   0   0   0   0   0   0   0   8   0   0 171 204 182 174 174 172
170 171 173 184 198 207 215 222 225 227 230 232 231 229 227 225 222 211 192 182 183 182 173 170
172 166 155 145 133 121 111 105  93  77  66  52  38  29  21  15  12   8   5   4   1   0   0   0
  0   0   0   0   0   0   0   0   0   0   0   0   0   0   0   0   0   0   0   0   0   0   0   0
  0   0   0   0
  0   0   0   0   0   0   0   0   0   0   0   0   0   0   0   8   0   0 166 203 185 173 171 173
174 176 183 193 204 210 217 223 226 229 231 232 233 232 228 224 218 200 182 178 177 173 167 164
162 163 161 152 145 132 123 115 108  96  75  57  45  34  27  21  14  10   7   5   3   0   0   0
  0   0   0   0   0   0   0   0   0   0   0   0   0   0   0   0   0   0   0   0   0   0   0   0
  0   0   0   0
  0   0   0   0   0   0   0   0   0   0   0   0   0   0   0   7   0   0 163 200 181 169 165 169
170 179 187 200 212 216 222 225 227 230 230 229 230 230 227 221 208 188 172 170 174 168 160 157
156 153 151 148 146 140 133 124 115 109  90  72  54  43  34  24  18  13   9   6   4   1   0   0
  0   0   0   0   0   0   0   0   0   0   0   0   0   0   0   0   0   0   0   0   0   0   0   0
  0   0   0   0
  0   0   0   0   0   0   0   0   0   0   0   0   0   0   0   7   0   0 161 199 179 172 167 168
170 173 177 196 211 219 223 224 228 231 230 228 226 226 224 210 197 190 176 169 171 170 161 158
156 153 152 148 147 144 137 136 128 119 115  93  71  53  41  31  23  17  12   8   5   2   0   0
  0   0   0   0   0   0   0   0   0   0   0   0   0   0   0   0   0   0   0   0   0   0   0   0
  0   0   0   0
  0   0   0   0   0   0   0   0   0   0   0   0   0   0   0   7   0   0 161 199 179 170 168 169
170 169 177 197 215 222 225 225 227 229 228 226 225 223 218 202 188 185 177 174 171 168 162 158
157 154 150 146 144 142 139 134 131 127 123 102  87  73  53  37  29  23  17  12   7   4   1   0
  0   0   0   0   0   0   0   0   0   0   0   0   0   0   0   0   0   0   0   0   0   0   0   0
  0   0   0   0
  0   0   0   0   0   0   0   0   0   0   0   0   0   0   0   7   0   0 160 193 170 168 171 169
169 169 176 204 217 220 224 224 225 225 226 224 220 217 215 205 192 188 175 167 165 163 156 152
152 154 153 151 148 144 140 137 135 130 120 109  94  83  72  51  35  27  21  15  10   6   3   0
  0   0   0   0   0   0   0   0   0   0   0   0   0   0   0   0   0   0   0   0   0   0   0   0
  0   0   0   0
  0   0   0   0   0   0   0   0   0   0   0   0   0   0   0   7   0   0 159 190 171 173 175 170
168 169 179 206 214 217 222 223 225 226 226 224 221 218 214 200 191 187 178 171 170 168 158 151
149 150 149 150 150 152 150 143 140 136 123 115 103  87  76  68  54  35  25  20  13   7   5   1
  0   0   0   0   0   0   0   0   0   0   0   0   0   0   0   0   0   0   0   0   0   0   0   0
  0   0   0   0
  0   0   0   0   0   0   0   0   0   0   0   0   0   0   0   7   0   0 157 185 167 170 170 167
166 168 182 206 213 217 219 222 224 226 227 225 224 223 213 194 184 177 175 176 174 172 167 160
156 153 149 145 145 155 160 158 153 141 128 123 114 101  81  71  64  47  33  23  16  10   6   3
  0   0   0   0   0   0   0   0   0   0   0   0   0   0   0   0   0   0   0   0   0   0   0   0
  0   0   0   0
  0   0   0   0   0   0   0   0   0   0   0   0   0   0   0   6   0   0 153 180 162 167 169 168
166 169 188 206 212 217 217 220 225 226 226 224 223 221 204 181 175 172 172 174 173 169 170 166
166 164 155 149 151 155 158 158 159 152 137 131 122 108  94  83  70  53  42  30  20  13   8   5
  1   0   0   0   0   0   0   0   0   0   0   0   0   0   0   0   0   0   0   0   0   0   0   0
  0   0   0   0
  0   0   0   0   0   0   0   0   0   0   0   0   0   0   0   6   0   0 154 179 163 165 169 168
168 172 184 201 207 210 213 217 223 224 224 223 221 213 200 183 175 171 170 172 173 171 172 171
172 173 168 162 158 157 157 158 158 156 150 145 135 121 112  96  79  61  47  35  25  17  10   6
  3   0   0   0   0   0   0   0   0   0   0   0   0   0   0   0   0   0   0   0   0   0   0   0
  0   0   0   0
  0   0   0   0   0   0   0   0   0   0   0   0   0   0   0   6   0   0 152 178 163 167 168 168
168 172 181 190 197 201 203 213 220 222 222 220 216 201 188 183 177 171 167 167 170 167 168 172
170 169 168 166 167 165 164 162 159 157 154 150 138 128 121 108  95  74  57  43  30  22  13   8
  5   1   0   0   0   0   0   0   0   0   0   0   0   0   0   0   0   0   0   0   0   0   0   0
  0   0   0   0
  0   0   0   0   0   0   0   0   0   0   0   0   0   0   0   6   0   0 150 179 165 170 172 173
176 176 174 173 178 184 187 203 216 217 215 212 198 178 174 172 168 167 165 167 166 161 161 164
167 169 162 161 165 166 168 161 153 155 162 158 140 128 122 112 105  89  65  50  39  29  17   9
  6   3   0   0   0   0   0   0   0   0   0   0   0   0   0   0   0   0   0   0   0   0   0   0
  0   0   0   0
  0   0   0   0   0   0   0   0   0   0   0   0   0   0   0   6   0   0 148 179 166 166 171 175
176 174 168 167 168 171 176 185 200 203 197 195 185 172 169 168 165 164 163 163 166 165 164 164
170 167 156 154 156 156 160 157 157 157 170 176 158 140 129 113 104  97  81  62  48  36  21  11
  7   4   1   0   0   0   0   0   0   0   0   0   0   0   0   0   0   0   0   0   0   0   0   0
  0   0   0   0
  0   0   0   0   0   0   0   0   0   0   0   0   0   0   0   6   0   0 149 179 167 168 168 165
168 172 172 173 172 176 179 176 181 184 180 184 179 172 167 163 162 165 164 163 166 171 171 173
168 157 152 150 150 149 148 149 149 155 171 171 166 166 150 138 116 100  88  80  60  42  30  14
  9   6   3   0   0   0   0   0   0   0   0   0   0   0   0   0   0   0   0   0   0   0   0   0
  0   0   0   0
  0   0   0   0   0   0   0   0   0   0   0   0   0   0   0   5   0   0 143 177 169 169 163 162
164 168 173 177 177 180 181 179 178 176 175 178 172 172 170 164 162 167 167 167 168 169 176 175
166 160 157 155 153 151 148 147 146 146 163 160 155 171 170 147 125 109  94  83  76  53  36  22
 13   7   4   1   0   0   0   0   0   0   0   0   0   0   0   0   0   0   0   0   0   0   0   0
  0   0   0   0
  0   0   0   0   0   0   0   0   0   0   0   0   0   0   0   5   0   0 139 175 174 167 163 164
161 162 162 167 168 172 181 177 172 176 173 170 168 167 165 166 163 164 168 169 171 169 173 179
175 164 161 162 161 157 151 150 150 156 167 155 152 156 160 154 135 116 105  85  78  71  42  23
 17   9   5   2   0   0   0   0   0   0   0   0   0   0   0   0   0   0   0   0   0   0   0   0
  0   0   0   0
  0   0   0   0   0   0   0   0   0   0   0   0   0   0   0   5   0   0 138 174 170 166 160 160
159 157 160 161 163 172 172 171 165 168 171 173 168 160 158 160 159 161 163 162 166 170 171 182
183 174 165 160 160 158 151 151 155 166 171 158 154 148 149 155 152 128 111  97  81  82  53  24
 19  11   6   2   0   0   0   0   0   0   0   0   0   0   0   0   0   0   0   0   0   0   0   0
  0   0   0   0
  0   0   0   0   0   0   0   0   0   0   0   0   0   0   0   5   0   0 143 177 170 165 155 152
156 155 160 164 161 164 167 169 166 161 163 169 167 164 163 159 157 157 160 164 168 167 170 177
180 176 168 160 156 153 151 151 151 161 173 162 150 145 147 145 150 144 116 100  92  89  58  30
 21  13   7   3   1   0   0   0   0   0   0   0   0   0   0   0   0   0   0   0   0   0   0   0
  0   0   0   0
  0   0   0   0   0   0   0   0   0   0   0   0   0   0   0   6   0   0 144 176 163 159 157 154
154 159 161 164 168 165 165 170 168 163 161 163 165 164 165 160 156 157 159 167 167 161 163 167
168 171 171 162 152 150 149 150 155 166 171 160 150 140 144 143 136 144 133 105  95  91  67  40
 24  17   9   4   1   0   0   0   0   0   0   0   0   0   0   0   0   0   0   0   0   0   0   0
  0   0   0   0
  0   0   0   0   0   0   0   0   0   0   0   0   0   0   0   5   0   0 138 165 159 160 162 162
159 157 155 165 170 163 160 162 162 163 161 163 164 160 162 163 161 159 160 164 162 156 160 159
161 166 171 166 155 154 152 156 165 169 165 155 150 146 139 141 138 135 142 120 103  91  79  53
 25  20  11   5   2   0   0   0   0   0   0   0   0   0   0   0   0   0   0   0   0   0   0   0
  0   0   0   0
  0   0   0   0   0   0   0   0   0   0   0   0   0   0   0   6   0   0 141 165 159 161 157 161
162 159 156 169 165 153 157 158 159 161 159 162 163 161 161 164 163 160 159 162 161 159 159 157
159 161 167 170 162 158 158 165 166 159 154 150 144 148 143 137 141 133 138 133 111  92  85  61
 29  25  13   7   3   0   0   0   0   0   0   0   0   0   0   0   0   0   0   0   0   0   0   0
  0   0   0   0
  0   0   0   0   0   0   0   0   0   0   0   0   0   0   0   5   0   0 142 170 161 161 158 158
158 163 168 170 163 156 155 157 159 161 164 166 163 161 159 157 158 162 158 159 162 159 157 155
157 160 164 172 167 163 166 165 158 152 148 149 145 149 149 139 139 134 129 140 122  96  92  71
 35  27  14   7   4   1   0   0   0   0   0   0   0   0   0   0   0   0   0   0   0   0   0   0
  0   0   0   0
  0   0   0   0   0   0   0   0   0   0   0   0   0   0   0   5   0   0 137 167 162 162 165 164
159 157 163 166 162 158 155 155 158 164 165 167 168 162 156 155 157 159 162 160 160 159 160 158
159 160 164 172 174 172 170 163 155 146 145 147 148 147 146 144 142 136 130 145 133 105  97  79
 43  30  17   9   6   2   0   0   0   0   0   0   0   0   0   0   0   0   0   0   0   0   0   0
  0   0   0   0
  0   0   0   0   0   0   0   0   0   0   0   0   0   0   0   5   0   0 137 167 159 162 161 164
163 157 158 165 161 158 157 156 158 164 163 165 170 168 162 159 157 155 161 164 163 161 164 165
161 162 167 171 175 179 178 165 153 147 146 145 150 152 145 145 143 136 130 141 141 120  99  90
 58  29  19  11   7   3   0   0   0   0   0   0   0   0   0   0   0   0   0   0   0   0   0   0
  0   0   0   0
  0   0   0   0   0   0   0   0   0   0   0   0   0   0   0   4   0   0 132 168 164 162 158 160
163 164 165 164 163 161 159 158 157 159 162 160 162 166 168 161 158 158 156 161 166 161 163 167
164 167 168 171 178 182 186 171 156 151 146 144 145 148 150 148 142 139 130 136 147 132 109 103
 71  24  23  12   7   3   0   0   0   0   0   0   0   0   0   0   0   0   0   0   0   0   0   0
  0   0   0   0
  0   0   0   0   0   0   0   0   0   0   0   0   0   0   0   5   0   0 132 165 163 166 165 161
159 160 161 161 164 163 160 161 160 157 161 162 158 160 166 168 166 161 158 161 167 161 159 163
161 165 163 165 181 184 184 172 160 150 145 146 142 142 146 155 151 142 135 142 158 137 119 109
 78  29  22  14   7   4   1   0   0   0   0   0   0   0   0   0   0   0   0   0   0   0   0   0
  0   0   0   0
  0   0   0   0   0   0   0   0   0   0   0   0   0   0   0   5   0   0 136 167 161 165 170 168
164 160 160 159 161 162 161 163 161 157 156 164 167 162 163 172 174 165 163 170 175 171 165 164
160 158 158 165 175 174 165 155 161 159 150 148 144 143 147 150 154 151 144 146 162 156 135 108
 82  46  20  18   8   4   1   0   0   0   0   0   0   0   0   0   0   0   0   0   0   0   0   0
  0   0   0   0
  0   0   0   0   0   0   0   0   0   0   0   0   0   0   0   5   0   0 133 162 156 157 158 166
168 163 162 160 159 161 162 162 161 160 158 157 167 174 173 180 183 177 170 169 173 176 176 174
174 171 169 175 180 171 151 146 150 155 152 148 145 143 144 145 146 149 145 157 175 167 140  97
 71  58  29  18  10   4   2   0   0   0   0   0   0   0   0   0   0   0   0   0   0   0   0   0
  0   0   0   0
  0   0   0   0   0   0   0   0   0   0   0   0   0   0   0   5   0   0 132 160 153 152 153 153
160 161 164 165 158 162 162 155 156 157 159 158 160 171 171 174 177 175 170 165 167 168 172 175
170 166 171 182 184 175 162 153 152 152 148 147 146 141 137 140 144 146 153 163 158 150 137  92
 64  54  38  20  10   5   2   0   0   0   0   0   0   0   0   0   0   0   0   0   0   0   0   0
  0   0   0   0
  0   0   0   0   0   0   0   0   0   0   0   0   0   0   0   5   0   0 138 164 157 158 155 151
154 161 162 170 166 157 159 159 155 156 156 154 156 160 162 160 162 164 165 168 164 162 163 169
170 167 169 180 179 174 174 168 160 157 152 151 147 141 140 145 153 155 148 134 121 126 128  89
 59  49  42  25   8   6   3   0   0   0   0   0   0   0   0   0   0   0   0   0   0   0   0   0
  0   0   0   0
  0   0   0   0   0   0   0   0   0   0   0   0   0   0   0   6   0   0 145 172 159 166 162 154
152 157 162 165 173 167 159 163 158 155 160 159 158 158 161 159 154 160 165 160 156 154 153 158
163 168 180 189 180 164 163 162 160 159 159 154 147 146 143 146 148 144 131 121 115 115 118  89
 59  46  40  26   8   6   3   0   0   0   0   0   0   0   0   0   0   0   0   0   0   0   0   0
  0   0   0   0
  0   0   0   0   0   0   0   0   0   0   0   0   0   0   0   5   0   0 139 173 165 161 162 161
158 156 161 167 171 176 167 161 160 155 158 163 165 166 160 164 161 157 164 160 154 152 152 152
151 153 166 176 175 169 161 157 152 152 153 150 144 144 143 142 141 136 128 120 113 113 109  93
 65  47  35  26   9   6   3   0   0   0   0   0   0   0   0   0   0   0   0   0   0   0   0   0
  0   0   0   0
  0   0   0   0   0   0   0   0   0   0   0   0   0   0   0   5   0   0 138 171 164 165 163 162
161 159 159 161 161 165 172 167 161 159 156 160 161 163 160 160 164 160 162 163 158 154 149 150
149 151 155 162 163 165 169 165 152 147 151 150 148 144 143 143 139 136 130 120 114 110 100  92
 70  45  32  23  10   5   3   0   0   0   0   0   0   0   0   0   0   0   0   0   0   0   0   0
  0   0   0   0
  0   0   0   0   0   0   0   0   0   0   0   0   0   0   0   5   0   0 139 171 165 167 164 161
159 162 161 157 156 160 161 164 166 170 163 160 159 155 160 159 156 158 162 164 164 160 155 155
154 155 153 153 160 153 163 169 156 145 145 149 147 143 143 145 138 134 134 127 112 102  95  87
 75  42  30  24  11   5   3   0   0   0   0   0   0   0   0   0   0   0   0   0   0   0   0   0
  0   0   0   0
  0   0   0   0   0   0   0   0   0   0   0   0   0   0   0   6   0   0 144 174 167 166 161 158
156 161 164 162 157 160 159 158 160 162 166 161 158 158 157 160 163 163 159 161 162 160 162 161
153 153 151 150 158 157 149 156 156 155 148 147 146 141 142 144 139 133 128 122 110 102  92  78
 72  44  29  26  11   5   3   0   0   0   0   0   0   0   0   0   0   0   0   0   0   0   0   0
  0   0   0   0
  0   0   0   0   0   0   0   0   0   0   0   0   0   0   0   6   0   0 145 180 167 165 164 160
157 159 161 162 163 164 167 163 160 161 163 163 159 158 159 161 164 166 163 164 166 167 166 161
153 154 155 156 159 163 158 154 153 156 158 152 148 144 143 141 140 134 123 115 109 101  92  75
 68  49  33  26  10   5   3   0   0   0   0   0   0   0   0   0   0   0   0   0   0   0   0   0
  0   0   0   0
  0   0   0   0   0   0   0   0   0   0   0   0   0   0   0   5   0   0 142 177 175 171 165 166
164 163 166 164 164 166 170 172 168 170 171 169 163 159 160 167 166 162 157 160 162 168 177 172
163 159 156 156 159 171 170 161 157 157 158 161 152 144 143 140 136 131 123 114 108 100  91  75
 65  54  36  22  11   5   4   1   0   0   0   0   0   0   0   0   0   0   0   0   0   0   0   0
  0   0   0   0
  0   0   0   0   0   0   0   0   0   0   0   0   0   0   0   5   0   0 138 173 170 176 172 168
164 162 165 165 166 164 162 168 170 170 177 171 165 164 160 168 175 161 160 159 156 159 172 176
168 165 163 162 164 172 171 163 158 156 158 163 164 152 144 143 137 129 120 114 109 100  90  80
 68  54  31  21  11   5   4   0   0   0   0   0   0   0   0   0   0   0   0   0   0   0   0   0
  0   0   0   0
  0   0   0   0   0   0   0   0   0   0   0   0   0   0   0   5   0   0 137 170 163 170 178 172
164 159 160 163 166 163 158 162 170 172 174 173 165 165 162 159 167 164 162 163 162 161 161 168
168 164 161 164 167 166 168 166 156 155 156 156 163 167 157 149 140 131 119 114 108 100  91  78
 64  50  27  20  11   6   4   0   0   0   0   0   0   0   0   0   0   0   0   0   0   0   0   0
  0   0   0   0
  0   0   0   0   0   0   0   0   0   0   0   0   0   0   0   5   0   0 142 171 164 168 172 175
171 164 160 164 168 168 161 159 162 170 169 168 165 158 158 157 162 164 160 158 158 162 162 163
162 164 165 158 161 164 161 167 161 157 156 153 151 162 171 151 141 135 122 115 109 101  90  73
 61  46  25  20  10   6   4   0   0   0   0   0   0   0   0   0   0   0   0   0   0   0   0   0
  0   0   0   0
  0   0   0   0   0   0   0   0   0   0   0   0   0   0   0   5   0   0 142 175 168 170 169 173
175 173 166 165 168 167 168 162 160 166 168 160 160 158 154 158 163 163 158 158 153 152 157 163
164 161 163 166 160 162 167 171 172 167 165 162 160 165 176 161 150 137 120 111 104  97  83  65
 56  40  24  22  11   6   3   0   0   0   0   0   0   0   0   0   0   0   0   0   0   0   0   0
  0   0   0   0
  0   0   0   0   0   0   0   0   0   0   0   0   0   0   0   5   0   0 142 175 171 171 169 172
173 176 172 169 165 164 165 166 166 166 162 158 156 153 151 152 156 158 158 158 154 149 148 152
159 163 156 159 164 164 165 170 168 160 162 166 170 172 175 183 167 140 127 114 103  92  75  58
 44  36  27  22  11   7   2   0   0   0   0   0   0   0   0   0   0   0   0   0   0   0   0   0
  0   0   0   0
  0   0   0   0   0   0   0   0   0   0   0   0   0   0   0   6   0   0 146 176 168 177 177 169
166 169 171 168 163 163 161 161 166 167 164 160 154 153 150 150 150 152 157 158 155 151 150 151
152 156 157 154 159 165 163 156 159 156 153 155 155 157 161 167 163 153 137 124 108  84  68  55
 37  32  27  17   9   6   0   0   0   0   0   0   0   0   0   0   0   0   0   0   0   0   0   0
  0   0   0   0
  0   0   0   0   0   0   0   0   0   0   0   0   0   0   0   5   0   0 145 176 163 169 184 181
168 169 172 172 170 163 158 157 161 163 164 166 159 156 152 152 150 151 155 157 154 153 151 152
156 156 160 164 164 164 160 159 163 161 159 159 155 152 153 149 141 139 130 113  96  78  63  49
 38  32  25  13   8   2   0   0   0   0   0   0   0   0   0   0   0   0   0   0   0   0   0   0
  0   0   0   0
  0   0   0   0   0   0   0   0   0   0   0   0   0   0   0   4   1   0 135 171 163 164 167 182
184 176 172 175 174 167 157 156 162 163 159 164 169 167 160 156 152 152 155 158 155 154 156 155
155 156 158 164 166 165 163 162 164 161 156 158 158 160 153 145 131 118 115 106  92  80  64  46
 40  33  22  11   5   0   0   0   0   0   0   0   0   0   0   0   0   0   0   0   0   0   0   0
  0   0   0   0
  0   0   0   0   0   0   0   0   0   0   0   0   0   0   0   5   0   0 135 169 163 163 163 166
182 181 173 170 173 174 168 158 160 166 160 160 164 164 166 163 156 154 153 156 165 159 154 157
156 156 157 156 161 164 166 167 168 166 153 148 149 150 140 134 123 111 102  96  94  90  75  45
 31  28  18   8   1   0   0   0   0   0   0   0   0   0   0   0   0   0   0   0   0   0   0   0
  0   0   0   0
  0   0   0   0   0   0   0   0   0   0   0   0   0   0   0   4   0   0 126 159 156 157 163 163
168 179 175 167 164 169 175 171 164 166 164 166 165 157 161 163 160 156 152 152 161 163 154 154
156 158 159 157 159 158 156 166 174 172 160 152 147 141 132 124 113 103  95  87  82  82  67  36
 30  23  12   3   0   0   0   0   0   0   0   0   0   0   0   0   0   0   0   0   0   0   0   0
  0   0   0   0
  0   0   0   0   0   0   0   0   0   0   0   0   0   0   0   4   0   0 126 152 143 154 161 159
157 167 171 170 167 162 164 168 167 167 169 170 169 165 165 163 160 159 157 155 155 163 161 151
152 156 155 158 165 161 154 160 170 169 159 157 152 139 132 117 107 101  92  83  77  75  50  35
 26  10   5   0   0   0   0   0   0   0   0   0   0   0   0   0   0   0   0   0   0   0   0   0
  0   0   0   0
  0   0   0   0   0   0   0   0   0   0   0   0   0   0   0   4   0   0 126 155 143 148 155 160
155 158 165 167 171 167 163 164 167 167 171 175 177 175 168 165 165 166 164 157 154 157 165 159
152 152 151 150 159 164 162 164 174 178 168 156 153 140 124 111 106 102  91  80  88  73  44  32
 12   7   3   0   0   0   0   0   0   0   0   0   0   0   0   0   0   0   0   0   0   0   0   0
  0   0   0   0
  0   0   0   0   0   0   0   0   0   0   0   0   0   0   0   3   1   0 121 151 142 148 149 152
157 157 161 163 168 171 164 158 167 167 166 169 176 181 171 165 163 163 162 160 160 160 163 167
159 153 152 153 152 155 167 172 182 193 185 167 152 142 136 124 115 103  85  85  92  61  30  16
  9   6   1   0   0   0   0   0   0   0   0   0   0   0   0   0   0   0   0   0   0   0   0   0
  0   0   0   0
  0   0   0   0   0   0   0   0   0   0   0   0   0   0   0   3   2   0 111 145 134 142 149 144
150 155 158 158 163 164 169 165 164 166 161 163 167 171 174 170 167 166 161 159 161 165 166 171
171 167 165 165 159 157 161 164 168 176 178 174 158 147 144 130 114  95  73  70  61  37  16  10
  6   3   0   0   0   0   0   0   0   0   0   0   0   0   0   0   0   0   0   0   0   0   0   0
  0   0   0   0
  0   0   0   0   0   0   0   0   0   0   0   0   0   0   0   2   0   0  99 133 132 135 148 143
144 150 155 154 155 156 158 169 168 163 162 158 163 165 170 175 168 163 161 157 155 161 166 167
167 170 172 169 165 156 154 156 155 160 157 150 147 138 125 113  96  79  66  54  36  20  13   8
  5   1   0   0   0   0   0   0   0   0   0   0   0   0   0   0   0   0   0   0   0   0   0   0
  0   0   0   0
  0   0   0   0   0   0   0   0   0   0   0   0   0   0   0   2   2   0  87 125 126 129 141 141
146 147 150 153 153 155 153 158 171 165 161 165 167 171 174 171 161 156 154 155 152 155 159 154
152 159 161 162 166 164 163 165 162 155 139 130 136 140 133 112  87  76  64  45  24  15  10   6
  3   0   0   0   0   0   0   0   0   0   0   0   0   0   0   0   0   0   0   0   0   0   0   0
  0   0   0   0
  0   0   0   0   0   0   0   0   0   0   0   0   0   0   0   0   2   0  53 105 121 115 128 136
144 151 153 153 151 151 155 155 161 165 164 171 174 173 173 163 156 157 153 154 155 155 153 149
148 152 154 153 157 164 164 159 157 150 141 140 131 125 121 101  87  72  48  26  15  11   8   5
  1   0   0   0   0   0   0   0   0   0   0   0   0   0   0   0   0   0   0   0   0   0   0   0
  0   0   0   0
  0   0   0   0   0   0   0   0   0   0   0   0   0   0   0   0   0   0  37  67 100 110 111 120
125 137 153 155 149 147 155 156 156 159 167 165 165 172 177 162 154 152 155 155 157 156 152 152
152 152 152 149 152 155 154 149 141 138 136 124 108  94  88  86  85  63  30  18  12   9   6   2
  0   0   0   0   0   0   0   0   0   0   0   0   0   0   0   0   0   0   0   0   0   0   0   0
  0   0   0   0
  0   0   0   0   0   0   0   0   0   0   0   0   0   0   0   0   0   0  32  48  66  91  98 102
111 116 136 152 148 142 148 159 161 158 160 161 161 170 170 166 158 152 157 159 157 156 158 157
152 151 149 148 149 149 147 144 135 128 118 106  99  95  84  79  64  38  25  15  10   7   4   0
  0   0   0   0   0   0   0   0   0   0   0   0   0   0   0   0   0   0   0   0   0   0   0   0
  0   0   0   0
  0   0   0   0   0   0   0   0   0   0   0   0   0   0   0   0   0   0  27  46  54  59  77  90
101 109 125 138 141 144 143 154 161 152 154 158 165 168 169 163 161 159 161 161 155 159 158 151
153 151 146 148 148 146 143 134 122 111 104 102  95  84  73  66  39  23  18  11   7   5   2   0
  0   0   0   0   0   0   0   0   0   0   0   0   0   0   0   0   0   0   0   0   0   0   0   0
  0   0   0   0
  0   0   0   0   0   0   0   0   0   0   0   0   0   0   0   0   0   0  21  37  51  53  55  71
 85  94 110 122 128 144 147 157 167 152 149 152 158 164 167 168 160 162 165 169 159 154 159 155
158 160 154 151 145 141 131 119 112 106  98  94  85  72  66  44  22  18  13   8   5   2   0   0
  0   0   0   0   0   0   0   0   0   0   0   0   0   0   0   0   0   0   0   0   0   0   0   0
  0   0   0   0
  0   0   0   0   0   0   0   0   0   0   0   0   0   0   0   0   0   0  18  29  39  49  49  54
 64  78  93 104 118 131 137 154 160 154 146 145 147 158 160 165 170 167 166 171 177 170 170 167
161 158 148 137 130 124 116 109 103  96  86  80  74  65  43  25  21  15  11   6   4   1   0   0
  0   0   0   0   0   0   0   0   0   0   0   0   0   0   0   0   0   0   0   0   0   0   0   0
  0   0   0   0
  0   0   0   0   0   0   0   0   0   0   0   0   0   0   0   0   0   0  15  24  30  37  42  43
 51  62  76  88 103 114 121 139 133 141 146 144 142 145 157 157 174 172 152 153 162 169 174 169
159 153 146 134 121 116 109 101  93  83  75  69  61  44  30  24  17  11   8   5   2   0   0   0
  0   0   0   0   0   0   0   0   0   0   0   0   0   0   0   0   0   0   0   0   0   0   0   0
  0   0   0   0
  0   0   0   0   0   0   0   0   0   0   0   0   0   0   0   0   0   0  12  19  24  31  33  39
 40  45  56  71  85  99 103 115 121 124 135 144 145 138 144 153 156 153 139 140 141 142 148 153
154 153 145 131 117 109  98  90  82  77  68  57  47  35  26  17  12   8   6   3   0   0   0   0
  0   0   0   0   0   0   0   0   0   0   0   0   0   0   0   0   0   0   0   0   0   0   0   0
  0   0   0   0
  0   0   0   0   0   0   0   0   0   0   0   0   0   0   0   0   0   0  11  17  17  26  29  32
 38  40  45  56  68  82  87  96 107 108 113 123 130 131 129 142 149 140 138 127 127 126 122 120
125 129 120 110 104  97  89  83  76  68  55  42  34  26  18  12   8   6   4   1   0   0   0   0
  0   0   0   0   0   0   0   0   0   0   0   0   0   0   0   0   0   0   0   0   0   0   0   0
  0   0   0   0
  0   0   0   0   0   0   0   0   0   0   0   0   0   0   0   0   0   0   8  14  15  19  25  26
 31  37  39  47  54  64  74  74  78  88  97 103 107 113 113 114 130 133 134 123 109 105 104  99
 95  97 102 101  96  90  80  72  66  53  41  33  27  18  13   9   6   4   1   0   0   0   0   0
  0   0   0   0   0   0   0   0   0   0   0   0   0   0   0   0   0   0   0   0   0   0   0   0
  0   0   0   0
  0   0   0   0   0   0   0   0   0   0   0   0   0   0   0   0   0   0   6  12  12  14  19  24
 25  27  30  36  42  49  62  62  61  67  80  88  93  96 101 100 101 112 108 110 105  97  95  89
 87  86  84  85  80  71  63  57  51  41  32  26  20  14  11   7   5   3   0   0   0   0   0   0
  0   0   0   0   0   0   0   0   0   0   0   0   0   0   0   0   0   0   0   0   0   0   0   0
  0   0   0   0
  0   0   0   0   0   0   0   0   0   0   0   0   0   0   0   0   0   0   5   9   9  11  13  16
 20  22  23  28  33  37  48  53  52  53  59  68  74  79  82  85  85  88  93  96 103  93  81  76
 75  76  76  73  70  65  61  51  41  31  24  19  15  10   7   4   3   0   0   0   0   0   0   0
  0   0   0   0   0   0   0   0   0   0   0   0   0   0   0   0   0   0   0   0   0   0   0   0
  0   0   0   0
