P2
# 8-bit pgm gray
100 100
255
  0   0   0   0   0   0   0   0   0   0   0   0   0   0   0   0   0   0   0   0   0   0   0   0
  0   0   0   2  18   0 140 189 181 188 185 185 181 180 184 190 193 193 194 194 196 195 193 193
193 189 183 178 172 165 156 140 105  90  89  88  86  82  71  55  43  20   8  12  11   6   0   0
  0   0   0   0   0   0   0   0   0   0   0   0   0   0   0   0   0   0   0   0   0   0   0   0
  0   0   0   0
  0   0   0   0   0   0   0   0   0   0   0   0   0   0   0   0   0   0   0   0   0   0   0   0
  0   0   0   2  17   0 135 186 179 185 187 189 186 184 185 187 193 194 194 192 194 194 192 191
191 188 183 176 168 162 153 129  97  91  88  86  83  76  66  53  39  12  10  11  11   6   0   0
  0   0   0   0   0   0   0   0   0   0   0   0   0   0   0   0   0   0   0   0   0   0   0   0
  0   0   0   0
  0   0   0   0   0   0   0   0   0   0   0   0   0   0   0   0   0   0   0   0   0   0   0   0
  0   0   0   2  17   0 136 188 183 187 185 188 188 189 190 190 191 194 195 192 193 192 193 193
191 186 181 175 167 158 145 112  92  94  89  84  80  73  62  50  34   6  11  10  11   6   0   0
  0   0   0   0   0   0   0   0   0   0   0   0   0   0   0   0   0   0   0   0   0   0   0   0
  0   0   0   0
  0   0   0   0   0   0   0   0   0   0   0   0   0   0   0   0   0   0   0   0   0   0   0   0
  0   0   0   1  18   0 137 193 187 188 185 185 184 187 191 194 193 192 193 192 194 194 192 192
189 185 178 172 163 154 135  99  91  89  88  85  82  73  58  48  26   4  11  10  11   5   0   0
  0   0   0   0   0   0   0   0   0   0   0   0   0   0   0   0   0   0   0   0   0   0   0   0
  0   0   0   0
  0   0   0   0   0   0   0   0   0   0   0   0   0   0   0   0   0   0   0   0   0   0   0   0
  0   0   0   1  18   0 137 193 186 185 185 185 186 188 190 191 194 194 190 191 192 192 190 190
187 182 174 169 163 151 120  94  96  89  88  85  79  71  55  42  17   7  10  10  11   5   0   0
  0   0   0   0   0   0   0   0   0   0   0   0   0   0   0   0   0   0   0   0   0   0   0   0
  0   0   0   0
  0   0   0   0   0   0   0   0   0   0   0   0   0   0   0   0   0   0   0   0   0   0   0   0
  0   0   0   2  18   0 139 193 185 184 182 183 185 189 190 190 191 193 192 190 192 190 190 189
186 179 172 169 161 142 106  92  94  90  88  86  79  68  53  35   8   9  10   9  10   5   0   0
  0   0   0   0   0   0   0   0   0   0   0   0   0   0   0   0   0   0   0   0   0   0   0   0
  0   0   0   0
  0   0   0   0   0   0   0   0   0   0   0   0   0   0   0   0   0   0   0   0   0   0   0   0
  0   0   0   2  18   0 140 194 187 185 181 183 187 188 189 191 189 190 193 191 191 190 190 187
184 178 171 170 157 128  97  94  93  87  84  82  76  62  47  29   6  10   9   9  10   5   0   0
  0   0   0   0   0   0   0   0   0   0   0   0   0   0   0   0   0   0   0   0   0   0   0   0
  0   0   0   0
  0   0   0   0   0   0   0   0   0   0   0   0   0   0   0   0   0   0   0   0   0   0   0   0
  0   0   0   1  18   0 139 195 186 186 183 185 188 189 190 190 191 188 191 192 192 193 188 184
181 176 172 169 152 114  99  98  93  89  85  80  72  60  42  20   7   9   9   9   9   5   0   0
  0   0   0   0   0   0   0   0   0   0   0   0   0   0   0   0   0   0   0   0   0   0   0   0
  0   0   0   0
  0   0   0   0   0   0   0   0   0   0   0   0   0   0   0   0   0   0   0   0   0   0   0   0
  0   0   0   2  18   0 141 196 187 188 186 186 188 189 192 192 189 189 191 193 193 193 188 184
179 174 174 165 138 104  99  97  93  87  84  78  69  55  38  15   7   9   9   8   9   5   0   0
  0   0   0   0   0   0   0   0   0   0   0   0   0   0   0   0   0   0   0   0   0   0   0   0
  0   0   0   0
  0   0   0   0   0   0   0   0   0   0   0   0   0   0   0   0   0   0   0   0   0   0   0   0
  0   0   0   2  18   0 142 197 186 188 188 188 190 189 193 193 188 190 191 191 194 193 189 184
179 176 172 158 123  97  96  94  93  87  83  76  65  50  32  12   7   8   8   9   9   5   0   0
  0   0   0   0   0   0   0   0   0   0   0   0   0   0   0   0   0   0   0   0   0   0   0   0
  0   0   0   0
  0   0   0   0   0   0   0   0   0   0   0   0   0   0   0   0   0   0   0   0   0   0   0   0
  0   0   0   2  18   0 142 198 186 186 186 188 190 188 191 192 190 191 190 188 193 193 188 184
183 178 167 146 114  99  95  94  92  87  82  73  60  47  30   9   8   8   9   9   9   4   0   0
  0   0   0   0   0   0   0   0   0   0   0   0   0   0   0   0   0   0   0   0   0   0   0   0
  0   0   0   0
  0   0   0   0   0   0   0   0   0   0   0   0   0   0   0   0   0   0   0   0   0   0   0   0
  0   0   0   2  18   0 141 194 183 184 188 190 189 186 187 190 191 190 191 190 190 190 189 187
187 178 158 130 107 100  93  93  94  87  79  72  59  45  26   8   8   8   8   8   9   4   0   0
  0   0   0   0   0   0   0   0   0   0   0   0   0   0   0   0   0   0   0   0   0   0   0   0
  0   0   0   0
  0   0   0   0   0   0   0   0   0   0   0   0   0   0   0   0   0   0   0   0   0   0   0   0
  0   0   0   2  18   0 139 193 183 183 189 191 188 187 187 190 190 190 190 190 191 191 193 191
182 170 150 123 102  95  91  91  91  84  77  68  56  41  22   8   7   8   8   8   9   4   0   0
  0   0   0   0   0   0   0   0   0   0   0   0   0   0   0   0   0   0   0   0   0   0   0   0
  0   0   0   0
  0   0   0   0   0   0   0   0   0   0   0   0   0   0   0   0   0   0   0   0   0   0   0   0
  0   0   0   2  18   0 139 193 179 181 190 191 187 183 188 190 188 190 190 190 193 195 194 184
171 158 142 115 100  98  93  90  87  81  74  63  51  38  21   7   8   8   8   8   9   4   0   0
  0   0   0   0   0   0   0   0   0   0   0   0   0   0   0   0   0   0   0   0   0   0   0   0
  0   0   0   0
  0   0   0   0   0   0   0   0   0   0   0   0   0   0   0   0   0   0   0   0   0   0   0   0
  0   0   0   2  19   0 142 195 181 184 188 192 188 184 188 190 190 191 190 193 194 193 187 175
166 153 132 106 101  99  94  89  87  81  72  61  49  36  19   6   8   8   8   8   9   4   0   0
  0   0   0   0   0   0   0   0   0   0   0   0   0   0   0   0   0   0   0   0   0   0   0   0
  0   0   0   0
  0   0   0   0   0   0   0   0   0   0   0   0   0   0   0   0   0   0   0   0   0   0   0   0
  0   0   0   2  18   0 141 192 183 188 189 192 187 186 189 190 194 193 195 199 197 189 180 175
163 147 122 109 104  98  93  90  87  80  70  58  46  34  17   6   8   7   8   8   9   4   0   0
  0   0   0   0   0   0   0   0   0   0   0   0   0   0   0   0   0   0   0   0   0   0   0   0
  0   0   0   0
  0   0   0   0   0   0   0   0   0   0   0   0   0   0   0   0   0   0   0   0   0   0   0   0
  0   0   0   2  17   0 137 191 185 187 189 191 189 189 189 188 191 196 199 197 192 182 175 172
160 140 114 105 100  95  92  91  85  75  67  54  42  32  15   6   8   8   8   8   9   4   0   0
  0   0   0   0   0   0   0   0   0   0   0   0   0   0   0   0   0   0   0   0   0   0   0   0
  0   0   0   0
  0   0   0   0   0   0   0   0   0   0   0   0   0   0   0   0   0   0   0   0   0   0   0   0
  0   0   0   2  17   0 137 192 188 190 191 187 187 192 191 189 190 198 200 192 181 175 169 163
155 135 110 100  98  97  94  89  82  74  63  51  40  29  12   6   8   8   8   7   8   4   0   0
  0   0   0   0   0   0   0   0   0   0   0   0   0   0   0   0   0   0   0   0   0   0   0   0
  0   0   0   0
  0   0   0   0   0   0   0   0   0   0   0   0   0   0   0   0   0   0   0   0   0   0   0   0
  0   0   0   1  18   0 137 195 189 191 191 186 188 190 191 191 196 199 196 186 180 177 163 155
151 126 108 103  99  99  99  88  79  73  61  49  38  27  10   7   8   7   7   7   8   4   0   0
  0   0   0   0   0   0   0   0   0   0   0   0   0   0   0   0   0   0   0   0   0   0   0   0
  0   0   0   0
  0   0   0   0   0   0   0   0   0   0   0   0   0   0   0   0   0   0   0   0   0   0   0   0
  0   0   0   2  18   0 137 193 186 189 188 185 190 191 191 196 201 199 190 181 180 174 161 152
141 120 108 104  99  98  96  85  76  69  60  47  36  25   9   7   8   7   7   7   8   4   0   0
  0   0   0   0   0   0   0   0   0   0   0   0   0   0   0   0   0   0   0   0   0   0   0   0
  0   0   0   0
  0   0   0   0   0   0   0   0   0   0   0   0   0   0   0   0   0   0   0   0   0   0   0   0
  0   0   0   2  18   0 139 195 188 187 186 188 192 193 193 203 203 196 190 185 180 171 160 146
127 121 110 104 101  98  96  84  73  66  58  48  36  23   8   7   8   7   7   7   8   4   0   0
  0   0   0   0   0   0   0   0   0   0   0   0   0   0   0   0   0   0   0   0   0   0   0   0
  0   0   0   0
  0   0   0   0   0   0   0   0   0   0   0   0   0   0   0   0   0   0   0   0   0   0   0   0
  0   0   0   2  18   0 141 196 187 185 185 189 192 191 199 206 200 196 190 186 175 161 150 136
117 119 114 104 100  96  94  84  72  66  56  46  34  22   7   8   9   7   7   7   8   4   0   0
  0   0   0   0   0   0   0   0   0   0   0   0   0   0   0   0   0   0   0   0   0   0   0   0
  0   0   0   0
  0   0   0   0   0   0   0   0   0   0   0   0   0   0   0   0   0   0   0   0   0   0   0   0
  0   0   0   2  18   0 141 196 184 186 185 188 189 191 205 204 198 193 184 177 165 153 144 129
114 116 117 104 100  95  91  83  72  63  53  42  32  22   7   6   7   7   7   7   8   4   0   0
  0   0   0   0   0   0   0   0   0   0   0   0   0   0   0   0   0   0   0   0   0   0   0   0
  0   0   0   0
  0   0   0   0   0   0   0   0   0   0   0   0   0   0   0   0   0   0   0   0   0   0   0   0
  0   0   0   2  18   0 142 197 188 187 188 189 189 199 205 200 193 187 180 172 159 147 138 127
115 113 119 111 101  93  91  82  68  61  52  41  31  22   6   6   6   7   7   7   8   4   0   0
  0   0   0   0   0   0   0   0   0   0   0   0   0   0   0   0   0   0   0   0   0   0   0   0
  0   0   0   0
  0   0   0   0   0   0   0   0   0   0   0   0   0   0   0   0   0   0   0   0   0   0   0   0
  0   0   0   2  18   0 140 195 187 189 191 186 191 204 205 200 189 184 178 172 168 154 133 118
116 119 123 117 103  94  90  81  68  62  51  40  32  22   6   6   7   7   7   7   8   4   0   0
  0   0   0   0   0   0   0   0   0   0   0   0   0   0   0   0   0   0   0   0   0   0   0   0
  0   0   0   0
  0   0   0   0   0   0   0   0   0   0   0   0   0   0   0   0   0   0   0   0   0   0   0   0
  0   0   0   2  18   0 138 195 187 190 189 185 193 206 204 199 191 186 182 181 178 166 133 112
118 138 138 126 108  94  91  85  74  66  53  41  32  22   7   6   7   7   7   7   8   4   0   0
  0   0   0   0   0   0   0   0   0   0   0   0   0   0   0   0   0   0   0   0   0   0   0   0
  0   0   0   0
  0   0   0   0   0   0   0   0   0   0   0   0   0   0   0   0   0   0   0   0   0   0   0   0
  0   0   0   2  18   0 139 192 185 187 187 187 198 209 205 196 191 191 189 189 174 155 138 116
116 137 141 129 109  93  90  84  78  69  55  44  32  22   8   6   7   7   7   7   7   4   0   0
  0   0   0   0   0   0   0   0   0   0   0   0   0   0   0   0   0   0   0   0   0   0   0   0
  0   0   0   0
  0   0   0   0   0   0   0   0   0   0   0   0   0   0   0   0   0   0   0   0   0   0   0   0
  0   0   0   2  18   0 141 194 185 190 189 185 198 209 202 194 188 193 194 188 169 147 135 123
116 128 136 128 113  95  88  80  77  71  53  44  33  22   9   5   7   7   7   7   7   3   0   0
  0   0   0   0   0   0   0   0   0   0   0   0   0   0   0   0   0   0   0   0   0   0   0   0
  0   0   0   0
  0   0   0   0   0   0   0   0   0   0   0   0   0   0   0   0   0   0   0   0   0   0   0   0
  0   0   0   2  19   0 143 198 185 185 186 185 201 209 198 186 182 188 189 186 167 133 123 122
122 139 142 134 120 101  89  81  81  69  53  45  35  24  10   5   6   6   6   6   7   3   0   0
  0   0   0   0   0   0   0   0   0   0   0   0   0   0   0   0   0   0   0   0   0   0   0   0
  0   0   0   0
  0   0   0   0   0   0   0   0   0   0   0   0   0   0   0   0   0   0   0   0   0   0   0   0
  0   0   0   2  19   0 143 199 185 184 185 193 205 205 194 178 175 181 181 173 154 115 111 116
124 149 141 126 120 110  99  88  86  68  57  49  38  28  12   5   6   6   6   6   7   3   0   0
  0   0   0   0   0   0   0   0   0   0   0   0   0   0   0   0   0   0   0   0   0   0   0   0
  0   0   0   0
  0   0   0   0   0   0   0   0   0   0   0   0   0   0   0   0   0   0   0   0   0   0   0   0
  0   0   0   2  18   0 141 196 187 189 189 194 202 201 188 175 172 176 173 164 155 127 108 120
129 151 153 130 125 117 109 103  90  70  60  49  38  29  15   5   6   6   7   6   7   4   0   0
  0   0   0   0   0   0   0   0   0   0   0   0   0   0   0   0   0   0   0   0   0   0   0   0
  0   0   0   0
  0   0   0   0   0   0   0   0   0   0   0   0   0   0   0   0   0   0   0   0   0   0   0   0
  0   0   0   2  18   0 140 194 189 192 189 193 201 196 181 170 170 171 165 158 156 150 136 130
134 139 149 143 126 123 116 110  95  71  60  51  39  30  18   5   6   7   7   6   7   3   0   0
  0   0   0   0   0   0   0   0   0   0   0   0   0   0   0   0   0   0   0   0   0   0   0   0
  0   0   0   0
  0   0   0   0   0   0   0   0   0   0   0   0   0   0   0   0   0   0   0   0   0   0   0   0
  0   0   0   2  18   0 145 197 186 191 191 196 203 195 181 173 171 166 162 156 153 151 154 145
131 127 133 143 131 124 128 126  99  71  64  56  43  31  20   6   6   7   7   7   7   3   0   0
  0   0   0   0   0   0   0   0   0   0   0   0   0   0   0   0   0   0   0   0   0   0   0   0
  0   0   0   0
  0   0   0   0   0   0   0   0   0   0   0   0   0   0   0   0   0   0   0   0   0   0   0   0
  0   0   0   2  19   0 146 203 188 189 194 198 199 193 178 168 167 160 151 148 150 146 157 161
139 133 137 137 138 137 138 134 107  76  65  56  45  34  23   8   6   7   7   7   7   4   0   0
  0   0   0   0   0   0   0   0   0   0   0   0   0   0   0   0   0   0   0   0   0   0   0   0
  0   0   0   0
  0   0   0   0   0   0   0   0   0   0   0   0   0   0   0   0   0   0   0   0   0   0   0   0
  0   0   0   2  20   0 149 208 192 191 199 202 198 188 174 165 160 150 141 141 150 151 156 160
143 136 139 138 141 145 137 128 115  86  66  58  47  37  25  10   6   7   7   7   7   4   0   0
  0   0   0   0   0   0   0   0   0   0   0   0   0   0   0   0   0   0   0   0   0   0   0   0
  0   0   0   0
  0   0   0   0   0   0   0   0   0   0   0   0   0   0   0   0   0   0   0   0   0   0   0   0
  0   0   0   2  20   0 148 210 196 192 200 206 199 180 173 169 165 156 146 143 152 159 152 152
140 129 138 143 137 133 132 130 120  96  69  62  50  37  27  13   5   7   7   7   8   4   0   0
  0   0   0   0   0   0   0   0   0   0   0   0   0   0   0   0   0   0   0   0   0   0   0   0
  0   0   0   0
  0   0   0   0   0   0   0   0   0   0   0   0   0   0   0   0   0   0   0   0   0   0   0   0
  0   0   0   2  20   0 147 208 197 194 201 205 193 173 168 162 165 157 145 138 146 161 148 144
140 135 137 147 153 131 130 140 122  99  75  62  52  40  30  16   5   7   7   7   8   4   0   0
  0   0   0   0   0   0   0   0   0   0   0   0   0   0   0   0   0   0   0   0   0   0   0   0
  0   0   0   0
  0   0   0   0   0   0   0   0   0   0   0   0   0   0   0   0   0   0   0   0   0   0   0   0
  0   0   0   2  20   0 150 209 196 201 207 205 188 172 169 161 167 154 140 141 144 161 156 154
149 147 146 145 160 150 136 141 121  99  81  64  55  43  31  18   5   7   7   7   8   4   0   0
  0   0   0   0   0   0   0   0   0   0   0   0   0   0   0   0   0   0   0   0   0   0   0   0
  0   0   0   0
  0   0   0   0   0   0   0   0   0   0   0   0   0   0   0   0   0   0   0   0   0   0   0   0
  0   0   0   2  20   0 151 209 201 207 210 205 186 176 175 169 167 159 150 145 151 163 158 161
157 155 159 167 162 151 140 138 123 108  84  67  57  45  33  21   6   7   7   7   8   4   0   0
  0   0   0   0   0   0   0   0   0   0   0   0   0   0   0   0   0   0   0   0   0   0   0   0
  0   0   0   0
  0   0   0   0   0   0   0   0   0   0   0   0   0   0   0   0   0   0   0   0   0   0   0   0
  0   0   0   2  20   0 147 207 202 209 210 199 183 182 178 168 156 164 163 149 155 163 158 162
158 156 166 177 168 153 150 147 124 106  83  70  60  48  34  23   7   7   7   7   8   4   0   0
  0   0   0   0   0   0   0   0   0   0   0   0   0   0   0   0   0   0   0   0   0   0   0   0
  0   0   0   0
  0   0   0   0   0   0   0   0   0   0   0   0   0   0   0   0   0   0   0   0   0   0   0   0
  0   0   0   1  20   0 143 206 202 204 203 191 177 182 184 166 158 177 169 158 158 163 159 166
169 168 170 174 175 166 155 145 129 100  77  72  61  48  38  25   8   6   7   7   8   4   0   0
  0   0   0   0   0   0   0   0   0   0   0   0   0   0   0   0   0   0   0   0   0   0   0   0
  0   0   0   0
  0   0   0   0   0   0   0   0   0   0   0   0   0   0   0   0   0   0   0   0   0   0   0   0
  0   0   0   1  20   0 143 208 205 203 193 186 179 174 171 155 168 179 168 167 171 168 162 168
178 179 176 174 179 173 154 140 129 102  76  73  62  50  39  26   9   6   7   7   7   3   0   0
  0   0   0   0   0   0   0   0   0   0   0   0   0   0   0   0   0   0   0   0   0   0   0   0
  0   0   0   0
  0   0   0   0   0   0   0   0   0   0   0   0   0   0   0   0   0   0   0   0   0   0   0   0
  0   0   0   1  20   0 143 208 209 208 194 183 179 173 162 150 159 168 169 170 173 167 169 171
172 181 178 170 170 169 159 147 130 109  82  72  63  52  40  26  10   6   7   7   7   4   0   0
  0   0   0   0   0   0   0   0   0   0   0   0   0   0   0   0   0   0   0   0   0   0   0   0
  0   0   0   0
  0   0   0   0   0   0   0   0   0   0   0   0   0   0   0   0   0   0   0   0   0   0   0   0
  0   0   0   1  20   0 143 206 204 204 191 184 178 174 183 165 153 161 172 168 166 163 172 174
161 179 176 170 167 163 164 163 148 122  94  76  66  53  40  28  12   5   7   7   7   4   0   0
  0   0   0   0   0   0   0   0   0   0   0   0   0   0   0   0   0   0   0   0   0   0   0   0
  0   0   0   0
  0   0   0   0   0   0   0   0   0   0   0   0   0   0   0   0   0   0   0   0   0   0   0   0
  0   0   0   2  20   0 148 206 198 192 183 182 178 175 188 176 164 164 173 170 160 158 165 178
172 168 165 165 166 158 161 164 151 131 101  77  69  55  42  29  14   5   7   7   7   4   0   0
  0   0   0   0   0   0   0   0   0   0   0   0   0   0   0   0   0   0   0   0   0   0   0   0
  0   0   0   0
  0   0   0   0   0   0   0   0   0   0   0   0   0   0   0   0   0   0   0   0   0   0   0   0
  0   0   0   2  20   0 147 208 197 185 181 179 172 172 168 163 169 172 170 164 156 154 170 185
182 168 156 149 154 157 156 156 151 137 112  86  71  56  42  30  15   5   7   7   7   4   0   0
  0   0   0   0   0   0   0   0   0   0   0   0   0   0   0   0   0   0   0   0   0   0   0   0
  0   0   0   0
  0   0   0   0   0   0   0   0   0   0   0   0   0   0   0   0   0   0   0   0   0   0   0   0
  0   0   0   2  20   0 145 207 192 182 182 176 170 165 165 161 168 173 173 166 159 161 173 179
177 178 167 152 151 153 152 159 164 147 128  99  68  55  43  32  15   5   7   6   7   4   0   0
  0   0   0   0   0   0   0   0   0   0   0   0   0   0   0   0   0   0   0   0   0   0   0   0
  0   0   0   0
  0   0   0   0   0   0   0   0   0   0   0   0   0   0   0   0   0   0   0   0   0   0   0   0
  0   0   0   1  21   0 148 210 189 185 183 176 169 162 168 181 181 177 174 166 163 164 167 174
180 185 178 165 155 146 155 158 159 142 134 113  67  55  44  31  16   4   6   6   7   3   0   0
  0   0   0   0   0   0   0   0   0   0   0   0   0   0   0   0   0   0   0   0   0   0   0   0
  0   0   0   0
  0   0   0   0   0   0   0   0   0   0   0   0   0   0   0   0   0   0   0   0   0   0   0   0
  0   0   0   2  20   0 149 207 192 184 178 177 173 172 183 190 191 186 171 156 160 165 169 178
184 186 185 173 164 150 153 158 149 137 133 122  78  54  44  31  16   4   7   6   7   3   0   0
  0   0   0   0   0   0   0   0   0   0   0   0   0   0   0   0   0   0   0   0   0   0   0   0
  0   0   0   0
  0   0   0   0   0   0   0   0   0   0   0   0   0   0   0   0   0   0   0   0   0   0   0   0
  0   0   0   2  19   0 147 198 184 181 178 178 173 173 184 186 193 188 176 170 163 162 170 176
185 182 187 184 174 161 141 138 144 134 124 120  89  53  44  32  15   5   6   6   7   3   0   0
  0   0   0   0   0   0   0   0   0   0   0   0   0   0   0   0   0   0   0   0   0   0   0   0
  0   0   0   0
  0   0   0   0   0   0   0   0   0   0   0   0   0   0   0   0   0   0   0   0   0   0   0   0
  0   0   0   2  18   0 145 192 177 181 180 178 174 170 175 184 190 187 182 180 175 160 163 175
185 186 183 184 182 173 142 132 140 130 129 119  92  55  44  32  15   4   6   6   6   3   0   0
  0   0   0   0   0   0   0   0   0   0   0   0   0   0   0   0   0   0   0   0   0   0   0   0
  0   0   0   0
  0   0   0   0   0   0   0   0   0   0   0   0   0   0   0   0   0   0   0   0   0   0   0   0
  0   0   0   2  17   0 140 188 176 178 175 173 168 161 167 183 180 175 177 183 180 169 169 169
172 185 182 178 172 170 162 156 144 134 135 125  92  55  44  30  15   4   6   6   6   3   0   0
  0   0   0   0   0   0   0   0   0   0   0   0   0   0   0   0   0   0   0   0   0   0   0   0
  0   0   0   0
  0   0   0   0   0   0   0   0   0   0   0   0   0   0   0   0   0   0   0   0   0   0   0   0
  0   0   0   2  17   0 138 189 178 176 170 166 162 154 168 183 174 169 166 180 181 171 175 176
174 183 184 174 164 165 170 162 150 131 133 124  80  53  43  29  14   4   6   6   7   3   0   0
  0   0   0   0   0   0   0   0   0   0   0   0   0   0   0   0   0   0   0   0   0   0   0   0
  0   0   0   0
  0   0   0   0   0   0   0   0   0   0   0   0   0   0   0   0   0   0   0   0   0   0   0   0
  0   0   0   2  17   0 137 190 175 170 169 160 161 164 174 176 167 183 179 175 179 163 168 195
185 180 179 169 165 165 163 151 159 147 129 117  71  55  42  28  13   4   7   6   7   3   0   0
  0   0   0   0   0   0   0   0   0   0   0   0   0   0   0   0   0   0   0   0   0   0   0   0
  0   0   0   0
  0   0   0   0   0   0   0   0   0   0   0   0   0   0   0   0   0   0   0   0   0   0   0   0
  0   0   0   1  18   0 135 188 171 167 160 161 166 172 175 168 169 181 187 179 179 176 162 167
167 169 170 172 171 171 168 153 188 192 135 100  68  56  41  27  11   5   7   6   7   3   0   0
  0   0   0   0   0   0   0   0   0   0   0   0   0   0   0   0   0   0   0   0   0   0   0   0
  0   0   0   0
  0   0   0   0   0   0   0   0   0   0   0   0   0   0   0   0   0   0   0   0   0   0   0   0
  0   0   0   1  18   0 134 184 168 159 151 161 171 170 174 178 179 168 164 170 174 183 181 166
153 154 161 167 165 168 164 147 172 181 144  87  66  55  39  26   8   6   7   6   7   3   0   0
  0   0   0   0   0   0   0   0   0   0   0   0   0   0   0   0   0   0   0   0   0   0   0   0
  0   0   0   0
  0   0   0   0   0   0   0   0   0   0   0   0   0   0   0   0   0   0   0   0   0   0   0   0
  0   0   0   1  17   0 134 182 170 168 160 162 168 167 176 184 181 172 168 166 172 170 180 186
172 152 155 160 155 152 152 147 157 166 137  76  69  52  36  24   6   6   7   7   7   4   0   0
  0   0   0   0   0   0   0   0   0   0   0   0   0   0   0   0   0   0   0   0   0   0   0   0
  0   0   0   0
  0   0   0   0   0   0   0   0   0   0   0   0   0   0   0   0   0   0   0   0   0   0   0   0
  0   0   0   1  17   0 133 186 173 169 164 155 161 171 183 185 182 183 180 157 161 170 175 186
180 161 155 162 161 143 138 151 161 168 131  80  71  48  35  20   5   7   7   7   7   4   0   0
  0   0   0   0   0   0   0   0   0   0   0   0   0   0   0   0   0   0   0   0   0   0   0   0
  0   0   0   0
  0   0   0   0   0   0   0   0   0   0   0   0   0   0   0   0   0   0   0   0   0   0   0   0
  0   0   0   1  18   0 131 185 175 168 158 178 176 177 183 184 179 180 183 166 155 167 181 185
177 159 152 159 162 144 133 150 151 159 149  99  60  44  32  14   4   7   7   7   7   4   0   0
  0   0   0   0   0   0   0   0   0   0   0   0   0   0   0   0   0   0   0   0   0   0   0   0
  0   0   0   0
  0   0   0   0   0   0   0   0   0   0   0   0   0   0   0   0   0   0   0   0   0   0   0   0
  0   0   0   1  16   0 129 178 172 173 163 177 197 189 170 169 170 172 174 176 175 170 177 177
174 162 152 144 144 135 129 137 131 141 152 102  46  43  29   7   5   7   6   6   7   3   0   0
  0   0   0   0   0   0   0   0   0   0   0   0   0   0   0   0   0   0   0   0   0   0   0   0
  0   0   0   0
  0   0   0   0   0   0   0   0   0   0   0   0   0   0   0   0   0   0   0   0   0   0   0   0
  0   0   0   1  17   0 131 186 178 170 161 157 170 172 169 167 169 172 165 171 180 183 179 169
160 156 151 151 141 135 139 134 130 136 132  83  46  40  21   3   6   6   7   7   7   3   0   0
  0   0   0   0   0   0   0   0   0   0   0   0   0   0   0   0   0   0   0   0   0   0   0   0
  0   0   0   0
  0   0   0   0   0   0   0   0   0   0   0   0   0   0   0   0   0   0   0   0   0   0   0   0
  0   0   0   1  17   0 130 184 174 169 164 163 163 165 171 175 178 179 177 177 178 183 177 162
147 141 145 154 134 127 144 142 143 131 106  72  50  30  10   5   6   6   7   7   7   4   0   0
  0   0   0   0   0   0   0   0   0   0   0   0   0   0   0   0   0   0   0   0   0   0   0   0
  0   0   0   0
  0   0   0   0   0   0   0   0   0   0   0   0   0   0   0   0   0   0   0   0   0   0   0   0
  0   0   0   1  17   0 129 182 168 166 166 166 171 169 168 166 167 168 172 176 175 166 161 160
149 140 139 134 123 127 135 148 151 132 101  78  46  20   5   6   6   6   7   7   8   4   0   0
  0   0   0   0   0   0   0   0   0   0   0   0   0   0   0   0   0   0   0   0   0   0   0   0
  0   0   0   0
  0   0   0   0   0   0   0   0   0   0   0   0   0   0   0   0   0   0   0   0   0   0   0   0
  0   0   0   1  18   0 133 191 177 165 164 170 176 168 160 160 149 149 157 165 163 162 159 148
146 149 149 138 119 131 145 157 164 141 114  92  40   6   7   6   6   6   7   7   8   4   0   0
  0   0   0   0   0   0   0   0   0   0   0   0   0   0   0   0   0   0   0   0   0   0   0   0
  0   0   0   0
  0   0   0   0   0   0   0   0   0   0   0   0   0   0   0   0   0   0   0   0   0   0   0   0
  0   0   0   1  15   0 126 180 179 177 173 170 176 171 153 145 133 136 150 152 147 148 151 144
145 144 147 151 141 141 157 159 154 138 113  68  15   5   7   6   6   7   7   7   7   3   0   0
  0   0   0   0   0   0   0   0   0   0   0   0   0   0   0   0   0   0   0   0   0   0   0   0
  0   0   0   0
  0   0   0   0   0   0   0   0   0   0   0   0   0   0   0   0   0   0   0   0   0   0   0   0
  0   0   0   1  15   0 125 176 169 174 174 166 159 157 152 148 138 133 137 141 139 130 129 133
140 143 136 137 145 150 151 154 142 126  87  27   5   7   6   6   6   6   6   7   7   4   0   0
  0   0   0   0   0   0   0   0   0   0   0   0   0   0   0   0   0   0   0   0   0   0   0   0
  0   0   0   0
  0   0   0   0   0   0   0   0   0   0   0   0   0   0   0   0   0   0   0   0   0   0   0   0
  0   0   0   1  17   0 130 180 167 166 162 156 145 142 149 151 141 135 132 127 129 120 117 130
138 152 157 157 156 150 143 140 135 105  54  11   6   6   6   6   6   6   7   7   7   4   0   0
  0   0   0   0   0   0   0   0   0   0   0   0   0   0   0   0   0   0   0   0   0   0   0   0
  0   0   0   0
  0   0   0   0   0   0   0   0   0   0   0   0   0   0   0   0   0   0   0   0   0   0   0   0
  0   0   0   1  15   0 126 179 175 173 161 151 142 138 137 138 139 134 129 129 127 120 119 130
149 163 164 191 233 176 126 125 110  68  29   4   6   6   6   6   6   6   7   7   7   4   0   0
  0   0   0   0   0   0   0   0   0   0   0   0   0   0   0   0   0   0   0   0   0   0   0   0
  0   0   0   0
  0   0   0   0   0   0   0   0   0   0   0   0   0   0   0   0   0   0   0   0   0   0   0   0
  0   0   0   1  16   0 130 178 169 175 169 158 145 141 137 135 142 148 137 133 126 120 130 130
136 155 146 165 210 155 117 112  71  33  10   6   5   6   6   6   6   6   6   6   7   4   0   0
  0   0   0   0   0   0   0   0   0   0   0   0   0   0   0   0   0   0   0   0   0   0   0   0
  0   0   0   0
  0   0   0   0   0   0   0   0   0   0   0   0   0   0   0   0   0   0   0   0   0   0   0   0
  0   0   0   1  16   0 127 177 167 165 162 161 151 146 141 137 137 143 142 131 128 127 133 139
127 127 121 111  96  97 104  75  26   6   6   5   6   6   6   6   6   6   7   7   8   4   0   0
  0   0   0   0   0   0   0   0   0   0   0   0   0   0   0   0   0   0   0   0   0   0   0   0
  0   0   0   0
  0   0   0   0   0   0   0   0   0   0   0   0   0   0   0   0   0   0   0   0   0   0   0   0
  0   0   0   1  15   0 126 175 170 168 159 161 155 147 148 151 150 149 156 157 154 147 141 136
125 110 100  90  79  72  64  35   3   7   6   5   6   6   6   6   6   6   7   7   7   4   0   0
  0   0   0   0   0   0   0   0   0   0   0   0   0   0   0   0   0   0   0   0   0   0   0   0
  0   0   0   0
  0   0   0   0   0   0   0   0   0   0   0   0   0   0   0   0   0   0   0   0   0   0   0   0
  0   0   0   1  15   0 124 176 175 169 168 185 159 136 137 141 147 146 140 149 145 131 123 109
 99  87  78  71  62  49  36  11   5   7   5   6   6   6   6   6   6   7   7   7   8   4   0   0
  0   0   0   0   0   0   0   0   0   0   0   0   0   0   0   0   0   0   0   0   0   0   0   0
  0   0   0   0
  0   0   0   0   0   0   0   0   0   0   0   0   0   0   0   0   0   0   0   0   0   0   0   0
  0   0   0   1  14   0 116 167 164 160 165 179 158 139 136 132 135 130 124 118 109 105 103  94
 94  81  65  56  47  39  21   3   7   6   6   6   6   6   6   6   6   7   7   7   8   4   0   0
  0   0   0   0   0   0   0   0   0   0   0   0   0   0   0   0   0   0   0   0   0   0   0   0
  0   0   0   0
  0   0   0   0   0   0   0   0   0   0   0   0   0   0   0   0   0   0   0   0   0   0   0   0
  0   0   0   1  14   0 122 167 154 155 146 137 135 128 122 120 121 119 122 113 102 101  96  91
 82  68  58  47  39  29   6   5   6   6   6   6   6   6   6   7   7   6   7   7   7   4   0   0
  0   0   0   0   0   0   0   0   0   0   0   0   0   0   0   0   0   0   0   0   0   0   0   0
  0   0   0   0
  0   0   0   0   0   0   0   0   0   0   0   0   0   0   0   0   0   0   0   0   0   0   0   0
  0   0   0   1  15   0 121 166 152 154 144 130 126 121 123 121 117 112 111 113 103  95  88  82
 71  59  49  38  31  12   4   6   6   6   6   6   6   6   6   8   7   7   7   7   8   4   0   0
  0   0   0   0   0   0   0   0   0   0   0   0   0   0   0   0   0   0   0   0   0   0   0   0
  0   0   0   0
  0   0   0   0   0   0   0   0   0   0   0   0   0   0   0   0   0   0   0   0   0   0   0   0
  0   0   0   1  13   0 109 162 155 149 144 134 125 122 121 123 116 104 101 105 102  91  80  73
 64  51  39  29  16   4   6   6   6   6   6   6   6   6   6   7   7   7   7   7   8   4   0   0
  0   0   0   0   0   0   0   0   0   0   0   0   0   0   0   0   0   0   0   0   0   0   0   0
  0   0   0   0
  0   0   0   0   0   0   0   0   0   0   0   0   0   0   0   0   0   0   0   0   0   0   0   0
  0   0   0   1  12   0 103 153 149 140 134 134 125 124 117 112 110 107 102  95  93  84  71  59
 47  37  28  16   5   6   6   6   6   6   6   6   6   6   6   7   6   7   7   7   7   4   0   0
  0   0   0   0   0   0   0   0   0   0   0   0   0   0   0   0   0   0   0   0   0   0   0   0
  0   0   0   0
  0   0   0   0   0   0   0   0   0   0   0   0   0   0   0   0   0   0   0   0   0   0   0   0
  0   0   0   1  11   0 102 144 136 133 126 124 125 125 120 109 106 104  99  88  80  68  54  43
 34  27  16   5   6   6   6   6   6   6   6   6   6   6   7   7   6   7   7   7   7   4   0   0
  0   0   0   0   0   0   0   0   0   0   0   0   0   0   0   0   0   0   0   0   0   0   0   0
  0   0   0   0
  0   0   0   0   0   0   0   0   0   0   0   0   0   0   0   0   0   0   0   0   0   0   0   0
  0   0   0   1   9   0 100 138 132 133 126 117 117 117 117 104  96  91  83  74  66  51  39  34
 26  15   5   5   6   6   6   6   6   6   6   6   6   7   7   7   7   7   7   7   7   4   0   0
  0   0   0   0   0   0   0   0   0   0   0   0   0   0   0   0   0   0   0   0   0   0   0   0
  0   0   0   0
  0   0   0   0   0   0   0   0   0   0   0   0   0   0   0   0   0   0   0   0   0   0   0   0
  0   0   0   1   9   0  98 138 131 132 127 116 112 109 105  93  83  75  69  60  50  43  34  24
 11   4   5   6   6   6   6   6   6   6   6   6   6   7   7   7   7   7   7   7   8   4   0   0
  0   0   0   0   0   0   0   0   0   0   0   0   0   0   0   0   0   0   0   0   0   0   0   0
  0   0   0   0
  0   0   0   0   0   0   0   0   0   0   0   0   0   0   0   0   0   0   0   0   0   0   0   0
  0   0   0   1   9   0  99 136 126 135 126 112 110 101  92  81  69  59  54  45  35  29  19   6
  3   5   5   5   6   6   6   6   6   6   6   6   6   6   7   7   6   7   7   7   7   4   0   0
  0   0   0   0   0   0   0   0   0   0   0   0   0   0   0   0   0   0   0   0   0   0   0   0
  0   0   0   0
  0   0   0   0   0   0   0   0   0   0   0   0   0   0   0   0   0   0   0   0   0   0   0   0
  0   0   0   1  10   0  99 136 127 136 124 110 105  88  74  66  55  49  43  33  25  13   3   4
  5   5   5   5   6   5   6   6   6   6   6   6   6   6   6   7   6   6   7   7   7   4   0   0
  0   0   0   0   0   0   0   0   0   0   0   0   0   0   0   0   0   0   0   0   0   0   0   0
  0   0   0   0
  0   0   0   0   0   0   0   0   0   0   0   0   0   0   0   0   0   0   0   0   0   0   0   0
  0   0   0   1  11   0 104 144 134 129 112 108  98  74  63  55  47  40  28  15   6   3   5   5
  5   5   5   5   6   6   6   6   6   6   6   6   6   6   7   7   6   7   7   7   8   4   0   0
  0   0   0   0   0   0   0   0   0   0   0   0   0   0   0   0   0   0   0   0   0   0   0   0
  0   0   0   0
  0   0   0   0   0   0   0   0   0   0   0   0   0   0   0   0   0   0   0   0   0   0   0   0
  0   0   0   1  11   0 101 144 129 117 117 122  90  61  53  40  27  13   4   4   5   5   5   5
  5   5   8   8   5   6   5   6   6   6   6   6   6   6   7   7   7   7   7   7   8   4   0   0
  0   0   0   0   0   0   0   0   0   0   0   0   0   0   0   0   0   0   0   0   0   0   0   0
  0   0   0   0
  0   0   0   0   0   0   0   0   0   0   0   0   0   0   0   0   0   0   0   0   0   0   0   0
  0   0   0   1  10   0  94 138 126 132 135 106  54  28  18   4   1   3   5   6   5   5   5   5
  5   5   6   6   5   6   6   6   6   6   6   6   6   6   7   7   7   7   7   7   8   4   0   0
  0   0   0   0   0   0   0   0   0   0   0   0   0   0   0   0   0   0   0   0   0   0   0   0
  0   0   0   0
  0   0   0   0   0   0   0   0   0   0   0   0   0   0   0   0   0   0   0   0   0   0   0   0
  0   0   0   0   8   0  88 124 111 110  82  18   0   2   3   5   7   6   6   6   6   5   5   5
  5   5   5   5   6   6   6   6   6   6   6   6   6   6   6   7   7   7   7   7   8   4   0   0
  0   0   0   0   0   0   0   0   0   0   0   0   0   0   0   0   0   0   0   0   0   0   0   0
  0   0   0   0
  0   0   0   0   0   0   0   0   0   0   0   0   0   0   0   0   0   0   0   0   0   0   0   0
  0   0   0   0   5   0  72  98  72  55  11   0  10   8   7   6   5   5   6   6   6   5   5   5
  5   9   5   5   6   6   6   6   6   6   6   5   6   6   6   6   6   7   7   7   8   4   0   0
  0   0   0   0   0   0   0   0   0   0   0   0   0   0   0   0   0   0   0   0   0   0   0   0
  0   0   0   0
  0   0   0   0   0   0   0   0   0   0   0   0   0   0   0   0   0   0   0   0   0   0   0   0
  0   0   0   0   3   0  58  76  51  37  17   8   6   6   6   5   5   5   6   6   6   5   5   5
  6   6   5   6   6   6   6   6   6   6   6   6   6   6   6   6   6   7   7   7   8   4   0   0
  0   0   0   0   0   0   0   0   0   0   0   0   0   0   0   0   0   0   0   0   0   0   0   0
  0   0   0   0
  0   0   0   0   0   0   0   0   0   0   0   0   0   0   0   0   0   0   0   0   0   0   0   0
  0   0   0   0   2   0  54  64  40  30   8   4   6   6   6   5   5   5   6   6   6   6   5   5
  5   5   5   6   6   6   6   6   6   6   6   6   7   6   6   6   6   7   7   7   8   4   0   0
  0   0   0   0   0   0   0   0   0   0   0   0   0   0   0   0   0   0   0   0   0   0   0   0
  0   0   0   0
  0   0   0   0   0   0   0   0   0   0   0   0   0   0   0   0   0   0   0   0   0   0   0   0
  0   0   0   0   1   0  48  53  33  25   5   5   6   6   5   6   6   5   6   6   6   6   5   5
  5   5   5   5   6   6   6   6   6   6   6   6   6   6   6   6   7   7   7   7   8   4   0   0
  0   0   0   0   0   0   0   0   0   0   0   0   0   0   0   0   0   0   0   0   0   0   0   0
  0   0   0   0
  0   0   0   0   0   0   0   0   0   0   0   0   0   0   0   0   0   0   0   0   0   0   0   0
  0   0   0   0   1   0  38  48  32  25   4   5   6   6   6   6   6   6   6   6   6   6   6   5
  5   5   6   6   6   6   6   6   6   6   6   6   6   6   6   6   6   7   7   7   7   4   0   0
  0   0   0   0   0   0   0   0   0   0   0   0   0   0   0   0   0   0   0   0   0   0   0   0
  0   0   0   0
  0   0   0   0   0   0   0   0   0   0   0   0   0   0   0   0   0   0   0   0   0   0   0   0
  0   0   0   0   1   0  37  47  32  23   5   5   6   6   6   6   5   6   6   6   6   6   5   5
  5   5   5   6   6   6   6   6   5   6   6   6   6   6   6   7   6   7   7   7   7   4   0   0
  0   0   0   0   0   0   0   0   0   0   0   0   0   0   0   0   0   0   0   0   0   0   0   0
  0   0   0   0
  0   0   0   0   0   0   0   0   0   0   0   0   0   0   0   0   0   0   0   0   0   0   0   0
  0   0   0   0   1   0  38  48  31  19   4   6   6   6   6   6   6   5   5   5   5   5   5   5
  5   5   5   6   6   6   6   5   6   6   6   6   6   6   7   7   6   6   7   7   7   3   0   0
  0   0   0   0   0   0   0   0   0   0   0   0   0   0   0   0   0   0   0   0   0   0   0   0
  0   0   0   0
  0   0   0   0   0   0   0   0   0   0   0   0   0   0   0   0   0   0   0   0   0   0   0   0
  0   0   0   0   1   0  37  47  31  15   3   7   6   6   6   5   5   5   5   5   5   5   5   5
  5   5   5   5   5   6   6   6   6   6   6   7   7   7   7   7   7   7   7   7   7   4   0   0
  0   0   0   0   0   0   0   0   0   0   0   0   0   0   0   0   0   0   0   0   0   0   0   0
  0   0   0   0
  0   0   0   0   0   0   0   0   0   0   0   0   0   0   0   0   0   0   0   0   0   0   0   0
  0   0   0   0   1   0  37  48  32   8   5   7   6   6   5   5   5   5   5   5   5   5   5   5
  5   5   5   6   7   6   6   6   7   7   7   7   7   7   7   7   7   7   7   7   7   3   0   0
  0   0   0   0   0   0   0   0   0   0   0   0   0   0   0   0   0   0   0   0   0   0   0   0
  0   0   0   0
  0   0   0   0   0   0   0   0   0   0   0   0   0   0   0   0   0   0   0   0   0   0   0   0
  0   0   0   0   1   0  36  50  33   1   6   6   6   6   6   5   5   5   5   5   5   5   5   5
  5   5   6   7   8   6   7   7   7   7   7   6   6   7   7   7   7   6   7   7   7   3   0   0
  0   0   0   0   0   0   0   0   0   0   0   0   0   0   0   0   0   0   0   0   0   0   0   0
  0   0   0   0
  0   0   0   0   0   0   0   0   0   0   0   0   0   0   0   0   0   0   0   0   0   0   0   0
  0   0   0   0   1   0  36  50  29   1   6   6   6   6   6   5   5   5   5   5   5   5   5   5
  5   6   7   7   7   7   7   6   6   6   6   6   6   6   7   7   7   7   7   7   7   3   0   0
  0   0   0   0   0   0   0   0   0   0   0   0   0   0   0   0   0   0   0   0   0   0   0   0
  0   0   0   0
  0   0   0   0   0   0   0   0   0   0   0   0   0   0   0   0   0   0   0   0   0   0   0   0
  0   0   0   0   1   0  37  48  24   2   6   7   6   6   5   4   5   5   5   5   5   5   5   5
  6   6   7   7   7   7   6   6   6   6   5   6   5   6   6   6   6   6   7   6   7   3   0   0
  0   0   0   0   0   0   0   0   0   0   0   0   0   0   0   0   0   0   0   0   0   0   0   0
  0   0   0   0
  0   0   0   0   0   0   0   0   0   0   0   0   0   0   0   0   0   0   0   0   0   0   0   0
  0   0   0   0   1   0  38  47  22   3   7   7   6   6   5   5   4   4   5   5   5   5   5   5
  5   6   7   7   7   7   6   6   6   6   5   5   5   6   6   6   6   6   6   6   7   3   0   0
  0   0   0   0   0   0   0   0   0   0   0   0   0   0   0   0   0   0   0   0   0   0   0   0
  0   0   0   0
  0   0   0   0   0   0   0   0   0   0   0   0   0   0   0   0   0   0   0   0   0   0   0   0
  0   0   0   0   1   0  38  47  21   3   7   7   6   6   6   5   4   4   5   5   5   6   6   6
  6   6   7   7   7   7   6   6   6   6   6   6   6   6   6   6   6   6   6   7   7   3   0   0
  0   0   0   0   0   0   0   0   0   0   0   0   0   0   0   0   0   0   0   0   0   0   0   0
  0   0   0   0
