P2
# 8-bit pgm gray
100 100
255
  0   0   0   0   0   0   0   0   0   0   0   0   0   0   0   0   0   0   0   0   0   0   0   1
  7   0   0   0   4   0  63  90  86  86  86  87  87  87  89  89  90  91  91  91  89  88  87  84
 81  74  60  54  60  67  77  85  93 104 119 124 127 129 131 134 140 142 159 184 193 199 203 206
208 210 212 214 215 216 216 214 221 189   0   0  12   0   0   0   0   0   0   0   0   0   0   0
  0   0   0   0
  0   0   0   0   0   0   0   0   0   0   0   0   0   0   0   0   0   0   0   0   0   0   0   0
  0   0   0   0   0   7   0   0   0   0   0   0   0   0   0   0   0   0   0   0   0   0   0   0
  0   0  12  36  54  69  81  91 103 120 130 133 137 140 146 151 156 156 165 196 210 217 223 227
229 231 234 235 236 238 238 236 243 208   0   0  14   0   0   0   0   0   0   0   0   0   0   0
  0   0   0   0
  0   0   0   0   0   0   0   0   0   0   0   0   0   0   0   0   0   0   0   0   0   0   0   0
  0   0   0   0   0   0  13  23  22  22  22  22  22  22  23  23  23  24  23  24  23  23  24  25
 27  31  37  46  58  70  78  92 109 116 121 126 131 138 143 145 147 147 151 181 202 207 213 220
223 225 227 228 230 231 231 229 236 202   0   0  13   0   0   0   0   0   0   0   0   0   0   0
  0   0   0   0
  0   0   0   0   0   0   0   0   0   0   0   0   0   0   0   0   0   0   0   0   0   0   0   0
  0   0   0   0   0   0   0   0   0   0   0   0   0   0   0   0   0   0   0   0   0   0   0  12
 18  25  36  48  60  74  85  96 112 119 120 126 132 138 138 141 144 147 149 171 197 207 214 220
223 226 227 229 231 232 232 230 237 202   0   0  13   0   0   0   0   0   0   0   0   0   0   0
  0   0   0   0
  0   0   0   0   0   0   0   0   0   0   0   0   0   0   0   0   0   0   0   0   0   0   0   0
  0   0   0   0   0   0   0   0   0   0   0   0   0   0   0   0   0   1   2   1   0   2   7  13
 21  30  41  53  65  76  87  99 111 116 119 124 129 132 137 141 144 146 151 166 191 205 212 218
222 224 226 228 230 231 232 230 237 202   0   0  13   0   0   0   0   0   0   0   0   0   0   0
  0   0   0   0
  0   0   0   0   0   0   0   0   0   0   0   0   0   0   0   0   0   0   0   0   0   0   0   0
  0   0   0   0   0   0   0   0   0   0   0   0   0   0   0   0   0   0   0   0   0   4  10  17
 25  36  47  58  69  79  91 104 116 119 123 128 129 134 137 139 143 148 150 160 183 201 210 215
220 223 226 227 229 230 231 230 237 203   0   0  13   0   0   0   0   0   0   0   0   0   0   0
  0   0   0   0
  0   0   0   0   0   0   0   0   0   0   0   0   0   0   0   0   0   0   0   0   0   0   0   0
  0   0   0   0   0   0   0   0   0   0   0   0   0   0   0   0   0   0   0   0   1   6  13  21
 29  40  53  65  75  85  95 105 119 120 122 127 127 134 137 143 148 151 149 155 175 197 208 214
219 223 225 228 229 230 232 229 236 202   0   0  13   0   0   0   0   0   0   0   0   0   0   0
  0   0   0   0
  0   0   0   0   0   0   0   0   0   0   0   0   0   0   0   0   0   0   0   0   0   0   0   0
  0   0   0   0   0   0   0   0   0   0   0   0   0   0   0   0   0   0   0   0   4  10  17  25
 35  45  56  69  81  92 102 112 118 119 122 126 129 133 140 146 147 146 147 150 164 186 204 211
217 222 225 227 227 229 231 228 236 202   0   0  13   0   0   0   0   0   0   0   0   0   0   0
  0   0   0   0
  0   0   0   0   0   0   0   0   0   0   0   0   0   0   0   0   0   0   0   0   0   0   0   0
  0   0   0   0   0   0   0   0   0   0   0   0   0   0   0   0   0   0   0   2   7  14  22  30
 40  52  64  74  86  96 108 113 115 118 122 128 133 134 139 141 139 141 143 146 156 177 199 211
216 220 223 224 226 228 230 228 236 201   0   0  13   0   0   0   0   0   0   0   0   0   0   0
  0   0   0   0
  0   0   0   0   0   0   0   0   0   0   0   0   0   0   0   0   0   0   0   0   0   0   2   2
  0   0   0   0   0   0   0   0   0   0   0   0   0   0   0   0   0   0   2   5  10  18  26  36
 47  58  71  82  91 101 109 110 113 118 124 131 132 137 141 140 141 143 143 143 150 173 194 208
215 219 221 223 226 228 228 228 236 202   0   0  13   0   0   0   0   0   0   0   0   0   0   0
  0   0   0   0
  0   0   0   0   0   0   0   0   0   0   0   0   0   0   0   0   0   0   0   0   0   5  24  11
  0   0   0   5   2   0   0   0   0   0   0   0   0   0   0   0   0   1   3   7  14  23  32  42
 53  66  76  85  93 102 110 113 118 124 125 129 133 138 137 138 139 139 139 144 148 166 187 205
214 217 221 223 225 226 228 227 236 202   0   0  13   0   0   0   0   0   0   0   0   0   0   0
  0   0   0   0
  0   0   0   0   0   0   0   0   0   0   0   0   0   0   0   0   0   0   0   0   0   4  21   7
  0   1   0  16  10   0   0   0   0   0   0   0   0   0   0   0   0   2   5  11  19  27  36  47
 58  70  80  90  97 104 111 115 126 132 127 130 135 134 134 134 137 141 143 149 151 160 180 196
209 215 220 223 224 226 227 226 235 201   0   0  13   0   0   0   0   0   0   0   0   0   0   0
  0   0   0   0
  0   0   0   0   0   0   0   0   0   0   0   0   0   0   0   0   0   0   0   0   0   0  20  21
  0   1   0  15  14   0   0   0   1   0   0   0   0   0   0   0   1   4   9  16  24  34  44  56
 65  77  89  98 104 111 119 124 128 133 136 137 134 135 137 138 141 144 146 148 147 149 170 188
203 215 219 221 223 224 226 226 234 200   0   0  13   0   0   0   0   0   0   0   0   0   0   0
  0   0   0   0
  0   0   0   0   0   0   0   0   0   0   0   0   0   0   0   0   0   0   0   0   0   1  15  10
  0   0   0   6   8   0   0   0   0   0   0   0   0   0   0   1   3   7  13  22  30  40  50  62
 71  82  94 105 114 121 122 124 129 135 136 135 136 138 136 137 139 139 138 142 143 144 162 184
199 211 217 219 221 222 225 225 234 201   0   0  13   0   0   0   0   0   0   0   0   0   0   0
  0   0   0   0
  0   0   0   0   0   0   0   0   0   0   0   0   0   0   0   0   0   0   0   0   0   0   0   0
  1   2   0   0   0   0   0   0   0   0   0   0   0   0   0   2   5  10  16  24  35  45  54  64
 74  83  92 104 115 121 122 125 129 127 126 127 129 131 130 131 134 136 137 141 145 146 154 177
193 205 213 218 220 223 225 225 234 200   0   0  13   0   0   0   0   0   0   0   0   0   0   0
  0   0   0   0
  0   0   0   0   0   0   0   0   0   0   0   0   0   0   0   0   0   0   0   0   0   0   0   0
  1   5   0   0   0   0   0   0   0   0   0   0   0   0   1   4   8  14  21  29  40  50  60  71
 80  88  97 105 116 122 124 125 123 120 124 129 131 130 128 131 136 137 137 141 143 143 146 167
187 200 210 215 220 222 225 224 233 200   0   0  13   0   0   0   0   0   0   0   0   0   0   0
  0   0   0   0
  0   0   0   0   0   0   0   0   0   0   0   0   0   0   0   0   0   0   0   0   0   0   0   0
  0   0   0   0   0   0   0   0   0   0   0   0   0   0   3   7  11  17  25  34  46  56  66  75
 85  93 101 109 116 121 122 123 121 122 125 128 129 128 130 133 135 134 136 137 140 143 141 157
181 195 206 212 219 223 225 223 233 200   0   0  13   0   0   0   0   0   0   0   0   0   0   0
  0   0   0   0
  0   0   0   0   0   0   0   0   0   0   0   0   0   0   0   0   0   0   0   0   0   0   0   0
  0   0   0   0   0   0   0   0   0   0   0   0   0   2   5  10  15  21  30  39  49  59  69  78
 86  97 103 109 115 116 118 121 123 126 125 126 128 128 129 132 129 133 137 137 139 140 143 151
175 189 202 210 216 221 224 222 231 198   0   0  13   0   0   0   0   0   0   0   0   0   0   0
  0   0   0   0
  0   0   0   0   0   0   0   0   0   0   0   0   0   0   0   0   0   0   0   0   0   0   0   0
  0   0   0   0   0   0   0   0   0   0   0   0   2   5   8  13  18  27  35  44  53  63  75  85
 96 109 113 113 116 116 117 121 123 125 125 125 126 129 129 129 131 135 136 138 139 140 142 147
167 185 195 207 212 218 222 222 231 198   0   0  13   0   0   0   0   0   0   0   0   0   0   0
  0   0   0   0
  0   0   0   0   0   0   0   0   0   0   0   0   0   0   0   0   0   0   0   0   0   0   0   0
  0   0   0   0   0   0   0   0   0   0   0   0   3   7  10  16  22  31  40  50  61  71  80  89
 97 115 122 120 119 122 124 124 123 124 125 125 126 128 128 128 132 131 132 134 138 141 140 144
159 180 189 200 210 215 221 222 232 199   0   0  13   0   0   0   0   0   0   0   0   0   0   0
  0   0   0   0
  0   0   0   0   0   0   0   0   0   0   0   0   0   0   0   0   0   0   0   0   0   0   0   0
  0   0   0   0   0   0   0   0   0   0   0   2   5  10  15  21  29  38  49  59  69  78  86  94
105 118 120 119 123 129 127 126 125 127 128 126 127 128 127 131 131 130 130 134 138 140 142 143
153 174 187 195 206 213 219 222 232 198   0   0  13   0   0   0   0   0   0   0   0   0   0   0
  0   0   0   0
  0   0   0   0   0   0   0   0   0   0   0   0   0   0   0   0   0   0   0   0   0   0   0   0
  0   0   0   0   0   0   0   0   0   0   1   4   8  13  19  26  35  45  55  65  74  82  90 101
119 120 116 120 126 125 124 126 128 125 123 125 127 129 129 130 130 129 132 136 138 139 142 143
147 165 183 193 201 211 216 219 231 198   0   0  13   0   0   0   0   0   0   0   0   0   0   0
  0   0   0   0
  0   0   0   0   0   0   0   0   0   0   0   0   0   0   0   0   0   0   0   0   0   0   0   0
  0   0   0   0   0   0   0   0   0   0   2   6  11  17  23  31  40  51  60  68  77  86  95 107
119 121 121 123 126 128 124 126 128 124 124 125 126 128 127 128 130 133 136 135 137 140 141 145
146 158 181 191 195 205 213 217 232 199   0   0  13   0   0   0   0   0   0   0   0   0   0   0
  0   0   0   0
  0   0   0   0   0   0   0   0   0   0   0   0   0   0   0   0   0   0   0   0   0   0   0   0
  0   0   0   0   0   0   0   0   0   1   4   9  14  20  28  36  46  56  65  74  82  91 100 112
120 120 122 124 127 124 124 123 125 126 124 125 128 128 129 130 132 133 132 135 136 136 142 147
148 154 174 185 191 202 214 216 229 198   0   0  13   0   0   0   0   0   0   0   0   0   0   0
  0   0   0   0
  0   0   0   0   0   0   0   0   0   0   0   0   0   0   0   0   0   0   0   0   0   0   0   0
  0   0   0   0   0   0   0   0   0   3   6  11  18  25  34  42  51  62  73  81  89  95 106 121
122 122 124 124 125 122 122 122 126 127 125 127 128 128 129 129 129 129 132 135 135 137 142 146
149 151 167 183 191 200 210 214 228 200   0   0  13   0   0   0   0   0   0   0   0   0   0   0
  0   0   0   0
  0   0   0   0   0   0   0   0   0   0   0   0   0   0   0   0   0   0   0   0   0   0   0   0
  0   0   0   0   0   0   0   0   2   5   9  15  21  30  40  48  57  67  78  86  95 103 114 120
122 124 121 120 122 123 122 124 124 125 125 124 125 128 126 129 131 131 133 135 135 136 140 147
150 154 163 180 189 196 207 214 230 200   0   0  13   0   0   0   0   0   0   0   0   0   0   0
  0   0   0   0
  0   0   0   0   0   0   0   0   0   0   0   0   0   0   0   0   0   0   0   0   0   0   0   0
  0   0   0   0   0   0   0   1   3   7  12  18  25  34  42  52  63  71  77  89  99 110 120 120
122 122 124 125 125 126 125 124 122 124 125 125 124 127 130 131 132 130 132 133 135 136 139 143
150 150 155 170 187 195 203 209 225 196   0   0  12   0   0   0   0   0   0   0   0   0   0   0
  0   0   0   0
  0   0   0   0   0   0   0   0   0   0   0   0   0   0   0   0   0   0   0   0   0   0   0   0
  0   0   0   0   0   0   0   1   5  10  15  21  29  38  48  59  69  80  90 101 108 113 121 125
125 126 128 131 131 128 124 124 125 126 129 128 128 128 132 132 131 131 135 137 136 138 143 145
146 147 153 165 182 191 198 203 220 191   0   0  12   0   0   0   0   0   0   0   0   0   0   0
  0   0   0   0
  0   0   0   0   0   0   0   0   0   0   0   0   0   0   0   0   0   0   0   0   0   0   0   0
  0   0   0   0   0   0   0   3   7  12  19  26  35  45  56  66  76  87  99 106 117 122 126 129
128 126 124 128 130 130 132 129 130 133 130 129 131 129 132 132 131 133 135 134 136 142 144 144
146 150 155 160 175 188 195 201 216 189   0   0  12   0   0   0   0   0   0   0   0   0   0   0
  0   0   0   0
  0   0   0   0   0   0   0   0   0   0   0   0   0   0   0   0   0   0   0   0   0   0   0   0
  0   0   0   0   0   0   1   4   9  15  22  30  40  52  63  73  82  94 104 111 118 122 124 123
125 124 122 126 128 132 133 131 128 128 131 132 131 132 133 130 134 139 137 137 140 143 144 148
151 150 151 155 170 184 193 198 215 189   0   0  12   0   0   0   0   0   0   0   0   0   0   0
  0   0   0   0
  0   0   0   0   0   0   0   0   0   0   0   0   0   0   0   0   0   0   0   0   0   0   0   0
  0   0   0   0   0   0   2   6  12  18  27  37  47  57  68  76  86  99 107 114 113 115 116 116
125 126 125 128 133 136 132 130 128 127 129 130 133 133 133 135 138 139 140 140 142 143 143 148
151 150 150 154 164 177 190 197 213 186   0   0  11   0   0   0   0   0   0   0   0   0   0   0
  0   0   0   0
  0   0   0   0   0   0   0   0   0   0   0   0   0   0   0   0   0   0   0   0   0   0   0   0
  0   0   0   0   0   1   4   9  16  23  33  42  51  60  69  79  91  99 105 110 112 116 119 119
119 126 130 131 137 138 139 137 135 133 134 134 136 137 134 132 132 138 143 141 144 141 143 148
146 146 149 153 159 169 184 195 210 183   0   0  11   0   0   0   0   0   0   0   0   0   0   0
  0   0   0   0
  0   0   0   0   0   0   0   0   0   0   0   0   0   0   0   0   0   0   0   0   0   0   0   0
  0   0   0   0   0   2   6  12  18  25  35  43  53  64  75  87  95 101 108 113 117 118 120 119
122 131 127 133 139 140 143 146 144 139 139 138 137 133 132 131 135 140 140 140 144 144 145 143
142 143 144 150 156 163 176 188 204 180   0   0  10   0   0   0   0   0   0   0   0   0   0   0
  0   0   0   0
  0   0   0   0   0   0   0   0   0   0   0   0   0   0   0   0   0   0   0   0   0   0   0   0
  0   0   0   0   1   4   8  14  21  28  38  48  60  71  82  94 101 107 111 115 117 120 120 120
125 134 140 144 144 146 145 145 144 142 141 134 130 132 137 136 136 134 135 137 137 139 142 141
139 143 145 150 154 158 167 183 201 176   0   0  10   0   0   0   0   0   0   0   0   0   0   0
  0   0   0   0
  0   0   0   0   0   0   0   0   0   0   0   0   0   0   0   0   0   0   0   0   0   0   0   0
  0   0   0   0   2   5  10  16  24  32  43  55  65  74  85  94 104 110 111 111 112 124 123 120
124 130 147 153 141 143 146 145 142 140 141 133 129 134 134 132 132 133 131 132 136 138 139 139
141 144 147 149 152 159 167 176 196 173   0   0  10   0   0   0   0   0   0   0   0   0   0   0
  0   0   0   0
  0   0   0   0   0   0   0   0   0   0   0   0   0   0   0   0   0   0   0   0   0   0   0   0
  0   0   0   0   3   6  11  19  28  37  47  56  68  81  89  95 102 109 114 115 116 121 122 123
131 141 149 149 140 142 144 151 151 142 138 135 130 128 128 133 134 134 133 133 136 139 140 139
141 145 144 148 152 154 166 172 191 171   0   0   9   0   0   0   0   0   0   0   0   0   0   0
  0   0   0   0
  0   0   0   0   0   0   0   0   0   0   0   0   0   0   0   0   0   0   0   0   0   0   0   0
  0   0   0   1   4   8  14  21  29  39  51  62  72  84  92  99 106 112 116 120 121 119 121 128
137 143 142 142 140 140 144 153 156 148 142 139 133 130 131 135 135 137 136 134 137 137 139 144
145 143 145 147 146 149 159 169 185 166   0   0   9   0   0   0   0   0   0   0   0   0   0   0
  0   0   0   0
  0   0   0   0   0   0   0   0   0   0   0   0   0   0   0   0   0   0   0   0   0   0   0   0
  0   0   0   2   6  10  16  23  32  43  55  67  75  85  95 107 114 114 118 118 119 122 129 137
144 140 137 137 139 142 146 150 159 153 143 135 129 132 132 131 134 134 134 134 138 138 142 148
147 145 145 144 145 146 152 164 179 160   3   0   8   0   0   0   0   0   0   0   0   0   0   0
  0   0   0   0
  0   0   0   0   0   0   0   0   0   0   0   0   0   0   0   0   0   0   0   0   0   0   0   0
  0   0   1   3   6  12  18  26  37  47  56  67  76  90 101 110 113 112 117 119 118 122 132 141
138 134 135 133 139 142 142 142 147 146 141 133 129 133 132 129 128 129 129 132 136 139 140 141
144 147 144 144 146 147 150 159 176 158   1   0   8   0   0   0   0   0   0   0   0   0   0   0
  0   0   0   0
  0   0   0   0   0   0   0   0   0   0   0   0   0   0   0   0   0   0   0   0   0   0   0   0
  0   0   1   4   8  13  20  28  40  49  58  68  82  94 102 108 113 112 117 122 124 130 132 133
129 124 134 142 141 135 138 140 137 133 131 135 137 136 134 131 131 132 132 135 135 135 135 137
139 145 145 143 144 145 145 154 173 153   0   0   8   0   0   0   0   0   0   0   0   0   0   0
  0   0   0   0
  0   0   0   0   0   0   0   0   0   0   0   0   0   0   0   0   0   0   0   0   0   0   0   0
  0   0   2   5   9  14  22  31  41  51  60  72  87  99 103 106 112 116 123 130 133 132 128 129
127 129 140 138 133 130 133 136 130 129 133 132 136 138 139 133 134 132 132 132 132 133 138 139
138 142 144 144 145 144 148 153 169 150   0   0   7   0   0   0   0   0   0   0   0   0   0   0
  0   0   0   0
  0   0   0   0   0   0   0   0   0   0   0   0   0   0   0   0   0   0   0   0   0   0   0   0
  0   1   3   6  11  16  24  33  43  54  65  78  91 106 105 108 116 124 133 136 132 127 129 132
129 139 139 127 131 132 131 126 123 130 138 130 135 136 133 135 134 132 133 132 132 135 138 136
136 142 142 145 147 149 150 150 166 147   0   0   7   0   0   0   0   0   0   0   0   0   0   0
  0   0   0   0
  0   0   0   0   0   0   0   0   0   0   0   0   0   0   0   0   0   0   0   0   0   0   0   0
  0   1   3   7  12  18  25  36  46  55  67  79  93 106 107 113 118 129 136 130 140 139 132 132
136 138 131 131 133 126 125 121 121 127 134 133 135 135 131 133 134 132 134 132 132 135 136 135
140 143 141 142 145 148 146 146 161 144   1   0   7   0   0   0   0   0   0   0   0   0   0   0
  0   0   0   0
  0   0   0   0   0   0   0   0   0   0   0   0   0   0   0   0   0   0   0   0   0   0   0   0
  0   2   4   8  14  19  28  38  46  58  70  79  97 104 108 116 120 129 134 143 149 139 134 133
132 129 127 128 127 124 125 123 123 127 134 137 134 131 129 132 133 131 131 133 134 137 137 139
143 141 140 143 147 146 147 146 161 146   0   0   7   0   0   0   0   0   0   0   0   0   0   0
  0   0   0   0
  0   0   0   0   0   0   0   0   0   0   0   0   0   0   0   0   0   0   0   0   0   0   0   0
  1   2   5   9  15  21  31  40  48  61  75  85  97 101 109 119 125 133 146 148 139 137 133 132
128 127 127 127 124 129 133 126 126 132 136 138 136 127 132 134 131 132 132 132 132 135 135 138
145 147 145 147 150 149 146 145 160 144   1   0   7   0   0   0   0   0   0   0   0   0   0   0
  0   0   0   0
  0   0   0   0   0   0   0   0   0   0   0   0   0   0   0   0   0   0   0   0   0   0   0   0
  1   3   6  11  16  23  32  39  51  67  79  88  97 105 117 122 127 135 141 135 138 133 133 136
128 125 125 122 123 132 129 120 123 131 135 137 131 128 135 132 130 132 132 133 133 135 138 142
145 144 141 142 144 146 144 146 158 142   3   0   6   0   0   0   0   0   0   0   0   0   0   0
  0   0   0   0
  0   0   0   0   0   0   0   0   0   0   0   0   0   0   0   0   0   0   0   0   0   0   0   0
  1   4   7  11  17  25  33  42  55  68  79  89  99 102 110 119 127 135 135 137 136 134 135 128
120 118 119 121 127 130 121 126 129 130 131 134 131 130 129 128 132 133 132 136 135 138 141 141
140 140 137 139 143 142 144 147 156 136   0   0   6   0   0   0   0   0   0   0   0   0   0   0
  0   0   0   0
  0   0   0   0   0   0   0   0   0   0   0   0   0   0   0   0   0   0   0   0   0   0   0   0
  2   5   8  12  19  26  37  47  56  67  77  91 100 101 114 123 131 135 132 139 137 132 123 118
118 121 119 121 124 129 122 129 131 126 132 134 133 132 125 128 133 136 136 134 137 138 136 136
136 137 138 141 143 142 146 147 154 135   0   0   6   0   0   0   0   0   0   0   0   0   0   0
  0   0   0   0
  0   0   0   0   0   0   0   0   0   0   0   0   0   0   0   0   0   0   0   0   0   0   0   1
  3   5  10  15  20  29  39  49  61  72  76  91 103 108 120 128 134 127 135 135 126 124 121 117
120 122 117 116 119 122 125 125 125 129 129 127 130 134 129 128 134 138 134 132 136 135 136 137
140 141 141 141 141 141 143 144 152 134   1   0   6   0   0   0   0   0   0   0   0   0   0   0
  0   0   0   0
  0   0   0   0   0   0   0   0   0   0   0   0   0   0   0   0   0   0   0   0   0   0   0   1
  4   7  11  15  22  30  41  52  65  80  86  93 101 110 114 128 131 126 134 123 122 124 117 115
120 119 120 119 119 122 126 127 131 132 129 129 130 132 133 131 135 136 131 132 137 138 138 139
141 140 140 140 140 142 144 146 156 137   0   0   6   0   0   0   0   0   0   0   0   0   0   0
  0   0   0   0
  0   0   0   0   0   0   0   0   0   0   0   0   0   0   0   0   0   0   0   0   0   0   0   2
  5   7  11  16  24  32  43  56  75  85  94 100 107 115 118 131 133 132 130 125 126 123 115 117
122 124 123 123 126 128 130 133 131 130 135 130 128 130 135 134 139 137 131 133 140 138 138 140
140 141 143 146 146 146 148 148 156 137   0   0   6   0   0   0   0   0   0   0   0   0   0   0
  0   0   0   0
  0   0   0   0   0   0   0   0   0   0   0   0   0   0   0   0   0   0   0   0   0   0   0   2
  5   8  13  19  26  36  45  59  76  81  90  98 109 114 131 134 135 136 135 137 129 118 114 117
124 126 124 124 124 122 126 133 130 129 131 131 132 136 138 138 142 140 141 144 146 146 148 150
150 148 149 149 148 145 145 150 164 142   0   0   6   0   0   0   0   0   0   0   0   0   0   0
  0   0   0   0
  0   0   0   0   0   0   0   0   0   0   0   0   0   0   0   0   0   0   0   0   0   0   0   2
  5   8  14  19  29  39  50  63  78  86  86  94 105 123 139 136 136 139 137 139 125 115 113 118
121 120 122 121 123 124 123 124 127 126 125 133 135 135 142 146 149 148 147 149 150 150 149 147
144 144 144 144 144 147 151 155 160 133   0   0   5   0   0   0   0   0   0   0   0   0   0   0
  0   0   0   0
  0   0   0   0   0   0   0   0   0   0   0   0   0   0   0   0   0   0   0   0   0   0   0   2
  5   8  13  21  31  38  53  65  86  96  88  93 106 124 135 140 146 136 134 128 118 120 120 122
126 129 128 121 124 123 119 122 122 120 125 136 141 151 152 145 144 142 136 137 138 139 140 136
135 136 137 138 143 148 150 147 152 131   0   0   5   0   0   0   0   0   0   0   0   0   0   0
  0   0   0   0
  0   0   0   0   0   0   0   0   0   0   0   0   0   0   0   0   0   0   0   0   0   0   0   3
  5   9  15  22  30  42  54  66  82  90  91  96 110 124 135 154 156 137 134 126 120 124 121 125
135 134 126 121 121 124 124 126 131 134 139 142 145 150 139 134 139 137 136 137 138 139 137 134
134 141 145 145 147 144 144 144 154 135   0   0   5   0   0   0   0   0   0   0   0   0   0   0
  0   0   0   0
  0   0   0   0   0   0   0   0   0   0   0   0   0   0   0   0   0   0   0   0   0   0   1   3
  6  10  16  23  33  46  57  65  75  86  93 100 113 122 140 153 145 138 132 126 129 127 128 139
140 131 129 130 136 137 131 133 141 139 133 132 128 130 129 135 138 137 136 141 140 136 134 137
143 147 148 143 142 144 144 147 161 136   0   0   5   0   0   0   0   0   0   0   0   0   0   0
  0   0   0   0
  0   0   0   0   0   0   0   0   0   0   0   0   0   0   0   0   0   0   0   0   0   0   1   3
  6  11  18  25  37  51  61  67  80  95 102 106 112 131 144 142 137 136 130 131 130 133 139 136
125 123 126 132 135 134 129 130 129 125 125 126 126 133 134 137 133 137 137 139 134 133 137 147
147 144 145 141 141 144 147 151 161 135   0   0   5   0   0   0   0   0   0   0   0   0   0   0
  0   0   0   0
  0   0   0   0   0   0   0   0   0   0   0   0   0   0   0   0   0   0   0   0   0   0   1   3
  7  12  19  27  38  52  63  78  89  94 110 118 119 139 148 141 137 134 128 126 125 128 125 121
120 118 122 125 129 127 124 124 125 127 126 124 126 131 135 137 134 139 141 139 138 142 142 140
141 143 142 143 144 147 152 152 160 136   0   0   5   0   0   0   0   0   0   0   0   0   0   0
  0   0   0   0
  0   0   0   0   0   0   0   0   0   0   0   0   0   0   0   0   0   0   0   0   0   0   1   3
  7  13  17  33  44  55  69  81  80  92 113 117 133 137 139 140 136 127 122 124 128 123 117 122
121 123 124 124 124 123 125 125 127 128 127 126 124 130 137 136 137 144 146 144 141 142 139 138
137 137 140 143 147 149 149 150 162 136   0   0   5   0   0   0   0   0   0   0   0   0   0   0
  0   0   0   0
  0   0   0   0   0   0   0   0   0   0   0   0   0   0   0   0   0   0   0   0   0   0   1   4
  7  13  19  33  39  52  61  72  84 105 109 118 129 125 139 134 128 125 120 124 123 119 117 122
126 125 123 121 119 123 123 121 123 124 126 125 127 133 138 142 150 155 150 142 138 138 136 137
136 138 140 142 145 145 148 149 158 137   0   0   6   0   0   0   0   0   0   0   0   0   0   0
  0   0   0   0
  0   0   0   0   0   0   0   0   0   0   0   0   0   0   0   0   0   0   0   0   0   0   1   4
  7  12  20  27  34  52  65  76  96 100 106 123 120 130 136 126 128 122 122 121 118 118 120 125
129 124 125 122 122 125 122 123 123 124 126 129 132 138 147 153 152 152 150 140 140 138 137 137
139 140 142 143 141 143 147 146 158 134   0   0   5   0   0   0   0   0   0   0   0   0   0   0
  0   0   0   0
  0   0   0   0   0   0   0   0   0   0   0   0   0   0   0   0   0   0   0   0   0   0   1   6
 10  15  20  30  45  56  68  78  87  94 119 120 120 132 130 120 124 121 123 122 122 121 123 124
122 124 129 128 127 127 128 129 127 129 136 138 140 145 151 146 144 149 142 142 140 135 138 141
141 139 139 137 138 144 147 149 159 133   0   0   5   0   0   0   0   0   0   0   0   0   0   0
  0   0   0   0
  0   0   0   0   0   0   0   0   0   0   0   0   0   0   0   0   0   0   0   0   0   0   1   9
 15  19  24  35  49  58  69  84  97 109 114 106 112 126 126 118 125 125 128 125 123 125 121 119
123 127 127 126 128 129 131 131 130 135 139 137 137 145 145 144 151 146 138 140 135 135 138 140
138 137 134 134 141 145 146 148 156 133   0   0   5   0   0   0   0   0   0   0   0   0   0   0
  0   0   0   0
  0   0   0   0   0   0   0   0   0   0   0   0   0   0   0   0   0   0   0   0   0   0   2  10
 17  24  28  35  58  67  71  86  93  98  97 103 115 123 127 132 131 133 135 127 124 121 118 121
125 127 125 123 126 128 127 128 131 135 134 134 143 143 137 143 146 138 136 131 133 135 136 136
136 137 136 139 142 141 145 146 154 130   0   0   5   0   0   0   0   0   0   0   0   0   0   0
  0   0   0   0
  0   0   0   0   0   0   0   0   0   0   0   0   0   0   0   0   0   0   0   0   0   0   2   9
 17  26  29  34  60  67  68  81  86  93  91 110 117 115 123 125 122 125 126 126 121 121 119 122
125 124 119 121 128 130 132 132 132 133 130 138 143 138 134 142 143 137 133 134 135 134 137 135
141 140 142 142 138 142 148 145 153 131   0   0   5   0   0   0   0   0   0   0   0   0   0   0
  0   0   0   0
  0   0   0   0   0   0   0   0   0   0   0   0   0   0   0   0   0   0   0   0   0   0   0   8
 15  25  30  32  43  57  65  86  99 100  98 109 109 112 114 115 116 118 126 125 120 126 128 128
126 125 125 129 135 133 133 134 135 133 135 143 139 134 136 144 141 136 134 135 132 137 138 141
143 139 140 139 143 149 146 143 152 131   0   0   5   0   0   0   0   0   0   0   0   0   0   0
  0   0   0   0
  0   0   0   0   0   0   0   0   0   0   0   0   0   0   0   0   0   0   0   0   0   0   0   4
 12  22  24  27  34  49  66  76  90  91  99 103 108 114 113 118 119 120 128 125 128 133 130 128
130 130 128 131 133 136 138 138 140 137 140 144 141 136 142 141 137 135 134 133 132 137 141 145
143 141 139 141 148 147 144 142 154 135   0   0   5   0   0   0   0   0   0   0   0   0   0   0
  0   0   0   0
  0   0   0   0   0   0   0   0   0   0   0   0   0   0   0   0   0   0   0   0   0   0   0   0
  6  11  15  21  29  46  63  67  77  83  95 100 110 121 117 118 121 123 125 127 129 132 133 134
134 131 129 133 141 141 148 146 139 140 146 147 145 143 144 138 135 134 134 132 139 142 143 144
142 140 141 144 145 145 145 144 162 142   0   0   6   0   0   0   0   0   0   0   0   0   0   0
  0   0   0   0
  0   0   0   0   0   0   0   0   0   0   0   0   0   0   0   0   0   0   0   0   0   0   0   0
  2   6  11  17  25  48  65  70  79  91 104  99 101 114 117 115 119 119 117 118 122 129 137 143
138 133 136 138 139 141 145 139 138 149 154 149 146 153 148 138 134 133 132 135 144 147 148 146
141 141 143 142 144 146 145 151 164 142   0   0   6   0   0   0   0   0   0   0   0   0   0   0
  0   0   0   0
  0   0   0   0   0   0   0   0   0   0   0   0   0   0   0   0   0   0   0   0   0   0   0   0
  1   5   9  12  20  42  61  70  87  98  94  95  98 102 115 117 117 121 118 122 124 126 131 135
134 136 137 138 138 142 141 139 142 152 152 152 154 156 146 135 136 135 134 142 144 150 152 148
146 144 144 142 145 144 152 152 161 139   0   0   6   0   0   0   0   0   0   0   0   0   0   0
  0   0   0   0
  0   0   0   0   0   0   0   0   0   0   0   0   0   0   0   0   0   0   0   0   0   0   0   0
  0   3   7  10  17  27  46  67  79  95  93  96 102 111 117 116 121 129 123 120 120 125 128 126
128 134 132 135 142 139 138 143 147 151 154 154 152 151 145 138 139 135 137 140 140 152 155 151
151 147 141 143 146 153 152 149 156 129   0   0   5   0   0   0   0   0   0   0   0   0   0   0
  0   0   0   0
  0   0   0   0   0   0   0   0   0   0   0   0   0   0   0   0   0   0   0   0   0   0   0   0
  0   2   5   9  14  23  34  52  59  80  93  94 100 107 116 118 118 120 126 124 123 127 124 119
125 128 131 135 140 138 142 150 150 150 158 151 147 147 140 138 139 138 143 144 148 152 149 145
143 142 145 149 154 152 144 143 147 122   0   0   4   0   0   0   0   0   0   0   0   0   0   0
  0   0   0   0
  0   0   0   0   0   0   0   0   0   0   0   0   0   0   0   0   0   0   0   0   0   0   0   0
  0   0   3   6  12  20  30  45  56  68  81  87  95 101 110 119 120 126 134 130 126 126 125 124
127 127 129 131 135 140 144 148 145 146 151 151 146 139 138 135 141 146 144 142 146 146 144 142
142 148 153 151 152 144 141 136 141 119   0   0   4   0   0   0   0   0   0   0   0   0   0   0
  0   0   0   0
  0   0   0   0   0   0   0   0   0   0   0   0   0   0   0   0   0   0   0   0   0   0   0   0
  0   0   2   5   9  15  24  40  52  60  71  82  91  98 106 114 118 125 133 132 131 133 126 128
132 129 130 133 139 141 137 137 142 141 147 157 144 142 140 138 145 144 141 144 146 147 140 141
149 155 148 145 143 136 132 133 137 111   0   0   3   0   0   0   0   0   0   0   0   0   0   0
  0   0   0   0
  0   0   0   0   0   0   0   0   0   0   0   0   0   0   0   0   0   0   0   0   0   0   0   0
  0   0   1   4   7  11  19  36  44  51  64  72  84  94 100 109 114 116 123 127 131 134 131 132
132 127 129 130 136 135 134 138 142 148 156 153 141 138 138 144 144 140 143 142 147 145 138 146
153 144 141 142 134 129 130 126 124 102   0   0   3   0   0   0   0   0   0   0   0   0   0   0
  0   0   0   0
  0   0   0   0   0   0   0   0   0   0   0   0   0   0   0   0   0   0   0   0   0   0   0   0
  0   0   0   2   6   9  14  30  38  45  59  69  77  90 103 108 113 116 119 128 129 129 132 128
124 129 135 135 138 138 134 138 147 153 150 140 137 135 138 143 139 140 136 136 143 140 144 149
142 140 141 135 127 128 121 110 113  94   0   0   2   0   0   0   0   0   0   0   0   0   0   0
  0   0   0   0
  0   0   0   0   0   0   0   0   0   0   0   0   0   0   0   0   0   0   0   0   0   0   0   0
  0   0   0   0   3   7  11  20  33  41  50  61  69  83 100 110 113 115 125 128 125 122 124 125
127 132 139 135 132 133 132 141 151 149 142 139 139 135 133 137 135 135 133 137 137 137 144 139
135 136 130 121 122 116 106 104 106  86   0   0   2   0   0   0   0   0   0   0   0   0   0   0
  0   0   0   0
  0   0   0   0   0   0   0   0   0   0   0   0   0   0   0   0   0   0   0   0   0   0   0   0
  0   0   0   0   1   5   9  12  22  32  40  48  58  72  85  96 102 109 118 119 125 125 127 129
129 132 129 129 131 134 138 141 146 144 139 140 139 132 134 139 135 135 134 134 130 131 131 128
125 120 115 111 108 100 101  96  94  74   0   0   1   0   0   0   0   0   0   0   0   0   0   0
  0   0   0   0
  0   0   0   0   0   0   0   0   0   0   0   0   0   0   0   0   0   0   0   0   0   0   0   0
  0   0   0   0   0   2   5   9  16  22  31  44  52  60  70  75  86 100 105 113 121 123 124 126
120 122 127 129 130 134 138 142 146 142 139 138 133 133 139 140 135 133 131 125 121 124 122 114
112 108 104 100  95  93  91  84  81  62   0   0   1   0   0   0   0   0   0   0   0   0   0   0
  0   0   0   0
  0   0   0   0   0   0   0   0   0   0   0   0   0   0   0   0   0   0   0   0   0   0   0   0
  0   0   0   0   0   1   3   6  12  17  23  32  42  49  60  69  76  86  91 105 112 110 112 116
117 127 132 132 137 138 145 153 148 135 139 136 135 137 138 132 126 129 122 119 118 116 108 101
 99  96  92  90  89  84  77  70  68  52   0   0   1   0   0   0   0   0   0   0   0   0   0   0
  0   0   0   0
  0   0   0   0   0   0   0   0   0   0   0   0   0   0   0   0   0   0   0   0   0   0   0   0
  0   0   0   0   0   0   1   4   7  11  17  23  30  39  47  59  68  73  82  89  95  99 102 111
112 119 125 129 137 141 145 145 136 133 132 132 134 130 125 122 121 119 111 109 103  98  95  89
 85  84  82  82  77  67  61  55  51  40   0   0   0   0   0   0   0   0   0   0   0   0   0   0
  0   0   0   0
  0   0   0   0   0   0   0   0   0   0   0   0   0   0   0   0   0   0   0   0   0   0   0   0
  0   0   0   0   0   0   0   2   4   7  11  17  24  30  38  45  51  60  67  70  78  89  92  97
100 101 104 110 118 118 123 122 122 126 126 123 118 121 114 109 105  99  93  87  85  87  84  76
 74  71  68  65  58  50  44  38  36  29   2   0   0   0   0   0   0   0   0   0   0   0   0   0
  0   0   0   0
  0   0   0   0   0   0   0   0   0   0   0   0   0   0   0   0   0   0   0   0   0   0   0   0
  0   0   0   0   0   0   0   0   2   3   7  10  15  22  29  34  38  46  52  58  69  78  83  85
 86  85  89 102 107 105 105 104 107 106 109 105 101 106  98  93  90  82  77  75  72  69  64  61
 57  52  51  47  40  35  30  27  24  25   5   0   0   0   0   0   0   0   0   0   0   0   0   0
  0   0   0   0
  0   0   0   0   0   0   0   0   0   0   0   0   0   0   0   0   0   0   0   0   0   0   0   0
  0   0   0   0   0   0   0   0   0   1   4   7  10  14  19  25  30  35  40  48  54  59  67  73
 75  76  83  89  86  86  87  87  86  82  80  78  77  79  79  75  72  65  64  64  56  51  47  45
 41  41  38  32  29  24  20  18  16  24   7   0   0   0   0   0   0   0   0   0   0   0   0   0
  0   0   0   0
  0   0   0   0   0   0   0   0   0   0   0   0   0   0   0   0   0   0   0   0   0   0   0   0
  0   0   0   0   0   0   0   0   0   0   2   4   7   9  11  15  20  25  28  34  40  44  49  56
 63  67  68  68  65  70  71  68  67  63  62  61  62  62  61  56  51  48  46  43  38  36  35  34
 30  28  26  22  20  16  15  14  12  21   6   0   0   0   0   0   0   0   0   0   0   0   0   0
  0   0   0   0
  0   0   0   0   0   0   0   0   0   0   0   0   0   0   0   0   0   0   0   0   0   0   0   0
  0   0   0   0   0   0   0   0   0   0   0   2   4   5   7   9  11  15  18  21  25  29  34  36
 38  44  51  52  51  52  50  47  49  48  45  45  47  44  44  42  36  34  32  30  27  25  26  22
 20  18  16  15  14  12  11   9   6  16   5   0   0   0   0   0   0   0   0   0   0   0   0   0
  0   0   0   0
  0   0   0   0   0   0   0   0   0   0   0   0   0   0   0   0   0   0   0   0   0   0   0   0
  0   0   0   0   0   0   0   0   0   0   0   0   1   3   4   6   7   8  11  13  15  17  20  21
 24  29  31  32  33  32  33  34  34  35  34  31  32  29  28  30  24  22  21  19  17  17  16  13
 13  12  11   9   9   8   7   6   6  11   2   0   0   0   0   0   0   0   0   0   0   0   0   0
  0   0   0   0
  0   0   0   0   0   0   0   0   0   0   0   0   0   0   0   0   0   0   0   0   0   0   0   0
  0   0   0   0   0   0   0   0   0   0   0   0   0   0   2   3   3   5   6   8   9  10  12  14
 16  17  17  19  21  22  22  22  22  22  20  20  20  19  17  18  17  14  13  12  11  11  10   9
  8   7   6   6   5   5   5   5   4  10   3   0   0   0   0   0   0   0   0   0   0   0   0   0
  0   0   0   0
  0   0   0   0   0   0   0   0   0   0   0   0   0   0   0   0   0   0   0   0   0   0   0   0
  0   0   0   0   0   0   0   0   0   0   0   0   0   0   0   0   1   3   3   4   5   6   7   8
  9  10  11  12  13  12  13  13  13  13  13  12  12  12  11   9  10  10   8   7   7   6   5   4
  5   4   4   3   3   2   2   1   0   7   3   0   0   0   0   0   0   0   0   0   0   0   0   0
  0   0   0   0
  0   0   0   0   0   0   0   0   0   0   0   0   0   0   0   0   0   0   0   0   0   0   0   0
  0   0   0   0   0   0   0   0   0   0   0   0   0   0   0   0   0   0   1   2   2   3   4   4
  5   5   6   6   7   7   7   6   7   7   7   7   7   6   6   5   5   4   4   3   3   3   3   2
  2   2   1   0   0   0   0   0   0   7   3   0   0   0   0   0   0   0   0   0   0   0   0   0
  0   0   0   0
  0   0   0   0   0   0   0   0   0   0   0   0   0   0   0   0   0   0   0   0   0   0   0   0
  0   0   0   0   0   0   0   0   0   0   0   0   0   0   0   0   0   0   0   0   0   1   1   2
  2   2   3   3   4   4   3   3   4   3   3   3   3   3   3   2   2   1   1   1   1   1   1   0
  0   0   0   0   0   0   0   0   0  11   4   0   0   0   0   0   0   0   0   0   0   0   0   0
  0   0   0   0
  0   0   0   0   0   0   0   0   0   0   0   0   0   0   0   0   0   0   0   0   0   0   0   0
  0   0   0   0   0   0   0   0   0   0   0   0   0   0   0   0   0   0   0   0   0   0   0   0
  0   0   1   1   1   1   1   1   1   1   1   0   0   0   0   0   0   0   0   0   0   0   0   0
  0   0   0   0   0   0   0   0   0  13   6   0   0   0   0   0   0   0   0   0   0   0   0   0
  0   0   0   0
  0   0   0   0   0   0   0   0   0   0   0   0   0   0   0   0   0   0   0   0   0   0   0   0
  0   0   0   0   0   0   0   0   0   0   0   0   0   0   0   0   0   0   0   0   0   0   0   0
  0   0   0   0   0   0   0   0   0   0   0   0   0   0   0   0   0   0   0   0   0   0   0   0
  0   0   0   0   0   0   0   0   0  13   6   0   0   0   0   0   0   0   0   0   0   0   0   0
  0   0   0   0
  0   0   0   0   0   0   0   0   0   0   0   0   0   0   0   0   0   0   0   0   0   0   0   0
  0   0   0   0   0   0   0   0   0   0   0   0   0   0   0   0   0   0   0   0   0   0   0   0
  0   0   0   0   0   0   0   0   0   0   0   0   0   0   0   0   0   0   0   0   0   0   0   0
  0   0   0   0   0   0   0   0   0  13   6   0   0   0   0   0   0   0   0   0   0   0   0   0
  0   0   0   0
  0   0   0   0   0   0   0   0   0   0   0   0   0   0   0   0   0   0   0   1   0   0   0   0
  0   0   0   0   0   0   0   0   0   0   0   0   0   0   0   0   0   0   0   0   0   0   0   0
  0   0   0   0   0   0   0   0   0   0   0   0   0   0   0   0   0   0   0   0   0   0   0   0
  0   0   0   0   0   0   0   0   0  14   6   0   0   0   0   0   0   0   0   0   0   0   0   0
  0   0   0   0
  0   0   0   0   0   0   0   0   0   0   0   0   0   0   0   0   0   0   0   1   1   1   1   1
  0   1   0   0   0   0   0   0   0   0   0   0   0   0   0   0   0   0   0   0   0   0   0   0
  0   0   0   0   0   0   0   0   0   0   0   0   0   0   0   0   0   0   0   0   0   0   0   0
  0   0   0   0   0   0   0   0   0  14   6   0   0   0   0   0   0   0   0   0   0   0   0   0
  0   0   0   0
  0   0   0   0   0   0   0   0   0   0   0   0   0   0   0   0   0   0   1   1   1   1   1   1
  1   1   1   0   0   0   0   0   0   0   0   0   1   1   0   0   0   0   0   0   0   0   0   0
  0   0   0   0   0   0   0   1   6   2   0   0   0   0   0   0   0   0   0   0   0   0   0   0
  0   0   0   0   0   1   0   1   0  14   6   0   0   0   0   0   0   0   0   0   0   0   0   0
  0   0   0   0
  0   0   0   0   0   0   0   0   0   0   0   0   0   0   0   0   0   0   1   2   1   1   1   1
  1   1   1   1   1   1   1   1   1   1   1   1   1   1   1   1   0   0   0   0   0   0   0   0
  0   0   0   0   0   0   0   0   3   2   0   0   0   0   0   0   0   0   0   0   0   0   0   0
  0   0   0   0   0   1   0   1   0  15   6   0   0   0   0   0   0   0   0   0   0   0   0   0
  0   0   0   0
  0   0   0   0   0   0   0   0   0   0   0   0   0   0   0   0   0   0   1   2   2   2   2   2
  2   2   1   1   1   1   1   1   1   1   1   1   2   1   1   1   1   1   1   0   0   0   0   1
  0   0   0   0   0   0   0   0   0   0   0   0   0   0   0   0   0   1   1   0   0   1   1   1
  1   0   0   1   1   1   1   1   0  16   6   0   0   0   0   0   0   0   0   0   0   0   0   0
  0   0   0   0
  0   0   0   0   0   0   0   0   0   0   0   0   0   0   0   0   0   0   2   3   2   2   2   3
  2   2   2   2   2   2   2   2   2   2   2   2   2   2   2   2   1   1   1   1   1   1   1   1
  1   1   1   1   1   1   1   1   1   1   1   1   1   1   1   1   1   1   1   1   1   1   1   1
  1   1   1   2   1   2   1   2   1  17   6   0   0   0   0   0   0   0   0   0   0   0   0   0
  0   0   0   0
