P2
# 8-bit pgm gray
100 100
255
  0   0   0   0   0   0   0   0   0   0   0   0   0   0   0   9   0   0 179 222 215 217 216 217
216 215 216 216 214 215 218 217 214 212 204 197 180 152 114  89  79  70  60  52  45  39  31  25
 21  18  14  12  11   7   6   6   6   6   6   6   6   6   6   6   5   6   6   6   6   6   6   6
  7   2  28   0  75 213 243 239 200 164  30   0  10   0   0   0   0   0   0   0   0   0   0   0
  0   0   0   0
  0   0   0   0   0   0   0   0   0   0   0   0   0   0   0   9   0   0 178 220 213 216 214 215
214 213 214 215 213 211 212 216 213 207 201 193 176 146 107  95  84  73  66  56  49  40  31  26
 22  18  15  12  10   7   5   5   5   5   5   5   5   5   5   5   5   5   5   5   5   5   6   6
  6   2  28   0  77 213 242 241 215 184  29   0  13   0   0   0   0   0   0   0   0   0   0   0
  0   0   0   0
  0   0   0   0   0   0   0   0   0   0   0   0   0   0   0   8   0   0 176 219 211 213 213 213
213 212 212 212 211 210 209 212 212 205 198 188 172 142 110  99  89  77  68  59  50  43  35  27
 22  19  15  12  10   7   4   5   5   5   5   5   5   5   5   5   5   5   5   5   5   5   5   5
  6   1  28   0  81 213 242 237 240 207   0   0  13   0   0   0   0   0   0   0   0   0   0   0
  0   0   0   0
  0   0   0   0   0   0   0   0   0   0   0   0   0   0   0   8   0   0 175 218 210 212 211 212
212 211 210 210 209 209 208 207 208 204 194 184 168 131 110 105  96  82  70  62  54  46  38  31
 25  20  15  12  11   7   4   4   4   5   5   4   4   4   5   5   4   4   4   5   5   5   5   5
  5   1  28   0  84 214 241 240 253 210   0   0  13   0   0   0   0   0   0   0   0   0   0   0
  0   0   0   0
  0   0   0   0   0   0   0   0   0   0   0   0   0   0   0   8   0   0 175 216 209 211 211 211
210 210 209 208 208 207 206 204 205 203 193 181 163 125 111 108 100  87  76  67  58  48  42  34
 26  21  17  13  11   8   4   4   4   4   4   4   4   4   4   4   4   4   4   4   4   5   5   5
  5   1  27   0  88 214 240 236 245 206   0   0  13   0   0   0   0   0   0   0   0   0   0   0
  0   0   0   0
  0   0   0   0   0   0   0   0   0   0   0   0   0   0   0   8   0   0 174 215 208 210 210 210
210 209 209 207 206 206 205 203 201 198 190 178 155 127 119 113 103  86  76  71  58  50  42  33
 26  21  17  13  11   8   4   4   4   4   4   4   4   4   4   4   4   4   4   4   4   4   4   4
  4   1  27   0  91 214 237 210 211 141   0   9   3   0   0   0   0   0   0   0   0   0   0   0
  0   0   0   0
  0   0   0   0   0   0   0   0   0   0   0   0   0   0   0   8   0   0 173 214 207 210 210 210
209 208 208 207 205 204 203 200 195 192 188 174 143 122 121 115 102  92  79  69  60  50  43  35
 28  21  17  13  10   8   4   4   4   4   3   3   3   3   4   4   3   3   3   4   4   4   4   4
  4   0  27   0  93 215 238 200 200 139   0  11   3   0   0   0   0   0   0   0   0   0   0   0
  0   0   0   0
  0   0   0   0   0   0   0   0   0   0   0   0   0   0   0   8   0   0 173 214 207 210 209 209
209 208 207 207 205 203 201 197 191 185 186 175 134 122 120 112 106  99  87  72  63  54  44  36
 28  22  17  13  10   8   4   3   3   3   3   3   3   3   3   3   3   3   3   3   3   3   3   4
  4   0  27   0  97 213 222 187 203 175  21   0  10   0   0   0   0   0   0   0   0   0   0   0
  0   0   0   0
  0   0   0   0   0   0   0   0   0   0   0   0   0   0   0   8   0   0 173 215 207 210 209 210
209 207 207 207 206 203 199 194 191 184 177 169 143 132 123 115 108  99  87  78  70  59  47  37
 29  22  17  13  10   8   4   3   3   3   3   3   3   3   3   3   3   3   3   3   3   3   3   3
  3   0  27   0 102 212 200 197 232 193   0   0  12   0   0   0   0   0   0   0   0   0   0   0
  0   0   0   0
  0   0   0   0   0   0   0   0   0   0   0   0   0   0   0   8   0   0 173 214 206 209 208 209
210 207 206 206 204 202 198 193 188 183 172 147 140 139 125 115 109  99  88  82  73  60  49  39
 29  22  16  13  11   9   5   3   3   3   3   2   2   3   3   3   3   3   3   3   3   3   3   3
  3   0  26   0 103 212 235 237 248 207   0   0  13   0   0   0   0   0   0   0   0   0   0   0
  0   0   0   0
  0   0   0   0   0   0   0   0   0   0   0   0   0   0   0   8   0   0 173 213 205 207 207 208
209 207 206 206 202 199 197 192 187 182 168 140 129 134 130 118 108 102  91  81  72  62  53  43
 33  24  17  13  10   8   5   2   2   2   2   2   2   2   3   2   2   2   2   2   3   3   2   3
  3   0  25   0 104 211 234 236 247 207   0   0  13   0   0   0   0   0   0   0   0   0   0   0
  0   0   0   0
  0   0   0   0   0   0   0   0   0   0   0   0   0   0   0   8   0   0 172 212 204 206 205 207
208 206 206 206 204 198 193 190 188 181 161 137 129 132 130 120 111 105  94  83  74  64  55  44
 33  25  18  14  11   9   6   2   2   2   2   2   2   2   2   2   2   2   2   2   2   2   2   2
  2   1  19   0  85 174 196 203 218 184   0   0  10   0   0   0   0   0   0   0   0   0   0   0
  0   0   0   0
  0   0   0   0   0   0   0   0   0   0   0   0   0   0   0   8   0   0 172 212 206 206 205 206
207 206 205 204 203 199 193 188 183 174 151 134 137 135 133 119 110 105  92  85  75  65  57  44
 32  26  20  15  12   9   7   3   2   2   2   2   2   2   2   2   2   2   2   2   2   2   2   2
  2   2   3   0  18  46  60  69  82  71   0   0   1   0   0   0   0   0   0   0   0   0   0   0
  0   0   0   0
  0   0   0   0   0   0   0   0   0   0   0   0   0   0   0   8   0   0 171 213 210 209 205 205
204 205 204 201 200 197 192 186 176 164 142 133 131 133 135 123 113 108  98  86  76  68  60  48
 36  28  22  17  12   9   7   4   1   2   2   2   1   1   2   2   2   1   2   2   2   2   2   2
  2   2   2   3   0   0   0   0   0   0   1   0   0   0   0   0   0   0   0   0   0   0   0   0
  0   0   0   0
  0   0   0   0   0   0   0   0   0   0   0   0   0   0   0   8   0   0 170 212 205 206 206 205
202 202 203 201 196 194 190 184 175 154 135 137 131 130 136 126 115 106  98  90  82  73  64  50
 39  32  24  19  14  10   8   5   2   1   2   1   1   1   2   2   1   1   1   2   2   2   2   2
  2   2   2   1   6  21  26  29  35  27   0   0   0   0   0   0   0   0   0   0   0   0   0   0
  0   0   0   0
  0   0   0   0   0   0   0   0   0   0   0   0   0   0   0   8   0   0 172 211 203 205 206 204
202 201 201 200 196 191 185 179 172 151 135 136 131 127 135 128 114 105  96  86  80  74  68  54
 42  34  26  20  16  12   9   6   3   1   1   1   1   1   2   1   1   1   1   1   1   1   1   2
  2   1   1   2   2   4   8   9   0   0   2   0   0   0   0   0   0   0   0   0   0   0   0   0
  0   0   0   0
  0   0   0   0   0   0   0   0   0   0   0   0   0   0   0   8   0   0 172 213 203 205 204 203
202 201 199 198 195 190 184 175 164 145 137 132 129 125 128 130 120 107  98  91  81  76  69  57
 48  39  31  23  17  13  10   7   4   1   1   1   1   1   1   1   1   1   1   1   1   1   1   1
  1   1   1   1   2   7   7   3  44  23   0   2   0   0   0   0   0   0   0   0   0   0   0   0
  0   0   0   0
  0   0   0   0   0   0   0   0   0   0   0   0   0   0   0   8   0   0 174 216 207 205 203 202
201 200 198 196 192 187 181 173 155 136 134 131 125 122 121 123 128 122 101  94  90  80  73  63
 50  41  33  26  20  14  11   8   6   2   1   1   1   1   1   1   1   1   1   1   1   1   1   1
  1   1   1   1   2   8   0  49  86  71   0   0   1   0   0   0   0   0   0   0   0   0   0   0
  0   0   0   0
  0   0   0   0   0   0   0   0   0   0   0   0   0   0   0   8   0   0 173 215 207 207 203 202
201 199 198 195 191 183 175 167 149 136 135 130 125 123 121 118 124 128 110  96  90  82  75  64
 55  46  36  28  22  16  13  10   7   3   1   1   1   1   1   1   1   1   1   1   1   1   1   1
  1   1   1   1   3   2   0  69  66  81  19   0   3   0   0   0   0   0   0   0   0   0   0   0
  0   0   0   0
  0   0   0   0   0   0   0   0   0   0   0   0   0   0   0   8   0   0 174 217 209 210 209 212
205 197 195 193 191 183 175 161 142 135 133 131 128 125 124 121 119 121 111 100  94  87  78  69
 60  52  43  34  26  19  15  11   8   5   1   0   0   0   1   1   1   0   0   1   1   1   1   1
  1   1   1   1   2   5   0  55  87  72   0   0   1   0   0   0   0   0   0   0   0   0   0   0
  0   0   0   0
  0   0   0   0   0   0   0   0   0   0   0   0   0   0   0   9   0   0 178 222 215 215 213 215
207 197 192 190 187 181 174 156 140 137 132 126 126 124 124 123 123 121 111  99  98  91  83  75
 66  57  50  40  29  22  16  12   9   6   2   0   0   0   1   1   1   0   0   1   1   1   1   1
  1   1   1   1   1   5   0  10  49  20   0   2   0   0   0   0   0   0   0   0   0   0   0   0
  0   0   0   0
  0   0   0   0   0   0   0   0   0   0   0   0   0   0   0   9   0   0 180 225 217 217 215 215
206 197 193 186 180 178 169 149 137 138 136 129 126 124 123 122 122 122 114 103  98  91  87  79
 70  62  54  44  33  24  18  14  10   8   4   0   0   0   1   0   0   0   0   1   1   1   1   1
  1   1   1   1   1   2   6   2   0   0   2   0   0   0   0   0   0   0   0   0   0   0   0   0
  0   0   0   0
  0   0   0   0   0   0   0   0   0   0   0   0   0   0   0   9   0   0 182 226 217 219 216 214
204 193 188 181 177 173 158 141 138 134 131 131 128 124 123 124 121 122 119 105 101  98  91  85
 75  65  56  49  37  28  21  16  12   9   6   1   0   0   0   0   0   0   0   1   1   1   1   1
  1   1   1   1   1   3   4   6  11   6   0   0   0   0   0   0   0   0   0   0   0   0   0   0
  0   0   0   0
  0   0   0   0   0   0   0   0   0   0   0   0   0   0   0   8   0   0 177 220 213 213 211 208
197 188 183 178 174 168 148 133 137 137 132 130 128 125 122 123 121 119 122 112 102  99  94  89
 81  70  60  51  43  34  26  19  15  10   8   4   0   0   0   0   0   0   0   1   1   1   1   1
  1   1   1   1   1   2   4   4   4   3   0   0   0   0   0   0   0   0   0   0   0   0   0   0
  0   0   0   0
  0   0   0   0   0   0   0   0   0   0   0   0   0   0   0   8   0   0 173 214 206 205 199 195
191 187 181 174 170 161 145 137 138 138 138 133 129 126 124 123 123 121 125 122 109 102  96  90
 84  77  68  57  48  39  31  24  18  13   9   6   1   0   0   0   0   0   0   0   1   1   1   1
  1   1   1   1   1   2   3   3   4   2   0   0   0   0   0   0   0   0   0   0   0   0   0   0
  0   0   0   0
  0   0   0   0   0   0   0   0   0   0   0   0   0   0   0   8   0   0 172 209 198 199 197 192
189 187 177 171 168 155 140 142 140 138 136 133 132 128 127 126 126 125 126 126 120 112 105  98
 90  81  74  66  53  46  38  29  20  15  11   8   4   0   0   0   0   0   0   0   0   0   0   0
  1   1   0   1   1   2   3   3   3   2   0   0   0   0   0   0   0   0   0   0   0   0   0   0
  0   0   0   0
  0   0   0   0   0   0   0   0   0   0   0   0   0   0   0   8   0   0 170 207 195 196 193 190
188 185 175 169 162 151 141 139 140 137 135 135 136 128 123 126 128 126 125 123 123 117 109 103
 96  89  82  72  62  54  41  33  25  18  13   9   6   1   0   0   0   0   0   0   0   0   0   0
  0   0   0   0   1   2   3   3   3   2   0   0   0   0   0   0   0   0   0   0   0   0   0   0
  0   0   0   0
  0   0   0   0   0   0   0   0   0   0   0   0   0   0   0   8   0   0 169 207 197 197 192 189
185 180 176 163 153 141 137 138 138 138 140 142 138 134 126 122 123 126 126 122 123 122 115 106
 99  93  83  77  68  56  46  38  31  23  16  11   8   4   0   0   0   0   0   0   0   0   0   0
  0   0   0   0   0   1   2   2   3   2   0   0   0   0   0   0   0   0   0   0   0   0   0   0
  0   0   0   0
  0   0   0   0   0   0   0   0   0   0   0   0   0   0   0   8   0   0 169 205 196 195 191 189
184 179 176 165 148 135 134 137 138 138 137 141 134 129 134 128 123 123 122 121 123 124 121 109
103  98  89  82  77  63  52  44  35  27  19  14   9   6   1   0   0   0   0   0   0   0   0   0
  0   0   0   0   0   2   2   2   2   1   0   0   0   0   0   0   0   0   0   0   0   0   0   0
  0   0   0   0
  0   0   0   0   0   0   0   0   0   0   0   0   0   0   0   8   0   0 170 205 194 193 189 185
181 177 173 164 146 137 138 135 136 136 135 139 140 133 131 130 128 128 124 120 121 120 120 115
109 104  96  91  84  73  59  48  39  30  22  16  11   8   4   0   0   0   0   0   0   0   0   0
  0   0   0   0   0   1   2   2   2   1   0   0   0   0   0   0   0   0   0   0   0   0   0   0
  0   0   0   0
  0   0   0   0   0   0   0   0   0   0   0   0   0   0   0   8   0   0 168 204 192 189 187 185
180 175 171 162 148 147 145 139 137 139 137 137 138 138 132 130 133 138 136 129 125 122 119 117
112 105 101  93  88  77  66  56  44  35  27  20  14   9   7   2   0   0   0   0   0   0   0   0
  0   0   0   0   0   1   2   2   2   1   0   0   0   0   0   0   0   0   0   0   0   0   0   0
  0   0   0   0
  0   0   0   0   0   0   0   0   0   0   0   0   0   0   0   7   0   0 166 205 194 189 184 180
176 170 165 154 144 146 146 143 142 141 141 136 136 138 132 131 134 133 134 130 129 127 122 121
121 112 104  98  93  84  72  63  52  41  32  24  17  11   8   5   0   0   0   0   0   0   0   0
  0   0   0   0   0   1   2   2   2   1   0   0   0   0   0   0   0   0   0   0   0   0   0   0
  0   0   0   0
  0   0   0   0   0   0   0   0   0   0   0   0   0   0   0   7   0   0 165 202 192 188 185 182
175 166 158 146 140 144 146 141 140 139 143 139 133 136 136 133 131 131 130 129 129 128 126 122
125 123 107 102  98  89  80  71  61  51  39  29  20  14  10   7   2   0   0   0   0   0   0   0
  0   0   0   0   0   1   1   2   2   1   0   0   0   0   0   0   0   0   0   0   0   0   0   0
  0   0   0   0
  0   0   0   0   0   0   0   0   0   0   0   0   0   0   0   7   0   0 163 198 189 190 184 180
174 167 153 141 139 143 141 139 136 136 138 139 138 133 132 131 129 128 124 128 131 128 127 122
124 132 123 113 107  96  87  78  69  58  45  34  26  18  12   8   4   0   0   0   0   0   0   0
  0   0   0   0   0   1   1   1   1   1   0   0   0   0   0   0   0   0   0   0   0   0   0   0
  0   0   0   0
  0   0   0   0   0   0   0   0   0   0   0   0   0   0   0   7   0   0 162 195 186 187 181 175
169 160 147 144 144 144 141 139 137 137 135 134 140 139 134 131 131 126 123 122 126 130 131 126
121 136 137 124 117 104  94  84  73  59  49  39  30  21  14  10   6   1   0   0   0   0   0   0
  0   0   0   0   0   1   1   1   1   1   0   0   0   0   0   0   0   0   0   0   0   0   0   0
  0   0   0   0
  0   0   0   0   0   0   0   0   0   0   0   0   0   0   0   7   0   0 161 194 184 184 180 174
166 153 140 140 145 146 143 140 142 142 139 135 136 138 141 139 135 132 129 127 125 126 133 140
135 139 142 130 119 107  96  87  76  67  57  46  34  24  18  12   8   4   0   0   0   0   0   0
  0   0   0   0   0   1   1   1   2   1   0   0   0   0   0   0   0   0   0   0   0   0   0   0
  0   0   0   0
  0   0   0   0   0   0   0   0   0   0   0   0   0   0   0   7   0   0 158 192 182 183 181 175
165 151 140 140 142 145 144 141 139 143 143 140 138 135 136 138 135 134 132 131 133 133 130 136
150 153 153 144 136 124  99  90  82  73  64  53  41  31  22  15  10   6   1   0   0   0   0   0
  0   0   0   0   0   1   2   1   1   1   0   0   0   0   0   0   0   0   0   0   0   0   0   0
  0   0   0   0
  0   0   0   0   0   0   0   0   0   0   0   0   0   0   0   6   0   0 154 191 183 182 177 172
160 149 141 141 143 142 141 142 143 142 142 140 140 138 138 139 140 137 133 132 132 132 128 128
141 160 173 170 162 149 117  94  87  78  69  58  48  37  27  19  12   8   4   0   0   0   0   0
  0   0   0   0   0   1   2   1   2   1   0   0   0   0   0   0   0   0   0   0   0   0   0   0
  0   0   0   0
  0   0   0   0   0   0   0   0   0   0   0   0   0   0   0   6   0   0 151 186 179 180 176 168
158 148 147 146 141 141 141 140 140 142 142 140 141 141 140 137 139 144 139 138 135 131 130 133
138 151 175 186 177 166 150 118  97  84  74  66  53  42  32  23  15  10   6   1   0   0   0   0
  0   0   0   0   0   1   1   1   4   1   0   0   0   0   0   0   0   0   0   0   0   0   0   0
  0   0   0   0
  0   0   0   0   0   0   0   0   0   0   0   0   0   0   0   6   0   0 152 186 177 177 172 164
156 151 151 151 147 146 147 148 146 144 144 143 140 140 142 141 136 140 138 136 136 132 133 133
142 152 170 187 182 169 154 138 116  93  79  71  60  48  38  28  19  12   8   4   0   0   0   0
  0   0   0   0   0   1   1   1   1   1   0   0   0   0   0   0   0   0   0   0   0   0   0   0
  0   0   0   0
  0   0   0   0   0   0   0   0   0   0   0   0   0   0   0   6   0   0 150 184 176 177 167 158
152 145 147 152 151 151 151 148 147 145 144 147 143 142 144 146 142 136 138 138 138 137 136 133
138 154 173 184 181 166 150 148 136 110  89  77  67  54  43  33  24  16  10   6   1   0   0   0
  0   0   0   0   0   1   1   1   1   1   0   0   0   0   0   0   0   0   0   0   0   0   0   0
  0   0   0   0
  0   0   0   0   0   0   0   0   0   0   0   0   0   0   0   6   0   0 147 181 175 174 167 160
150 140 140 144 149 147 152 147 142 141 146 147 147 148 147 143 143 140 138 135 138 138 135 139
141 148 166 179 183 177 170 158 148 126 100  83  71  60  50  38  28  20  13   8   3   0   0   0
  0   0   0   0   0   0   1   1   1   1   0   0   0   0   0   0   0   0   0   0   0   0   0   0
  0   0   0   0
  0   0   0   0   0   0   0   0   0   0   0   0   0   0   0   6   0   0 147 182 171 169 162 156
147 142 142 142 145 147 152 154 148 144 148 146 145 146 145 142 141 140 139 139 136 133 136 140
142 148 160 173 182 181 179 171 161 149 124  90  76  66  55  44  32  23  16  10   6   1   0   0
  0   0   0   0   0   0   1   1   1   1   0   0   0   0   0   0   0   0   0   0   0   0   0   0
  0   0   0   0
  0   0   0   0   0   0   0   0   0   0   0   0   0   0   0   6   0   0 147 182 171 167 160 151
140 139 140 143 144 146 148 153 151 152 154 149 143 142 143 141 142 141 138 144 146 139 141 136
139 148 158 165 173 172 168 172 173 167 150 118  83  71  62  50  38  28  19  12   8   3   0   0
  0   0   0   0   0   0   1   1   0   0   0   0   0   0   0   0   0   0   0   0   0   0   0   0
  0   0   0   0
  0   0   0   0   0   0   0   0   0   0   0   0   0   0   0   6   0   0 149 182 169 164 160 149
139 136 140 145 146 146 146 149 152 155 161 161 154 148 146 145 142 148 146 146 153 151 148 134
131 134 140 145 163 175 171 175 173 169 164 151 113  76  68  56  44  32  23  15  10   6   1   0
  0   0   0   0   0   0   0   0   0   0   0   0   0   0   0   0   0   0   0   0   0   0   0   0
  0   0   0   0
  0   0   0   0   0   0   0   0   0   0   0   0   0   0   0   6   0   0 150 183 170 167 158 146
141 142 140 145 150 151 153 153 154 160 158 165 167 158 153 153 156 158 158 157 158 155 154 152
140 133 131 134 156 173 171 173 172 172 167 154 139 104  71  62  51  38  29  20  13   8   3   0
  0   0   0   0   0   0   0   0   0   0   0   0   0   0   0   0   0   0   0   0   0   0   0   0
  0   0   0   0
  0   0   0   0   0   0   0   0   0   0   0   0   0   0   0   6   0   0 151 186 175 167 153 143
142 143 142 140 142 143 150 155 150 158 165 159 159 166 158 153 161 163 170 174 162 155 151 147
147 141 136 139 145 162 162 165 176 177 167 149 141 132  94  66  57  44  33  24  17  10   5   1
  0   0   0   0   0   0   0   0   0   0   0   0   0   0   0   0   0   0   0   0   0   0   0   0
  0   0   0   0
  0   0   0   0   0   0   0   0   0   0   0   0   0   0   0   6   0   0 150 182 169 159 145 137
138 137 136 140 142 141 147 145 143 151 161 164 159 161 162 157 157 161 170 179 166 156 151 139
144 150 148 149 145 155 161 154 165 175 170 160 141 137 117  76  59  50  38  28  19  12   8   2
  0   0   0   0   0   0   0   0   0   0   0   0   0   0   0   0   0   0   0   0   0   0   0   0
  0   0   0   0
  0   0   0   0   0   0   0   0   0   0   0   0   0   0   0   6   0   0 148 179 166 158 146 139
139 141 141 141 139 141 142 140 144 149 153 155 155 154 158 169 171 168 174 183 178 167 154 145
149 162 160 161 164 152 153 161 167 173 165 160 153 143 134 105  68  54  44  32  22  15  10   5
  0   0   0   0   0   0   0   0   0   0   0   0   0   0   0   0   0   0   0   0   0   0   0   0
  0   0   0   0
  0   0   0   0   0   0   0   0   0   0   0   0   0   0   0   6   0   0 152 181 167 160 144 140
142 143 146 146 144 145 140 145 152 149 158 166 168 158 155 165 174 178 180 181 180 175 167 155
150 160 161 159 163 152 147 155 169 170 173 164 151 152 147 133  98  60  47  36  26  18  12   7
  1   0   0   0   0   0   0   0   0   0   0   0   0   0   0   0   0   0   0   0   0   0   0   0
  0   0   0   0
  0   0   0   0   0   0   0   0   0   0   0   0   0   0   0   6   0   0 152 182 167 159 143 140
139 138 142 144 149 154 149 147 154 155 157 168 172 164 158 163 175 174 174 172 178 181 178 167
155 154 152 150 156 148 143 150 161 177 186 175 164 165 154 149 123  80  50  42  30  20  14   8
  3   0   0   0   0   0   0   0   0   0   0   0   0   0   0   0   0   0   0   0   0   0   0   0
  0   0   0   0
  0   0   0   0   0   0   0   0   0   0   0   0   0   0   0   6   0   0 145 177 165 153 141 142
139 142 145 145 147 149 151 148 148 147 150 161 167 160 159 160 166 168 167 169 176 183 187 182
168 163 157 148 142 133 132 147 156 173 181 177 179 178 158 156 138 101  62  46  35  24  16  10
  5   0   0   0   0   0   0   0   0   0   0   0   0   0   0   0   0   0   0   0   0   0   0   0
  0   0   0   0
  0   0   0   0   0   0   0   0   0   0   0   0   0   0   0   6   0   0 145 176 162 152 145 144
142 142 145 143 140 144 149 150 149 143 149 159 159 163 158 152 155 162 165 172 178 178 180 188
187 168 161 154 141 132 133 138 149 162 162 164 176 173 153 148 137 119  84  47  39  29  19  12
  7   1   0   0   0   0   0   0   0   0   0   0   0   0   0   0   0   0   0   0   0   0   0   0
  0   0   0   0
  0   0   0   0   0   0   0   0   0   0   0   0   0   0   0   5   0   0 139 172 160 152 150 149
146 143 145 145 142 149 157 154 152 150 155 160 152 155 162 154 148 157 158 167 181 188 183 175
177 170 169 160 149 150 143 140 147 151 152 148 156 153 137 140 134 133 111  62  38  32  23  15
  9   3   0   0   0   0   0   0   0   0   0   0   0   0   0   0   0   0   0   0   0   0   0   0
  0   0   0   0
  0   0   0   0   0   0   0   0   0   0   0   0   0   0   0   5   0   0 136 165 157 152 153 153
150 147 147 146 146 153 158 160 154 152 163 169 164 158 160 161 157 156 160 168 177 185 185 171
165 170 169 157 150 157 153 146 137 136 143 150 140 142 133 131 136 140 133  99  57  36  27  17
  9   5   0   0   0   0   0   0   0   0   0   0   0   0   0   0   0   0   0   0   0   0   0   0
  0   0   0   0
  0   0   0   0   0   0   0   0   0   0   0   0   0   0   0   5   0   0 138 165 150 150 149 148
150 148 147 146 151 158 155 160 159 157 162 165 164 158 156 157 154 156 159 166 171 175 186 178
167 164 167 163 154 149 149 160 157 148 152 159 138 141 137 121 131 140 141 122  80  50  28  19
 11   6   1   0   0   0   0   0   0   0   0   0   0   0   0   0   0   0   0   0   0   0   0   0
  0   0   0   0
  0   0   0   0   0   0   0   0   0   0   0   0   0   0   0   5   0   0 138 169 151 145 147 144
151 157 151 150 153 157 154 151 159 158 152 153 151 153 157 157 151 151 154 149 148 154 176 184
171 160 158 164 159 154 144 160 178 171 162 158 141 151 143 120 127 138 131 111  86  62  34  20
 14   8   1   0   0   0   0   0   0   0   0   0   0   0   0   0   0   0   0   0   0   0   0   0
  0   0   0   0
  0   0   0   0   0   0   0   0   0   0   0   0   0   0   0   5   0   0 136 165 148 147 147 143
143 155 158 158 157 148 143 142 150 153 153 150 146 151 161 165 162 158 157 151 143 141 158 175
172 166 160 151 144 146 146 153 170 173 178 172 150 150 147 129 136 141 136 110 100  77  40  24
 16   9   3   0   0   0   0   0   0   0   0   0   0   0   0   0   0   0   0   0   0   0   0   0
  0   0   0   0
  0   0   0   0   0   0   0   0   0   0   0   0   0   0   0   4   0   0 130 154 138 141 141 143
141 143 153 155 157 155 154 149 150 151 156 157 153 150 155 159 158 150 152 156 153 153 163 171
171 166 161 153 146 134 138 150 162 169 178 178 165 152 155 154 146 142 145 114 103  87  41  29
 18  10   3   0   0   0   0   0   0   0   0   0   0   0   0   0   0   0   0   0   0   0   0   0
  0   0   0   0
  0   0   0   0   0   0   0   0   0   0   0   0   0   0   0   4   0   0 129 151 139 140 138 140
142 144 145 148 150 152 158 153 151 155 156 158 159 158 150 145 146 147 152 155 161 157 161 164
163 169 153 149 152 140 141 152 158 163 167 173 174 165 158 168 152 131 131 122 110  93  43  29
 19  10   4   0   0   0   0   0   0   0   0   0   0   0   0   0   0   0   0   0   0   0   0   0
  0   0   0   0
  0   0   0   0   0   0   0   0   0   0   0   0   0   0   0   5   0   0 130 153 139 141 141 140
143 147 144 141 145 147 145 143 143 153 157 158 168 165 159 157 159 157 155 156 156 157 155 156
158 162 145 144 146 142 148 158 147 151 151 165 181 169 157 162 152 143 132 128 120  97  54  26
 20  12   6   0   0   0   0   0   0   0   0   0   0   0   0   0   0   0   0   0   0   0   0   0
  0   0   0   0
  0   0   0   0   0   0   0   0   0   0   0   0   0   0   0   5   0   0 132 161 148 143 142 143
143 145 145 144 146 148 147 139 140 147 151 157 163 161 158 160 164 165 160 157 150 153 153 154
156 151 135 137 144 156 159 158 148 145 144 156 178 178 163 160 158 151 143 125 116 101  62  28
 21  14   7   0   0   0   0   0   0   0   0   0   0   0   0   0   0   0   0   0   0   0   0   0
  0   0   0   0
  0   0   0   0   0   0   0   0   0   0   0   0   0   0   0   4   0   0 125 157 152 147 146 147
145 147 148 150 150 150 153 144 140 147 147 151 153 153 151 151 154 156 155 149 148 146 148 154
161 162 144 139 146 155 159 169 166 149 152 163 166 166 168 173 173 150 142 133 110 100  68  29
 22  15   8   0   0   0   0   0   0   0   0   0   0   0   0   0   0   0   0   0   0   0   0   0
  0   0   0   0
  0   0   0   0   0   0   0   0   0   0   0   0   0   0   0   4   0   0 122 150 147 150 148 148
148 147 146 146 145 151 152 148 145 149 147 149 155 153 150 155 149 149 157 149 144 139 142 147
156 166 155 150 152 143 152 176 169 151 152 162 162 158 161 167 176 154 138 144 120  90  73  31
 21  16   8   1   0   0   0   0   0   0   0   0   0   0   0   0   0   0   0   0   0   0   0   0
  0   0   0   0
  0   0   0   0   0   0   0   0   0   0   0   0   0   0   0   4   0   0 127 155 149 153 152 150
149 149 145 143 144 146 148 149 146 150 150 152 156 156 160 161 159 160 158 151 144 140 139 142
151 165 163 145 152 156 151 166 165 151 151 150 162 164 153 143 158 162 154 140 123  90  61  41
 24  15   9   1   0   0   0   0   0   0   0   0   0   0   0   0   0   0   0   0   0   0   0   0
  0   0   0   0
  0   0   0   0   0   0   0   0   0   0   0   0   0   0   0   4   0   0 125 154 147 150 154 156
156 157 153 148 148 149 150 150 150 156 152 154 153 154 165 165 166 165 153 143 138 144 145 143
150 164 166 150 160 165 149 148 164 167 157 147 153 160 145 127 140 163 161 124 118 112  60  43
 30  13  11   1   0   0   0   0   0   0   0   0   0   0   0   0   0   0   0   0   0   0   0   0
  0   0   0   0
  0   0   0   0   0   0   0   0   0   0   0   0   0   0   0   4   0   0 126 155 143 143 145 156
163 157 155 155 151 147 149 150 149 154 154 154 149 146 149 161 171 170 167 159 149 150 151 146
147 162 162 155 164 161 147 146 162 175 165 146 145 155 137 131 154 164 153 129 119 123  75  39
 29  16  11   1   0   0   0   0   0   0   0   0   0   0   0   0   0   0   0   0   0   0   0   0
  0   0   0   0
  0   0   0   0   0   0   0   0   0   0   0   0   0   0   0   4   0   0 123 156 153 151 149 151
161 165 155 154 156 154 155 156 150 146 151 154 151 151 148 149 164 166 164 170 163 155 153 152
155 171 174 157 152 163 150 141 154 163 157 152 146 142 134 135 153 148 137 137 114 106  99  64
 25  17  11   1   0   0   0   0   0   0   0   0   0   0   0   0   0   0   0   0   0   0   0   0
  0   0   0   0
  0   0   0   0   0   0   0   0   0   0   0   0   0   0   0   4   0   0 125 155 150 155 155 155
154 161 164 158 161 163 160 157 155 153 154 154 152 152 150 150 160 160 149 152 154 147 146 146
147 159 172 169 158 162 154 142 148 156 163 166 156 144 128 128 129 146 184 140 109  95  78  61
 30  15  12   0   0   0   0   0   0   0   0   0   0   0   0   0   0   0   0   0   0   0   0   0
  0   0   0   0
  0   0   0   0   0   0   0   0   0   0   0   0   0   0   0   4   0   0 124 156 149 149 151 157
162 164 162 162 165 163 156 151 155 157 153 153 152 149 152 159 161 156 152 149 153 149 148 151
141 144 151 158 156 154 159 156 145 151 156 156 163 158 139 141 140 136 154 127 112  85  59  44
 33  19  10   0   0   0   0   0   0   0   0   0   0   0   0   0   0   0   0   0   0   0   0   0
  0   0   0   0
  0   0   0   0   0   0   0   0   0   0   0   0   0   0   0   5   0   0 131 159 152 154 156 156
157 166 167 162 164 161 156 156 155 150 146 147 148 150 152 150 154 157 155 155 159 159 156 161
149 146 145 149 153 143 146 153 146 144 150 143 159 168 164 156 148 137 103 111 108  77  63  47
 36  21   8   0   0   0   0   0   0   0   0   0   0   0   0   0   0   0   0   0   0   0   0   0
  0   0   0   0
  0   0   0   0   0   0   0   0   0   0   0   0   0   0   0   5   0   0 135 169 158 162 164 162
153 156 163 163 164 155 155 158 152 143 144 146 149 149 151 151 156 160 157 152 155 162 162 163
161 152 157 166 157 133 140 150 154 161 166 155 158 165 160 150 143 142 114 102  94  72  58  36
 31  22   6   0   0   0   0   0   0   0   0   0   0   0   0   0   0   0   0   0   0   0   0   0
  0   0   0   0
  0   0   0   0   0   0   0   0   0   0   0   0   0   0   0   4   0   0 127 163 160 160 163 165
157 156 161 157 165 159 153 153 152 152 151 153 147 146 145 150 152 152 155 154 153 162 162 171
177 170 168 175 161 145 148 157 162 180 177 166 155 155 155 149 140 126 107  98  84  63  50  36
 26  20   5   0   0   0   0   0   0   0   0   0   0   0   0   0   0   0   0   0   0   0   0   0
  0   0   0   0
  0   0   0   0   0   0   0   0   0   0   0   0   0   0   0   4   0   0 132 160 156 163 158 161
160 159 159 153 157 159 150 149 144 147 147 149 146 143 143 143 144 143 145 151 155 158 158 163
172 175 171 164 156 161 156 157 166 167 156 159 155 152 161 156 138 118 103  99  75  48  46  35
 26  20   3   0   0   0   0   0   0   0   0   0   0   0   0   0   0   0   0   0   0   0   0   0
  0   0   0   0
  0   0   0   0   0   0   0   0   0   0   0   0   0   0   0   4   0   0 130 165 157 166 166 164
164 159 159 151 151 156 152 152 147 146 143 142 146 140 142 142 144 149 148 151 157 157 153 152
166 179 180 168 165 167 160 144 156 168 148 150 159 150 156 150 132 105  99  98  99 100  44  42
 36  20   0   0   0   0   0   0   0   0   0   0   0   0   0   0   0   0   0   0   0   0   0   0
  0   0   0   0
  0   0   0   0   0   0   0   0   0   0   0   0   0   0   0   4   0   0 128 164 160 159 170 171
168 166 167 159 153 155 154 153 150 146 144 140 147 150 148 153 156 153 158 162 154 151 153 153
163 170 178 172 165 168 165 148 151 169 160 144 143 138 154 145 130 110  91  94 110 113  67  53
 38  17   0   0   0   0   0   0   0   0   0   0   0   0   0   0   0   0   0   0   0   0   0   0
  0   0   0   0
  0   0   0   0   0   0   0   0   0   0   0   0   0   0   0   4   0   0 127 161 155 158 164 171
171 173 177 168 156 154 147 147 151 148 146 141 144 154 162 162 165 165 157 156 153 147 147 147
152 156 156 155 157 171 173 162 169 175 156 143 135 128 138 139 126 117 103  93  91  88  70  46
 37  13   0   1   0   0   0   0   0   0   0   0   0   0   0   0   0   0   0   0   0   0   0   0
  0   0   0   0
  0   0   0   0   0   0   0   0   0   0   0   0   0   0   0   4   0   0 128 159 151 153 155 161
170 177 183 180 165 155 155 149 145 147 150 147 142 142 149 156 158 161 152 144 144 138 136 135
134 142 146 139 137 162 175 161 166 176 157 140 128 121 115 116 114 106 116  97  84  87  57  45
 38   6   0   1   0   0   0   0   0   0   0   0   0   0   0   0   0   0   0   0   0   0   0   0
  0   0   0   0
  0   0   0   0   0   0   0   0   0   0   0   0   0   0   0   5   0   0 140 163 149 153 153 154
161 172 183 185 172 157 154 150 145 141 144 143 138 137 137 139 145 154 158 153 150 141 141 136
131 138 140 137 136 148 160 161 158 158 160 152 135 124 113 105 101 105 110  77  74  66  48  46
 31   0   0   0   0   0   0   0   0   0   0   0   0   0   0   0   0   0   0   0   0   0   0   0
  0   0   0   0
  0   0   0   0   0   0   0   0   0   0   0   0   0   0   0   5   0   0 144 178 158 151 155 154
154 161 177 184 174 164 157 149 151 145 144 142 133 132 134 133 134 142 152 155 156 149 148 141
135 138 138 139 145 147 153 164 154 149 149 151 147 133 114 114 105 102  95  81  83  62  48  40
 18   0   1   0   0   0   0   0   0   0   0   0   0   0   0   0   0   0   0   0   0   0   0   0
  0   0   0   0
  0   0   0   0   0   0   0   0   0   0   0   0   0   0   0   6   0   0 145 182 175 163 157 162
163 159 162 177 182 167 155 153 151 152 148 150 148 136 132 130 133 134 136 141 152 152 145 144
146 149 144 138 141 143 150 157 153 150 152 149 133 126 115 116 111 116 110 109  94  59  39  28
  2   0   0   0   0   0   0   0   0   0   0   0   0   0   0   0   0   0   0   0   0   0   0   0
  0   0   0   0
  0   0   0   0   0   0   0   0   0   0   0   0   0   0   0   5   0   0 139 172 169 175 171 165
165 166 163 167 178 175 156 150 149 149 147 146 147 147 141 133 135 135 130 132 138 146 145 147
154 158 159 150 146 152 146 151 153 140 133 138 134 117 107 105 110 113  96  84  58  34  28  11
  0   0   0   0   0   0   0   0   0   0   0   0   0   0   0   0   0   0   0   0   0   0   0   0
  0   0   0   0
  0   0   0   0   0   0   0   0   0   0   0   0   0   0   0   4   1   0 129 167 162 164 169 169
166 168 168 165 170 178 168 151 148 149 144 145 147 151 154 143 134 136 134 129 131 138 135 138
158 167 167 168 162 158 148 149 147 141 144 140 122 112 116 113 115  95  67  52  31  23  15   0
  0   0   0   0   0   0   0   0   0   0   0   0   0   0   0   0   0   0   0   0   0   0   0   0
  0   0   0   0
  0   0   0   0   0   0   0   0   0   0   0   0   0   0   0   3   1   0 119 157 162 164 164 162
163 165 168 172 170 178 180 162 151 148 147 142 141 143 148 149 140 137 138 134 132 132 132 133
144 158 159 166 161 150 141 131 132 130 125 120 107 105 101  95  88  72  62  43  23  15   4   0
  0   0   0   0   0   0   0   0   0   0   0   0   0   0   0   0   0   0   0   0   0   0   0   0
  0   0   0   0
  0   0   0   0   0   0   0   0   0   0   0   0   0   0   0   3   0   0 116 143 148 158 162 165
159 156 160 165 174 182 184 177 166 157 152 145 137 137 135 138 141 134 133 133 131 133 129 129
132 139 144 158 167 167 148 128 115 101  94  93  95  91  77  83  85  68  44  26  17   9   0   0
  0   0   0   0   0   0   0   0   0   0   0   0   0   0   0   0   0   0   0   0   0   0   0   0
  0   0   0   0
  0   0   0   0   0   0   0   0   0   0   0   0   0   0   0   3   0   0 114 141 134 144 155 161
161 152 151 155 159 172 184 184 175 166 159 155 147 137 132 134 135 134 134 132 129 128 128 130
136 133 139 163 176 167 141 124 115 108 108 110 101  85  84  88  69  43  22  17  14   2   0   0
  0   0   0   0   0   0   0   0   0   0   0   0   0   0   0   0   0   0   0   0   0   0   0   0
  0   0   0   0
  0   0   0   0   0   0   0   0   0   0   0   0   0   0   0   3   0   0 108 137 130 133 142 147
155 157 147 148 152 157 168 180 183 173 165 165 156 146 138 130 130 132 134 136 130 126 131 133
135 136 144 155 163 170 168 147 125 120 114 110  90  74  75  63  35  21  19  16   6   0   0   0
  0   0   0   0   0   0   0   0   0   0   0   0   0   0   0   0   0   0   0   0   0   0   0   0
  0   0   0   0
  0   0   0   0   0   0   0   0   0   0   0   0   0   0   0   3   0   0 109 134 130 130 135 134
141 150 147 144 144 148 152 163 177 183 185 180 163 152 146 140 134 132 130 132 131 129 131 135
140 147 151 154 161 164 160 140 130 124 103  88  72  76  63  38  27  20  16   9   0   0   0   0
  0   0   0   0   0   0   0   0   0   0   0   0   0   0   0   0   0   0   0   0   0   0   0   0
  0   0   0   0
  0   0   0   0   0   0   0   0   0   0   0   0   0   0   0   3   0   0 110 134 127 128 132 131
132 141 143 139 138 137 139 144 152 166 179 187 191 175 149 139 143 141 138 136 133 132 135 132
131 134 127 130 147 139 126 109  97  85  73  63  53  57  42  28  21  15  11   2   0   0   0   0
  0   0   0   0   0   0   0   0   0   0   0   0   0   0   0   0   0   0   0   0   0   0   0   0
  0   0   0   0
  0   0   0   0   0   0   0   0   0   0   0   0   0   0   0   3   0   0 106 128 119 124 127 125
124 132 138 136 133 134 133 134 140 148 160 166 185 200 187 165 159 152 140 137 139 139 136 135
132 129 125 132 134 125 117  89  71  64  58  49  45  38  27  22  15  10   3   0   0   0   0   0
  0   0   0   0   0   0   0   0   0   0   0   0   0   0   0   0   0   0   0   0   0   0   0   0
  0   0   0   0
  0   0   0   0   0   0   0   0   0   0   0   0   0   0   0   3   0   0 103 124 113 116 121 119
118 124 130 126 126 131 134 132 132 141 153 160 161 177 203 207 195 183 172 161 157 150 140 138
142 147 142 132 117 113 103  83  68  60  51  42  37  28  20  16  12   4   0   0   0   0   0   0
  0   0   0   0   0   0   0   0   0   0   0   0   0   0   0   0   0   0   0   0   0   0   0   0
  0   0   0   0
  0   0   0   0   0   0   0   0   0   0   0   0   0   0   0   2   0   0  97 118 112 112 113 116
112 115 123 120 114 119 124 128 128 129 136 144 144 141 158 192 206 205 203 199 190 169 148 144
144 138 120 103  91  91  86  74  57  48  41  34  29  21  14  11   5   0   0   0   0   0   0   0
  0   0   0   0   0   0   0   0   0   0   0   0   0   0   0   0   0   0   0   0   0   0   0   0
  0   0   0   0
  0   0   0   0   0   0   0   0   0   0   0   0   0   0   0   2   0   0  96 106  96 103 103 106
103 104 115 115 109 108 112 118 120 119 119 132 134 127 131 150 175 192 190 184 175 158 140 137
137 127 108  98  87  78  73  65  55  43  35  28  23  15  10   5   0   0   0   0   0   0   0   0
  0   0   0   0   0   0   0   0   0   0   0   0   0   0   0   0   0   0   0   0   0   0   0   0
  0   0   0   0
  0   0   0   0   0   0   0   0   0   0   0   0   0   0   0   4   0   0 119 131  96  81  83  89
 90  89  98 101  99 101 101 106 112 112 113 116 122 118 126 131 128 142 166 157 130 122 114 103
 99  94  82  76  72  65  57  49  41  32  25  18  12  10   5   0   0   0   0   0   0   0   0   0
  0   0   0   0   0   0   0   0   0   0   0   0   0   0   0   0   0   0   0   0   0   0   0   0
  0   0   0   0
  0   0   0   0   0   0   0   0   0   0   0   0   0   0   0   1   2   0  77 111 114  99  75  67
 73  74  80  84  82  86  89  90  96 102 109 102 103 111 112 119 114 102 114 137 136 112  93  83
 76  71  67  60  53  47  40  33  25  18  14  11   8   4   0   0   0   0   0   0   0   0   0   0
  0   0   0   0   0   0   0   0   0   0   0   0   0   0   0   0   0   0   0   0   0   0   0   0
  0   0   0   0
  0   0   0   0   0   0   0   0   0   0   0   0   0   0   0   0   0   3   0   0  50  80  87  77
 61  57  62  68  68  67  71  76  77  85  92  90  88  95  93  90  96  95  87  88 110 116  94  78
 69  61  56  48  39  35  30  27  19  13  11   9   3   0   0   0   0   0   0   0   0   0   0   0
  0   0   0   0   0   0   0   0   0   0   0   0   0   0   0   0   0   0   0   0   0   0   0   0
  0   0   0   0
  0   0   0   0   0   0   0   0   0   0   0   0   0   0   0   0   0   0  11   1   0   0  36  62
 69  62  51  45  53  56  56  60  65  67  67  71  71  75  77  72  71  73  74  70  63  74  77  65
 55  49  41  36  31  25  20  16  13  10   7   2   0   0   0   0   0   0   0   0   0   0   0   0
  0   0   0   0   0   0   0   0   0   0   0   0   0   0   0   0   0   0   0   0   0   0   0   0
  0   0   0   0
  0   0   0   0   0   0   0   0   0   0   0   0   0   0   0   0   0   0   0   3   8   2   0   0
 25  47  54  47  38  36  37  39  44  48  53  51  51  54  57  58  57  54  52  52  54  47  45  44
 40  35  29  25  22  17  13  12  10   5   1   0   0   0   0   0   0   0   0   0   0   1   6   3
  5   0   0   0   0   0   0   0   0   0   0   0   0   0   0   0   0   0   0   0   0   0   0   0
  0   0   0   0
  0   0   0   0   0   0   0   0   0   0   0   0   0   0   0   0   0   0   0   0   0   1   4   2
  0   0  15  34  36  35  30  27  27  31  36  38  39  38  41  44  43  41  38  36  35  37  33  29
 28  24  21  17  14  12  11   8   3   0   0   0   0   0   0   0   0   0   0   0   2   0   0   0
  0   0   1   0   0   0   0   0   0   0   0   0   0   0   0   0   0   0   0   0   0   0   0   0
  0   0   0   0
  0   0   0   0   0   0   0   0   0   0   0   0   0   0   0   0   0   0   1   0   0   0   0   0
  3   2   0   0   5  19  25  25  23  20  20  23  24  27  28  29  28  29  27  26  25  24  23  21
 19  15  13  11   9   7   3   0   0   0   0   0   0   0   0   0   0   0   0   2   0  16  40  32
 61  32   0   3   0   0   0   0   0   0   0   0   0   0   0   0   0   0   0   0   0   0   0   0
  0   0   0   0
