P2
# 8-bit pgm gray
100 100
255
  0   0   0   0   0   0   0   0   0   0   0   0   0   0   0   0   0   0   0   0   0   0   0   0
  0   0   0   2  18   0 142 201 193 192 195 191 183 183 182 181 179 173 163 136 102  99  91  74
 63  47  33  14  12  13  13  13  13  13  13  13  14  13  14  14  14  13  13  13  14   7   0   0
  0   0   0   0   0   0   0   0   0   0   0   0   0   0   0   0   0   0   0   0   0   0   0   0
  0   0   0   0
  0   0   0   0   0   0   0   0   0   0   0   0   0   0   0   0   0   0   0   0   0   0   0   0
  0   0   0   2  18   0 143 200 191 193 194 187 182 183 182 180 175 170 157 129  98  98  88  69
 57  44  31  12  12  13  13  13  13  13  13  13  13  13  13  13  13  13  13  13  14   7   0   0
  0   0   0   0   0   0   0   0   0   0   0   0   0   0   0   0   0   0   0   0   0   0   0   0
  0   0   0   0
  0   0   0   0   0   0   0   0   0   0   0   0   0   0   0   0   0   0   0   0   0   0   0   0
  0   0   0   2  18   0 142 199 190 192 193 183 178 180 180 178 173 167 152 121  98  97  84  65
 52  42  27  10  12  12  13  13  13  13  13  13  13  13  12  13  13  12  13  13  14   7   0   0
  0   0   0   0   0   0   0   0   0   0   0   0   0   0   0   0   0   0   0   0   0   0   0   0
  0   0   0   0
  0   0   0   0   0   0   0   0   0   0   0   0   0   0   0   0   0   0   0   0   0   0   0   0
  0   0   0   2  18   0 139 197 191 193 191 181 177 178 176 175 170 161 143 111  98  95  78  62
 49  39  23   9  12  12  12  12  13  13  12  13  13  12  12  12  13  13  12  12  14   7   0   0
  0   0   0   0   0   0   0   0   0   0   0   0   0   0   0   0   0   0   0   0   0   0   0   0
  0   0   0   0
  0   0   0   0   0   0   0   0   0   0   0   0   0   0   0   0   0   0   0   0   0   0   0   0
  0   0   0   2  18   0 138 197 192 191 190 180 176 177 175 173 164 154 132 104  97  91  71  58
 47  36  19  10  12  12  12  12  12  13  12  12  13  12  12  12  13  12  12  12  14   7   0   0
  0   0   0   0   0   0   0   0   0   0   0   0   0   0   0   0   0   0   0   0   0   0   0   0
  0   0   0   0
  0   0   0   0   0   0   0   0   0   0   0   0   0   0   0   0   0   0   0   0   0   0   0   0
  0   0   0   2  18   0 140 198 188 189 188 179 177 177 174 168 161 150 125  99  97  89  68  54
 44  32  14  10  12  12  12  12  13  13  13  13  13  13  12  13  13  12  12  12  14   7   0   0
  0   0   0   0   0   0   0   0   0   0   0   0   0   0   0   0   0   0   0   0   0   0   0   0
  0   0   0   0
  0   0   0   0   0   0   0   0   0   0   0   0   0   0   0   0   0   0   0   0   0   0   0   0
  0   0   0   2  18   0 138 197 188 188 185 177 177 175 172 167 159 147 121  99  96  83  64  49
 41  28  12  11  12  12  12  12  13  13  13  13  13  13  13  13  13  12  12  12  14   7   0   0
  0   0   0   0   0   0   0   0   0   0   0   0   0   0   0   0   0   0   0   0   0   0   0   0
  0   0   0   0
  0   0   0   0   0   0   0   0   0   0   0   0   0   0   0   0   0   0   0   0   0   0   0   0
  0   0   0   2  17   0 135 194 188 188 184 173 177 176 171 166 157 142 114 101  93  75  58  47
 38  25  10  11  12  12  12  12  12  13  13  13  13  13  13  13  13  12  12  12  14   7   0   0
  0   0   0   0   0   0   0   0   0   0   0   0   0   0   0   0   0   0   0   0   0   0   0   0
  0   0   0   0
  0   0   0   0   0   0   0   0   0   0   0   0   0   0   0   0   0   0   0   0   0   0   0   0
  0   0   0   2  17   0 134 193 186 186 183 176 176 175 168 160 152 135 106  99  89  70  56  47
 35  22   9  11  12  12  12  12  12  12  13  13  13  13  12  12  13  13  12  12  14   7   0   0
  0   0   0   0   0   0   0   0   0   0   0   0   0   0   0   0   0   0   0   0   0   0   0   0
  0   0   0   0
  0   0   0   0   0   0   0   0   0   0   0   0   0   0   0   0   0   0   0   0   0   0   0   0
  0   0   0   1  17   0 131 190 186 185 177 176 177 172 165 155 146 127 100  94  86  65  55  45
 34  20  10  12  12  12  12  12  12  12  12  12  13  13  12  12  12  12  12  12  14   7   0   0
  0   0   0   0   0   0   0   0   0   0   0   0   0   0   0   0   0   0   0   0   0   0   0   0
  0   0   0   0
  0   0   0   0   0   0   0   0   0   0   0   0   0   0   0   0   0   0   0   0   0   0   0   0
  0   0   0   1  16   0 129 188 185 183 174 171 174 172 166 155 140 120  99  92  85  65  52  43
 33  20  10  12  11  11  12  12  12  12  12  12  13  13  12  12  12  12  12  12  14   7   0   0
  0   0   0   0   0   0   0   0   0   0   0   0   0   0   0   0   0   0   0   0   0   0   0   0
  0   0   0   0
  0   0   0   0   0   0   0   0   0   0   0   0   0   0   0   0   0   0   0   0   0   0   0   0
  0   0   0   1  17   0 131 189 187 182 173 170 168 171 170 156 138 115  98  96  87  69  53  43
 34  20   9  12  11  11  11  12  12  11  12  12  13  12  12  12  12  12  12  12  13   7   0   0
  0   0   0   0   0   0   0   0   0   0   0   0   0   0   0   0   0   0   0   0   0   0   0   0
  0   0   0   0
  0   0   0   0   0   0   0   0   0   0   0   0   0   0   0   0   0   0   0   0   0   0   0   0
  0   0   0   1  17   0 131 188 186 181 171 167 166 167 164 147 131 114 100  95  85  74  59  46
 35  22  10  11  11  11  11  11  11  12  11  12  13  12  12  12  13  12  12  12  13   7   0   0
  0   0   0   0   0   0   0   0   0   0   0   0   0   0   0   0   0   0   0   0   0   0   0   0
  0   0   0   0
  0   0   0   0   0   0   0   0   0   0   0   0   0   0   0   0   0   0   0   0   0   0   0   0
  0   0   0   1  17   0 132 186 180 180 171 165 165 160 155 146 123 107 104  96  83  75  64  51
 38  25  11  11  11  11  11  11  11  12  11  12  12  12  12  12  13  12  12  12  13   7   0   0
  0   0   0   0   0   0   0   0   0   0   0   0   0   0   0   0   0   0   0   0   0   0   0   0
  0   0   0   0
  0   0   0   0   0   0   0   0   0   0   0   0   0   0   0   0   0   0   0   0   0   0   0   0
  0   0   0   1  16   0 131 183 175 176 170 166 163 155 146 141 122 101 102  99  85  76  66  52
 42  29  13  10  11  11  11  11  11  11  11  12  12  12  12  13  13  12  12  12  13   7   0   0
  0   0   0   0   0   0   0   0   0   0   0   0   0   0   0   0   0   0   0   0   0   0   0   0
  0   0   0   0
  0   0   0   0   0   0   0   0   0   0   0   0   0   0   0   0   0   0   0   0   0   0   0   0
  0   0   0   1  17   0 132 183 173 173 168 163 159 153 140 136 121  99 101 100  91  78  71  56
 45  33  18   9  11  10  11  11  11  12  11  12  12  12  12  13  13  13  12  13  14   7   0   0
  0   0   0   0   0   0   0   0   0   0   0   0   0   0   0   0   0   0   0   0   0   0   0   0
  0   0   0   0
  0   0   0   0   0   0   0   0   0   0   0   0   0   0   0   0   0   0   0   0   0   0   0   0
  0   0   0   1  17   0 133 184 170 172 167 159 156 150 140 127 114 100  96  98  95  85  73  61
 50  40  24   9  11  11  11  11  11  11  11  12  12  12  12  12  13  12  12  12  14   7   0   0
  0   0   0   0   0   0   0   0   0   0   0   0   0   0   0   0   0   0   0   0   0   0   0   0
  0   0   0   0
  0   0   0   0   0   0   0   0   0   0   0   0   0   0   0   0   0   0   0   0   0   0   0   0
  0   0   0   1  17   0 134 184 170 169 166 159 153 145 134 121 107 105  97  97  97  92  82  67
 55  44  31  13  10  11  11  11  11  11  11  12  12  12  12  12  13  12  12  12  13   7   0   0
  0   0   0   0   0   0   0   0   0   0   0   0   0   0   0   0   0   0   0   0   0   0   0   0
  0   0   0   0
  0   0   0   0   0   0   0   0   0   0   0   0   0   0   0   0   0   0   0   0   0   0   0   0
  0   0   0   1  17   0 132 185 169 166 164 159 148 141 131 116 106 108 101  98  97  92  88  78
 65  50  36  19   9  11  11  11  11  11  11  12  12  12  12  12  12  12  12  12  13   7   0   0
  0   0   0   0   0   0   0   0   0   0   0   0   0   0   0   0   0   0   0   0   0   0   0   0
  0   0   0   0
  0   0   0   0   0   0   0   0   0   0   0   0   0   0   0   0   0   0   0   0   0   0   0   0
  0   0   0   1  16   0 128 182 171 166 160 155 148 138 128 111 102 109 104  96  95  94  88  80
 73  65  50  26   9  12  11  11  11  11  12  11  12  12  12  12  12  12  11  12  13   7   0   0
  0   0   0   0   0   0   0   0   0   0   0   0   0   0   0   0   0   0   0   0   0   0   0   0
  0   0   0   0
  0   0   0   0   0   0   0   0   0   0   0   0   0   0   0   0   0   0   0   0   0   0   0   0
  0   0   0   1  16   0 125 178 170 166 157 149 144 137 123 109 101 104 106  97  95  97  93  83
 76  68  54  35  13  11  12  11  12  12  11  11  12  12  12  12  12  12  11  11  13   7   0   0
  0   0   0   0   0   0   0   0   0   0   0   0   0   0   0   0   0   0   0   0   0   0   0   0
  0   0   0   0
  0   0   0   0   0   0   0   0   0   0   0   0   0   0   0   0   0   0   0   0   0   0   0   0
  0   0   0   1  16   0 125 175 166 164 155 147 141 135 123 106 102 102 103  99  97 100  95  87
 81  70  56  42  21   8  12  11  12  11  11  11  12  11  11  12  11  11  11  11  13   7   0   0
  0   0   0   0   0   0   0   0   0   0   0   0   0   0   0   0   0   0   0   0   0   0   0   0
  0   0   0   0
  0   0   0   0   0   0   0   0   0   0   0   0   0   0   0   0   0   0   0   0   0   0   0   0
  0   0   0   1  14   0 124 171 161 160 153 146 137 129 120 109 103 102 103 102  99 102 103  91
 83  75  64  49  31   9  11  11  11  11  11  12  12  11  11  11  11  11  10  11  13   6   0   0
  0   0   0   0   0   0   0   0   0   0   0   0   0   0   0   0   0   0   0   0   0   0   0   0
  0   0   0   0
  0   0   0   0   0   0   0   0   0   0   0   0   0   0   0   0   0   0   0   0   0   0   0   0
  0   0   0   1  14   0 121 167 159 158 148 141 132 123 112 106 104  99 104 105  98  99 108  97
 86  78  68  53  39  16  10  12  11  11  11  11  12  11  11  11  11  11  11  11  12   6   0   0
  0   0   0   0   0   0   0   0   0   0   0   0   0   0   0   0   0   0   0   0   0   0   0   0
  0   0   0   0
  0   0   0   0   0   0   0   0   0   0   0   0   0   0   0   0   0   0   0   0   0   0   0   0
  0   0   0   1  13   0 119 166 157 156 147 137 130 120 107 100 100  99 100 104  97  98 106 102
 90  82  74  61  47  26   8  11  11  11  10  11  12  11  11  11  11  10  10  10  11   6   0   0
  0   0   0   0   0   0   0   0   0   0   0   0   0   0   0   0   0   0   0   0   0   0   0   0
  0   0   0   0
  0   0   0   0   0   0   0   0   0   0   0   0   0   0   0   0   0   0   0   0   0   0   0   0
  0   0   0   1  13   0 119 165 155 150 147 136 126 114 105 102 101 100  98 104 101  97 104 104
 97  87  78  69  54  34  11  10  11  10  10  11  12  11  11  11  11  10  10  10  11   6   0   0
  0   0   0   0   0   0   0   0   0   0   0   0   0   0   0   0   0   0   0   0   0   0   0   0
  0   0   0   0
  0   0   0   0   0   0   0   0   0   0   0   0   0   0   0   0   0   0   0   0   0   0   0   0
  0   0   0   1  13   0 117 163 153 147 143 134 122 107 102 102  99  98  97 101 105 102 104 106
103  96  86  74  59  43  18   8  11  10  10  11  11  11  11  10  10  10   9  10  11   6   0   0
  0   0   0   0   0   0   0   0   0   0   0   0   0   0   0   0   0   0   0   0   0   0   0   0
  0   0   0   0
  0   0   0   0   0   0   0   0   0   0   0   0   0   0   0   0   0   0   0   0   0   0   0   0
  0   0   0   1  12   0 115 160 150 147 141 130 120 107 101  99  99  98  98  99 106 106 104 103
100  95  89  79  67  50  26   7  12  11  10  11  11  11  10  10  11  10  10  10  12   6   0   0
  0   0   0   0   0   0   0   0   0   0   0   0   0   0   0   0   0   0   0   0   0   0   0   0
  0   0   0   0
  0   0   0   0   0   0   0   0   0   0   0   0   0   0   0   0   0   0   0   0   0   0   0   0
  0   0   0   1  12   0 115 161 148 143 137 127 116 105 103  99 100 101 101  99 103 104 102 101
 98  95  90  80  68  54  35   9  11  11  10  10  10  10  10  10  10  10  10  10  12   6   0   0
  0   0   0   0   0   0   0   0   0   0   0   0   0   0   0   0   0   0   0   0   0   0   0   0
  0   0   0   0
  0   0   0   0   0   0   0   0   0   0   0   0   0   0   0   0   0   0   0   0   0   0   0   0
  0   0   0   1  13   0 116 160 145 141 131 120 110 103 102  99  97  99  99  97  99 101 102  98
 96  94  92  86  70  57  40  13   9  11  10  10  10  10  10  10  10  10  10  10  11   6   0   0
  0   0   0   0   0   0   0   0   0   0   0   0   0   0   0   0   0   0   0   0   0   0   0   0
  0   0   0   0
  0   0   0   0   0   0   0   0   0   0   0   0   0   0   0   0   0   0   0   0   0   0   0   0
  0   0   0   1  12   0 115 158 141 136 128 115 107 101 101 100  96  97  97  95  97 103 103  96
 94  92  90  88  74  58  43  19   8  11  10  11  11  10  10   9  10  10  10  10  11   6   0   0
  0   0   0   0   0   0   0   0   0   0   0   0   0   0   0   0   0   0   0   0   0   0   0   0
  0   0   0   0
  0   0   0   0   0   0   0   0   0   0   0   0   0   0   0   0   0   0   0   0   0   0   0   0
  0   0   0   1  11   0 113 155 139 132 123 112 105 100 100  98  97  98  96  95  95 103 105  95
 92  92  90  87  78  62  47  25   6  11  10  10  11  10   9   9  10  10  10  10  11   6   0   0
  0   0   0   0   0   0   0   0   0   0   0   0   0   0   0   0   0   0   0   0   0   0   0   0
  0   0   0   0
  0   0   0   0   0   0   0   0   0   0   0   0   0   0   0   0   0   0   0   0   0   0   0   0
  0   0   0   1  11   0 111 154 139 131 120 108 105 105  99  98  98  99  99  97  98 100 104  97
 90  90  89  87  81  67  50  31   7  11  10  10  11  10   9  10  10  10  10  10  11   6   0   0
  0   0   0   0   0   0   0   0   0   0   0   0   0   0   0   0   0   0   0   0   0   0   0   0
  0   0   0   0
  0   0   0   0   0   0   0   0   0   0   0   0   0   0   0   0   0   0   0   0   0   0   0   0
  0   0   0   1  11   0 109 152 139 131 120 107 105 107 103  99  99  99 101  98  97 100 103 100
 90  87  88  86  82  71  54  36  10   9  10  10  11  10  10  10  10  10  10  10  11   6   0   0
  0   0   0   0   0   0   0   0   0   0   0   0   0   0   0   0   0   0   0   0   0   0   0   0
  0   0   0   0
  0   0   0   0   0   0   0   0   0   0   0   0   0   0   0   0   0   0   0   0   0   0   0   0
  0   0   0   1  10   0 108 150 138 128 116 107 101 102 103  98  97  97  97  98  93  96 101  99
 93  88  87  86  82  73  59  41  15   8  10  10  11  10  10  10  10  10  10  10  11   6   0   0
  0   0   0   0   0   0   0   0   0   0   0   0   0   0   0   0   0   0   0   0   0   0   0   0
  0   0   0   0
  0   0   0   0   0   0   0   0   0   0   0   0   0   0   0   0   0   0   0   0   0   0   0   0
  0   0   0   1  11   0 107 149 135 125 113 104 101 100 102  99  95  95  96  96  94  98  98  97
 95  89  86  87  83  74  63  47  23   6  10  10  11  11  10  10  10  10  10  10  11   5   0   0
  0   0   0   0   0   0   0   0   0   0   0   0   0   0   0   0   0   0   0   0   0   0   0   0
  0   0   0   0
  0   0   0   0   0   0   0   0   0   0   0   0   0   0   0   0   0   0   0   0   0   0   0   0
  0   0   0   1  10   0 107 147 131 123 111 102 101  98  98  99  97  95  96  96  98 100  96  95
 94  91  90  88  86  79  67  52  31   7  10  10  11  11  10  10  10  10  10  10  11   5   0   0
  0   0   0   0   0   0   0   0   0   0   0   0   0   0   0   0   0   0   0   0   0   0   0   0
  0   0   0   0
  0   0   0   0   0   0   0   0   0   0   0   0   0   0   0   0   0   0   0   0   0   0   0   0
  0   0   0   1  10   0 105 145 130 120 110 103 100  98  97  96  98  98  96  98  99  99  94  92
 92  88  90  90  87  82  71  57  38  11   9  10  11  10  10  10  10   9  10  10  11   5   0   0
  0   0   0   0   0   0   0   0   0   0   0   0   0   0   0   0   0   0   0   0   0   0   0   0
  0   0   0   0
  0   0   0   0   0   0   0   0   0   0   0   0   0   0   0   0   0   0   0   0   0   0   0   0
  0   0   0   1   9   0 104 144 131 118 107 104 101  99  98  95  95  98  97  99  99  97  94  95
 96  89  89  92  86  81  74  62  44  17   7  11  11  10  10  10  10   9   9  10  11   5   0   0
  0   0   0   0   0   0   0   0   0   0   0   0   0   0   0   0   0   0   0   0   0   0   0   0
  0   0   0   0
  0   0   0   0   0   0   0   0   0   0   0   0   0   0   0   0   0   0   0   0   0   0   0   0
  0   0   0   1   8   0 100 136 122 116 109 102 102 100  97  95  94  94  97  98 101 100  97  94
 93  89  87  88  85  82  75  64  48  25   6  11  10  10   9  10  10   9   9  10  10   5   0   0
  0   0   0   0   0   0   0   0   0   0   0   0   0   0   0   0   0   0   0   0   0   0   0   0
  0   0   0   0
  0   0   0   0   0   0   0   0   0   0   0   0   0   0   0   0   0   0   0   0   0   0   0   0
  0   0   0   1   7   0  97 131 113 111 110 101 101 100  95  94  93  93  97  99 101  99  94  94
 90  87  86  86  86  83  76  65  52  32   7  10  10  10  10  10   9   9   9  10  11   5   0   0
  0   0   0   0   0   0   0   0   0   0   0   0   0   0   0   0   0   0   0   0   0   0   0   0
  0   0   0   0
  0   0   0   0   0   0   0   0   0   0   0   0   0   0   0   0   0   0   0   0   0   0   0   0
  0   0   0   1   7   0  97 130 111 109 109 103 102 100  98  96  93  94  98  99  99  99  96  93
 88  87  88  86  86  84  78  68  56  37  11   9  10  10   9  10  10   9   9   9  11   5   0   0
  0   0   0   0   0   0   0   0   0   0   0   0   0   0   0   0   0   0   0   0   0   0   0   0
  0   0   0   0
  0   0   0   0   0   0   0   0   0   0   0   0   0   0   0   0   0   0   0   0   0   0   0   0
  0   0   0   1   7   0  96 128 112 107 107 105 102  99  98  95  94  96  98  99  96 102 101  92
 87  87  87  85  84  82  78  71  60  42  17   7  11  10   9   9  10   9   9  10  10   5   0   0
  0   0   0   0   0   0   0   0   0   0   0   0   0   0   0   0   0   0   0   0   0   0   0   0
  0   0   0   0
  0   0   0   0   0   0   0   0   0   0   0   0   0   0   0   0   0   0   0   0   0   0   0   0
  0   0   0   1   7   0  96 125 109 106 103 101 104 102  98  97  96  96  97 100  97 101 102  91
 87  86  86  84  84  82  79  74  62  46  23   6  11  10  10   9   9   9   9   9  10   5   0   0
  0   0   0   0   0   0   0   0   0   0   0   0   0   0   0   0   0   0   0   0   0   0   0   0
  0   0   0   0
  0   0   0   0   0   0   0   0   0   0   0   0   0   0   0   0   0   0   0   0   0   0   0   0
  0   0   0   1   6   0  93 122 107 106 101  98 103 106  99  98  99  96  97  98  96  99  97  89
 86  86  87  85  83  83  79  73  61  48  29   7  10   9  10  10  10   9   9   9  10   5   0   0
  0   0   0   0   0   0   0   0   0   0   0   0   0   0   0   0   0   0   0   0   0   0   0   0
  0   0   0   0
  0   0   0   0   0   0   0   0   0   0   0   0   0   0   0   0   0   0   0   0   0   0   0   0
  0   0   0   1   6   0  89 120 107 105 103 101 102 106 104  97  96  95  97  95  92  97  96  90
 85  85  86  86  85  82  79  73  64  50  33  10   9   9  10  10  10   9   9   9  10   5   0   0
  0   0   0   0   0   0   0   0   0   0   0   0   0   0   0   0   0   0   0   0   0   0   0   0
  0   0   0   0
  0   0   0   0   0   0   0   0   0   0   0   0   0   0   0   0   0   0   0   0   0   0   0   0
  0   0   0   1   7   0  95 126 109 105 103 104 104 103 105  99  96  96  96  94  94  98  96  90
 87  84  85  86  85  81  79  75  66  52  36  14   9  10   9  10   9   9   9   9  10   5   0   0
  0   0   0   0   0   0   0   0   0   0   0   0   0   0   0   0   0   0   0   0   0   0   0   0
  0   0   0   0
  0   0   0   0   0   0   0   0   0   0   0   0   0   0   0   0   0   0   0   0   0   0   0   0
  0   0   0   1   8   0  95 129 114 107 102 101 102 102 104 100 100  98  94  94  96  98  92  88
 87  86  86  86  84  82  79  76  69  55  40  18   8  10   9  10   9   9   8   9  10   5   0   0
  0   0   0   0   0   0   0   0   0   0   0   0   0   0   0   0   0   0   0   0   0   0   0   0
  0   0   0   0
  0   0   0   0   0   0   0   0   0   0   0   0   0   0   0   0   0   0   0   0   0   0   0   0
  0   0   0   1   6   0  86 118 111 111 109 105 103 106 108 103 103 101  97  97 102  99  91  88
 84  85  87  87  84  81  79  77  70  56  43  23   7  10   9   9   9   9   8   8  10   5   0   0
  0   0   0   0   0   0   0   0   0   0   0   0   0   0   0   0   0   0   0   0   0   0   0   0
  0   0   0   0
  0   0   0   0   0   0   0   0   0   0   0   0   0   0   0   0   0   0   0   0   0   0   0   0
  0   0   0   1   5   0  81 113 106 105 108 110 108 106 107 104 103  99  98 101 107 101  94  89
 86  83  84  84  84  83  79  77  71  58  45  26   7  10   9   9   9   9   8   8   9   4   0   0
  0   0   0   0   0   0   0   0   0   0   0   0   0   0   0   0   0   0   0   0   0   0   0   0
  0   0   0   0
  0   0   0   0   0   0   0   0   0   0   0   0   0   0   0   0   0   0   0   0   0   0   0   0
  0   0   0   1   5   0  81 113 105  99  99 100 103 107 106 103 101 100  97 102 110 106  96  88
 86  83  82  84  83  83  79  77  72  60  48  31   7   9   9   9   9   8   8   8   9   4   0   0
  0   0   0   0   0   0   0   0   0   0   0   0   0   0   0   0   0   0   0   0   0   0   0   0
  0   0   0   0
  0   0   0   0   0   0   0   0   0   0   0   0   0   0   0   0   0   0   0   0   0   0   0   0
  0   0   0   1   5   0  84 116 106 101 102 101  97 102 109 108 103 101  99  99 107 105  97  89
 86  86  83  82  83  82  81  77  71  60  48  34   9   9   9   9   9   9   8   8   9   5   0   0
  0   0   0   0   0   0   0   0   0   0   0   0   0   0   0   0   0   0   0   0   0   0   0   0
  0   0   0   0
  0   0   0   0   0   0   0   0   0   0   0   0   0   0   0   0   0   0   0   0   0   0   0   0
  0   0   0   1   5   0  82 116 108 103 101 101  98 100 110 114 106  97  98  97 101  99  96  90
 84  85  83  82  83  83  81  79  72  61  50  35  12   9  10  10  10   9   8   8   9   5   0   0
  0   0   0   0   0   0   0   0   0   0   0   0   0   0   0   0   0   0   0   0   0   0   0   0
  0   0   0   0
  0   0   0   0   0   0   0   0   0   0   0   0   0   0   0   0   0   0   0   0   0   0   0   0
  0   0   0   1   5   0  82 116 111 109 106 104 101 102 112 116 111  99  98  99 102 101  95  90
 87  84  82  83  82  82  80  81  75  63  53  38  15   8  10  10  10   9   8   8   9   5   0   0
  0   0   0   0   0   0   0   0   0   0   0   0   0   0   0   0   0   0   0   0   0   0   0   0
  0   0   0   0
  0   0   0   0   0   0   0   0   0   0   0   0   0   0   0   0   0   0   0   0   0   0   0   0
  0   0   0   1   6   0  84 118 107 108 110 112 106 102 110 115 114 104 101 105 109 102  96  92
 90  89  86  83  82  82  81  82  79  68  55  40  18   7  11   9   9   8   8   8   9   5   0   0
  0   0   0   0   0   0   0   0   0   0   0   0   0   0   0   0   0   0   0   0   0   0   0   0
  0   0   0   0
  0   0   0   0   0   0   0   0   0   0   0   0   0   0   0   0   0   0   0   0   0   0   0   0
  0   0   0   1   5   0  81 113 105 104 107 110 113 107 105 108 109 105 105 112 111  99  99  94
 90  90  88  87  84  80  80  82  78  69  56  42  22   7  10  10   9   8   8   8   9   5   0   0
  0   0   0   0   0   0   0   0   0   0   0   0   0   0   0   0   0   0   0   0   0   0   0   0
  0   0   0   0
  0   0   0   0   0   0   0   0   0   0   0   0   0   0   0   0   0   0   0   0   0   0   0   0
  0   0   0   1   5   0  79 112 104 102 104 102 107 108 108 111 107 106 104 111 112 102  98  95
 91  90  90  86  84  83  81  81  75  67  57  45  25   6  10  10   9   8   8   8   9   5   0   0
  0   0   0   0   0   0   0   0   0   0   0   0   0   0   0   0   0   0   0   0   0   0   0   0
  0   0   0   0
  0   0   0   0   0   0   0   0   0   0   0   0   0   0   0   0   0   0   0   0   0   0   0   0
  0   0   0   1   5   0  80 112 104 102 103 103 102 104 107 110 111 110 109 115 115 106  99  92
 88  88  87  84  84  85  84  81  76  70  59  48  30   7  10  10   9   8   8   8   9   5   0   0
  0   0   0   0   0   0   0   0   0   0   0   0   0   0   0   0   0   0   0   0   0   0   0   0
  0   0   0   0
  0   0   0   0   0   0   0   0   0   0   0   0   0   0   0   0   0   0   0   0   0   0   0   0
  0   0   0   1   5   0  80 114 104  99  99 103 104 102 101 101 110 110 110 119 115 103  96  92
 88  87  84  81  80  79  82  83  80  74  63  52  35   8  10  10  10   9   9   8   9   5   0   0
  0   0   0   0   0   0   0   0   0   0   0   0   0   0   0   0   0   0   0   0   0   0   0   0
  0   0   0   0
  0   0   0   0   0   0   0   0   0   0   0   0   0   0   0   0   0   0   0   0   0   0   0   0
  0   0   0   1   6   0  80 114 108 100  99 101 104 105 106 103 112 119 117 121 117 101  97  96
 99  94  87  83  81  81  82  82  80  78  71  57  40  11  10  11  10   9   9   8  10   5   0   0
  0   0   0   0   0   0   0   0   0   0   0   0   0   0   0   0   0   0   0   0   0   0   0   0
  0   0   0   0
  0   0   0   0   0   0   0   0   0   0   0   0   0   0   0   0   0   0   0   0   0   0   0   0
  0   0   0   1   6   0  84 119 113 106 102 101 103 105 112 116 120 128 123 119 114 102  96 101
103  99  94  87  84  83  85  87  82  77  71  59  44  15   8  11  10   9   8   8  10   5   0   0
  0   0   0   0   0   0   0   0   0   0   0   0   0   0   0   0   0   0   0   0   0   0   0   0
  0   0   0   0
  0   0   0   0   0   0   0   0   0   0   0   0   0   0   0   0   0   0   0   0   0   0   0   0
  0   0   0   1   6   0  84 120 113 113 108 105 107 101 107 121 121 127 126 122 116 106 102 106
108 107  97  87  85  86  87  87  84  80  73  62  50  19   6  11   9   9   9   9  10   5   0   0
  0   0   0   0   0   0   0   0   0   0   0   0   0   0   0   0   0   0   0   0   0   0   0   0
  0   0   0   0
  0   0   0   0   0   0   0   0   0   0   0   0   0   0   0   0   0   0   0   0   0   0   0   0
  0   0   0   1   5   0  80 116 111 108 109 112 112 107 109 116 122 121 125 123 116 116 115 110
104 105  98  86  86  88  85  82  81  81  74  64  55  22   5  11  10   9   9   9  10   5   0   0
  0   0   0   0   0   0   0   0   0   0   0   0   0   0   0   0   0   0   0   0   0   0   0   0
  0   0   0   0
  0   0   0   0   0   0   0   0   0   0   0   0   0   0   0   0   0   0   0   0   0   0   0   0
  0   0   0   1   5   0  81 116 111 107 106 109 117 117 116 116 119 129 123 116 115 117 119 115
105  99  92  89  85  82  83  83  81  80  73  66  58  22   5  11   9   9   9   9   9   5   0   0
  0   0   0   0   0   0   0   0   0   0   0   0   0   0   0   0   0   0   0   0   0   0   0   0
  0   0   0   0
  0   0   0   0   0   0   0   0   0   0   0   0   0   0   0   0   0   0   0   0   0   0   0   0
  0   0   0   1   6   0  80 114 106 105 105 105 115 120 123 116 116 133 130 122 121 116 115 112
107  94  87  88  87  84  84  85  83  81  76  71  64  20   5  11   9   9   9   9   9   5   0   0
  0   0   0   0   0   0   0   0   0   0   0   0   0   0   0   0   0   0   0   0   0   0   0   0
  0   0   0   0
  0   0   0   0   0   0   0   0   0   0   0   0   0   0   0   0   0   0   0   0   0   0   0   0
  0   0   0   1   5   0  78 110 103 104 106 106 106 113 120 111 108 125 133 128 120 117 109 100
 99  91  88  86  87  85  83  84  86  86  82  82  69  12   7  11   9   9   9   9   9   5   0   0
  0   0   0   0   0   0   0   0   0   0   0   0   0   0   0   0   0   0   0   0   0   0   0   0
  0   0   0   0
  0   0   0   0   0   0   0   0   0   0   0   0   0   0   0   0   0   0   0   0   0   0   0   0
  0   0   0   1   5   0  79 111 105 104 103 105 106 103 107 109 106 125 130 122 108 105  95  87
 91  93  92  87  85  85  83  84  87  85  85  88  64   1  10  10   9   9   9   8   9   5   0   0
  0   0   0   0   0   0   0   0   0   0   0   0   0   0   0   0   0   0   0   0   0   0   0   0
  0   0   0   0
  0   0   0   0   0   0   0   0   0   0   0   0   0   0   0   0   0   0   0   0   0   0   0   0
  0   0   0   1   6   0  78 113 108 108 107 107 106 105 102 105 109 126 130 115 106 101  94  87
 86  91  94  92  87  83  84  86  87  86  89  87  53   0  12  10   9   9   8   8  10   5   0   0
  0   0   0   0   0   0   0   0   0   0   0   0   0   0   0   0   0   0   0   0   0   0   0   0
  0   0   0   0
  0   0   0   0   0   0   0   0   0   0   0   0   0   0   0   0   0   0   0   0   0   0   0   0
  0   0   0   1   5   0  78 111 105 110 119 115 106 103 101 103 112 121 123 115 113 111 105  99
 92  87  89  95  93  89  89  88  87  93  91  82  37   0  12  10   9   9   8   8  10   5   0   0
  0   0   0   0   0   0   0   0   0   0   0   0   0   0   0   0   0   0   0   0   0   0   0   0
  0   0   0   0
  0   0   0   0   0   0   0   0   0   0   0   0   0   0   0   0   0   0   0   0   0   0   0   0
  0   0   0   1   6   0  80 112 108 108 116 113 102 103 102 105 114 122 123 122 112 110 108 103
 96  86  84  88  92  97  96  92  98 103 107  90  18   3  12   9   9   8   8   9  10   5   0   0
  0   0   0   0   0   0   0   0   0   0   0   0   0   0   0   0   0   0   0   0   0   0   0   0
  0   0   0   0
  0   0   0   0   0   0   0   0   0   0   0   0   0   0   0   0   0   0   0   0   0   0   0   0
  0   0   0   1   6   0  82 117 113 113 119 112 106 105 106 110 114 118 118 124 125 116 109 100
 96  94  91  88  92  96  99 103 108 117 124  94   0   9  12   9   9   9   9   9  10   5   0   0
  0   0   0   0   0   0   0   0   0   0   0   0   0   0   0   0   0   0   0   0   0   0   0   0
  0   0   0   0
  0   0   0   0   0   0   0   0   0   0   0   0   0   0   0   0   0   0   0   0   0   0   0   0
  0   0   0   1   6   0  81 120 114 118 126 117 111 108 103 108 109 110 111 108 115 117 109 107
104  99  99  96  98 103 105 111 114 119 127  77   0  15  10   9   9   8   9   9  10   5   0   0
  0   0   0   0   0   0   0   0   0   0   0   0   0   0   0   0   0   0   0   0   0   0   0   0
  0   0   0   0
  0   0   0   0   0   0   0   0   0   0   0   0   0   0   0   0   0   0   0   0   0   0   0   0
  0   0   0   1   7   0  83 120 120 123 118 116 117 110 105 105 105 107 107 105 100  99  98 103
106 107 111 110 113 119 117 121 120 132 122  45   0  15   9   9   9   8   9   9  10   5   0   0
  0   0   0   0   0   0   0   0   0   0   0   0   0   0   0   0   0   0   0   0   0   0   0   0
  0   0   0   0
  0   0   0   0   0   0   0   0   0   0   0   0   0   0   0   0   0   0   0   0   0   0   0   0
  0   0   0   1   7   0  86 120 120 119 114 115 126 125 120 114 109 107 102 105 107 104 101  99
 99 101 107 112 118 127 125 118 138 145  93   4  13  10   9   9   9   9   8   9  10   5   0   0
  0   0   0   0   0   0   0   0   0   0   0   0   0   0   0   0   0   0   0   0   0   0   0   0
  0   0   0   0
  0   0   0   0   0   0   0   0   0   0   0   0   0   0   0   0   0   0   0   0   0   0   0   0
  0   0   0   1   8   0  89 127 117 113 112 115 125 124 117 122 111 105 110 110 110 111 105  99
 99  98  96  99 107 111 110 110 132 114  35   4  13   8   9   9  10   9   9   8  10   5   0   0
  0   0   0   0   0   0   0   0   0   0   0   0   0   0   0   0   0   0   0   0   0   0   0   0
  0   0   0   0
  0   0   0   0   0   0   0   0   0   0   0   0   0   0   0   0   0   0   0   0   0   0   0   0
  0   0   0   1   8   0  90 126 120 122 120 126 122 120 114 114 115 103 102 105 103 102 104 103
100  98  98 102 101  94  93  94  84  43   0  13   9   9   9  10  10   9   8   9  10   5   0   0
  0   0   0   0   0   0   0   0   0   0   0   0   0   0   0   0   0   0   0   0   0   0   0   0
  0   0   0   0
  0   0   0   0   0   0   0   0   0   0   0   0   0   0   0   0   0   0   0   0   0   0   0   0
  0   0   0   1   7   0  86 121 119 126 128 127 115 121 123 127 121 108 110 113 107 104 104 105
 99  98  97  95  89  80  78  77  57   1  10  10  10   9   9  10  10   9   9   9  11   5   0   0
  0   0   0   0   0   0   0   0   0   0   0   0   0   0   0   0   0   0   0   0   0   0   0   0
  0   0   0   0
  0   0   0   0   0   0   0   0   0   0   0   0   0   0   0   0   0   0   0   0   0   0   0   0
  0   0   0   1   9   0  92 129 124 125 128 128 117 116 127 134 126 122 116 102  98 106 103  96
 93  94  87  85  85  76  70  65  31   6  11   9  10   9   9  10  10   9   9   9  10   5   0   0
  0   0   0   0   0   0   0   0   0   0   0   0   0   0   0   0   0   0   0   0   0   0   0   0
  0   0   0   0
  0   0   0   0   0   0   0   0   0   0   0   0   0   0   0   0   0   0   0   0   0   0   0   0
  0   0   0   1  11   0 100 139 128 125 124 128 118 117 127 121 117 111  97  94  95  95  92  92
 90  85  83  82  79  73  64  46   9   8  10   9  10   9   9  10  10   9   9   9  10   5   0   0
  0   0   0   0   0   0   0   0   0   0   0   0   0   0   0   0   0   0   0   0   0   0   0   0
  0   0   0   0
  0   0   0   0   0   0   0   0   0   0   0   0   0   0   0   0   0   0   0   0   0   0   0   0
  0   0   0   1   9   0  93 132 126 129 125 121 119 120 121 117 113 103  96  97  91  88  87  89
 90  86  83  83  78  68  53  26   5  10   9   9  10   9   9  10  10   9   9   9  10   5   0   0
  0   0   0   0   0   0   0   0   0   0   0   0   0   0   0   0   0   0   0   0   0   0   0   0
  0   0   0   0
  0   0   0   0   0   0   0   0   0   0   0   0   0   0   0   0   0   0   0   0   0   0   0   0
  0   0   0   1   8   0  88 126 127 129 127 125 121 117 112 113 112 104  97  93  90  89  87  85
 85  82  77  78  72  55  38   9   9   9   9   9  10  10   9   9  10   9   9   9  10   5   0   0
  0   0   0   0   0   0   0   0   0   0   0   0   0   0   0   0   0   0   0   0   0   0   0   0
  0   0   0   0
  0   0   0   0   0   0   0   0   0   0   0   0   0   0   0   0   0   0   0   0   0   0   0   0
  0   0   0   1   8   0  93 133 129 124 126 129 124 118 111 107 109 105  99  92  90  86  84  84
 83  78  71  70  60  46  20   6  10   9   9   9  10   9   9   9   9   9   9   9  10   5   0   0
  0   0   0   0   0   0   0   0   0   0   0   0   0   0   0   0   0   0   0   0   0   0   0   0
  0   0   0   0
  0   0   0   0   0   0   0   0   0   0   0   0   0   0   0   0   0   0   0   0   0   0   0   0
  0   0   0   1   9   0  95 136 126 120 119 120 118 116 111 104 102  99  98  98  92  87  86  85
 84  78  73  66  51  29   5  10   9   9   9   9  10   9   9   9   9   9   9   9  10   5   0   0
  0   0   0   0   0   0   0   0   0   0   0   0   0   0   0   0   0   0   0   0   0   0   0   0
  0   0   0   0
  0   0   0   0   0   0   0   0   0   0   0   0   0   0   0   0   0   0   0   0   0   0   0   0
  0   0   0   1   7   0  88 126 117 114 116 114 109 105 101 100  97  94  95  95  94  91  91  91
 89  81  69  56  38   9   8  10   9   9   9   9  10   9   9   9   9   9   9   9  10   5   0   0
  0   0   0   0   0   0   0   0   0   0   0   0   0   0   0   0   0   0   0   0   0   0   0   0
  0   0   0   0
  0   0   0   0   0   0   0   0   0   0   0   0   0   0   0   0   0   0   0   0   0   0   0   0
  0   0   0   1   6   0  85 119 114 114 111 110 106 103 100  96  95  94  95  93  90  87  86  85
 82  73  55  42  18   6  10   9  10   9   9   9  10  10  10  10  10   9   9   9  10   5   0   0
  0   0   0   0   0   0   0   0   0   0   0   0   0   0   0   0   0   0   0   0   0   0   0   0
  0   0   0   0
  0   0   0   0   0   0   0   0   0   0   0   0   0   0   0   0   0   0   0   0   0   0   0   0
  0   0   0   1   7   0  85 121 117 112 108 107 106 104 101  98  96  94  94  92  89  87  83  80
 74  60  46  26   5  10   9   9   9   9   9   9   9   9   9  10  10   9   9   9  10   6   0   0
  0   0   0   0   0   0   0   0   0   0   0   0   0   0   0   0   0   0   0   0   0   0   0   0
  0   0   0   0
  0   0   0   0   0   0   0   0   0   0   0   0   0   0   0   0   0   0   0   0   0   0   0   0
  0   0   0   1   7   0  85 122 116 110 108 107 108 107 101 101 100  97  94  92  92  88  83  76
 67  51  31   7  10   9   9   9   9   8   9   9  10  10   9  10  10   9   9   9  10   5   0   0
  0   0   0   0   0   0   0   0   0   0   0   0   0   0   0   0   0   0   0   0   0   0   0   0
  0   0   0   0
  0   0   0   0   0   0   0   0   0   0   0   0   0   0   0   0   0   0   0   0   0   0   0   0
  0   0   0   1   7   0  89 123 110 108 106 105 108 107 103 101  98  95  94  94  93  87  78  69
 56  39  11   8  10   9   9   9   9   9   9   9  11  10   9  10  10   9   9   9  11   5   0   0
  0   0   0   0   0   0   0   0   0   0   0   0   0   0   0   0   0   0   0   0   0   0   0   0
  0   0   0   0
  0   0   0   0   0   0   0   0   0   0   0   0   0   0   0   0   0   0   0   0   0   0   0   0
  0   0   0   1   7   0  93 124 109 109 107 107 109 104 102 100  96  94  93  93  90  83  71  58
 44  17   6  10   9   9   9   9  10   9   9  10  10  10   9  10  10   9   9  10  11   5   0   0
  0   0   0   0   0   0   0   0   0   0   0   0   0   0   0   0   0   0   0   0   0   0   0   0
  0   0   0   0
  0   0   0   0   0   0   0   0   0   0   0   0   0   0   0   0   0   0   0   0   0   0   0   0
  0   0   0   1   8   0  92 128 116 112 110 111 107 103 100  96  96  96  96  91  84  76  60  47
 26   4   9   9   9   9   9   9   9   9   9  10  11  10  10  10  10   9   9   9  10   5   0   0
  0   0   0   0   0   0   0   0   0   0   0   0   0   0   0   0   0   0   0   0   0   0   0   0
  0   0   0   0
  0   0   0   0   0   0   0   0   0   0   0   0   0   0   0   0   0   0   0   0   0   0   0   0
  0   0   0   1   8   0  89 129 118 114 113 110 105 101  99  97  95  96  94  84  75  64  50  30
  5   9   9   9   9   9   9   9   9  10  10  10  11  10  10  10   9   9   9  10  10   5   0   0
  0   0   0   0   0   0   0   0   0   0   0   0   0   0   0   0   0   0   0   0   0   0   0   0
  0   0   0   0
  0   0   0   0   0   0   0   0   0   0   0   0   0   0   0   0   0   0   0   0   0   0   0   0
  0   0   0   1   7   0  88 126 118 116 110 104 104 102 101  97  95  92  86  77  63  51  34   7
  8   9   9   9   9   9   9   9  10  10  10  10  10  10  10  10   9   9   9  10  11   5   0   0
  0   0   0   0   0   0   0   0   0   0   0   0   0   0   0   0   0   0   0   0   0   0   0   0
  0   0   0   0
  0   0   0   0   0   0   0   0   0   0   0   0   0   0   0   0   0   0   0   0   0   0   0   0
  0   0   0   1   7   0  90 126 118 113 109 108 106 102 100  97  94  84  75  65  52  36   8   6
  8   7   9   9   9   9   9   9  10  10  10  10  10  10   9   9   9   9   9   9  11   5   0   0
  0   0   0   0   0   0   0   0   0   0   0   0   0   0   0   0   0   0   0   0   0   0   0   0
  0   0   0   0
  0   0   0   0   0   0   0   0   0   0   0   0   0   0   0   0   0   0   0   0   0   0   0   0
  0   0   0   1   7   0  87 121 112 110 107 106 102 101  97  93  86  72  60  51  36   9   5   8
  7   8   8   9   9   9   9   9  10  10  10  10  10  10   9  10  10   8   9   9  10   5   0   0
  0   0   0   0   0   0   0   0   0   0   0   0   0   0   0   0   0   0   0   0   0   0   0   0
  0   0   0   0
  0   0   0   0   0   0   0   0   0   0   0   0   0   0   0   0   0   0   0   0   0   0   0   0
  0   0   0   1   6   0  85 116 107 106 101 101 101 100  94  84  73  57  47  33   7   5   8   7
  7   7   8   8   8   9   9   9  10  10  10  10  10  10  10  10  10   9   8   9  10   5   0   0
  0   0   0   0   0   0   0   0   0   0   0   0   0   0   0   0   0   0   0   0   0   0   0   0
  0   0   0   0
  0   0   0   0   0   0   0   0   0   0   0   0   0   0   0   0   0   0   0   0   0   0   0   0
  0   0   0   1   6   0  85 115 102 101 101 101 101  94  82  72  60  46  28   5   5   8   6   7
  7   7   7   8   8   9   9   9   9  10  10  10  10   9  10  10   9   9   9   9  10   5   0   0
  0   0   0   0   0   0   0   0   0   0   0   0   0   0   0   0   0   0   0   0   0   0   0   0
  0   0   0   0
  0   0   0   0   0   0   0   0   0   0   0   0   0   0   0   0   0   0   0   0   0   0   0   0
  0   0   0   1   6   0  82 113 104 104 100  95  92  86  71  59  43  18   3   6   7   7   7   7
  7   7   7   7   8   8   9   9  10   9   9   9  10   9   9  10   9   8   8   8  10   5   0   0
  0   0   0   0   0   0   0   0   0   0   0   0   0   0   0   0   0   0   0   0   0   0   0   0
  0   0   0   0
  0   0   0   0   0   0   0   0   0   0   0   0   0   0   0   0   0   0   0   0   0   0   0   0
  0   0   0   1   6   0  81 112 104  99  95  90  81  70  58  37   7   3   7   7   6   7   7   7
  6   7   7   7   7   8   8   9   9   9   9   9  10   9   9   9   9   8   8   8   9   5   0   0
  0   0   0   0   0   0   0   0   0   0   0   0   0   0   0   0   0   0   0   0   0   0   0   0
  0   0   0   0
  0   0   0   0   0   0   0   0   0   0   0   0   0   0   0   0   0   0   0   0   0   0   0   0
  0   0   0   1   6   0  80 113 102  93  89  79  69  57  29   0   5   8   6   6   7   6   7   7
  6   7   7   7   7   7   8   8   8   9   9   9   9   9   9   9   9   8   8   8   9   5   0   0
  0   0   0   0   0   0   0   0   0   0   0   0   0   0   0   0   0   0   0   0   0   0   0   0
  0   0   0   0
  0   0   0   0   0   0   0   0   0   0   0   0   0   0   0   0   0   0   0   0   0   0   0   0
  0   0   0   1   6   0  79 112 102  91  79  67  55  23   0   8   7   6   6   6   6   6   7   7
  6   7   7   7   8   8   8   8   8   8   8   9   9   9   8   8   9   9   9   8   9   5   0   0
  0   0   0   0   0   0   0   0   0   0   0   0   0   0   0   0   0   0   0   0   0   0   0   0
  0   0   0   0
