P2
# 8-bit pgm gray
100 100
255
  0   0   0   0   0   0   0   0   0   0   0   0   0   0   0  11   0   0 184 131 130 233 234 239
231 198 237 235 234 214 131  82  94  88  88  86  77  65  51  31  27  23  19  15  12   9   6   4
  3   3   4   6   9  14  19  25  31  36  42  48  53  58  64  70  69  69  71  73  73  73  76  77
 81  85  92  91  89  93 107 121 137 123   0   0   5   0   0   0   0   0   0   0   0   0   0   0
  0   0   0   0
  0   0   0   0   0   0   0   0   0   0   0   0   0   0   0  12   0   0 191 110 115 243 245 245
219 189 245 241 239 216  96   0   0   0   0   0   0   0   0   0   0   0   0   0   0   0   0   0
  0   1   4   9  14  19  26  34  39  45  52  58  63  69  74  78  79  79  80  83  84  84  87  91
 92  95  97  93  96 102 112 128 148 136   0   0   6   0   0   0   0   0   0   0   0   0   0   0
  0   0   0   0
  0   0   0   0   0   0   0   0   0   0   0   0   0   0   0  12   0   0 188 114 122 239 243 238
207 217 243 239 238 215 109   0  36  21  23  22  19  14   9   4   3   2   2   1   1   1   1   0
  1   3   7  12  17  24  31  38  43  48  55  59  63  69  73  74  75  76  80  82  82  83  86  88
 89  91  89  90  94  96 105 123 144 129   0   0   5   0   0   0   0   0   0   0   0   0   0   0
  0   0   0   0
  0   0   0   0   0   0   0   0   0   0   0   0   0   0   0  12   0   0 188 110 121 241 242 243
247 247 243 242 237 215 107   0  23   0   0   0   0   0   0   0   0   0   0   0   0   0   0   0
  2   6  11  15  21  29  36  41  47  53  59  63  68  72  74  77  79  79  81  84  84  83  84  87
 89  91  91  91  93  93 101 118 142 128   0   0   5   0   0   0   0   0   0   0   0   0   0   0
  0   0   0   0
  0   0   0   0   0   0   0   0   0   0   0   0   0   0   0  12   0   0 187 110 120 241 240 226
214 217 223 205 238 213 106   0  24   0   1   0   0   0   0   0   0   0   0   0   0   0   0   2
  5   9  14  20  27  33  40  46  51  57  63  67  71  74  75  78  79  78  80  82  83  87  87  88
 90  91  92  93  95  99 106 116 137 125   0   0   5   0   0   0   0   0   0   0   0   0   0   0
  0   0   0   0
  0   0   0   0   0   0   0   0   0   0   0   0   0   0   0  12   0   0 187 111 119 241 238 205
190 159 161 176 237 210 104   0  23   0   0   0   0   0   0   0   0   0   0   0   0   0   1   4
  8  13  18  25  31  38  44  50  57  62  66  70  73  75  77  79  79  79  81  82  83  83  81  84
 87  90  91  97  97 102 109 112 135 126   0   0   5   0   0   0   0   0   0   0   0   0   0   0
  0   0   0   0
  0   0   0   0   0   0   0   0   0   0   0   0   0   0   0  12   0   0 185 108 116 239 240 203
200 174 161 196 233 210 104   0  23   0   0   0   0   0   0   0   0   0   0   0   0   1   4   7
 12  18  24  29  36  44  49  55  61  68  72  76  79  79  83  82  80  80  79  80  81  80  81  83
 86  89  90  93  94 101 103 108 134 127   2   0   5   0   0   0   0   0   0   0   0   0   0   0
  0   0   0   0
  0   0   0   0   0   0   0   0   0   0   0   0   0   0   0  12   0   0 182 102 114 236 214 193
211 222 227 207 232 209 103   0  22   0   0   0   0   0   0   0   0   0   0   0   1   3   7  11
 16  22  28  34  41  48  54  60  66  70  73  78  80  80  83  85  81  80  82  80  80  80  83  86
 88  88  89  93  96  98  99 106 130 123   0   0   5   0   0   0   0   0   0   0   0   0   0   0
  0   0   0   0
  0   0   0   0   0   0   0   0   0   0   0   0   0   0   0  11   0   0 177  92 112 232 228 230
239 239 239 234 230 205 102   0  22   0   1   0   0   0   0   0   0   0   0   1   3   7  11  15
 21  29  35  40  47  52  59  64  70  71  74  77  78  81  82  82  82  83  82  82  81  81  85  87
 86  87  88  91  94  95  96 105 127 116   1   0   4   0   0   0   0   0   0   0   0   0   0   0
  0   0   0   0
  0   0   0   0   0   0   0   0   0   0   0   0   0   0   0  11   0   0 170  81 103 228 242 242
241 240 238 234 226 199  97   0  20   0   1   0   0   0   0   0   0   0   0   2   6  10  15  20
 27  34  41  47  54  59  65  70  73  76  76  77  79  81  82  81  82  80  80  81  82  83  84  82
 84  87  89  90  93  95 102 109 120 110   5   0   4   0   0   0   0   0   0   0   0   0   0   0
  0   0   0   0
  0   0   0   0   0   0   0   0   0   0   0   0   0   0   0  10   0   0 161  81  56 174 188 194
198 199 196 187 176 150  69   0  12   0   1   0   0   0   0   0   0   0   2   5  10  14  19  26
 33  39  46  50  55  61  66  71  73  76  77  78  80  82  85  85  82  81  82  83  83  83  82  84
 88  90  93  94  96 102 105 100 112 105   3   0   3   0   0   0   0   0   0   0   0   0   0   0
  0   0   0   0
  0   0   0   0   0   0   0   0   0   0   0   0   0   0   0   9   0   7 151  81   0   0   0  12
 27  32  31  18   0   0   0   1   0   1   1   0   0   0   0   0   0   2   5   9  14  19  25  32
 38  44  51  55  58  62  66  70  73  74  77  78  84  86  85  86  83  83  84  84  85  88  88  88
 91  94  95  95  96 100  97  93 108 103   5   0   3   0   0   0   0   0   0   0   0   0   0   0
  0   0   0   0
  0   0   0   0   0   0   0   0   0   0   0   0   0   0   0   8   0  10 145  75   0  19   0   0
  0   0   0   0   0   0   0   0   0   1   1   0   0   0   0   0   1   4   8  13  18  23  30  37
 43  48  54  60  63  64  68  73  74  76  78  80  85  86  87  89  88  86  86  87  87  87  87  86
 87  92  95  94  94  93  94  95 108 105   7   0   4   0   0   0   0   0   0   0   0   0   0   0
  0   0   0   0
  0   0   0   0   0   0   0   0   0   0   0   0   0   0   0   8   0   7 146  77   0  25   7  13
 15   7   9  14  10   7   1   0   0   1   1   0   0   0   0   1   3   7  11  17  22  29  35  43
 49  54  59  64  69  71  74  78  80  80  81  84  86  88  91  94  94  91  92  92  88  88  86  84
 87  93  94  93  93  92  96  98 108 104   8   0   4   0   0   0   0   0   0   0   0   0   0   0
  0   0   0   0
  0   0   0   0   0   0   0   0   0   0   0   0   0   0   0   8   0   5 146  78   0  22   0   0
  5  43  24   0   2   0   0   0   0   1   1   0   0   0   0   2   5  10  15  21  29  37  41  47
 54  58  63  66  69  72  75  79  82  83  83  88  88  88  94  98  96  90  93  95  91  91  91  93
 94  93  93  92  91  92  96  98 106 100   5   0   3   0   0   0   0   0   0   0   0   0   0   0
  0   0   0   0
  0   0   0   0   0   0   0   0   0   0   0   0   0   0   0   8   0   5 146  79   0  22   0   0
  0  65  69   0   1   1   0   0   0   1   1   0   0   0   2   5   9  14  19  26  34  41  47  52
 58  62  65  68  71  73  75  77  78  82  87  92  93  91  92  94  94  94  93  93  92  90  90  93
 93  91  93  93  90  92  96 101 110  98   5   0   3   0   0   0   0   0   0   0   0   0   0   0
  0   0   0   0
  0   0   0   0   0   0   0   0   0   0   0   0   0   0   0   8   0   5 146  79   0  22   1   0
 36  77  73   0   0   3   0   0   0   1   1   0   0   1   4   8  13  18  25  32  39  45  51  57
 62  67  69  70  71  73  75  78  82  83  87  95  97  92  89  91  94  97  97  95  94  92  91  91
 89  90  93  95  93  95  99 100 108  97   4   0   3   0   0   0   0   0   0   0   0   0   0   0
  0   0   0   0
  0   0   0   0   0   0   0   0   0   0   0   0   0   0   0   8   0   6 144  77   0  21   0   0
 29  64  43   0   1   0   0   0   0   1   1   0   1   3   7  12  17  23  30  38  44  52  58  61
 67  73  75  76  77  78  80  82  85  84  92 106 105  98  95  95  97  96  98 100  98  96  94  93
 92  92  93  94  95  97  98  97 107  97   4   0   3   0   0   0   0   0   0   0   0   0   0   0
  0   0   0   0
  0   0   0   0   0   0   0   0   0   0   0   0   0   0   0   8   0   7 142  75   0  21   0   2
  0   0   0   0   1   0   0   0   0   1   1   0   2   6  11  16  22  29  35  44  50  57  63  63
 68  72  74  75  79  84  84  85  88  96 114 118 112 109 104  99 100 101  98 100 100  97  95  95
 95  93  91  93  92  96  96 101 111  98   5   0   3   0   0   0   0   0   0   0   0   0   0   0
  0   0   0   0
  0   0   0   0   0   0   0   0   0   0   0   0   0   0   0   8   0   9 141  73   0  20   0   0
  1   0   1   0   0   0   0   0   0   1   1   1   5   9  14  20  27  33  40  46  54  62  67  70
 72  72  73  77  78  82  85  94 108 121 130 123 116 116 115 113 112 111 108 107 105 104 102 100
100  98  96  96  96 100  99 100 108  97   5   0   3   0   0   0   0   0   0   0   0   0   0   0
  0   0   0   0
  0   0   0   0   0   0   0   0   0   0   0   0   0   0   0   8   0   9 140  73   0  20   0   0
  0   1   0   0   0   0   0   0   0   1   1   3   8  12  18  26  32  38  44  51  58  65  69  75
 77  76  77  76  78  82  95 111 127 134 128 120 121 124 120 120 121 118 116 114 111 109 108 105
102 100  98  97 102  97  95  97 107  95   2   0   3   0   0   0   0   0   0   0   0   0   0   0
  0   0   0   0
  0   0   0   0   0   0   0   0   0   0   0   0   0   0   0   8   0   9 140  72   0  20   0   0
  0   0   0   0   0   0   0   0   0   1   3   6  11  16  23  31  38  45  50  57  62  64  67  71
 76  79  77  79  80  90 110 122 131 137 130 129 129 130 130 126 124 120 118 118 114 110 110 108
103  99  98  96  96  94  96 100 104  90   3   0   2   0   0   0   0   0   0   0   0   0   0   0
  0   0   0   0
  0   0   0   0   0   0   0   0   0   0   0   0   0   0   0   8   0   9 139  72   0  20   0   0
  0   0   0   0   0   0   0   0   0   2   5   9  15  21  28  34  43  51  55  61  64  66  67  68
 72  79  83  88 102 121 131 133 140 140 136 138 135 134 138 136 131 131 129 125 120 117 115 114
109 102  98  95  94  93  95  97 102  91   5   0   3   0   0   0   0   0   0   0   0   0   0   0
  0   0   0   0
  0   0   0   0   0   0   0   0   0   0   0   0   0   0   0   7   0  10 138  71   0  19   0   0
  0   0   0   0   0   0   0   0   0   4   7  12  19  26  32  40  48  54  59  65  69  70  72  72
 73  77  86 101 120 135 141 145 155 158 156 155 150 150 150 148 144 143 143 134 125 121 118 112
108 101  96  96  95  93  92  96 103  90   4   0   3   0   0   0   0   0   0   0   0   0   0   0
  0   0   0   0
  0   0   0   0   0   0   0   0   0   0   0   0   0   0   0   7   0  12 137  69   0  19   0   0
  0   0   0   0   0   0   0   0   1   6  10  17  24  30  39  46  52  58  66  67  69  72  75  81
 81  84  92 109 128 136 140 145 153 165 166 165 165 162 157 152 144 141 138 132 123 117 115 111
106 101  96  94  94  93  93  95 103  90   3   0   3   0   0   0   0   0   0   0   0   0   0   0
  0   0   0   0
  0   0   0   0   0   0   0   0   0   0   0   0   0   0   0   7   0  13 135  67   0  18   0   0
  0   0   0   0   0   0   0   1   4   9  15  20  28  36  43  50  57  64  73  73  72  76  78  83
 89  98 108 119 136 149 151 149 152 161 162 162 166 166 162 157 150 146 138 130 123 120 116 111
106 101  97  94  94  94  96  98 105  94   4   0   3   0   0   0   0   0   0   0   0   0   0   0
  0   0   0   0
  0   0   0   0   0   0   0   0   0   0   0   0   0   0   0   7   0  14 133  65   0  17   0   0
  0   0   0   0   0   0   0   2   6  13  20  25  32  40  47  54  62  65  72  78  78  79  83  88
 96 107 118 130 142 151 155 154 158 165 166 164 166 166 164 163 156 148 145 138 130 126 119 113
106 102  98  95  95  96  97 100 108  96   3   0   3   0   0   0   0   0   0   0   0   0   0   0
  0   0   0   0
  0   0   0   0   0   0   0   0   0   0   0   0   0   0   0   7   0  16 131  62   0  17   0   0
  0   0   0   0   0   0   0   4   9  17  23  30  38  47  53  57  63  68  71  72  75  78  81  88
101 113 124 138 146 154 159 159 164 167 166 165 162 161 163 161 154 147 147 144 139 134 126 119
111 108 106 102  97  95 100 100 104  95   8   0   3   0   0   0   0   0   0   0   0   0   0   0
  0   0   0   0
  0   0   0   0   0   0   0   0   0   0   0   0   0   0   0   7   0  17 129  60   0  16   0   0
  0   0   0   0   0   0   2   6  10  21  29  34  42  50  56  61  64  68  72  74  76  78  85  92
101 121 138 147 152 156 161 163 166 167 168 168 158 159 162 162 158 152 155 153 147 141 135 129
119 112 110 104 100  99 103 105 114 104   3   0   3   0   0   0   0   0   0   0   0   0   0   0
  0   0   0   0
  0   0   0   0   0   0   0   0   0   0   0   0   0   0   0   6   0  18 127  58   0  15   0   0
  0   0   0   0   0   0   3   7  14  22  31  39  47  53  59  66  68  68  73  74  75  82  90  99
110 131 146 151 158 166 171 173 177 175 177 179 180 181 178 173 169 165 163 159 154 146 138 132
125 117 112 108 110 115 115 115 122 104   0   0   3   0   0   0   0   0   0   0   0   0   0   0
  0   0   0   0
  0   0   0   0   0   0   0   0   0   0   0   0   0   0   0   6   0  19 125  55   0  14   0   0
  0   0   0   0   0   2   5  10  16  25  32  43  51  58  62  67  72  70  70  72  76  81  93 106
119 141 154 161 170 175 177 181 188 190 191 192 195 195 192 184 177 176 170 158 151 147 142 138
129 121 117 119 125 124 119 116 119 100   1   0   3   0   0   0   0   0   0   0   0   0   0   0
  0   0   0   0
  0   0   0   0   0   0   0   0   0   0   0   0   0   0   0   6   0  20 123  53   0  14   0   0
  0   0   0   0   0   3   7  13  19  29  37  46  55  61  65  69  72  74  76  77  80  83  92 103
126 156 169 174 177 179 182 183 187 191 194 196 196 194 192 187 181 178 172 163 159 153 143 133
130 125 123 124 127 125 119 119 118 100   2   0   3   0   0   0   0   0   0   0   0   0   0   0
  0   0   0   0
  0   0   0   0   0   0   0   0   0   0   0   0   0   0   0   6   0  20 123  53   0  14   0   0
  0   0   0   0   1   4   9  17  22  32  41  47  56  63  65  70  73  76  81  84  86  87  90 115
145 163 176 179 180 185 187 186 189 191 194 198 196 193 191 185 183 178 174 170 164 156 145 134
132 129 128 127 126 127 128 123 120 101   0   0   3   0   0   0   0   0   0   0   0   0   0   0
  0   0   0   0
  0   0   0   0   0   0   0   0   0   0   0   0   0   0   0   6   0  19 125  55   0  14   0   0
  0   0   0   0   2   7  12  19  25  36  45  52  59  67  68  71  75  76  78  85  90  92 101 130
155 174 182 184 187 189 191 191 192 195 197 199 200 198 194 189 186 181 178 172 164 158 151 144
140 134 134 133 127 129 132 126 124 105   0   0   3   0   0   0   0   0   0   0   0   0   0   0
  0   0   0   0
  0   0   0   0   0   0   0   0   0   0   0   0   0   0   0   6   0  18 127  57   0  15   0   0
  0   0   0   0   4   9  13  21  28  38  48  56  62  67  71  72  71  73  78  89  98  97 117 149
170 183 186 190 192 194 196 196 193 195 198 201 202 201 196 194 193 187 185 179 169 163 157 150
142 138 137 136 135 133 136 129 126 105   1   0   3   0   0   0   0   0   0   0   0   0   0   0
  0   0   0   0
  0   0   0   0   0   0   0   0   0   0   0   0   0   0   0   7   0  17 128  59   0  16   0   0
  0   0   0   1   6  10  17  24  33  41  49  57  65  67  71  73  73  75  75  88 104 112 136 163
176 181 186 192 194 196 199 199 197 197 197 199 199 202 200 196 192 190 188 182 176 167 160 155
148 146 145 147 148 144 143 135 136 116   0   0   4   0   0   0   0   0   0   0   0   0   0   0
  0   0   0   0
  0   0   0   0   0   0   0   0   0   0   0   0   0   0   0   7   0  17 129  60   0  16   0   0
  0   0   0   3   7  12  19  27  38  47  52  59  64  69  71  71  72  74  77  85 110 126 141 161
177 184 189 193 197 198 197 199 200 201 202 202 200 201 200 194 187 184 187 187 183 174 163 156
154 154 151 147 141 141 140 139 144 119   0   0   4   0   0   0   0   0   0   0   0   0   0   0
  0   0   0   0
  0   0   0   0   0   0   0   0   0   0   0   0   0   0   0   7   0  16 130  61   0  16   0   0
  0   0   0   4   9  14  20  30  39  49  56  62  64  68  70  70  72  75  77  91 119 131 142 164
180 189 193 196 201 199 198 201 203 204 204 204 204 200 198 194 189 186 186 187 184 176 164 159
163 158 148 144 143 141 138 135 140 120   1   0   4   0   0   0   0   0   0   0   0   0   0   0
  0   0   0   0
  0   0   0   0   0   0   0   0   0   0   0   0   0   0   0   7   0  15 131  63   0  17   0   0
  0   0   1   5  10  16  23  32  39  51  61  62  67  69  70  72  74  73  79 105 124 132 146 173
188 192 194 197 197 198 202 207 207 207 204 201 202 200 194 194 192 188 185 180 174 170 166 165
161 153 147 146 146 143 142 141 149 132   0   0   5   0   0   0   0   0   0   0   0   0   0   0
  0   0   0   0
  0   0   0   0   0   0   0   0   0   0   0   0   0   0   0   7   0  14 134  66   0  18   0   0
  0   0   1   7  11  17  25  34  42  52  61  64  68  70  71  73  73  75  97 117 129 137 156 179
191 196 199 201 198 202 209 212 212 210 206 201 200 199 194 193 190 185 180 173 166 164 165 160
154 148 144 141 141 140 144 147 154 130   0   0   5   0   0   0   0   0   0   0   0   0   0   0
  0   0   0   0
  0   0   0   0   0   0   0   0   0   0   0   0   0   0   0   7   0  12 136  68   0  19   0   0
  0   0   3   9  12  19  27  35  43  51  57  67  72  73  69  72  77  92 108 122 138 148 165 184
196 201 201 203 204 208 212 213 213 213 210 206 204 204 197 188 183 180 174 167 162 159 157 153
146 142 142 141 139 138 142 145 149 128   0   0   5   0   0   0   0   0   0   0   0   0   0   0
  0   0   0   0
  0   0   0   0   0   0   0   0   0   0   0   0   0   0   0   7   0  11 137  69   0  19   0   0
  0   0   4  11  14  21  29  36  43  51  59  68  78  88  86  88 101 109 118 136 147 161 181 192
195 196 202 207 211 212 214 215 213 212 211 209 206 202 191 186 186 180 173 170 162 155 152 147
143 142 144 142 135 133 135 134 141 128   4   0   5   0   0   0   0   0   0   0   0   0   0   0
  0   0   0   0
  0   0   0   0   0   0   0   0   0   0   0   0   0   0   0   7   0  11 137  70   0  19   0   0
  0   0   5  10  15  22  31  37  44  51  59  69  74  87 105 118 127 127 139 152 162 180 190 194
192 197 209 211 209 211 214 215 214 213 210 208 207 198 188 185 185 181 173 167 161 156 150 150
150 143 141 135 130 133 134 133 141 128   8   0   5   0   0   0   0   0   0   0   0   0   0   0
  0   0   0   0
  0   0   0   0   0   0   0   0   0   0   0   0   0   0   0   7   0  11 138  70   0  19   0   0
  0   0   6  10  17  23  31  37  46  54  59  67  76  79 102 127 134 146 159 173 188 196 195 194
198 207 210 209 207 210 215 216 216 213 206 205 205 197 186 182 180 178 171 163 160 158 157 153
146 144 139 133 133 134 136 138 146 128   4   0   5   0   0   0   0   0   0   0   0   0   0   0
  0   0   0   0
  0   0   0   0   0   0   0   0   0   0   0   0   0   0   0   7   0  10 139  72   0  20   0   0
  0   1   7  10  17  25  30  38  47  53  60  67  74  86 108 126 144 170 185 191 197 197 197 198
203 208 208 209 209 210 214 213 213 212 205 200 199 192 184 180 177 174 167 162 160 158 156 152
149 140 132 134 134 137 138 140 152 132   0   0   5   0   0   0   0   0   0   0   0   0   0   0
  0   0   0   0
  0   0   0   0   0   0   0   0   0   0   0   0   0   0   0   7   0  10 139  71   0  19   0   0
  0   1   7  11  17  25  31  40  48  54  61  71  85 108 131 151 173 185 196 195 193 194 196 197
200 202 204 205 201 202 209 209 207 205 205 202 200 191 180 176 172 166 160 159 159 160 160 156
148 135 130 133 139 141 140 145 153 134   0   0   6   0   0   0   0   0   0   0   0   0   0   0
  0   0   0   0
  0   0   0   0   0   0   0   0   0   0   0   0   0   0   0   7   0  12 137  69   0  19   0   0
  0   1   7  12  18  23  32  40  50  60  71  89 112 128 147 172 186 194 197 195 194 191 194 196
198 201 201 199 196 196 202 205 200 197 199 201 200 191 179 176 174 166 159 161 163 161 160 152
143 137 135 141 145 142 144 148 152 132   0   0   5   0   0   0   0   0   0   0   0   0   0   0
  0   0   0   0
  0   0   0   0   0   0   0   0   0   0   0   0   0   0   0   7   0  13 136  68   0  18   0   0
  0   1   7  14  19  23  31  41  50  61  74  91 119 140 161 186 198 199 199 197 194 194 198 196
198 200 198 194 191 191 195 198 200 200 203 205 202 197 192 184 177 168 165 168 168 163 163 158
152 148 146 148 149 142 142 143 153 136   0   0   6   0   0   0   0   0   0   0   0   0   0   0
  0   0   0   0
  0   0   0   0   0   0   0   0   0   0   0   0   0   0   0   7   0  14 135  66   0  18   0   0
  0   1   8  14  19  24  30  39  53  65  71  89 115 136 165 197 205 203 202 200 196 195 197 195
193 194 192 186 187 191 191 193 198 202 208 206 200 199 199 193 182 175 173 172 170 168 167 164
158 156 155 152 151 148 148 145 152 136   0   0   6   0   0   0   0   0   0   0   0   0   0   0
  0   0   0   0
  0   0   0   0   0   0   0   0   0   0   0   0   0   0   0   7   0  14 134  65   0  18   0   0
  0   0   9  14  19  26  30  37  51  74  90 102 122 141 169 197 203 201 195 195 193 191 191 189
187 187 185 185 185 188 190 193 198 200 202 201 196 197 196 190 180 176 176 174 171 169 166 164
160 156 155 155 155 153 153 150 148 126   0   0   5   0   0   0   0   0   0   0   0   0   0   0
  0   0   0   0
  0   0   0   0   0   0   0   0   0   0   0   0   0   0   0   7   0  15 132  63   0  17   0   0
  0   0   8  15  21  28  31  41  54  78 116 139 154 163 179 190 191 195 191 190 190 189 185 182
179 180 184 186 182 184 187 194 200 198 197 198 195 194 193 185 179 178 177 173 172 174 172 170
166 159 155 154 156 152 151 147 151 129   0   0   5   0   0   0   0   0   0   0   0   0   0   0
  0   0   0   0
  0   0   0   0   0   0   0   0   0   0   0   0   0   0   0   7   0  17 130  60   0  16   0   0
  0   0   7  14  23  29  34  50  68  89 118 146 167 176 179 179 182 183 182 184 184 184 183 179
176 182 186 185 185 187 188 194 196 196 198 198 196 197 198 195 187 181 180 176 176 177 175 171
166 162 155 150 149 149 151 151 155 129   0   0   5   0   0   0   0   0   0   0   0   0   0   0
  0   0   0   0
  0   0   0   0   0   0   0   0   0   0   0   0   0   0   0   6   0  18 127  58   0  15   0   0
  0   0   7  13  24  34  39  50  68  89 109 128 155 168 171 173 176 175 174 176 179 182 184 183
182 185 186 185 189 191 193 196 193 194 198 199 199 203 203 198 193 187 185 182 176 170 168 164
164 160 153 151 146 151 158 153 149 123   0   0   4   0   0   0   0   0   0   0   0   0   0   0
  0   0   0   0
  0   0   0   0   0   0   0   0   0   0   0   0   0   0   0   6   0  20 123  53   0  14   0   0
  0   0   6  11  20  34  45  49  63  81 100 123 147 158 165 168 169 167 167 167 172 177 180 182
184 185 184 186 191 197 201 199 195 196 200 205 206 205 203 201 200 193 186 178 170 166 162 159
164 163 157 154 146 151 157 145 141 119   0   0   4   0   0   0   0   0   0   0   0   0   0   0
  0   0   0   0
  0   0   0   0   0   0   0   0   0   0   0   0   0   0   0   6   0  22 116  45   0  11   0   0
  0   0   6   9  17  29  49  54  58  76  98 119 135 144 156 165 163 157 160 165 166 173 178 179
182 184 186 189 191 194 197 200 201 202 207 210 211 210 206 201 198 194 186 179 173 169 168 170
170 165 160 155 151 147 143 136 132 115   0   0   4   0   0   0   0   0   0   0   0   0   0   0
  0   0   0   0
  0   0   0   0   0   0   0   0   0   0   0   0   0   0   0   4   0  24 102  33   0   7   0   0
  0   0   6   7  15  27  50  67  65  77  95 108 118 130 148 161 157 152 155 158 161 168 175 179
183 189 191 190 188 187 189 195 203 205 208 210 212 210 203 198 193 189 185 182 181 183 181 178
180 170 159 155 149 139 142 138 136 118   0   0   4   0   0   0   0   0   0   0   0   0   0   0
  0   0   0   0
  0   0   0   0   0   0   0   0   0   0   0   0   0   0   0   3   0  23  87  19   0   4   0   0
  0   0   5   8  12  27  46  72  73  78  92 102 108 128 145 156 155 154 161 161 167 172 179 187
192 193 194 192 188 188 188 192 198 201 204 205 205 202 198 196 191 188 186 182 186 190 189 187
180 166 149 146 153 155 155 149 150 128   0   0   5   0   0   0   0   0   0   0   0   0   0   0
  0   0   0   0
  0   0   0   0   0   0   0   0   0   0   0   0   0   0   0   3   0  22  83  18   0   3   0   0
  0   0   4   7  11  25  41  66  70  68  81  93 110 135 143 150 154 160 165 166 169 178 186 191
190 190 196 197 194 191 188 193 198 198 198 200 202 200 196 194 193 194 193 193 197 197 198 196
183 170 155 150 152 153 148 145 150 127   0   0   5   0   0   0   0   0   0   0   0   0   0   0
  0   0   0   0
  0   0   0   0   0   0   0   0   0   0   0   0   0   0   0   3   0  22  82  17   0   3   0   0
  0   0   3   7  10  23  38  62  73  66  79  91 109 131 139 147 157 164 162 164 171 183 188 189
191 195 194 194 193 190 190 190 192 193 194 197 198 196 198 197 198 198 199 201 202 197 198 193
182 169 156 148 141 144 150 145 150 125   0   0   5   0   0   0   0   0   0   0   0   0   0   0
  0   0   0   0
  0   0   0   0   0   0   0   0   0   0   0   0   0   0   0   3   0  22  80  15   0   3   0   0
  0   0   3   6  10  23  38  60  76  64  79  93 104 121 140 158 171 170 166 168 179 185 191 199
201 194 187 189 193 194 191 188 187 191 196 199 201 199 202 203 201 199 198 198 196 190 190 190
179 164 152 146 143 148 153 144 147 123   0   0   4   0   0   0   0   0   0   0   0   0   0   0
  0   0   0   0
  0   0   0   0   0   0   0   0   0   0   0   0   0   0   0   3   0  22  79  16   0   2   0   0
  0   0   3   6  11  23  38  57  76  71  74  86  92 115 151 172 172 168 164 170 177 178 189 201
201 196 191 192 193 196 194 190 190 191 197 202 205 202 201 199 198 194 191 187 185 182 180 174
165 160 148 139 146 149 150 145 142 119   0   0   4   0   0   0   0   0   0   0   0   0   0   0
  0   0   0   0
  0   0   0   0   0   0   0   0   0   0   0   0   0   0   0   3   0  21  78  14   0   2   0   0
  0   0   3   6  11  20  32  51  72  84  84  84 104 131 157 168 166 165 166 171 175 174 176 183
191 192 191 198 201 198 196 198 197 199 206 206 205 202 197 194 192 185 182 179 175 176 174 162
154 150 142 135 142 148 154 142 138 117   0   0   4   0   0   0   0   0   0   0   0   0   0   0
  0   0   0   0
  0   0   0   0   0   0   0   0   0   0   0   0   0   0   0   3   0  21  76  13   0   2   0   0
  0   0   3   5   8  17  24  38  61  82  90  93 116 143 158 167 167 166 170 171 172 170 165 171
181 185 185 191 198 202 202 204 206 209 213 211 207 204 200 193 188 184 179 174 172 174 167 161
158 152 153 159 160 152 150 146 153 131   0   0   5   0   0   0   0   0   0   0   0   0   0   0
  0   0   0   0
  0   0   0   0   0   0   0   0   0   0   0   0   0   0   0   2   0  21  74  11   0   2   0   0
  0   0   3   6   7  14  22  33  50  70  85  98 113 139 164 169 168 163 169 168 163 167 172 171
172 175 179 181 184 194 203 205 206 206 209 210 207 204 200 196 192 188 180 171 167 166 165 156
157 156 158 162 159 151 153 155 164 138   0   0   5   0   0   0   0   0   0   0   0   0   0   0
  0   0   0   0
  0   0   0   0   0   0   0   0   0   0   0   0   0   0   0   2   0  20  71   9   0   2   0   0
  0   0   2   6   8  12  19  32  45  61  79 100 121 140 162 170 172 171 172 169 165 167 171 172
173 175 179 179 183 191 197 203 206 204 206 208 206 205 203 197 192 187 179 172 170 170 168 164
162 163 161 159 155 156 159 155 153 128   0   0   5   0   0   0   0   0   0   0   0   0   0   0
  0   0   0   0
  0   0   0   0   0   0   0   0   0   0   0   0   0   0   0   2   0  20  70   8   0   2   0   0
  0   0   1   6   8  13  18  27  37  48  69  90 117 144 165 170 170 172 174 177 179 179 178 181
183 177 177 182 191 195 197 199 203 205 207 206 205 205 202 199 195 191 186 184 185 180 174 172
170 169 165 155 153 150 149 149 149 124   0   0   5   0   0   0   0   0   0   0   0   0   0   0
  0   0   0   0
  0   0   0   0   0   0   0   0   0   0   0   0   0   0   0   2   0  19  66   6   0   1   0   0
  0   0   0   6   9  13  20  28  39  51  69  87 116 145 159 163 163 161 162 167 175 180 184 189
189 183 182 188 195 198 201 199 201 206 206 203 199 200 203 202 198 193 191 190 185 182 180 172
164 155 144 135 135 136 139 142 151 131   0   0   5   0   0   0   0   0   0   0   0   0   0   0
  0   0   0   0
  0   0   0   0   0   0   0   0   0   0   0   0   0   0   0   2   0  17  61   5   0   1   0   0
  0   0   0   5   9  14  19  27  40  49  64  85 112 140 149 153 155 156 154 155 160 161 167 175
182 186 190 195 200 202 204 206 205 202 199 196 191 189 189 188 184 179 172 172 166 166 165 153
144 139 136 131 135 137 136 139 149 130   0   0   5   0   0   0   0   0   0   0   0   0   0   0
  0   0   0   0
  0   0   0   0   0   0   0   0   0   0   0   0   0   0   0   1   0  16  56   3   0   1   0   0
  0   0   0   5   9  13  19  25  33  40  53  74 101 137 149 153 154 153 156 155 158 159 160 163
173 180 185 192 196 201 205 204 198 192 191 186 180 177 172 170 164 159 158 158 162 158 150 143
138 134 135 134 137 138 141 144 148 122   0   0   4   0   0   0   0   0   0   0   0   0   0   0
  0   0   0   0
  0   0   0   0   0   0   0   0   0   0   0   0   0   0   0   1   0  14  49   2   0   1   0   0
  0   0   0   3   9  11  17  24  32  37  49  66  83 118 142 147 152 154 158 157 156 155 158 160
163 171 174 180 187 194 194 188 184 182 176 170 169 167 162 158 155 155 155 162 166 155 146 142
140 136 134 133 135 141 143 134 138 120   0   0   4   0   0   0   0   0   0   0   0   0   0   0
  0   0   0   0
  0   0   0   0   0   0   0   0   0   0   0   0   0   0   0   1   0  11  41   0   0   0   0   0
  0   0   0   1   8  10  16  23  29  36  47  58  72  99 116 128 142 152 153 151 150 152 156 160
166 169 170 172 172 174 174 174 174 174 168 162 163 165 161 157 161 163 161 167 161 147 141 138
133 132 131 130 133 134 129 122 132 115   0   0   4   0   0   0   0   0   0   0   0   0   0   0
  0   0   0   0
  0   0   0   0   0   0   0   0   0   0   0   0   0   0   0   0   0   6  27   0   0   0   0   0
  0   0   0   0   7  10  16  21  28  34  42  53  66  86  96 108 129 144 148 148 154 161 168 173
170 164 163 162 158 154 153 157 158 158 160 163 164 164 166 168 168 168 164 157 147 143 136 130
131 130 131 132 129 125 122 119 128 114   0   0   4   0   0   0   0   0   0   0   0   0   0   0
  0   0   0   0
  0   0   0   0   0   0   0   0   0   0   0   0   0   0   0   0   0   1  10   0   0   0   0   0
  0   0   0   0   3  10  13  20  27  32  38  46  56  74  87  97 116 135 144 146 157 168 172 168
161 155 154 154 150 152 151 155 155 149 153 157 158 165 165 162 163 153 142 140 138 139 131 128
126 127 129 122 119 117 112 111 127 113   0   0   4   0   0   0   0   0   0   0   0   0   0   0
  0   0   0   0
  0   0   0   0   0   0   0   0   0   0   0   0   0   0   0   0   0   0   1   0   0   0   0   0
  0   0   0   0   1   8  12  18  24  29  34  41  51  64  78  94 111 124 127 135 149 156 153 151
153 150 148 152 150 155 159 161 161 157 159 160 156 156 154 152 146 130 127 128 129 126 124 123
116 117 111 105 110 105 101 100 113  97   0   0   3   0   0   0   0   0   0   0   0   0   0   0
  0   0   0   0
  0   0   0   0   0   0   0   0   0   0   0   0   0   0   0   0   0   0   0   0   0   0   0   0
  0   0   0   0   0   5  11  14  21  27  32  40  48  56  67  83 103 110 108 120 133 128 127 132
136 142 148 152 153 158 161 162 159 157 153 151 148 151 150 141 133 128 122 123 124 117 122 118
112 106 101 106 101  97  95  92  98  84   0   0   2   0   0   0   0   0   0   0   0   0   0   0
  0   0   0   0
  0   0   0   0   0   0   0   0   0   0   0   0   0   0   0   0   0   0   0   0   0   0   0   0
  0   0   0   0   0   2   9  12  18  25  31  38  45  51  62  76  86  98 100 102 113 106 103 107
118 130 141 147 155 160 160 159 157 152 147 152 152 149 140 130 124 122 120 120 117 117 117 108
107 104 104  96  90  88  84  83  91  78   0   0   2   0   0   0   0   0   0   0   0   0   0   0
  0   0   0   0
  0   0   0   0   0   0   0   0   0   0   0   0   0   0   0   0   0   0   0   0   0   0   0   0
  0   0   0   0   0   0   5  11  15  21  28  34  42  49  59  71  74  82  89 102 106  98  92  98
114 124 132 140 146 150 159 164 158 158 163 158 139 126 125 120 116 121 119 112 109 108 101 100
103  97  87  84  84  79  76  77  86  74   0   0   1   0   0   0   0   0   0   0   0   0   0   0
  0   0   0   0
  0   0   0   0   0   0   0   0   0   0   0   0   0   0   0   0   0   0   0   0   0   0   0   0
  0   0   0   0   0   0   2   8  12  16  23  30  39  47  56  65  71  77  86  96  93  89  91 102
114 120 125 127 135 153 161 164 160 160 152 136 116 114 116 112 118 119 113 112 107  97  93  96
 96  82  80  80  76  73  74  74  81  66   0   0   1   0   0   0   0   0   0   0   0   0   0   0
  0   0   0   0
  0   0   0   0   0   0   0   0   0   0   0   0   0   0   0   0   0   0   0   0   0   0   0   0
  0   0   0   0   0   0   0   5  10  13  18  26  34  42  50  60  68  73  78  86  90  88  93  99
104 103 107 115 133 148 152 151 140 129 118 113 110 113 112 110 110 105 104 103  96  89  89  92
 86  80  78  75  71  71  70  71  73  60   0   0   1   0   0   0   0   0   0   0   0   0   0   0
  0   0   0   0
  0   0   0   0   0   0   0   0   0   0   0   0   0   0   0   0   0   0   0   0   0   0   0   0
  0   0   0   0   0   1   0   1   8  11  15  21  28  36  45  54  60  66  74  80  89  85  86  86
 86  87  87 102 119 122 125 121 115 118 117 114 115 114 111 105  99 102 104  94  88  86  86  87
 81  76  73  69  67  65  64  64  65  55   0   0   1   0   0   0   0   0   0   0   0   0   0   0
  0   0   0   0
  0   0   0   0   0   0   0   0   0   0   0   0   0   0   0   0   0   0   0   0   0   0   0   0
  0   0   0   0   0   0   0   0   3   9  12  16  23  31  40  48  55  64  71  74  79  79  77  81
 83  85  87  99 104 101 104 101 109 120 119 119 115 107 101 101 105 108  99  85  84  83  80  80
 76  72  70  64  63  59  58  57  60  51   0   0   1   0   0   0   0   0   0   0   0   0   0   0
  0   0   0   0
  0   0   0   0   0   0   0   0   0   0   0   0   0   0   0   0   0   0   0   0   0   0   0   0
  0   0   0   0   0   0   0   0   0   5  10  13  17  22  32  40  48  58  65  69  73  79  77  78
 81  81  84  92  97  98 103  99 106 112 109  99  95  92  94 103 106  95  82  80  79  75  72  74
 69  69  63  58  57  55  54  52  54  46   1   0   1   0   0   0   0   0   0   0   0   0   0   0
  0   0   0   0
  0   0   0   0   0   0   0   0   0   0   0   0   0   0   0   0   0   0   0   0   0   0   0   0
  0   0   0   0   0   0   0   0   0   2   7  10  14  18  25  32  39  48  56  61  66  72  74  78
 80  78  82  88 100 106  95  89  93  94  89  84  85  86  93  95  88  81  80  78  72  68  69  69
 63  59  54  52  52  50  49  47  46  41   3   0   1   0   0   0   0   0   0   0   0   0   0   0
  0   0   0   0
  0   0   0   0   0   0   0   0   0   0   0   0   0   0   0   0   0   0   0   0   0   0   0   0
  0   0   0   0   0   0   0   0   0   2   3   5  10  14  20  25  32  40  46  55  61  66  72  73
 75  76  83  97 110 100  84  85  88  84  82  86  83  85  88  84  77  75  72  68  65  64  63  60
 54  51  48  45  45  43  41  38  38  34   3   0   0   0   0   0   0   0   0   0   0   0   0   0
  0   0   0   0
  0   0   0   0   0   0   0   0   0   0   0   0   0   0   0   0   0   0   0   0   0   0   0   0
  0   0   0   0   0   0   0   0   0   3   2   0   6  10  14  20  25  30  38  46  51  56  61  66
 68  71  84 106  98  80  82  83  82  79  77  78  79  81  81  76  70  67  63  60  59  56  55  50
 46  42  40  39  39  35  33  30  28  27   3   0   0   0   0   0   0   0   0   0   0   0   0   0
  0   0   0   0
  0   0   0   0   0   0   0   0   0   0   0   0   0   0   0   0   0   0   0   0   0   0   0   0
  0   0   0   0   0   0   0   0   0   4   3   0   1   6  10  15  19  22  28  34  38  45  48  55
 61  64  74  89  83  73  72  70  71  71  71  72  73  75  75  67  62  60  56  52  50  48  47  43
 39  34  33  32  31  28  26  24  22  21   2   0   0   0   0   0   0   0   0   0   0   0   0   0
  0   0   0   0
  0   0   0   0   0   0   0   0   0   0   0   0   0   0   0   0   0   0   0   0   0   0   0   0
  0   0   0   0   0   0   0   0   0   5   4   0   0   1   5  10  14  16  21  25  30  35  39  44
 51  58  61  68  67  64  62  62  63  63  65  65  61  60  63  58  53  51  48  45  43  41  36  33
 31  27  25  24  21  20  19  19  16  15   2   0   0   0   0   0   0   0   0   0   0   0   0   0
  0   0   0   0
  0   0   0   0   0   0   0   0   0   0   0   0   0   0   0   0   0   0   0   0   0   0   0   0
  0   0   0   0   0   0   0   1   0   4   3   0   0   0   0   4   9  12  14  18  22  25  30  33
 36  44  54  51  47  51  52  52  53  54  54  55  49  49  49  46  45  41  40  37  33  30  28  26
 23  20  18  16  14  13  13  12  11  12   2   0   0   0   0   0   0   0   0   0   0   0   0   0
  0   0   0   0
  0   0   0   0   0   0   0   0   0   0   0   0   0   0   0   0   0   0   0   0   0   0   0   0
  0   0   0   0   0   0   0   0   0   4   3   0   0   0   0   0   2   7  11  12  15  18  22  25
 27  33  39  35  38  40  40  41  43  42  43  42  41  39  36  35  35  32  31  28  25  23  21  18
 16  14  12  10  10  10  10   9   8  10   2   0   0   0   0   0   0   0   0   0   0   0   0   0
  0   0   0   0
  0   0   0   0   0   0   0   0   0   0   0   0   0   0   0   0   0   0   0   0   0   0   0   0
  0   0   0   0   0   0   0   0   0   3   3   0   0   0   0   0   0   0   4   8  12  14  15  17
 20  23  23  26  28  29  30  32  32  31  30  29  30  28  26  26  24  24  22  20  19  16  14  13
 12   9   9   8   8   8   7   4   1   5   2   0   0   0   0   0   0   0   0   0   0   0   0   0
  0   0   0   0
  0   0   0   0   0   0   0   0   0   0   0   0   0   0   0   0   0   0   0   0   0   0   0   0
  0   0   0   0   0   0   0   0   0   8   7   0   0   0   0   0   0   0   0   1   5   8  10  11
 13  16  17  18  19  21  22  22  22  23  22  22  21  20  18  18  18  17  16  14  11  10   9   9
  9   6   5   4   2   1   0   0   0   4   2   0   0   0   0   0   0   0   0   0   0   0   0   0
  0   0   0   0
  0   0   0   0   0   0   0   0   0   0   0   0   0   0   0   0   0   0   0   0   0   0   0   0
  0   0   0   0   0   0   0   0   0  11   9   0   0   0   0   0   0   0   0   0   0   1   3   6
  8  11  11  12  14  15  15  15  15  16  16  15  14  14  12  12  13  12  11   9   8   7   6   4
  2   1   0   0   0   0   0   0   0   9   4   0   0   0   0   0   0   0   0   0   0   0   0   0
  0   0   0   0
  0   0   0   0   0   0   0   0   0   0   0   0   0   0   0   0   0   0   0   1   0   1   1   0
  0   0   0   0   0   0   0   0   0  10   8   0   0   0   0   0   0   0   0   0   0   0   0   0
  2   4   6   7   8   9   9   9  10  10  10  10   9   8   8   8   7   7   6   5   3   1   0   0
  0   0   0   0   0   0   0   1   0  13   6   0   0   0   0   0   0   0   0   0   0   0   0   0
  0   0   0   0
  0   0   0   0   0   0   0   0   0   0   0   0   0   0   0   0   0   0   1   1   1   1   1   1
  1   0   1   1   0   0   0   0   0  11   9   0   0   0   0   0   0   0   0   0   0   0   0   0
  0   0   0   1   2   2   3   4   4   4   4   4   4   3   2   2   1   0   0   0   0   0   0   0
  0   0   0   0   3   2   0   1   0  13   6   0   0   0   0   0   0   0   0   0   0   0   0   0
  0   0   0   0
  0   0   0   0   0   0   0   0   0   0   0   0   0   0   0   0   0   0   1   1   1   1   1   1
  1   1   1   1   1   1   0   1   0  11   9   0   1   0   0   0   0   0   0   0   0   0   0   0
  0   1   1   0   0   0   0   0   0   0   0   0   0   0   0   0   0   0   0   0   0   0   0   0
  0   0   0   0   3   2   0   1   0  13   6   0   0   0   0   0   0   0   0   0   0   0   0   0
  0   0   0   0
  0   0   0   0   0   0   0   0   0   0   0   0   0   0   0   0   0   0   1   2   2   2   2   1
  1   1   1   1   1   1   1   1   0  11   9   0   1   1   1   1   0   0   0   1   1   1   1   0
  0   1   1   1   1   1   1   1   0   0   0   0   0   0   0   0   0   0   0   0   0   0   0   0
  0   0   0   0   0   0   0   1   0  13   6   0   0   0   0   0   0   0   0   0   0   0   0   0
  0   0   0   0
  0   0   0   0   0   0   0   0   0   0   0   0   0   0   0   0   0   0   1   2   2   2   2   2
  2   2   1   2   2   1   1   1   0  12  10   0   1   1   1   1   1   1   1   1   1   1   1   1
  1   1   1   1   1   1   1   1   0   0   0   0   0   0   0   0   0   0   0   0   0   0   0   0
  0   0   0   0   0   1   1   1   0  12   5   0   0   0   0   0   0   1   1   0   0   0   0   0
  0   0   0   0
  0   0   0   0   0   0   0   0   0   0   0   0   0   0   0   0   0   0   2   3   2   3   2   2
  2   2   2   2   2   2   1   2   0  12  10   0   2   2   1   2   1   1   1   1   1   1   1   1
  1   2   1   1   1   1   1   1   0   0   0   0   0   0   0   0   0   0   0   0   0   0   0   0
  0   0   0   0   0   0   1   1   0  13   6   0   0   0   0   0   0   0   0   0   0   0   0   0
  0   0   0   0
  0   0   0   0   0   0   0   0   0   0   0   0   0   0   0   0   0   0   2   3   3   3   3   3
  3   3   3   2   2   2   2   2   0  13  11   0   3   2   2   2   2   2   2   2   2   2   2   2
  2   2   2   1   1   1   1   1   1   1   0   0   0   1   0   1   1   1   0   0   0   0   0   0
  0   0   0   0   0   1   1   1   0  13   6   0   0   0   0   0   0   0   0   0   0   0   0   0
  0   0   0   0
  0   0   0   0   0   0   0   0   0   0   0   0   0   0   0   0   0   0   2   3   3   3   3   3
  3   3   3   3   3   2   2   2   0  13  11   0   3   2   2   2   2   2   2   2   2   2   2   2
  2   2   2   2   2   2   2   2   2   1   1   1   1   1   1   1   1   1   1   1   1   0   0   1
  1   0   0   0   1   1   1   1   0  13   6   0   0   0   0   0   0   0   0   0   0   0   0   0
  0   0   0   0
