P2
# 8-bit pgm gray
100 100
255
  0   0   0   0   0   0   0   0   0   0   0   0   0   0   0   9   0   0 177 216 208 214 221 224
206 189 193 194 198 196 194 195 193 190 190 183 167 144 124 112  99  82  66  54  43  32  24  18
 13  11   8   5   5   4   4   5   5   5   4   4   5   5   5   5   5   8  16   0 137 211 230 216
170 167 205 236 224 169   0   0  15   3   0   0   0   0   0   0   0   0   0   0   0   0   0   0
  0   0   0   0
  0   0   0   0   0   0   0   0   0   0   0   0   0   0   0   8   0   0 176 217 210 218 224 222
196 188 194 195 195 196 195 192 192 189 184 174 151 135 127 117 104  92  74  57  45  34  25  19
 14  11   9   6   4   4   4   5   5   5   4   4   4   4   4   5   5   6  20   0 125 211 231 235
196 187 209 237 229 184  43   0  18   3   0   0   0   0   0   0   0   0   0   0   0   0   0   0
  0   0   0   0
  0   0   0   0   0   0   0   0   0   0   0   0   0   0   0   9   0   0 177 218 211 219 226 213
187 188 197 196 192 195 192 190 191 185 179 162 139 133 128 122 110 104  85  66  50  37  28  21
 15  12  10   7   4   4   4   5   5   5   4   4   4   4   4   4   4   5  22   0 109 208 232 235
225 233 235 236 231 196  69   0  21   3   0   0   0   0   0   0   0   0   0   0   0   0   0   0
  0   0   0   0
  0   0   0   0   0   0   0   0   0   0   0   0   0   0   0   9   0   0 177 217 209 221 224 202
186 195 197 195 194 196 193 190 185 178 171 151 140 136 124 117 110 104  88  71  56  41  31  23
 17  13  11   8   5   4   4   4   5   4   4   4   4   4   4   4   4   4  21   0  90 202 232 237
242 243 241 240 234 204  92   0  23   2   0   0   0   0   0   0   0   0   0   0   0   0   0   0
  0   0   0   0
  0   0   0   0   0   0   0   0   0   0   0   0   0   0   0   9   0   0 178 217 210 222 217 194
193 196 194 197 196 191 190 185 179 174 161 146 141 135 126 118 110 101  89  75  62  48  36  26
 20  15  11   9   6   3   4   4   4   4   4   3   3   4   4   4   4   3  20   0  69 192 230 235
237 231 238 226 223 212 110   0  24   2   0   0   0   0   0   0   0   0   0   0   0   0   0   0
  0   0   0   0
  0   0   0   0   0   0   0   0   0   0   0   0   0   0   0   8   0   0 177 218 214 223 206 186
192 195 194 196 191 184 184 181 175 166 149 143 137 133 129 123 114 104  96  82  66  56  41  29
 23  17  12  10   7   3   3   4   4   4   3   3   3   3   3   3   3   2  17   0  43 179 228 222
205 179 196 175 193 220 124   0  22   3   0   0   0   0   0   0   0   0   0   0   0   0   0   0
  0   0   0   0
  0   0   0   0   0   0   0   0   0   0   0   0   0   0   0   8   0   0 174 216 216 220 196 184
191 193 194 192 188 184 180 176 167 154 143 140 134 131 129 125 115 105 101  88  71  61  48  33
 26  19  14  11   9   4   3   4   4   4   3   3   3   3   3   3   3   2  15   0   2 165 224 221
187 183 144 146 193 219 142   0  18   4   0   0   0   0   0   0   0   0   0   0   0   0   0   0
  0   0   0   0
  0   0   0   0   0   0   0   0   0   0   0   0   0   0   0   8   0   0 173 215 215 213 188 184
192 194 190 185 185 181 177 173 160 142 141 136 136 134 129 125 119 110 102  94  82  67  55  41
 29  22  16  12   9   6   3   3   4   4   3   3   3   3   3   3   3   2  11   3   0 151 219 217
179 188 191 199 194 219 157   0   8   7   0   0   0   0   0   0   0   0   0   0   0   0   0   0
  0   0   0   0
  0   0   0   0   0   0   0   0   0   0   0   0   0   0   0   8   0   0 171 215 216 206 183 186
192 192 186 181 179 174 170 165 157 143 136 135 138 133 131 126 120 113 105  95  85  72  58  46
 35  27  19  14  10   8   4   3   4   3   3   3   3   3   3   3   3   2   7  13   0 137 210 182
176 214 227 234 221 219 167   0   0  11   0   0   0   0   0   0   0   0   0   0   0   0   0   0
  0   0   0   0
  0   0   0   0   0   0   0   0   0   0   0   0   0   0   0   8   0   0 169 214 215 197 179 186
192 190 184 179 176 170 164 155 146 140 136 136 137 131 127 126 122 115 108  99  87  77  64  52
 43  33  22  17  12   9   6   3   3   3   3   3   3   2   3   3   3   3   4  18   0 118 201 216
227 235 234 231 229 217 172  42   0  15   0   0   0   0   0   0   0   0   0   0   0   0   0   0
  0   0   0   0
  0   0   0   0   0   0   0   0   0   0   0   0   0   0   0   8   0   0 168 213 213 191 178 187
191 185 179 177 173 168 161 148 139 136 133 134 134 131 127 124 123 121 111 105  94  85  75  60
 47  37  27  20  15  10   7   4   3   3   3   3   3   2   2   2   3   3   2  19   0  94 185 214
218 218 216 210 199 181 139  39   0  11   0   0   0   0   0   0   0   0   0   0   0   0   0   0
  0   0   0   0
  0   0   0   0   0   0   0   0   0   0   0   0   0   0   0   8   0   0 168 213 210 188 178 188
189 181 175 171 167 165 158 142 139 136 133 131 131 131 127 125 126 126 118 108 101  94  81  65
 53  42  32  23  17  12   9   7   3   3   2   2   2   2   2   2   2   2   2  11   0  53 124 140
138 132 120 105  86  59  24   1   4   2   0   0   0   0   0   0   0   0   0   0   0   0   0   0
  0   0   0   0
  0   0   0   0   0   0   0   0   0   0   0   0   0   0   0   7   0   0 165 214 206 184 180 186
186 180 173 169 165 163 157 141 139 135 132 131 134 133 132 131 127 126 121 114 104  94  86  71
 60  49  37  27  20  14  10   8   5   2   2   2   2   2   2   2   2   2   2   2   5   0   0   0
  0   0   0   0   0   0   0   2   3   2   0   0   0   0   0   0   0   0   0   0   0   0   0   0
  0   0   0   0
  0   0   0   0   0   0   0   0   0   0   0   0   0   0   0   7   0   0 163 211 201 183 183 186
184 178 171 166 162 160 155 149 142 137 134 135 140 139 135 133 129 125 119 114 107  97  89  79
 65  55  43  32  23  17  12   9   7   3   2   2   2   2   2   2   2   2   2   3   3   7  15  22
 27  30  31  30  26  21  11   3   3   2   0   0   0   0   0   0   0   0   0   0   0   0   0   0
  0   0   0   0
  0   0   0   0   0   0   0   0   0   0   0   0   0   0   0   7   0   0 162 207 199 185 184 183
181 179 171 164 158 155 151 152 151 146 140 142 148 146 140 137 134 128 121 114 108 100  93  85
 71  58  49  38  28  21  15  11   8   5   2   2   2   2   2   2   2   2   2   3   3   4  10  11
  9   8   7   7   6   5   3   2   3   2   0   0   0   0   0   0   0   0   0   0   0   0   0   0
  0   0   0   0
  0   0   0   0   0   0   0   0   0   0   0   0   0   0   0   7   0   0 161 203 197 188 184 181
177 177 173 164 160 151 148 155 150 147 148 150 154 148 141 140 138 134 124 119 112 102  96  89
 77  63  54  44  33  24  18  13  10   7   3   1   2   2   2   2   2   2   2   2   3   4   6   8
  7   8   9  11   8   5   3   2   3   2   0   0   0   0   0   0   0   0   0   0   0   0   0   0
  0   0   0   0
  0   0   0   0   0   0   0   0   0   0   0   0   0   0   0   7   0   0 162 204 199 187 182 181
175 171 174 169 160 150 150 155 158 157 158 161 158 155 144 134 135 142 131 120 116 108 100  94
 85  70  58  50  39  29  21  16  12   8   5   2   2   2   2   2   2   2   2   2   2   4   7   7
  7   7   6   0   2   5   3   2   2   2   0   0   0   0   0   0   0   0   0   0   0   0   0   0
  0   0   0   0
  0   0   0   0   0   0   0   0   0   0   0   0   0   0   0   7   0   0 158 200 201 192 182 180
175 167 167 167 158 149 158 160 164 167 169 169 168 164 154 144 145 146 141 128 119 112 103  98
 95  80  66  55  44  34  25  18  14  10   7   3   1   1   1   2   2   2   2   2   3   3   0   0
  4   6   9  24  19   2   3   2   2   1   0   0   0   0   0   0   0   0   0   0   0   0   0   0
  0   0   0   0
  0   0   0   0   0   0   0   0   0   0   0   0   0   0   0   6   0   0 153 192 195 195 187 178
172 168 161 160 154 149 157 161 160 168 168 163 161 166 167 163 159 149 147 137 124 116 108 102
 99  90  73  62  50  40  31  23  17  12   8   5   2   1   1   1   1   2   2   2   3   0  45  55
 16   0  35  76  31   0   5   2   2   1   0   0   0   0   0   0   0   0   0   0   0   0   0   0
  0   0   0   0
  0   0   0   0   0   0   0   0   0   0   0   0   0   0   0   6   0   0 154 191 190 193 189 179
168 166 162 159 155 154 155 160 162 172 174 167 160 165 174 174 167 154 151 145 136 125 115 108
101  93  80  69  56  46  36  27  20  14   9   7   3   1   1   1   1   1   1   3   2   0  69  80
 23   0  55  72  20   1   3   2   2   1   0   0   0   0   0   0   0   0   0   0   0   0   0   0
  0   0   0   0
  0   0   0   0   0   0   0   0   0   0   0   0   0   0   0   7   0   0 158 194 187 189 188 183
173 166 163 162 158 160 164 160 161 169 178 177 171 170 171 173 172 165 160 154 149 139 122 111
105  99  85  76  63  52  40  31  24  17  11   8   5   1   1   1   1   1   1   3   0   0  65  73
 21   0  49  66  45   0   3   2   2   1   0   0   0   0   0   0   0   0   0   0   0   0   0   0
  0   0   0   0
  0   0   0   0   0   0   0   0   0   0   0   0   0   0   0   6   0   0 155 194 186 187 185 181
173 166 160 155 151 155 166 165 170 170 175 182 175 176 178 172 173 175 171 160 153 149 131 116
113 106  91  82  71  57  46  36  27  20  14   9   7   3   1   1   1   1   1   2   3   0  35  41
  3   1   6  35  18   0   3   2   2   1   0   0   0   0   0   0   0   0   0   0   0   0   0   0
  0   0   0   0
  0   0   0   0   0   0   0   0   0   0   0   0   0   0   0   6   0   0 154 192 185 189 186 177
171 166 156 149 146 152 163 167 172 181 182 183 181 177 181 179 177 181 175 164 158 153 142 127
122 121 104  86  76  64  52  41  32  24  18  12   8   5   1   1   1   1   1   1   2   3   0   0
  2   4   3   0   0   4   2   2   2   1   0   0   0   0   0   0   0   0   0   0   0   0   0   0
  0   0   0   0
  0   0   0   0   0   0   0   0   0   0   0   0   0   0   0   6   0   0 152 189 183 184 182 178
169 162 149 140 147 151 160 163 166 177 180 176 177 178 178 178 179 186 177 167 162 155 150 139
132 137 115  92  81  70  58  47  37  28  20  14  10   6   2   1   1   1   1   1   1   2   5   6
  3   3   5   7   5   3   2   2   2   1   0   0   0   0   0   0   0   0   0   0   0   0   0   0
  0   0   0   0
  0   0   0   0   0   0   0   0   0   0   0   0   0   0   0   6   0   0 150 184 178 179 174 175
173 164 149 146 154 154 158 167 170 173 176 173 168 174 174 172 182 188 182 169 159 158 157 154
151 143 113  93  89  78  66  52  42  32  23  17  12   8   5   1   1   1   1   1   1   2   3   3
  3   3   3   4   3   3   2   2   2   1   0   0   0   0   0   0   0   0   0   0   0   0   0   0
  0   0   0   0
  0   0   0   0   0   0   0   0   0   0   0   0   0   0   0   6   0   0 148 181 173 176 170 164
167 165 149 149 152 151 157 167 171 174 172 173 175 175 174 175 182 186 184 182 171 160 168 170
161 147 111  99  94  82  72  59  47  37  28  21  14   9   6   3   1   1   1   1   1   2   3   3
  2   3   3   3   3   3   2   2   2   1   0   0   0   0   0   0   0   0   0   0   0   0   0   0
  0   0   0   0
  0   0   0   0   0   0   0   0   0   0   0   0   0   0   0   6   0   0 146 179 169 173 170 160
157 157 151 155 154 150 157 165 168 170 171 173 181 183 178 177 186 187 184 183 182 173 170 173
162 144 115 104  97  85  76  66  52  42  32  24  17  11   7   4   1   1   1   1   1   2   2   2
  2   2   3   3   3   2   2   2   2   1   0   0   0   0   0   0   0   0   0   0   0   0   0   0
  0   0   0   0
  0   0   0   0   0   0   0   0   0   0   0   0   0   0   0   6   0   0 146 180 172 169 164 160
152 147 151 157 161 161 155 167 171 174 173 171 180 184 182 179 186 189 189 181 177 178 170 157
172 154 114 106 102  91  79  70  59  48  39  28  21  14   9   6   2   0   1   1   1   1   2   2
  2   2   2   3   2   2   2   2   2   1   0   0   0   0   0   0   0   0   0   0   0   0   0   0
  0   0   0   0
  0   0   0   0   0   0   0   0   0   0   0   0   0   0   0   6   0   0 147 179 168 166 158 154
150 142 147 156 161 167 162 164 171 177 178 178 179 181 184 184 185 189 188 190 178 167 159 143
156 167 131 105 102  97  90  78  66  55  44  34  24  17  11   7   4   0   0   1   1   2   2   2
  2   2   2   2   2   2   2   2   2   1   0   0   0   0   0   0   0   0   0   0   0   0   0   0
  0   0   0   0
  0   0   0   0   0   0   0   0   0   0   0   0   0   0   0   5   0   0 144 178 166 162 158 153
146 137 139 153 158 157 159 154 171 187 184 179 180 181 186 190 186 188 193 194 184 169 149 142
146 156 150 126 110 102  96  87  80  66  49  38  28  20  14   9   6   2   1   1   1   1   2   2
  1   2   2   2   2   2   1   1   1   1   0   0   0   0   0   0   0   0   0   0   0   0   0   0
  0   0   0   0
  0   0   0   0   0   0   0   0   0   0   0   0   0   0   0   6   0   0 145 178 167 162 158 154
145 136 137 151 159 154 150 152 167 186 189 186 186 185 189 192 189 191 195 193 191 185 161 148
147 153 153 143 129 110  96  91  83  68  54  41  31  22  16  11   7   3   0   1   1   1   2   2
  2   2   2   2   2   1   1   1   1   1   0   0   0   0   0   0   0   0   0   0   0   0   0   0
  0   0   0   0
  0   0   0   0   0   0   0   0   0   0   0   0   0   0   0   6   0   0 144 173 163 163 157 154
146 135 136 150 159 159 155 157 168 184 188 193 193 193 197 199 202 202 198 191 184 170 157 157
151 156 159 147 138 128 114 106  90  75  60  47  36  25  18  14  10   5   1   1   1   1   2   2
  2   2   2   2   2   1   1   1   1   1   0   0   0   0   0   0   0   0   0   0   0   0   0   0
  0   0   0   0
  0   0   0   0   0   0   0   0   0   0   0   0   0   0   0   5   0   0 142 171 159 161 156 149
146 143 138 144 153 154 163 162 168 184 188 193 196 199 199 198 202 204 200 194 190 173 161 166
161 156 155 159 165 161 138 114  98  83  67  53  41  30  22  17  12   8   3   0   1   1   2   1
  1   2   2   2   2   1   1   1   1   1   0   0   0   0   0   0   0   0   0   0   0   0   0   0
  0   0   0   0
  0   0   0   0   0   0   0   0   0   0   0   0   0   0   0   6   0   0 144 171 158 155 150 141
139 149 145 141 152 155 157 165 170 183 194 199 200 198 196 190 190 195 196 197 197 188 172 170
163 161 158 167 177 165 134 109 100  92  74  55  45  34  26  20  14   9   5   1   1   1   1   1
  1   2   2   2   2   2   1   1   1   1   0   0   0   0   0   0   0   0   0   0   0   0   0   0
  0   0   0   0
  0   0   0   0   0   0   0   0   0   0   0   0   0   0   0   6   0   0 146 171 158 155 147 138
134 147 154 153 167 170 158 159 166 187 205 202 199 199 195 191 195 192 191 196 195 194 188 170
153 162 160 158 163 156 132 115 107 101  82  63  52  42  31  21  17  12   8   2   1   1   2   2
  2   2   2   2   2   1   1   1   1   1   0   0   0   0   0   0   0   0   0   0   0   0   0   0
  0   0   0   0
  0   0   0   0   0   0   0   0   0   0   0   0   0   0   0   6   0   0 146 177 161 154 149 139
134 142 156 165 177 176 166 163 165 182 201 205 202 201 199 196 198 198 194 197 194 188 195 183
159 158 160 158 154 156 145 124 116 110  92  73  61  50  40  32  23  15  10   5   1   2   2   2
  2   2   2   2   2   1   1   1   1   1   0   0   0   0   0   0   0   0   0   0   0   0   0   0
  0   0   0   0
  0   0   0   0   0   0   0   0   0   0   0   0   0   0   0   5   0   0 142 175 160 153 148 141
136 135 145 164 172 175 173 171 173 187 200 203 206 206 202 196 197 201 202 197 196 191 198 199
191 174 165 171 164 156 152 144 129 116  99  78  65  53  49  41  26  18  12   7   1   1   2   2
  2   2   2   2   2   1   1   1   1   1   0   0   0   0   0   0   0   0   0   0   0   0   0   0
  0   0   0   0
  0   0   0   0   0   0   0   0   0   0   0   0   0   0   0   5   0   0 143 170 153 148 140 137
140 136 141 156 166 180 181 178 184 195 198 196 198 201 201 199 198 197 202 203 204 204 206 204
209 205 189 182 182 170 161 159 137 114  97  83  70  59  55  40  25  20  14   9   3   1   2   1
  2   2   2   2   2   1   1   1   1   1   0   0   0   0   0   0   0   0   0   0   0   0   0   0
  0   0   0   0
  0   0   0   0   0   0   0   0   0   0   0   0   0   0   0   5   0   0 142 173 154 146 138 130
135 140 147 155 166 172 178 188 190 187 192 193 193 191 193 196 195 196 202 205 209 216 216 213
216 212 194 176 186 180 176 172 155 123  99  89  76  65  53  42  30  22  16  11   6   1   2   1
  2   2   2   2   2   1   1   1   1   1   0   0   0   0   0   0   0   0   0   0   0   0   0   0
  0   0   0   0
  0   0   0   0   0   0   0   0   0   0   0   0   0   0   0   5   0   0 139 172 160 148 136 132
135 140 146 160 169 172 175 187 178 174 179 185 189 187 185 190 192 195 199 203 209 217 217 211
208 204 201 195 191 186 186 187 182 155 115  93  83  70  57  46  35  24  18  13   8   3   1   2
  1   2   2   2   2   1   1   1   1   1   0   0   0   0   0   0   0   0   0   0   0   0   0   0
  0   0   0   0
  0   0   0   0   0   0   0   0   0   0   0   0   0   0   0   5   0   0 138 168 163 158 137 134
136 140 146 158 166 171 177 176 168 164 165 172 182 187 185 188 194 191 190 194 203 210 211 210
207 208 210 214 213 209 204 204 194 173 144 107  86  73  63  52  40  29  20  14  10   5   1   1
  1   1   2   2   2   2   1   1   1   1   0   0   0   0   0   0   0   0   0   0   0   0   0   0
  0   0   0   0
  0   0   0   0   0   0   0   0   0   0   0   0   0   0   0   5   0   0 138 166 155 155 148 137
137 141 150 160 161 165 175 173 165 164 167 170 176 188 188 190 192 187 190 199 202 202 210 216
217 218 219 221 223 219 215 212 201 180 166 138 105  83  67  56  45  34  24  16  12   8   2   1
  2   1   2   2   1   1   1   1   1   1   0   0   0   0   0   0   0   0   0   0   0   0   0   0
  0   0   0   0
  0   0   0   0   0   0   0   0   0   0   0   0   0   0   0   5   0   0 139 170 152 144 147 146
138 142 153 159 160 167 171 176 174 170 179 181 183 190 193 195 196 191 197 204 205 202 208 213
217 221 224 222 221 218 213 206 201 194 179 158 136 114  86  64  51  38  28  19  13   9   4   1
  1   1   1   1   1   1   1   1   1   1   0   0   0   0   0   0   0   0   0   0   0   0   0   0
  0   0   0   0
  0   0   0   0   0   0   0   0   0   0   0   0   0   0   0   5   0   0 139 169 157 146 141 152
146 142 149 155 160 174 177 177 178 169 174 183 193 196 193 194 193 194 198 203 205 207 204 208
216 222 227 221 217 218 214 211 202 196 185 166 152 135 104  79  60  42  31  21  14  11   6   1
  1   1   1   1   1   1   1   1   1   1   0   0   0   0   0   0   0   0   0   0   0   0   0   0
  0   0   0   0
  0   0   0   0   0   0   0   0   0   0   0   0   0   0   0   5   0   0 136 162 148 143 139 146
151 151 156 154 150 164 168 169 171 170 171 178 190 198 197 189 192 194 195 205 212 214 213 214
220 223 226 223 219 221 219 217 211 201 188 176 168 153 119  87  62  48  34  24  16  11   9   2
  1   1   1   1   1   1   1   1   1   0   0   0   0   0   0   0   0   0   0   0   0   0   0   0
  0   0   0   0
  0   0   0   0   0   0   0   0   0   0   0   0   0   0   0   5   0   0 137 163 143 136 134 142
148 141 147 149 148 153 154 164 173 179 179 185 188 184 192 193 193 200 200 210 215 215 216 218
221 223 224 223 222 223 219 216 215 208 196 184 179 164 138 105  70  53  39  27  18  12  10   4
  0   1   1   1   1   1   1   1   1   0   0   0   0   0   0   0   0   0   0   0   0   0   0   0
  0   0   0   0
  0   0   0   0   0   0   0   0   0   0   0   0   0   0   0   5   0   0 137 165 147 139 132 136
147 141 143 148 148 154 154 162 177 182 185 189 188 186 186 193 199 203 202 210 214 213 214 217
222 223 222 223 222 223 221 216 215 211 203 190 183 175 154 123  85  56  42  31  21  14  11   6
  1   1   1   1   1   1   1   1   1   1   0   0   0   0   0   0   0   0   0   0   0   0   0   0
  0   0   0   0
  0   0   0   0   0   0   0   0   0   0   0   0   0   0   0   5   0   0 136 162 146 143 139 135
146 149 152 150 146 157 164 168 177 181 188 193 190 198 197 196 204 211 210 209 210 215 217 217
220 220 222 220 219 220 220 217 213 213 207 198 189 183 165 135  96  61  45  35  24  16  12   8
  1   1   1   1   1   1   1   1   1   1   0   0   0   0   0   0   0   0   0   0   0   0   0   0
  0   0   0   0
  0   0   0   0   0   0   0   0   0   0   0   0   0   0   0   5   0   0 132 158 144 141 142 138
135 148 162 161 155 165 174 173 175 179 185 191 193 194 195 195 202 209 217 220 214 216 221 218
219 221 220 218 216 216 219 219 217 213 207 205 199 188 172 146 105  62  48  37  27  18  13  10
  3   0   1   1   1   1   1   1   1   1   0   0   0   0   0   0   0   0   0   0   0   0   0   0
  0   0   0   0
  0   0   0   0   0   0   0   0   0   0   0   0   0   0   0   5   0   0 129 152 141 136 137 141
134 140 157 158 155 163 168 172 175 175 176 180 182 189 191 192 201 204 212 223 223 220 223 222
222 221 219 218 217 215 216 220 222 217 212 209 203 191 178 149 113  70  50  40  30  19  14  11
  4   0   1   1   1   1   1   1   1   1   0   0   0   0   0   0   0   0   0   0   0   0   0   0
  0   0   0   0
  0   0   0   0   0   0   0   0   0   0   0   0   0   0   0   5   0   0 131 153 134 135 132 134
135 137 147 151 153 160 163 168 174 170 167 174 178 184 187 188 196 200 207 218 221 222 221 220
219 217 214 214 216 214 210 214 221 218 215 211 206 196 182 158 125  80  53  41  32  21  14  12
  5   0   1   1   1   1   1   1   0   0   0   0   0   0   0   0   0   0   0   0   0   0   0   0
  0   0   0   0
  0   0   0   0   0   0   0   0   0   0   0   0   0   0   0   4   0   0 126 152 139 137 136 133
131 134 143 154 158 159 163 164 168 171 168 166 180 186 181 184 192 198 205 213 215 220 218 216
214 209 207 210 212 210 204 208 215 214 216 210 209 200 182 165 142 105  65  42  34  23  15  13
  7   0   1   1   1   0   0   1   0   0   0   0   0   0   0   0   0   0   0   0   0   0   0   0
  0   0   0   0
  0   0   0   0   0   0   0   0   0   0   0   0   0   0   0   4   0   0 119 142 133 136 137 135
133 136 142 153 159 160 161 170 173 173 171 168 176 179 181 186 193 195 199 206 212 214 215 212
211 209 208 207 210 211 201 205 215 214 218 214 208 197 181 171 155 127  85  48  35  25  16  13
  8   0   1   1   1   0   0   1   1   0   0   0   0   0   0   0   0   0   0   0   0   0   0   0
  0   0   0   0
  0   0   0   0   0   0   0   0   0   0   0   0   0   0   0   4   0   0 121 140 129 130 135 138
138 138 142 150 150 158 162 165 170 177 172 171 172 175 180 185 190 191 204 209 210 210 214 215
216 215 212 210 211 207 201 202 202 214 218 211 202 193 182 174 163 140 101  55  36  27  18  15
 10   1   1   1   1   0   0   1   1   0   0   0   0   0   0   0   0   0   0   0   0   0   0   0
  0   0   0   0
  0   0   0   0   0   0   0   0   0   0   0   0   0   0   0   5   0   0 129 145 127 127 130 132
135 136 136 144 151 161 163 161 168 180 177 174 173 172 172 183 197 198 201 210 205 209 216 220
217 211 209 210 207 198 200 201 195 207 215 208 203 195 184 172 161 146 108  57  36  28  18  15
 11   1   1   1   0   0   0   1   0   0   0   0   0   0   0   0   0   0   0   0   0   0   0   0
  0   0   0   0
  0   0   0   0   0   0   0   0   0   0   0   0   0   0   0   4   0   0 130 154 134 127 126 128
129 131 132 136 149 163 167 168 167 173 173 169 169 166 173 182 194 204 204 204 205 206 212 217
216 212 208 206 205 201 201 203 201 201 208 205 207 204 188 177 161 145 110  60  38  30  19  17
 11   0   1   1   0   0   0   1   0   0   0   0   0   0   0   0   0   0   0   0   0   0   0   0
  0   0   0   0
  0   0   0   0   0   0   0   0   0   0   0   0   0   0   0   4   0   0 128 157 143 136 131 128
129 127 131 136 141 152 165 168 170 173 168 167 165 162 176 184 183 190 198 201 203 195 202 211
210 208 209 208 206 206 206 209 208 204 202 203 202 199 191 176 163 154 131  83  39  30  20  18
 11   0   0   1   0   0   0   1   0   0   0   0   0   0   0   0   0   0   0   0   0   0   0   0
  0   0   0   0
  0   0   0   0   0   0   0   0   0   0   0   0   0   0   0   4   0   0 122 151 142 141 138 133
131 129 132 137 139 146 157 161 170 181 170 161 158 149 159 178 178 176 185 193 199 194 195 204
202 200 202 201 203 204 208 213 211 208 207 202 193 188 190 175 159 152 135 101  52  29  22  22
 11   0   1   1   1   1   1   1   0   0   0   0   0   0   0   0   0   0   0   0   0   0   0   0
  0   0   0   0
  0   0   0   0   0   0   0   0   0   0   0   0   0   0   0   4   0   0 125 152 142 136 131 133
133 133 133 138 143 146 148 158 170 181 181 162 152 142 146 163 175 175 180 190 198 203 198 194
195 196 193 194 194 198 201 206 215 218 214 197 183 178 180 180 160 144 134 108  60  31  28  25
 11   0   1   1   1   1   1   1   0   0   0   0   0   0   0   0   0   0   0   0   0   0   0   0
  0   0   0   0
  0   0   0   0   0   0   0   0   0   0   0   0   0   0   0   4   0   0 124 151 140 138 133 129
128 130 131 135 142 141 142 154 166 173 180 174 168 166 162 160 164 171 177 185 188 196 197 194
193 195 192 191 192 194 198 203 213 217 208 198 185 177 175 180 166 146 135 115  73  44  41  26
 11   1   1   1   1   0   1   1   0   0   0   0   0   0   0   0   0   0   0   0   0   0   0   0
  0   0   0   0
  0   0   0   0   0   0   0   0   0   0   0   0   0   0   0   3   0   0 112 142 136 132 131 131
130 126 126 131 135 137 141 152 163 168 171 175 181 185 185 177 172 184 188 182 186 195 195 188
187 188 192 187 185 193 200 209 212 207 200 198 193 184 171 164 159 144 134 124  85  58  46  26
 11   1   1   1   1   0   1   1   0   0   0   0   0   0   0   0   0   0   0   0   0   0   0   0
  0   0   0   0
  0   0   0   0   0   0   0   0   0   0   0   0   0   0   0   3   0   0 114 139 132 131 124 122
128 133 129 127 132 135 137 139 147 161 163 168 172 170 181 182 181 189 186 182 187 194 191 186
186 185 190 190 193 201 205 211 211 204 202 196 199 196 177 159 149 135 131 118  82  59  45  26
  9   2   1   1   1   0   0   1   0   0   0   0   0   0   0   0   0   0   0   0   0   0   0   0
  0   0   0   0
  0   0   0   0   0   0   0   0   0   0   0   0   0   0   0   4   0   0 121 144 129 131 131 126
126 128 135 134 135 133 131 136 141 149 163 175 172 171 176 184 185 185 186 181 191 202 195 189
187 192 197 192 191 201 207 210 209 201 203 198 199 197 184 162 150 145 122  99  76  58  46  23
  6   2   1   1   1   1   1   1   0   0   0   0   0   0   0   0   0   0   0   0   0   0   0   0
  0   0   0   0
  0   0   0   0   0   0   0   0   0   0   0   0   0   0   0   4   0   0 120 145 129 125 126 129
129 127 126 134 141 135 129 133 140 144 156 174 177 178 178 180 183 186 197 193 188 197 205 199
194 195 202 203 198 199 204 209 209 205 200 195 192 189 176 155 151 144 114  86  71  53  40  19
  3   2   1   1   1   1   1   1   0   0   0   0   0   0   0   0   0   0   0   0   0   0   0   0
  0   0   0   0
  0   0   0   0   0   0   0   0   0   0   0   0   0   0   0   4   0   0 119 144 130 126 122 121
125 128 129 128 135 140 132 133 137 142 149 161 179 189 186 184 183 185 198 202 190 183 194 198
197 199 208 211 212 210 204 207 209 211 206 200 190 183 172 165 159 130 105  77  56  44  34  12
  2   1   1   1   1   1   1   1   0   0   0   0   0   0   0   0   0   0   0   0   0   0   0   0
  0   0   0   0
  0   0   0   0   0   0   0   0   0   0   0   0   0   0   0   3   0   0 118 147 133 128 126 122
123 123 127 132 133 134 135 133 133 138 146 153 164 174 174 177 177 181 191 193 193 190 186 190
192 200 206 205 210 211 211 207 208 211 212 207 195 188 177 160 139 117  92  65  49  42  28   5
  1   1   1   1   1   0   1   1   0   0   0   0   0   0   0   0   0   0   0   0   0   0   0   0
  0   0   0   0
  0   0   0   0   0   0   0   0   0   0   0   0   0   0   0   3   0   0 114 144 137 131 126 124
122 125 127 128 135 139 140 135 136 142 144 148 153 153 154 157 159 165 173 177 186 191 184 185
189 196 192 193 201 205 212 209 204 210 213 200 194 186 172 146 112 108  91  61  51  40  21   3
  1   1   1   1   1   0   1   1   0   0   0   0   0   0   0   0   0   0   0   0   0   0   0   0
  0   0   0   0
  0   0   0   0   0   0   0   0   0   0   0   0   0   0   0   3   0   0 109 135 135 136 132 125
122 120 127 131 128 132 136 138 136 139 144 145 151 151 152 153 151 155 159 170 185 187 180 181
191 194 193 196 196 199 202 207 206 207 205 188 185 177 166 142 122 113  89  65  52  35  15   2
  1   1   1   1   1   1   1   1   0   0   0   0   0   0   0   0   0   0   0   0   0   0   0   0
  0   0   0   0
  0   0   0   0   0   0   0   0   0   0   0   0   0   0   0   3   0   0 115 135 128 138 141 132
124 123 122 130 131 128 131 133 134 134 139 144 146 152 156 159 156 156 156 161 177 187 188 185
191 196 198 198 198 200 199 200 202 199 190 179 176 171 157 136 135 116  80  67  41  27  12   1
  1   1   1   1   1   1   0   1   1   0   0   0   0   0   0   0   0   0   0   0   0   0   0   0
  0   0   0   0
  0   0   0   0   0   0   0   0   0   0   0   0   0   0   0   3   0   0 113 141 130 135 142 141
133 129 125 124 131 133 139 140 136 139 138 138 139 139 146 154 155 159 163 159 168 184 189 190
196 200 197 193 200 205 206 208 204 203 193 185 179 165 125 106 115 103  82  52  25  20   9   0
  1   1   1   1   1   1   1   1   0   0   0   0   0   0   0   0   0   0   0   0   0   0   0   0
  0   0   0   0
  0   0   0   0   0   0   0   0   0   0   0   0   0   0   0   3   0   0 110 135 130 135 139 144
147 135 134 131 129 133 137 143 139 134 140 139 132 125 127 136 142 145 150 157 171 182 188 196
197 197 197 197 203 209 205 202 206 209 205 191 167 127  97 113 110  91  63  35  22  13   5   0
  1   1   1   1   1   1   1   1   1   0   0   0   0   0   0   0   0   0   0   0   0   0   0   0
  0   0   0   0
  0   0   0   0   0   0   0   0   0   0   0   0   0   0   0   3   0   0 115 138 128 134 136 135
147 149 138 136 135 135 138 136 136 128 132 137 133 127 122 124 132 146 154 163 175 181 191 198
194 195 196 199 198 194 186 188 192 195 196 173 138 108 108 113 107  74  34  25  18  10   3   0
  1   1   1   1   1   1   1   1   1   0   0   0   0   0   0   0   0   0   0   0   0   0   0   0
  0   0   0   0
  0   0   0   0   0   0   0   0   0   0   0   0   0   0   0   3   0   0 114 136 126 128 128 131
134 150 150 138 134 132 138 134 132 131 129 133 133 131 129 126 127 137 151 159 173 177 185 190
191 196 201 202 194 187 183 179 171 170 173 154 138 121 103  95  84  42  25  21  14   8   2   1
  1   1   1   1   1   1   1   1   1   0   0   0   0   0   0   0   0   0   0   0   0   0   0   0
  0   0   0   0
  0   0   0   0   0   0   0   0   0   0   0   0   0   0   0   3   0   0 114 133 123 123 119 125
127 130 148 148 135 133 132 134 133 135 130 129 130 125 130 125 122 122 133 142 156 165 163 165
172 186 202 203 198 188 181 173 168 164 159 148 140 122  90  77  57  30  23  16  11   5   1   1
  1   1   1   1   1   0   0   1   1   0   0   0   0   0   0   0   0   0   0   0   0   0   0   0
  0   0   0   0
  0   0   0   0   0   0   0   0   0   0   0   0   0   0   0   3   0   0 114 139 128 124 120 119
125 130 134 143 140 135 135 132 132 137 138 128 128 126 121 120 118 118 127 133 139 159 161 161
159 172 191 197 200 195 190 186 180 171 162 155 137 111  79  62  43  27  19  13   9   3   1   1
  1   1   1   1   1   0   0   1   0   0   0   0   0   0   0   0   0   0   0   0   0   0   0   0
  0   0   0   0
  0   0   0   0   0   0   0   0   0   0   0   0   0   0   0   3   0   0 110 139 129 128 125 123
124 135 141 137 137 135 135 135 131 130 130 128 125 122 116 119 123 123 127 131 135 152 158 158
161 168 186 197 204 201 198 195 187 158 136 134 121  95  70  55  33  22  16  12   6   1   1   0
  1   1   1   1   1   0   0   1   1   0   0   0   0   0   0   0   0   0   0   0   0   0   0   0
  0   0   0   0
  0   0   0   0   0   0   0   0   0   0   0   0   0   0   0   3   0   0 105 127 117 122 126 124
127 132 141 142 137 134 133 134 133 129 129 125 125 120 113 114 116 122 127 135 138 138 146 149
159 168 177 188 200 202 202 202 193 169 141 119 102  86  72  48  25  20  14   8   3   1   1   0
  1   1   1   1   0   0   0   0   1   0   0   0   0   0   0   0   0   0   0   0   0   0   0   0
  0   0   0   0
  0   0   0   0   0   0   0   0   0   0   0   0   0   0   0   3   0   0 103 123 112 112 115 116
122 130 135 136 135 131 136 132 127 127 128 127 129 128 121 116 116 117 123 132 135 138 139 147
163 162 170 183 203 213 211 200 183 171 146 111  88  77  63  40  27  17  10   5   2   1   1   1
  1   1   1   1   1   0   0   0   0   0   0   0   0   0   0   0   0   0   0   0   0   0   0   0
  0   0   0   0
  0   0   0   0   0   0   0   0   0   0   0   0   0   0   0   2   0   0  96 113 104 107 107 108
110 118 128 126 126 126 133 139 137 128 129 134 137 141 135 124 124 121 125 129 133 140 143 150
161 169 178 187 192 192 189 185 173 153 132 103  76  62  51  40  25  12   6   3   1   1   1   0
  1   1   0   1   1   0   0   1   0   0   0   0   0   0   0   0   0   0   0   0   0   0   0   0
  0   0   0   0
  0   0   0   0   0   0   0   0   0   0   0   0   0   0   0   2   0   0  89 101  92  97  97  99
103 105 110 118 120 121 120 128 139 137 133 134 138 139 137 127 119 120 121 123 127 130 133 145
153 164 163 150 150 151 159 161 154 141 136 114  77  66  51  28  13   8   4   1   1   1   1   0
  1   1   1   1   1   0   0   1   1   0   0   0   0   0   0   0   0   0   0   0   0   0   0   0
  0   0   0   0
  0   0   0   0   0   0   0   0   0   0   0   0   0   0   0   2   0   0  83  88  78  84  87  92
 95  97  99 103 112 113 114 115 120 125 124 120 127 131 129 132 121 117 116 118 120 119 120 127
134 141 147 141 138 136 133 126 118 117 115  98  79  55  26  11   9   6   2   1   1   1   1   1
  1   1   1   1   1   0   0   1   1   0   0   0   0   0   0   0   0   0   0   0   0   0   0   0
  0   0   0   0
  0   0   0   0   0   0   0   0   0   0   0   0   0   0   0   2   0   4  82  73  62  70  75  81
 84  89  92  91  98 105 103 104 105 108 111 115 120 127 132 132 128 124 121 121 123 118 120 129
132 139 142 133 124 119 116 118 109  98  83  66  42  15  10  11   7   2   1   1   1   1   1   0
  1   1   1   1   1   0   0   1   1   0   0   0   0   0   0   0   0   0   0   0   0   0   0   0
  0   0   0   0
  0   0   0   0   0   0   0   0   0   0   0   0   0   0   0   2   0   4  86  68  48  57  63  68
 74  80  83  83  85  95  95  93  96  98 100 103 103 115 130 139 131 123 124 125 124 122 123 123
122 119 111 107 108 106  99  90  83  73  54  31  14  16  12   7   3   1   1   1   1   1   1   0
  0   1   1   1   1   0   1   1   1   0   0   0   0   0   0   0   0   0   0   0   0   0   0   0
  0   0   0   0
  0   0   0   0   0   0   0   0   0   0   0   0   0   0   0   3   0   1  95  72  37  50  51  56
 62  68  74  74  76  84  91  87  85  90  88  90  92 101 111 125 128 117 117 119 123 115 110 104
 99  86  80  82  81  75  66  58  52  41  26  21  18  11   7   4   1   1   1   1   1   1   1   0
  1   0   1   1   1   0   1   1   1   0   0   0   0   0   0   0   0   0   0   0   0   0   0   0
  0   0   0   0
  0   0   0   0   0   0   0   0   0   0   0   0   0   0   0   3   0   0 102  77  16  42  43  46
 50  54  61  63  66  72  81  84  79  83  86  84  87  92 104 102 107 113 112 113 117 111 102  95
 87  80  76  71  64  58  54  50  39  29  22  17  12   7   5   1   1   1   1   1   1   1   1   1
  1   1   1   1   1   1   1   1   1   0   0   0   0   0   0   0   0   0   0   0   0   0   0   0
  0   0   0   0
  0   0   0   0   0   0   0   0   0   0   0   0   0   0   0   4   0   0 107  83   0  33  33  37
 39  44  50  54  56  61  69  74  74  73  80  82  80  81  89  99  93  96  93  93  94  96  95  86
 81  75  68  65  60  53  45  37  29  22  14  10   8   5   2   1   1   1   1   1   1   1   1   1
  1   1   1   1   1   1   1   1   1   1   0   0   0   0   0   0   0   0   0   0   0   0   0   0
  0   0   0   0
  0   0   0   0   0   0   0   0   0   0   0   0   0   0   0   4   0   0 116  98   0  26  24  28
 30  34  40  44  47  51  58  64  67  67  71  73  71  73  72  81  88  84  80  75  77  80  82  76
 70  65  59  54  49  42  35  28  21  14   9   8   6   2   1   1   1   1   1   1   1   1   1   1
  1   1   1   1   1   1   1   1   1   1   0   0   0   0   0   0   0   0   0   0   0   0   0   0
  0   0   0   0
  0   0   0   0   0   0   0   0   0   0   0   0   0   0   0   3   1   0 108 114   8  10  20  20
 24  26  31  35  38  42  47  53  57  58  64  65  63  66  66  67  75  80  78  73  70  67  67  67
 59  55  51  44  39  32  24  19  13  10   8   6   2   1   1   1   1   1   1   1   1   1   1   1
  1   1   1   1   1   1   1   1   1   1   0   0   0   0   0   0   0   0   0   0   0   0   0   0
  0   0   0   0
  0   0   0   0   0   0   0   0   0   0   0   0   0   0   0   1   1   0  73  88  26   6  18  14
 18  20  23  27  29  33  37  42  46  47  51  55  57  59  59  61  62  69  74  66  58  55  51  51
 50  44  40  34  28  22  16  12  10   9   5   1   1   1   1   1   1   1   0   1   1   1   1   1
  1   1   1   1   1   1   1   1   1   1   0   0   0   0   0   0   0   0   0   0   0   0   0   0
  0   0   0   0
  0   0   0   0   0   0   0   0   0   0   0   0   0   0   0   1   0   3  37  19   1   7  11  13
 14  14  17  20  22  23  27  30  33  37  39  41  45  49  51  52  54  55  53  50  47  44  41  37
 35  33  28  23  18  14  11  10   9   5   1   1   1   1   1   1   1   0   0   1   1   1   1   1
  1   1   1   1   1   1   1   1   1   1   0   0   0   0   0   0   0   0   0   0   0   0   0   0
  0   0   0   0
  0   0   0   0   0   0   0   0   0   0   0   0   0   0   0   0   0   3  34  16   0   0   1   5
  9  12  12  13  15  17  19  20  23  26  28  30  32  34  37  38  39  36  34  35  34  30  28  26
 24  20  18  15  12  10   9   7   4   2   1   1   1   1   1   1   1   1   1   1   1   1   1   1
  1   1   1   1   1   1   1   1   1   1   0   0   0   0   0   0   0   0   0   0   0   0   0   0
  0   0   0   0
  0   0   0   0   0   0   0   0   0   0   0   0   0   0   0   0   0   2  34  20   2   2   0   0
  1   4   8  10  10  11  13  14  16  18  20  21  23  25  25  25  25  25  25  24  24  22  20  19
 17  14  13  11  10   8   5   2   2   2   1   1   1   1   1   1   1   1   1   1   1   1   1   1
  1   1   1   1   1   1   1   1   1   1   0   0   0   0   0   0   0   0   0   0   0   0   0   0
  0   0   0   0
  0   0   0   0   0   0   0   0   0   0   0   0   0   0   0   0   0   1  32  21   2   3   1   1
  0   0   1   4   6   7   8   9  10  11  14  15  16  17  17  18  18  18  17  17  17  17  16  14
 12  10   9   8   5   3   1   2   2   2   1   1   1   1   1   1   1   0   1   1   1   1   1   1
  1   1   1   1   1   1   1   1   1   1   0   0   0   0   0   0   0   0   0   0   0   0   0   0
  0   0   0   0
  0   0   0   0   0   0   0   0   0   0   0   0   0   0   0   0   0   0  25  21   5   3   1   1
  0   0   0   0   0   2   4   5   6   7   8   9  10  11  11  12  12  12  12  12  12  11  11  10
  8   7   5   4   2   1   2   2   2   2   1   1   1   1   1   1   0   0   1   1   1   1   1   1
  1   1   1   1   1   1   1   1   1   1   0   0   0   0   0   0   0   0   0   0   0   0   0   0
  0   0   0   0
  0   0   0   0   0   0   0   0   0   0   0   0   0   0   0   0   0   0  21  20   8   3   1   0
  0   0   0   0   0   0   0   0   2   3   4   5   6   7   7   7   8   8   9   8   8   8   6   5
  4   3   2   2   2   1   1   2   2   2   1   1   1   1   0   0   0   0   0   1   1   1   1   1
  1   1   1   1   1   1   1   1   1   1   0   0   0   0   0   0   0   0   0   0   0   0   0   0
  0   0   0   0
  0   0   0   0   0   0   0   0   0   0   0   0   0   0   0   0   0   0  19  17   9   5   1   0
  0   0   0   0   0   0   0   0   0   0   1   1   2   3   3   3   4   4   4   3   3   3   2   2
  2   2   2   2   2   1   1   1   1   1   1   1   1   0   0   0   0   0   0   0   1   1   1   1
  1   1   1   1   1   1   1   1   1   0   0   0   0   0   0   0   0   0   0   0   0   0   0   0
  0   0   0   0
  0   0   0   0   0   0   0   0   0   0   0   0   0   0   0   0   0   0  17  16   9   6   1   0
  0   0   0   0   0   0   0   0   0   1   1   1   1   1   1   1   2   2   1   1   2   2   2   2
  2   2   1   2   1   1   1   1   1   1   0   0   0   0   0   0   0   0   0   0   0   0   0   0
  0   0   0   1   0   0   0   0   0   0   0   0   0   0   0   0   0   0   0   0   0   0   0   0
  0   0   0   0
  0   0   0   0   0   0   0   0   0   0   0   0   0   0   0   0   0   0  19  17   8   7   2   0
  0   0   0   0   0   0   0   0   0   1   1   1   1   1   1   1   2   2   2   2   2   2   2   2
  1   1   1   2   1   1   1   1   1   1   0   0   0   0   0   0   0   0   0   0   0   0   0   0
  0   0   0   0   0   0   0   0   0   0   0   0   0   0   0   0   0   0   0   0   0   0   0   0
  0   0   0   0
  0   0   0   0   0   0   0   0   0   0   0   0   0   0   0   0   0   0  17  16   8   7   2   0
  1   0   0   0   0   0   0   0   0   1   1   1   1   1   1   1   2   2   1   1   1   2   2   2
  1   1   1   2   1   1   1   1   1   1   0   0   0   0   0   0   0   0   0   0   0   0   0   0
  0   0   0   0   0   0   0   0   0   0   0   0   0   0   0   0   0   0   0   0   0   0   0   0
  0   0   0   0
  0   0   0   0   0   0   0   0   0   0   0   0   0   0   0   0   0   0  17  16   8   7   1   0
  0   0   0   0   0   0   0   0   1   1   1   1   1   1   1   1   1   1   1   1   1   1   1   2
  1   1   1   1   1   1   1   1   1   1   0   0   0   0   0   0   0   0   0   0   0   0   0   0
  0   0   0   0   0   0   0   0   0   0   0   0   0   0   0   0   0   0   0   0   0   0   0   0
  0   0   0   0
