P2
# 8-bit pgm gray
100 100
255
  0   0   0   0   0   0   0   0   0   0   0   0   0   0   0   0   0   0   0   0   0   0   3   0
 21  84  89  86  86  84  83  84  82  80  83  84  85  90  90  87  89  90  93  98 104 112 119 122
121 123 121 124 138 151 163 169 168 172 173 175 176 176 177 179 177 176 178 175 174 175 176 175
178 177 165  65   0  15   0   0   0   0   0   0   0   0   0   0   0   0   0   0   0   0   0   0
  0   0   0   0
  0   0   0   0   0   0   0   0   0   0   0   0   0   0   0   0   0   0   0   0   0   0   0   3
  0   0   0   0   0   0   0   0   0   0   0   0   0   0   0   0   0   0   0   0  40  64  83  93
 98 101 105 113 133 155 173 178 179 184 188 190 192 192 194 195 195 197 196 193 193 192 193 193
194 193 183  72   0  18   0   0   0   0   0   0   0   0   0   0   0   0   0   0   0   0   0   0
  0   0   0   0
  0   0   0   0   0   0   0   0   0   0   0   0   0   0   0   0   0   0   0   0   0   0   0   0
  3  24  25  24  24  23  23  24  23  23  24  24  25  26  26  25  28  34  42  52  63  79  95 103
106 107 108 111 125 148 168 171 174 178 181 184 185 186 187 188 190 191 189 190 189 187 186 189
189 188 180  69   0  17   0   0   0   0   0   0   0   0   0   0   0   0   0   0   0   0   0   0
  0   0   0   0
  0   0   0   0   0   0   0   0   0   0   0   0   0   0   0   0   0   0   0   0   0   0   0   0
  0   3   2   2   2   3   3   3   4   4   4   4   4   4   4   3   8  19  30  43  58  73  90 103
104 104 106 107 120 149 167 169 175 178 180 183 184 187 188 189 190 192 190 189 190 187 188 191
190 190 181  70   0  18   0   0   0   0   0   0   0   0   0   0   0   0   0   0   0   0   0   0
  0   0   0   0
  0   0   0   0   0   0   0   0   0   0   0   0   0   0   0   0   0   0   0   0   0   0   0   0
  1   6   5   5   6   6   6   6   7   7   7   7   7   6   6   6   9  19  30  44  57  72  88 102
104 105 106 106 117 147 161 165 172 176 177 180 182 185 188 189 190 190 188 188 190 190 191 192
185 186 179  72   0  18   0   0   0   0   0   0   0   0   0   0   0   0   0   0   0   0   0   0
  0   0   0   0
  0   0   0   0   0   0   0   0   0   0   0   0   0   0   0   0   0   0   0   0   0   0   0   0
  1   7   5   5   6   6   6   6   6   6   6   6   6   6   6   5   8  18  28  42  55  70  85  98
103 102 106 107 118 136 147 160 167 173 177 179 181 184 188 188 188 189 191 191 192 193 192 187
184 187 180  72   0  18   0   0   0   0   0   0   0   0   0   0   0   0   0   0   0   0   0   0
  0   0   0   0
  0   0   0   0   0   0   0   0   0   0   0   0   0   0   0   0   0   0   0   0   0   0   0   0
  1   7   6   5   6   6   6   6   6   6   6   6   6   6   6   5   7  18  27  41  56  70  85  97
100 100 106 109 120 128 140 155 162 169 175 179 180 182 185 188 190 191 191 191 191 194 191 185
187 190 179  71   0  17   0   0   0   0   0   0   0   0   0   0   0   0   0   0   0   0   0   0
  0   0   0   0
  0   0   0   0   0   0   0   0   0   0   0   0   0   0   0   0   0   0   0   0   0   0   0   0
  1   8   6   6   6   6   6   6   6   6   6   6   6   6   6   5   6  16  26  38  55  73  86  97
 99  99 102 110 123 122 136 150 160 166 172 180 182 181 186 187 189 190 190 188 190 194 191 187
186 189 180  72   0  18   0   0   0   0   0   0   0   0   0   0   0   0   0   0   0   0   0   0
  0   0   0   0
  0   0   0   0   0   0   0   0   0   0   0   0   0   0   0   0   0   0   0   0   0   0   0   0
  3  14   7   7   6   6   6   6   6   6   6   6   6   6   6   5   6  14  23  38  52  69  84  96
100 102 104 109 123 118 129 144 157 166 170 177 180 181 183 186 187 188 189 187 192 191 189 188
185 191 188  78   0  19   0   0   0   0   0   0   0   0   0   0   0   0   0   0   0   0   0   0
  0   0   0   0
  0   0   0   0   0   0   0   0   0   0   0   0   0   0   0   0   0   0   0   0   0   0   0   0
  2  15   7   6   6   6   6   6   6   6   6   6   6   6   6   6   5  13  23  37  52  69  86  98
 99 102 109 112 123 116 126 141 151 164 167 173 179 181 181 185 187 187 187 189 192 191 189 189
187 191 186  75   0  19   0   0   0   0   0   0   0   0   0   0   0   0   0   0   0   0   0   0
  0   0   0   0
  0   0   0   0   0   0   0   0   0   0   0   0   0   0   0   0   0   0   0   0   0   0   0   1
  0   0   1   8   5   6   6   6   6   6   6   6   6   6   6   6   5  13  24  37  54  73  89  97
 99 103 104 112 124 113 121 138 150 160 166 172 179 180 179 184 186 185 188 187 188 194 191 189
188 191 186  74   0  19   0   0   0   0   0   0   0   0   0   0   0   0   0   0   0   0   0   0
  0   0   0   0
  0   0   0   0   0   0   0   0   0   0   0   0   0   0   0   0   0   0   0   0   0   0  11   0
 66 136   8   0  11   5   6   6   6   6   6   6   6   6   6   6   5  13  23  36  55  70  84  92
 99 102 103 112 117 116 117 130 145 155 165 173 177 180 182 183 186 187 186 186 187 193 192 187
186 196 190  75   0  19   0   0   0   0   0   0   0   0   0   0   0   0   0   0   0   0   0   0
  0   0   0   0
  0   0   0   0   0   0   0   0   0   0   0   0   0   0   0   0   0   0   0   0   0   0  18   0
 84 179  29   0  16   4   6   6   6   6   6   6   6   6   6   6   5  12  22  39  54  67  83  93
 98 100 107 111 114 114 115 122 137 148 161 170 173 179 184 180 184 184 184 187 187 188 191 188
186 196 187  72   0  18   0   0   0   0   0   0   0   0   0   0   0   0   0   0   0   0   0   0
  0   0   0   0
  0   0   0   0   0   0   0   0   0   0   0   0   0   0   0   0   0   0   0   0   0   0  17   0
 83 175  28   0  16   4   6   6   6   6   6   6   6   6   6   6   6  14  24  40  55  71  85  92
 97 102 109 109 112 110 114 120 131 143 158 167 173 177 179 180 182 182 182 186 187 186 190 190
188 192 184  72   0  18   0   0   0   0   0   0   0   0   0   0   0   0   0   0   0   0   0   0
  0   0   0   0
  0   0   0   0   0   0   0   0   0   0   0   0   0   0   0   0   0   0   0   0   0   0  18   0
 84 176  25   0  15   5   6   6   6   6   6   6   6   6   6   6   6  15  26  36  55  76  86  94
103 105 113 115 114 109 112 118 127 139 152 163 171 175 177 177 179 182 185 188 189 189 187 189
188 189 181  73   0  18   0   0   0   0   0   0   0   0   0   0   0   0   0   0   0   0   0   0
  0   0   0   0
  0   0   0   0   0   0   0   0   0   0   0   0   0   0   0   0   0   0   0   0   0   0  17   0
 84 174  20   0  15   5   6   6   8   6   6   6   6   5   6   5   7  16  26  39  57  75  85  97
104 103 105 116 118 109 112 114 122 137 146 159 170 171 172 175 177 181 187 188 187 187 186 188
189 191 180  70   0  17   0   0   0   0   0   0   0   0   0   0   0   0   0   0   0   0   0   0
  0   0   0   0
  0   0   0   0   0   0   0   0   0   0   0   0   0   0   0   0   0   0   0   0   0   0  17   0
 84 171   9   0  14   5   6   6   6   6   6   6   6   5   6   5   9  18  27  42  56  74  86  95
100 105 105 107 116 113 111 115 118 129 144 159 166 167 170 173 175 180 186 185 183 188 186 187
191 191 181  71   0  18   0   0   0   0   0   0   0   0   0   0   0   0   0   0   0   0   0   0
  0   0   0   0
  0   0   0   0   0   0   0   0   0   0   0   0   0   0   0   0   0   0   0   0   0   0  17   0
 84 168   0   0  13   5   6   6   5   6   6   6   6   6   6   5  11  19  29  42  58  75  88  95
101 106 106 108 115 114 112 114 117 125 141 155 161 166 169 174 177 179 183 183 184 187 187 189
191 192 183  72   0  18   0   0   0   0   0   0   0   0   0   0   0   0   0   0   0   0   0   0
  0   0   0   0
  0   0   0   0   0   0   0   0   0   0   0   0   0   0   0   0   0   0   0   0   0   0  17   0
 84 165   0   0  11   6   6   6   6   6   6   6   6   6   6   5  14  23  30  44  60  75  87  94
 99 104 104 111 115 114 113 113 117 123 139 151 155 162 167 173 177 176 180 185 185 183 185 189
190 192 183  72   0  18   0   0   0   0   0   0   0   0   0   0   0   0   0   0   0   0   0   0
  0   0   0   0
  0   0   0   0   0   0   0   0   0   0   0   0   0   0   0   0   0   0   0   0   0   0  16   0
 84 161   0   0  10   6   6   6   6   6   6   6   6   5   5   7  16  24  33  46  62  74  85  96
103 107 109 114 118 116 112 114 117 122 138 148 150 158 164 170 175 177 181 184 181 184 186 188
188 188 182  72   0  18   0   0   0   0   0   0   0   0   0   0   0   0   0   0   0   0   0   0
  0   0   0   0
  0   0   0   0   0   0   0   0   0   0   0   0   0   0   0   0   0   0   0   0   0   0  16   0
 83 157   0   3   9   6   6   6   6   6   6   6   6   5   5   9  19  28  37  48  66  81  90 102
108 106 109 116 120 113 112 113 118 121 128 140 147 157 163 170 174 178 181 181 181 184 185 187
185 184 179  72   0  18   0   0   0   0   0   0   0   0   0   0   0   0   0   0   0   0   0   0
  0   0   0   0
  0   0   0   0   0   0   0   0   0   0   0   0   0   0   0   0   0   0   0   0   0   0  16   0
 83 153   0   7   8   6   6   6   6   6   5   6   6   5   5  13  21  30  40  55  78  87  91 100
106 106 109 117 115 109 111 115 116 117 122 135 143 152 159 167 174 178 178 180 181 181 182 186
187 186 178  70   0  17   0   0   0   0   0   0   0   0   0   0   0   0   0   0   0   0   0   0
  0   0   0   0
  0   0   0   0   0   0   0   0   0   0   0   0   0   0   0   0   0   0   0   0   0   0  15   0
 82 148   0  10   7   6   6   6   5   6   6   5   6   5   6  17  24  32  44  61  75  82  91  99
106 110 112 114 108 109 112 117 116 116 121 130 140 150 159 166 173 176 179 178 181 180 179 184
189 191 181  71   0  18   0   0   0   0   0   0   0   0   0   0   0   0   0   0   0   0   0   0
  0   0   0   0
  0   0   0   0   0   0   0   0   0   0   0   0   0   0   0   0   0   0   0   0   0   0  14   0
 81 142   0  13   6   6   6   6   6   6   6   6   6   5   9  18  27  38  49  60  77  88  95 102
105 113 117 110 108 113 113 113 118 120 121 122 139 153 159 168 172 174 177 177 181 181 179 183
185 190 183  71   0  18   0   0   0   0   0   0   0   0   0   0   0   0   0   0   0   0   0   0
  0   0   0   0
  0   0   0   0   0   0   0   0   0   0   0   0   0   0   0   0   0   0   0   0   0   0  14   0
 81 136   0  16   5   6   6   6   6   6   6   6   6   5  12  20  28  42  55  65  81  94 101 103
106 115 113 108 111 113 114 115 118 118 126 128 133 151 159 166 169 172 175 178 179 180 178 181
183 190 180  68   0  17   0   0   0   0   0   0   0   0   0   0   0   0   0   0   0   0   0   0
  0   0   0   0
  0   0   0   0   0   0   0   0   0   0   0   0   0   0   0   0   0   0   0   0   0   0   7   0
 58  95   0  13   5   6   6   6   6   6   6   6   5   6  15  23  32  46  60  69  79  95 101 103
108 114 109 112 114 112 113 113 113 113 122 130 131 142 159 165 165 171 174 175 179 180 180 179
180 190 181  69   0  17   0   0   0   0   0   0   0   0   0   0   0   0   0   0   0   0   0   0
  0   0   0   0
  0   0   0   0   0   0   0   0   0   0   0   0   0   0   0   0   0   0   0   0   0   0   0   4
  0   0   9   5   6   6   5   5   6   6   5   5   5   8  17  26  38  48  59  71  84  94  99 103
111 113 111 117 111 110 111 110 114 119 121 125 127 138 154 164 165 171 173 175 179 180 179 177
177 185 183  71   0  18   0   0   0   0   0   0   0   0   0   0   0   0   0   0   0   0   0   0
  0   0   0   0
  0   0   0   0   0   0   0   0   0   0   0   0   0   0   0   0   0   0   0   0   0   0   0   0
  2  12   6   6   6   6   6   5   5   6   5   5   5  11  19  29  41  50  61  74  87  92  99 111
118 111 111 112 110 114 111 114 118 118 122 127 125 135 144 156 168 172 173 176 176 175 179 179
178 182 180  74   0  18   0   0   0   0   0   0   0   0   0   0   0   0   0   0   0   0   0   0
  0   0   0   0
  0   0   0   0   0   0   0   0   0   0   0   0   0   0   0   0   0   0   0   0   0   0   0   0
  0   5   6   6   6   6   6   6   5   6   5   5   6  14  23  33  45  56  66  75  87  92  97 110
127 117 112 111 111 112 112 115 115 118 124 128 132 134 141 153 163 170 176 177 174 176 180 182
175 179 176  73   0  17   0   0   0   0   0   0   0   0   0   0   0   0   0   0   0   0   0   0
  0   0   0   0
  0   0   0   0   0   0   0   0   0   0   0   0   0   0   0   0   0   0   0   0   0   0   0   0
  0   5   6   6   6   6   6   6   6   5   6   5   8  18  27  38  48  60  70  80  89  92  99 112
125 120 117 114 111 110 112 114 115 121 124 126 138 136 134 146 158 169 175 174 176 179 177 182
177 177 174  70   0  17   0   0   0   0   0   0   0   0   0   0   0   0   0   0   0   0   0   0
  0   0   0   0
  0   0   0   0   0   0   0   0   0   0   0   0   0   0   0   0   0   0   0   0   0   0   0   0
  0   5   6   6   6   6   6   6   5   6   5   5  12  21  31  41  50  62  73  85  93  95 110 121
115 117 117 113 112 116 116 115 120 125 126 130 131 132 133 142 156 166 170 173 182 186 179 182
181 180 173  72   0  17   0   0   0   0   0   0   0   0   0   0   0   0   0   0   0   0   0   0
  0   0   0   0
  0   0   0   0   0   0   0   0   0   0   0   0   0   0   0   0   0   0   0   0   0   0   0   0
  0   5   6   6   6   6   5   6   5   6   5   6  15  25  35  45  55  68  78  86  94 105 118 123
114 113 116 118 117 118 116 121 126 124 128 131 127 134 136 142 155 161 163 171 179 186 184 181
185 182 169  68   0  16   0   0   0   0   0   0   0   0   0   0   0   0   0   0   0   0   0   0
  0   0   0   0
  0   0   0   0   0   0   0   0   0   0   0   0   0   0   0   0   0   0   0   0   0   0   0   0
  0   5   6   6   6   6   6   6   6   6   5  10  20  29  40  52  63  73  83  90  94 104 113 120
117 111 113 121 122 117 120 123 122 125 131 133 132 133 136 142 144 152 160 169 176 178 181 175
178 182 170  64   0  16   0   0   0   0   0   0   0   0   0   0   0   0   0   0   0   0   0   0
  0   0   0   0
  0   0   0   0   0   0   0   0   0   0   0   0   0   0   0   0   0   0   0   0   0   0   0   0
  0   5   6   6   6   6   6   6   6   6   5  15  24  31  44  54  66  75  85  95  98 103 105 109
116 110 113 116 119 119 118 122 126 133 134 135 133 134 137 137 136 149 160 166 169 173 178 173
177 183 173  68   0  16   0   0   0   0   0   0   0   0   0   0   0   0   0   0   0   0   0   0
  0   0   0   0
  0   0   0   0   0   0   0   0   0   0   0   0   0   0   0   0   0   0   0   0   0   0   0   0
  0   5   6   6   6   6   6   6   6   5   7  19  26  36  47  57  68  78  87  96  99 104 108 115
124 112 113 118 118 114 115 121 125 127 136 135 132 136 137 135 137 145 155 161 167 169 173 178
176 183 177  70   0  17   0   0   0   0   0   0   0   0   0   0   0   0   0   0   0   0   0   0
  0   0   0   0
  0   0   0   0   0   0   0   0   0   0   0   0   0   0   0   0   0   0   0   0   0   0   0   0
  0   5   6   6   6   6   6   6   6   5  11  20  29  40  50  59  70  81  88  94  98 101 103 119
125 111 115 120 114 115 122 124 126 129 137 136 134 134 132 135 139 140 149 159 166 168 174 179
175 177 171  67   0  16   0   0   0   0   0   0   0   0   0   0   0   0   0   0   0   0   0   0
  0   0   0   0
  0   0   0   0   0   0   0   0   0   0   0   0   0   0   0   0   0   0   0   0   0   0   0   0
  0   5   6   6   6   6   6   6   6   6  15  24  35  47  56  64  74  82  90  94  97 105 107 120
122 113 119 118 118 127 134 129 130 137 138 138 134 131 134 138 140 139 143 158 165 168 169 173
173 173 169  67   0  16   0   0   0   0   0   0   0   0   0   0   0   0   0   0   0   0   0   0
  0   0   0   0
  0   0   0   0   0   0   0   0   0   0   0   0   0   0   0   0   0   0   0   0   0   0   0   0
  0   5   6   6   6   6   6   6   5   7  19  32  43  54  63  75  84  87  93  96  94 105 118 127
124 112 115 117 122 129 129 130 137 142 142 140 136 136 136 137 140 145 143 148 155 164 168 168
169 176 171  67   0  16   0   0   0   0   0   0   0   0   0   0   0   0   0   0   0   0   0   0
  0   0   0   0
  0   0   0   0   0   0   0   0   0   0   0   0   0   0   0   0   0   0   0   0   0   0   0   0
  0   5   6   6   6   6   6   6   5  12  22  32  44  54  63  75  84  86  94 101 100 106 121 134
130 117 112 117 123 121 127 134 137 138 139 136 137 139 136 135 137 138 140 144 154 162 165 165
169 181 174  68   0  17   0   0   0   0   0   0   0   0   0   0   0   0   0   0   0   0   0   0
  0   0   0   0
  0   0   0   0   0   0   0   0   0   0   0   0   0   0   0   0   0   0   0   0   0   0   0   0
  0   5   6   6   6   6   6   5   5  16  28  36  49  60  67  76  80  87  93  98 108 116 124 143
140 129 130 124 121 121 128 134 135 134 129 128 134 134 139 141 137 134 138 145 153 159 162 167
172 182 177  70   0  17   0   0   0   0   0   0   0   0   0   0   0   0   0   0   0   0   0   0
  0   0   0   0
  0   0   0   0   0   0   0   0   0   0   0   0   0   0   0   0   0   0   0   0   0   0   0   0
  0   5   6   6   6   5   6   5   8  18  30  41  49  61  71  79  82  87  94  98 112 122 131 142
146 142 142 143 137 137 138 139 140 136 132 134 140 137 137 140 144 144 141 148 150 158 168 173
178 189 185  73   0  18   0   0   0   0   0   0   0   0   0   0   0   0   0   0   0   0   0   0
  0   0   0   0
  0   0   0   0   0   0   0   0   0   0   0   0   0   0   0   0   0   0   0   0   0   0   0   0
  0   5   6   6   6   6   6   5  11  21  31  43  53  63  74  81  83  88  98 105 110 118 124 123
134 148 148 145 138 144 146 142 141 141 141 146 144 139 141 147 155 152 150 158 159 161 174 177
181 190 186  75   0  19   0   0   0   0   0   0   0   0   0   0   0   0   0   0   0   0   0   0
  0   0   0   0
  0   0   0   0   0   0   0   0   0   0   0   0   0   0   0   0   0   0   0   0   0   0   0   0
  0   5   6   6   6   6   6   5  14  24  36  47  56  68  77  80  85  92  94  96 106 118 122 126
129 139 148 138 133 138 135 130 129 132 137 137 130 127 133 139 144 141 144 148 148 150 161 169
174 187 183  73   0  18   0   0   0   0   0   0   0   0   0   0   0   0   0   0   0   0   0   0
  0   0   0   0
  0   0   0   0   0   0   0   0   0   0   0   0   0   0   0   0   0   0   0   0   0   0   0   0
  0   5   6   6   6   6   5   7  18  27  39  51  61  73  76  83  92  89  91  95 109 117 122 131
132 140 142 134 136 133 132 126 126 135 134 129 130 132 131 135 137 139 142 143 147 147 154 171
179 179 173  70   0  17   0   0   0   0   0   0   0   0   0   0   0   0   0   0   0   0   0   0
  0   0   0   0
  0   0   0   0   0   0   0   0   0   0   0   0   0   0   0   0   0   0   0   0   0   0   0   0
  0   5   6   6   7   6   5   9  21  30  41  55  65  73  80  88  89  87  90  97 114 121 128 145
146 144 135 129 130 129 125 125 136 142 134 131 133 129 132 136 136 138 141 143 143 150 161 166
166 165 168  70   0  16   0   0   0   0   0   0   0   0   0   0   0   0   0   0   0   0   0   0
  0   0   0   0
  0   0   0   0   0   0   0   0   0   0   0   0   0   0   0   0   0   0   0   0   0   0   0   0
  0   5   6   6   6   6   5  12  24  38  52  64  73  80  88  86  84  89  90 101 116 120 137 149
146 139 133 128 128 127 125 131 144 145 137 132 133 134 137 136 135 135 139 146 151 156 158 152
155 169 169  67   0  16   0   0   0   0   0   0   0   0   0   0   0   0   0   0   0   0   0   0
  0   0   0   0
  0   0   0   0   0   0   0   0   0   0   0   0   0   0   0   0   0   0   0   0   0   0   0   0
  0   5   6   6   6   6   5  15  31  44  55  66  75  83  86  82  84  88 100 115 118 129 140 143
141 137 136 132 132 128 128 134 142 140 133 132 137 137 138 140 139 136 143 154 154 149 144 145
150 166 168  68   0  16   0   0   0   0   0   0   0   0   0   0   0   0   0   0   0   0   0   0
  0   0   0   0
  0   0   0   0   0   0   0   0   0   0   0   0   0   0   0   0   0   0   0   0   0   0   0   0
  0   5   6   6   6   6   6  18  31  44  56  67  75  82  83  84  90  98 106 120 129 142 143 146
147 141 135 129 128 131 133 136 139 134 133 134 137 137 138 136 138 145 148 144 138 139 140 141
147 159 162  68   0  15   0   0   0   0   0   0   0   0   0   0   0   0   0   0   0   0   0   0
  0   0   0   0
  0   0   0   0   0   0   0   0   0   0   0   0   0   0   0   0   0   0   0   0   0   0   0   0
  0   5   6   6   6   6   7  21  33  47  59  69  79  86  87  88  90  98 112 121 137 146 149 149
150 147 136 126 125 129 132 135 138 136 132 134 136 139 136 138 148 147 140 140 140 139 139 143
149 157 157  65   0  15   0   0   0   0   0   0   0   0   0   0   0   0   0   0   0   0   0   0
  0   0   0   0
  0   0   0   0   0   0   0   0   0   0   0   0   0   0   0   0   0   0   0   0   0   0   0   0
  0   5   6   6   6   5   8  28  42  51  63  75  83  86  83  84  84  92 114 126 140 148 154 149
149 146 133 125 127 122 133 141 140 139 136 133 135 137 147 153 143 137 136 143 142 136 143 147
148 157 153  59   0  13   0   0   0   0   0   0   0   0   0   0   0   0   0   0   0   0   0   0
  0   0   0   0
  0   0   0   0   0   0   0   0   0   0   0   0   0   0   0   0   0   0   0   0   0   0   0   0
  0   5   6   6   6   5  11  27  44  58  70  77  84  91  83  84  86  93 103 128 145 147 155 156
153 147 134 133 132 133 143 141 140 136 136 138 141 143 148 147 138 135 136 141 136 137 145 148
148 152 145  58   0  12   0   0   0   0   0   0   0   0   0   0   0   0   0   0   0   0   0   0
  0   0   0   0
  0   0   0   0   0   0   0   0   0   0   0   0   0   0   0   0   0   0   0   0   0   0   0   0
  0   5   6   6   6   5  12  26  41  57  70  75  79  91  90  88  94  98 120 138 147 155 150 154
158 150 142 139 133 136 144 138 133 134 139 145 144 137 135 138 135 140 143 141 143 148 149 151
149 150 147  60   0  13   0   0   0   0   0   0   0   0   0   0   0   0   0   0   0   0   0   0
  0   0   0   0
  0   0   0   0   0   0   0   0   0   0   0   0   0   0   0   0   0   0   0   0   0   0   0   0
  0   5   6   6   6   5  13  28  43  56  70  76  84  90  87  92  92 103 135 143 151 154 149 149
151 149 143 136 131 133 143 140 140 145 146 140 134 130 133 133 130 137 141 144 149 153 152 147
151 155 144  54   0  12   0   0   0   0   0   0   0   0   0   0   0   0   0   0   0   0   0   0
  0   0   0   0
  0   0   0   0   0   0   0   0   0   0   0   0   0   0   0   0   0   0   0   0   0   0   0   0
  0   5   6   6   6   6  14  28  44  57  70  76  82  94  93  92  96 122 141 142 147 151 149 146
148 148 142 142 139 137 145 150 151 144 142 136 130 132 135 129 137 138 139 148 147 147 144 144
149 148 141  57   0  12   0   0   0   0   0   0   0   0   0   0   0   0   0   0   0   0   0   0
  0   0   0   0
  0   0   0   0   0   0   0   0   0   0   0   0   0   0   0   0   0   0   0   0   0   0   0   0
  0   5   6   6   6   5  16  29  44  59  71  77  83  91 109 113 113 133 145 148 150 150 141 141
145 143 141 141 145 149 148 144 144 144 144 135 131 134 133 135 144 141 143 145 143 141 143 146
144 148 143  56   0  12   0   0   0   0   0   0   0   0   0   0   0   0   0   0   0   0   0   0
  0   0   0   0
  0   0   0   0   0   0   0   0   0   0   0   0   0   0   0   0   0   0   0   0   0   0   0   0
  0   5   6   6   6   6  16  29  43  60  70  77  87  91 106 111 104 122 141 142 142 141 135 139
141 139 144 151 153 149 141 136 140 148 143 136 135 132 133 140 141 142 140 141 145 144 150 149
147 151 143  55   0  11   0   0   0   0   0   0   0   0   0   0   0   0   0   0   0   0   0   0
  0   0   0   0
  0   0   0   0   0   0   0   0   0   0   0   0   0   0   0   0   0   0   0   0   0   0   0   0
  0   5   6   6   6   6  16  30  43  59  69  79  85  83  90  96 105 124 133 130 133 139 142 144
144 150 158 150 141 142 142 142 146 143 135 131 132 136 138 141 140 140 141 145 151 154 153 150
148 151 143  54   0  11   0   0   0   0   0   0   0   0   0   0   0   0   0   0   0   0   0   0
  0   0   0   0
  0   0   0   0   0   0   0   0   0   0   0   0   0   0   0   0   0   0   0   0   0   0   0   0
  0   5   6   6   6   6  17  30  42  57  68  78  84  83  88  98 116 135 128 122 132 140 143 151
153 154 144 132 136 137 137 146 146 136 128 123 130 145 144 138 137 144 148 148 153 157 155 147
143 148 142  53   0  11   0   0   0   0   0   0   0   0   0   0   0   0   0   0   0   0   0   0
  0   0   0   0
  0   0   0   0   0   0   0   0   0   0   0   0   0   0   0   0   0   0   0   0   0   0   0   0
  0   5   6   6   6   6  16  30  44  57  68  74  81  83  89  99 119 130 122 122 132 138 142 147
138 134 137 134 135 137 144 145 140 133 130 133 144 152 146 139 140 146 145 146 154 159 153 145
148 149 138  52   0  11   0   0   0   0   0   0   0   0   0   0   0   0   0   0   0   0   0   0
  0   0   0   0
  0   0   0   0   0   0   0   0   0   0   0   0   0   0   0   0   0   0   0   0   0   0   0   0
  0   5   6   6   6   6  16  27  42  60  74  79  84  87  94 101 116 120 121 128 130 142 145 131
126 135 139 131 126 139 151 150 144 139 144 148 147 145 142 139 141 140 142 151 161 156 150 146
142 144 137  52   0  11   0   0   0   0   0   0   0   0   0   0   0   0   0   0   0   0   0   0
  0   0   0   0
  0   0   0   0   0   0   0   0   0   0   0   0   0   0   0   0   0   0   0   0   0   0   0   0
  0   5   6   6   6   6  15  29  45  61  69  81  87  85  91 103 115 119 123 124 132 134 129 130
135 141 135 129 131 144 149 152 145 144 148 146 141 144 145 143 145 150 154 158 158 152 151 146
138 145 142  55   0  11   0   0   0   0   0   0   0   0   0   0   0   0   0   0   0   0   0   0
  0   0   0   0
  0   0   0   0   0   0   0   0   0   0   0   0   0   0   0   0   0   0   0   0   0   0   0   0
  0   5   6   6   6   5  13  31  47  54  60  72  85  81  88 107 117 119 119 128 126 118 117 124
127 133 134 138 145 145 147 150 150 150 146 147 142 140 146 146 150 155 155 152 153 156 160 148
140 148 146  56   0  12   0   0   0   0   0   0   0   0   0   0   0   0   0   0   0   0   0   0
  0   0   0   0
  0   0   0   0   0   0   0   0   0   0   0   0   0   0   0   0   0   0   0   0   0   0   0   0
  0   5   6   6   6   5  12  32  42  49  59  71  86  84  96 115 116 114 119 113 112 115 118 127
127 126 126 128 132 136 135 141 146 142 140 145 144 146 147 149 152 152 149 151 158 166 159 149
149 158 148  54   0  12   0   0   0   0   0   0   0   0   0   0   0   0   0   0   0   0   0   0
  0   0   0   0
  0   0   0   0   0   0   0   0   0   0   0   0   0   0   0   0   0   0   0   0   0   0   0   0
  0   5   6   6   6   5  12  30  39  48  59  69  87  93 108 117 111 119 116 106 118 130 137 138
133 132 123 125 129 132 135 137 135 140 142 149 151 148 146 148 150 145 149 157 161 159 151 148
152 152 142  54   0  11   0   0   0   0   0   0   0   0   0   0   0   0   0   0   0   0   0   0
  0   0   0   0
  0   0   0   0   0   0   0   0   0   0   0   0   0   0   0   0   0   0   0   0   0   0   0   0
  0   5   6   6   6   4  12  25  35  47  59  68  88 101 105 108 122 128 114 112 123 131 123 115
122 125 121 133 136 136 137 134 139 146 151 154 151 147 149 150 151 152 153 151 155 151 145 147
144 139 136  54   0  11   0   0   0   0   0   0   0   0   0   0   0   0   0   0   0   0   0   0
  0   0   0   0
  0   0   0   0   0   0   0   0   0   0   0   0   0   0   0   0   0   0   0   0   0   0   0   0
  0   5   6   6   6   5   9  23  29  42  56  65  82  99 103 116 130 123 112 109 111 112 109 113
114 108 113 131 137 135 131 129 137 148 152 147 148 150 153 155 155 157 155 158 156 146 150 153
144 146 148  61   0  13   0   0   0   0   0   0   0   0   0   0   0   0   0   0   0   0   0   0
  0   0   0   0
  0   0   0   0   0   0   0   0   0   0   0   0   0   0   0   0   0   0   0   0   0   0   0   0
  0   5   6   6   6   6   5  19  30  39  52  67  77  97 119 118 107 102 106 111 109 108 112 111
116 114 123 135 138 135 134 133 131 139 141 144 149 149 153 160 161 168 169 165 154 151 159 151
148 160 152  58   0  13   0   0   0   0   0   0   0   0   0   0   0   0   0   0   0   0   0   0
  0   0   0   0
  0   0   0   0   0   0   0   0   0   0   0   0   0   0   0   0   0   0   0   0   0   0   0   0
  0   5   6   5   6   6   5  13  25  40  50  64  74  91 102  87  92  97 105 111 107 112 112 107
119 126 133 137 129 128 134 128 127 137 145 149 150 148 156 168 163 164 165 155 153 155 152 148
151 149 133  52   0  10   0   0   0   0   0   0   0   0   0   0   0   0   0   0   0   0   0   0
  0   0   0   0
  0   0   0   0   0   0   0   0   0   0   0   0   0   0   0   0   0   0   0   0   0   0   0   0
  0   5   6   5   5   6   5   9  18  30  41  52  63  76  83  83  93 100 107 114 119 119 111 113
128 133 130 129 126 133 133 126 131 143 152 156 157 157 167 160 151 154 154 149 149 142 142 150
145 137 136  54   0  11   0   0   0   0   0   0   0   0   0   0   0   0   0   0   0   0   0   0
  0   0   0   0
  0   0   0   0   0   0   0   0   0   0   0   0   0   0   0   0   0   0   0   0   0   0   0   0
  0   5   6   5   6   5   5   6  15  25  37  47  54  69  79  85  94 105 114 121 123 119 124 128
134 131 122 122 129 138 130 131 139 148 151 143 151 161 151 141 151 153 150 148 144 140 143 143
141 144 138  52   0  11   0   0   0   0   0   0   0   0   0   0   0   0   0   0   0   0   0   0
  0   0   0   0
  0   0   0   0   0   0   0   0   0   0   0   0   0   0   0   0   0   0   0   0   0   0   0   0
  0   5   6   5   6   6   6   5  11  22  30  42  53  67  78  86  94 100 113 127 128 132 128 124
122 123 123 128 132 135 134 133 141 148 140 138 152 150 139 138 150 155 153 153 148 143 142 144
146 146 136  51   0  10   0   0   0   0   0   0   0   0   0   0   0   0   0   0   0   0   0   0
  0   0   0   0
  0   0   0   0   0   0   0   0   0   0   0   0   0   0   0   0   0   0   0   0   0   0   0   0
  0   5   6   5   6   6   6   5   7  17  24  36  46  61  77  95 103 107 128 136 136 127 121 125
122 122 124 127 128 131 138 143 148 142 138 150 152 144 147 149 152 156 159 157 146 142 146 147
145 146 139  53   0  11   0   0   0   0   0   0   0   0   0   0   0   0   0   0   0   0   0   0
  0   0   0   0
  0   0   0   0   0   0   0   0   0   0   0   0   0   0   0   0   0   0   0   0   0   0   0   0
  0   5   6   5   6   6   6   6   5  11  22  27  37  53  81 100 111 125 130 124 124 124 131 130
124 126 132 133 134 139 148 153 145 138 137 145 148 150 149 149 149 154 158 148 141 141 145 149
145 147 144  55   0  12   0   0   0   0   0   0   0   0   0   0   0   0   0   0   0   0   0   0
  0   0   0   0
  0   0   0   0   0   0   0   0   0   0   0   0   0   0   0   0   0   0   0   0   0   0   0   0
  0   5   6   5   6   5   6   6   6   4  20  33  33  53  81  91 101 116 113 111 119 119 125 132
132 134 148 153 152 154 153 148 147 144 142 146 149 148 147 149 149 156 155 141 137 139 139 140
140 141 137  53   0  11   0   0   0   0   0   0   0   0   0   0   0   0   0   0   0   0   0   0
  0   0   0   0
  0   0   0   0   0   0   0   0   0   0   0   0   0   0   0   0   0   0   0   0   0   0   0   0
  0   5   6   6   6   6   5   5   6   5   7  41  52  44  62  76  84  98 114 119 125 121 131 141
140 140 146 149 153 153 147 143 149 154 157 152 151 155 155 155 162 162 149 138 134 132 135 138
127 133 136  55   0  11   0   0   0   0   0   0   0   0   0   0   0   0   0   0   0   0   0   0
  0   0   0   0
  0   0   0   0   0   0   0   0   0   0   0   0   0   0   0   0   0   0   0   0   0   0   0   0
  0   5   6   6   6   6   6   6   5   6   4  20  57  63  54  68  74  85 109 129 132 132 129 128
128 130 132 131 129 125 129 133 134 135 139 141 150 156 151 152 163 159 147 136 133 130 136 136
127 139 144  57   0  12   0   0   0   0   0   0   0   0   0   0   0   0   0   0   0   0   0   0
  0   0   0   0
  0   0   0   0   0   0   0   0   0   0   0   0   0   0   0   0   0   0   0   0   0   0   0   0
  0   5   6   6   6   6   6   6   5   5   8   3  27  68  71  65  75  86  99 123 129 126 127 127
132 137 135 123 117 119 119 119 123 126 131 139 151 153 155 154 149 145 140 136 132 133 138 136
135 141 142  54   0  11   0   0   0   0   0   0   0   0   0   0   0   0   0   0   0   0   0   0
  0   0   0   0
  0   0   0   0   0   0   0   0   0   0   0   0   0   0   0   0   0   0   0   0   0   0   0   0
  0   5   6   6   6   6   6   6   6   5   5   9   1  35  61  55  56  69  78  99 120 119 124 125
121 125 126 123 119 115 120 126 130 132 135 143 152 161 157 148 143 138 134 131 132 139 137 128
129 143 141  52   0  11   0   0   0   0   0   0   0   0   0   0   0   0   0   0   0   0   0   0
  0   0   0   0
  0   0   0   0   0   0   0   0   0   0   0   0   0   0   0   0   0   0   0   0   0   0   0   0
  0   5   6   6   6   6   6   6   6   6   5   5   9   2  29  38  30  39  54  66  87  98 107 115
116 116 118 127 129 123 126 133 132 129 134 145 153 157 146 141 137 137 133 130 137 142 137 131
136 147 142  56   0  12   0   0   0   0   0   0   0   0   0   0   0   0   0   0   0   0   0   0
  0   0   0   0
  0   0   0   0   0   0   0   0   0   0   0   0   0   0   0   0   0   0   0   0   0   0   0   0
  0   5   6   6   6   6   6   6   6   6   6   5   5   7   4  13  20  26  36  42  59  78  90 100
116 123 129 131 130 135 139 137 138 142 146 146 146 144 133 136 138 136 127 130 140 139 133 135
143 152 150  59   0  13   0   0   0   0   0   0   0   0   0   0   0   0   0   0   0   0   0   0
  0   0   0   0
  0   0   0   0   0   0   0   0   0   0   0   0   0   0   0   0   0   0   0   0   0   0   0   0
  0   5   7   6   6   6   6   6   6   6   6   6   5   6   6   4  14  22  28  38  53  71  86 101
116 120 123 127 126 130 141 142 143 143 137 136 139 133 127 134 129 125 127 135 138 134 137 137
142 151 144  53   0  11   0   0   0   0   0   0   0   0   0   0   0   0   0   0   0   0   0   0
  0   0   0   0
  0   0   0   0   0   0   0   0   0   0   0   0   0   0   0   0   0   0   0   0   0   0   0   0
  0   5   6   6   6   6   6   6   6   6   6   6   6   5   6   6   7  17  22  32  45  67  80  91
100 101 100 107 114 111 118 121 116 121 123 125 123 120 119 117 116 119 131 138 136 131 135 137
137 145 141  55   0  11   0   0   0   0   0   0   0   0   0   0   0   0   0   0   0   0   0   0
  0   0   0   0
  0   0   0   0   0   0   0   0   0   0   0   0   0   0   0   0   0   0   0   0   0   0   0   0
  0   5   7   6   7   7   6   6   6   6   6   6   6   6   6   6   5   9  19  27  36  47  58  73
 84  91  94  99  99  96  98 102 107 112 116 117 115 109 109 111 116 125 133 142 138 128 131 134
139 153 149  57   0  12   0   0   0   0   0   0   0   0   0   0   0   0   0   0   0   0   0   0
  0   0   0   0
  0   0   0   0   0   0   0   0   0   0   0   0   0   0   0   0   0   0   0   0   0   0   0   0
  0   5   7   6   7   7   6   6   6   6   6   6   6   6   6   6   6   5  12  24  28  35  47  60
 71  80  86  92  92  92  95  97 105 107 113 114 106 111 114 110 110 115 121 134 141 133 131 135
142 154 149  56   0  12   0   0   0   0   0   0   0   0   0   0   0   0   0   0   0   0   0   0
  0   0   0   0
  0   0   0   0   0   0   0   0   0   0   0   0   0   0   0   0   0   0   0   0   0   0   0   0
  0   5   7   7   7   7   6   6   6   6   6   6   6   6   6   6   6   6   5  14  25  29  38  50
 61  71  80  87  87  90  95  94  94  99 104 100 103 107 104 107 105 106 112 123 132 123 125 135
133 151 148  53   0  12   0   0   0   0   0   0   0   0   0   0   0   0   0   0   0   0   0   0
  0   0   0   0
  0   0   0   0   0   0   0   0   0   0   0   0   0   0   0   0   0   0   0   0   0   0   0   0
  0   5   7   7   7   7   6   6   6   6   6   6   6   6   6   6   6   6   6   5  14  25  31  38
 50  60  71  81  84  88  88  88  90  92  93 101 105  98 105 107 100 107 117 119 122 128 133 126
130 144 136  49   0  10   0   0   0   0   0   0   0   0   0   0   0   0   0   0   0   0   0   0
  0   0   0   0
  0   0   0   0   0   0   0   0   0   0   0   0   0   0   0   0   0   0   0   0   0   0   0   0
  0   6   7   7   7   7   6   6   6   6   6   6   6   6   6   6   6   6   6   6   5  13  25  32
 40  50  61  71  74  77  80  84  85  87  93 101  97  99 104  97  97 102 108 109 111 119 122 120
121 136 133  46   0   9   0   0   0   0   0   0   0   0   0   0   0   0   0   0   0   0   0   0
  0   0   0   0
  0   0   0   0   0   0   0   0   0   0   0   0   0   0   0   0   0   0   0   0   0   0   0   0
  0   6   7   7   7   7   7   7   6   6   6   6   6   6   6   6   6   6   6   6   6   5  10  22
 32  40  48  56  62  70  77  83  82  82  87  88  92  98  93  94  96  93  98 102 103 100 103 111
113 128 131  46   0   9   0   0   0   0   0   0   0   0   0   0   0   0   0   0   0   0   0   0
  0   0   0   0
  0   0   0   0   0   0   0   0   0   0   0   0   0   0   0   0   0   0   0   0   0   0   0   0
  0   6   7   7   7   7   7   7   7   7   6   6   6   6   6   6   6   6   6   6   6   6   6   8
 18  29  35  41  50  57  63  67  71  75  77  81  87  86  86  88  84  87  91  91  93  94  97 101
107 116 116  44   0   8   0   0   0   0   0   0   0   0   0   0   0   0   0   0   0   0   0   0
  0   0   0   0
  0   0   0   0   0   0   0   0   0   0   0   0   0   0   0   0   0   0   0   0   0   0   0   0
  0   6   8   7   7   7   7   7   7   7   7   7   7   7   6   6   7   6   6   6   6   6   6   6
  7  16  26  32  35  43  51  55  61  66  68  69  70  68  72  75  76  79  81  86  86  89  91  91
 95 105 105  40   0   6   0   0   0   0   0   0   0   0   0   0   0   0   0   0   0   0   0   0
  0   0   0   0
  0   0   0   0   0   0   0   0   0   0   0   0   0   0   0   0   0   0   0   0   0   0   0   0
  0   6   8   8   8   7   7   7   7   7   7   7   7   7   7   7   7   7   7   7   6   6   6   6
  6   5  11  20  25  29  35  40  45  48  51  53  52  52  56  60  64  66  69  77  81  82  81  85
 89 100 100  38   0   6   0   0   0   0   0   0   0   0   0   0   0   0   0   0   0   0   0   0
  0   0   0   0
  0   0   0   0   0   0   0   0   0   0   0   0   0   0   0   0   0   0   0   0   0   0   0   0
  0   6   8   8   8   8   7   7   7   7   7   7   7   7   7   7   7   7   7   7   6   6   6   6
  7   7   5   5  11  17  20  24  27  30  34  38  41  41  42  46  54  59  61  65  71  74  74  75
 81  90  97  39   0   6   0   0   0   0   0   0   0   0   0   0   0   0   0   0   0   0   0   0
  0   0   0   0
  0   0   0   0   0   0   0   0   0   0   0   0   0   0   0   0   0   0   0   0   0   0   0   0
  0   7   8   8   8   8   8   8   8   8   8   7   7   7   7   7   7   7   7   7   7   7   7   7
  7   7   7   7   6   6   8  12  15  18  21  23  26  28  30  34  39  46  52  57  63  69  69  73
 77  86  95  36   0   5   0   0   0   0   0   0   0   0   0   0   0   0   0   0   0   0   0   0
  0   0   0   0
  0   0   0   0   0   0   0   0   0   0   0   0   0   0   0   0   0   0   0   0   0   0   0   0
  0   7   8   8   8   8   8   8   8   8   8   8   7   7   7   7   7   7   7   7   7   7   7   7
  7   7   7   7   8   8   7   7   8  10  13  18  20  22  24  26  29  33  39  43  53  60  65  71
 73  82  86  32   0   4   0   0   0   0   0   0   0   0   0   0   0   0   0   0   0   0   0   0
  0   0   0   0
  0   0   0   0   0   0   0   0   0   0   0   0   0   0   0   0   0   0   0   0   0   0   0   0
  0   7   8   8   8   8   8   8   8   8   8   7   7   8   7   7   7   7   7   7   7   7   7   7
  7   7   7   7   7   8   8   8   7   7   7   8  11  15  18  20  23  26  30  35  40  46  51  57
 62  71  75  31   0   3   0   0   0   0   0   0   0   0   0   0   0   0   0   0   0   0   0   0
  0   0   0   0
  0   0   0   0   0   0   0   0   0   0   0   0   0   0   0   0   0   0   0   0   0   0   0   0
  0   7   9   8   8   8   8   8   8   8   8   9   9   8   8   8   8   7   7   7   7   8   7   7
  8   8   7   7   7   8   8   8   8   8   7   7   7   8  10  13  17  19  22  26  30  36  41  46
 55  64  71  30   0   3   0   0   0   0   0   0   0   0   0   0   0   0   0   0   0   0   0   0
  0   0   0   0
  0   0   0   0   0   0   0   0   0   0   0   0   0   0   0   0   0   0   0   0   0   0   0   0
  0   7   9   8   8   8   8   8   8   8   8   9  10   8   8   8   8   8   8   8   8   8   8   8
  8   8   8   8   8   8   8   8   8   7   7   7   7   7   6   6   8  11  15  17  21  24  28  38
 47  52  63  27   0   3   0   0   0   1   1   1   1   1   1   1   1   1   1   1   1   1   1   1
  1   1   1   1
  0   0   0   0   0   0   0   0   0   0   0   0   0   0   0   0   0   0   0   0   0   0   0   0
  0   7   9   9   9   9   9   9   9   9   9   8   8   9   8   8   8   8   8   8   8   8   8   8
  8   8   8   8   8   8   8   9   9   8   8   8   8   8   8   8   7   7  10  11  15  18  21  29
 39  46  62  30   0   3   0   0   0   0   0   0   0   0   0   0   0   0   0   0   0   0   0   0
  0   0   0   0
  0   0   0   0   0   0   0   0   0   0   0   0   0   0   0   0   0   0   0   0   0   0   0   0
  0   7   9   9   9   9   8   9   9   9   9   9   9   9   9   9   9   8   8   8   8   9   9   9
  9   9   9   9   9   9   8   8   8   8   8   8   8   8   8   8   8   8   8   8   9  11  14  20
 28  40  62  30   0   3   0   0   0   0   0   0   0   0   0   0   0   0   0   0   0   0   0   0
  0   0   0   0
  0   0   0   0   0   0   0   0   0   0   0   0   0   0   0   0   0   0   0   0   0   0   0   0
  0   7   9   9   9   9   9   9   9   9   9   9   9   9   9   9   9   9   9   9   9   9   9   9
  9   9   9   9   8   8   8   8   8   8   8   8   8   9   8   8   8   8   8   8   9   9   9  11
 17  27  60  34   0   3   0   0   0   0   0   0   0   0   0   0   0   0   0   0   0   0   0   0
  0   0   0   0
