P2
# 8-bit pgm gray
100 100
255
  0   0   0   0   0   0   0   0   0   0   0   0   0   0   0   8   8   0 182 222 201 221 218 213
173  93  89  89  88  88  86  86  86  85  84  83  81  81  78  78  78  78  81  81  83  85  90  97
104 114 116 118 122 124 123 126 133 135 136 149 172 186 197 204 207 209 210 211 211 211 210 211
219 224 222 208 205 204 198 195 207 181   0   0  11   0   0   0   0   0   0   0   0   0   0   0
  0   0   0   0
  0   0   0   0   0   0   0   0   0   0   0   0   0   0   0  10  13   0 204 238 204 246 243 238
193   0   0   0   0   0   0   0   0   0   0   0   0   0   0   0   0  12  37  55  68  79  89  99
109 118 122 125 128 133 134 143 145 143 146 154 182 199 211 222 227 229 231 232 232 231 231 231
229 227 226 227 227 227 223 213 221 193   0   0  12   0   0   0   0   0   0   0   0   0   0   0
  0   0   0   0
  0   0   0   0   0   0   0   0   0   0   0   0   0   0   0   9  14   0 202 236 199 240 237 234
191  48   0  31  24  24  24  23  24  23  23  22  23  26  28  32  38  46  55  65  72  80  88  99
107 112 116 120 126 130 138 139 137 139 141 143 164 186 199 212 218 222 224 225 225 224 225 226
227 226 225 223 221 220 217 209 210 177   0   0  10   0   0   0   0   0   0   0   0   0   0   0
  0   0   0   0
  0   0   0   0   0   0   0   0   0   0   0   0   0   0   0   9   1   0 189 205 201 243 238 236
192  38   0  15   0   0   1   1   1   1   1   0   4  10  16  23  32  41  52  63  72  80  89 100
109 113 118 121 125 137 140 134 138 139 142 144 157 183 198 208 217 222 225 226 225 226 226 226
228 226 225 226 223 220 219 214 214 180   0   0  10   0   0   0   0   0   0   0   0   0   0   0
  0   0   0   0
  0   0   0   0   0   0   0   0   0   0   0   0   0   0   0  10   0   0 190 231 232 242 240 236
192  37   0  16   2   3   3   3   3   3   2   6  12  13  19  25  34  44  53  63  72  81  88 100
112 115 117 123 131 137 133 134 137 139 141 143 153 177 194 203 212 219 222 224 225 226 225 226
228 227 225 225 225 221 219 216 218 184   0   0  11   0   0   0   0   0   0   0   0   0   0   0
  0   0   0   0
  0   0   0   0   0   0   0   0   0   0   0   0   0   0   0   9  11   0 194 249 240 238 234 236
190  35   0  16   2   3   3   3   3   3   2   6  13  14  21  27  36  45  54  64  72  84  97 108
114 115 118 128 132 131 135 136 137 140 141 144 148 166 188 198 208 216 220 223 224 226 226 227
227 227 226 223 224 223 219 217 223 187   0   0  11   0   0   0   0   0   0   0   0   0   0   0
  0   0   0   0
  0   0   0   0   0   0   0   0   0   0   0   0   0   0   0   4  22   0 171 194 202 189 199 239
185  32   0  15   2   3   3   3   3   3   2   5  11  16  23  29  37  46  55  65  74  83  96 107
109 114 122 126 124 129 133 136 139 141 143 146 149 157 182 197 204 211 218 221 224 226 227 226
226 226 226 223 223 224 221 219 224 189   0   0  11   0   0   0   0   0   0   0   0   0   0   0
  0   0   0   0
  0   0   0   0   0   0   0   0   0   0   0   0   0   0   0   4  22   0 165 198 147 146 202 236
181  25   0  14   2   3   3   2   3   3   3   8  13  17  24  32  40  48  58  67  77  87  97 104
107 116 123 122 126 130 134 138 140 142 143 146 151 153 171 189 198 207 215 219 223 226 225 224
225 226 225 225 223 225 223 219 225 190   0   0  12   0   0   0   0   0   0   0   0   0   0   0
  0   0   0   0
  0   0   0   0   0   0   0   0   0   0   0   0   0   0   0   4  19   0 161 210 186 185 207 235
179  15   0  13   2   3   3   3   3   2   4  10  14  19  25  34  42  51  62  72  84  94 100 103
111 121 121 124 128 130 133 136 140 145 143 143 147 147 158 182 195 205 210 215 220 223 224 223
224 226 226 226 224 223 224 220 227 193   0   0  12   0   0   0   0   0   0   0   0   0   0   0
  0   0   0   0
  0   0   0   0   0   0   0   0   0   0   0   0   0   0   0   7  14   0 181 230 236 230 221 233
177   0   0  12   2   3   3   3   3   2   5  11  16  21  28  37  45  55  65  75  84  98 105 104
116 118 118 126 130 129 132 136 138 141 142 143 146 149 152 172 189 198 205 212 217 221 223 224
223 225 228 226 224 223 223 221 227 195   0   0  12   0   0   0   0   0   0   0   0   0   0   0
  0   0   0   0
  0   0   0   0   0   0   0   0   0   0   0   0   0   0   0  10   7   0 194 248 236 238 235 227
172   0   0  11   2   3   3   3   3   3   8  13  17  24  31  39  49  59  68  78  84  96 104 110
115 115 121 130 134 133 134 135 136 137 139 141 144 148 148 158 181 191 200 208 215 219 222 224
223 222 227 228 225 223 222 221 228 195   0   0  12   0   0   0   0   0   0   0   0   0   0   0
  0   0   0   0
  0   0   0   0   0   0   0   0   0   0   0   0   0   0   0   9   8   0 191 244 235 235 229 220
162   0   0  10   3   3   3   3   3   4  10  15  20  27  35  46  52  61  71  80  89  96 105 113
114 118 125 131 132 132 134 134 134 137 139 141 145 147 146 148 169 186 196 206 212 216 219 221
223 223 224 228 226 223 222 220 230 196   0   0  12   0   0   0   0   0   0   0   0   0   0   0
  0   0   0   0
  0   0   0   0   0   0   0   0   0   0   0   0   0   0   0   4   4   0 139 180 174 173 167 158
113   0   3   6   3   3   3   3   3   6  12  16  23  30  38  48  55  65  73  82  91 102 110 111
117 124 125 129 130 132 135 135 135 138 140 142 144 146 146 146 159 182 194 204 209 212 216 219
222 223 222 226 227 225 223 220 228 197   0   0  13   0   0   0   0   0   0   0   0   0   0   0
  0   0   0   0
  0   0   0   0   0   0   0   0   0   0   0   0   0   0   0   0   0   4   0   0   0   0   0   0
  0   3   3   3   3   3   3   3   3   8  13  18  25  32  40  49  59  68  78  85  93 104 110 114
120 124 124 131 132 134 133 135 136 138 140 141 141 144 146 146 152 175 191 197 206 211 213 216
221 223 222 223 227 225 223 219 227 196   0   0  13   0   0   0   0   0   0   0   0   0   0   0
  0   0   0   0
  0   0   0   0   0   0   0   0   0   0   0   0   0   0   0   0   0   0   4   5   2   2   2   3
  4   3   3   3   3   3   3   3   4  11  15  20  27  35  43  53  62  72  80  87  97 106 114 118
121 124 127 130 132 132 133 135 138 141 141 141 143 144 143 146 147 165 184 190 198 207 212 215
219 222 223 222 224 226 224 220 228 196   0   0  12   0   0   0   0   0   0   0   0   0   0   0
  0   0   0   0
  0   0   0   0   0   0   0   0   0   0   0   0   0   0   0   0   0   0   9  15  14  14  13  12
  7   3   3   3   3   3   3   2   6  13  17  23  31  38  47  57  67  75  84  95 102 109 118 119
123 125 128 132 131 132 134 136 142 144 143 144 144 144 144 147 148 152 174 188 193 202 210 215
217 220 223 222 222 224 226 222 229 196   0   0  12   0   0   0   0   0   0   0   0   0   0   0
  0   0   0   0
  0   0   0   0   0   0   0   0   0   0   0   0   0   0   0   0   0   0   1   2   2   2   2   2
  2   3   3   3   3   3   3   3   9  14  19  26  34  43  52  63  72  80  91  99 104 111 119 122
125 128 130 132 132 133 134 138 141 144 145 145 148 150 150 148 148 145 164 186 192 199 206 210
214 218 221 222 220 223 225 223 229 195   0   0  12   0   0   0   0   0   0   0   0   0   0   0
  0   0   0   0
  0   0   0   0   0   0   0   0   0   0   0   0   0   0   0   0   0   0   2   4   3   3   3   3
  3   3   3   3   3   3   2   4  11  15  21  28  37  47  57  66  76  86  96  99 105 114 121 124
128 129 132 133 130 131 134 139 147 152 152 158 166 168 164 152 146 146 155 178 189 194 202 207
212 215 218 221 221 223 224 224 231 197   0   0  12   0   0   0   0   0   0   0   0   0   0   0
  0   0   0   0
  0   0   0   0   0   0   0   0   0   0   0   0   0   0   0   0   0   0   2   4   3   3   3   3
  3   3   3   3   3   3   2   6  13  17  24  32  41  51  61  70  79  90  96  99 107 115 120 124
128 129 132 136 139 142 142 153 166 164 162 176 184 181 168 154 146 145 148 167 188 193 200 204
208 212 215 219 220 221 223 223 232 199   0   0  13   0   0   0   0   0   0   0   0   0   0   0
  0   0   0   0
  0   0   0   0   0   0   0   0   0   0   0   0   0   0   0   0   0   0   2   4   4   4   4   3
  3   3   3   3   3   3   3   9  14  19  27  35  44  53  64  74  84  93  97 104 110 115 121 129
136 148 155 158 162 162 153 159 175 180 173 174 177 176 164 154 151 152 149 160 183 191 195 201
204 209 214 217 220 220 222 222 232 200   0   0  13   0   0   0   0   0   0   0   0   0   0   0
  0   0   0   0
  0   0   0   0   0   0   0   0   0   0   0   0   0   0   0   0   0   0   2   4   4   4   4   3
  3   3   3   3   3   3   5  11  15  21  29  39  48  58  68  80  90  96 104 110 113 120 138 150
149 162 165 165 162 158 150 152 159 167 164 165 163 163 162 161 160 159 157 154 168 185 191 198
204 206 211 217 218 219 221 221 231 199   0   0  13   0   0   0   0   0   0   0   0   0   0   0
  0   0   0   0
  0   0   0   0   0   0   0   0   0   0   0   0   0   0   0   0   0   0   2   4   0   3   4   3
  3   3   3   3   3   2   7  12  17  24  32  42  54  65  77  86  94 101 111 115 119 137 159 158
157 157 157 160 150 148 151 161 153 157 167 168 168 169 171 170 163 156 154 152 157 179 189 196
202 204 207 214 216 219 219 220 230 197   0   0  13   0   0   0   0   0   0   0   0   0   0   0
  0   0   0   0
  0   0   0   0   0   0   0   0   0   0   0   0   0   0   0   0   0   0   1   3  45  21   0   4
  3   3   3   3   3   3   9  14  20  28  37  47  57  69  79  89  96 102 110 115 127 143 159 160
150 149 154 154 150 150 161 167 160 155 166 176 175 169 164 158 158 153 151 158 158 170 184 192
198 201 204 211 216 217 219 219 229 196   0   0  12   0   0   0   0   0   0   0   0   0   0   0
  0   0   0   0
  0   0   0   0   0   0   0   0   0   0   0   0   0   0   0   0   0   3   0  17  65  23   0   5
  3   3   3   3   3   5  11  16  22  30  40  51  61  72  85  96  99 106 112 126 142 148 173 161
152 171 166 156 150 150 164 166 170 178 171 179 179 165 159 157 158 161 168 163 155 161 178 187
194 200 203 207 213 215 217 216 227 196   0   0  12   0   0   0   0   0   0   0   0   0   0   0
  0   0   0   0
  0   0   0   0   0   0   0   0   0   0   0   0   0   0   0   0   0   5   0  33  61   3   0   5
  3   3   3   3   3   7  13  17  25  34  44  54  66  77  93  99 103 112 119 139 158 160 167 166
172 168 174 165 151 158 169 170 169 172 171 183 180 165 169 173 168 170 175 163 149 152 167 180
190 197 200 206 209 213 215 215 227 196   0   0  12   0   0   0   0   0   0   0   0   0   0   0
  0   0   0   0
  0   0   0   0   0   0   0   0   0   0   0   0   0   0   0   0   0   2   0  22  34   1   3   4
  3   3   3   3   3   9  14  20  28  37  48  58  70  83  96 101 110 122 129 151 169 166 160 172
173 175 184 180 173 183 186 180 170 161 163 174 174 170 177 179 170 164 164 166 155 150 163 175
186 193 198 204 206 211 215 215 225 196   0   0  13   0   0   0   0   0   0   0   0   0   0   0
  0   0   0   0
  0   0   0   0   0   0   0   0   0   0   0   0   0   0   0   0   0   0   4   0   0   5   3   3
  3   3   3   3   5  11  16  23  31  41  52  64  74  87  99 104 116 126 134 155 165 163 166 172
176 187 185 181 180 186 191 186 174 173 172 170 174 175 164 154 161 161 161 165 159 156 165 171
182 191 196 201 206 208 213 214 224 195   0   0  13   0   0   0   0   0   0   0   0   0   0   0
  0   0   0   0
  0   0   0   0   0   0   0   0   0   0   0   0   0   0   0   0   0   0   2   5   6   3   3   3
  3   3   3   2   6  13  18  25  34  45  56  68  79  92 101 113 123 133 143 156 158 164 179 179
172 175 182 180 180 181 177 181 190 183 165 162 165 162 154 155 160 166 160 154 157 162 165 169
179 190 194 199 205 205 210 213 224 194   0   0  12   0   0   0   0   0   0   0   0   0   0   0
  0   0   0   0
  0   0   0   0   0   0   0   0   0   0   0   0   0   0   0   0   0   0   3   4   3   3   3   3
  3   3   3   3   9  14  20  29  38  49  60  72  84  95 112 122 133 143 142 153 160 171 179 175
171 179 185 188 188 180 167 173 183 172 152 152 160 160 159 159 157 166 164 157 157 161 167 163
173 185 194 199 201 204 207 211 222 193   0   0  12   0   0   0   0   0   0   0   0   0   0   0
  0   0   0   0
  0   0   0   0   0   0   0   0   0   0   0   0   0   0   0   0   0   0   2   3   3   3   3   3
  3   3   3   4  11  16  23  31  42  54  65  77  88 100 120 123 132 136 140 148 157 166 171 170
174 178 183 188 189 178 173 174 170 166 163 155 153 158 152 158 161 163 167 165 164 163 162 157
166 179 191 197 197 202 204 208 221 192   0   0  12   0   0   0   0   0   0   0   0   0   0   0
  0   0   0   0
  0   0   0   0   0   0   0   0   0   0   0   0   0   0   0   0   0   0   2   3   3   3   3   3
  3   3   3   6  13  18  25  34  46  58  70  83  93 105 119 129 132 138 141 143 153 162 159 167
169 180 191 191 190 178 175 178 173 169 164 157 163 161 157 178 178 163 162 172 174 163 158 158
162 175 184 192 194 198 202 205 219 191   0   0  12   0   0   0   0   0   0   0   0   0   0   0
  0   0   0   0
  0   0   0   0   0   0   0   0   0   0   0   0   0   0   0   0   0   0   2   4   3   3   3   3
  3   3   3   8  14  20  28  38  49  62  76  90 100 114 128 141 141 144 144 147 155 160 162 170
171 180 185 184 178 173 173 172 176 177 163 157 162 161 162 165 164 165 168 175 175 160 156 160
160 170 177 187 193 197 201 201 217 190   0   0  12   0   0   0   0   0   0   0   0   0   0   0
  0   0   0   0
  0   0   0   0   0   0   0   0   0   0   0   0   0   0   0   0   0   0   2   3   3   3   3   3
  3   3   4  10  16  22  31  41  53  68  82  91 112 125 126 136 143 145 149 162 171 174 168 167
172 174 173 170 171 169 159 163 174 176 170 159 162 158 157 161 154 160 171 174 178 168 166 165
156 162 175 188 195 196 199 201 216 188   0   0  12   0   0   0   0   0   0   0   0   0   0   0
  0   0   0   0
  0   0   0   0   0   0   0   0   0   0   0   0   0   0   0   0   0   0   2   4   3   3   3   3
  3   3   5  12  18  25  34  46  58  70  83  93 117 126 122 126 132 142 149 163 177 184 176 168
165 161 162 168 171 164 157 169 173 178 176 168 165 159 163 172 165 157 164 166 165 163 169 172
154 156 175 184 191 194 199 202 213 187   0   0  12   0   0   0   0   0   0   0   0   0   0   0
  0   0   0   0
  0   0   0   0   0   0   0   0   0   0   0   0   0   0   0   0   0   0   2   4   3   3   3   3
  3   3   7  14  19  28  38  49  61  76  86  99 116 123 126 125 129 141 149 159 166 169 174 172
158 149 155 161 168 168 164 174 179 184 183 175 173 171 167 168 176 169 165 159 152 153 160 163
156 155 169 177 185 194 196 199 211 184   0   0  11   0   0   0   0   0   0   0   0   0   0   0
  0   0   0   0
  0   0   0   0   0   0   0   0   0   0   0   0   0   0   0   0   0   0   2   4   3   3   3   3
  3   3   9  15  21  31  41  52  64  78  89 106 119 125 131 127 132 137 149 151 163 165 169 169
154 156 164 167 175 172 171 177 185 182 176 174 170 171 166 163 174 177 175 165 157 163 164 156
151 148 162 171 182 191 192 197 210 183   0   0  11   0   0   0   0   0   0   0   0   0   0   0
  0   0   0   0
  0   0   0   0   0   0   0   0   0   0   0   0   0   0   0   0   0   0   2   3   3   3   3   3
  3   4  10  16  24  33  44  56  69  82  96 112 121 128 139 133 136 140 148 158 164 153 163 162
149 152 163 175 178 171 177 177 183 178 176 172 160 166 168 165 173 175 178 175 162 160 164 153
143 141 154 171 178 187 193 197 211 181   0   0  11   0   0   0   0   0   0   0   0   0   0   0
  0   0   0   0
  0   0   0   0   0   0   0   0   0   0   0   0   0   0   0   0   0   0   2   3   3   3   3   3
  2   5  12  17  25  35  47  59  71  92 108 115 126 137 147 135 146 154 143 152 154 148 150 143
144 147 156 165 171 169 166 169 176 171 171 166 162 172 170 161 170 175 167 159 155 154 155 148
143 144 149 165 173 184 193 195 209 180   0   0  11   0   0   0   0   0   0   0   0   0   0   0
  0   0   0   0
  0   0   0   0   0   0   0   0   0   0   0   0   0   0   0   0   0   0   2   4   3   3   3   3
  2   6  13  18  27  38  50  63  76  97 110 112 127 138 145 142 148 154 145 147 161 157 146 142
143 147 159 162 168 161 160 176 172 163 168 164 171 173 158 158 164 166 164 159 154 158 157 145
141 146 147 161 174 182 191 194 208 183   0   0  11   0   0   0   0   0   0   0   0   0   0   0
  0   0   0   0
  0   0   0   0   0   0   0   0   0   0   0   0   0   0   0   0   0   0   2   3   3   3   3   3
  2   8  14  20  28  40  53  64  80 101 109 114 132 141 142 155 151 150 154 155 168 159 145 147
148 145 150 158 161 155 160 174 164 167 177 170 175 175 162 160 156 165 163 161 164 160 151 142
144 148 146 161 177 180 189 196 209 181   0   0  11   0   0   0   0   0   0   0   0   0   0   0
  0   0   0   0
  0   0   0   0   0   0   0   0   0   0   0   0   0   0   0   0   0   0   2   3   3   3   3   2
  3  10  15  22  30  42  56  68  84 105 114 126 144 153 156 161 152 145 148 155 166 158 151 151
149 147 145 150 150 152 160 162 160 170 177 176 174 176 167 167 162 164 166 160 166 159 148 148
150 148 151 155 170 180 186 191 203 178   0   0  11   0   0   0   0   0   0   0   0   0   0   0
  0   0   0   0
  0   0   0   0   0   0   0   0   0   0   0   0   0   0   0   0   0   0   2   3   3   3   3   3
  4  11  16  23  34  45  58  73  94 107 121 145 142 146 164 157 150 142 140 147 154 161 165 151
149 152 149 152 154 163 163 163 168 173 177 183 180 176 176 178 169 161 164 169 165 164 159 153
152 152 155 155 163 180 187 191 203 177   0   0  10   0   0   0   0   0   0   0   0   0   0   0
  0   0   0   0
  0   0   0   0   0   0   0   0   0   0   0   0   0   0   0   0   0   0   2   4   3   3   3   2
  5  12  17  24  36  47  62  76 101 115 130 159 148 142 152 141 140 141 147 147 144 151 158 151
151 153 157 159 157 167 159 160 172 179 180 179 186 178 170 170 164 162 160 158 154 156 154 153
150 152 149 144 148 165 179 189 205 178   0   0  10   0   0   0   0   0   0   0   0   0   0   0
  0   0   0   0
  0   0   0   0   0   0   0   0   0   0   0   0   0   0   0   0   0   0   2   4   3   3   3   2
  7  13  19  28  38  49  64  84 107 116 137 151 150 141 140 136 138 144 150 151 141 146 151 147
149 151 165 166 159 163 158 162 172 173 167 166 177 172 157 163 165 156 149 149 152 147 146 153
153 148 142 139 143 154 171 181 196 175   1   0  10   0   0   0   0   0   0   0   0   0   0   0
  0   0   0   0
  0   0   0   0   0   0   0   0   0   0   0   0   0   0   0   0   0   0   2   4   3   3   3   3
  9  14  21  31  40  53  68  93 107 113 133 134 145 139 135 134 139 143 151 152 141 148 155 150
153 157 162 165 170 171 170 164 169 171 165 159 166 164 155 158 169 159 146 153 153 148 147 151
156 147 142 140 141 149 167 180 193 172   4   0  10   0   0   0   0   0   0   0   0   0   0   0
  0   0   0   0
  0   0   0   0   0   0   0   0   0   0   0   0   0   0   0   0   0   0   2   4   3   3   3   4
 10  15  23  31  44  59  73  88 108 111 120 125 137 139 139 142 147 149 158 162 152 155 155 147
155 160 161 159 168 176 164 161 168 161 161 157 157 153 154 164 172 166 155 156 153 152 148 149
154 147 140 139 142 146 160 174 193 170   0   0   9   0   0   0   0   0   0   0   0   0   0   0
  0   0   0   0
  0   0   0   0   0   0   0   0   0   0   0   0   0   0   0   0   0   0   2   4   3   3   3   5
 12  17  24  36  49  60  71  86 107 110 117 130 137 135 138 144 151 152 164 165 155 152 145 146
153 151 150 157 170 166 156 158 155 155 166 166 155 149 149 161 166 163 155 157 157 151 147 147
150 144 138 138 141 143 157 171 190 167   0   0   9   0   0   0   0   0   0   0   0   0   0   0
  0   0   0   0
  0   0   0   0   0   0   0   0   0   0   0   0   0   0   0   0   0   0   2   4   3   3   3   6
 13  17  25  40  52  64  73  90 104 113 120 127 135 138 146 148 151 154 157 164 156 146 149 152
154 157 155 164 171 171 169 153 146 156 165 168 160 152 150 160 164 160 154 155 151 148 152 155
152 141 139 138 140 146 156 168 188 167   0   0   9   0   0   0   0   0   0   0   0   0   0   0
  0   0   0   0
  0   0   0   0   0   0   0   0   0   0   0   0   0   0   0   0   0   0   2   4   3   3   3   8
 14  18  28  39  50  67  79  91 104 112 114 120 137 146 147 141 154 163 162 165 154 151 159 157
157 158 154 155 154 163 170 164 155 162 165 163 159 160 161 162 160 160 152 147 148 149 155 159
151 147 142 138 142 148 149 161 184 162   0   0   9   0   0   0   0   0   0   0   0   0   0   0
  0   0   0   0
  0   0   0   0   0   0   0   0   0   0   0   0   0   0   0   0   0   0   2   4   3   3   3   9
 14  20  30  40  54  67  76  87 107 113 118 131 133 133 133 138 154 166 166 161 154 159 171 161
152 153 159 156 149 160 172 164 153 165 170 170 162 161 161 166 163 158 151 150 153 158 157 155
149 151 151 141 143 146 148 150 175 158   0   0   8   0   0   0   0   0   0   0   0   0   0   0
  0   0   0   0
  0   0   0   0   0   0   0   0   0   0   0   0   0   0   0   0   0   0   2   4   3   3   4  11
 15  22  32  42  56  66  76  86 106 115 114 127 127 120 135 140 144 158 164 163 156 169 170 153
143 150 159 157 160 167 163 156 164 165 166 167 159 157 167 174 160 154 161 158 157 155 153 158
156 161 162 150 147 146 146 147 173 158   0   0   8   0   0   0   0   0   0   0   0   0   0   0
  0   0   0   0
  0   0   0   0   0   0   0   0   0   0   0   0   0   0   0   0   0   0   2   4   3   3   5  12
 16  24  33  44  57  66  76  91 106 115 114 125 133 137 146 139 145 161 162 159 165 171 153 147
149 152 148 156 172 169 164 168 170 168 162 151 155 174 172 158 153 155 163 159 150 151 154 157
159 164 156 147 147 147 147 149 167 153   0   0   8   0   0   0   0   0   0   0   0   0   0   0
  0   0   0   0
  0   0   0   0   0   0   0   0   0   0   0   0   0   0   0   0   0   0   2   4   3   3   6  13
 17  25  34  47  59  69  76  93 106 114 125 133 139 156 152 140 151 166 158 148 161 160 150 156
161 153 153 164 165 168 166 168 168 163 154 153 164 168 159 163 164 160 165 154 148 157 161 158
157 152 148 148 146 144 143 146 160 144   1   0   7   0   0   0   0   0   0   0   0   0   0   0
  0   0   0   0
  0   0   0   0   0   0   0   0   0   0   0   0   0   0   0   0   0   0   2   4   3   3   7  13
 18  26  35  49  59  68  82  99 103 121 140 136 138 153 152 143 159 172 163 150 154 156 157 169
165 157 165 167 163 167 167 170 173 163 158 163 162 157 161 168 163 161 165 152 148 158 169 165
159 154 150 153 148 144 147 147 157 137   0   0   6   0   0   0   0   0   0   0   0   0   0   0
  0   0   0   0
  0   0   0   0   0   0   0   0   0   0   0   0   0   0   0   0   0   0   2   4   3   3   8  14
 19  27  36  49  60  68  86 103 100 126 149 136 140 157 155 148 168 172 166 162 158 151 159 172
168 169 169 162 163 169 173 176 174 171 167 156 148 160 163 149 153 164 172 165 154 162 170 152
157 161 152 156 150 149 148 147 155 137   2   0   6   0   0   0   0   0   0   0   0   0   0   0
  0   0   0   0
  0   0   0   0   0   0   0   0   0   0   0   0   0   0   0   0   0   0   2   4   3   3   9  14
 20  27  40  51  59  70  84  98 104 135 150 146 155 156 161 166 177 177 171 172 169 164 171 178
178 175 171 164 165 171 170 170 165 156 154 152 150 159 158 153 161 163 167 168 169 169 167 153
151 154 149 150 148 145 145 147 157 139   0   0   6   0   0   0   0   0   0   0   0   0   0   0
  0   0   0   0
  0   0   0   0   0   0   0   0   0   0   0   0   0   0   0   0   0   0   2   4   3   4  10  15
 20  29  41  50  59  71  84  97 109 130 143 149 155 148 161 177 181 182 181 175 166 180 186 183
178 173 164 161 171 173 175 170 163 156 152 159 160 161 169 177 165 160 161 171 176 171 166 156
151 150 144 143 145 147 150 149 158 138   0   0   6   0   0   0   0   0   0   0   0   0   0   0
  0   0   0   0
  0   0   0   0   0   0   0   0   0   0   0   0   0   0   0   0   0   0   3   4   3   4  10  15
 19  30  42  49  59  72  86  97 103 125 137 138 147 144 156 176 171 180 190 163 154 174 177 175
177 174 164 160 172 176 180 175 170 176 169 157 158 167 169 168 160 153 154 162 164 165 163 154
152 149 144 150 145 145 145 143 154 135   0   0   6   0   0   0   0   0   0   0   0   0   0   0
  0   0   0   0
  0   0   0   0   0   0   0   0   0   0   0   0   0   0   0   0   0   0   2   4   3   4  10  14
 20  31  40  51  60  71  85  93 113 135 128 143 157 155 165 173 177 192 180 155 167 170 170 169
162 168 172 166 170 176 178 180 173 175 170 161 163 167 161 154 144 145 156 160 156 159 162 161
155 153 148 150 141 140 145 145 151 130   0   0   5   0   0   0   0   0   0   0   0   0   0   0
  0   0   0   0
  0   0   0   0   0   0   0   0   0   0   0   0   0   0   0   0   0   0   2   4   3   4  10  15
 23  31  39  51  61  72  87 103 119 126 133 148 161 171 175 171 179 184 170 173 170 169 175 163
157 171 171 169 179 187 179 170 170 171 169 165 164 159 152 155 153 154 151 152 155 161 165 163
153 148 145 146 144 144 148 145 151 131   0   0   5   0   0   0   0   0   0   0   0   0   0   0
  0   0   0   0
  0   0   0   0   0   0   0   0   0   0   0   0   0   0   0   0   0   0   3   4   3   5  11  16
 21  29  40  50  64  81  90 100 114 127 142 146 163 172 165 161 174 181 188 180 168 177 171 165
168 168 172 171 177 180 164 160 170 170 165 163 163 156 151 154 158 157 150 156 163 163 159 150
149 153 158 150 147 146 146 144 151 129   0   0   5   0   0   0   0   0   0   0   0   0   0   0
  0   0   0   0
  0   0   0   0   0   0   0   0   0   0   0   0   0   0   0   0   0   0   3   4   3   4  11  15
 20  28  40  52  61  76  87  94 112 131 130 147 170 164 153 166 190 185 186 184 191 175 165 176
177 174 171 166 173 175 165 167 169 169 169 169 165 161 159 157 153 160 166 158 152 153 152 150
159 167 159 144 147 143 140 143 151 131   0   0   5   0   0   0   0   0   0   0   0   0   0   0
  0   0   0   0
  0   0   0   0   0   0   0   0   0   0   0   0   0   0   0   0   0   0   3   4   3   4  10  16
 20  27  36  49  59  67  88 103 119 135 128 143 157 157 157 172 182 169 176 192 184 160 167 174
172 180 170 163 164 163 162 165 160 155 161 164 165 164 157 152 158 180 177 151 149 156 154 151
151 150 143 142 142 140 140 144 155 133   0   0   5   0   0   0   0   0   0   0   0   0   0   0
  0   0   0   0
  0   0   0   0   0   0   0   0   0   0   0   0   0   0   0   0   0   0   2   4   4   4  10  15
 20  26  36  49  59  70  86 100 121 141 130 128 137 154 162 168 164 172 182 178 167 166 175 183
182 185 177 161 149 152 158 156 152 153 160 152 151 162 155 152 164 171 162 146 153 157 148 142
139 139 140 140 139 138 142 145 152 128   0   0   5   0   0   0   0   0   0   0   0   0   0   0
  0   0   0   0
  0   0   0   0   0   0   0   0   0   0   0   0   0   0   0   0   0   0   3   4   4   4  10  15
 20  26  35  49  59  73  80  92 125 146 137 127 133 148 158 167 168 178 176 173 176 183 183 181
182 186 179 164 161 166 174 172 164 167 165 153 151 157 157 158 150 151 157 149 147 149 147 139
137 140 138 136 137 138 140 143 151 129   0   0   5   0   0   0   0   0   0   0   0   0   0   0
  0   0   0   0
  0   0   0   0   0   0   0   0   0   0   0   0   0   0   0   0   0   0   3   4   4   4  10  16
 19  25  34  48  59  73  77  90 123 147 141 136 147 158 172 174 174 175 182 194 196 192 186 169
174 181 177 174 171 169 180 176 159 154 160 155 149 150 150 155 150 148 149 152 149 142 146 144
137 136 136 138 139 140 142 145 155 133   0   0   5   0   0   0   0   0   0   0   0   0   0   0
  0   0   0   0
  0   0   0   0   0   0   0   0   0   0   0   0   0   0   0   0   0   0   3   4   4   4  10  18
 21  26  37  51  59  70  87  94 100 128 142 140 156 170 181 184 180 188 201 207 206 198 191 182
174 177 173 170 174 167 172 163 149 159 172 164 151 153 152 155 153 144 141 145 145 136 139 140
139 143 145 143 142 142 146 148 155 134   0   0   5   0   0   0   0   0   0   0   0   0   0   0
  0   0   0   0
  0   0   0   0   0   0   0   0   0   0   0   0   0   0   0   0   0   0   3   4   4   4   9  20
 24  25  37  54  60  70  88  98 101 125 144 142 162 179 184 188 188 187 195 203 201 198 195 185
175 180 178 173 173 169 170 160 155 171 172 159 156 154 155 149 144 142 141 141 143 146 144 142
148 155 150 142 145 147 146 144 152 134   0   0   6   0   0   0   0   0   0   0   0   0   0   0
  0   0   0   0
  0   0   0   0   0   0   0   0   0   0   0   0   0   0   0   0   0   0   3   5   4   4   6  21
 29  28  37  54  65  73  89 101 117 129 131 142 165 176 184 188 180 173 181 186 191 201 193 176
177 187 191 192 187 179 167 159 161 164 159 156 163 151 147 151 147 148 147 146 149 149 149 152
153 150 144 145 151 147 143 140 152 134   0   0   6   0   0   0   0   0   0   0   0   0   0   0
  0   0   0   0
  0   0   0   0   0   0   0   0   0   0   0   0   0   0   0   0   0   0   3   5   4   5   5  17
 31  34  43  57  73  86  99 116 117 126 133 148 164 170 169 171 168 166 173 172 181 193 186 181
189 198 199 193 185 173 164 169 165 156 157 170 169 158 160 155 148 150 146 148 145 142 145 149
146 142 142 146 144 140 141 141 150 131   0   0   5   0   0   0   0   0   0   0   0   0   0   0
  0   0   0   0
  0   0   0   0   0   0   0   0   0   0   0   0   0   0   0   0   0   0   3   5   4   5   4   8
 25  33  36  52  70  96 107 118 121 121 140 154 161 164 162 168 171 177 175 171 192 197 187 184
190 197 189 171 163 168 171 168 159 159 164 173 168 165 162 151 147 148 147 144 144 147 148 147
143 141 145 144 139 141 142 141 152 132   0   0   5   0   0   0   0   0   0   0   0   0   0   0
  0   0   0   0
  0   0   0   0   0   0   0   0   0   0   0   0   0   0   0   0   0   0   3   5   4   5   5   3
 14  32  34  50  84 110 125 128 125 113 140 160 167 165 171 180 177 177 170 175 200 206 194 181
177 180 184 169 164 171 171 165 157 165 169 167 164 167 165 153 151 155 150 145 145 149 152 148
143 144 144 140 141 144 143 143 152 129   0   0   5   0   0   0   0   0   0   0   0   0   0   0
  0   0   0   0
  0   0   0   0   0   0   0   0   0   0   0   0   0   0   0   0   0   0   3   5   5   5   5   4
  4  21  38  46  89 121 130 131 118 116 150 173 167 162 174 173 162 150 158 179 192 197 189 177
175 178 182 175 175 169 165 173 168 167 169 166 163 168 171 164 164 155 150 149 148 152 151 148
143 141 138 139 143 141 144 148 151 132   2   0   5   0   0   0   0   0   0   0   0   0   0   0
  0   0   0   0
  0   0   0   0   0   0   0   0   0   0   0   0   0   0   0   0   0   0   3   6   5   5   5   5
  5  10  27  43  75 110 117 115 112 124 152 159 147 154 167 167 162 156 165 179 182 180 181 187
191 190 188 185 185 176 173 173 174 170 166 166 162 160 161 169 167 152 153 146 145 151 153 148
140 136 140 142 140 140 148 151 154 136   0   0   6   0   0   0   0   0   0   0   0   0   0   0
  0   0   0   0
  0   0   0   0   0   0   0   0   0   0   0   0   0   0   0   0   0   0   3   6   5   5   5   5
  4   9  15  29  62 100 117 114 108 121 129 125 126 143 158 162 167 172 171 168 170 178 184 190
196 195 191 187 185 183 180 173 171 166 163 164 161 160 161 159 149 142 143 147 151 160 151 139
136 139 141 141 143 149 148 145 153 133   0   0   5   0   0   0   0   0   0   0   0   0   0   0
  0   0   0   0
  0   0   0   0   0   0   0   0   0   0   0   0   0   0   0   0   0   0   3   6   5   5   5   5
  4   6  14  17  38  69  91  97  97 100 106 107 108 118 131 140 154 166 168 169 174 180 188 194
202 201 185 176 186 188 178 170 166 167 167 158 154 149 148 147 143 141 142 145 159 159 145 137
138 137 139 144 148 149 143 141 153 134   0   0   5   0   0   0   0   0   0   0   0   0   0   0
  0   0   0   0
  0   0   0   0   0   0   0   0   0   0   0   0   0   0   0   0   0   0   4   6   5   5   5   5
  5   5  12  18  23  43  60  68  79  88  95 107 116 121 118 130 152 163 164 165 167 166 175 196
200 187 174 175 185 180 176 181 178 173 164 153 150 151 148 151 147 143 144 151 155 145 141 139
137 138 143 143 142 141 141 144 154 130   0   0   5   0   0   0   0   0   0   0   0   0   0   0
  0   0   0   0
  0   0   0   0   0   0   0   0   0   0   0   0   0   0   0   0   0   0   4   6   5   5   5   5
  5   4   9  17  20  29  49  65  77  85  91 103 123 137 140 147 164 165 155 153 165 169 171 177
183 185 179 176 183 177 179 185 181 173 162 156 155 154 152 149 147 150 153 154 145 141 139 138
136 138 137 138 140 140 142 146 153 131   0   0   5   0   0   0   0   0   0   0   0   0   0   0
  0   0   0   0
  0   0   0   0   0   0   0   0   0   0   0   0   0   0   0   0   0   0   4   6   5   5   5   5
  5   5   5  14  19  24  31  48  71  79  87 107 129 149 161 161 162 152 137 138 147 160 175 176
177 184 184 183 186 182 182 179 174 178 181 168 155 156 155 154 159 160 156 151 143 138 135 135
134 135 135 139 141 140 142 143 151 132   0   0   5   0   0   0   0   0   0   0   0   0   0   0
  0   0   0   0
  0   0   0   0   0   0   0   0   0   0   0   0   0   0   0   0   0   0   4   6   5   5   5   5
  5   6   5   9  17  22  28  37  52  71  82  96 127 151 159 151 139 132 129 134 144 159 174 180
182 180 178 181 175 173 182 182 174 176 178 173 168 170 168 164 154 150 149 150 142 135 134 135
137 137 138 142 140 139 140 140 151 134   1   0   6   0   0   0   0   0   0   0   0   0   0   0
  0   0   0   0
  0   0   0   0   0   0   0   0   0   0   0   0   0   0   0   0   0   0   4   6   5   6   5   5
  5   6   5   6  14  18  25  34  42  54  74  92 103 122 146 150 140 133 138 149 161 166 170 175
175 177 182 187 185 179 176 174 174 175 171 169 167 173 169 151 143 143 141 139 133 132 135 138
138 136 137 138 139 139 140 143 152 134   0   0   6   0   0   0   0   0   0   0   0   0   0   0
  0   0   0   0
  0   0   0   0   0   0   0   0   0   0   0   0   0   0   0   0   0   0   4   6   6   6   6   6
  5   6   6   5   9  16  20  29  39  45  55  80  97  97 111 127 132 134 141 161 171 167 166 169
158 156 172 185 187 180 177 176 175 169 160 160 165 171 161 149 146 138 137 133 133 136 134 134
137 137 136 139 142 143 146 145 152 135   5   0   6   0   0   0   0   0   0   0   0   0   0   0
  0   0   0   0
  0   0   0   0   0   0   0   0   0   0   0   0   0   0   0   0   0   0   4   6   6   6   6   6
  6   6   6   6   6  13  17  23  33  42  50  65  85  96  98  99 106 117 138 157 164 159 155 162
159 150 152 165 170 166 171 171 165 157 157 165 170 167 155 150 142 137 138 132 133 132 130 134
137 136 138 141 147 150 145 145 155 136   3   0   6   0   0   0   0   0   0   0   0   0   0   0
  0   0   0   0
  0   0   0   0   0   0   0   0   0   0   0   0   0   0   0   0   0   0   4   7   6   6   6   6
  6   6   6   6   5   9  15  20  26  37  44  54  72  87 100 104 104 109 125 137 144 150 147 160
166 152 153 164 170 170 164 157 160 165 166 170 169 162 155 143 139 141 135 131 132 129 132 136
138 140 141 142 147 144 144 147 154 132   0   0   5   0   0   0   0   0   0   0   0   0   0   0
  0   0   0   0
  0   0   0   0   0   0   0   0   0   0   0   0   0   0   0   0   0   0   4   7   6   6   6   6
  6   6   6   6   6   6  12  17  23  30  40  46  59  76  87  98 109 121 120 119 125 131 138 148
152 148 149 160 161 159 159 155 155 160 158 159 159 152 146 140 142 138 135 134 135 140 139 141
142 137 138 140 139 141 145 145 149 130   1   0   5   0   0   0   0   0   0   0   0   0   0   0
  0   0   0   0
  0   0   0   0   0   0   0   0   0   0   0   0   0   0   0   0   0   0   4   7   6   6   6   6
  6   6   6   6   6   5   8  15  19  25  31  43  52  60  72  85  94 112 127 129 129 128 132 146
162 158 147 150 154 153 150 159 162 159 158 153 146 142 144 149 143 138 140 138 141 140 141 139
136 134 138 140 141 138 139 138 147 131   4   0   5   0   0   0   0   0   0   0   0   0   0   0
  0   0   0   0
  0   0   0   0   0   0   0   0   0   0   0   0   0   0   0   0   0   0   4   7   6   6   6   6
  6   6   6   6   6   6   5  10  16  21  26  33  46  57  62  74  85  95 113 133 138 126 133 149
160 154 152 153 152 151 146 154 158 154 152 148 142 145 148 156 150 143 140 138 136 135 136 133
131 134 138 139 137 134 136 137 149 130   1   0   5   0   0   0   0   0   0   0   0   0   0   0
  0   0   0   0
  0   0   0   0   0   0   0   0   0   0   0   0   0   0   0   0   0   0   4   7   6   6   6   6
  6   6   6   6   6   6   6   6  12  17  22  27  34  49  63  68  74  83  95 108 118 126 133 145
141 142 150 151 148 142 146 151 145 143 149 153 153 158 154 150 145 142 139 135 135 135 133 130
132 136 137 136 131 133 138 138 147 130   4   0   5   0   0   0   0   0   0   0   0   0   0   0
  0   0   0   0
  0   0   0   0   0   0   0   0   0   0   0   0   0   0   0   0   0   0   4   7   6   6   6   6
  6   6   6   6   6   6   6   6   7  14  18  23  29  35  51  60  65  72  80  88 102 120 120 126
132 142 138 132 138 141 145 147 148 146 147 152 157 157 149 143 136 135 138 135 130 132 131 129
131 138 135 132 132 134 135 134 146 132   8   0   6   0   0   0   0   0   0   0   0   0   0   0
  0   0   0   0
  0   0   0   0   0   0   0   0   0   0   0   0   0   0   0   0   0   0   4   7   6   7   6   6
  6   6   6   6   6   6   6   6   6   9  14  19  25  30  36  48  59  68  76  80  86  96 104 111
121 132 132 129 129 132 135 146 146 141 148 151 149 145 141 138 136 133 131 130 128 127 131 130
129 128 126 131 135 131 133 130 147 138   7   0   6   0   0   0   0   0   0   0   0   0   0   0
  0   0   0   0
  0   0   0   0   0   0   0   0   0   0   0   0   0   0   0   0   0   0   4   7   6   7   7   6
  6   6   7   6   6   6   6   6   7   6   9  15  20  25  32  39  48  58  62  69  77  82  90  97
106 112 121 127 124 129 134 141 145 140 143 147 146 143 144 140 133 126 126 126 125 124 127 127
121 120 129 130 129 126 121 123 146 139   7   0   6   0   0   0   0   0   0   0   0   0   0   0
  0   0   0   0
  0   0   0   0   0   0   0   0   0   0   0   0   0   0   0   0   0   0   4   7   7   7   7   7
  7   7   7   7   7   7   6   6   7   7   6  10  16  20  26  31  37  49  54  59  66  72  80  87
 91  95 102 112 114 119 127 129 134 133 131 133 139 138 140 137 125 121 122 121 120 119 122 120
115 122 123 119 118 116 113 117 137 142  16   0   7   0   0   0   0   0   0   0   0   0   0   0
  0   0   0   0
  0   0   0   0   0   0   0   0   0   0   0   0   0   0   0   0   0   0   5   8   7   7   7   7
  7   7   7   7   7   7   6   7   7   7   7   6  10  16  20  25  30  38  45  51  56  63  71  76
 79  87  95 103 109 109 113 116 113 116 121 118 117 118 122 121 116 114 115 115 114 115 120 114
114 114 113 111 113 112 113 117 131 141  23   0   7   0   0   0   0   0   0   0   0   0   0   0
  0   0   0   0
  0   0   0   0   0   0   0   0   0   0   0   0   0   0   0   0   0   0   5   8   7   7   7   7
  7   7   7   7   7   7   7   7   7   7   7   7   7  11  17  20  24  29  35  42  49  56  61  67
 72  78  85  91  97  98 103 103 103 107 110 110 110 108 108 108 108 107 111 114 114 116 110 111
112 106 108 109 116 106 110 116 130 143  22   0   7   0   0   0   0   0   0   0   0   0   0   0
  0   0   0   0
  0   0   0   0   0   0   0   0   0   0   0   0   0   0   0   0   0   0   5   9   8   8   8   7
  7   7   7   7   7   7   7   7   7   7   7   7   7   7  11  17  20  23  28  34  40  46  51  56
 63  69  74  80  85  90  92  93  98 101 102 104 100  98 100 100 102 103 108 112 110 106 106 109
105 104 101 101 104  91 102 112 135 148  19   0   8   0   0   0   0   0   0   0   0   0   0   0
  0   0   0   0
  0   0   0   0   0   0   0   0   0   0   0   0   0   0   0   0   0   0   5   9   8   8   8   8
  7   8   8   8   8   7   7   7   7   7   8   8   8   7   7  11  16  19  22  26  33  38  44  48
 54  59  64  70  76  83  85  91  91  91  94  93  94  93  91  90  94 102 102  98  95 100 105  94
 91  89  85  88  88  84  93  92 136 153   8   0   8   0   0   0   0   0   0   0   0   0   0   0
  0   0   0   0
  0   0   0   0   0   0   0   0   0   0   0   0   0   0   0   0   0   0   6   9   8   8   8   8
  8   8   8   8   8   8   8   8   8   8   8   8   8   8   8   8  10  15  18  21  25  30  36  42
 46  50  55  61  64  71  79  82  79  79  79  78  81  83  82  82  86  90  86  83  86  89  82  76
 72  70  72  74  75  76  76  62 133 151   4   0   8   1   1   1   1   1   1   1   1   1   1   1
  1   1   1   1
  0   0   0   0   0   0   0   0   0   0   0   0   0   0   0   0   0   0   6  10   9   9   8   8
  8   8   8   8   8   8   8   8   8   8   8   8   8   8   8   9   8   9  15  17  19  23  26  32
 37  42  49  53  56  62  64  65  69  72  72  73  75  77  79  81  84  83  79  77  79  76  71  72
 69  68  68  67  64  63  64  48 141 162   5   0   9   0   0   0   0   0   0   0   0   0   0   0
  0   0   0   0
  0   0   0   0   0   0   0   0   0   0   0   0   0   0   0   0   0   0   6  10   9   9   9   9
  9   9   9   9   8   8   8   8   9   9   9   9   8   8   9   9   9   8  10  12  15  18  20  22
 27  32  36  39  48  55  50  53  57  61  62  66  69  69  69  67  67  69  67  66  67  63  60  61
 58  58  58  58  57  57  58  40 148 165   0   0   9   0   0   0   0   0   0   0   0   0   0   0
  0   0   0   0
  0   0   0   0   0   0   0   0   0   0   0   0   0   0   0   0   0   0   6  10   9   9   9   9
  9   9   9   9   9   9   9   9   9   9   9   9   9   9   9   9   9   9   8   8  10  13  16  18
 21  24  26  29  38  43  43  45  47  51  55  57  55  56  56  55  54  54  55  56  55  51  50  49
 48  48  48  48  48  51  48  39 160 171   0   0   9   0   0   0   0   0   0   0   0   0   0   0
  0   0   0   0
