P2
# 8-bit pgm gray
100 100
255
  0   0   0   0   0   0   0   0   0   0   0   0   0   0   0   6   1   0 149 205 225 223 218 176
 74  62  74  82  86  87  86  81  71  53  43  42  37  33  27  22  14   9   6   4   2   1   1   1
  3   6   9  15  20  15  85 113 118 109  80 110 137 144 150 138 123 133 136 141 141 143 144 144
146 146 146 147 161 184 195 205 232 200   0   0  13   0   0   0   0   0   0   0   0   0   0   0
  0   0   0   0
  0   0   0   0   0   0   0   0   0   0   0   0   0   0   0  10   9   0 199 251 240 240 229 177
  0   0   0   0   0   0   0   0   0   0   0   0   0   0   0   0   0   0   0   0   0   0   0   0
  2   6  11  16  22  31   0   0   0  52  80  87  91  94 101 118 139 147 149 152 156 157 158 157
158 159 161 162 170 196 215 218 227 197   0   0  13   0   0   0   0   0   0   0   0   0   0   0
  0   0   0   0
  0   0   0   0   0   0   0   0   0   0   0   0   0   0   0   6   0   0 141 211 207 196 224 166
 17   0  24  20  22  22  22  20  16  10   7   7   5   4   3   2   1   1   0   0   0   0   0   0
  3   6  10  18  23  29  45  58  67  73  77  91 106 119 125 128 131 135 141 145 150 153 153 155
155 154 157 159 159 180 203 210 225 196   0   0  13   0   0   0   0   0   0   0   0   0   0   0
  0   0   0   0
  0   0   0   0   0   0   0   0   0   0   0   0   0   0   0   5   0  34 100 145 125 167 221 156
  0   0   8   0   0   0   0   0   0   0   0   0   0   0   0   0   0   0   0   0   0   0   0   0
  3   7  11  18  25  31  39  48  58  69  80  95 108 116 122 124 129 135 139 144 150 153 154 158
160 157 157 160 158 171 199 209 223 195   0   0  12   0   0   0   0   0   0   0   0   0   0   0
  0   0   0   0
  0   0   0   0   0   0   0   0   0   0   0   0   0   0   0   3   2   0 120 147 122 185 217 148
  0   0   8   0   0   0   0   0   0   0   0   0   0   0   0   0   0   0   0   0   0   0   0   1
  4   8  13  18  26  35  42  52  63  75  87  96 103 104 112 120 129 134 139 142 146 152 156 160
160 159 159 160 159 165 191 206 221 194   0   0  12   0   0   0   0   0   0   0   0   0   0   0
  0   0   0   0
  0   0   0   0   0   0   0   0   0   0   0   0   0   0   0   3  13   0 138 221 195 194 216 142
  0   4   6   0   0   0   0   0   0   0   0   0   0   0   0   0   0   0   0   0   0   0   0   1
  4   9  14  21  28  37  47  56  64  73  82  91 101 104 113 120 127 132 139 143 145 150 152 154
155 156 155 157 160 161 181 202 218 192   0   0  12   0   0   0   0   0   0   0   0   0   0   0
  0   0   0   0
  0   0   0   0   0   0   0   0   0   0   0   0   0   0   0   9   7   0 186 241 225 221 209 134
  0  10   5   0   0   0   0   0   0   0   0   0   0   0   0   0   0   0   0   0   0   0   0   2
  5   9  15  23  29  36  46  54  64  74  85  96 105 109 114 120 128 136 139 143 146 148 148 149
152 153 153 156 159 158 170 197 217 190   0   0  12   0   0   0   0   0   0   0   0   0   0   0
  0   0   0   0
  0   0   0   0   0   0   0   0   0   0   0   0   0   0   0   9   6   0 188 236 225 221 200 120
  0  13   3   0   0   0   0   0   0   0   0   0   0   0   0   0   0   0   0   0   0   0   1   3
  7  13  19  25  32  39  47  55  66  75  85  95 106 113 117 120 129 136 138 142 144 146 149 150
152 154 155 156 156 157 162 189 215 189   0   0  12   0   0   0   0   0   0   0   0   0   0   0
  0   0   0   0
  0   0   0   0   0   0   0   0   0   0   0   0   0   0   0   5   4   0 140 183 176 174 157  89
  0  10   1   0   0   0   0   0   0   0   0   0   0   0   0   0   0   0   0   0   0   0   2   4
  9  16  21  27  34  42  49  58  67  77  87  97 105 110 118 124 126 131 137 138 141 145 150 150
152 154 155 155 157 161 163 179 212 188   0   0  12   0   0   0   0   0   0   0   0   0   0   0
  0   0   0   0
  0   0   0   0   0   0   0   0   0   0   0   0   0   0   0   0   0   1   0   0  24  34  36  17
  0   1   0   0   0   0   0   0   0   0   0   0   0   0   0   0   0   0   0   0   0   0   3   7
 12  16  22  30  38  46  54  62  73  82  92 100 107 109 115 125 130 133 137 140 144 147 149 151
154 156 157 158 157 158 160 170 206 186   0   0  11   0   0   0   0   0   0   0   0   0   0   0
  0   0   0   0
  0   0   0   0   0   0   0   0   0   0   0   0   0   0   0   0   0   1   0   0   0   0   0   0
  1   0   0   0   0   0   0   0   0   0   0   0   0   0   0   0   0   0   0   0   0   2   5   9
 14  20  26  33  41  51  60  69  79  88  97 104 111 113 118 124 133 136 136 141 145 148 150 151
153 156 156 154 154 158 161 166 199 184   0   0  11   0   0   0   0   0   0   0   0   0   0   0
  0   0   0   0
  0   0   0   0   0   0   0   0   0   0   0   0   0   0   0   0   0   0   8  15  15  15  12   4
  0   0   0   0   0   0   0   0   0   0   0   0   0   0   0   0   0   0   0   0   0   4   9  11
 16  22  31  39  46  54  64  75  82  92 101 107 113 118 123 125 133 138 143 145 147 151 153 153
152 153 155 157 159 159 162 163 190 179   3   0  11   0   0   0   0   0   0   0   0   0   0   0
  0   0   0   0
  0   0   0   0   0   0   0   0   0   0   0   0   0   0   0   0   0   0   0   0   0   0   0   0
  0   0   0   0   0   0   0   0   0   0   0   0   0   0   0   0   0   0   0   0   1   5   9  15
 20  25  33  44  52  60  69  78  87  96 105 112 119 124 128 131 136 142 148 149 150 153 156 156
157 159 164 164 161 160 162 161 186 176   8   0  10   0   0   0   0   0   0   0   0   0   0   0
  0   0   0   0
  0   0   0   0   0   0   0   0   0   0   0   0   0   0   0   0   0   0   0   0   0   0   0   0
  0   0   0   0   0   0   0   0   0   0   0   0   0   0   0   0   0   0   0   0   2   6  10  16
 25  33  40  50  60  68  77  86  95 103 111 119 125 126 131 135 142 146 147 149 150 154 157 159
160 162 162 157 157 159 159 158 178 168   6   0  10   0   0   0   0   0   0   0   0   0   0   0
  0   0   0   0
  0   0   0   0   0   0   0   0   0   0   0   0   0   0   0   0   0   0   0   0  13   5   0   0
  0   0   0   0   0   0   0   0   0   0   0   0   0   0   0   0   0   0   0   1   4   8  13  20
 27  36  47  58  65  77  88  96 106 113 117 124 129 133 138 142 147 149 149 150 155 157 158 156
154 154 155 153 154 155 158 156 172 166   9   0   9   0   0   0   0   0   0   0   0   0   0   0
  0   0   0   0
  0   0   0   0   0   0   0   0   0   0   0   0   0   0   0   0   0   0   2   0  45  31   0   2
  0   0   0   0   0   0   0   0   0   0   0   0   0   0   0   0   0   0   0   2   7  11  17  25
 33  41  54  65  73  84  94 104 115 121 125 131 134 138 144 148 150 154 154 157 158 155 154 155
155 157 157 156 157 156 157 157 172 164  11   0   9   0   0   0   0   0   0   0   0   0   0   0
  0   0   0   0
  0   0   0   0   0   0   0   0   0   0   0   0   0   0   0   0   0   0   4   0  49  41   0   3
  0   0   0   0   0   0   0   0   0   0   0   0   0   0   0   0   0   0   1   5   9  15  22  29
 40  49  63  73  82  92 101 108 119 125 130 136 141 143 146 150 153 158 158 157 157 155 156 158
156 158 156 156 156 157 160 159 170 160  14   0   9   0   0   0   0   0   0   0   0   0   0   0
  0   0   0   0
  0   0   0   0   0   0   0   0   0   0   0   0   0   0   0   0   0   0   3   0  38  36   0   2
  0   0   0   0   0   0   0   0   0   0   0   0   0   0   0   0   0   0   3   7  12  19  26  37
 48  61  75  82  91 100 107 118 128 129 135 140 145 148 150 154 157 159 156 155 157 156 154 153
153 154 154 154 153 154 158 156 164 153  16   0   8   0   0   0   0   0   0   0   0   0   0   0
  0   0   0   0
  0   0   0   0   0   0   0   0   0   0   0   0   0   0   0   0   0   0   0   0   3   3   0   0
  0   0   0   0   0   0   0   0   0   0   0   0   0   0   0   0   0   1   4  10  17  26  37  45
 55  68  84  93 101 108 117 129 134 137 143 146 151 156 157 157 156 156 154 152 153 154 151 151
155 154 154 156 156 154 157 156 164 150  13   0   8   0   0   0   0   0   0   0   0   0   0   0
  0   0   0   0
  0   0   0   0   0   0   0   0   0   0   0   0   0   0   0   0   0   0   0   0   0   0   0   0
  0   0   0   0   0   0   0   0   0   0   0   0   0   0   0   0   0   3   9  15  21  30  44  56
 65  80  94 100 111 119 130 137 139 145 150 154 158 158 157 154 154 154 157 155 151 152 155 155
157 156 156 157 156 156 158 158 169 153   6   0   8   0   0   0   0   0   0   0   0   0   0   0
  0   0   0   0
  0   0   0   0   0   0   0   0   0   0   0   0   0   0   0   0   0   0   0   0   1   1   0   0
  0   0   0   0   0   0   0   0   0   0   0   0   0   0   0   0   0   6  14  19  28  38  51  68
 78  89 104 114 119 131 140 144 148 150 155 161 158 155 153 151 151 153 154 152 152 152 155 157
156 157 157 158 158 157 160 156 166 151   1   0   7   0   0   0   0   0   0   0   0   0   0   0
  0   0   0   0
  0   0   0   0   0   0   0   0   0   0   0   0   0   0   0   0   0   0   0   0   0   0   0   0
  0   0   0   0   0   0   0   0   0   0   0   0   0   0   0   0   3   8  14  24  37  47  57  73
 89  98 109 126 135 137 141 145 154 158 164 163 156 155 154 153 153 153 153 152 151 153 153 156
157 158 160 159 159 159 159 156 166 148   5   0   7   0   0   0   0   0   0   0   0   0   0   0
  0   0   0   0
  0   0   0   0   0   0   0   0   0   0   0   0   0   0   0   0   0   0   0   0   0   0   0   0
  0   0   0   0   0   0   0   0   0   0   0   0   0   0   0   1   6  10  17  27  39  52  68  82
 97 107 116 128 140 146 148 149 155 162 159 155 156 154 153 152 153 153 153 151 152 155 155 156
156 157 159 159 157 157 159 161 168 148   3   0   7   0   0   0   0   0   0   0   0   0   0   0
  0   0   0   0
  0   0   0   0   0   0   0   0   0   0   0   0   0   0   0   0   0   0   0   0   0   0   0   0
  0   0   0   0   0   0   0   0   0   0   0   0   0   0   0   3   8  14  23  33  46  61  75  90
103 111 128 137 137 151 158 154 155 155 154 155 154 150 150 152 153 155 155 154 155 156 157 158
157 158 158 156 156 158 163 161 169 151   3   0   7   0   0   0   0   0   0   0   0   0   0   0
  0   0   0   0
  0   0   0   0   0   0   0   0   0   0   0   0   0   0   0   0   0   0   0   0   0   0   0   0
  0   0   0   0   0   0   0   0   0   0   0   0   0   0   0   5  10  18  29  40  54  68  83  98
109 122 135 136 141 147 154 161 156 154 156 155 155 153 152 153 154 157 158 160 161 164 164 164
163 161 159 161 162 164 164 164 174 152   0   0   7   0   0   0   0   0   0   0   0   0   0   0
  0   0   0   0
  0   0   0   0   0   0   0   0   0   0   0   0   0   0   0   0   0   0   0   0   0   0   0   0
  0   0   0   0   0   0   0   0   0   0   0   0   0   0   2   8  14  22  35  49  62  78  94 104
116 131 134 138 145 150 153 159 158 154 156 156 164 161 156 160 164 166 164 166 169 174 175 172
171 166 162 165 169 166 170 170 173 149   2   0   7   0   0   0   0   0   0   0   0   0   0   0
  0   0   0   0
  0   0   0   0   0   0   0   0   0   0   0   0   0   0   0   0   0   0   0   0   0   0   0   0
  0   0   0   0   0   0   0   0   0   0   0   0   0   0   4  10  18  29  42  56  71  85  99 113
128 131 135 145 149 150 153 156 157 158 155 156 160 163 162 166 170 170 168 169 168 168 170 168
168 169 173 171 171 171 171 163 168 146   0   0   7   0   0   0   0   0   0   0   0   0   0   0
  0   0   0   0
  0   0   0   0   0   0   0   0   0   0   0   0   0   0   0   0   0   0   0   0   0   0   0   0
  0   0   0   0   0   0   0   0   0   0   0   0   0   1   7  13  22  34  47  63  80  94 107 123
135 139 143 148 150 152 151 151 152 157 158 152 155 164 165 164 164 164 163 163 162 162 164 164
164 161 167 171 169 169 166 164 170 146   0   0   7   0   0   0   0   0   0   0   0   0   0   0
  0   0   0   0
  0   0   0   0   0   0   0   0   0   0   0   0   0   0   0   0   0   0   0   0   0   0   0   0
  0   0   0   0   0   0   0   0   0   0   0   0   0   3   9  17  28  40  54  71  88 101 114 128
135 146 153 151 150 152 152 153 153 154 159 163 167 168 162 160 161 162 160 161 163 165 163 163
164 162 167 173 168 168 166 162 168 146   0   0   7   0   0   0   0   0   0   0   0   0   0   0
  0   0   0   0
  0   0   0   0   0   0   0   0   0   0   0   0   0   0   0   0   0   0   0   0   0   0   0   0
  0   0   0   0   0   0   0   0   0   0   0   0   0   5  12  21  33  46  61  77  93 106 120 132
139 146 153 157 156 155 155 156 159 163 168 173 170 164 159 159 160 161 161 161 164 170 171 172
174 174 174 171 166 167 166 161 168 145   0   0   7   0   0   0   0   0   0   0   0   0   0   0
  0   0   0   0
  0   0   0   0   0   0   0   0   0   0   0   0   0   0   0   0   0   0   0   0   0   0   0   0
  0   0   0   0   0   0   0   0   0   0   0   0   2   7  15  25  38  52  68  84  98 112 126 136
143 151 154 154 156 158 157 158 164 166 166 163 158 159 160 160 160 160 161 165 170 171 175 179
179 171 167 167 164 166 165 162 169 148   0   0   7   0   0   0   0   0   0   0   0   0   0   0
  0   0   0   0
  0   0   0   0   0   0   0   0   0   0   0   0   0   0   0   0   0   0   0   0   0   0   0   0
  0   0   0   0   0   0   0   0   0   0   0   0   3  11  19  30  43  59  75  90 106 119 137 145
150 154 157 156 153 156 163 166 163 159 162 160 156 159 161 161 161 161 163 167 171 176 182 180
173 170 171 168 162 162 163 161 168 148   0   0   7   0   0   0   0   0   0   0   0   0   0   0
  0   0   0   0
  0   0   0   0   0   0   0   0   0   0   0   0   0   0   0   0   0   0   0   0   0   0   0   0
  0   0   0   0   0   0   0   0   0   0   0   1   6  14  23  35  48  66  83  98 113 123 144 155
156 159 160 159 162 165 165 164 166 167 165 161 159 161 165 163 161 161 163 163 168 177 180 177
172 169 169 166 165 163 163 161 169 147   0   0   7   0   0   0   0   0   0   0   0   0   0   0
  0   0   0   0
  0   0   0   0   0   0   0   0   0   0   0   0   0   0   0   0   0   0   0   0   0   0   0   0
  0   0   0   0   0   0   0   0   0   0   0   2   9  17  27  39  55  73  90 108 119 133 152 156
159 162 162 164 171 169 167 167 168 162 161 161 162 166 167 163 160 161 163 165 173 180 179 177
175 167 166 168 166 162 162 160 166 146   2   0   7   0   0   0   0   0   0   0   0   0   0   0
  0   0   0   0
  0   0   0   0   0   0   0   0   0   0   0   0   0   0   0   0   0   0   0   0   0   0   0   0
  0   0   0   0   0   0   0   0   0   0   0   4  11  20  31  45  61  78  97 111 123 146 153 154
160 165 170 173 171 168 168 170 171 164 163 168 168 171 168 167 163 164 167 172 179 180 174 178
182 175 167 167 166 164 165 165 170 146   0   0   7   0   0   0   0   0   0   0   0   0   0   0
  0   0   0   0
  0   0   0   0   0   0   0   0   0   0   0   0   0   0   0   0   0   0   0   0   0   0   0   0
  0   0   0   0   0   0   0   0   0   0   1   6  14  23  34  50  67  86 104 116 132 149 151 156
159 166 175 177 172 167 170 175 177 174 173 176 177 180 177 175 172 172 172 178 184 177 171 175
176 172 168 167 164 164 167 166 171 146   0   0   7   0   0   0   0   0   0   0   0   0   0   0
  0   0   0   0
  0   0   0   0   0   0   0   0   0   0   0   0   0   0   0   0   0   0   0   0   0   0   0   0
  0   0   0   0   0   0   0   0   0   0   2   8  16  27  41  58  75  91 107 119 139 149 151 156
161 168 167 166 170 168 172 178 178 176 180 179 174 178 178 177 174 174 175 179 178 174 170 172
169 167 169 167 166 167 169 165 172 151   0   0   7   0   0   0   0   0   0   0   0   0   0   0
  0   0   0   0
  0   0   0   0   0   0   0   0   0   0   0   0   0   0   0   0   0   0   0   0   0   0   0   0
  0   0   0   0   0   0   0   0   0   0   4  10  21  31  44  62  77  95 112 123 142 149 150 159
169 165 159 161 163 166 170 177 179 180 188 179 169 173 174 172 170 170 173 171 170 170 171 173
173 171 169 168 168 170 171 170 176 152   0   0   7   0   0   0   0   0   0   0   0   0   0   0
  0   0   0   0
  0   0   0   0   0   0   0   0   0   0   0   0   0   0   0   0   0   0   0   0   0   0   0   0
  0   0   0   0   0   0   0   0   0   0   6  14  23  33  48  65  83 100 115 129 144 154 159 165
165 160 159 161 161 167 176 181 183 185 189 182 174 179 182 178 173 177 176 173 174 176 176 175
172 170 172 173 175 174 172 167 173 150   0   0   7   0   0   0   0   0   0   0   0   0   0   0
  0   0   0   0
  0   0   0   0   0   0   0   0   0   0   0   0   0   0   0   0   0   0   0   0   0   0   0   0
  0   0   0   0   0   0   0   0   0   1   7  16  25  36  52  70  91 109 125 138 153 164 161 160
159 160 163 162 163 177 188 190 186 186 187 183 181 187 187 178 173 176 178 177 176 174 175 174
172 176 179 181 181 178 173 171 178 150   0   0   7   0   0   0   0   0   0   0   0   0   0   0
  0   0   0   0
  0   0   0   0   0   0   0   0   0   0   0   0   0   0   0   0   0   0   0   0   0   0   0   0
  0   0   0   0   0   0   0   0   0   3  12  17  29  43  61  82 100 117 132 144 157 165 162 161
163 163 165 168 178 190 195 188 181 183 185 187 186 186 184 180 179 178 178 174 176 175 175 173
174 184 182 182 180 176 175 172 175 147   0   0   7   0   0   0   0   0   0   0   0   0   0   0
  0   0   0   0
  0   0   0   0   0   0   0   0   0   0   0   0   0   0   0   0   0   0   0   0   0   0   0   0
  0   0   0   0   0   0   0   0   0   7  19  23  36  57  71  82  96 112 126 142 158 173 173 169
167 167 171 182 187 186 184 178 178 181 182 185 182 185 186 189 187 178 175 174 173 172 170 168
172 174 175 178 176 176 174 170 174 150   0   0   7   0   0   0   0   0   0   0   0   0   0   0
  0   0   0   0
  0   0   0   0   0   0   0   0   0   0   0   0   0   0   0   0   0   0   0   0   0   0   0   0
  0   0   0   0   0   0   0   0   0   6  14  21  32  48  69  81  95 114 132 145 160 178 184 176
178 181 185 183 177 179 180 181 185 187 187 188 187 197 194 188 182 178 179 179 167 163 167 170
168 168 172 177 176 175 171 169 175 149   0   0   7   0   0   0   0   0   0   0   0   0   0   0
  0   0   0   0
  0   0   0   0   0   0   0   0   0   0   0   0   0   0   0   0   0   0   0   0   0   0   0   0
  0   0   0   0   0   0   0   0   0   6  12  20  33  44  66  89 101 117 132 149 162 172 186 184
188 188 183 176 178 182 183 188 192 195 201 199 194 197 191 183 183 183 177 177 169 164 166 167
166 166 171 178 176 172 171 170 175 146   0   0   7   0   0   0   0   0   0   0   0   0   0   0
  0   0   0   0
  0   0   0   0   0   0   0   0   0   0   0   0   0   0   0   0   0   0   0   0   0   0   0   0
  0   0   0   0   0   0   0   0   1   6  15  23  33  49  65  85 109 124 131 155 168 176 191 191
185 179 178 181 187 183 183 188 191 194 202 198 187 184 180 181 184 182 178 175 173 168 167 167
167 169 178 179 173 170 175 174 173 147   0   0   7   0   0   0   0   0   0   0   0   0   0   0
  0   0   0   0
  0   0   0   0   0   0   0   0   0   0   0   0   0   0   0   0   0   0   0   0   0   0   0   0
  0   0   0   0   0   0   0   0   1   6  15  26  33  49  70  86 105 124 141 160 172 189 191 187
175 174 178 182 195 197 189 189 189 189 194 188 187 186 182 178 180 182 175 172 175 175 170 168
169 177 179 174 172 172 174 171 175 152   0   0   7   0   0   0   0   0   0   0   0   0   0   0
  0   0   0   0
  0   0   0   0   0   0   0   0   0   0   0   0   0   0   0   0   0   0   0   0   0   0   0   0
  2   0   0   0   0   0   0   0   1   6  13  26  36  48  69  88 105 124 152 173 186 208 204 191
187 191 193 196 208 204 199 196 193 195 197 194 190 188 183 181 178 179 179 180 179 181 180 176
174 173 172 171 172 175 173 173 185 159   0   0   8   0   0   0   0   0   0   0   0   0   0   0
  0   0   0   0
  0   0   0   0   0   0   0   0   0   0   0   0   0   0   0   0   0   0   0   0   0   0   0   0
  0   0   0   0   0   0   0   0   1   7  13  24  39  48  66  89 107 129 149 170 198 218 211 202
195 196 202 201 195 191 194 200 202 204 205 201 190 191 189 188 187 186 186 185 182 181 180 177
173 172 173 173 173 174 176 178 188 161   0   0   8   0   0   0   0   0   0   0   0   0   0   0
  0   0   0   0
  0   0   0   0   0   0   0   0   0   0   0   0   0   0   0   0   0   0   0   0   0   0   0   0
  0   0   0   0   0   0   0   0   1   7  15  23  36  53  67  84 101 122 144 165 196 211 203 195
196 197 199 189 179 188 196 201 206 208 202 193 189 192 190 188 194 192 186 189 186 180 177 178
177 172 174 176 177 184 184 181 187 159   0   0   8   0   0   0   0   0   0   0   0   0   0   0
  0   0   0   0
  0   0   0   0   0   0   0   0   0   0   0   0   0   0   0   0   0   0   0   0   0   0   0   0
  0   0   0   0   0   0   0   0   1   8  15  24  33  50  72  88 100 121 149 173 198 210 205 200
198 195 191 186 187 193 197 204 207 203 191 185 183 187 186 190 192 191 195 194 187 180 178 179
174 170 173 177 182 185 182 177 184 155   0   0   7   0   0   0   0   0   0   0   0   0   0   0
  0   0   0   0
  0   0   0   0   0   0   0   0   0   0   0   0   0   0   0   0   0   0   0   0   0   0   0   0
  0   0   0   0   0   0   0   0   2   8  15  24  35  45  64  89 104 123 154 188 208 209 205 204
196 194 191 186 191 201 205 213 210 201 194 188 184 186 190 196 197 200 203 195 188 182 177 173
171 172 177 179 178 176 176 175 181 152   0   0   7   0   0   0   0   0   0   0   0   0   0   0
  0   0   0   0
  0   0   0   0   0   0   0   0   0   0   0   0   0   0   0   0   0   0   0   0   0   0   0   0
  0   0   0   0   0   0   0   0   1   8  14  25  36  47  59  80 102 120 149 195 212 207 206 200
199 197 197 194 199 206 212 213 208 203 196 190 185 190 199 203 203 200 194 188 182 181 178 177
177 181 182 178 176 179 180 177 183 157   0   0   8   0   0   0   0   0   0   0   0   0   0   0
  0   0   0   0
  0   0   0   0   0   0   0   0   0   0   0   0   0   0   0   0   0   0   0   0   0   0   0   0
  0   0   0   0   0   0   0   0   1   8  15  24  36  46  60  78 106 124 155 197 204 205 211 205
199 198 201 208 208 204 203 198 201 194 189 188 187 199 206 203 199 195 187 189 187 185 186 184
182 183 184 185 184 187 184 177 186 160   0   0   8   0   0   0   0   0   0   0   0   0   0   0
  0   0   0   0
  0   0   0   0   0   0   0   0   0   0   0   0   0   0   0   0   0   0   0   0   0   0   0   0
  0   0   0   0   0   0   0   0   0   7  15  25  38  48  61  81 104 121 167 201 198 201 208 199
203 206 206 212 210 204 197 198 201 195 192 193 198 206 205 199 198 194 190 192 188 186 187 183
181 184 185 183 187 188 184 182 190 161   0   0   8   0   0   0   0   0   0   0   0   0   0   0
  0   0   0   0
  0   0   0   0   0   0   0   0   0   0   0   0   0   0   0   0   0   0   0   0   0   0   0   0
  0   0   0   0   0   0   0   0   0   6  14  26  39  49  61  77  92 125 174 193 196 202 206 202
210 207 206 210 208 202 196 202 206 199 191 190 194 199 199 205 209 200 191 189 188 188 186 188
188 185 182 182 184 186 187 182 187 161   0   0   8   0   0   0   0   0   0   0   0   0   0   0
  0   0   0   0
  0   0   0   0   0   0   0   0   0   0   0   0   0   0   0   0   0   0   0   0   0   0   0   0
  0   0   0   0   0   0   0   0   0   4  15  24  37  48  62  75  85 126 164 190 206 211 214 205
199 193 198 207 204 198 199 203 202 197 194 189 188 194 203 209 205 196 192 193 195 191 191 190
187 183 180 180 178 185 183 179 184 155   0   0   8   0   0   0   0   0   0   0   0   0   0   0
  0   0   0   0
  0   0   0   0   0   0   0   0   0   0   0   0   0   0   0   0   0   0   0   0   0   0   0   0
  0   0   0   0   0   0   0   0   0   2  13  22  34  45  59  76  93 129 156 186 210 213 206 196
191 198 201 207 206 202 205 202 196 193 195 191 189 197 202 197 190 195 198 191 187 190 190 183
183 181 178 181 183 184 181 180 185 156   0   0   8   0   0   0   0   0   0   0   0   0   0   0
  0   0   0   0
  0   0   0   0   0   0   0   0   0   0   0   0   0   0   0   0   0   0   0   0   0   0   0   0
  0   0   0   0   0   0   0   0   0   1  11  19  30  43  59  77 104 141 170 183 202 207 195 192
194 200 203 207 204 199 191 189 198 202 201 202 198 199 199 197 199 199 193 191 192 191 184 179
175 176 180 181 183 183 178 176 182 154   0   0   7   0   0   0   0   0   0   0   0   0   0   0
  0   0   0   0
  0   0   0   0   0   0   0   0   0   0   0   0   0   0   0   0   0   0   0   0   0   0   0   0
  0   0   0   0   0   0   0   0   0   0   6  20  35  44  61  92 118 137 164 185 199 195 194 195
192 198 204 205 199 190 187 193 202 206 201 197 197 198 197 199 200 197 196 200 197 184 176 174
176 182 180 180 180 177 179 180 179 150   0   0   7   0   0   0   0   0   0   0   0   0   0   0
  0   0   0   0
  0   0   0   0   0   0   0   0   0   0   0   0   0   0   0   0   0   0   0   0   0   0   0   0
  0   0   0   0   0   0   0   0   0   0   2  29  49  55  66  89 115 126 134 167 199 198 201 210
209 211 213 207 196 185 184 193 201 203 200 198 200 201 201 203 201 200 200 196 187 179 180 182
182 178 178 180 173 173 179 172 171 147   0   0   7   0   0   0   0   0   0   0   0   0   0   0
  0   0   0   0
  0   0   0   0   0   0   0   0   0   0   0   0   0   0   0   0   0   0   0   0   0   0   0   0
  0   0   0   0   0   0   0   0   0   0   1  30  51  68  89  97 120 133 128 144 173 195 210 217
217 209 205 201 195 190 186 189 188 189 193 198 200 203 205 206 206 202 198 194 187 185 187 182
175 176 178 177 174 174 172 163 170 151   2   0   7   0   0   0   0   0   0   0   0   0   0   0
  0   0   0   0
  0   0   0   0   0   0   0   0   0   0   0   0   0   0   0   0   0   0   0   0   0   0   0   0
  0   0   0   0   0   0   0   0   0   1   0  23  49  67  82  91 115 131 140 151 168 182 197 205
206 200 201 198 194 196 193 187 186 184 187 194 202 206 204 204 202 195 194 197 191 189 189 185
183 185 181 174 174 171 168 163 174 152   0   0   7   0   0   0   0   0   0   0   0   0   0   0
  0   0   0   0
  0   0   0   0   0   0   0   0   0   0   0   0   0   0   0   0   0   0   0   0   0   0   0   0
  0   0   0   0   0   0   0   0   0   1   0  10  39  54  62  67  95 115 130 148 169 175 180 190
192 192 197 193 188 193 191 188 187 182 185 194 199 198 200 200 198 199 206 206 200 200 199 196
193 182 174 172 175 174 173 171 180 154   0   0   7   0   0   0   0   0   0   0   0   0   0   0
  0   0   0   0
  0   0   0   0   0   0   0   0   0   0   0   0   0   0   0   0   0   0   0   0   0   0   0   0
  0   0   0   0   0   0   0   0   0   0   0   0  20  40  47  47  69  86  94 111 137 161 180 191
191 189 185 181 183 190 191 191 187 189 192 196 196 194 195 201 208 212 217 213 207 204 198 190
186 179 177 179 181 180 178 176 181 155   0   0   7   0   0   0   0   0   0   0   0   0   0   0
  0   0   0   0
  0   0   0   0   0   0   0   0   0   0   0   0   0   0   0   0   0   0   0   0   0   0   0   0
  0   0   0   0   0   0   0   0   0   0   0   0   2  13  23  34  48  69  80  90 114 137 165 192
192 182 183 182 176 188 192 188 188 197 201 203 196 197 203 211 218 222 220 213 206 201 194 188
186 186 187 184 184 183 178 173 175 148   0   0   7   0   0   0   0   0   0   0   0   0   0   0
  0   0   0   0
  0   0   0   0   0   0   0   0   0   0   0   0   0   0   0   0   0   0   0   0   0   0   0   0
  0   0   0   0   0   0   0   0   0   0   0   0   1   5  14  29  41  57  71  84 102 121 149 186
201 190 182 180 180 187 191 194 200 196 190 190 193 198 202 207 215 216 209 204 204 200 194 192
190 184 180 187 185 180 176 171 176 150   0   0   7   0   0   0   0   0   0   0   0   0   0   0
  0   0   0   0
  0   0   0   0   0   0   0   0   0   0   0   0   0   0   0   0   0   0   0   0   0   0   0   0
  0   0   0   0   0   0   0   0   0   0   0   0   0   3   9  19  33  46  62  80  95 111 138 169
190 193 178 173 171 177 198 205 198 184 179 180 186 189 190 191 191 188 183 187 191 187 187 185
182 177 177 181 176 174 176 172 177 151   0   0   7   0   0   0   0   0   0   0   0   0   0   0
  0   0   0   0
  0   0   0   0   0   0   0   0   0   0   0   0   0   0   0   0   0   0   0   0   0   0   0   0
  0   0   0   0   0   0   0   0   0   0   0   0   0   1   5  12  25  38  50  69  89 110 131 148
162 176 180 173 169 175 188 189 182 181 182 183 184 179 177 175 177 179 179 177 180 183 180 176
174 171 171 169 167 168 172 170 177 153   0   0   7   0   0   0   0   0   0   0   0   0   0   0
  0   0   0   0
  0   0   0   0   0   0   0   0   0   0   0   0   0   0   0   0   0   0   0   0   0   0   0   0
  0   0   0   0   0   0   0   0   0   0   0   0   0   0   2   8  19  30  42  55  79  97 110 131
148 158 172 174 169 174 171 172 172 171 178 185 187 181 180 176 177 176 177 180 181 182 176 173
172 171 170 167 166 167 171 170 178 155   0   0   7   0   0   0   0   0   0   0   0   0   0   0
  0   0   0   0
  0   0   0   0   0   0   0   0   0   0   0   0   0   0   0   0   0   0   0   0   0   0   0   0
  0   0   0   0   0   0   0   0   0   0   0   0   0   0   1   4  12  23  32  46  64  78  99 119
139 157 167 168 170 177 173 171 171 170 171 174 178 184 186 181 181 183 187 188 182 179 175 170
173 173 168 166 168 170 177 175 180 155   0   0   8   0   0   0   0   0   0   0   0   0   0   0
  0   0   0   0
  0   0   0   0   0   0   0   0   0   0   0   0   0   0   0   0   0   0   0   0   0   0   0   0
  0   0   0   0   0   0   0   0   0   0   0   0   0   0   0   2   6  16  26  39  51  70  91 105
122 142 161 176 182 177 170 167 170 172 171 172 175 173 174 177 176 182 188 190 187 183 181 178
177 174 168 172 173 176 177 172 179 154   0   0   7   0   0   0   0   0   0   0   0   0   0   0
  0   0   0   0
  0   0   0   0   0   0   0   0   0   0   0   0   0   0   0   0   0   0   0   0   0   0   0   0
  0   0   0   0   0   0   0   0   0   0   0   0   0   0   0   1   3   9  17  29  42  66  82  91
106 124 148 167 181 178 169 168 168 168 171 175 174 173 175 173 175 177 177 183 183 183 185 187
181 177 180 178 179 176 168 164 173 150   0   0   7   0   0   0   0   0   0   0   0   0   0   0
  0   0   0   0
  0   0   0   0   0   0   0   0   0   0   0   0   0   0   0   0   0   0   0   0   0   0   0   0
  0   0   0   0   0   0   0   0   0   0   0   0   0   0   0   0   2   5  11  19  33  53  71  83
 95 110 133 150 157 170 171 167 165 166 173 172 171 173 173 172 175 176 173 173 172 176 177 180
177 175 179 177 175 169 164 165 175 149   0   0   7   0   0   0   0   0   0   0   0   0   0   0
  0   0   0   0
  0   0   0   0   0   0   0   0   0   0   0   0   0   0   0   0   0   0   0   0   0   0   0   0
  0   0   0   0   0   0   0   0   0   0   0   0   0   0   0   0   0   3   6  14  24  35  50  66
 81  96 118 135 132 142 152 157 160 163 171 168 168 168 168 167 170 172 170 171 174 174 171 173
172 167 166 170 168 167 168 166 172 147   0   0   7   0   0   0   0   0   0   0   0   0   0   0
  0   0   0   0
  0   0   0   0   0   0   0   0   0   0   0   0   0   0   0   0   0   0   0   0   0   0   0   0
  0   0   0   0   0   0   0   0   0   0   0   0   0   0   0   0   0   1   4   8  18  28  40  54
 70  87 107 114 119 130 140 151 157 157 159 156 161 161 160 164 169 168 168 168 168 169 170 169
163 157 160 161 162 165 169 165 167 145   0   0   7   0   0   0   0   0   0   0   0   0   0   0
  0   0   0   0
  0   0   0   0   0   0   0   0   0   0   0   0   0   0   0   0   0   0   0   0   0   0   0   0
  0   0   0   0   0   0   0   0   0   0   0   0   0   0   0   0   0   0   2   5  10  21  31  42
 58  74  90 101 110 116 128 144 148 148 148 149 155 151 154 158 159 160 163 161 162 165 163 158
157 153 153 156 156 156 159 160 167 145   1   0   7   0   0   0   0   0   0   0   0   0   0   0
  0   0   0   0
  0   0   0   0   0   0   0   0   0   0   0   0   0   0   0   0   0   0   0   0   0   0   0   0
  0   0   0   0   0   0   0   0   0   0   0   0   0   0   0   0   0   0   0   2   5  13  22  30
 48  57  68  83  95 104 116 128 135 139 145 151 150 149 151 149 149 152 153 153 157 158 154 150
147 145 147 151 148 146 150 153 164 143   0   0   6   0   0   0   0   0   0   0   0   0   0   0
  0   0   0   0
  0   0   0   0   0   0   0   0   0   0   0   0   0   0   0   0   0   0   0   0   0   0   0   0
  0   0   0   0   0   0   0   0   0   0   0   0   0   0   0   0   0   0   0   0   3   6  13  20
 35  45  56  68  78  89  96 107 117 122 133 140 142 143 140 140 142 148 151 150 152 148 147 145
140 138 140 141 139 138 138 135 150 136   1   0   6   0   0   0   0   0   0   0   0   0   0   0
  0   0   0   0
  0   0   0   0   0   0   0   0   0   0   0   0   0   0   0   0   0   0   0   0   0   0   0   0
  0   0   0   0   0   0   0   0   0   0   0   0   0   0   0   0   0   0   0   0   1   3   7  13
 21  32  43  54  65  75  83  90 100 113 120 124 128 126 130 132 136 139 145 143 143 140 138 133
129 128 129 132 129 125 124 124 138 125   0   0   5   0   0   0   0   0   0   0   0   0   0   0
  0   0   0   0
  0   0   0   0   0   0   0   0   0   0   0   0   0   0   0   0   0   0   0   0   0   0   0   0
  0   0   0   0   0   0   0   0   0   0   0   0   0   0   0   0   0   0   0   0   0   1   4   7
 12  20  30  40  51  61  71  80  88 104 115 116 116 114 119 124 123 122 124 122 124 126 120 116
116 116 116 120 120 117 116 118 130 113   1   0   4   0   0   0   0   0   0   0   0   0   0   0
  0   0   0   0
  0   0   0   0   0   0   0   0   0   0   0   0   0   0   0   0   0   0   0   0   0   0   0   0
  0   0   0   0   0   0   0   0   0   0   0   0   0   0   0   0   0   0   0   0   0   0   1   4
  7  12  20  28  38  46  56  66  75  84  94 100 105 101 103 105 106 109 109 106 110 110 106 107
104 105 106 105 105 108 108 108 120 108   0   0   4   0   0   0   0   0   0   0   0   0   0   0
  0   0   0   0
  0   0   0   0   0   0   0   0   0   0   0   0   0   0   0   0   0   0   0   0   0   0   0   0
  0   0   0   0   0   0   0   0   0   0   0   0   0   0   0   0   0   0   0   0   0   0   0   1
  4   7  11  17  26  34  43  52  60  64  65  75  84  83  84  87  93  95  94  90  93  95  96  95
 93  91  91  92  94  96  97  94 110 101   0   0   3   0   0   0   0   0   0   0   0   0   0   0
  0   0   0   0
  0   0   0   0   0   0   0   0   0   0   0   0   0   0   0   0   0   0   0   0   0   0   0   0
  0   0   0   0   0   0   0   0   0   0   0   0   0   0   0   0   0   0   0   0   0   0   0   0
  1   3   7  10  15  23  33  42  45  51  53  59  68  65  68  73  78  76  76  79  85  87  82  79
 75  74  76  79  80  82  82  81  86  77   0   0   2   0   0   0   0   0   0   0   0   0   0   0
  0   0   0   0
  0   0   0   0   0   0   0   0   0   0   0   0   0   0   0   0   0   0   0   0   0   0   0   0
  0   0   0   0   0   0   0   0   0   0   0   0   0   0   0   0   0   0   0   0   0   0   0   0
  0   0   3   6  11  15  20  24  30  36  39  47  55  51  55  57  59  62  64  68  71  68  64  63
 62  62  62  63  66  70  69  66  71  62   0   0   1   0   0   0   0   0   0   0   0   0   0   0
  0   0   0   0
  0   0   0   0   0   0   0   0   0   0   0   0   0   0   0   0   0   0   0   0   0   0   0   0
  0   0   0   0   0   0   0   0   0   0   0   0   0   0   0   0   0   0   0   0   0   0   0   0
  0   0   0   2   6   9  11  15  19  24  27  36  44  39  44  47  48  50  51  49  51  53  52  51
 51  50  49  50  53  53  53  53  59  53   1   0   1   0   0   0   0   0   0   0   0   0   0   0
  0   0   0   0
  0   0   0   0   0   0   0   0   0   0   0   0   0   0   0   0   0   0   0   0   0   0   0   0
  0   0   0   0   0   0   0   0   0   0   0   0   0   0   0   0   0   0   0   0   0   0   0   0
  0   0   0   0   1   4   7  10  12  15  16  26  35  29  32  34  36  39  38  40  42  43  44  43
 40  38  39  40  40  40  39  39  46  42   1   0   1   0   0   0   0   0   0   0   0   0   0   0
  0   0   0   0
  0   0   0   0   0   0   0   0   0   0   0   0   0   0   0   0   0   0   0   0   0   0   0   0
  0   0   0   0   0   0   0   0   0   0   0   0   0   0   0   0   0   0   0   0   0   0   0   0
  0   0   0   0   0   0   2   4   7  10   9  18  27  19  23  24  26  30  30  31  32  34  34  33
 31  31  31  31  33  33  32  31  36  32   1   0   0   0   0   0   0   0   0   0   0   0   0   0
  0   0   0   0
  0   0   0   0   0   0   0   0   0   0   0   0   0   0   0   0   0   0   0   0   0   0   0   0
  1   2   0   0   2   1   0   0   0   0   0   0   0   0   0   0   0   1   0   0   0   0   0   0
  0   0   0   0   0   0   0   0   2   5   4  13  22  10  14  16  18  21  21  21  22  24  24  22
 23  23  23  23  26  26  26  26  29  25   0   0   0   0   0   0   0   0   0   0   0   0   0   0
  0   0   0   0
  0   0   0   0   0   0   0   0   0   0   0   0   0   0   0   0   0   0   0   1   1   1   0   1
  0   0   0   0   2   1   0   0   0   0   0   0   0   0   0   0   0   0   0   0   0   0   0   0
  0   0   0   0   0   0   0   0   0   1   0   9  18   5   8   9  10  12  12  13  14  15  16  14
 15  15  16  17  19  21  20  19  23  19   0   0   0   0   0   0   0   0   0   0   0   0   0   0
  0   0   0   0
  0   0   0   0   0   0   0   0   0   0   0   0   0   0   0   0   0   0   0   1   1   1   1   1
  1   0   0   1   0   0   1   0   0   0   0   0   0   0   0   0   0   0   0   0   0   0   0   0
  0   0   0   0   0   0   0   0   0   0   0   5  14   1   3   4   5   6   6   7   7   7   8   8
  8   9  10  11  12  15  14  13  16  38  11   0   1   0   0   0   0   0   0   0   0   0   0   0
  0   0   0   0
  0   0   0   0   0   0   0   0   0   0   0   0   0   0   0   0   0   0   1   1   1   1   1   1
  1   1   1   0   1   1   1   1   1   0   0   0   0   0   0   0   0   0   0   0   0   0   0   0
  0   0   0   0   0   0   0   0   0   0   0   4  13   0   0   1   1   1   2   2   3   3   3   4
  4   5   5   5   6   7   9   7  14  51  17   0   1   0   0   0   0   0   0   0   0   0   0   0
  0   0   0   0
  0   0   0   0   0   0   0   0   0   0   0   0   0   0   0   0   0   0   1   1   1   1   1   1
  1   1   1   1   1   1   1   1   1   1   0   0   0   0   0   0   0   0   0   0   0   0   0   0
  0   0   0   0   0   0   0   0   0   0   0   4  13   0   0   0   0   0   0   0   0   1   1   1
  1   1   1   2   2   2   2   0  17  40   7   0   1   0   0   0   0   0   0   0   0   0   0   0
  0   0   0   0
  0   0   0   0   0   0   0   0   0   0   0   0   0   0   0   0   0   0   1   2   2   2   1   2
  1   1   1   1   1   1   1   1   1   1   1   0   0   0   0   0   0   0   0   0   0   0   0   0
  0   0   0   0   0   0   0   0   0   0   0   4  13   0   2   0   0   0   0   0   0   0   0   0
  0   0   0   0   0   0   0   0   6  22   3   0   0   0   0   0   0   0   0   0   0   0   0   0
  0   0   0   0
  0   0   0   0   0   0   0   0   0   0   0   0   0   0   0   0   0   0   1   2   2   2   2   2
  2   1   1   1   1   1   1   2   1   1   1   1   0   0   0   0   0   0   0   0   0   0   0   0
  0   0   0   0   0   0   0   0   0   0   0   5  13   0   1   0   0   0   0   0   0   0   0   0
  0   0   0   0   0   1   0   1   5   3   0   0   0   0   0   0   0   0   0   0   0   0   0   0
  0   0   0   0
  0   0   0   0   0   0   0   0   0   0   0   0   0   0   0   0   0   0   1   2   2   2   2   2
  2   2   1   2   2   2   2   2   2   2   1   1   1   1   0   1   1   0   1   0   0   0   0   0
  0   0   0   0   0   0   0   0   0   1   0   5  14   0   0   0   0   0   0   0   0   0   0   0
  0   0   0   0   0   1   0   3   7   7   0   0   0   0   0   0   0   0   0   0   0   0   0   0
  0   0   0   0
  0   0   0   0   0   0   0   0   0   0   0   0   0   0   0   0   0   0   1   3   3   3   2   2
  2   2   2   2   2   2   2   2   2   2   2   1   1   1   1   1   1   1   1   1   1   1   1   1
  1   1   1   1   0   0   0   1   1   1   0   5  14   0   0   0   0   0   0   0   0   0   0   0
  0   0   0   0   1   1   1   5   8   7   0   0   0   0   0   0   0   0   0   0   0   0   0   0
  0   0   0   0
  0   0   0   0   0   0   0   0   0   0   0   0   0   0   0   0   0   0   2   3   3   3   3   3
  3   3   2   2   2   2   3   3   3   2   2   2   2   2   1   1   1   1   1   1   1   1   1   1
  1   1   1   1   1   1   1   1   1   1   0   5  13   0   0   1   0   0   0   0   0   0   0   0
  0   0   0   1   2   2   3   6   9   8   0   0   0   0   0   0   0   0   0   0   0   0   0   0
  0   0   0   0
  0   0   0   0   0   0   0   0   0   0   0   0   0   0   0   0   0   0   2   3   3   4   3   4
  4   3   3   3   3   3   3   3   3   2   2   2   2   2   2   2   2   1   1   1   1   1   1   1
  1   1   1   1   1   1   1   1   1   2   0   5  14   0   1   1   1   0   1   0   0   0   0   0
  0   0   1   1   1   2   5   8  11  10   0   0   0   0   0   0   0   0   0   0   0   0   0   0
  0   0   0   0
  0   0   0   0   0   0   0   0   0   0   0   0   0   0   0   0   0   0   2   4   3   4   4   4
  4   3   3   3   3   3   3   4   4   3   3   3   3   2   2   2   2   2   2   2   2   2   2   1
  2   2   2   2   2   2   2   2   2   2   0   6  15   0   1   1   1   1   1   1   1   1   1   0
  1   1   1   1   1   3   7  10  13  12   0   0   0   0   0   0   0   0   0   0   0   0   0   0
  0   0   0   0
  0   0   0   0   0   0   0   0   0   0   0   0   0   0   0   0   0   0   2   4   4   4   4   4
  4   4   4   4   4   4   4   4   4   3   3   3   3   3   3   3   3   3   3   2   2   2   2   2
  2   3   2   2   3   2   3   3   2   3   0   7  15   1   2   2   2   2   2   1   1   1   1   1
  1   1   1   1   2   4   9  11  15  14   0   0   0   0   0   0   0   0   0   0   0   0   0   0
  0   0   0   0
