P2
# 8-bit pgm gray
100 100
255
  0   0   0   0   0   0   0   0   0   0   0   0   0   0   0   0   0   0   0   0   0   0   3   0
 24  87  80 168 224 229 234 203 212 234 228 225 182  69  67  71  68  69  68  69  69  71  74  78
 83  86  93 105 110 106 107 111 112 139 173 185 192 195 197 198 200 201 199 200 199 199 200 201
195 198 197  82   0  21   0   0   0   0   0   0   0   0   0   0   0   0   0   0   0   0   0   0
  0   0   0   0
  0   0   0   0   0   0   0   0   0   0   0   0   0   0   0   0   0   0   0   0   0   0   0   2
  0   0   0 159 231 238 248 207 216 248 240 238 187   0   0   0   0   0   0   0   0   0   0  21
 40  58  65  73  87  92  98 108 113 136 180 199 208 213 215 216 217 219 219 219 220 220 221 219
216 218 211  88   0  23   0   0   0   0   0   0   0   0   0   0   0   0   0   0   0   0   0   0
  0   0   0   0
  0   0   0   0   0   0   0   0   0   0   0   0   0   0   0   0   0   0   0   0   0   0   0   0
  6  29   0 161 229 236 242 198 212 245 237 234 187  23   0  25  14  16  17  21  24  29  36  46
 55  68  76  84  94  97 102 109 115 125 163 190 201 207 207 209 210 213 214 214 215 215 213 214
213 213 202  81   0  21   0   0   0   0   0   0   0   0   0   0   0   0   0   0   0   0   0   0
  0   0   0   0
  0   0   0   0   0   0   0   0   0   0   0   0   0   0   0   0   0   0   0   0   0   0   0   0
  4  12   0 161 229 239 221 183 225 243 238 235 187  14   0  14   0   0   1   6  13  21  30  41
 52  63  73  82  91  96 102 106 112 121 153 186 198 204 207 210 212 213 214 214 214 215 214 215
214 216 205  81   0  22   0   0   0   0   0   0   0   0   0   0   0   0   0   0   0   0   0   0
  0   0   0   0
  0   0   0   0   0   0   0   0   0   0   0   0   0   0   0   0   0   0   0   0   0   0   0   0
  5  13   0 161 228 238 240 243 243 244 240 234 188  18   0  16   0   0   3   7  14  21  30  40
 52  63  73  83  90  98 102 106 114 120 141 176 193 200 205 209 210 212 213 214 214 214 216 216
213 216 205  81   0  21   0   0   0   0   0   0   0   0   0   0   0   0   0   0   0   0   0   0
  0   0   0   0
  0   0   0   0   0   0   0   0   0   0   0   0   0   0   0   0   0   0   0   0   0   0   0   0
  5  13   0 159 229 230 228 220 236 220 229 236 186  21   0  16   0   0   3   7  13  21  30  41
 53  63  73  83  92 101 104 108 115 120 131 165 188 198 203 205 209 210 212 214 215 217 219 216
212 214 206  82   0  22   0   0   0   0   0   0   0   0   0   0   0   0   0   0   0   0   0   0
  0   0   0   0
  0   0   0   0   0   0   0   0   0   0   0   0   0   0   0   0   0   0   0   0   0   0   0   0
  5  12   0 157 229 214 199 163 187 154 212 236 182  20   0  15   0   0   3   7  13  21  30  41
 53  64  75  84  94 100 104 109 114 120 128 155 183 196 200 204 209 209 212 213 213 214 215 212
209 213 205  82   0  22   0   0   0   0   0   0   0   0   0   0   0   0   0   0   0   0   0   0
  0   0   0   0
  0   0   0   0   0   0   0   0   0   0   0   0   0   0   0   0   0   0   0   0   0   0   0   0
  4  13   0 154 229 216 193 182 147 157 216 233 182  20   0  15   0   1   3   8  14  22  31  42
 53  65  75  87  96 100 104 109 115 120 126 144 174 190 199 204 205 208 211 212 213 212 213 211
209 213 206  82   0  22   0   0   0   0   0   0   0   0   0   0   0   0   0   0   0   0   0   0
  0   0   0   0
  0   0   0   0   0   0   0   0   0   0   0   0   0   0   0   0   0   0   0   0   0   0   0   0
  4  14   0 154 218 189 191 200 217 200 217 233 182  23   0  15   0   1   4   8  14  22  32  43
 55  64  75  87  95 101 104 110 116 121 127 137 166 187 198 200 203 208 209 210 211 211 212 211
209 214 208  84   0  22   0   0   0   0   0   0   0   0   0   0   0   0   0   0   0   0   0   0
  0   0   0   0
  0   0   0   0   0   0   0   0   0   0   0   0   0   0   0   0   0   0   0   0   0   0   0   0
  3  14   0 152 211 203 222 230 239 233 229 229 181  20   0  15   0   1   4   8  15  23  32  43
 54  66  76  87  97 102 105 111 117 123 127 133 156 183 193 198 203 205 206 208 210 212 212 210
209 214 206  83   0  22   0   0   0   0   0   0   0   0   0   0   0   0   0   0   0   0   0   0
  0   0   0   0
  0   0   0   0   0   0   0   0   0   0   0   0   0   0   0   0   0   0   0   0   0   0   0   0
  2  16   0 144 216 232 235 237 236 237 233 225 177  18   0  14   0   1   4   9  16  24  34  46
 57  68  79  90 100 105 109 114 121 125 128 128 147 175 187 198 200 202 205 208 210 211 210 210
209 213 205  82   0  22   0   0   0   0   0   0   0   0   0   0   0   0   0   0   0   0   0   0
  0   0   0   0
  0   0   0   0   0   0   0   0   0   0   0   0   0   0   0   0   0   0   0   0   0   0   0   0
  1  13   0 114 180 195 203 207 210 209 205 196 151   8   0  10   0   1   4   9  16  25  36  49
 59  69  80  90 101 108 112 115 125 128 125 130 140 162 182 194 198 201 205 208 208 209 211 211
209 213 205  83   0  22   0   0   0   0   0   0   0   0   0   0   0   0   0   0   0   0   0   0
  0   0   0   0
  0   0   0   0   0   0   0   0   0   0   0   0   0   0   0   0   0   0   0   0   0   0   0   0
  0   2   0  20  52  67  75  80  84  85  83  77  55   0   0   1   0   1   5  10  17  26  36  47
 60  72  83  90 102 111 115 122 128 125 128 134 131 155 180 190 197 201 205 206 207 209 210 210
209 212 205  84   0  22   0   0   0   0   0   0   0   0   0   0   0   0   0   0   0   0   0   0
  0   0   0   0
  0   0   0   0   0   0   0   0   0   0   0   0   0   0   0   0   0   0   0   0   0   0   0   0
  0   0   2   0   0   0   0   0   0   0   0   0   0   1   0   0   0   1   5  11  18  27  39  51
 61  74  85  94 104 114 119 126 125 125 129 127 131 149 172 183 193 200 203 204 206 209 209 210
209 213 205  83   0  22   0   0   0   0   0   0   0   0   0   0   0   0   0   0   0   0   0   0
  0   0   0   0
  0   0   0   0   0   0   0   0   0   0   0   0   0   0   0   0   0   0   0   0   0   0   0   0
  0   0   0   6  18  21  23  24  25  25  23  22  14   0   0   0   0   2   6  12  19  29  40  51
 63  75  86  97 110 116 119 121 124 128 125 127 135 140 161 177 189 199 201 203 206 208 208 209
209 214 207  83   0  22   0   0   0   0   0   0   0   0   0   0   0   0   0   0   0   0   0   0
  0   0   0   0
  0   0   0   0   0   0   0   0   0   0   0   0   0   0   0   0   0   0   0   0   0   0   0   0
  0   0   0   0   0   0   0   0   0   0   0   0   0   0   0   0   0   2   7  14  21  31  41  52
 63  75  89 102 111 115 117 121 126 124 122 127 131 132 153 175 189 197 199 202 205 206 208 208
209 214 206  83   0  22   0   0   0   0   0   0   0   0   0   0   0   0   0   0   0   0   0   0
  0   0   0   0
  0   0   0   0   0   0   0   0   0   0   0   0   0   0   0   0   0   0   0   0   0   0   0   0
  0   0   0   0   0   0   0   0   0   0   0   0   0   0   0   3   1   3   8  15  22  31  42  53
 64  74  90 106 110 113 118 124 123 121 124 129 130 133 145 171 185 192 197 200 203 207 209 209
210 214 207  84   0  22   0   0   0   0   0   0   0   0   0   0   0   0   0   0   0   0   0   0
  0   0   0   0
  0   0   0   0   0   0   0   0   0   0   0   0   0   0   0   0   0   0   0   0   0   0   0   0
  0   0   0   0   0   0   0   0   0   0   0   0   0   0   0   4   2   3   8  15  23  32  44  55
 65  75  90 107 116 120 122 123 122 125 129 131 131 131 137 162 180 187 195 200 204 206 207 208
209 215 206  82   0  22   0   0   0   0   0   0   0   0   0   0   0   0   0   0   0   0   0   0
  0   0   0   0
  0   0   0   0   0   0   0   0   0   0   0   0   0   0   0   0   0   0   0   0   0   0   0   0
  0   0   0   0   0   0   0   0   0   0   0   0   0   0   0   0   1   4   9  16  24  34  44  55
 65  74  86 107 123 123 122 121 121 124 126 126 129 128 132 152 173 186 193 199 202 205 207 208
208 214 206  80   0  21   0   0   0   0   0   0   0   0   0   0   0   0   0   0   0   0   0   0
  0   0   0   0
  0   0   0   0   0   0   0   0   0   0   0   0   0   0   0   0   0   0   0   0   0   0   0   0
  0   0   0   0   0   0   0   0   0   0   0   0   0   0   0   0   1   5  10  17  26  36  46  56
 66  77  92 106 116 119 119 121 123 126 125 125 126 128 133 143 165 180 190 196 200 203 207 208
206 213 206  80   0  22   0   0   0   0   0   0   0   0   0   0   0   0   0   0   0   0   0   0
  0   0   0   0
  0   0   0   0   0   0   0   0   0   0   0   0   0   0   0   0   0   0   0   0   0   0   0   0
  0   0   0   0   0   0   0   0   0   0   0   0   0   0   0   0   1   6  11  18  29  39  47  58
 72  83  95 110 118 119 118 119 123 124 125 125 126 128 132 138 156 174 186 193 198 201 206 208
207 213 206  81   0  22   0   0   0   0   0   0   0   0   0   0   0   0   0   0   0   0   0   0
  0   0   0   0
  0   0   0   0   0   0   0   0   0   0   0   0   0   0   0   0   0   0   0   0   0   0   0   0
  0   0   0   0   2   1   0   0   0   0   0   0   0   0   0   0   3   7  13  21  30  40  50  64
 75  85  97 112 117 117 119 121 121 121 124 127 127 128 130 134 149 169 182 191 197 200 203 206
207 213 205  82   0  22   0   0   0   0   0   0   0   0   0   0   0   0   0   0   0   0   0   0
  0   0   0   0
  0   0   0   0   0   0   0   0   0   0   0   0   0   0   0   0   0   0   0   0   0   0   0   0
  0   0   0   1   0   0   1   0   0   0   0   0   0   0   0   1   4   9  15  23  31  42  55  67
 78  88 106 114 116 116 117 119 120 121 122 127 130 129 130 131 143 162 179 189 195 199 201 205
207 213 205  82   0  22   0   0   0   0   0   0   0   0   0   0   0   0   0   0   0   0   0   0
  0   0   0   0
  0   0   0   0   0   0   0   0   0   0   0   0   0   0   0   0   0   0   0   0   0   0   0   0
  0   0   1   0   7   9   0   0   0   0   0   0   0   0   0   2   5  10  17  25  36  48  59  70
 79  96 111 114 117 119 119 119 120 121 123 129 131 130 130 132 139 157 174 185 193 200 201 204
206 213 205  82   0  22   0   0   0   0   0   0   0   0   0   0   0   0   0   0   0   0   0   0
  0   0   0   0
  0   0   0   0   0   0   0   0   0   0   0   0   0   0   0   0   0   0   0   0   0   0   0   0
  0   3   0  26  63  33   0   2   0   0   0   0   0   0   0   3   7  13  19  28  39  52  64  74
 86 103 108 114 118 121 121 118 119 123 126 127 126 128 133 134 135 149 170 183 191 198 202 205
207 213 206  82   0  22   0   0   0   0   0   0   0   0   0   0   0   0   0   0   0   0   0   0
  0   0   0   0
  0   0   0   0   0   0   0   0   0   0   0   0   0   0   0   0   0   0   0   0   0   0   0   0
  0   3   0  25  59  28   0   2   0   0   0   0   0   0   1   4   8  15  23  32  45  57  69  81
 97 104 110 115 117 118 118 119 121 123 124 126 127 128 132 136 134 145 166 180 188 193 199 203
206 214 207  82   0  22   0   0   0   0   0   0   0   0   0   0   0   0   0   0   0   0   0   0
  0   0   0   0
  0   0   0   0   0   0   0   0   0   0   0   0   0   0   0   0   0   0   0   0   0   0   0   0
  0   0   3   0  46  64   0   0   1   0   0   0   0   0   1   5  10  18  26  37  50  62  73  92
101 104 112 115 115 116 118 120 122 124 126 126 130 132 133 137 136 142 159 173 185 190 197 201
205 213 207  82   0  22   0   0   0   0   0   0   0   0   0   0   0   0   0   0   0   0   0   0
  0   0   0   0
  0   0   0   0   0   0   0   0   0   0   0   0   0   0   0   0   0   0   0   0   0   0   0   0
  0   0   0   0  40  43   0   0   1   0   0   0   0   0   2   6  12  20  30  41  53  66  80  98
103 109 113 116 119 119 118 119 122 127 127 128 130 131 132 135 135 138 156 169 183 191 195 199
203 211 205  82   0  22   0   0   0   0   0   0   0   0   0   0   0   0   0   0   0   0   0   0
  0   0   0   0
  0   0   0   0   0   0   0   0   0   0   0   0   0   0   0   0   0   0   0   0   0   0   0   0
  0   0   0   0   0   0   0   0   0   0   0   0   0   0   4   8  14  23  33  45  59  73  87  99
106 111 114 117 120 119 117 120 125 129 130 130 128 131 134 135 137 139 152 165 179 188 193 198
202 208 202  81   0  21   0   0   0   0   0   0   0   0   0   0   0   0   0   0   0   0   0   0
  0   0   0   0
  0   0   0   0   0   0   0   0   0   0   0   0   0   0   0   0   0   0   0   0   0   0   0   0
  0   0   0   0   0   2   0   0   0   0   0   0   0   1   5  10  17  27  38  50  64  76  91 105
108 111 116 119 119 119 120 122 126 129 128 130 130 132 136 135 134 138 145 158 171 183 190 197
200 207 202  81   0  21   0   0   0   0   0   0   0   0   0   0   0   0   0   0   0   0   0   0
  0   0   0   0
  0   0   0   0   0   0   0   0   0   0   0   0   0   0   0   0   0   0   0   0   0   0   0   0
  0   0   0   0   1   0   0   0   0   0   0   0   0   2   6  12  20  30  41  54  68  79  95 107
109 113 115 118 119 119 120 123 124 127 126 128 129 133 135 130 132 135 140 157 169 179 188 193
197 206 201  80   0  21   0   0   0   0   0   0   0   0   0   0   0   0   0   0   0   0   0   0
  0   0   0   0
  0   0   0   0   0   0   0   0   0   0   0   0   0   0   0   0   0   0   0   0   0   0   0   0
  0   0   0   0   0   0   0   0   0   0   0   0   0   3   9  15  22  32  45  59  72  84  97 107
111 115 115 116 118 120 121 123 125 125 127 130 131 132 130 130 133 135 139 154 167 175 185 192
195 203 200  80   0  21   0   0   0   0   0   0   0   0   0   0   0   0   0   0   0   0   0   0
  0   0   0   0
  0   0   0   0   0   0   0   0   0   0   0   0   0   0   0   0   0   0   0   0   0   0   0   0
  0   0   0   0   0   0   0   0   0   0   0   0   1   4  10  18  26  36  49  64  76  87  99 108
114 118 118 119 122 123 124 125 127 128 129 130 133 133 132 133 134 138 139 147 161 171 180 188
194 204 200  81   0  21   0   0   0   0   0   0   0   0   0   0   0   0   0   0   0   0   0   0
  0   0   0   0
  0   0   0   0   0   0   0   0   0   0   0   0   0   0   0   0   0   0   0   0   0   0   0   0
  0   0   0   0   0   0   0   0   0   0   0   0   2   6  12  20  30  43  56  67  79  93 104 111
114 118 118 121 124 123 125 127 127 131 130 132 134 133 134 134 134 138 138 142 158 167 176 186
193 203 197  79   0  20   0   0   0   0   0   0   0   0   0   0   0   0   0   0   0   0   0   0
  0   0   0   0
  0   0   0   0   0   0   0   0   0   0   0   0   0   0   0   0   0   0   0   0   0   0   0   0
  0   0   0   0   0   0   0   0   0   0   0   0   3   7  14  22  32  45  61  71  83  95 105 112
116 118 120 123 122 123 124 127 132 133 130 134 136 135 135 132 134 137 140 140 151 164 172 184
192 199 195  79   0  20   0   0   0   0   0   0   0   0   0   0   0   0   0   0   0   0   0   0
  0   0   0   0
  0   0   0   0   0   0   0   0   0   0   0   0   0   0   0   0   0   0   0   0   0   0   0   0
  0   0   0   0   0   0   0   0   0   0   0   1   4   9  16  26  37  50  65  77  87 101 112 119
124 122 121 124 125 124 126 131 133 135 134 137 139 138 136 134 136 138 139 139 147 162 168 179
187 196 194  79   0  20   0   0   0   0   0   0   0   0   0   0   0   0   0   0   0   0   0   0
  0   0   0   0
  0   0   0   0   0   0   0   0   0   0   0   0   0   0   0   0   0   0   0   0   0   0   0   0
  0   0   0   0   0   0   0   0   0   0   0   1   5  10  18  28  41  55  69  84  98 114 121 122
123 120 121 125 125 126 128 131 131 134 137 140 141 139 137 135 135 140 140 139 144 160 168 177
183 194 193  77   0  20   0   0   0   0   0   0   0   0   0   0   0   0   0   0   0   0   0   0
  0   0   0   0
  0   0   0   0   0   0   0   0   0   0   0   0   0   0   0   0   0   0   0   0   0   0   0   0
  0   0   0   0   0   0   0   0   0   0   0   2   6  12  21  32  45  57  72  89 106 116 123 121
120 118 122 126 124 126 130 131 133 135 137 138 139 137 136 135 138 143 141 138 137 150 166 172
179 190 189  77   0  19   0   0   0   0   0   0   0   0   0   0   0   0   0   0   0   0   0   0
  0   0   0   0
  0   0   0   0   0   0   0   0   0   0   0   0   0   0   0   0   0   0   0   0   0   0   0   0
  0   0   0   0   0   0   0   0   0   0   0   3   8  15  24  37  49  61  76  88 104 115 124 127
121 121 122 126 127 129 133 134 135 136 137 137 136 136 136 137 139 138 135 135 137 141 157 167
176 186 185  77   0  19   0   0   0   0   0   0   0   0   0   0   0   0   0   0   0   0   0   0
  0   0   0   0
  0   0   0   0   0   0   0   0   0   0   0   0   0   0   0   0   0   0   0   0   0   0   0   0
  0   0   0   0   0   0   0   0   0   0   1   5  10  17  27  40  53  68  80  90 102 115 120 131
127 124 124 124 127 130 135 137 138 137 134 138 139 138 137 136 137 135 135 137 139 138 148 165
172 183 183  75   0  18   0   0   0   0   0   0   0   0   0   0   0   0   0   0   0   0   0   0
  0   0   0   0
  0   0   0   0   0   0   0   0   0   0   0   0   0   0   0   0   0   0   0   0   0   0   0   0
  0   0   0   0   0   0   0   0   0   0   2   6  12  20  31  44  58  73  84  96 106 116 120 131
133 126 126 126 128 134 138 136 141 141 142 144 141 141 139 137 136 134 137 138 139 142 148 162
171 183 181  72   0  18   0   0   0   0   0   0   0   0   0   0   0   0   0   0   0   0   0   0
  0   0   0   0
  0   0   0   0   0   0   0   0   0   0   0   0   0   0   0   0   0   0   0   0   0   0   0   0
  0   0   0   0   0   0   0   0   0   0   2   7  14  23  36  49  63  75  87  98 108 115 119 128
139 136 133 128 129 138 144 145 149 152 156 155 146 143 142 141 135 134 137 139 143 145 146 157
170 181 180  73   0  18   0   0   0   0   0   0   0   0   0   0   0   0   0   0   0   0   0   0
  0   0   0   0
  0   0   0   0   0   0   0   0   0   0   0   0   0   0   0   0   0   0   0   0   0   0   0   0
  0   0   0   0   0   0   0   0   0   0   4   9  15  25  41  52  66  80  93 101 109 117 120 128
145 146 134 132 133 140 151 155 157 161 165 164 151 142 145 141 137 138 139 141 142 140 141 150
162 175 176  72   0  17   0   0   0   0   0   0   0   0   0   0   0   0   0   0   0   0   0   0
  0   0   0   0
  0   0   0   0   0   0   0   0   0   0   0   0   0   0   0   0   0   0   0   0   0   0   0   0
  0   0   0   0   0   0   0   0   0   1   5  10  17  30  44  57  71  85  96 105 114 118 121 130
143 150 137 136 136 148 163 169 171 171 170 167 153 143 145 142 141 142 139 141 141 139 139 144
159 175 173  70   0  17   0   0   0   0   0   0   0   0   0   0   0   0   0   0   0   0   0   0
  0   0   0   0
  0   0   0   0   0   0   0   0   0   0   0   0   0   0   0   0   0   0   0   0   0   0   0   0
  0   0   0   0   0   0   0   0   0   1   6  11  23  35  47  63  76  87  98 108 116 120 129 132
142 152 138 134 138 159 179 188 188 178 172 166 152 144 146 146 145 146 141 143 143 138 139 145
155 171 168  68   0  16   0   0   0   0   0   0   0   0   0   0   0   0   0   0   0   0   0   0
  0   0   0   0
  0   0   0   0   0   0   0   0   0   0   0   0   0   0   0   0   0   0   0   0   0   0   0   0
  0   0   0   0   0   0   0   0   0   2   7  14  26  38  51  66  81  92 102 111 120 129 133 135
146 153 145 141 142 175 195 198 192 181 176 169 153 149 152 148 149 145 143 146 142 139 142 145
143 161 167  67   0  16   0   0   0   0   0   0   0   0   0   0   0   0   0   0   0   0   0   0
  0   0   0   0
  0   0   0   0   0   0   0   0   0   0   0   0   0   0   0   0   0   0   0   0   0   0   0   0
  0   0   0   0   0   0   0   0   0   3   8  17  29  41  55  70  85  98 106 113 123 133 137 140
149 157 150 151 160 180 195 199 190 184 180 170 164 161 157 153 151 144 145 144 139 141 141 142
143 155 164  68   0  16   0   0   0   0   0   0   0   0   0   0   0   0   0   0   0   0   0   0
  0   0   0   0
  0   0   0   0   0   0   0   0   0   0   0   0   0   0   0   0   0   0   0   0   0   0   0   0
  0   0   0   0   0   0   0   0   0   4  10  19  30  44  60  75  89  99 105 115 123 127 140 150
162 168 162 161 172 180 184 194 196 192 186 179 175 170 166 163 155 150 146 141 139 141 139 140
143 149 155  67   0  15   0   0   0   0   0   0   0   0   0   0   0   0   0   0   0   0   0   0
  0   0   0   0
  0   0   0   0   0   0   0   0   0   0   0   0   0   0   0   0   0   0   0   0   0   0   0   0
  0   0   0   0   0   0   0   0   1   5  12  21  32  47  62  78  90  99 109 117 121 126 146 169
177 183 186 175 178 188 190 196 204 202 199 200 195 182 175 172 164 156 144 137 139 138 139 142
138 143 149  65   0  14   0   0   0   0   0   0   0   0   0   0   0   0   0   0   0   0   0   0
  0   0   0   0
  0   0   0   0   0   0   0   0   0   0   0   0   0   0   0   0   0   0   0   0   0   0   0   0
  0   0   0   0   0   0   0   0   1   6  14  23  35  48  64  81  93 102 109 117 124 135 165 184
188 193 196 191 190 200 203 206 213 213 210 211 209 202 186 175 169 159 144 140 141 141 142 137
137 146 150  64   0  14   0   0   0   0   0   0   0   0   0   0   0   0   0   0   0   0   0   0
  0   0   0   0
  0   0   0   0   0   0   0   0   0   0   0   0   0   0   0   0   0   0   0   0   0   0   0   0
  0   0   0   0   0   0   0   0   2   7  15  25  38  52  67  84  98 104 110 116 125 150 182 189
198 199 195 192 192 201 206 214 219 220 214 213 212 205 188 175 163 155 147 142 140 143 142 137
140 151 151  60   0  13   0   0   0   0   0   0   0   0   0   0   0   0   0   0   0   0   0   0
  0   0   0   0
  0   0   0   0   0   0   0   0   0   0   0   0   0   0   0   0   0   0   0   0   0   0   0   0
  0   0   0   0   0   0   0   0   3   9  18  27  40  55  70  85  98 105 112 120 130 163 187 191
200 197 189 188 186 199 210 216 219 221 215 209 211 203 193 185 164 156 155 146 142 141 139 141
143 151 148  57   0  12   0   0   0   0   0   0   0   0   0   0   0   0   0   0   0   0   0   0
  0   0   0   0
  0   0   0   0   0   0   0   0   0   0   0   0   0   0   0   0   0   0   0   0   0   0   0   0
  0   0   0   0   0   0   0   0   4  10  21  30  41  57  73  86  98 107 113 119 133 172 193 200
198 195 201 201 196 201 210 213 216 218 215 210 210 206 200 194 168 161 162 150 145 143 143 149
145 150 147  59   0  13   0   0   0   0   0   0   0   0   0   0   0   0   0   0   0   0   0   0
  0   0   0   0
  0   0   0   0   0   0   0   0   0   0   0   0   0   0   0   0   0   0   0   0   0   0   0   0
  0   0   0   0   0   0   0   0   4  10  20  32  46  60  77  92 102 111 119 121 142 179 195 204
205 208 213 217 213 206 209 212 213 210 208 205 203 206 202 190 172 167 162 156 153 154 155 152
148 153 147  58   0  12   0   0   0   0   0   0   0   0   0   0   0   0   0   0   0   0   0   0
  0   0   0   0
  0   0   0   0   0   0   0   0   0   0   0   0   0   0   0   0   0   0   0   0   0   0   0   0
  0   0   0   0   0   0   0   0   5  11  19  32  49  65  83  99 109 116 126 133 160 190 201 206
208 209 217 223 220 213 208 203 202 199 200 197 193 202 199 180 173 168 163 166 168 163 152 148
152 154 144  56   0  12   0   0   0   0   0   0   0   0   0   0   0   0   0   0   0   0   0   0
  0   0   0   0
  0   0   0   0   0   0   0   0   0   0   0   0   0   0   0   0   0   0   0   0   0   0   0   0
  0   0   0   0   0   0   0   1   5  12  20  31  49  65  85  97 110 123 131 146 162 185 201 209
212 209 217 219 214 210 201 194 190 187 194 191 181 186 191 186 176 170 169 173 179 174 155 147
150 150 145  59   0  12   0   0   0   0   0   0   0   0   0   0   0   0   0   0   0   0   0   0
  0   0   0   0
  0   0   0   0   0   0   0   0   0   0   0   0   0   0   0   0   0   0   0   0   0   0   0   0
  0   0   0   0   0   0   0   1   5  13  21  31  48  66  85 100 109 121 132 148 156 172 192 208
212 210 212 213 211 208 198 192 191 194 188 177 171 174 182 183 179 174 171 175 178 178 163 151
147 152 151  60   0  13   0   0   0   0   0   0   0   0   0   0   0   0   0   0   0   0   0   0
  0   0   0   0
  0   0   0   0   0   0   0   0   0   0   0   0   0   0   0   0   0   0   0   0   0   0   0   0
  0   0   0   0   0   0   0   1   6  13  21  32  48  67  86 104 110 114 128 143 154 165 185 207
210 210 209 207 211 207 200 200 202 198 186 177 177 175 178 177 175 179 175 168 171 175 159 146
148 156 153  61   0  13   0   0   0   0   0   0   0   0   0   0   0   0   0   0   0   0   0   0
  0   0   0   0
  0   0   0   0   0   0   0   0   0   0   0   0   0   0   0   0   0   0   0   0   0   0   0   0
  0   0   0   0   0   0   0   1   6  13  21  33  48  65  83 103 113 116 128 144 157 169 188 207
210 212 207 204 207 206 206 207 197 190 189 185 183 176 176 178 174 181 170 155 165 163 149 146
149 156 154  62   0  14   0   0   0   0   0   0   0   0   0   0   0   0   0   0   0   0   0   0
  0   0   0   0
  0   0   0   0   0   0   0   0   0   0   0   0   0   0   0   0   0   0   0   0   0   0   0   0
  0   1   2   0   0   0   0   0   6  13  20  33  48  65  82 100 112 116 125 147 163 173 189 210
211 210 202 188 190 206 210 208 196 194 193 192 188 175 173 179 177 175 162 158 162 154 151 149
151 161 161  64   0  15   0   0   0   0   0   0   0   0   0   0   0   0   0   0   0   0   0   0
  0   0   0   0
  0   0   0   0   0   0   0   0   0   0   0   0   0   0   0   0   0   0   0   0   0   0   0   0
  0   0   0   0   0   0   0   0   6  13  20  32  47  64  80  96 111 117 120 141 162 172 189 210
208 201 182 171 187 201 212 205 197 193 195 195 188 171 175 183 180 178 170 167 163 158 154 154
157 168 162  61   0  14   0   0   0   0   0   0   0   0   0   0   0   0   0   0   0   0   0   0
  0   0   0   0
  0   0   0   0   0   0   0   0   0   0   0   0   0   0   0   0   0   0   0   0   0   0   0   0
  0   0   0   0   0   0   0   0   5  12  20  31  45  61  77  95 110 115 120 132 154 175 195 204
201 195 181 179 190 197 206 206 195 191 198 199 187 176 177 178 178 177 173 166 162 160 154 155
161 165 156  59   0  13   0   0   0   0   0   0   0   0   0   0   0   0   0   0   0   0   0   0
  0   0   0   0
  0   0   0   0   0   0   0   0   0   0   0   0   0   0   0   0   0   0   0   0   0   0   0   0
  0   0   0   0   0   0   0   0   5  12  20  31  43  60  76  92 107 113 117 125 150 183 199 202
198 191 189 192 194 194 196 203 196 193 194 192 185 182 172 170 176 177 177 168 161 158 153 157
157 162 159  61   0  14   0   0   0   0   0   0   0   0   0   0   0   0   0   0   0   0   0   0
  0   0   0   0
  0   0   0   0   0   0   0   0   0   0   0   0   0   0   0   0   0   0   0   0   0   0   0   0
  0   0   0   0   0   0   0   0   4  12  20  31  42  56  75  88 102 111 116 128 157 188 196 201
194 189 192 194 200 198 199 197 197 192 191 187 182 185 181 179 185 189 179 164 160 159 158 159
155 163 158  59   0  14   0   0   0   0   0   0   0   0   0   0   0   0   0   0   0   0   0   0
  0   0   0   0
  0   0   0   0   0   0   0   0   0   0   0   0   0   0   0   0   0   0   0   0   0   0   0   0
  0   0   0   0   0   0   0   0   3  11  19  29  40  54  72  86  99 113 121 139 167 188 195 195
188 191 196 195 196 196 203 196 185 188 193 188 188 195 194 189 198 191 174 169 163 160 166 161
157 163 155  58   0  13   0   0   0   0   0   0   0   0   0   0   0   0   0   0   0   0   0   0
  0   0   0   0
  0   0   0   0   0   0   0   0   0   0   0   0   0   0   0   0   0   0   0   0   0   0   0   0
  0   0   0   0   0   0   0   0   1  11  19  27  37  51  66  80  94 111 122 139 165 188 195 198
192 192 198 192 187 186 186 188 190 193 196 192 194 198 197 190 184 175 176 175 167 174 173 164
161 160 153  61   0  13   0   0   0   0   0   0   0   0   0   0   0   0   0   0   0   0   0   0
  0   0   0   0
  0   0   0   0   0   0   0   0   0   0   0   0   0   0   0   0   0   0   0   0   0   0   0   0
  0   0   0   0   0   0   0   0   0  10  17  26  35  46  60  73  88 107 120 135 166 189 196 202
198 198 200 190 183 181 181 185 194 194 194 192 193 194 191 181 171 174 176 174 182 184 173 167
161 161 159  64   0  14   0   0   0   0   0   0   0   0   0   0   0   0   0   0   0   0   0   0
  0   0   0   0
  0   0   0   0   0   0   0   0   0   0   0   0   0   0   0   0   0   0   0   0   0   0   0   0
  0   0   0   0   0   0   0   0   0   8  17  24  34  44  56  68  80 102 124 142 167 190 199 206
202 199 196 190 186 183 182 189 189 187 186 188 196 198 187 175 181 179 176 183 182 170 165 155
154 163 162  62   0  14   0   0   0   0   0   0   0   0   0   0   0   0   0   0   0   0   0   0
  0   0   0   0
  0   0   0   0   0   0   0   0   0   0   0   0   0   0   0   0   0   0   0   0   0   0   0   0
  0   0   0   0   0   0   0   0   0   9  19  27  33  42  55  66  76  95 117 142 172 188 189 199
206 198 186 193 203 200 196 190 182 182 186 187 184 181 178 191 194 179 175 179 170 165 160 152
154 165 161  59   0  14   0   0   0   0   0   0   0   0   0   0   0   0   0   0   0   0   0   0
  0   0   0   0
  0   0   0   0   0   0   0   0   0   0   0   0   0   0   0   0   0   0   0   0   0   0   0   0
  0   0   0   0   0   0   0   0   0   8  21  29  41  43  52  64  73  86 101 141 180 188 184 191
200 201 193 196 202 201 196 193 188 183 178 168 162 163 178 194 187 173 177 178 171 168 156 151
160 170 158  59   0  14   0   0   0   0   0   0   0   0   0   0   0   0   0   0   0   0   0   0
  0   0   0   0
  0   0   0   0   0   0   0   0   0   0   0   0   0   0   0   0   0   0   0   0   0   0   0   0
  0   0   0   0   0   0   0   1   0   8  25  27  52  56  51  65  74  85 108 147 170 180 182 188
192 195 197 192 191 190 191 191 184 182 168 156 159 176 193 190 177 169 172 172 171 167 154 155
165 170 160  60   0  14   0   0   0   0   0   0   0   0   0   0   0   0   0   0   0   0   0   0
  0   0   0   0
  0   0   0   0   0   0   0   0   0   0   0   0   0   0   0   0   0   0   0   0   0   0   0   0
  0   0   0   0   0   0   0   1   0   3  33  33  39  58  63  71  86 110 140 157 162 170 177 183
186 191 191 188 186 189 196 190 186 183 175 173 189 196 192 184 173 165 165 169 176 163 154 160
167 171 163  63   0  15   0   0   0   0   0   0   0   0   0   0   0   0   0   0   0   0   0   0
  0   0   0   0
  0   0   0   0   0   0   0   0   0   0   0   0   0   0   0   0   0   0   0   0   0   0   0   0
  0   0   0   0   0   0   0   0   1   0  33  44  38  51  68  77  87 111 137 149 158 162 168 182
189 188 186 187 185 187 191 195 194 187 183 188 194 194 189 172 162 167 171 180 176 156 154 162
166 170 170  65   0  16   0   0   0   0   0   0   0   0   0   0   0   0   0   0   0   0   0   0
  0   0   0   0
  0   0   0   0   0   0   0   0   0   0   0   0   0   0   0   0   0   0   0   0   0   0   0   0
  0   0   0   0   0   0   0   0   2   0  22  49  44  43  58  74  82  89 105 118 129 152 167 174
178 178 180 184 181 175 185 188 185 188 185 182 188 188 178 163 155 166 180 185 170 157 155 162
168 177 170  61   0  15   0   0   0   0   0   0   0   0   0   0   0   0   0   0   0   0   0   0
  0   0   0   0
  0   0   0   0   0   0   0   0   0   0   0   0   0   0   0   0   0   0   0   0   0   0   0   0
  0   0   0   0   0   0   0   0   1   0   1  41  43  40  50  67  86  93  97 108 118 141 157 158
162 166 172 182 170 162 177 184 186 188 183 178 181 174 163 156 158 172 184 180 167 160 160 171
178 178 169  63   0  15   0   0   0   0   0   0   0   0   0   0   0   0   0   0   0   0   0   0
  0   0   0   0
  0   0   0   0   0   0   0   0   0   0   0   0   0   0   0   0   0   0   0   0   0   0   0   0
  0   0   0   0   0   0   0   0   0   1   0  19  35  35  44  55  75  87  95 107 116 124 134 134
143 156 168 178 171 168 175 175 167 170 178 179 168 160 159 159 170 176 181 180 173 169 179 183
172 176 170  61   0  15   0   0   0   0   0   0   0   0   0   0   0   0   0   0   0   0   0   0
  0   0   0   0
  0   0   0   0   0   0   0   0   0   0   0   0   0   0   0   0   0   0   0   0   0   0   0   0
  0   0   0   0   0   0   0   0   0   0   0   0  16  29  38  46  58  66  78  91 101 109 127 132
136 154 160 165 176 172 168 169 163 160 170 172 162 157 162 167 167 173 190 183 174 175 176 172
169 175 161  58   0  14   0   0   0   0   0   0   0   0   0   0   0   0   0   0   0   0   0   0
  0   0   0   0
  0   0   0   0   0   0   0   0   0   0   0   0   0   0   0   0   0   0   0   0   0   0   0   0
  0   0   0   0   0   0   0   0   0   0   0   0   3  16  26  33  43  55  66  81  95 103 112 126
139 145 159 163 167 175 168 160 159 163 167 168 164 162 161 155 160 179 188 177 170 170 163 162
167 166 156  59   0  13   0   0   0   0   0   0   0   0   0   0   0   0   0   0   0   0   0   0
  0   0   0   0
  0   0   0   0   0   0   0   0   0   0   0   0   0   0   0   0   0   0   0   0   0   0   0   0
  0   0   0   0   0   0   0   0   0   0   0   0   1   6  15  23  32  46  56  67  81  90  96 109
124 146 164 154 153 165 158 150 154 161 167 169 166 162 158 167 179 179 181 170 166 163 157 162
162 163 157  59   0  13   0   0   0   0   0   0   0   0   0   0   0   0   0   0   0   0   0   0
  0   0   0   0
  0   0   0   0   0   0   0   0   0   0   0   0   0   0   0   0   0   0   0   0   0   0   0   0
  0   0   0   0   0   0   0   0   0   0   0   0   0   2   9  17  26  38  47  58  77  91 102 109
118 134 139 148 143 138 140 152 160 160 164 171 172 167 167 176 176 180 171 164 163 155 153 155
154 159 157  59   0  13   0   0   0   0   0   0   0   0   0   0   0   0   0   0   0   0   0   0
  0   0   0   0
  0   0   0   0   0   0   0   0   0   0   0   0   0   0   0   0   0   0   0   0   0   0   0   0
  0   0   0   0   0   0   0   0   0   0   0   0   0   0   4  12  20  30  39  49  68  93 105 103
109 116 121 130 133 130 137 148 157 173 178 179 168 154 160 166 177 176 155 156 158 153 149 148
146 156 150  54   0  12   0   0   0   0   0   0   0   0   0   0   0   0   0   0   0   0   0   0
  0   0   0   0
  0   0   0   0   0   0   0   0   0   0   0   0   0   0   0   0   0   0   0   0   0   0   0   0
  0   0   0   0   0   0   0   0   0   0   0   0   0   0   1   6  14  23  31  40  51  74  99 116
116 108 111 117 125 125 133 138 152 170 177 165 159 162 158 159 168 161 149 149 153 144 141 138
142 149 144  58   0  12   0   0   0   0   0   0   0   0   0   0   0   0   0   0   0   0   0   0
  0   0   0   0
  0   0   0   0   0   0   0   0   0   0   0   0   0   0   0   0   0   0   0   0   0   0   0   0
  0   0   1   0   0   0   0   0   0   0   0   0   0   0   0   3   8  15  24  33  43  49  66 109
131 118 110 113 115 119 125 136 151 165 159 148 155 158 159 156 152 149 146 146 140 133 132 131
134 140 141  60   0  12   0   0   0   0   0   0   0   0   0   0   0   0   0   0   0   0   0   0
  0   0   0   0
  0   0   0   0   0   0   0   0   0   0   0   0   0   0   0   0   0   0   0   0   0   0   0   0
  0   0   0   0   0   0   0   0   0   0   0   0   0   0   0   0   5   9  16  24  33  43  49  58
 87 122 128 125 126 132 140 148 151 156 145 137 141 144 153 149 141 139 138 132 128 126 122 121
130 135 129  56   0  11   0   0   0   0   0   0   0   0   0   0   0   0   0   0   0   0   0   0
  0   0   0   0
  0   0   0   0   0   0   0   0   0   0   0   0   0   0   0   0   0   0   0   0   0   0   0   0
  0   0   0   0   0   0   0   0   0   0   0   0   0   0   0   0   1   7  11  16  23  33  44  52
 54  84 113 120 123 131 136 143 138 133 130 128 129 131 135 131 128 130 125 119 120 115 108 111
118 118 118  54   0   9   0   0   0   0   0   0   0   0   0   0   0   0   0   0   0   0   0   0
  0   0   0   0
  0   0   0   0   0   0   0   0   0   0   0   0   0   0   0   0   0   0   0   0   0   0   0   0
  0   0   0   0   0   0   0   0   0   0   0   0   0   0   0   0   0   2   8  11  15  22  30  40
 52  54  71  89  94 101 111 119 117 122 124 121 120 119 119 119 115 112 107 108 113 109 101 102
107 109 110  49   0   8   0   0   0   0   0   0   0   0   0   0   0   0   0   0   0   0   0   0
  0   0   0   0
  0   0   0   0   0   0   0   0   0   0   0   0   0   0   0   0   0   0   0   0   0   0   0   0
  0   0   0   0   0   0   0   0   0   0   0   0   0   0   0   0   0   0   3   8  11  15  22  28
 37  47  54  64  77  93 103 102 104 106 105 105 105 105 108 104  98  98  96 100 103 102  95  92
 95  99 102  45   0   7   0   0   0   0   0   0   0   0   0   0   0   0   0   0   0   0   0   0
  0   0   0   0
  0   0   0   0   0   0   0   0   0   0   0   0   0   0   0   0   0   0   0   0   0   0   0   0
  0   0   0   0   0   0   0   0   0   0   0   0   0   0   0   0   0   0   0   3   8  11  16  21
 26  33  41  49  56  74  83  81  81  84  89  94  94  93  90  86  85  85  86  87  89  86  79  77
 77  77  87  43   0   6   0   0   0   0   0   0   0   0   0   0   0   0   0   0   0   0   0   0
  0   0   0   0
  0   0   0   0   0   0   0   0   0   0   0   0   0   0   0   0   0   0   0   0   0   0   0   0
  0   0   0   0   0   0   0   0   0   0   0   0   0   0   0   0   0   0   0   0   2   7  10  14
 18  24  28  35  42  42  50  59  62  66  73  76  75  73  72  72  71  70  70  69  66  65  61  61
 60  63  72  35   0   4   0   0   0   0   0   0   0   0   0   0   0   0   0   0   0   0   0   0
  0   0   0   0
  0   0   0   0   0   0   0   0   0   0   0   0   0   0   0   0   0   0   0   0   0   0   0   0
  0   0   0   0   0   0   0   0   0   0   0   0   0   0   0   0   0   0   0   0   0   1   5   9
 12  16  19  24  27  33  37  41  46  49  52  56  58  59  59  57  58  55  54  51  50  51  47  43
 44  49  53  25   0   2   0   0   0   0   0   0   0   0   0   0   0   0   0   0   0   0   0   0
  0   0   0   0
  0   0   0   0   0   0   0   0   0   0   0   0   0   0   0   0   0   0   0   0   0   0   0   0
  0   0   0   0   0   0   0   0   0   0   0   0   0   0   0   0   0   0   0   0   0   0   0   4
  7  10  13  16  19  23  26  28  31  34  37  39  41  42  42  43  43  41  40  38  37  34  31  31
 32  26  49  35   0   3   0   0   0   0   0   0   0   0   0   0   0   0   0   0   0   0   0   0
  0   0   0   0
  0   0   0   0   0   0   0   0   0   0   0   0   0   0   0   0   0   0   0   0   0   0   0   0
  0   0   0   0   0   0   0   0   0   0   0   0   0   0   0   0   0   0   0   0   0   0   0   0
  2   5   8   9  12  14  17  19  21  23  26  27  28  28  28  27  26  25  23  20  19  18  19  19
 20  13  43  31   0   3   0   0   0   0   0   0   0   0   0   0   0   0   0   0   0   0   0   0
  0   0   0   0
  0   0   0   0   0   0   0   0   0   0   0   0   0   0   0   0   0   0   0   0   0   0   0   0
  0   0   0   0   0   0   0   0   0   0   0   0   0   0   0   0   0   0   0   0   0   0   0   0
  0   0   2   4   6   8  10  11  13  14  15  15  16  15  15  14  13  13  12  12  13  13  10   7
  5   0   2   7   0   0   0   0   0   0   0   0   0   0   0   0   0   0   0   0   0   0   0   0
  0   0   0   0
  0   0   0   0   0   0   0   0   0   0   0   0   0   0   0   0   0   0   0   0   0   0   0   0
  0   0   0   0   0   0   0   0   0   0   0   0   0   0   0   0   0   0   0   0   0   0   0   0
  0   0   0   0   1   3   4   6   6   8   8   8   9   9   8   9   8   8   7   7   6   3   0   0
  0   0  12  12   0   1   0   0   0   0   0   0   0   0   0   0   0   0   0   0   0   0   0   0
  0   0   0   0
  0   0   0   0   0   0   0   0   0   0   0   0   0   0   0   0   0   0   0   0   0   0   0   0
  0   0   0   0   0   0   0   0   0   0   0   0   0   0   0   0   0   0   0   0   0   0   0   0
  0   0   0   0   0   0   0   1   1   2   2   3   3   2   2   2   2   1   0   0   0   0   0   0
  0   0  13  12   0   1   0   0   0   0   0   0   0   0   0   0   0   0   0   0   0   0   0   0
  0   0   0   0
  0   0   0   0   0   0   0   0   0   0   0   0   0   0   0   0   0   0   0   0   0   0   0   0
  0   0   0   0   0   0   0   0   0   0   0   0   0   0   0   0   0   0   0   0   0   0   0   0
  0   0   0   0   0   0   0   0   0   0   0   0   0   0   0   0   0   0   0   0   0   0   0   0
  1   0  13  12   0   1   0   0   0   0   0   0   0   0   0   0   0   0   0   0   0   0   0   0
  0   0   0   0
  0   0   0   0   0   0   0   0   0   0   0   0   0   0   0   0   0   0   0   0   0   0   0   0
  0   0   0   0   0   1   1   1   1   1   0   0   0   0   0   0   0   0   0   0   0   1   1   0
  1   0   0   0   0   0   0   0   0   0   0   0   0   0   0   0   0   0   0   0   0   0   0   0
  2   1  13  12   0   1   0   0   0   0   0   0   0   0   0   0   0   0   0   0   0   0   0   0
  0   0   0   0
  0   0   0   0   0   0   0   0   0   0   0   0   0   0   0   0   0   0   0   0   0   0   0   0
  0   1   1   1   1   1   1   1   1   1   1   1   1   0   0   0   0   1   1   0   1   1   1   1
  1   1   1   0   0   0   0   0   0   0   0   0   0   0   0   0   0   0   0   0   0   0   0   0
  3   2  15  13   0   1   0   0   0   0   0   0   0   0   0   0   0   0   0   0   0   0   0   0
  0   0   0   0
  0   0   0   0   0   0   0   0   0   0   0   0   0   0   0   0   0   0   0   0   0   0   0   0
  0   1   1   1   1   1   1   1   1   1   1   1   1   1   0   1   1   1   1   1   1   1   1   1
  1   1   1   1   1   1   1   0   0   0   0   0   0   0   0   0   0   0   0   0   0   0   0   0
  4   2  16  13   0   1   0   0   0   0   0   0   0   0   0   0   0   0   0   0   0   0   0   0
  0   0   0   0
  0   0   0   0   0   0   0   0   0   0   0   0   0   0   0   0   0   0   0   0   0   0   0   0
  0   1   1   1   1   1   1   1   1   1   1   1   1   1   1   1   1   1   1   1   1   1   1   1
  1   1   1   1   1   1   1   1   0   0   0   0   0   0   0   0   0   0   0   0   0   0   0   1
  4   3  17  14   0   1   0   0   0   0   0   0   0   0   0   0   0   0   0   0   0   0   0   0
  0   0   0   0
