P2
# 8-bit pgm gray
100 100
255
  0   0   0   0   0   0   0   0   0   0   0   0   0   0   0  10   0   0 188 230 221 225 225 225
225 226 228 229 230 229 226 222 216 201 181 132  87  80  64  47  32  22  16  11   7   4   1   0
  0   0   0   0   0   0   0   0   0   0   0   0   0   0   0   0   5  15  19  21  23  24  24  23
 21  11   0   0   1   0   0   0   1   1   0   0   0   0   0   0   0   0   0   0   0   0   0   0
  0   0   0   0
  0   0   0   0   0   0   0   0   0   0   0   0   0   0   0  10   0   0 188 230 221 225 224 224
226 227 228 229 228 228 226 221 214 198 175 122  89  81  63  44  30  22  16  11   7   4   1   0
  0   0   0   0   0   0   0   0   0   0   0   0   0   0   0   1   0   0   0   0   0   0   0   0
  0   0   2   0   0   0   0   0   0   0   0   0   0   0   0   0   0   0   0   0   0   0   0   0
  0   0   0   0
  0   0   0   0   0   0   0   0   0   0   0   0   0   0   0  10   0   0 186 229 222 224 223 223
226 227 227 227 227 228 225 221 211 195 163 115  98  81  62  42  31  22  15  11   7   4   1   0
  0   0   0   0   0   0   0   0   0   0   0   0   0   0   1   0  25  57  72  82  96  99  98  98
 93  60   0   2   1   0   0   0   0   0   0   0   0   0   0   0   0   0   0   0   0   0   0   0
  0   0   0   0
  0   0   0   0   0   0   0   0   0   0   0   0   0   0   0  10   0   0 185 228 221 223 223 224
225 225 226 226 227 226 224 220 207 189 154 118 100  79  59  43  33  22  15  11   7   4   1   0
  0   0   0   0   0   0   0   0   0   0   0   0   0   1   9   0  99 165 185 195 190 195 204 199
187 128   0   2   5   0   0   0   0   0   0   0   0   0   0   0   0   0   0   0   0   0   0   0
  0   0   0   0
  0   0   0   0   0   0   0   0   0   0   0   0   0   0   0  10   0   0 185 228 221 223 223 224
224 225 225 225 225 225 223 219 206 182 145 117  97  78  61  46  32  21  15  10   6   4   1   0
  0   0   0   0   0   5   1   0   0   0   0   0   0   1  14   0 122 198 221 208 163 181 208 226
211 147   0   0   8   0   0   0   0   0   0   0   0   0   0   0   0   0   0   0   0   0   0   0
  0   0   0   0
  0   0   0   0   0   0   0   0   0   0   0   0   0   0   0   9   0   0 184 228 221 224 224 225
225 224 225 225 225 224 222 216 201 171 134 117  98  79  61  46  31  22  16  10   6   3   1   0
  0   0   0   0   2   7   0   0   0   0   0   0   0   1  16   0 126 204 227 208 162 168 199 231
216 154   0   0   9   0   0   0   0   0   0   0   0   0   0   0   0   0   0   0   0   0   0   0
  0   0   0   0
  0   0   0   0   0   0   0   0   0   0   0   0   0   0   0   9   0   0 185 229 222 224 224 224
224 224 224 225 224 222 220 212 194 161 133 118  98  78  62  45  31  22  16  11   6   3   0   0
  0   0   0   0   1  24   4   0   0   0   0   0   0   1  17   0 128 209 228 229 184 171 206 234
221 160   0   0  10   0   0   0   0   0   0   0   0   0   0   0   0   0   0   0   0   0   0   0
  0   0   0   0
  0   0   0   0   0   0   0   0   0   0   0   0   0   0   0  10   0   0 186 231 223 224 225 225
224 224 225 224 221 219 215 209 187 153 137 117  94  76  64  45  32  23  17  11   6   2   0   0
  0   0   0   0   0  13   6   0   0   0   0   0   0   1  18   0 128 212 232 232 215 222 226 235
224 164   0   0  11   0   0   0   0  10   1   0   0   0   0   0   0   0   0   0   0   0   0   0
  0   0   0   0
  0   0   0   0   0   0   0   0   0   0   0   0   0   0   0  10   0   0 186 230 223 225 225 225
224 224 224 223 220 217 212 203 176 147 139 118  96  78  61  45  35  25  16  11   6   2   0   0
  0   0   0   0   0   0   0   0   0   0   0   0   0   1  18   0 127 214 232 237 241 241 240 235
226 167   0   0  11   0   2   0   1  14   2   0   0   0   0   0   0   0   0   0   0   0   0   0
  0   0   0   0
  0   0   0   0   0   0   0   0   0   0   0   0   0   0   0  10   0   0 186 230 223 226 225 224
224 223 223 222 218 214 209 195 165 150 138 119  97  78  58  44  35  23  15  10   6   2   0   0
  0   0   0   0   0   0   0   0   0   0   0   0   0   1  18   0 126 213 232 238 239 240 239 236
226 169   0   0  12   0   0   0   0   0   0   0   0   0   0   0   0   0   0   0   0   0   0   0
  0   0   0   0
  0   0   0   0   0   0   0   0   0   0   0   0   0   0   0  10   0   0 186 230 222 225 225 224
223 223 223 221 217 211 206 186 158 147 132 112  95  77  59  46  34  23  16   9   5   2   0   0
  0   0   0   0   0   0   0   0   0   0   0   0   0   0  18   0 123 210 231 214 206 200 222 192
224 170   0   0  12   0   0   0   0   0   0   0   0   0   0   0   0   0   0   0   0   0   0   0
  0   0   0   0
  0   0   0   0   0   0   0   0   0   0   0   0   0   0   0  10   0   0 186 230 222 224 223 223
222 222 221 220 213 206 197 175 152 141 128 110  92  75  60  46  34  23  15   8   4   1   0   0
  0   0   0   0   0   0   0   0   0   0   0   0   0   0  18   0 119 207 229 193 187 153 161 165
222 169   7   0  12   0   0   0   0   0   0   0   0   0   0   0   0   0   0   0   0   0   0   0
  0   0   0   0
  0   0   0   0   0   0   0   0   0   0   0   0   0   0   0  10   0   0 186 229 222 224 223 222
222 221 219 216 209 202 185 162 149 135 122 106  87  74  60  46  33  22  14   8   3   0   0   0
  0   0   0   0   0   0   0   0   0   0   0   0   0   0  18   0 115 204 228 188 189 172 165 180
218 171  18   0  13   0   0   0   0   0   0   0   0   0   0   0   0   0   0   0   0   0   0   0
  0   0   0   0
  0   0   0   0   0   0   0   0   0   0   0   0   0   0   0  10   0   0 187 229 221 224 223 223
222 220 216 210 204 194 174 153 144 130 117 101  85  72  58  44  32  22  13   7   3   0   0   0
  0   0   0   0   0   0   0   0   0   0   0   0   0   0  18   0 110 202 191 161 201 210 229 202
218 172  25   0  13   0   0   0   0   0   0   0   0   0   0   0   0   0   0   0   0   0   0   0
  0   0   0   0
  0   0   0   0   0   0   0   0   0   0   0   0   0   0   0  10   0   0 187 231 223 224 223 222
221 219 214 208 199 184 161 147 140 125 115 101  86  71  55  40  29  20  12   6   2   0   0   0
  0   0   0   0   0   0   0   0   0   0   0   0   0   0  18   0 105 197 211 217 231 233 233 228
219 169  29   0  13   0   0   0   0   0   0   0   0   0   0   0   0   0   0   0   0   0   0   0
  0   0   0   0
  0   0   0   0   0   0   0   0   0   0   0   0   0   0   0  10   0   0 188 232 223 224 223 222
221 218 212 205 195 174 151 144 134 120 112  99  84  69  51  36  26  17  10   6   2   0   0   0
  0   0   0   0   0   0   0   0   0   0   0   0   0   0  16   0  95 187 217 226 228 229 227 223
211 161  27   0  11   0   0   0   0   0   0   0   0   0   0   0   0   0   0   0   0   0   0   0
  0   0   0   0
  0   0   0   0   0   0   0   0   0   0   0   0   0   0   0  10   0   0 188 233 224 224 223 222
219 215 208 199 183 163 151 145 130 120 109  94  80  64  46  34  23  15  10   5   2   0   0   0
  0   0   0   0   0   0   0   0   0   0   0   0   0   0   8   0  61 132 156 164 169 170 169 162
149 109  11   0   5   0   0   0   0   0   0   0   0   0   0   0   0   0   0   0   0   0   0   0
  0   0   0   0
  0   0   0   0   0   0   0   0   0   0   0   0   0   0   0  10   0   0 187 231 223 224 223 221
218 212 206 194 171 153 152 142 130 118 106  91  77  61  44  32  23  15   9   5   2   0   0   0
  0   0   0   0   0   0   0   0   0   0   0   0   0   0   0   1   0   0   0   0   0   0   0   0
  0   0   0   1   0   0   0   0   0   0   0   0   0   0   0   0   0   0   0   0   0   0   0   0
  0   0   0   0
  0   0   0   0   0   0   0   0   0   0   0   0   0   0   0  10   0   0 188 231 222 224 223 220
216 210 202 185 160 149 145 135 127 118 102  88  73  57  42  30  21  15   9   4   1   0   0   0
  0   0   0   0   0   0   0   0   0   0   0   0   0   0   0   0   0   0   3   3   4   5   7   8
  9   4   0   0   0   0   0   0   0   0   0   0   0   0   0   0   0   0   0   0   0   0   0   0
  0   0   0   0
  0   0   0   0   0   0   0   0   0   0   0   0   0   0   0  10   0   0 189 232 222 224 222 219
214 206 195 176 154 147 139 130 119 107  95  82  67  52  39  28  21  14   8   3   1   0   0   0
  0   0   0   0   0   0   0   0   0   0   0   0   0   0   0   0   1   6  12  14  16  16  15  14
 13   6   0   0   0   0   0   0   0   0   0   0   0   0   0   0   0   0   0   0   0   0   0   0
  0   0   0   0
  0   0   0   0   0   0   0   0   0   0   0   0   0   0   0  10   0   0 189 232 222 224 221 217
210 201 186 161 150 144 135 127 112  97  90  81  63  49  38  28  20  12   7   3   0   0   0   0
  0   0   0   0   0   0   0   0   0   0   0   0   0   0   0   0   0   0   1   4   3   2   3   3
  0   0   0   0   0   0   0   0   0   0   0   0   0   0   0   0   0   0   0   0   0   0   0   0
  0   0   0   0
  0   0   0   0   0   0   0   0   0   0   0   0   0   0   0  10   0   0 189 232 221 222 218 213
205 195 175 153 148 140 130 121 105  95  86  75  61  50  39  27  18  11   7   2   0   0   0   0
  0   0   0   0   0   0   0   0   0   0   0   0   0   0   0   0   0   0   1   0   0   1   2   0
 37  46   5   0   1   0   0   0   0   0   0   0   0   0   0   0   0   0   0   0   0   0   0   0
  0   0   0   0
  0   0   0   0   0   0   0   0   0   0   0   0   0   0   0  10   0   0 189 232 222 221 216 209
199 188 163 147 146 136 120 114 102  91  81  71  59  47  35  25  17  11   6   3   0   0   0   0
  0   0   0   0   0   0   0   0   0   0   0   0   0   0   0   0   0   1   0  34  40  11   0   0
 60  61   7   0   1   0   0   0   0   0   0   0   0   0   0   0   0   0   0   0   0   0   0   0
  0   0   0   0
  0   0   0   0   0   0   0   0   0   0   0   0   0   0   0   9   0   0 186 231 221 221 215 206
196 177 149 144 136 122 115 107  98  88  79  70  57  43  34  25  18  12   7   3   1   0   0   0
  0   0   0   0   0   0   0   0   0   0   0   0   0   0   0   0   0   2   0  49  51   0   3   0
 33  64  24   0   3   0   0   0   0   0   0   0   0   0   0   0   0   0   0   0   0   0   0   0
  0   0   0   0
  0   0   0   0   0   0   0   0   0   0   0   0   0   0   0   9   0   0 186 230 218 217 211 201
188 161 144 135 125 116 109 104  96  84  75  67  55  45  37  28  19  13   7   3   1   0   1   1
  0   0   0   0   0   0   0   0   0   0   0   0   0   0   0   0   0   2   0  18  45   0   0   0
 32  56  24   0   2   0   0   0   0   0   0   0   0   0   0   0   0   0   0   0   0   0   0   0
  0   0   0   0
  0   0   0   0   0   0   0   0   0   0   0   0   0   0   0  10   0   0 186 229 217 215 206 196
178 150 137 131 124 116 108 101  93  84  77  66  56  48  39  30  20  13   8   4   1   0   1   1
  0   0   0   0   0   0   0   0   0   0   0   0   0   0   0   0   0   0   0   3  34   8   0   1
  7   0   0   1   0   0   0   0   0   0   0   0   0   0   0   0   0   0   0   0   0   0   0   0
  0   0   0   0
  0   0   0   0   0   0   0   0   0   0   0   0   0   0   0  10   0   0 186 227 214 210 199 190
163 141 137 132 125 118 111 103  96  89  79  68  61  51  40  31  23  16  10   5   2   0   0   0
  0   0   0   0   0   0   0   0   0   0   0   0   0   0   0   0   0   0   0   0   0   0   0   0
  0   0   1   0   0   0   0   0   0   0   0   0   0   0   0   0   0   0   0   0   0   0   0   0
  0   0   0   0
  0   0   0   0   0   0   0   0   0   0   0   0   0   0   0  10   0   0 186 225 211 205 195 180
151 143 139 130 123 118 115 111 103  93  83  74  69  62  47  38  27  18  12   6   3   0   0   0
  0   0   0   0   0   0   0   0   0   0   0   0   0   0   0   0   0   0   0   0   0   0   0   0
  1   1   0   0   0   0   0   0   0   0   0   0   0   0   0   0   0   0   0   0   0   0   0   0
  0   0   0   0
  0   0   0   0   0   0   0   0   0   0   0   0   0   0   0   9   0   0 183 221 207 201 190 166
149 147 139 130 126 122 117 113 105  97  89  84  76  67  50  40  32  21  15   9   6   3   0   0
  0   0   0   0   0   0   0   0   0   0   0   0   0   0   0   0   0   0   0   0   0   0   0   0
  0   0   0   0   0   0   0   0   0   0   0   0   0   0   0   0   0   0   0   0   0   0   0   0
  0   0   0   0
  0   0   0   0   0   0   0   0   0   0   0   0   0   0   0   9   0   0 181 220 203 198 181 154
147 147 142 136 130 125 119 111 108 104  92  84  77  69  56  44  36  27  18  12   7   4   1   0
  0   0   0   0   0   0   0   0   0   0   0   0   0   0   0   0   0   0   0   0   0   0   0   0
  0   0   0   0   0   0   0   0   0   0   0   0   0   0   0   0   0   0   0   0   0   0   0   0
  0   0   0   0
  0   0   0   0   0   0   0   0   0   0   0   0   0   0   0   9   0   0 178 216 201 192 171 152
149 147 143 138 131 125 121 118 114 105  93  87  81  77  65  49  38  27  20  13   8   6   1   0
  0   0   0   0   0   0   0   0   0   0   0   0   0   0   0   0   0   0   0   0   0   0   0   0
  0   0   0   0   0   0   0   0   0   0   0   0   0   0   0   0   0   0   0   0   0   0   0   0
  0   0   0   0
  0   0   0   0   0   0   0   0   0   0   0   0   0   0   0   9   0   0 178 214 196 185 160 150
149 144 140 136 133 131 129 122 113 105 100  95  88  80  68  54  42  31  22  15  12   7   2   0
  0   0   0   0   0   0   0   0   0   0   0   0   0   0   0   0   0   0   0   0   0   0   0   0
  0   0   0   0   0   0   0   0   0   0   0   0   0   0   0   0   0   0   0   0   0   0   0   0
  0   0   0   0
  0   0   0   0   0   0   0   0   0   0   0   0   0   0   0   9   0   0 177 211 191 177 155 152
150 143 141 142 140 136 129 122 116 110 105  97  92  83  73  60  46  33  27  21  15   8   4   1
  0   0   0   0   0   0   0   0   0   0   0   0   0   0   0   0   0   0   0   0   0   0   0   0
  0   0   0   0   0   0   0   0   0   0   0   0   0   0   0   0   0   0   0   0   0   0   0   0
  0   0   0   0
  0   0   0   0   0   0   0   0   0   0   0   0   0   0   0   8   0   0 170 202 185 169 155 157
154 149 145 147 145 139 132 126 120 115 111 104  98  86  75  64  56  45  33  25  16  11   7   3
  1   0   0   0   0   0   0   0   0   0   0   0   0   0   0   0   0   0   0   0   0   0   0   0
  0   0   0   0   0   0   0   0   0   0   0   0   0   0   0   0   0   0   0   0   0   0   0   0
  0   0   0   0
  0   0   0   0   0   0   0   0   0   0   0   0   0   0   0   8   0   0 169 202 179 160 156 160
159 156 156 154 149 141 139 135 129 119 112 110 105  92  80  76  74  56  40  29  22  16  10   6
  2   0   0   0   0   0   0   0   0   0   0   0   0   0   0   0   0   0   0   0   0   0   0   0
  0   0   0   0   0   0   0   0   0   1   0   0   0   0   0   0   0   0   0   0   0   0   0   0
  0   0   0   0
  0   0   0   0   0   0   0   0   0   0   0   0   0   0   0   8   0   0 165 194 164 149 151 153
153 153 152 152 151 147 143 136 130 127 125 117 110 101  93  87  75  61  49  38  28  21  15  10
  5   2   0   0   0   0   0   0   0   0   0   0   0   0   0   0   0   0   0   0   0   0   0   0
  0   0   0   0   0   0   0   0   0   0   0   0   0   0   0   0   0   0   0   0   0   0   0   0
  0   0   0   0
  0   0   0   0   0   0   0   0   0   0   0   0   0   0   0   7   0   0 159 184 154 151 153 151
147 148 152 154 152 147 144 137 133 130 130 120 109 105 102  91  81  73  60  47  37  27  20  14
  9   5   1   0   0   0   0   0   0   0   0   0   0   0   0   0   0   0   0   0   1   1   0   0
  0   0   0   0   0   0   0   0   0   0   0   0   0   0   0   0   0   0   0   0   0   0   0   0
  0   0   0   0
  0   0   0   0   0   0   0   0   0   0   0   0   0   0   0   7   0   0 158 182 156 158 158 154
152 150 150 149 149 146 145 142 137 133 132 123 120 118 106 101  93  80  71  57  44  36  26  18
 13   8   3   0   0   0   0   0   0   0   0   0   0   0   0   0   0   0   0   0   0   0   0   0
  0   0   0   0   0   0   0   0   0   0   0   0   0   0   0   0   0   0   0   0   0   0   0   0
  0   0   0   0
  0   0   0   0   0   0   0   0   0   0   0   0   0   0   0   7   0   0 154 174 152 154 153 152
149 147 149 150 149 147 144 143 142 140 138 139 137 133 126 123 116 101  86  69  54  47  37  26
 18  12   7   3   1   0   0   0   0   0   0   0   0   0   0   0   0   0   0   0   0   0   0   0
  0   0   0   0   0   0   0   0   0   0   0   0   0   0   0   0   0   0   0   0   0   0   0   0
  0   0   0   0
  0   0   0   0   0   0   0   0   0   0   0   0   0   0   0   6   0   0 144 164 152 153 149 150
148 148 152 152 149 146 144 144 141 139 140 139 133 128 122 116 113 110 100  82  65  52  44  35
 26  19  14   8   5   1   0   0   0   0   0   0   0   0   0   0   0   0   0   0   0   0   0   0
  0   0   0   0   0   0   0   0   0   0   0   0   0   0   0   0   0   0   0   0   0   0   0   0
  0   0   0   0
  0   0   0   0   0   0   0   0   0   0   0   0   0   0   0   5   0   0 137 160 152 154 150 146
145 146 145 143 141 142 142 140 141 145 143 138 132 124 118 112 104  98  95  86  79  66  52  42
 34  24  17   9   4   1   0   0   0   0   0   0   0   0   0   0   0   0   0   0   0   0   0   0
  0   0   0   0   0   0   0   1   0   0   0   0   0   0   0   0   0   0   0   0   0   0   0   0
  0   0   0   0
  0   0   0   0   0   0   0   0   0   0   0   0   0   0   0   5   0   0 135 162 153 151 148 146
147 147 144 140 140 141 138 139 144 142 138 135 133 129 121 118 113 102  98  90  84  73  58  48
 40  31  19  12   7   3   0   0   0   0   0   0   0   0   0   0   0   0   0   0   0   0   0   0
  0   0   0   0   0   0   0   0   0   0   0   0   0   0   0   0   0   0   0   0   0   0   0   0
  0   0   0   0
  0   0   0   0   0   0   0   0   0   0   0   0   0   0   0   5   0   0 138 165 153 151 151 151
148 145 143 139 140 141 142 146 143 138 136 134 135 134 126 120 118 113 107  97  91  81  70  61
 53  39  26  17  11   6   2   0   0   0   0   0   0   0   0   0   0   0   0   0   0   0   0   0
  0   0   0   0   0   0   0   0   0   0   0   0   0   0   0   0   0   0   0   0   0   0   0   0
  0   0   0   0
  0   0   0   0   0   0   0   0   0   0   0   0   0   0   0   5   0   0 131 159 149 150 148 147
145 141 141 140 140 142 144 142 139 138 137 136 138 138 134 131 129 120 113 104  94  87  79  71
 62  51  40  27  16   9   3   0   0   0   0   0   0   0   0   0   0   0   0   0   0   0   0   0
  0   0   0   0   0   0   0   0   0   0   0   0   0   0   0   0   0   0   0   0   0   0   0   0
  0   0   0   0
  0   0   0   0   0   0   0   0   0   0   0   0   0   0   0   5   0   0 134 161 148 146 144 146
144 144 143 142 140 143 142 143 143 146 146 141 141 140 139 134 130 125 119 112 102  94  85  74
 67  57  50  34  20  14   7   2   0   0   0   0   0   0   0   0   0   0   0   0   0   0   0   0
  0   0   0   0   0   0   0   0   0   0   0   0   0   0   0   0   0   0   0   0   0   0   0   0
  0   0   0   0
  0   0   0   0   0   0   0   0   0   0   0   0   0   0   0   5   0   0 132 163 157 151 147 148
148 149 146 143 144 145 145 148 147 150 152 150 146 141 135 130 126 125 123 113 110 103  97  89
 78  62  52  43  30  19  10   5   1   0   0   0   0   0   0   0   0   0   0   0   0   0   0   0
  0   0   0   0   0   0   0   0   0   0   0   0   0   0   0   0   0   0   0   0   0   0   0   0
  0   0   0   0
  0   0   0   0   0   0   0   0   0   0   0   0   0   0   0   5   0   0 131 161 155 156 156 153
155 154 152 150 151 148 149 149 148 148 151 150 146 144 139 134 128 126 128 118 116 115 108  98
 92  78  60  48  36  24  13   8   3   0   0   0   0   0   0   0   0   0   0   0   0   0   0   0
  0   0   0   0   0   0   0   0   0   0   0   0   0   0   0   0   0   0   0   0   0   0   0   0
  0   0   0   0
  0   0   0   0   0   0   0   0   0   0   0   0   0   0   0   4   0   0 129 158 151 150 152 153
152 151 151 154 154 153 153 151 149 145 146 149 149 145 143 139 134 131 130 128 122 124 118 101
 94  91  78  56  41  31  19  12   6   1   0   0   0   0   0   0   0   0   0   0   0   0   0   0
  0   0   0   0   0   0   0   0   0   0   0   0   0   0   0   0   0   0   0   0   0   0   0   0
  0   0   0   0
  0   0   0   0   0   0   0   0   0   0   0   0   0   0   0   4   0   0 127 153 146 145 144 151
152 149 149 149 152 153 150 149 145 141 144 146 149 148 141 139 138 135 137 138 136 134 126 111
102  96  88  67  49  36  25  18  11   4   1   0   0   0   0   0   0   0   0   0   0   0   0   0
  0   0   0   0   0   0   0   0   0   0   0   0   0   0   0   0   0   0   0   0   0   0   0   0
  0   0   0   0
  0   0   0   0   0   0   0   0   0   0   0   0   0   0   0   4   0   0 128 154 147 147 147 149
152 150 151 149 149 147 149 149 145 143 147 147 146 148 142 138 137 139 145 148 149 140 127 121
112 104  98  81  60  42  30  24  14   6   2   0   0   0   0   0   0   0   0   0   0   0   0   0
  0   0   0   0   0   0   0   0   0   0   0   0   0   0   0   0   0   0   0   0   0   0   0   0
  0   0   0   0
  0   0   0   0   0   0   0   0   0   0   0   0   0   0   0   4   0   0 127 159 150 147 148 148
150 153 153 152 151 152 153 156 152 147 151 149 144 144 141 144 144 143 144 147 157 150 135 135
129 113 109  92  73  58  39  29  17  10   4   0   0   0   0   0   0   0   0   0   0   0   0   0
  0   0   0   0   0   0   0   0   0   0   0   0   0   0   0   0   0   0   0   0   0   0   0   0
  0   0   0   0
  0   0   0   0   0   0   0   0   0   0   0   0   0   0   0   4   0   0 127 155 148 148 147 147
150 151 150 151 151 158 162 160 158 153 147 145 144 143 140 143 147 147 144 140 147 153 145 137
135 129 117  98  81  67  50  32  20  13   7   2   0   0   0   0   0   0   0   0   0   0   0   0
  0   0   0   0   0   0   0   0   0   0   0   0   0   0   0   0   0   0   0   0   0   0   0   0
  0   0   0   0
  0   0   0   0   0   0   0   0   0   0   0   0   0   0   0   4   0   0 123 151 146 148 149 149
145 148 153 150 148 150 154 156 154 152 149 146 144 145 146 144 142 148 147 145 147 142 140 139
133 136 125 103  85  69  56  39  25  16   9   3   0   0   0   0   0   0   0   0   0   0   0   0
  0   0   0   0   0   0   0   0   0   0   0   0   0   0   0   0   0   0   0   0   0   0   0   0
  0   0   0   0
  0   0   0   0   0   0   0   0   0   0   0   0   0   0   0   4   0   0 123 151 148 145 145 146
142 146 154 152 149 150 149 145 149 152 151 146 145 148 150 150 147 147 150 155 152 140 137 140
136 127 117 103  87  74  62  45  30  20  13   5   1   0   0   0   0   0   0   0   0   0   0   0
  0   0   0   0   0   0   0   0   0   0   0   0   0   0   0   0   0   0   0   0   0   0   0   0
  0   0   0   0
  0   0   0   0   0   0   0   0   0   0   0   0   0   0   0   4   0   0 127 151 143 143 140 139
142 144 153 156 150 147 148 146 151 155 157 156 152 152 151 150 148 149 152 157 152 141 137 141
143 130 115 112  95  79  66  49  36  25  15   8   3   0   0   0   0   0   0   0   0   0   0   0
  0   0   0   0   0   0   0   0   0   0   0   0   0   0   0   0   0   0   0   0   0   0   0   0
  0   0   0   0
  0   0   0   0   0   0   0   0   0   0   0   0   0   0   0   4   0   0 126 154 150 152 151 151
152 155 157 162 156 151 150 152 157 159 159 163 166 166 159 153 154 151 147 158 162 148 141 141
147 143 127 119 115  84  68  56  43  31  21  11   4   0   0   0   0   0   0   0   0   0   0   0
  0   0   0   0   0   0   0   0   0   0   0   0   0   0   0   0   0   0   0   0   0   0   0   0
  0   0   0   0
  0   0   0   0   0   0   0   0   0   0   0   0   0   0   0   4   0   0 126 155 149 153 156 156
153 157 159 157 154 158 160 159 159 158 160 159 167 173 166 161 161 156 152 154 161 157 148 143
143 155 149 121 125 109  72  63  49  38  26  15   7   2   0   0   0   0   0   0   0   0   0   0
  0   0   0   0   0   0   0   0   0   0   0   0   0   0   0   0   0   0   0   0   0   0   0   0
  0   0   0   0
  0   0   0   0   0   0   0   0   0   0   0   0   0   0   0   4   0   0 121 147 143 148 150 150
148 152 158 153 150 152 160 162 159 160 161 160 162 163 160 160 158 159 157 154 154 157 154 149
141 144 158 148 125 129 103  73  65  48  30  19   9   3   0   0   0   0   0   0   0   0   0   0
  0   0   0   0   0   0   0   0   0   0   0   0   0   0   0   0   0   0   0   0   0   0   0   0
  0   0   0   0
  0   0   0   0   0   0   0   0   0   0   0   0   0   0   0   4   0   0 120 147 141 143 144 145
145 147 155 156 153 150 155 161 156 156 160 164 165 161 159 154 153 153 152 152 150 148 151 154
149 140 144 155 146 132 139 104  72  57  36  23  12   4   1   0   0   0   0   0   0   0   0   0
  0   0   0   0   0   0   0   0   0   0   0   0   0   0   0   0   0   0   0   0   0   0   0   0
  0   0   0   0
  0   0   0   0   0   0   0   0   0   0   0   0   0   0   0   4   0   0 120 148 144 145 144 144
145 142 145 151 150 148 151 156 158 156 158 165 167 161 161 156 158 159 157 154 150 148 148 149
153 144 140 139 140 130 142 145 104  65  41  27  15   6   2   0   0   0   0   0   0   0   0   0
  0   0   0   0   0   0   0   0   0   0   0   0   0   0   0   0   0   0   0   0   0   0   0   0
  0   0   0   0
  0   0   0   0   0   0   0   0   0   0   0   0   0   0   0   4   0   0 123 151 148 151 146 143
141 141 142 144 145 147 151 155 160 160 155 160 168 165 157 155 155 158 158 156 155 155 149 146
152 146 140 139 128 131 135 146 137  94  49  30  19   8   3   0   0   0   0   0   0   0   0   0
  0   0   0   0   0   0   0   0   0   0   0   0   0   0   0   0   0   0   0   0   0   0   0   0
  0   0   0   0
  0   0   0   0   0   0   0   0   0   0   0   0   0   0   0   4   0   0 127 158 152 151 146 144
144 144 143 142 144 145 150 157 160 161 160 158 161 169 161 154 156 151 151 152 152 157 152 147
150 148 136 134 136 133 140 138 130  96  46  35  20  10   5   0   0   0   0   0   0   0   0   0
  0   0   0   0   0   0   0   0   0   0   0   0   0   0   0   0   0   0   0   0   0   0   0   0
  0   0   0   0
  0   0   0   0   0   0   0   0   0   0   0   0   0   0   0   4   0   0 125 155 153 154 152 150
149 147 147 145 144 147 150 153 160 161 161 159 159 161 167 165 157 149 147 148 151 154 155 154
149 151 141 131 130 128 139 139 123  92  44  37  23  12   6   1   0   0   0   0   0   0   0   0
  0   0   0   0   0   0   0   0   0   0   0   0   0   0   0   0   0   0   0   0   0   0   0   0
  0   0   0   0
  0   0   0   0   0   0   0   0   0   0   0   0   0   0   0   4   0   0 124 154 147 152 155 154
155 155 152 149 148 147 150 149 153 161 165 163 165 161 162 166 168 161 152 151 150 151 155 162
159 154 149 138 125 129 137 133 119  96  52  40  26  13   7   2   0   0   0   0   1   0   0   0
  0   0   0   0   1   0   0   0   0   0   0   0   0   0   0   0   0   0   0   0   0   0   0   0
  0   0   0   0
  0   0   0   0   0   0   0   0   0   0   0   0   0   0   0   4   0   0 126 155 146 147 149 154
157 157 156 155 149 148 151 150 147 154 159 158 161 161 161 159 163 171 170 163 153 151 148 153
160 159 153 140 129 127 129 122 114  99  56  44  32  19   8   2   0   0   0   0   1   0   0   0
  0   0   0   0   0   0   0   0   0   0   0   0   0   0   0   0   0   0   0   0   0   0   0   0
  0   0   0   0
  0   0   0   0   0   0   0   0   0   0   0   0   0   0   0   4   0   0 127 157 150 149 147 147
147 149 151 150 149 148 149 150 149 153 156 158 159 166 164 161 159 161 156 156 150 146 146 149
156 154 152 155 137 120 118 112 115 115  67  45  42  23   8   2   0   0   0   0   0   0   0   0
  0   0   0   0   0   0   0   0   0   0   0   0   0   0   0   0   0   0   0   0   0   0   0   0
  0   0   0   0
  0   0   0   0   0   0   0   0   0   0   0   0   0   0   0   4   0   0 127 156 145 144 147 147
149 152 149 146 152 154 155 150 152 159 161 163 164 170 171 163 160 165 160 151 148 147 151 151
152 152 152 161 138 120 120 113 112 120  93  58  44  24   8   3   0   0   0   0   0   0   0   0
  0   0   0   0   0   0   0   0   0   0   0   0   0   0   0   0   0   0   0   0   0   0   0   0
  0   0   0   0
  0   0   0   0   0   0   0   0   0   0   0   0   0   0   0   4   0   0 131 159 150 149 145 146
148 154 151 146 148 150 154 152 150 152 150 151 158 164 166 169 159 162 167 160 157 150 146 147
153 152 150 160 144 125 119 114 110 101  89  66  48  23  10   5   0   0   0   0   0   0   0   0
  0   0   0   0   0   0   0   0   0   0   0   0   0   0   0   0   0   0   0   0   0   0   0   0
  0   0   0   0
  0   0   0   0   0   0   0   0   0   0   0   0   0   0   0   4   0   0 126 157 150 155 151 146
142 144 146 143 142 146 146 147 148 148 150 150 150 155 160 166 164 162 162 157 158 157 148 148
156 150 153 165 150 138 127 118 114  91  75  72  57  17  13   6   1   0   0   1   0   0   0   0
  0   0   0   0   0   0   0   0   0   0   0   0   0   0   0   0   0   0   0   0   0   0   0   0
  0   0   0   0
  0   0   0   0   0   0   0   0   0   0   0   0   0   0   0   4   0   0 125 154 149 146 149 148
146 146 147 142 140 139 142 144 145 144 146 147 148 149 152 155 166 168 164 162 160 158 156 158
155 153 157 166 157 146 142 133 118  94  80  78  55  19  15   7   2   0   0   0   0   0   0   0
  0   0   0   0   0   0   0   0   0   0   0   0   0   0   0   0   0   0   0   0   0   0   0   0
  0   0   0   0
  0   0   0   0   0   0   0   0   0   0   0   0   0   0   0   4   0   0 129 160 156 151 147 148
148 152 148 140 139 135 136 137 140 143 141 140 143 145 151 150 154 158 158 158 156 157 158 159
159 153 157 162 157 163 157 140 114 104  93  77  48  26  15   8   2   0   0   0   0   0   0   0
  0   0   0   0   0   0   0   0   0   0   0   0   0   0   0   0   0   0   0   0   0   0   0   0
  0   0   0   0
  0   0   0   0   0   0   0   0   0   0   0   0   0   0   0   4   0   0 129 160 158 158 155 155
153 152 157 154 148 144 143 139 137 142 141 138 142 145 147 150 149 150 153 153 154 161 161 158
160 157 157 155 154 168 165 133 118 117 101  77  44  28  16   9   3   0   0   0   0   0   0   0
  0   0   0   0   0   0   0   0   0   0   0   0   0   0   0   0   0   0   0   0   0   0   0   0
  0   0   0   0
  0   0   0   0   0   0   0   0   0   0   0   0   0   0   0   4   0   0 128 156 151 155 155 157
155 153 152 159 159 153 148 145 143 144 145 149 149 146 143 146 150 149 156 159 157 158 156 156
160 164 160 157 164 168 157 140 143 137 103  78  40  28  17   9   4   0   0   0   0   0   0   0
  0   0   0   0   0   0   0   0   0   0   0   0   0   0   0   0   0   0   0   0   0   0   0   0
  0   0   0   0
  0   0   0   0   0   0   0   0   0   0   0   0   0   0   0   4   0   0 132 163 156 154 149 149
152 155 151 147 151 154 153 149 146 143 145 148 152 154 153 148 146 147 155 158 150 151 147 150
156 155 158 163 163 164 161 151 152 147 109  72  45  29  13   8   3   0   0   0   0   0   0   0
  0   0   0   0   0   0   0   0   0   0   0   0   0   0   0   0   0   0   0   0   0   0   0   0
  0   0   0   0
  0   0   0   0   0   0   0   0   0   0   0   0   0   0   0   4   0   0 131 164 160 163 154 146
150 151 153 153 152 151 151 147 144 139 139 143 148 154 154 150 147 150 153 157 154 150 146 147
154 151 149 163 161 146 154 160 144 134 115  72  49  31  15   9   3   0   0   0   0   0   0   0
  0   0   0   0   0   0   0   0   0   0   0   0   0   0   0   0   0   0   0   0   0   0   0   0
  0   0   0   0
  0   0   0   0   0   0   0   0   0   0   0   0   0   0   0   5   0   0 140 168 157 162 167 162
156 153 155 154 159 161 155 151 152 148 143 143 144 146 146 143 142 148 159 156 151 150 147 145
148 158 155 162 168 151 142 154 142 130 116  77  41  23  16  10   2   0   0   0   0   0   0   0
  0   0   0   0   0   0   0   0   0   0   0   0   0   0   0   0   0   0   0   0   0   0   0   0
  0   0   0   0
  0   0   0   0   0   0   0   0   0   0   0   0   0   0   0   5   1   0 138 179 174 169 167 171
166 162 156 149 150 160 160 158 160 158 153 147 146 144 146 148 151 155 158 154 149 148 152 154
153 161 175 173 168 155 143 149 146 142 121  74  35  25  12   8   2   0   0   0   0   0   0   0
  0   0   0   0   0   0   0   0   0   0   0   0   0   0   0   0   0   0   0   0   0   0   0   0
  0   0   0   0
  0   0   0   0   0   0   0   0   0   0   0   0   0   0   0   4   0   0 127 160 161 176 175 170
168 168 165 158 152 153 156 154 152 152 154 155 153 149 148 153 155 158 157 153 153 156 161 168
167 176 192 186 165 157 151 146 155 145 106  64  44  28  10   8   1   0   0   0   0   0   0   0
  0   0   0   0   0   0   0   0   0   0   0   0   0   0   0   0   0   0   0   0   0   0   0   0
  0   0   0   0
  0   0   0   0   0   0   0   0   0   0   0   0   0   0   0   4   0   0 129 157 144 149 156 159
160 159 163 168 166 162 165 166 158 155 156 156 155 155 154 151 151 150 154 158 159 161 165 173
182 196 204 179 164 165 156 150 161 140  90  58  45  30  10   5   0   0   0   0   0   0   0   0
  0   0   0   0   0   0   0   0   0   0   0   0   0   0   0   0   0   0   0   0   0   0   0   0
  0   0   0   0
  0   0   0   0   0   0   0   0   0   0   0   0   0   0   0   5   0   0 130 158 150 149 143 140
146 154 155 161 171 172 172 183 181 171 167 157 151 156 153 150 154 150 150 158 158 155 164 179
194 208 205 174 161 173 170 162 171 139  85  64  47  29  10   3   0   0   0   0   0   0   0   0
  0   0   0   0   0   0   0   0   0   0   0   0   0   0   0   0   0   0   0   0   0   0   0   0
  0   0   0   0
  0   0   0   0   0   0   0   0   0   0   0   0   0   0   0   4   0   0 130 158 145 149 150 142
139 143 145 146 154 162 169 181 192 183 176 165 158 156 155 154 154 154 148 150 161 162 164 189
205 210 202 176 167 181 187 179 184 147  94  72  51  25   4   2   0   0   0   0   0   0   0   0
  0   0   0   0   0   0   0   0   0   0   0   0   0   0   0   0   0   0   0   0   0   0   0   0
  0   0   0   0
  0   0   0   0   0   0   0   0   0   0   0   0   0   0   0   4   0   0 128 160 150 144 145 146
142 138 137 137 140 149 164 170 181 191 187 180 168 161 162 161 156 147 146 145 154 168 174 191
201 206 200 180 175 187 195 197 191 158 105  77  49  16   3   1   0   0   0   0   0   0   0   0
  0   0   0   0   0   0   0   0   0   0   0   0   0   0   0   0   0   0   0   0   0   0   0   0
  0   0   0   0
  0   0   0   0   0   0   0   0   0   0   0   0   0   0   0   5   0   0 135 166 154 147 144 143
143 142 135 135 136 142 150 161 165 171 174 181 177 164 165 159 156 150 145 150 155 162 183 196
197 200 196 186 175 183 191 191 181 145 106  74  34  11   3   0   0   0   0   0   0   0   0   0
  0   0   0   0   0   2   1   0   0   0   0   0   0   0   0   0   0   0   0   0   0   0   0   0
  0   0   0   0
  0   0   0   0   0   0   0   0   0   0   0   0   0   0   0   4   1   0 128 168 158 153 148 146
145 146 142 134 136 140 142 147 155 156 161 169 173 168 171 171 163 163 157 157 160 162 180 193
190 188 184 175 172 178 181 181 176 138  89  50  27   9   1   0   0   0   0   0   0   0   0   0
  0   0   0   0   0   1   1   0   0   0   0   0   0   0   0   0   0   0   0   0   0   0   0   0
  0   0   0   0
  0   0   0   0   0   0   0   0   0   0   0   0   0   0   0   4   0   0 122 156 161 160 159 152
148 147 151 149 144 142 145 147 157 162 159 162 170 174 171 175 176 179 178 164 157 162 176 185
179 181 180 175 178 177 181 173 166 121  52  43  24   3   0   0   0   0   0   0   0   0   0   0
  0   0   0   0   0   0   0   0   0   0   0   0   0   0   0   0   0   0   0   0   0   0   0   0
  0   0   0   0
  0   0   0   0   0   0   0   0   0   0   0   0   0   0   0   4   0   0 125 152 153 161 158 157
152 151 151 154 155 150 149 151 155 172 167 155 162 171 172 172 176 180 185 185 176 178 192 195
190 185 171 175 183 178 157 120 120  94  52  39  14   2   0   0   0   0   0   0   0   0   0   0
  0   0   0   0   0   0   0   0   0   0   0   0   0   0   0   0   0   0   0   0   0   0   0   0
  0   0   0   0
  0   0   0   0   0   0   0   0   0   0   0   0   0   0   0   4   0   0 117 147 147 162 166 155
157 156 150 151 152 153 151 152 153 165 171 163 165 167 170 176 175 171 163 174 175 180 190 183
183 178 164 175 184 161 119  98  85  69  50  25   8   0   0   0   0   0   0   0   0   0   0   0
  0   0   0   0   0   0   0   0   0   0   0   0   0   0   0   0   0   0   0   0   0   0   0   0
  0   0   0   0
  0   0   0   0   0   0   0   0   0   0   0   0   0   0   0   3   0   0 115 138 141 151 165 159
154 157 148 148 151 156 156 155 155 155 162 166 167 166 169 174 177 173 162 156 154 157 170 178
184 193 195 183 161 139 122 103  68  47  37  17   2   0   0   0   0   0   0   0   0   0   0   0
  0   0   0   0   0   0   0   0   0   0   0   0   0   0   0   0   0   0   0   0   0   0   0   0
  0   0   0   0
  0   0   0   0   0   0   0   0   0   0   0   0   0   0   0   3   0   0 105 128 128 136 143 154
151 149 151 150 148 150 149 154 155 154 157 155 159 166 168 170 172 175 176 171 165 164 169 177
189 196 185 166 144 129 106  73  51  42  20   3   0   0   0   0   0   0   0   0   0   0   0   0
  0   0   0   0   0   0   0   0   0   0   0   0   0   0   0   0   0   0   0   0   0   0   0   0
  0   0   0   0
  0   0   0   0   0   0   0   0   0   0   0   0   0   0   0   2   0   0  96 122 123 126 131 138
145 137 132 140 142 146 147 147 147 143 149 153 149 156 163 166 170 171 179 185 182 181 181 181
183 171 163 146 123  97  59  38  32  15   2   1   0   0   0   0   0   0   0   0   0   0   0   0
  0   0   0   0   0   0   0   0   0   0   0   0   0   0   0   0   0   0   0   0   0   0   0   0
  0   0   0   0
  0   0   0   0   0   0   0   0   0   0   0   0   0   0   0   2   0   0  91 119 126 126 129 136
134 138 133 129 132 141 151 148 145 147 146 144 146 144 142 145 153 160 170 188 205 203 203 198
175 156 146 109  77  48  23  19  10   4   0   0   0   0   0   0   0   0   0   0   0   0   0   0
  0   0   0   0   0   0   0   0   0   0   0   0   0   0   0   0   0   0   0   0   0   0   0   0
  0   0   0   0
  0   0   0   0   0   0   0   0   0   0   0   0   0   0   0   1   0   0  79 109 118 118 120 127
127 125 132 129 128 132 140 150 159 162 148 140 141 142 138 136 139 145 155 173 185 187 176 163
142 122  95  61  35  19  16   9   5   1   0   0   0   0   0   0   0   0   0   0   0   0   0   0
  0   0   0   0   0   0   0   0   0   0   0   0   0   0   0   0   0   0   0   0   0   0   0   0
  0   0   0   0
  0   0   0   0   0   0   0   0   0   0   0   0   0   0   0   1   0   0  70  99 106 106 108 113
119 118 118 119 120 122 124 128 141 148 147 137 127 125 122 118 122 127 131 139 135 138 128 102
 95  87  60  33  22  17   9   5   1   0   0   0   0   0   0   0   0   0   0   0   0   0   0   0
  0   1   0   0   0   1   0   0   0   0   0   0   0   0   0   0   0   0   0   0   0   0   0   0
  0   0   0   0
  0   0   0   0   0   0   0   0   0   0   0   0   0   0   0   1   0   0  66  88  98 107 101 102
108 112 113 109 107 110 114 122 127 123 132 129 121 115 117 115 115 120 117 109 106 117 100  65
 58  45  26  16  12   7   3   1   0   0   0   0   0   0   0   0   0   0   0   0   0   0   0   0
  0   1   1   0   0   1   1   0   0   0   0   0   0   0   0   0   0   0   0   0   0   0   0   0
  0   0   0   0
  0   0   0   0   0   0   0   0   0   0   0   0   0   0   0   1   0   0  58  74  84  96  94  92
 94  97 101 104 100 102 101 107 117 111 116 125 123 115 111 109 105 101  95  93  94  86  61  40
 34  24  13   8   4   1   0   0   0   0   0   0   0   0   0   0   0   0   0   0   0   0   0   0
  0   0   1   0   1   2   2   0   0   0   0   0   0   0   0   0   0   0   0   0   0   0   0   0
  0   0   0   0
  0   0   0   0   0   0   0   0   0   0   0   0   0   0   0   1   0   0  44  59  66  78  86  89
 88  84  87  93  98  96  94  96  98 101  98 110 116 106 101  97  92  85  81  79  72  58  46  35
 25  14   8   4   1   0   0   0   0   0   0   0   0   0   0   0   0   0   0   0   0   0   0   0
  0   0   1   1   1   1   1   0   0   0   0   0   0   0   0   0   0   0   0   0   0   0   0   0
  0   0   0   0
  0   0   0   0   0   0   0   0   0   0   0   0   0   0   0   0   0   0  36  48  56  65  70  80
 82  73  72  77  84  84  82  84  85  87  89  95  94  87  86  88  84  72  66  57  45  36  30  23
 13   7   4   1   0   0   0   0   0   0   0   0   0   0   0   0   0   0   0   0   0   0   0   0
  0   0   0   0   1   0   0   0   0   0   0   0   0   0   0   0   0   0   0   0   0   0   0   0
  0   0   0   0
  0   0   0   0   0   0   0   0   0   0   0   0   0   0   0   0   0   0  30  38  44  52  53  57
 64  66  64  64  64  67  68  70  72  72  77  79  75  73  70  70  69  61  52  40  33  29  19  11
  6   3   0   0   0   0   0   0   0   0   0   0   0   0   0   0   0   0   0   0   0   0   0   0
  0   0   0   0   0   0   0   0   0   0   0   0   0   0   0   0   0   0   0   0   0   0   0   0
  0   0   0   0
  0   0   0   0   0   0   0   0   0   0   0   0   0   0   0   0   0   1  21  27  31  39  41  42
 43  49  52  55  57  57  60  61  63  64  60  59  62  61  56  55  50  42  37  29  22  16  10   6
  2   0   0   0   0   0   0   0   0   0   0   0   0   0   0   0   0   0   0   0   0   0   0   0
  0   0   0   0   0   0   0   0   0   0   0   0   0   0   0   0   0   0   0   0   0   0   0   0
  0   0   0   0
  0   0   0   0   0   0   0   0   0   0   0   0   0   0   0   0   0   1  14  16  19  22  24  27
 31  31  34  39  45  50  51  46  48  47  45  44  43  43  40  36  32  26  22  17  11   7   4   1
  0   0   0   0   0   0   0   0   0   0   0   0   0   0   0   0   0   0   0   0   0   0   0   0
  0   0   0   0   0   0   0   0   0   0   0   0   0   0   0   0   0   0   0   0   0   0   0   0
  0   0   0   0
