P2
# 8-bit pgm gray
100 100
255
  0   0   0   0   0   0   0   0   0   0   0   0   0   0   0   0   0   0   0   0   0   0   0   0
  0   0   0   0   3   0  53  78  77  60 119 201 228 235 198 175 230 226 228 218 115   9  66  58
 61  63  67  71  75  82  89  94 103 111 116 121 140 159 168 177 185 188 193 195 197 200 202 202
201 200 197 197 198 200 200 194 197 166   0   0   9   0   0   0   0   0   0   0   0   0   0   0
  0   0   0   0
  0   0   0   0   0   0   0   0   0   0   0   0   0   0   0   0   0   0   0   0   0   0   0   0
  0   0   0   0   0   5   0   0   0   0  95 201 233 228 183 205 248 243 246 233 111   0  15   0
  0   3  26  45  61  78  89  98 108 119 131 137 147 168 180 189 198 205 210 214 218 221 220 220
221 220 219 217 217 221 220 213 217 184   0   0  11   0   0   0   0   0   0   0   0   0   0   0
  0   0   0   0
  0   0   0   0   0   0   0   0   0   0   0   0   0   0   0   0   0   0   0   0   0   0   0   0
  0   0   0   0   0   0  10  17  31   0  98 198 231 236 237 238 241 242 240 226 111   0  36  17
 25  31  39  49  63  78  88  95 103 116 127 134 138 152 167 178 187 195 200 207 210 211 211 212
213 212 212 211 212 215 214 208 211 179   0   0  10   0   0   0   0   0   0   0   0   0   0   0
  0   0   0   0
  0   0   0   0   0   0   0   0   0   0   0   0   0   0   0   0   0   0   0   0   0   0   0   0
  0   0   0   0   0   0   0   0  20   0  91 197 225 225 220 223 224 219 242 223 110   0  31   5
 17  25  34  47  61  75  88  99 109 120 126 130 137 147 162 175 185 194 202 205 207 209 211 212
215 215 214 214 214 215 216 211 214 182   0   0  11   0   0   0   0   0   0   0   0   0   0   0
  0   0   0   0
  0   0   0   0   0   0   0   0   0   0   0   0   0   0   0   0   0   0   0   0   0   0   0   0
  0   0   0   0   0   0   0   0  20   0  84 193 214 188 166 157 159 176 242 217 108   0  30   7
 17  26  35  46  59  73  90 101 112 121 127 130 132 139 155 169 181 193 197 201 205 209 211 214
216 215 215 215 214 214 216 214 216 183   0   0  11   0   0   0   0   0   0   0   0   0   0   0
  0   0   0   0
  0   0   0   0   0   0   0   0   0   0   0   0   0   0   0   0   0   0   0   0   0   0   0   0
  0   0   0   0   0   0   0   0  19   0  76 188 216 184 178 139 129 189 235 215 106   0  28   6
 15  22  32  44  56  69  83  94 105 116 125 130 133 138 150 166 178 189 191 197 203 207 210 213
213 213 215 216 215 215 215 214 219 184   0   0  11   0   0   0   0   0   0   0   0   0   0   0
  0   0   0   0
  0   0   0   0   0   0   0   0   0   0   0   0   0   0   0   0   0   0   0   0   0   0   0   0
  0   0   0   0   0   0   0   0  18   0  70 181 189 168 185 196 205 198 233 213 107   0  27   5
 13  20  31  42  52  66  77  90 103 114 126 133 137 140 146 159 173 180 185 191 196 204 208 208
210 212 214 215 216 216 217 216 224 189   0   0  11   0   0   0   0   0   0   0   0   0   0   0
  0   0   0   0
  0   0   0   0   0   0   0   0   0   0   0   0   0   0   0   0   0   0   0   0   0   0   0   0
  0   0   0   0   0   0   0   0  17   0  66 173 187 200 222 225 233 227 230 209 107   0  26   5
 13  20  30  41  50  66  79  89 100 114 127 133 136 137 141 150 164 174 179 187 194 202 206 207
209 210 213 214 215 217 216 216 224 190   0   0  12   0   0   0   0   0   0   0   0   0   0   0
  0   0   0   0
  0   0   0   0   0   0   0   0   0   0   0   0   0   0   0   0   0   0   0   0   0   0   0   0
  0   0   0   0   0   0   0   0  15   0  55 164 211 224 228 226 230 231 225 202 104   0  23   6
 13  18  28  38  48  61  75  84  96 112 124 131 133 135 140 143 156 169 175 185 193 198 203 206
208 209 210 213 214 215 215 213 222 189   0   0  11   0   0   0   0   0   0   0   0   0   0   0
  0   0   0   0
  0   0   0   0   0   0   0   0   0   0   0   0   0   0   0   0   0   0   0   0   0   0   0   0
  0   0   0   0   0   0   0   0   8   0  35 128 165 178 184 184 188 186 180 158  79   0  15   5
 11  16  24  34  46  59  70  82  95 106 118 128 133 134 138 139 148 161 172 181 188 194 198 203
205 206 208 210 212 214 214 212 221 189   0   0  11   0   0   0   0   0   0   0   0   0   0   0
  0   0   0   0
  0   0   0   0   0   0   0   0   0   0   0   0   0   0   0   0   0   0   0   0   0   0   0   0
  0   0   0   0   0   0   0   0   0   0   0  28  44  50  50  50  51  47  41  29   5   0   2   5
  9  15  23  32  43  54  68  81  93 106 117 125 129 133 136 137 140 150 163 173 183 188 194 199
202 203 206 208 211 213 212 209 217 187   0   0  11   0   0   0   0   0   0   0   0   0   0   0
  0   0   0   0
  0   0   0   0   0   0   0   0   0   0   0   0   0   0   0   0   0   0   0   0   0   0   0   0
  0   0   0   0   0   0   0   0   0   0   0   0   0   0   0   0   0   0   0   0   0   1   1   5
  8  14  21  31  41  52  66  78  89 104 116 121 125 133 135 136 137 142 156 167 179 187 192 197
201 203 206 210 212 213 212 208 217 186   0   0  11   0   0   0   0   0   0   0   0   0   0   0
  0   0   0   0
  0   0   0   0   0   0   0   0   0   0   0   0   0   0   0   0   0   0   0   0   0   0   0   0
  0   0   0   0   0   0   0   0   0   0   0   7  12  14  15  15  16  15  14  10   2   0   2   5
  9  14  21  30  41  51  62  74  85 101 115 120 125 131 134 135 136 139 147 162 175 183 190 196
199 201 204 205 208 211 209 207 216 185   0   0  11   0   0   0   0   0   0   0   0   0   0   0
  0   0   0   0
  0   0   0   0   0   0   0   0   0   0   0   0   0   0   0   0   0   0   0   0   0   0   0   0
  0   0   0   0   0   0   0   0   0   0   0   0   0   0   0   0   0   0   0   0   0   0   2   6
  9  14  20  28  39  49  62  75  86  98 111 119 127 132 132 134 136 137 141 154 164 173 182 187
193 198 199 200 204 209 208 206 214 183   0   0  11   0   0   0   0   0   0   0   0   0   0   0
  0   0   0   0
  0   0   0   0   0   0   0   0   0   0   0   0   0   0   0   0   0   0   0   0   0   0   0   0
  0   0   0   0   0   0   0   0   0   0   0   0   0   0   0   0   0   0   0   1   1   0   2   6
 10  14  21  29  39  49  61  73  84  95 108 120 128 132 130 130 134 134 138 150 158 168 176 182
191 194 196 200 205 207 208 206 214 184   0   0  11   0   0   0   0   0   0   0   0   0   0   0
  0   0   0   0
  0   0   0   0   0   0   0   0   0   0   0   0   0   0   0   0   0   0   0   0   0   0   0   0
  0   0   0   0   0   0   0   0   0   0   0   0   0   0   0   0   0   0   0   2   2   0   2   5
 10  15  21  29  38  48  59  70  85  93 107 122 125 128 129 131 132 135 136 142 155 164 171 182
187 190 195 198 202 203 206 205 214 184   0   0  11   0   0   0   0   0   0   0   0   0   0   0
  0   0   0   0
  0   0   0   0   0   0   0   0   0   0   0   0   0   0   0   0   0   0   0   0   0   0   0   0
  0   0   0   0   0   0   0   0   0   0   0   0   0   0   0   0   0   0   0   0   0   0   2   6
 10  16  23  30  39  50  62  74  85  97 110 118 120 126 130 134 134 132 134 137 144 157 167 175
181 187 192 195 197 200 203 204 214 184   0   0  11   0   0   0   0   0   0   0   0   0   0   0
  0   0   0   0
  0   0   0   0   0   0   0   0   0   0   0   0   0   0   0   0   0   0   0   0   0   0   0   0
  0   0   0   0   0   0   0   0   0   0   0   0   0   0   0   0   0   0   0   0   0   0   3   7
 11  16  23  31  41  52  65  80  92 103 113 115 120 127 132 132 130 130 132 134 140 154 162 169
176 182 188 192 195 199 203 203 212 181   0   0  11   0   0   0   0   0   0   0   0   0   0   0
  0   0   0   0
  0   0   0   0   0   0   0   0   0   0   0   0   0   0   0   0   0   0   0   0   0   0   0   0
  0   0   0   0   0   0   0   0   1   1   0   0   0   0   0   0   0   0   0   0   0   1   4   7
 12  17  24  32  45  58  68  80  94 106 113 120 126 130 133 133 130 130 134 136 141 146 152 161
171 179 185 191 194 196 200 200 209 179   0   0  10   0   0   0   0   0   0   0   0   0   0   0
  0   0   0   0
  0   0   0   0   0   0   0   0   0   0   0   0   0   0   0   0   0   0   0   0   0   0   0   0
  0   0   0   1   1   0   0   0   0   0   0   0   0   0   0   0   0   0   0   0   0   2   5   8
 14  19  26  35  47  60  73  85  98 108 113 121 128 129 129 128 129 129 131 132 134 139 148 158
167 175 183 189 192 193 196 198 210 179   0   0  10   0   0   0   0   0   0   0   0   0   0   0
  0   0   0   0
  0   0   0   0   0   0   0   0   0   0   0   0   0   0   0   0   0   0   0   0   0   0   0   0
  0   0   0   0   0   0   1   0   8  13   1   0   0   0   0   0   0   0   0   0   0   3   8  11
 16  24  31  41  52  67  81  90 100 108 116 125 127 127 125 124 128 128 128 131 133 138 145 155
165 172 178 183 189 193 193 194 208 179   0   0  10   0   0   0   0   0   0   0   0   0   0   0
  0   0   0   0
  0   0   0   0   0   0   0   0   0   0   0   0   0   0   0   0   0   0   0   0   0   0   0   0
  0   0   0  31  37   3   0   0  41  37   0   1   0   0   0   0   0   0   0   0   1   5  10  14
 19  27  35  48  64  74  80  90 104 112 121 125 124 124 126 127 127 127 129 131 136 142 147 151
158 166 172 179 187 190 191 194 206 177   0   0  10   0   0   0   0   0   0   0   0   0   0   0
  0   0   0   0
  0   0   0   0   0   0   0   0   0   0   0   0   0   0   0   0   0   0   0   0   0   0   0   0
  3   0  17  57  54  16   0   0  44  29   0   3   0   0   0   0   0   0   0   0   2   6  11  15
 22  30  41  53  68  77  84  98 109 116 121 124 125 125 126 125 127 128 130 134 138 141 141 144
152 162 169 177 184 188 192 192 202 174   0   0  10   0   0   0   0   0   0   0   0   0   0   0
  0   0   0   0
  0   0   0   0   0   0   0   0   0   0   0   0   0   0   0   0   0   0   0   0   0   0   0   0
  3   0  18  58  37   0   1   0  39  36   6   0   1   0   0   0   0   0   0   1   4   7  13  19
 26  36  48  60  72  83  94 106 114 118 121 125 127 125 124 125 128 130 129 135 137 135 137 140
149 159 167 174 181 188 191 189 199 172   0   0   9   0   0   0   0   0   0   0   0   0   0   0
  0   0   0   0
  0   0   0   0   0   0   0   0   0   0   0   0   0   0   0   0   0   0   0   0   0   0   0   0
  0   0   0  30  21   0   2   0  10  22   2   0   0   0   0   0   0   0   0   2   6   9  14  22
 32  43  56  68  79  89  99 110 115 118 120 124 125 124 126 127 129 134 134 136 135 137 139 140
145 154 163 172 176 183 191 189 197 170   0   0   9   0   0   0   0   0   0   0   0   0   0   0
  0   0   0   0
  0   0   0   0   0   0   0   0   0   0   0   0   0   0   0   0   0   0   0   0   0   0   0   0
  0   0   0   0   1   1   0   0   0   0   0   0   0   0   0   0   0   0   0   4   7  12  17  26
 38  50  59  75  88  95 104 113 115 117 121 119 122 125 128 127 128 130 130 132 133 135 136 136
138 150 163 168 175 183 188 185 194 169   0   0   9   0   0   0   0   0   0   0   0   0   0   0
  0   0   0   0
  0   0   0   0   0   0   0   0   0   0   0   0   0   0   0   0   0   0   0   0   0   0   0   0
  0   0   0   1   0   0   0   0   1   1   0   0   0   0   0   0   0   0   1   5   9  14  21  30
 42  58  67  79  93 102 110 116 119 119 120 120 122 120 123 127 126 127 129 132 134 134 135 136
138 147 159 167 172 179 186 188 193 169   0   0   9   0   0   0   0   0   0   0   0   0   0   0
  0   0   0   0
  0   0   0   0   0   0   0   0   0   0   0   0   0   0   0   0   0   0   0   0   0   0   0   0
  0   0   0   0   0   0   0   0   0   0   0   0   0   0   0   0   0   0   3   6  11  17  25  36
 48  62  74  83  95 104 112 116 121 124 122 120 122 123 122 126 127 129 131 132 133 135 138 139
139 143 154 164 169 177 185 185 192 167   0   0   9   0   0   0   0   0   0   0   0   0   0   0
  0   0   0   0
  0   0   0   0   0   0   0   0   0   0   0   0   0   0   0   0   0   0   0   0   0   0   0   0
  0   0   0   0   0   0   0   0   0   0   0   0   0   0   0   0   0   0   4   8  12  19  28  40
 53  63  78  90  98 106 113 114 118 124 125 125 126 124 126 127 128 127 130 131 132 134 139 141
141 145 150 161 171 174 178 181 191 165   0   0   9   0   0   0   0   0   0   0   0   0   0   0
  0   0   0   0
  0   0   0   0   0   0   0   0   0   0   0   0   0   0   0   0   0   0   0   0   0   0   0   0
  0   0   0   0   0   0   0   0   0   0   0   0   0   0   0   0   0   2   5   9  16  23  32  44
 57  69  84  96 102 110 117 116 118 121 125 129 128 126 126 125 126 130 134 137 138 138 142 143
142 140 143 153 167 173 175 177 191 163   0   0   8   0   0   0   0   0   0   0   0   0   0   0
  0   0   0   0
  0   0   0   0   0   0   0   0   0   0   0   0   0   0   0   0   0   0   0   0   0   0   0   0
  0   0   0   0   0   0   0   0   0   0   0   0   0   0   0   0   0   3   7  11  17  27  37  48
 60  74  85  96 105 109 117 121 121 121 123 125 127 129 127 126 128 133 140 141 139 139 141 140
137 137 140 150 162 170 171 175 189 161   0   0   8   0   0   0   0   0   0   0   0   0   0   0
  0   0   0   0
  0   0   0   0   0   0   0   0   0   0   0   0   0   0   0   0   0   0   0   0   0   0   0   0
  0   0   0   0   0   0   0   0   0   0   0   0   0   0   0   0   0   4   8  13  19  29  41  55
 66  76  87  94 104 114 116 119 122 123 126 126 124 125 128 131 132 135 138 134 133 135 135 135
136 138 141 149 159 164 169 175 187 161   0   0   8   0   0   0   0   0   0   0   0   0   0   0
  0   0   0   0
  0   0   0   0   0   0   0   0   0   0   0   0   0   0   0   0   0   0   0   0   0   0   0   0
  0   0   0   0   0   0   0   0   0   0   0   0   0   0   0   0   1   5   8  15  23  33  42  54
 71  82  91  96 102 114 120 122 124 126 129 128 125 125 125 127 130 133 132 130 131 133 132 133
136 139 140 144 153 161 169 174 188 163   0   0   8   0   0   0   0   0   0   0   0   0   0   0
  0   0   0   0
  0   0   0   0   0   0   0   0   0   0   0   0   0   0   0   0   0   0   0   0   0   0   0   0
  0   0   0   0   0   0   0   0   0   0   0   0   0   0   0   0   2   6  10  17  25  36  47  59
 72  84  93 100 106 112 118 125 130 128 127 124 124 126 124 125 129 130 127 128 130 133 137 136
135 137 141 144 152 164 170 173 187 162   0   0   8   0   0   0   0   0   0   0   0   0   0   0
  0   0   0   0
  0   0   0   0   0   0   0   0   0   0   0   0   0   0   0   0   0   0   0   0   0   0   0   0
  0   0   0   0   0   0   0   0   1   0   0   0   0   0   0   0   3   7  12  19  27  38  51  64
 75  86  94 103 109 112 116 122 129 128 128 126 123 123 125 126 129 129 131 136 137 137 139 139
137 139 140 143 153 164 167 170 183 158   0   0   8   0   0   0   0   0   0   0   0   0   0   0
  0   0   0   0
  0   0   0   0   0   0   0   0   0   0   0   0   0   0   0   0   0   0   0   0   0   0   0   0
  0   0   0   0   0   0   0   0   0   0   0   0   0   0   0   0   4   8  13  20  29  40  53  65
 76  88  97 103 111 115 119 123 125 129 127 126 125 125 128 130 132 133 136 136 134 135 139 137
136 137 142 145 148 157 160 162 179 155   0   0   7   0   0   0   0   0   0   0   0   0   0   0
  0   0   0   0
  0   0   0   0   0   0   0   0   0   0   0   0   0   0   0   0   0   0   0   0   0   0   0   0
  0   0   0   0   0   0   0   0   0   0   0   0   0   0   0   1   5   9  14  22  32  43  55  69
 80  89  97 103 109 118 121 119 120 126 130 129 129 128 133 132 132 132 131 132 133 136 135 136
139 140 145 145 144 146 155 164 177 153   0   0   7   0   0   0   0   0   0   0   0   0   0   0
  0   0   0   0
  0   0   0   0   0   0   0   0   0   0   0   0   0   0   0   0   0   0   0   0   0   0   0   0
  0   0   0   0   0   0   0   0   0   0   0   0   0   0   0   2   6  10  16  25  34  46  59  71
 81  91 101 107 111 114 118 118 122 125 124 127 126 128 135 134 132 131 132 133 135 136 135 137
142 144 142 143 147 144 154 164 176 154   0   0   7   0   0   0   0   0   0   0   0   0   0   0
  0   0   0   0
  0   0   0   0   0   0   0   0   0   0   0   0   0   0   0   0   0   0   0   0   0   0   0   0
  0   0   0   0   0   0   0   0   0   0   0   0   0   0   0   2   6  11  17  26  36  49  60  71
 85  94 101 110 115 115 118 120 124 127 125 125 131 137 136 134 134 132 131 133 136 136 135 138
142 144 143 147 150 149 154 163 177 150   0   0   7   0   0   0   0   0   0   0   0   0   0   0
  0   0   0   0
  0   0   0   0   0   0   0   0   0   0   0   0   0   0   0   0   0   0   0   0   0   0   0   0
  0   0   0   0   0   0   0   0   0   0   0   0   0   0   0   2   7  12  18  28  38  51  64  75
 88  95 100 107 115 120 122 125 133 138 135 136 138 138 137 140 141 137 133 133 136 138 138 143
146 147 149 150 152 154 151 149 164 144   0   0   6   0   0   0   0   0   0   0   0   0   0   0
  0   0   0   0
  0   0   0   0   0   0   0   0   0   0   0   0   0   0   0   0   0   0   0   0   0   0   0   0
  0   0   0   0   0   0   0   0   0   0   0   0   0   0   0   3   7  12  19  29  40  53  67  76
 86  95 103 109 113 118 121 123 128 136 139 139 135 137 141 146 147 144 142 141 140 142 144 146
148 150 146 147 149 148 142 139 153 138   0   0   6   0   0   0   0   0   0   0   0   0   0   0
  0   0   0   0
  0   0   0   0   0   0   0   0   0   0   0   0   0   0   0   0   0   0   0   0   0   0   0   0
  0   0   0   0   0   0   0   0   0   0   0   0   0   0   0   3   8  13  20  30  41  53  67  78
 88  96 103 109 113 117 120 121 123 132 137 133 133 138 146 153 154 153 150 146 145 147 149 151
155 151 147 147 147 142 141 139 147 129   0   0   5   0   0   0   0   0   0   0   0   0   0   0
  0   0   0   0
  0   0   0   0   0   0   0   0   0   0   0   0   0   0   0   0   0   0   0   0   0   0   0   0
  0   0   0   0   0   0   0   0   0   0   0   0   0   0   1   4   8  15  21  30  42  54  66  78
 89  97 104 108 111 115 121 122 123 133 136 137 140 143 155 167 164 158 155 153 155 156 155 152
148 145 144 151 153 145 143 141 148 128   0   0   5   0   0   0   0   0   0   0   0   0   0   0
  0   0   0   0
  0   0   0   0   0   0   0   0   0   0   0   0   0   0   0   0   0   0   0   0   0   0   0   0
  0   0   0   0   0   0   0   0   0   0   0   0   0   0   1   4   9  14  23  32  43  55  66  78
 89  96 103 106 112 116 123 129 135 141 142 144 143 145 155 164 166 165 165 163 154 153 152 146
141 141 144 150 154 155 150 144 152 130   0   0   5   0   0   0   0   0   0   0   0   0   0   0
  0   0   0   0
  0   0   0   0   0   0   0   0   0   0   0   0   0   0   0   0   0   0   0   0   0   0   0   0
  0   0   0   0   0   0   0   0   0   0   0   0   0   0   2   5   9  15  24  34  46  58  70  81
 91  98 102 107 112 120 131 139 144 145 144 146 147 152 160 170 179 175 169 163 152 150 146 142
140 140 144 141 144 155 151 143 149 130   0   0   5   0   0   0   0   0   0   0   0   0   0   0
  0   0   0   0
  0   0   0   0   0   0   0   0   0   0   0   0   0   0   0   0   0   0   0   0   0   0   0   0
  0   0   0   0   0   0   0   0   0   0   0   0   0   0   2   5  10  16  24  34  47  60  73  83
 93 102 108 112 117 126 139 152 153 152 152 154 160 170 178 186 188 182 173 165 156 152 148 143
140 143 148 147 153 154 149 146 151 129   0   0   5   0   0   0   0   0   0   0   0   0   0   0
  0   0   0   0
  0   0   0   0   0   0   0   0   0   0   0   0   0   0   0   0   0   0   0   0   0   0   0   0
  0   0   0   0   0   0   0   0   0   0   0   0   0   0   2   6  10  16  24  35  46  59  71  81
 91 100 110 118 128 135 146 165 172 165 165 170 181 188 193 197 193 189 183 174 166 167 157 144
143 148 154 157 155 150 149 144 147 123   0   0   4   0   0   0   0   0   0   0   0   0   0   0
  0   0   0   0
  0   0   0   0   0   0   0   0   0   0   0   0   0   0   0   0   0   0   0   0   0   0   0   0
  0   0   0   0   0   0   0   0   0   0   0   0   0   0   2   6  10  16  24  34  46  58  68  80
 90  97 106 116 131 143 154 165 175 175 174 179 187 192 195 196 197 194 194 186 173 168 155 145
145 151 153 154 154 145 142 140 143 121   0   0   4   0   0   0   0   0   0   0   0   0   0   0
  0   0   0   0
  0   0   0   0   0   0   0   0   0   0   0   0   0   0   0   0   0   0   0   0   0   0   0   0
  0   0   0   0   0   0   0   0   0   0   0   0   0   0   3   6  10  17  26  35  45  57  69  79
 87  95 103 112 128 146 161 167 173 174 172 176 184 196 200 197 196 197 197 191 175 166 159 153
155 154 153 150 145 140 138 138 145 119   0   0   4   0   0   0   0   0   0   0   0   0   0   0
  0   0   0   0
  0   0   0   0   0   0   0   0   0   0   0   0   0   0   0   0   0   0   0   0   0   0   0   0
  0   0   0   0   0   0   0   0   0   0   0   0   0   0   3   6  11  17  26  37  47  58  70  78
 88  97 104 116 127 144 160 168 176 177 180 185 191 203 204 198 199 207 207 198 187 171 161 162
164 160 154 146 142 142 142 138 144 122   0   0   4   0   0   0   0   0   0   0   0   0   0   0
  0   0   0   0
  0   0   0   0   0   0   0   0   0   0   0   0   0   0   0   0   0   0   0   0   0   0   0   0
  0   0   0   0   0   0   0   0   0   0   0   0   0   0   3   6  11  17  25  36  48  61  71  81
 92 102 109 117 126 147 165 172 177 176 178 181 193 202 201 198 204 213 212 205 201 185 162 164
168 165 156 146 144 143 143 140 143 120   0   0   4   0   0   0   0   0   0   0   0   0   0   0
  0   0   0   0
  0   0   0   0   0   0   0   0   0   0   0   0   0   0   0   0   0   0   0   0   0   0   0   0
  0   0   0   0   0   0   0   0   0   0   0   0   0   0   3   6  11  17  26  36  47  60  72  82
 92 104 117 121 126 151 168 173 174 174 173 182 191 195 199 204 210 210 208 209 205 192 171 167
170 165 151 143 144 142 138 136 140 117   0   0   4   0   0   0   0   0   0   0   0   0   0   0
  0   0   0   0
  0   0   0   0   0   0   0   0   0   0   0   0   0   0   0   0   0   0   0   0   0   0   0   0
  0   0   0   0   0   0   0   0   0   0   0   0   0   0   3   6  11  16  25  36  47  59  71  83
 89 101 116 123 137 154 165 173 177 175 174 185 188 187 197 205 211 211 209 210 203 195 180 169
165 157 146 142 142 140 138 133 139 121   0   0   4   0   0   0   0   0   0   0   0   0   0   0
  0   0   0   0
  0   0   0   0   0   0   0   0   0   0   0   0   0   0   0   0   0   0   0   0   0   0   0   0
  0   0   0   0   0   0   0   0   0   0   0   0   0   0   3   6  11  16  23  35  46  56  68  82
 92 102 114 125 144 156 166 173 172 162 166 179 178 175 190 203 208 208 209 209 207 203 184 164
162 157 147 143 140 140 140 136 145 125   0   0   5   0   0   0   0   0   0   0   0   0   0   0
  0   0   0   0
  0   0   0   0   0   0   0   0   0   0   0   0   0   0   0   0   0   0   0   0   0   0   0   0
  0   0   0   0   0   0   0   0   0   0   0   0   0   0   3   6  10  15  22  32  44  57  69  82
 94 103 113 127 143 156 169 167 150 152 178 178 175 178 192 197 198 201 209 210 210 207 192 175
168 164 150 143 145 144 139 140 147 119   0   0   4   0   0   0   0   0   0   0   0   0   0   0
  0   0   0   0
  0   0   0   0   0   0   0   0   0   0   0   0   0   0   0   0   0   0   0   0   0   0   0   0
  0   0   0   0   0   0   0   0   0   0   0   0   0   0   4   7  10  15  22  31  42  56  70  83
 95 106 117 129 143 163 166 156 145 170 182 167 169 183 190 188 194 205 210 208 207 205 200 185
173 168 152 144 141 139 139 140 144 119   0   0   4   0   0   0   0   0   0   0   0   0   0   0
  0   0   0   0
  0   0   0   0   0   0   0   0   0   0   0   0   0   0   0   0   0   0   0   0   0   0   0   0
  0   0   0   0   0   0   0   0   0   0   0   0   0   0   3  10  10  15  22  30  41  54  67  78
 94 105 118 134 154 162 159 166 162 173 169 157 166 180 177 180 194 201 204 208 209 210 206 196
182 164 152 146 143 140 144 143 146 125   5   0   5   0   0   0   0   0   0   0   0   0   0   0
  0   0   0   0
  0   0   0   0   0   0   0   0   0   0   0   0   0   0   0   0   0   0   0   0   0   0   0   0
  0   0   0   0   0   0   0   0   0   0   0   0   0   0   3  11  10  14  22  30  42  52  63  77
 94 110 125 144 156 157 167 174 170 176 163 161 176 181 175 185 198 201 205 209 208 216 216 204
181 158 148 146 144 142 146 143 144 126   8   0   5   0   0   0   0   0   0   0   0   0   0   0
  0   0   0   0
  0   0   0   0   0   0   0   0   0   0   0   0   0   0   0   0   0   0   0   0   0   0   0   0
  0   0   0   0   0   0   0   0   0   0   0   0   0   0   2  12  10  14  21  29  40  52  66  83
 98 115 133 144 152 162 171 171 175 171 164 175 184 180 182 197 203 206 207 207 211 216 211 201
179 158 149 144 143 149 149 139 143 129  12   0   6   0   0   0   0   0   0   0   0   0   0   0
  0   0   0   0
  0   0   0   0   0   0   0   0   0   0   0   0   0   0   0   0   0   0   0   0   0   0   0   0
  0   0   0   0   0   0   0   0   0   0   0   0   0   0   1  15  10  13  20  26  37  50  63  78
 95 108 123 137 148 156 168 173 173 165 169 181 183 185 192 200 203 203 202 201 199 206 203 197
186 168 161 153 154 152 144 139 146 129   8   0   5   0   0   0   0   0   0   0   0   0   0   0
  0   0   0   0
  0   0   0   0   0   0   0   0   0   0   0   0   0   0   0   0   0   0   0   0   0   0   0   0
  0   0   0   0   0   0   0   0   0   0   0   0   0   0   0  15  12  11  19  26  36  46  57  71
 81  90 117 144 153 153 164 174 169 160 163 175 179 180 186 193 195 194 196 198 197 198 193 189
191 182 174 167 154 146 142 140 144 128  10   0   5   0   0   0   0   0   0   0   0   0   0   0
  0   0   0   0
  0   0   0   0   0   0   0   0   0   0   0   0   0   0   0   0   0   0   0   0   0   0   0   0
  0   0   0   0   0   0   0   0   0   0   0   0   0   0   0  13  15  11  16  23  33  43  56  70
 83  96 132 159 160 157 171 179 172 166 173 178 174 171 173 179 178 184 184 186 195 200 196 191
190 185 176 159 146 145 145 142 150 129   1   0   5   0   0   0   0   0   0   0   0   0   0   0
  0   0   0   0
  0   0   0   0   0   0   0   0   0   0   0   0   0   0   0   0   0   0   0   0   0   0   0   0
  0   0   0   0   0   0   0   0   0   0   0   0   0   0   0   9  16  15  14  21  33  45  59  76
 99 130 161 165 159 165 179 178 175 176 172 170 165 163 169 175 176 180 179 185 198 205 198 189
185 175 164 149 146 147 147 147 148 126   8   0   5   0   0   0   0   0   0   0   0   0   0   0
  0   0   0   0
  0   0   0   0   0   0   0   0   0   0   0   0   0   0   0   0   0   0   0   0   0   0   0   0
  0   0   0   0   0   0   0   0   0   0   0   0   0   0   0   6  13  22  20  24  38  56  72  94
123 145 150 147 152 158 154 158 169 162 158 152 154 169 174 170 173 183 187 196 203 200 189 187
180 166 163 156 152 147 143 139 145 128   9   0   5   0   0   0   0   0   0   0   0   0   0   0
  0   0   0   0
  0   0   0   0   0   0   0   0   0   0   0   0   0   0   0   0   0   0   0   0   0   0   0   0
  0   0   0   0   0   0   0   0   0   0   0   0   0   0   0   5   6  25  30  34  43  63  91 124
143 138 138 137 139 136 135 136 147 155 152 146 164 174 176 179 184 192 199 204 204 193 186 183
179 171 162 151 147 144 138 137 146 126   6   0   5   0   0   0   0   0   0   0   0   0   0   0
  0   0   0   0
  0   0   0   0   0   0   0   0   0   0   0   0   0   0   0   0   0   0   0   0   0   0   0   0
  0   0   0   0   0   0   0   0   0   0   0   0   0   0   0   6   3  24  31  38  51  72 102 124
134 132 124 119 120 124 128 131 142 156 159 162 173 174 179 191 192 196 203 204 196 191 182 178
179 171 155 147 147 146 141 142 152 131   6   0   5   0   0   0   0   0   0   0   0   0   0   0
  0   0   0   0
  0   0   0   0   0   0   0   0   0   0   0   0   0   0   0   0   0   0   0   0   0   0   0   0
  0   0   0   0   0   0   0   0   0   0   0   0   0   0   0  13   4  22  29  32  48  66  82  89
103 118 115 105 108 120 129 136 150 160 159 161 170 178 192 197 189 196 203 195 186 183 178 178
179 166 158 156 149 146 144 144 152 132   6   0   6   0   0   0   0   0   0   0   0   0   0   0
  0   0   0   0
  0   0   0   0   0   0   0   0   0   0   0   0   0   0   0   0   0   0   0   0   0   0   0   0
  0   0   0   0   0   0   0   0   0   0   0   0   0   0   0  15   3  17  27  25  38  54  66  83
 97 116 134 129 124 127 128 133 143 149 148 147 157 177 192 193 195 198 199 198 197 188 187 187
176 164 157 149 146 148 148 147 150 130   7   0   5   0   0   0   0   0   0   0   0   0   0   0
  0   0   0   0
  0   0   0   0   0   0   0   0   0   0   0   0   0   0   0   0   0   0   0   0   0   0   0   0
  0   0   0   0   0   0   0   0   0   0   0   0   0   0   0  14   2   9  21  18  25  45  63  78
 90  97 115 131 137 138 141 145 144 148 150 154 167 171 172 174 181 186 188 195 193 190 192 183
164 154 147 145 144 141 145 147 155 132   6   0   6   0   0   0   0   0   0   0   0   0   0   0
  0   0   0   0
  0   0   0   0   0   0   0   0   0   0   0   0   0   0   0   0   0   0   0   0   0   0   0   0
  0   0   0   0   0   0   0   0   0   0   0   0   0   0   0  14   2   4  14  13  15  24  50  71
 79  83  91 112 136 140 143 160 164 157 153 152 158 164 161 156 166 178 178 179 181 183 183 174
147 140 141 140 138 141 145 146 153 132   6   0   6   0   0   0   0   0   0   0   0   0   0   0
  0   0   0   0
  0   0   0   0   0   0   0   0   0   0   0   0   0   0   0   0   0   0   0   0   0   0   0   0
  0   0   0   0   0   0   0   0   0   0   0   0   0   0   0  14   2   1  10  11  16  22  32  57
 77  94 105 110 119 130 143 153 154 140 140 152 164 163 154 159 166 173 179 179 178 181 181 157
138 139 137 136 141 144 144 143 148 128   7   0   5   0   0   0   0   0   0   0   0   0   0   0
  0   0   0   0
  0   0   0   0   0   0   0   0   0   0   0   0   0   0   0   0   0   0   0   0   0   0   0   0
  0   0   0   0   0   0   0   0   0   0   0   0   0   0   0  14   2   0   7  10  13  21  29  40
 58  84 108 122 125 139 149 137 135 140 155 169 161 143 156 175 175 184 186 178 183 188 165 140
139 134 133 138 142 142 140 141 149 130   6   0   5   0   0   0   0   0   0   0   0   0   0   0
  0   0   0   0
  0   0   0   0   0   0   0   0   0   0   0   0   0   0   0   0   0   0   0   0   0   0   0   0
  0   0   0   0   0   0   0   0   0   0   0   0   0   0   0  14   3   0   5   9  11  16  25  35
 49  69  91 105 113 131 141 135 127 137 150 157 151 159 182 189 183 184 182 189 198 179 148 141
137 133 137 140 141 144 144 141 146 127   6   0   5   0   0   0   0   0   0   0   0   0   0   0
  0   0   0   0
  0   0   0   0   0   0   0   0   0   0   0   0   0   0   0   0   0   0   0   0   0   0   0   0
  0   0   0   0   0   0   0   0   0   0   0   0   0   0   0  14   3   0   2   7   9  13  20  31
 43  55  72  94 108 112 129 144 145 156 168 166 169 185 187 182 178 185 195 204 193 165 143 137
132 135 138 137 139 138 136 136 143 125   9   0   5   0   0   0   0   0   0   0   0   0   0   0
  0   0   0   0
  0   0   0   0   0   0   0   0   0   0   0   0   0   0   0   0   0   0   0   0   0   0   0   0
  0   0   0   0   0   0   0   0   0   1   0   0   0   0   0  14   3   0   0   4   7  11  17  26
 34  48  65  84 108 126 139 153 176 194 193 185 183 181 179 180 184 187 181 167 158 152 140 134
130 130 129 135 135 131 130 134 142 124   9   0   5   0   0   0   0   0   0   0   0   0   0   0
  0   0   0   0
  0   0   0   0   0   0   0   0   0   0   0   0   0   0   0   0   0   0   0   0   1   1   0   1
  0   0   0   0   0   0   0   0   0   0   0   0   0   0   0  14   3   0   0   1   6   9  14  22
 28  40  61  76  91 112 137 160 175 178 167 160 156 156 160 165 159 147 143 138 134 133 132 129
126 126 132 134 131 130 130 134 141 124   7   0   5   0   0   0   0   0   0   0   0   0   0   0
  0   0   0   0
  0   0   0   0   0   0   0   0   0   0   0   0   0   0   0   0   0   0   0   0   1   1   1   1
  1   1   1   1   0   0   0   0   2   0   0   0   0   0   0  14   3   0   0   0   3   7  11  18
 25  36  47  58  71  85 103 116 120 125 127 132 144 147 144 138 130 128 129 131 126 123 124 120
122 130 130 126 127 129 132 134 140 123   8   0   5   0   0   0   0   0   0   0   0   0   0   0
  0   0   0   0
  0   0   0   0   0   0   0   0   0   0   0   0   0   0   0   0   0   0   0   0   0   1   1   0
  1   0   1   0   0   0   0   0   0   0   0   0   0   0   0  14   3   0   0   0   1   4   8  13
 18  25  33  43  53  65  77  86  95  99 105 114 122 134 130 124 127 125 119 116 111 113 110 113
120 120 117 117 122 127 129 130 134 118   8   0   4   0   0   0   0   0   0   0   0   0   0   0
  0   0   0   0
  0   0   0   0   0   0   0   0   0   0   0   0   0   0   0   0   0   0   0   0   0   0   0   0
  0   0   0   1   0   0   0   0   0   0   0   0   0   0   0  14   3   0   0   0   0   3   6   9
 14  18  26  35  45  54  63  72  78  82  86  88  96 104 100 103 113 115 106 102 102 105 108 115
110 112 116 116 121 119 120 123 126 110   8   0   4   0   0   0   0   0   0   0   0   0   0   0
  0   0   0   0
  0   0   0   0   0   0   0   0   0   0   0   0   0   0   0   0   0   0   0   0   1   1   0   0
  1   0   0   0   0   0   0   0   0   0   0   0   0   0   0  14   3   0   0   0   0   1   4   7
 10  15  20  27  33  39  46  53  60  67  70  78  90  86  84  86  89  95  90  91  96 103 113 109
105 108 107 108 109 111 115 116 121 106  10   0   4   0   0   0   0   0   0   0   0   0   0   0
  0   0   0   0
  0   0   0   0   0   0   0   0   0   0   0   0   0   0   0   0   0   0   0   1   1   1   0   0
  0   0   0   0   0   0   0   0   0   0   0   0   0   0   0  14   3   0   0   0   0   0   1   5
  7  10  14  18  23  30  36  42  49  56  63  71  71  70  74  76  78  82  84  85  90  94  94  93
 97  98 101  99 102 105 106 108 110  95   9   0   3   0   0   0   0   0   0   0   0   0   0   0
  0   0   0   0
  0   0   0   0   0   0   0   0   0   0   0   0   0   0   0   0   0   0   1   1   1   1   1   1
  1   0   0   0   1   1   0   0   0   0   0   0   0   0   0  14   3   0   0   0   0   0   0   2
  5   7  10  14  18  23  29  35  41  47  53  54  57  61  64  66  69  77  79  80  80  82  83  86
 89  91  90  95 101  98  97  95  93  82  10   0   2   0   0   0   0   0   0   0   0   0   0   0
  0   0   0   0
  0   0   0   0   0   0   0   0   0   0   0   0   0   0   0   0   0   0   1   1   1   1   1   1
  1   1   1   1   1   1   1   0   0   0   0   0   0   0   0  14   3   0   0   0   0   0   0   0
  3   6   7  10  13  17  22  26  31  36  41  45  48  52  55  59  65  69  66  69  73  75  81  82
 81  79  80  87  88  84  83  81  79  71  11   0   2   0   0   0   0   0   0   0   0   0   0   0
  0   0   0   0
  0   0   0   0   0   0   0   0   0   0   0   0   0   0   0   0   0   0   1   1   1   1   1   1
  1   1   1   1   1   1   0   1   1   0   0   1   0   0   0  14   3   0   0   0   0   0   0   0
  0   4   6   7  10  12  15  18  23  28  32  36  40  44  49  51  52  53  55  59  63  68  76  71
 69  69  73  75  72  71  70  71  69  62  11   0   1   0   0   0   0   0   0   0   0   0   0   0
  0   0   0   0
  0   0   0   0   0   0   0   0   0   0   0   0   0   0   0   0   0   0   1   1   1   2   1   1
  1   1   1   1   1   1   0   0   1   1   1   1   1   0   0  15   3   0   0   0   0   0   0   0
  0   0   3   6   7   9  11  14  17  20  23  27  32  35  37  39  42  45  48  51  54  59  57  56
 60  61  65  64  63  63  62  60  59  57  12   0   1   0   0   0   0   0   0   0   0   0   0   0
  0   0   0   0
  0   0   0   0   0   0   0   0   0   0   0   0   0   0   0   0   0   0   1   2   1   2   2   1
  1   1   1   1   1   1   1   1   1   1   1   1   1   0   0  15   3   0   0   0   0   0   0   0
  0   0   0   3   5   6   8  10  12  14  17  20  23  25  28  32  35  38  44  43  43  45  47  50
 51  52  52  53  53  54  52  52  52  49   9   0   1   0   0   0   0   0   0   0   0   0   0   0
  0   0   0   0
  0   0   0   0   0   0   0   0   0   0   0   0   0   0   0   0   0   0   1   2   2   2   2   1
  1   1   1   1   1   1   1   1   1   1   1   1   1   0   0  15   3   0   0   0   0   0   0   0
  0   0   0   0   2   4   6   7   8  10  13  15  17  18  21  24  27  30  32  31  34  36  38  41
 41  42  42  44  45  44  43  42  42  40   8   0   1   0   0   0   0   0   0   0   0   0   0   0
  0   0   0   0
  0   0   0   0   0   0   0   0   0   0   0   0   0   0   0   0   0   0   1   2   2   2   2   2
  2   2   1   1   2   1   1   1   1   1   1   1   1   1   0  15   3   0   1   0   0   0   0   1
  1   0   0   0   0   1   3   5   6   7   8  11  12  14  16  17  20  21  21  24  26  27  30  31
 32  32  33  33  34  35  34  33  32  35   8   0   1   0   0   0   0   0   0   0   0   0   0   0
  0   0   0   0
  0   0   0   0   0   0   0   0   0   0   0   0   0   0   0   0   0   0   1   2   2   2   2   2
  2   2   2   1   2   2   1   1   1   1   1   1   1   1   0  15   3   0   1   0   0   0   1   1
  1   1   0   0   1   0   1   2   4   5   6   7   9  10  11  13  14  15  16  18  18  20  21  22
 23  24  25  26  26  27  26  25  26  32   8   0   1   0   0   0   0   0   0   0   0   0   0   0
  0   0   0   0
  0   0   0   0   0   0   0   0   0   0   0   0   0   0   0   0   0   0   1   2   2   2   2   2
  2   2   2   2   2   2   2   2   1   1   1   2   1   1   1  15   4   0   1   1   1   1   1   1
  1   1   1   1   1   1   1   1   1   2   3   5   6   7   8   9  10  11  11  12  14  15  15  15
 17  18  19  20  22  22  19  19  18  26   7   0   0   0   0   0   0   0   0   0   0   0   0   0
  0   0   0   0
  0   0   0   0   0   0   0   0   0   0   0   0   0   0   0   0   0   0   1   2   2   2   2   2
  2   2   2   2   2   2   2   2   2   2   2   2   2   1   1  15   4   0   1   1   1   1   1   1
  1   1   1   1   1   1   1   1   1   1   1   2   3   4   5   6   7   8   8   9  10  11  11  11
 12  13  14  16  18  15  13  14  13  22   7   0   0   0   0   0   0   0   0   0   0   0   0   0
  0   0   0   0
  0   0   0   0   0   0   0   0   0   0   0   0   0   0   0   0   0   0   1   2   2   2   2   2
  2   2   2   2   2   2   2   2   2   2   2   2   2   1   1  16   5   1   4   1   1   1   1   1
  1   1   1   1   2   1   1   1   1   1   1   1   1   1   1   2   3   4   5   6   7   7   8   8
  9   9  10  12  12  11  10  10   9  20   6   0   0   0   0   0   0   0   0   0   0   0   0   0
  0   0   0   0
  0   0   0   0   0   0   0   0   0   0   0   0   0   0   0   0   0   0   2   3   3   3   3   3
  3   3   3   3   2   2   2   3   3   2   2   2   2   2   2  16   5   1   3   2   1   2   2   2
  2   2   2   2   2   2   2   1   1   1   1   2   2   1   1   1   1   1   1   2   2   3   3   4
  5   5   6   7   7   6   5   5   3  17   6   0   0   0   0   0   0   0   0   0   0   0   0   0
  0   0   0   0
  0   0   0   0   0   0   0   0   0   0   0   0   0   0   0   0   0   0   2   4   3   3   3   3
  3   3   3   3   3   3   3   3   3   3   3   3   3   2   2  16   5   1   2   2   2   2   2   2
  2   2   2   2   2   2   2   2   2   2   2   2   2   2   2   2   2   2   1   1   1   1   1   1
  2   2   3   4   4   4   3   4   2  16   6   0   0   0   0   0   0   0   0   0   0   0   0   0
  0   0   0   0
  0   0   0   0   0   0   0   0   0   0   0   0   0   0   0   0   0   0   2   4   4   4   3   3
  4   3   3   3   3   3   3   3   3   3   3   3   3   3   3  17   5   1   3   2   2   2   2   2
  2   2   2   2   2   2   2   2   2   2   2   2   2   2   2   2   2   2   2   2   2   2   2   2
  2   3   4   5   5   4   4   4   3  17   6   0   0   0   0   0   0   0   0   0   0   0   0   0
  0   0   0   0
  0   0   0   0   0   0   0   0   0   0   0   0   0   0   0   0   0   0   3   4   4   4   4   4
  4   4   4   3   3   3   3   3   3   3   3   3   3   3   3  17   6   2   3   2   3   3   3   3
  3   3   3   3   2   2   3   3   2   2   2   2   2   2   2   2   2   2   2   2   2   2   2   2
  3   3   4   5   6   5   4   5   4  17   6   0   0   0   0   0   0   0   0   0   0   0   0   0
  0   0   0   0
  0   0   0   0   0   0   0   0   0   0   0   0   0   0   0   0   0   0   3   5   4   4   4   4
  4   4   4   4   4   3   3   3   4   3   4   4   3   3   3  17   6   2   3   3   3   3   3   3
  3   3   3   3   3   3   3   3   3   2   2   2   2   3   2   2   2   2   2   2   2   2   2   2
  3   4   5   6   6   5   5   6   5  17   6   0   1   0   0   0   0   0   0   0   0   0   0   2
  1   0   0   0
  0   0   0   0   0   0   0   0   0   0   0   0   0   0   0   0   0   0   3   5   5   5   5   5
  5   4   4   4   4   4   4   4   4   4   4   4   3   4   3  17   6   2   3   3   3   3   3   3
  4   3   3   3   3   3   3   3   3   3   3   3   3   3   3   3   3   3   3   3   3   3   3   3
  4   5   5   6   6   6   6   6   5  18   6   0   0   0   0   0   0   0   0   0   0   0   0   0
  0   0   0   0
  0   0   0   0   0   0   0   0   0   0   0   0   0   0   0   0   0   0   3   6   5   5   5   5
  5   5   5   5   5   5   4   4   4   4   4   4   4   4   4  18   6   2   4   3   3   4   4   4
  4   4   4   4   4   4   4   4   4   4   3   3   3   3   3   3   3   3   3   3   3   3   3   3
  4   5   6   7   8   7   7   7   7  20   6   0   0   0   0   0   0   0   0   0   0   0   0   0
  0   0   0   0
  0   0   0   0   0   0   0   0   0   0   0   0   0   0   0   0   0   0   3   6   5   5   5   5
  6   5   5   5   5   5   5   5   5   5   5   5   5   4   4  18   7   3   4   4   4   4   4   5
  5   4   4   5   4   4   4   4   4   4   4   4   4   4   4   4   4   3   3   3   3   4   4   3
  4   6   7   8   9   9   8   8   9  21   7   0   0   0   0   0   0   0   0   0   0   0   0   0
  0   0   0   0
