P2
# 8-bit pgm gray
100 100
255
  0   0   0   0   0   0   0   0   0   0   0   0   0   0   0  10   6   0 194 246 235 240 192  75
 89 198 236 235 226 220 225 225 222 216 160   0  10  18   9   8   6   5   4   5   8   8  11  16
 22  29  40  50  63  76  87 104 116 126 155 178 188 193 195 196 195 197 191 187 186 185 184 181
181 179 177 178 175 173 179 180 186 157   0   0   8   0   0   0   0   0   0   0   0   0   0   0
  0   0   0   0
  0   0   0   0   0   0   0   0   0   0   0   0   0   0   0  10   8   0 198 252 241 246 187   0
  0 194 243 242 244 246 246 244 241 236 176   0   0   9   0   0   0   0   0   0   3   9  13  18
 23  31  42  54  69  84  95 107 124 134 152 183 200 209 214 215 214 215 211 207 206 204 203 201
199 197 196 197 195 188 188 190 196 166   0   0   9   0   0   0   0   0   0   0   0   0   0   0
  0   0   0   0
  0   0   0   0   0   0   0   0   0   0   0   0   0   0   0  10   7   0 197 250 239 244 186   0
  5 189 243 224 214 188 219 182 218 231 172   0   0  13   1   1   1   1   1   1   4   8  12  17
 22  30  40  51  65  80  89  97 109 120 128 162 187 199 207 208 208 208 207 203 200 198 196 195
193 192 193 195 195 187 181 181 188 162   0   0   8   0   0   0   0   0   0   0   0   0   0   0
  0   0   0   0
  0   0   0   0   0   0   0   0   0   0   0   0   0   0   0  10   7   0 197 250 239 244 183   0
  0 184 244 218 200 169 153 144 214 231 173   0   0  12   0   0   1   0   0   0   3   8  11  16
 22  30  40  50  64  77  88  99 107 119 127 146 176 194 203 208 211 210 209 206 203 200 198 196
195 197 197 197 195 191 187 184 193 174   0   0  10   0   0   0   0   0   0   0   0   0   0   0
  0   0   0   0
  0   0   0   0   0   0   0   0   0   0   0   0   0   0   0  10   8   0 197 250 239 243 180   0
  0 179 241 214 195 191 178 176 214 230 174  14   0  13   0   0   0   0   0   0   3   8  11  16
 22  30  39  48  62  76  91 101 109 120 126 127 160 188 195 202 209 210 209 206 203 201 200 197
198 202 200 197 195 195 193 187 196 172   0   0   9   0   0   0   0   0   0   0   0   0   0   0
  0   0   0   0
  0   0   0   0   0   0   0   0   0   0   0   0   0   0   0  10   8   0 197 250 239 243 178   0
  0 177 227 189 208 217 237 219 221 229 176  22   0  13   0   0   0   0   0   0   2   7  11  15
 21  29  38  47  60  76  91 102 108 118 124 122 141 175 188 196 205 208 210 207 204 203 201 199
200 201 199 196 194 194 193 187 193 166   0   0   9   0   0   0   0   0   0   0   0   0   0   0
  0   0   0   0
  0   0   0   0   0   0   0   0   0   0   0   0   0   0   0  10   8   0 197 250 239 242 177   0
  0 170 230 229 238 240 238 237 232 225 176  28   0  13   0   0   0   0   0   0   2   7  10  15
 21  28  37  47  60  76  90 100 108 113 122 126 128 157 180 190 200 204 206 209 208 205 202 200
200 200 194 194 193 191 190 186 192 166   0   0   9   0   0   0   0   0   0   0   0   0   0   0
  0   0   0   0
  0   0   0   0   0   0   0   0   0   0   0   0   0   0   0  10   8   0 197 250 239 242 176   0
  0 157 228 236 237 237 236 234 228 218 168  29   0  12   0   0   0   0   0   0   2   7  10  15
 22  28  36  46  58  74  90 102 108 113 119 123 129 141 170 185 193 201 205 206 204 202 202 200
201 201 198 195 196 196 194 190 195 167   0   0   9   0   0   0   0   0   0   0   0   0   0   0
  0   0   0   0
  0   0   0   0   0   0   0   0   0   0   0   0   0   0   0  10   8   0 197 250 239 240 173   0
  0 101 160 169 172 173 174 171 163 149 109  11   0   4   0   0   0   0   0   0   1   7  10  15
 20  26  35  45  55  70  89  98 106 113 117 119 131 129 153 177 187 199 204 205 202 200 202 202
202 201 199 197 196 199 195 193 198 168   0   0   9   0   0   0   0   0   0   0   0   0   0   0
  0   0   0   0
  0   0   0   0   0   0   0   0   0   0   0   0   0   0   0  10   8   0 197 250 239 239 169   0
 22   0   0   0   0   0   0   0   0   0   0   0   1   0   0   0   0   0   0   0   1   6  10  14
 19  25  33  43  54  65  84  94 102 114 117 121 128 127 133 161 178 190 200 204 204 200 202 204
203 203 201 199 198 198 196 193 199 169   0   0   9   0   0   0   0   0   0   0   0   0   0   0
  0   0   0   0
  0   0   0   0   0   0   0   0   0   0   0   0   0   0   0  10   8   0 197 250 239 237 167   0
 19  13  16  14  10  10   8  11  14  14  10   1   0   0   0   0   0   0   0   0   1   6   9  14
 19  24  32  42  53  63  79  95 103 111 118 123 127 126 127 145 170 183 194 200 203 203 202 203
202 202 202 200 198 194 196 196 203 172   0   0   9   0   0   0   0   0   0   0   0   0   0   0
  0   0   0   0
  0   0   0   0   0   0   0   0   0   0   0   0   0   0   0  10   8   0 197 250 239 237 167   0
 18   7   0   2  11   8   9   0   0   5   2   0   0   0   0   0   0   0   0   0   1   6   9  14
 18  25  34  43  52  64  77  92 102 109 118 124 123 126 130 134 160 179 187 195 200 203 202 200
201 202 204 202 198 196 196 197 204 173   0   0   9   0   0   0   0   0   0   0   0   0   0   0
  0   0   0   0
  0   0   0   0   0   0   0   0   0   0   0   0   0   0   0  10   8   0 197 250 238 237 168   0
 18   0  26  17   0   1   0  35  34   0   0   0   0   0   0   0   0   0   0   0   1   7  10  15
 19  26  34  44  54  66  77  91 104 113 119 118 120 123 128 126 141 171 181 188 197 202 203 201
201 201 201 201 199 199 200 196 202 175   0   0  10   0   0   0   0   0   0   0   0   0   0   0
  0   0   0   0
  0   0   0   0   0   0   0   0   0   0   0   0   0   0   0  10   7   0 197 250 239 236 162   0
 25   0  74  82   0   0  18  63  39   0   1   0   0   0   0   0   0   0   0   0   2   8  11  16
 20  26  35  45  54  66  81  93 105 115 116 116 119 121 124 127 132 157 177 183 190 198 203 203
200 200 200 198 200 200 200 197 202 174   0   0  10   0   0   0   0   0   0   0   0   0   0   0
  0   0   0   0
  0   0   0   0   0   0   0   0   0   0   0   0   0   0   0  10   8   0 196 250 239 235 154   0
 25   0  87 101  32   0   0  48  49   0   2   0   0   0   0   0   0   0   0   0   3   8  11  16
 21  27  36  45  56  69  82  91 105 113 115 120 120 121 125 130 136 143 166 180 187 196 200 201
200 200 200 197 197 199 200 198 202 173   0   0  10   0   0   0   0   0   0   0   0   0   0   0
  0   0   0   0
  0   0   0   0   0   0   0   0   0   0   0   0   0   0   0  10   8   0 196 250 239 233 148   0
 26   0  66  59  10   0   0  43  57   0   0   1   0   0   0   0   1   1   0   0   3   8  11  16
 21  27  36  47  56  67  79  92 102 109 120 120 118 120 123 126 131 133 149 172 181 189 193 198
202 202 202 199 198 200 200 196 205 176   0   0  10   0   0   0   0   0   0   0   0   0   0   0
  0   0   0   0
  0   0   0   0   0   0   0   0   0   0   0   0   0   0   0  10   7   0 197 250 238 232 146   0
 27   0   0   0   0   1   1  19  11   0   0   0   0   0   1   0   1   2   0   1   4   9  12  17
 22  29  39  51  60  71  82  93 102 110 115 117 117 117 122 128 129 132 137 158 177 185 189 195
200 201 203 201 200 200 201 196 205 176   0   0  10   0   0   0   0   0   0   0   0   0   0   0
  0   0   0   0
  0   0   0   0   0   0   0   0   0   0   0   0   0   0   0  10   7   0 197 249 238 231 143   0
 28   0   3   9   2   0   0   0   0   1   0   0   0   0   0   0   0   0   0   1   6   9  13  18
 24  31  41  52  64  77  88  96 100 109 123 126 119 118 122 130 130 129 133 142 169 180 186 192
197 199 202 201 199 201 200 198 204 174   0   0  10   0   0   0   0   0   0   0   0   0   0   0
  0   0   0   0
  0   0   0   0   0   0   0   0   0   0   0   0   0   0   0  10   7   0 197 249 238 230 140   0
 28   0   2   0   0   0   1   3   3   0   0   0   0   0   0   0   0   0   0   2   6   9  13  20
 25  33  43  54  66  78  87  94 100 111 125 130 127 126 128 134 132 128 131 134 151 175 182 188
195 197 199 200 199 200 199 198 205 174   0   0  10   0   0   0   0   0   0   0   0   0   0   0
  0   0   0   0
  0   0   0   0   0   0   0   0   0   0   0   0   0   0   0  10   7   0 196 249 238 229 138   0
 28   0   1   1   0   0   1   0   0   1   0   0   0   0   0   0   0   0   0   3   7  10  15  21
 27  36  46  56  66  74  82  91 101 110 118 124 125 136 138 135 131 131 133 131 139 165 178 186
192 194 197 199 199 198 199 199 205 174   0   0  10   0   0   0   0   0   0   0   0   0   0   0
  0   0   0   0
  0   0   0   0   0   0   0   0   0   0   0   0   0   0   0  10   7   0 197 249 238 229 137   0
 28   0   1   0   0   0   0   0   0   0   0   0   0   0   0   0   0   0   1   5   8  12  16  23
 31  41  49  59  70  77  85  92 101 113 119 121 121 132 135 130 130 132 133 134 135 150 175 185
188 191 194 197 198 198 196 198 207 175   0   0  10   0   0   0   0   0   0   0   0   0   0   0
  0   0   0   0
  0   0   0   0   0   0   0   0   0   0   0   0   0   0   0  10   7   0 197 249 238 228 135   0
 28   0   1   0   0   0   0   0   0   0   0   0   0   0   0   0   0   0   2   6   9  13  19  26
 35  43  51  61  72  82  90  94 103 117 122 119 122 126 125 126 124 125 129 132 134 139 164 181
184 187 191 195 199 198 196 196 208 176   0   0  10   0   0   0   0   0   0   0   0   0   0   0
  0   0   0   0
  0   0   0   0   0   0   0   0   0   0   0   0   0   0   0  10   7   0 197 249 238 227 133   0
 28   0   1   0   0   0   0   0   0   0   0   0   0   0   0   0   0   0   3   7  11  15  21  28
 37  45  54  64  73  85  91  98 109 116 123 124 124 122 124 125 128 127 129 134 136 134 146 171
180 183 188 192 198 199 198 199 206 174   0   0  10   0   0   0   0   0   0   0   0   0   0   0
  0   0   0   0
  0   0   0   0   0   0   0   0   0   0   0   0   0   0   0  10   7   0 197 249 238 227 133   0
 28   0   1   0   0   0   0   0   0   0   0   0   0   0   0   0   0   0   4   8  13  17  23  31
 39  48  58  67  78  90  96 107 114 116 122 124 121 123 126 130 131 130 132 132 135 138 138 156
174 181 186 189 193 196 198 197 202 174   0   0  10   0   0   0   0   0   0   0   0   0   0   0
  0   0   0   0
  0   0   0   0   0   0   0   0   0   0   0   0   0   0   0  10   7   0 197 249 238 227 132   0
 28   0   1   0   0   0   0   0   0   0   0   0   0   0   0   0   0   1   9  13  13  20  27  34
 44  53  61  70  89  96 101 107 110 114 119 120 120 121 123 124 131 131 127 130 132 135 137 144
164 178 186 189 192 195 197 192 200 172   0   0   9   0   0   0   0   0   0   0   0   0   0   0
  0   0   0   0
  0   0   0   0   0   0   0   0   0   0   0   0   0   0   0  10   7   0 196 249 238 226 132   0
 28   0   1   1   0   0   0   0   0   0   0   0   0   0   0   0   0   3   9  12  15  22  29  37
 47  56  63  82  93  94 100 103 107 115 118 120 121 123 124 131 132 128 126 128 131 132 137 142
156 173 181 186 188 194 199 193 198 172   0   0   9   0   0   0   0   0   0   0   0   0   0   0
  0   0   0   0
  0   0   0   0   0   0   0   0   0   0   0   0   0   0   0  10   7   0 196 249 238 226 131   0
 28   0   1   1   0   0   0   0   0   0   0   0   0   0   0   0   1   5   9  12  18  24  31  40
 49  57  75  91  91  93 100 105 110 118 120 118 121 125 128 129 126 126 128 130 131 136 139 139
149 167 174 182 187 190 199 197 195 167   0   0   9   0   0   0   0   0   0   0   0   0   0   0
  0   0   0   0
  0   0   0   0   0   0   0   0   0   0   0   0   0   0   0  10   7   0 197 249 238 225 125   0
 28   0   1   0   0   0   0   1   0   0   0   1   0   0   1   0   2   7  10  14  21  27  34  42
 52  70  82  86  91  96 106 109 112 122 123 119 119 119 121 122 124 128 132 134 132 134 136 139
141 155 169 176 185 188 193 197 198 164   0   0   8   0   0   0   0   0   0   0   0   0   0   0
  0   0   0   0
  0   0   0   0   0   0   0   0   0   0   0   0   0   0   0  10   7   0 197 249 238 226 128   0
 28   0   1   1   0   0   0   0   1   0   1   1   0   1   1   1   4   8  12  17  23  29  37  45
 62  74  77  86  95 102 108 108 113 123 118 117 117 116 116 118 121 125 128 132 135 137 139 141
141 147 164 174 183 189 187 188 197 166   0   0   9   0   0   0   0   0   0   0   0   0   0   0
  0   0   0   0
  0   0   0   0   0   0   0   0   0   0   0   0   0   0   0  10   7   0 196 249 238 226 130   0
 28   0   1   1   0   0   0   0   0   1   1   0   0   1   0   2   6  10  14  19  26  33  42  55
 64  73  86  97 102 106 109 107 114 120 113 114 116 117 118 122 126 127 129 133 139 139 139 142
144 140 156 171 177 184 186 182 193 164   0   0   8   0   0   0   0   0   0   0   0   0   0   0
  0   0   0   0
  0   0   0   0   0   0   0   0   0   0   0   0   0   0   0  10   7   0 196 249 238 226 130   0
 28   0   1   0   0   0   0   0   0   0   0   0   0   1   0   4   8  12  16  22  29  38  51  60
 70  81  94 101 101 105 111 114 117 118 118 119 118 122 127 126 127 129 130 130 134 132 133 136
139 142 150 168 175 178 182 181 192 165   0   0   9   0   0   0   0   0   0   0   0   0   0   0
  0   0   0   0
  0   0   0   0   0   0   0   0   0   0   0   0   0   0   0  10   7   0 197 249 238 226 130   0
 28   0   1   0   0   0   0   0   0   0   0   0   0   0   1   6   9  14  19  25  32  44  53  63
 76  85  90  96 100 106 111 114 117 119 121 120 120 122 123 122 122 124 127 130 131 130 132 131
134 140 143 159 172 176 182 182 191 167   0   0   9   0   0   0   0   0   0   0   0   0   0   0
  0   0   0   0
  0   0   0   0   0   0   0   0   0   0   0   0   0   0   0  10   7   0 197 249 238 225 128   0
 28   0   0   0   0   0   0   0   0   1   1   0   0   0   3   7  11  15  21  27  38  48  55  67
 79  84  89  98 104 107 110 114 116 118 118 121 125 123 120 121 123 123 128 126 126 132 131 131
134 139 141 148 163 173 179 180 189 164   0   0   9   0   0   0   0   0   0   0   0   0   0   0
  0   0   0   0
  0   0   0   0   0   0   0   0   0   0   0   0   0   0   0  10   7   0 197 249 238 222 117   0
 28   0   1   0   0   0   0   0   1   1   1   1   0   1   5   8  12  17  23  32  43  52  60  73
 82  88  94 101 104 107 111 114 115 115 115 122 123 121 121 124 125 126 127 124 125 130 133 134
134 136 139 143 157 169 173 178 189 163   0   0   8   0   0   0   0   0   0   0   0   0   0   0
  0   0   0   0
  0   0   0   0   0   0   0   0   0   0   0   0   0   0   0  10   7   0 197 249 238 219 105   0
 27   0   1   0   0   0   0   0   0   0   1   0   0   2   7  10  15  20  28  38  47  55  68  79
 86  92  96 101 105 108 110 110 113 115 116 123 124 120 121 126 135 135 127 126 129 133 137 138
139 138 142 143 154 167 171 175 185 160   0   0   8   0   0   0   0   0   0   0   0   0   0   0
  0   0   0   0
  0   0   0   0   0   0   0   0   0   0   0   0   0   0   0  10   7   0 196 249 237 218 104   0
 27   0   1   0   0   0   0   0   0   0   0   0   0   4   8  12  17  23  33  43  52  63  75  81
 87  91  98 104 107 109 109 111 114 117 119 124 125 122 128 136 142 142 134 131 134 137 137 138
139 141 143 146 153 161 167 173 184 159   0   0   8   0   0   0   0   0   0   0   0   0   0   0
  0   0   0   0
  0   0   0   0   0   0   0   0   0   0   0   0   0   0   0  10   7   0 196 249 237 216 100   0
 27   0   1   0   0   0   0   1   1   1   0   0   1   6  10  14  20  28  36  47  60  72  77  84
 89  94 100 106 109 108 111 114 114 118 120 120 121 126 137 136 136 137 135 135 142 144 137 137
137 137 138 146 149 154 162 170 186 161   0   0   8   0   0   0   0   0   0   0   0   0   0   0
  0   0   0   0
  0   0   0   0   0   0   0   0   0   0   0   0   0   0   0  10   7   0 197 249 237 214  93   0
 26   0   1   0   0   0   0   1   0   1   1   0   3   7  12  18  25  32  40  53  68  74  80  88
 91 100 106 108 108 112 115 114 114 117 121 123 125 133 131 124 127 129 132 134 144 148 139 140
136 136 140 146 147 148 159 166 180 157   0   0   8   0   0   0   0   0   0   0   0   0   0   0
  0   0   0   0
  0   0   0   0   0   0   0   0   0   0   0   0   0   0   0  10   7   0 196 249 237 213  89   0
 25   0   1   0   0   0   0   1   1   0   0   0   5   9  14  20  28  37  45  60  72  78  86  90
 96 108 111 111 113 114 112 116 118 117 123 125 124 127 124 122 123 125 128 133 144 145 138 139
138 140 143 144 146 142 154 163 176 156   0   0   8   0   0   0   0   0   0   0   0   0   0   0
  0   0   0   0
  0   0   0   0   0   0   0   0   0   0   0   0   0   0   0  10   7   0 196 249 237 212  88   0
 25   0   1   0   0   0   0   0   0   0   0   2   7  11  16  22  32  41  50  66  81  86  93 100
105 107 109 117 117 110 111 117 115 116 118 126 122 121 123 121 120 124 126 137 144 138 138 141
141 142 140 140 141 142 150 160 175 153   0   0   7   0   0   0   0   0   0   0   0   0   0   0
  0   0   0   0
  0   0   0   0   0   0   0   0   0   0   0   0   0   0   0  10   7   0 196 249 237 212  87   0
 25   0   1   0   0   0   0   0   0   0   0   3   8  13  18  25  36  48  58  72  94 101  98 102
106 107 110 121 118 110 112 112 114 117 120 124 123 124 125 121 119 125 130 143 143 139 143 144
143 141 139 141 140 140 145 155 172 152   2   0   7   0   0   0   0   0   0   0   0   0   0   0
  0   0   0   0
  0   0   0   0   0   0   0   0   0   0   0   0   0   0   0  10   7   0 196 249 237 212  86   0
 25   0   1   0   0   0   0   0   0   0   1   5  10  15  21  30  40  52  68  82 104 114 102 102
107 110 110 118 120 113 114 117 117 118 122 121 121 125 124 121 124 128 136 150 149 147 145 142
141 138 138 143 141 140 144 152 170 149   0   0   7   0   0   0   0   0   0   0   0   0   0   0
  0   0   0   0
  0   0   0   0   0   0   0   0   0   0   0   0   0   0   0  10   7   0 196 249 237 211  86   0
 25   0   1   0   0   0   0   0   1   0   2   7  11  17  24  34  44  57  76  94 113 116 107 112
113 110 110 113 112 117 123 122 119 119 121 124 125 126 126 123 128 134 143 155 157 151 143 143
141 136 139 142 141 143 148 151 168 147   0   0   7   0   0   0   0   0   0   0   0   0   0   0
  0   0   0   0
  0   0   0   0   0   0   0   0   0   0   0   0   0   0   0  10   7   0 196 249 237 212  88   0
 25   0   1   0   0   0   0   1   1   0   3   8  12  19  28  38  49  64  83 100 124 118 114 125
118 112 112 112 111 118 124 120 117 121 126 129 130 130 130 132 139 142 148 156 157 148 140 142
143 139 139 141 146 145 149 155 163 144   0   0   7   0   0   0   0   0   0   0   0   0   0   0
  0   0   0   0
  0   0   0   0   0   0   0   0   0   0   0   0   0   0   0  10   7   0 197 249 237 213  90   0
 26   0   1   0   0   1   1   1   1   1   5   9  14  21  32  43  54  70  88 102 130 122 112 122
119 117 115 113 118 119 119 121 122 125 127 131 136 137 138 140 141 144 149 146 144 144 141 144
143 142 141 143 143 142 143 149 159 141   5   0   6   0   0   0   0   0   0   0   0   0   0   0
  0   0   0   0
  0   0   0   0   0   0   0   0   0   0   0   0   0   0   0  10   7   0 197 249 237 214  93   0
 26   0   1   0   0   1   1   1   1   2   6  10  16  25  35  48  60  74  95 114 132 124 109 124
131 123 121 124 129 124 121 125 127 124 123 128 137 137 133 133 135 145 147 142 144 147 143 144
144 144 140 141 140 140 145 147 159 141   6   0   6   0   0   0   0   0   0   0   0   0   0   0
  0   0   0   0
  0   0   0   0   0   0   0   0   0   0   0   0   0   0   0  10   7   0 196 249 237 215  95   0
 26   0   1   0   1   1   1   1   0   3   8  12  17  28  40  52  65  82 105 132 138 129 114 121
131 130 136 140 129 125 125 127 129 128 127 128 131 133 133 133 138 145 144 142 144 145 143 146
147 145 141 140 137 140 145 142 155 140   1   0   6   0   0   0   0   0   0   0   0   0   0   0
  0   0   0   0
  0   0   0   0   0   0   0   0   0   0   0   0   0   0   0  10   7   0 196 249 238 215  96   0
 26   0   1   1   1   1   1   1   0   4   9  14  21  29  43  58  70  87 114 135 135 135 118 124
127 136 147 136 123 124 125 126 129 128 127 127 127 133 135 139 143 143 143 141 142 145 148 151
150 144 140 139 136 137 143 142 154 140   2   0   6   0   0   0   0   0   0   0   0   0   0   0
  0   0   0   0
  0   0   0   0   0   0   0   0   0   0   0   0   0   0   0  10   7   0 197 249 238 215  95   0
 26   0   1   1   1   1   1   1   1   5   9  16  23  32  46  64  78  98 125 135 133 135 128 130
136 140 140 127 126 126 128 128 129 127 127 126 127 134 140 148 150 147 144 142 144 150 151 152
149 141 141 142 141 142 150 149 155 136   0   0   6   0   0   0   0   0   0   0   0   0   0   0
  0   0   0   0
  0   0   0   0   0   0   0   0   0   0   0   0   0   0   0  10   7   0 196 249 237 215  95   0
 26   0   1   1   1   1   1   1   2   6  11  17  26  36  52  73  88 103 117 128 135 134 138 146
149 145 136 126 133 135 132 132 130 130 129 128 130 139 148 152 152 148 145 147 150 150 146 147
143 140 142 139 143 147 146 145 147 127   2   0   5   0   0   0   0   0   0   0   0   0   0   0
  0   0   0   0
  0   0   0   0   0   0   0   0   0   0   0   0   0   0   0  10   7   0 196 249 237 215  96   0
 27   0   1   1   1   1   1   1   2   7  12  19  28  39  54  69  82  94 106 122 133 141 147 159
164 155 152 141 136 137 135 133 133 132 130 131 139 146 148 154 154 150 150 150 150 144 147 148
140 141 140 138 139 141 140 140 146 125   0   0   5   0   0   0   0   0   0   0   0   0   0   0
  0   0   0   0
  0   0   0   0   0   0   0   0   0   0   0   0   0   0   0  10   7   0 196 249 237 215  94   0
 27   0   1   1   1   1   1   1   3   8  13  22  30  42  54  67  81  95 104 121 135 148 159 158
161 166 168 155 150 151 145 140 140 138 135 137 142 144 148 153 153 153 150 148 147 152 156 147
141 142 141 141 140 141 144 144 151 129   0   0   5   0   0   0   0   0   0   0   0   0   0   0
  0   0   0   0
  0   0   0   0   0   0   0   0   0   0   0   0   0   0   0  10   7   0 196 249 237 214  94   0
 26   0   1   1   1   1   1   1   3   9  14  23  33  44  56  69  82  94 106 117 133 156 163 158
168 163 156 157 161 157 152 147 146 145 142 139 142 147 152 152 153 152 151 156 156 157 152 148
149 147 147 147 144 143 145 143 148 130   0   0   5   0   0   0   0   0   0   0   0   0   0   0
  0   0   0   0
  0   0   0   0   0   0   0   0   0   0   0   0   0   0   0  10   7   0 196 249 237 215  94   0
 26   0   1   1   1   1   1   1   4  10  15  24  36  46  59  73  84  94 110 119 129 155 162 161
166 157 160 159 149 149 146 141 140 140 140 142 148 151 152 154 152 151 157 159 152 153 149 143
146 147 146 144 141 144 143 141 147 126   0   0   5   0   0   0   0   0   0   0   0   0   0   0
  0   0   0   0
  0   0   0   0   0   0   0   0   0   0   0   0   0   0   0  10   7   0 196 249 237 215  95   0
 27   0   1   1   1   0   1   1   5  11  16  24  39  52  62  76  88  98 109 115 125 150 168 170
158 155 157 154 145 149 147 143 141 139 139 142 147 154 158 159 155 154 154 150 149 153 149 143
149 146 144 140 143 147 146 142 144 121   0   0   4   0   0   0   0   0   0   0   0   0   0   0
  0   0   0   0
  0   0   0   0   0   0   0   0   0   0   0   0   0   0   0  10   7   0 196 249 237 214  95   0
 26   0   1   1   0   0   1   1   5  12  18  24  38  57  68  81  92 100 109 116 131 152 174 168
154 152 143 152 156 155 152 146 143 142 141 142 148 157 163 164 162 158 153 149 152 162 156 156
159 154 153 154 153 154 155 148 149 130   0   0   5   0   0   0   0   0   0   0   0   0   0   0
  0   0   0   0
  0   0   0   0   0   0   0   0   0   0   0   0   0   0   0  10   7   0 196 248 237 213  89   0
 26   0   2   1   1   1   0   1   6  12  19  26  36  56  75  88 102 107 114 118 133 165 176 156
148 149 141 146 156 155 151 147 146 145 145 146 153 160 161 165 167 163 159 153 158 165 158 163
162 156 159 159 160 162 163 161 174 153   0   0   7   0   0   0   0   0   0   0   0   0   0   0
  0   0   0   0
  0   0   0   0   0   0   0   0   0   0   0   0   0   0   0  10   7   0 196 249 237 211  85   0
 25   0   2   1   1   1   0   2   7  12  19  29  39  51  74  93 101 115 124 124 140 178 175 154
142 143 140 143 154 152 150 154 151 152 152 152 157 156 157 162 164 164 160 155 163 161 157 163
155 148 149 150 158 164 168 174 188 160   0   0   8   0   0   0   0   0   0   0   0   0   0   0
  0   0   0   0
  0   0   0   0   0   0   0   0   0   0   0   0   0   0   0  10   7   0 196 249 237 210  80   0
 24   0   2   1   1   1   1   2   7  13  19  28  39  53  69  96 107 114 133 142 162 185 168 161
150 135 141 153 162 157 152 156 158 158 155 152 151 155 158 160 160 161 161 161 165 161 155 156
151 149 152 158 164 172 177 177 177 147   0   0   7   0   0   0   0   0   0   0   0   0   0   0
  0   0   0   0
  0   0   0   0   0   0   0   0   0   0   0   0   0   0   0  10   7   0 196 249 237 208  75   0
 24   0   1   1   1   1   1   1   7  13  19  27  38  51  68  86 106 116 123 135 174 187 165 166
162 143 144 157 170 174 165 163 164 158 156 157 161 161 157 160 160 158 162 164 165 159 158 158
154 155 161 171 175 174 168 160 161 140   0   0   6   0   0   0   0   0   0   0   0   0   0   0
  0   0   0   0
  0   0   0   0   0   0   0   0   0   0   0   0   0   0   0  10   7   0 196 249 237 206  70   0
 23   0   1   1   1   1   1   2   8  12  19  27  38  50  67  81  96 116 122 128 170 190 166 164
171 167 156 155 163 176 178 174 168 162 162 170 174 169 164 164 161 159 161 166 164 158 160 157
157 160 160 171 170 155 153 156 163 143   3   0   7   0   0   0   0   0   0   0   0   0   0   0
  0   0   0   0
  0   0   0   0   0   0   0   0   0   0   0   0   0   0   0  10   7   0 196 249 237 204  64   0
 22   0   2   1   1   1   0   2   8  12  19  28  37  50  64  80  95 111 120 125 169 198 168 157
165 178 176 169 170 171 175 179 174 163 164 168 168 162 164 165 161 164 166 164 155 151 156 158
162 164 169 166 154 150 154 166 178 152   0   0   7   0   0   0   0   0   0   0   0   0   0   0
  0   0   0   0
  0   0   0   0   0   0   0   0   0   0   0   0   0   0   0  10   7   0 196 249 237 203  60   0
 21   0   1   1   1   1   1   2   8  13  18  27  37  49  62  80  95 103 113 119 161 201 175 158
167 170 173 175 179 179 172 173 175 167 164 167 163 159 161 161 165 170 167 161 156 157 160 161
161 168 171 154 157 164 171 182 190 152   0   0   7   0   0   0   0   0   0   0   0   0   0   0
  0   0   0   0
  0   0   0   0   0   0   0   0   0   0   0   0   0   0   0  10   7   0 196 248 237 201  56   0
 20   0   1   1   1   1   1   1   7  13  17  27  37  46  59  77  93 102 116 133 150 186 192 173
172 167 166 173 181 183 175 170 179 176 168 165 164 160 159 162 167 166 162 159 159 158 158 163
167 174 167 163 172 177 184 188 187 148   0   0   6   0   0   0   0   0   0   0   0   0   0   0
  0   0   0   0
  0   0   0   0   0   0   0   0   0   0   0   0   0   0   0  10   7   0 196 248 236 201  54   0
 20   0   1   1   1   1   1   1   6  11  16  26  38  46  57  73  88  99 116 140 150 170 198 197
178 172 167 169 171 172 178 181 184 180 169 158 158 160 164 170 172 165 158 159 163 170 171 169
175 177 172 177 182 183 186 186 188 153   0   0   7   0   0   0   0   0   0   0   0   0   0   0
  0   0   0   0
  0   0   0   0   0   0   0   0   0   0   0   0   0   0   0  10   7   0 196 249 237 200  52   0
 19   0   1   1   1   1   1   1   5  12  16  22  37  49  57  71  84  95 115 137 142 155 189 207
184 171 170 165 164 166 177 185 185 182 175 166 160 166 175 179 171 167 170 177 181 186 186 184
185 182 180 183 181 183 183 184 197 168   0   0   9   0   0   0   0   0   0   0   0   0   0   0
  0   0   0   0
  0   0   0   0   0   0   0   0   0   0   0   0   0   0   0  10   7   0 196 249 237 200  51   0
 19   0   1   1   1   1   1   1   4  11  17  21  30  48  64  74  83  95 112 130 139 155 179 199
191 178 173 164 164 169 180 187 188 189 184 177 180 181 183 184 178 181 188 191 190 188 190 193
193 189 191 192 186 186 190 187 192 166   0   0   9   0   0   0   0   0   0   0   0   0   0   0
  0   0   0   0
  0   0   0   0   0   0   0   0   0   0   0   0   0   0   0  10   7   0 196 249 237 199  49   0
 19   0   1   1   1   1   1   1   3   9  15  21  28  41  68  89  97 101 107 117 135 158 173 192
200 189 177 169 172 179 186 188 188 184 184 188 192 192 186 180 180 190 198 190 182 182 187 193
193 190 189 188 191 193 187 178 182 153   0   0   7   0   0   0   0   0   0   0   0   0   0   0
  0   0   0   0
  0   0   0   0   0   0   0   0   0   0   0   0   0   0   0  10   7   0 196 249 236 198  47   0
 18   0   1   1   1   1   1   1   2   8  13  19  27  37  58  86  97  98 104 114 136 152 163 187
204 194 182 179 179 186 186 181 177 175 177 182 184 180 176 174 180 188 184 176 178 182 186 190
188 186 184 187 190 185 181 179 183 158   0   0   8   0   0   0   0   0   0   0   0   0   0   0
  0   0   0   0
  0   0   0   0   0   0   0   0   0   0   0   0   0   0   0  10   7   0 196 249 236 198  45   0
 18   0   2   1   1   1   1   2   1   6  13  17  23  33  42  62  84  92 102 110 125 149 162 184
200 191 179 178 179 179 178 175 168 168 173 175 174 174 177 180 183 181 176 175 178 182 182 185
188 185 186 191 187 186 189 186 196 171   0   0   9   0   0   0   0   0   0   0   0   0   0   0
  0   0   0   0
  0   0   0   0   0   0   0   0   0   0   0   0   0   0   0  10   7   0 196 249 236 197  43   0
 18   0   2   2   1   2   2   2   2   4  12  16  21  30  39  52  69  85  93  99 116 144 159 176
186 174 178 187 183 179 178 174 171 170 175 178 180 189 192 187 178 170 169 171 172 174 181 191
189 184 185 185 186 192 194 197 207 172   0   0   9   0   0   0   0   0   0   0   0   0   0   0
  0   0   0   0
  0   0   0   0   0   0   0   0   0   0   0   0   0   0   0  10   7   0 196 249 236 196  38   0
 17   0   2   2   2   2   2   2   2   2   9  15  20  31  38  47  59  70  86  99 115 142 160 175
177 172 185 190 184 181 176 171 175 177 182 191 196 195 195 185 173 170 170 172 174 179 191 192
185 187 187 190 196 199 201 205 206 170   0   0   9   0   0   0   0   0   0   0   0   0   0   0
  0   0   0   0
  0   0   0   0   0   0   0   0   0   0   0   0   0   0   0  10   7   0 196 249 236 195  34   0
 17   0   2   2   2   2   2   2   2   2   6  13  20  28  34  42  53  64  82 104 125 157 179 179
172 181 181 176 179 175 168 164 167 177 187 187 179 177 180 179 183 177 170 168 171 181 189 185
188 191 193 195 200 202 204 199 194 165   5   0   9   0   0   0   0   0   0   0   0   0   0   0
  0   0   0   0
  0   0   0   0   0   0   0   0   0   0   0   0   0   0   0  10   7   0 196 249 236 195  33   0
 17   1   3   2   2   2   2   3   3   3   3  10  15  22  29  37  51  64  77  98 134 169 189 182
172 171 169 170 174 177 177 182 190 189 182 178 175 171 163 161 169 160 162 170 172 188 194 189
193 191 195 199 201 199 197 189 191 165   0   0   9   0   0   0   0   0   0   0   0   0   0   0
  0   0   0   0
  0   0   0   0   0   0   0   0   0   0   0   0   0   0   0  10   7   0 196 248 236 195  34   0
 17   1   3   3   3   3   3   3   3   3   2   5  12  17  24  36  52  68  89 116 152 177 180 178
175 173 176 179 180 186 190 197 193 181 178 176 168 162 158 157 157 157 166 178 193 206 198 193
189 194 200 202 205 202 200 194 192 164   0   0   9   0   0   0   0   0   0   0   0   0   0   0
  0   0   0   0
  0   0   0   0   0   0   0   0   0   0   0   0   0   0   0  10   7   0 196 248 236 194  31   0
 17   1   3   3   3   3   3   3   3   3   3   3   8  13  18  32  49  71  99 131 154 166 171 175
168 165 172 174 171 173 184 187 181 182 182 168 163 167 165 163 167 176 182 192 202 200 193 193
194 201 199 199 203 204 205 193 197 174   0   0  10   0   0   0   0   0   0   0   0   0   0   0
  0   0   0   0
  0   0   0   0   0   0   0   0   0   0   0   0   0   0   0  10   7   0 196 249 236 193  27   0
 16   1   3   3   3   3   3   3   3   3   4   3   4  10  14  20  37  60  85 107 128 144 154 164
173 168 165 163 160 161 170 176 172 172 174 170 166 163 164 170 177 186 192 201 200 193 191 193
195 192 191 195 201 196 190 188 205 179   0   0  10   0   0   0   0   0   0   0   0   0   0   0
  0   0   0   0
  0   0   0   0   0   0   0   0   0   0   0   0   0   0   0  10   7   0 196 249 236 190  14   0
 15   1   3   3   3   3   3   3   3   3   3   3   2   6  10  14  19  30  63  90 109 119 125 132
145 147 148 152 156 156 161 161 161 165 167 164 161 163 168 171 177 180 188 192 191 187 187 191
188 184 185 190 201 194 185 185 194 165   0   0   8   0   0   0   0   0   0   0   0   0   0   0
  0   0   0   0
  0   0   0   0   0   0   0   0   0   0   0   0   0   0   0  10   7   0 196 248 235 189   2   0
 14   2   3   3   3   3   3   3   3   3   3   3   3   3   8  11  15  16  33  55  74  84  84  85
 88 105 127 132 132 133 140 145 153 159 156 152 150 156 161 159 165 174 177 178 181 184 187 191
188 185 185 187 190 179 167 164 171 146   0   0   7   0   0   0   0   0   0   0   0   0   0   0
  0   0   0   0
  0   0   0   0   0   0   0   0   0   0   0   0   0   0   0  10   7   0 196 248 235 188   0   0
 14   2   3   3   3   3   3   3   3   3   3   3   3   2   4   9  11  16  17  27  39  50  52  52
 66  86  99  93  96 107 119 129 136 135 139 145 147 148 150 152 155 163 166 169 172 180 186 185
185 186 180 178 171 157 145 145 158 138   0   0   6   0   0   0   0   0   0   0   0   0   0   0
  0   0   0   0
  0   0   0   0   0   0   0   0   0   0   0   0   0   0   0  10   7   0 196 248 235 186   0   0
 13   2   3   3   3   3   3   4   4   4   4   3   3   3   3   6   9  11  16  20  25  34  41  48
 56  60  66  76  83  92 106 114 119 125 134 139 142 141 140 149 155 155 154 162 172 173 174 180
182 183 177 167 152 141 135 134 150 132   0   0   5   0   0   0   0   0   0   0   0   0   0   0
  0   0   0   0
  0   0   0   0   0   0   0   0   0   0   0   0   0   0   0  10   7   0 196 248 235 185   0   0
 12   2   3   3   3   3   3   4   4   4   3   3   3   3   3   3   6  10  13  17  21  26  31  36
 43  54  61  68  75  81  88  96 105 119 132 136 137 139 148 158 153 147 150 157 165 167 172 178
179 178 174 157 136 127 130 128 140 127   3   0   5   0   0   0   0   0   0   0   0   0   0   0
  0   0   0   0
  0   0   0   0   0   0   0   0   0   0   0   0   0   0   0  10   7   0 196 248 235 183   0   0
 11   2   3   3   3   3   3   4   4   3   3   3   3   3   3   3   3   7  10  13  18  23  26  31
 43  48  52  62  71  79  82  86  97 108 124 138 144 147 153 149 145 151 152 149 153 165 168 172
177 173 156 135 125 126 128 122 131 124   8   0   5   0   0   0   0   0   0   0   0   0   0   0
  0   0   0   0
  0   0   0   0   0   0   0   0   0   0   0   0   0   0   0  10   7   0 196 248 235 182   0   0
 11   3   3   3   3   3   4   4   4   3   4   3   3   4   3   3   2   4   8  11  14  19  22  27
 39  45  49  59  67  75  84  86  90  98 112 122 133 137 128 124 132 136 139 142 148 160 168 178
184 167 136 126 124 125 123 120 132 121   6   0   5   0   0   0   0   0   0   0   0   0   0   0
  0   0   0   0
  0   0   0   0   0   0   0   0   0   0   0   0   0   0   0  10   7   0 196 248 235 182   0   0
 11   3   4   4   3   3   3   3   4   4   3   3   4   4   3   3   3   2   4   9  11  15  20  24
 29  35  42  51  62  70  80  85  86  96 103 109 119 116 113 117 122 120 125 132 139 157 170 178
175 148 135 129 125 126 118 114 135 129   7   0   5   0   0   0   0   0   0   0   0   0   0   0
  0   0   0   0
  0   0   0   0   0   0   0   0   0   0   0   0   0   0   0  10   7   0 196 248 235 183   0   0
 12   3   4   4   3   3   4   4   4   4   3   3   4   4   4   3   3   3   3   5   9  12  16  22
 24  29  36  43  54  65  79  87  92 106 107 110 112 109 113 113 112 113 120 128 135 143 148 155
143 125 122 115 120 113 103 105 118 114   9   0   4   0   0   0   0   0   0   0   0   0   0   0
  0   0   0   0
  0   0   0   0   0   0   0   0   0   0   0   0   0   0   0  10   7   0 196 248 236 185   0   0
 13   3   4   4   4   4   4   4   4   4   3   3   4   4   4   4   4   3   3   3   5   9  12  17
 21  25  30  40  47  56  69  83  93 103 109 112 107 105 106 107 106 109 112 119 124 126 128 129
111 111 111 108 101  96  96  93 101 104  13   0   4   0   0   0   0   0   0   0   0   0   0   0
  0   0   0   0
  0   0   0   0   0   0   0   0   0   0   0   0   0   0   0  10   7   0 196 248 236 187   0   0
 14   4   4   4   4   4   4   4   4   4   3   3   4   4   4   4   4   4   4   4   4   6  10  13
 16  21  25  31  39  47  57  65  71  74  83  97  98  99  98 101 104 104 107 111 108 108 116 107
 94  95  92  90  86  87  86  83 100 113  20   0   5   0   0   0   0   0   0   0   0   0   0   0
  0   0   0   0
  0   0   0   0   0   0   0   0   0   0   0   0   0   0   0  10   7   0 196 248 236 190   0   0
 16   4   5   5   4   4   4   4   4   4   4   4   4   5   4   4   5   4   4   4   5   4   6  10
 12  16  20  24  31  37  45  53  56  60  65  78  86  93  92  96 100  99  98  96  94 100 101  92
 88  84  82  79  77  76  75  68 103 128  22   0   6   0   0   0   0   0   0   0   0   0   0   0
  0   0   0   0
  0   0   0   0   0   0   0   0   0   0   0   0   0   0   0  10   7   0 196 248 236 192  19   0
 17   3   5   5   5   5   5   4   5   5   4   4   4   5   5   5   5   4   4   4   5   5   4   5
  9  13  16  20  24  27  33  42  44  48  57  66  71  79  85  85  83  82  81  82  84  85  81  81
 77  74  73  69  65  63  65  51 115 138  11   0   7   0   0   0   0   0   0   0   0   0   0   0
  0   0   0   0
  0   0   0   0   0   0   0   0   0   0   0   0   0   0   0  10   7   0 196 248 236 195  31   0
 18   3   5   5   5   5   5   5   5   5   4   4   5   5   5   5   5   5   5   5   5   5   5   4
  5   8  12  15  18  21  25  29  33  39  45  50  56  63  67  68  67  68  70  72  71  68  68  67
 66  62  60  56  54  54  53  43 131 144   0   0   7   0   0   0   0   0   0   0   0   0   0   0
  0   0   0   0
  0   0   0   0   0   0   0   0   0   0   0   0   0   0   0  10   7   0 196 248 237 197  41   0
 20   3   5   5   5   5   5   5   5   5   5   5   5   5   5   5   5   5   5   5   5   5   5   5
  5   4   7  11  14  17  19  22  24  29  35  37  41  44  45  49  51  53  58  58  56  57  56  55
 53  50  48  45  43  44  33  53 148 147   0   0   7   0   0   0   0   0   0   0   0   0   0   0
  0   0   0   0
  0   0   0   0   0   0   0   0   0   0   0   0   0   0   0  10   7   0 196 248 236 200  52   0
 21   3   6   5   5   5   5   5   5   6   5   5   5   5   5   5   5   5   5   6   6   5   5   5
  5   5   4   5   9  12  15  17  18  20  25  27  28  31  33  35  38  40  41  42  43  45  43  41
 40  39  37  34  33  35   6  86 160 139   0   0   6   0   0   0   0   0   0   0   0   0   0   0
  0   0   0   0
  0   0   0   0   0   0   0   0   0   0   0   0   0   0   0  10   7   0 196 248 236 196  41   0
 20   4   6   6   6   5   6   6   6   6   6   5   5   5   5   5   6   6   6   6   6   5   5   6
  5   5   5   5   5   6   9  13  15  16  19  21  22  23  24  26  27  28  30  29  30  32  32  31
 30  30  29  28  29  25  12 108 154 129   0   0   5   0   0   0   0   0   0   0   0   0   0   0
  0   0   0   0
  0   0   0   0   0   0   0   0   0   0   0   0   0   0   0  10   7   0 196 248 236 180   0   8
 13   6   6   6   6   6   6   6   6   6   6   5   6   6   6   6   6   6   6   6   6   6   6   6
  6   5   5   5   5   4   5   6   9  12  14  16  18  18  18  19  20  21  22  23  23  23  24  24
 23  24  20  14  17   4  56 118 152 139   2   0   6   0   0   0   0   0   0   0   0   0   0   0
  0   0   0   0
  0   0   0   0   0   0   0   0   0   0   0   0   0   0   0  10   7   0 196 248 234 165   0  24
  7   7   7   7   7   6   6   6   7   6   6   6   6   6   6   6   6   6   6   6   6   6   6   6
  6   5   5   5   5   5   5   5   4   5   8  10  12  14  15  15  17  18  17  18  18  19  20  21
 21  18  27  36  36  29  60  97 127 119   3   0   5   0   0   0   0   0   0   0   0   0   0   0
  0   0   0   0
  0   0   0   0   0   0   0   0   0   0   0   0   0   0   0  10   7   0 196 248 234 163   0  25
  8   7   7   7   7   7   7   7   7   7   7   6   6   6   6   7   7   7   6   6   7   6   6   6
  6   5   6   6   6   6   5   6   5   5   5   5   5   6   7   7   8  10  10  11  11  12  13  14
 17   0  54  83  81  68  19   0  21  29   3   0   1   1   1   1   1   1   1   1   1   1   1   1
  1   1   1   1
  0   0   0   0   0   0   0   0   0   0   0   0   0   0   0  10   7   0 196 248 235 167   0  23
  9   7   7   7   7   7   7   7   7   7   7   7   7   7   7   7   7   7   7   7   7   7   6   6
  6   6   6   6   6   6   6   6   6   6   6   6   6   5   5   5   5   6   6   6   7   8   9  11
 11  11  12  13  13  16  17  19  22  19   0   0   0   0   0   0   0   0   0   0   0   0   0   0
  0   0   0   0
  0   0   0   0   0   0   0   0   0   0   0   0   0   0   0  10   7   0 196 249 236 170   0  23
  9   7   7   7   7   7   7   7   7   7   7   7   7   7   7   7   7   7   7   7   7   7   7   6
  6   6   6   7   7   6   6   6   6   6   6   6   6   6   6   6   6   7   7   7   8   8  10  12
 13  13  12  11  13  18  22  24  31  30   1   0   0   0   0   0   0   0   0   0   0   0   0   0
  0   0   0   0
  0   0   0   0   0   0   0   0   0   0   0   0   0   0   0  10   7   0 196 249 237 174   0  23
 10   8   8   8   8   7   7   7   8   8   7   7   7   7   8   7   7   7   7   7   7   7   7   7
  6   6   7   7   7   7   7   7   7   7   7   7   6   6   6   6   7   7   7   8   8   9  11  13
 14  14  15  17  21  23  25  27  35  33   1   0   0   0   0   0   0   0   0   0   0   0   0   0
  0   0   0   0
