P2
# 8-bit pgm gray
100 100
255
  0   0   0   0   0   0   0   0   0   0   0   0   0   0   0   1   0   0  72  89  85  84  84  85
 85  86  87  88  89  90  91  91  93  95  96  95  92  91  91  90  89  96 106 118 133 145 151 153
153 153 154 158 165 171 172 171 170 174 185 192 192 195 199 201 200 202 204 205 206 207 205 205
203 203 196  79   0  21   0   1   1   1   0   0   0   0   0   0   0   0   0   0   0   0   0   0
  0   0   0   0
  0   0   0   0   0   0   0   0   0   0   0   0   0   0   0   0   0   3   0   0   0   0   0   0
  0   0   0   0   0   0   0   0   0   0   0   0   0   0   0   0  40  68  95 111 130 145 156 162
163 166 171 176 180 184 189 189 187 192 204 212 212 214 218 220 221 223 225 226 227 228 227 227
223 225 216  88   0  23   0   0   0   0   0   0   0   0   0   0   0   0   0   0   0   0   0   0
  0   0   0   0
  0   0   0   0   0   0   0   0   0   0   0   0   0   0   0   0   0   0  17  23  21  21  21  21
 21  22  22  23  23  23  24  24  24  25  25  25  24  25  32  41  54  71  96 111 125 142 154 158
159 160 164 168 172 175 180 183 182 181 190 201 204 208 210 212 214 215 219 220 221 222 222 220
217 220 210  83   0  22   0   0   0   0   0   0   0   0   0   0   0   0   0   0   0   0   0   0
  0   0   0   0
  0   0   0   0   0   0   0   0   0   0   0   0   0   0   0   0   0   0   0   0   0   0   0   0
  0   0   0   0   0   0   0   0   0   0   0   0   0   0  14  30  47  66  90 107 125 142 151 157
159 160 163 167 173 179 180 184 185 181 187 197 201 206 209 213 215 218 220 221 222 222 222 221
219 221 211  83   0  22   0   0   0   0   0   0   0   0   0   0   0   0   0   0   0   0   0   0
  0   0   0   0
  0   0   0   0   0   0   0   0   0   0   0   0   0   0   0   0   0   0   0   0   0   0   0   0
  0   0   0   0   0   0   0   0   0   0   0   1   0   1  15  31  47  64  85 104 127 143 152 156
158 161 162 164 170 177 179 183 186 183 186 192 198 204 210 213 215 217 219 221 222 221 221 221
217 219 209  84   0  22   0   0   0   0   0   0   0   0   0   0   0   0   0   0   0   0   0   0
  0   0   0   0
  0   0   0   0   0   0   0   0   0   0   0   0   0   0   0   0   0   0   0   0   0   0   0   0
  0   0   0   0   0   0   0   0   0   0   0   0   0   0  14  29  45  65  82 104 130 142 148 155
158 161 163 163 166 171 175 180 185 185 184 187 197 205 211 213 215 217 218 221 222 222 222 221
217 220 210  84   0  22   0   0   0   0   0   0   0   0   0   0   0   0   0   0   0   0   0   0
  0   0   0   0
  0   0   0   0   0   0   0   0   0   0   0   0   0   0   0   0   0   0   0   0   0   0   0   0
  0   0   0   0   0   0   0   0   0   0   0   0   0   0  12  27  38  60  80 100 121 138 148 155
159 164 167 166 165 166 170 176 180 188 186 185 195 205 208 211 214 217 218 221 222 222 222 220
218 220 210  84   0  22   0   0   0   0   0   0   0   0   0   0   0   0   0   0   0   0   0   0
  0   0   0   0
  0   0   0   0   0   0   0   0   0   0   0   0   0   0   0   0   0   0   0   0   0   0   0   0
  0   0   0   0   0   0   0   0   0   0   0   0   0   0   8  23  36  57  81 104 121 135 147 156
158 159 165 163 161 164 170 174 180 185 186 184 191 202 206 211 213 217 220 222 222 222 221 219
218 221 212  85   0  23   0   0   0   0   0   0   0   0   0   0   0   0   0   0   0   0   0   0
  0   0   0   0
  0   0   0   0   0   0   0   0   0   0   0   0   0   0   0   0   0   0   0   0   0   0   0   0
  0   0   0   0   0   0   0   0   0   0   0   0   0   0   5  22  35  51  80 105 122 137 145 151
157 160 161 163 163 165 167 173 180 176 180 184 187 198 205 209 213 218 220 221 221 222 222 219
219 222 213  85   0  23   0   0   0   0   0   0   0   0   0   0   0   0   0   0   0   0   0   0
  0   0   0   0
  0   0   0   0   0   0   0   0   0   0   0   0   0   0   0   0   0   0   0   0   0   0   0   0
  0   0   0   0   0   0   0   0   0   0   0   0   0   0   3  19  30  47  75  95 115 134 145 151
155 158 161 162 165 167 170 175 173 172 176 182 188 195 203 209 213 215 219 221 222 222 222 221
219 224 215  86   0  23   0   0   0   0   0   0   0   0   0   0   0   0   0   0   0   0   0   0
  0   0   0   0
  0   0   0   0   0   0   0   0   0   0   0   0   0   0   0   0   0   0   0   0   0   0   0   0
  0   0   0   0   0   0   0   0   0   0   0   0   0   0   2  17  27  53  77  94 114 130 146 151
156 160 159 161 164 166 169 176 173 169 175 180 184 194 203 209 213 215 218 221 223 224 224 222
219 225 216  86   0  23   0   0   0   0   0   0   0   0   0   0   0   0   0   0   0   0   0   0
  0   0   0   0
  0   0   0   0   0   0   0   0   0   0   0   0   0   0   0   0   0   0   0   0   0   0   0   0
  0   0   0   0   0   0   0   0   0   0   0   0   0   0   1  17  33  53  74  96 114 129 144 152
156 161 163 158 162 166 165 169 172 172 175 176 178 188 200 209 213 217 219 220 223 224 224 224
221 225 215  86   0  23   0   0   0   0   0   0   0   0   0   0   0   0   0   0   0   0   0   0
  0   0   0   0
  0   0   0   0   0   0   0   0   0   0   0   0   0   0   0   0   0   0   0   0   0   0   0   0
  0   0   0   0   0   0   0   0   0   0   0   0   0   0   0  20  37  52  75  95 113 127 139 146
151 159 165 161 163 165 164 167 170 172 173 174 177 182 191 203 210 216 220 221 223 224 223 223
223 224 214  87   0  23   0   0   0   0   0   0   0   0   0   0   0   0   0   0   0   0   0   0
  0   0   0   0
  0   0   0   0   0   0   0   0   0   0   0   0   0   0   0   0   0   0   0   0   0   0   0   0
  0   0   0   0   0   0   0   0   0   0   0   0   0   0   0  18  33  52  80  99 115 128 141 146
151 158 164 164 162 168 168 170 169 171 172 175 178 177 184 194 204 212 217 221 224 224 223 222
222 225 214  85   0  23   0   0   0   0   0   0   0   0   0   0   0   0   0   0   0   0   0   0
  0   0   0   0
  0   0   0   0   0   0   0   0   0   0   0   0   0   0   0   0   0   0   0   0   0   0   0   0
  0   0   0   0   0   0   0   0   0   0   0   0   0   0   0  16  32  51  75  99 112 125 139 148
153 157 164 163 164 165 169 168 169 173 174 174 175 178 183 188 197 208 214 220 224 224 224 224
222 226 213  84   0  23   0   0   0   0   0   0   0   0   0   0   0   0   0   0   0   0   0   0
  0   0   0   0
  0   0   0   0   0   0   0   0   0   0   0   0   0   0   0   0   0   0   0   0   0   0   0   0
  0   0   0   0   0   0   0   0   0   0   0   0   0   0   0  17  31  49  69  91 110 124 136 144
149 156 162 159 164 165 169 167 169 172 174 176 176 178 183 183 192 205 214 219 222 224 225 224
223 225 215  86   0  23   0   0   0   0   0   0   0   0   0   0   0   0   0   0   0   0   0   0
  0   0   0   0
  0   0   0   0   0   0   0   0   0   0   0   0   0   0   0   0   0   0   0   0   0   0   0   0
  0   0   0   0   0   0   0   0   0   0   0   0   0   0   0  19  33  46  66  90 114 125 135 141
147 156 161 161 165 164 165 166 166 168 174 174 174 177 178 181 190 200 209 215 219 222 223 224
224 226 216  87   0  24   0   0   0   0   0   0   0   0   0   0   0   0   0   0   0   0   0   0
  0   0   0   0
  0   0   0   0   0   0   0   0   0   0   0   0   0   0   0   0   0   0   0   0   0   0   0   0
  0   0   0   0   0   0   0   0   0   0   0   0   0   0   0  21  35  49  75  97 114 125 134 143
149 160 164 163 166 168 164 163 167 168 174 176 178 178 178 183 183 193 207 213 217 221 223 224
224 228 216  86   0  23   0   0   0   0   0   0   0   0   0   0   0   0   0   0   0   0   0   0
  0   0   0   0
  0   0   0   0   0   0   0   0   0   0   0   0   0   0   0   0   0   0   0   0   0   0   0   0
  0   0   0   0   0   0   0   0   0   0   0   0   0   0   3  20  38  62  82  94 111 127 136 144
148 156 162 160 164 166 164 163 166 168 173 173 175 181 184 182 182 186 200 210 214 220 223 224
224 229 218  88   0  24   0   0   0   0   0   0   0   0   0   0   0   0   0   0   0   0   0   0
  0   0   0   0
  0   0   0   0   0   0   0   0   0   0   0   0   0   0   0   0   0   0   0   0   0   0   0   0
  0   0   0   0   0   0   0   0   0   0   0   0   0   0   5  25  42  60  75  93 109 121 135 141
146 152 157 163 162 162 164 164 165 169 170 171 174 178 179 177 182 184 192 206 212 218 222 225
224 229 220  89   0  24   0   0   0   0   0   0   0   0   0   0   0   0   0   0   0   0   0   0
  0   0   0   0
  0   0   0   0   0   0   0   0   0   0   0   0   0   0   0   0   0   0   0   0   0   0   0   0
  0   0   0   0   0   0   0   0   0   0   0   0   0   0   9  28  42  57  74  93 111 121 132 141
145 149 155 165 161 162 167 166 167 171 174 177 176 178 176 177 179 181 187 201 209 214 220 222
223 229 220  89   0  24   0   0   0   0   0   0   0   0   0   0   0   0   0   0   0   0   0   0
  0   0   0   0
  0   0   0   0   0   0   0   0   0   0   0   0   0   0   0   0   0   0   0   0   0   0   0   0
  0   0   0   0   0   0   0   0   0   0   0   0   0   0  15  30  43  59  78  94 108 123 132 139
148 152 155 162 165 164 165 169 172 174 175 177 181 178 175 178 179 181 185 196 207 211 217 219
221 226 218  88   0  24   0   0   0   0   0   0   0   0   0   0   0   0   0   0   0   0   0   0
  0   0   0   0
  0   0   0   0   0   0   0   0   0   0   0   0   0   0   0   0   0   0   0   0   0   0   0   0
  0   0   0   0   0   0   0   0   0   0   0   0   0   2  21  36  47  61  78  96 108 121 132 138
146 156 160 160 165 166 164 169 173 170 170 175 182 177 179 180 178 182 184 189 199 206 213 217
219 225 216  87   0  23   0   0   0   0   0   0   0   0   0   0   0   0   0   0   0   0   0   0
  0   0   0   0
  0   0   0   0   0   0   0   0   0   0   0   0   0   0   0   0   0   0   0   0   0   0   0   0
  0   0   0   0   0   0   0   0   0   0   0   0   0   8  25  37  51  65  79  95 108 118 129 139
146 155 161 161 162 167 172 174 171 170 172 175 174 179 182 177 179 182 180 182 190 201 210 214
217 222 214  86   0  23   0   0   0   0   0   0   0   0   0   0   0   0   0   0   0   0   0   0
  0   0   0   0
  0   0   0   0   0   0   0   0   0   0   0   0   0   0   0   0   0   0   0   0   0   0   0   0
  0   0   0   0   0   0   0   0   0   0   0   0   0  14  26  37  53  67  83  98 111 121 126 137
150 154 158 163 164 166 171 171 170 173 172 172 169 178 180 178 181 182 181 182 187 196 207 213
215 221 214  86   0  23   0   0   0   0   0   0   0   0   0   0   0   0   0   0   0   0   0   0
  0   0   0   0
  0   0   0   0   0   0   0   0   0   0   0   0   0   0   0   0   0   0   0   0   0   0   0   0
  0   0   0   0   0   0   0   0   0   0   0   0   2  17  27  40  56  72  86  98 110 126 133 139
145 154 162 166 166 165 164 165 167 169 171 172 171 176 177 182 182 178 181 183 185 197 206 208
212 220 212  86   0  23   0   0   0   0   0   0   0   0   0   0   0   0   0   0   0   0   0   0
  0   0   0   0
  0   0   0   0   0   0   0   0   0   0   0   0   0   0   0   0   0   0   0   0   0   0   0   0
  0   0   0   0   0   0   0   0   0   0   0   0   7  19  30  44  58  72  87 101 110 123 138 145
148 153 160 166 169 168 166 168 167 167 171 174 173 174 175 178 182 181 181 183 186 194 199 206
211 217 210  85   0  23   0   0   0   0   0   0   0   0   0   0   0   0   0   0   0   0   0   0
  0   0   0   0
  0   0   0   0   0   0   0   0   0   0   0   0   0   0   0   0   0   0   0   0   0   0   0   0
  0   0   0   0   0   0   0   0   0   0   0   0  12  20  43  57  66  77  90 106 113 127 141 141
148 156 158 165 170 171 166 168 168 170 171 175 177 178 178 177 180 182 183 184 186 186 196 207
208 214 209  85   0  22   0   0   0   0   0   0   0   0   0   0   0   0   0   0   0   0   0   0
  0   0   0   0
  0   0   0   0   0   0   0   0   0   0   0   0   0   0   0   0   0   0   0   0   0   0   0   0
  0   0   0   0   0   0   0   0   0   0   0   2  16  24  45  60  72  85 100 111 120 131 138 141
147 154 160 165 168 167 164 166 168 171 174 172 175 177 176 177 175 177 182 182 183 186 191 202
208 213 207  85   0  22   0   0   0   0   0   0   0   0   0   0   0   0   0   0   0   0   0   0
  0   0   0   0
  0   0   0   0   0   0   0   0   0   0   0   0   0   0   0   0   0   0   0   0   0   0   0   0
  0   0   0   0   0   0   0   0   0   0   0   6  18  28  42  58  78  88  99 110 125 130 132 140
148 154 161 166 171 169 167 165 166 171 176 172 174 174 174 175 176 182 183 182 183 183 185 197
204 210 205  84   0  22   0   0   0   0   0   0   0   0   0   0   0   0   0   0   0   0   0   0
  0   0   0   0
  0   0   0   0   0   0   0   0   0   0   0   0   0   0   0   0   0   0   0   0   0   0   0   0
  0   0   0   0   0   0   0   0   0   0   0  12  21  32  47  63  81  94 104 116 129 133 136 140
149 154 161 166 171 171 169 167 166 171 172 175 179 177 172 170 174 180 180 179 181 184 186 196
200 208 204  83   0  22   0   0   0   0   0   0   0   0   0   0   0   0   0   0   0   0   0   0
  0   0   0   0
  0   0   0   0   0   0   0   0   0   0   0   0   0   0   0   0   0   0   0   0   0   0   0   0
  0   0   0   0   0   0   0   0   0   0   2  17  25  38  53  69  83  97 110 123 130 135 142 148
153 154 158 167 168 169 168 167 169 169 171 174 175 175 171 171 173 177 177 176 180 183 184 189
194 204 199  80   0  21   0   0   0   0   0   0   0   0   0   0   0   0   0   0   0   0   0   0
  0   0   0   0
  0   0   0   0   0   0   0   0   0   0   0   0   0   0   0   0   0   0   0   0   0   0   0   0
  0   0   0   0   0   0   0   0   0   0   7  20  30  42  56  71  87 100 113 127 127 133 139 145
154 160 163 166 165 167 166 166 168 170 172 173 174 175 175 175 178 180 180 178 180 181 183 185
189 200 197  81   0  21   0   0   0   0   0   0   0   0   0   0   0   0   0   0   0   0   0   0
  0   0   0   0
  0   0   0   0   0   0   0   0   0   0   0   0   0   0   0   0   0   0   0   0   0   0   0   0
  0   0   0   0   0   0   0   0   0   0  13  24  35  49  63  78  93 108 120 128 129 136 140 147
153 160 164 166 165 164 166 167 169 170 172 175 178 182 180 177 178 180 184 183 183 184 184 180
184 198 197  81   0  21   0   0   0   0   0   0   0   0   0   0   0   0   0   0   0   0   0   0
  0   0   0   0
  0   0   0   0   0   0   0   0   0   0   0   0   0   0   0   0   0   0   0   0   0   0   0   0
  0  14  16   0   0   0   0   0   0   4  18  27  41  56  70  84  99 114 124 128 134 141 145 149
151 155 161 170 168 164 164 166 170 171 174 179 177 180 179 179 182 185 185 185 186 182 177 177
181 194 196  81   0  21   0   0   0   0   0   0   0   0   0   0   0   0   0   0   0   0   0   0
  0   0   0   0
  0   0   0   0   0   0   0   0   0   0   0   0   0   0   0   0   0   0   0   0   0   0   0   0
  4   0   0   0   2   0   0   0   0   9  22  30  46  61  75  89 102 120 129 132 138 142 146 151
153 157 164 170 170 166 162 164 170 173 174 180 180 181 182 180 184 183 181 180 184 179 179 182
182 192 192  79   0  20   0   0   0   0   0   0   0   0   0   0   0   0   0   0   0   0   0   0
  0   0   0   0
  0   0   0   0   0   0   0   0   0   0   0   0   0   0   0   0   0   0   0   0   0   0   0   4
  0  36  63   9   0   3   0   0   0  13  25  35  50  67  83  94 109 127 131 135 141 144 147 150
154 158 164 168 169 172 168 170 176 175 176 178 182 185 183 182 181 178 179 179 178 178 183 182
182 188 187  77   0  19   0   0   0   0   0   0   0   0   0   0   0   0   0   0   0   0   0   0
  0   0   0   0
  0   0   0   0   0   0   0   0   0   0   0   0   0   0   0   0   0   0   0   0   0   0   7   0
 21 139 128   0   0   7   0   0   4  18  29  42  59  77  90 102 116 125 131 137 143 148 150 152
154 157 161 164 170 176 178 177 175 176 178 180 181 180 181 178 176 178 177 179 177 178 181 180
180 187 186  77   0  19   0   0   0   0   0   0   0   0   0   0   0   0   0   0   0   0   0   0
  0   0   0   0
  0   0   0   0   0   0   0   0   0   0   0   0   0   0   0   0   0   0   0   0   0   0   3   0
 25  73  33   0   4   0   0   0   8  21  32  49  68  84  96 112 121 126 134 140 146 151 156 157
157 157 159 164 168 171 179 177 177 182 179 177 177 177 175 176 176 179 180 182 180 179 179 178
179 185 183  75   0  19   0   0   0   0   0   0   0   0   0   0   0   0   0   0   0   0   0   0
  0   0   0   0
  0   0   0   0   0   0   0   0   0   0   0   0   0   0   0   0   0   0   0   0   0   0   0   3
  0   0   0   4   0   0   0   1  12  24  39  57  76  89 106 119 125 134 139 142 147 152 155 157
157 158 158 162 168 170 177 184 186 187 184 180 183 181 177 180 179 179 183 180 180 182 179 178
181 185 181  74   0  18   0   0   0   0   0   0   0   0   0   0   0   0   0   0   0   0   0   0
  0   0   0   0
  0   0   0   0   0   0   0   0   0   0   0   0   0   0   0   0   0   0   0   0   0   0   0   0
  1  18  13   0   0   0   0   3  15  29  47  62  78  96 118 124 129 138 145 145 148 153 153 156
157 160 163 162 169 172 179 187 183 186 187 188 184 182 183 183 181 183 181 178 180 178 177 179
179 187 184  75   0  19   0   0   0   0   0   0   0   0   0   0   0   0   0   0   0   0   0   0
  0   0   0   0
  0   0   0   0   0   0   0   0   0   0   0   0   0   0   0   0   0   0   0   0   0   0   0   0
  0   0   0   0   0   0   0   6  19  37  52  66  83 106 117 126 134 139 146 153 156 156 154 156
159 164 168 167 172 181 187 184 182 182 179 183 178 179 184 183 180 185 186 179 178 177 180 184
185 189 182  72   0  18   0   0   0   0   0   0   0   0   0   0   0   0   0   0   0   0   0   0
  0   0   0   0
  0   0   0   0   0   0   0   0   0   0   0   0   0   0   0   0   0   0   0   0   0   0   0   0
  0   0   0   0   0   0   0  10  23  43  60  72  93 110 114 127 137 141 148 157 161 162 159 159
162 170 171 171 178 191 192 185 186 184 184 183 182 183 184 178 173 179 181 177 179 181 183 184
183 183 176  71   0  17   0   0   0   0   0   0   0   0   0   0   0   0   0   0   0   0   0   0
  0   0   0   0
  0   0   0   0   0   0   0   0   0   0   0   0   0   0   0   0   0   0   0   0   0   0   0   0
  0   0   0   0   0   0   2  16  27  49  67  80 101 110 117 129 140 148 148 153 159 164 166 161
166 171 175 178 183 187 189 188 188 187 186 184 188 186 183 173 172 173 173 177 180 181 178 181
181 183 175  69   0  17   0   0   0   0   0   0   0   0   0   0   0   0   0   0   0   0   0   0
  0   0   0   0
  0   0   0   0   0   0   0   0   0   0   0   0   0   0   0   0   0   0   0   0   0   0   0   0
  0   0   0   0   0   0   6  19  32  56  71  90 104 113 124 132 142 152 154 153 159 164 165 162
166 175 183 184 183 189 189 185 187 184 181 180 179 177 177 177 175 175 177 180 181 179 179 182
182 182 175  70   0  17   0   0   0   0   0   0   0   0   0   0   0   0   0   0   0   0   0   0
  0   0   0   0
  0   0   0   0   0   0   0   0   0   0   0   0   0   0   0   0   0   0   0   0   0   0   0   0
  0   0   0   0   0   0   9  22  37  62  81  95 106 118 128 135 142 148 154 156 163 165 161 161
165 176 180 178 181 187 183 180 181 177 177 180 179 176 178 185 184 182 183 180 181 179 179 180
177 180 174  69   0  17   0   0   0   0   0   0   0   0   0   0   0   0   0   0   0   0   0   0
  0   0   0   0
  0   0   0   0   0   0   0   0   0   0   0   0   0   0   0   0   0   0   0   0   0   0   0   0
  0   0   0   0   0   0  14  28  42  68  93  98 112 122 129 135 141 147 154 161 164 166 161 159
164 177 179 175 179 180 174 173 175 177 180 181 179 182 184 188 186 183 181 175 176 174 174 176
176 180 174  71   0  17   0   0   0   0   0   0   0   0   0   0   0   0   0   0   0   0   0   0
  0   0   0   0
  0   0   0   0   0   0   0   0   0   0   0   0   0   0   0   0   0   0   0   0   0   0   0   0
  0   0   0   0   0   1  19  33  49  75  96 103 115 127 134 135 145 153 158 165 165 169 169 172
173 178 174 172 181 180 177 175 175 177 179 179 179 183 184 183 185 180 174 170 172 172 170 172
178 180 175  72   0  17   0   0   0   0   0   0   0   0   0   0   0   0   0   0   0   0   0   0
  0   0   0   0
  0   0   0   0   0   0   0   0   0   0   0   0   0   0   0   0   0   0   0   0   0   0   0   0
  0   0   0   0   0   5  24  37  58  75  95 108 118 130 138 141 149 159 165 165 165 176 179 183
178 175 170 173 183 180 176 176 174 175 175 176 178 181 185 180 174 172 176 174 171 171 172 173
174 178 174  70   0  17   0   0   0   0   0   0   0   0   0   0   0   0   0   0   0   0   0   0
  0   0   0   0
  0   0   0   0   0   0   0   0   0   0   0   0   0   0   0   0   0   0   0   0   0   0   0   0
  0   0   0   0   0  12  28  41  65  78  97 115 124 132 138 145 155 158 168 169 173 182 179 178
177 185 181 183 188 176 177 179 175 175 175 174 176 179 177 172 165 168 178 173 168 172 173 174
176 179 176  72   0  17   0   0   0   0   0   0   0   0   0   0   0   0   0   0   0   0   0   0
  0   0   0   0
  0   0   0   0   0   0   0   0   0   0   0   0   0   0   0   0   0   0   0   0   0   0   0   0
  0   0   0   0   0  16  28  48  68  83 100 118 127 131 138 148 159 166 169 171 173 178 176 173
177 179 178 189 189 177 177 177 173 168 172 172 178 179 172 173 176 179 178 173 173 174 177 180
182 185 181  72   0  18   0   0   0   0   0   0   0   0   0   0   0   0   0   0   0   0   0   0
  0   0   0   0
  0   0   0   0   0   0   0   0   0   0   0   0   0   0   0   0   0   0   0   0   0   0   0   0
  0   0   0   0   0  20  30  57  72  84 102 117 129 134 142 153 166 180 174 168 166 170 166 169
173 162 175 190 186 176 173 174 170 171 176 176 183 181 177 179 178 173 168 172 177 178 181 179
180 185 176  68   0  17   0   0   0   0   0   0   0   0   0   0   0   0   0   0   0   0   0   0
  0   0   0   0
  0   0   0   0   0   0   0   0   0   0   0   0   0   0   0   0   0   0   0   0   0   0   0   0
  0   0   0   0   3  20  37  61  76  89 102 118 137 145 144 152 170 180 167 161 164 170 171 169
168 169 180 188 179 166 166 165 168 174 177 177 179 180 178 175 178 182 175 176 178 179 177 178
179 180 171  68   0  16   0   0   0   0   0   0   0   0   0   0   0   0   0   0   0   0   0   0
  0   0   0   0
  0   0   0   0   0   0   0   0   0   0   0   0   0   0   0   0   0   0   0   0   0   0   0   0
  0   0   0   0   1  29  56  61  77  94 105 116 138 153 151 159 170 167 156 154 155 166 170 162
169 178 182 183 170 163 163 162 168 172 174 178 177 180 179 175 180 188 183 176 174 172 172 174
173 174 169  68   0  16   0   0   0   0   0   0   0   0   0   0   0   0   0   0   0   0   0   0
  0   0   0   0
  0   0   0   0   0   0   0   0   0   0   0   0   0   0   0   0   0   0   0   0   0   0   0   0
  0   0   0   0   0  40  64  55  79  97 109 122 131 146 156 165 170 163 152 149 153 162 155 164
176 175 185 186 174 164 163 168 170 172 178 183 185 183 176 171 173 180 177 168 169 169 170 171
169 173 169  67   0  16   0   0   0   0   0   0   0   0   0   0   0   0   0   0   0   0   0   0
  0   0   0   0
  0   0   0   0   0   0   0   0   0   0   0   0   0   0   0   0   0   0   0   0   0   0   0   0
  0   0   0   0   9  33  56  56  75  99 108 125 138 148 155 161 167 159 150 153 155 155 159 174
175 172 184 182 173 166 165 167 175 178 180 185 184 175 173 175 174 169 165 167 166 166 168 171
170 174 167  68   0  16   0   0   0   0   0   0   0   0   0   0   0   0   0   0   0   0   0   0
  0   0   0   0
  0   0   0   0   0   0   0   0   0   0   0   0   0   0   0   0   0   0   0   0   0   0   0   0
  0   0   0   0  12  28  57  62  72  98 109 124 139 150 154 162 160 152 152 149 150 160 165 161
163 174 181 173 169 167 166 172 179 178 179 182 179 174 173 173 168 165 163 162 164 170 175 173
170 176 173  71   0  17   0   0   0   0   0   0   0   0   0   0   0   0   0   0   0   0   0   0
  0   0   0   0
  0   0   0   0   0   0   0   0   0   0   0   0   0   0   0   0   0   0   0   0   0   0   0   0
  0   0   0   0  13  30  59  69  75  99 111 125 140 145 149 159 151 150 153 147 151 157 156 162
168 174 175 171 171 169 173 176 180 187 186 184 180 173 171 167 162 163 165 165 170 174 178 175
176 183 181  73   0  18   0   0   0   0   0   0   0   0   0   0   0   0   0   0   0   0   0   0
  0   0   0   0
  0   0   0   0   0   0   0   0   0   0   0   0   0   0   0   0   0   0   0   0   0   0   0   0
  0   0   0   0  14  32  55  73  85 101 112 127 141 144 151 161 151 152 154 153 153 159 164 169
170 171 171 171 168 174 178 177 184 189 182 177 178 174 171 172 174 172 172 175 178 179 178 182
187 192 187  74   0  19   0   0   0   0   0   0   0   0   0   0   0   0   0   0   0   0   0   0
  0   0   0   0
  0   0   0   0   0   0   0   0   0   0   0   0   0   0   0   0   0   0   0   0   0   0   0   0
  0   0   0   0  17  33  53  72  87 104 114 126 141 147 153 160 158 159 153 151 160 165 162 164
167 168 163 160 163 169 174 180 179 176 173 172 177 183 183 179 179 175 176 182 184 184 187 192
191 196 186  71   0  18   0   0   0   0   0   0   0   0   0   0   0   0   0   0   0   0   0   0
  0   0   0   0
  0   0   0   0   0   0   0   0   0   0   0   0   0   0   0   0   0   0   0   0   0   0   0   0
  0   0   1   0  19  34  51  74  93 105 117 129 143 145 154 158 159 159 155 156 160 155 151 158
164 160 160 160 161 161 168 179 177 176 176 179 182 187 183 179 179 177 177 185 192 196 195 191
189 190 177  68   0  17   0   0   0   0   0   0   0   0   0   0   0   0   0   0   0   0   0   0
  0   0   0   0
  0   0   0   0   0   0   0   0   0   0   0   0   0   0   0   0   0   0   0   0   0   0   0   0
  0   0   1   0  21  40  51  74 101 106 119 140 143 144 158 162 153 154 158 166 157 155 156 164
165 160 166 163 158 159 168 173 175 176 181 186 182 178 178 179 177 178 183 192 194 191 188 185
184 184 176  71   0  17   0   0   0   0   0   0   0   0   0   0   0   0   0   0   0   0   0   0
  0   0   0   0
  0   0   0   0   0   0   0   0   0   0   0   0   0   0   0   0   0   0   0   0   0   0   0   0
  0   0   1   0  18  50  53  64  93 112 116 131 142 152 167 163 159 157 151 155 154 161 164 168
167 167 167 167 161 162 164 167 175 173 179 182 177 178 178 175 177 183 187 186 183 184 184 181
180 188 181  70   0  17   0   0   0   0   0   0   0   0   0   0   0   0   0   0   0   0   0   0
  0   0   0   0
  0   0   0   0   0   0   0   0   0   0   0   0   0   0   0   0   0   0   0   0   0   0   0   0
  0   0   1   0   6  52  59  65  85 112 124 131 141 155 167 165 159 156 152 150 153 158 159 157
155 161 165 167 162 161 166 171 173 178 182 176 175 175 175 177 178 175 178 180 181 184 184 181
182 187 176  67   0  17   0   0   0   0   0   0   0   0   0   0   0   0   0   0   0   0   0   0
  0   0   0   0
  0   0   0   0   0   0   0   0   0   0   0   0   0   0   0   0   0   0   0   0   0   0   0   0
  0   0   1   1   0  44  66  69  85 107 123 141 149 157 163 159 160 155 153 154 146 148 155 157
155 157 157 159 162 168 176 173 168 171 173 175 177 175 180 179 174 179 179 178 183 183 181 178
177 178 170  67   0  16   0   0   0   0   0   0   0   0   0   0   0   0   0   0   0   0   0   0
  0   0   0   0
  0   0   0   0   0   0   0   0   0   0   0   0   0   0   0   0   0   0   0   0   0   0   0   0
  0   0   0   2   0  25  66  71  86 107 129 150 163 158 163 162 162 152 151 150 150 158 154 154
158 157 153 156 158 170 170 164 167 168 166 174 177 181 178 175 179 183 181 182 182 177 175 172
174 179 168  66   0  16   0   0   0   0   0   0   0   0   0   0   0   0   0   0   0   0   0   0
  0   0   0   0
  0   0   0   0   0   0   0   0   0   0   0   0   0   0   0   0   0   0   0   0   0   0   0   0
  0   0   0   1   2   1  57  81  83 100 135 160 166 155 165 163 151 149 149 146 155 153 145 153
160 159 157 157 159 161 159 159 164 162 162 172 178 179 171 173 177 179 181 185 178 172 171 173
175 174 168  67   0  16   0   0   0   0   0   0   0   0   0   0   0   0   0   0   0   0   0   0
  0   0   0   0
  0   0   0   0   0   0   0   0   0   0   0   0   0   0   0   0   0   0   0   0   0   0   0   0
  0   0   0   0   4   0  35  92  99  96 127 153 163 158 165 160 152 152 143 147 153 147 148 156
163 164 160 158 162 158 162 167 164 167 176 179 175 170 171 174 179 185 183 181 175 175 176 176
170 173 171  68   0  16   0   0   0   0   0   0   0   0   0   0   0   0   0   0   0   0   0   0
  0   0   0   0
  0   0   0   0   0   0   0   0   0   0   0   0   0   0   0   0   0   0   0   0   0   0   0   0
  0   0   0   0   1   8   0  78 122 123 125 133 158 169 159 159 165 156 145 148 154 149 152 157
162 161 159 163 163 158 160 162 167 173 174 174 171 171 175 176 180 182 178 175 175 178 175 170
167 176 165  62   0  15   0   0   0   0   0   0   0   0   0   0   0   0   0   0   0   0   0   0
  0   0   0   0
  0   0   0   0   0   0   0   0   0   0   0   0   0   0   0   0   0   0   0   0   0   0   0   0
  0   0   0   0   0   7   0  29 114 144 134 126 153 174 170 157 155 160 149 145 150 154 160 160
159 158 159 165 164 161 159 163 169 168 169 170 168 166 170 178 180 179 175 173 177 174 167 165
170 174 159  60   0  14   0   0   0   0   0   0   0   0   0   0   0   0   0   0   0   0   0   0
  0   0   0   0
  0   0   0   0   0   0   0   0   0   0   0   0   0   0   0   0   0   0   0   0   0   0   0   0
  0   0   0   0   0   0   9   0  75 142 147 133 145 164 177 161 148 159 159 152 157 160 161 160
157 156 157 159 163 166 165 164 165 161 162 165 164 163 171 177 171 172 175 177 175 169 166 170
174 168 159  63   0  14   0   0   0   0   0   0   0   0   0   0   0   0   0   0   0   0   0   0
  0   0   0   0
  0   0   0   0   0   0   0   0   0   0   0   0   0   0   0   0   0   0   0   0   0   0   0   0
  0   0   1   0   1   0   6   0   0 120 155 138 144 167 175 161 145 151 154 154 156 155 156 158
157 153 156 162 163 157 156 159 158 154 160 164 165 168 175 173 171 174 175 171 170 167 166 175
169 164 164  68   0  16   0   0   0   0   0   0   0   0   0   0   0   0   0   0   0   0   0   0
  0   0   0   0
  0   0   0   0   0   0   0   0   0   0   0   0   0   0   0   0   0   0   0   0   0   0   0   0
  0   0   0   0   1   1   0  12   0  72 142 146 140 155 163 163 151 143 144 150 149 154 155 159
159 155 162 162 154 151 157 158 156 161 158 158 167 174 177 175 175 174 166 161 165 162 166 178
167 164 161  63   0  15   0   0   0   0   0   0   0   0   0   0   0   0   0   0   0   0   0   0
  0   0   0   0
  0   0   0   0   0   0   0   0   0   0   0   0   0   0   0   0   0   0   0   0   0   0   0   0
  0   0   0   0   0   1   0   4   0   0 109 135 127 131 149 163 163 151 144 147 151 156 159 166
160 155 156 157 157 156 158 166 163 155 152 159 169 173 168 169 168 168 167 165 166 167 173 176
169 163 155  61   0  14   0   0   0   0   0   0   0   0   0   0   0   0   0   0   0   0   0   0
  0   0   0   0
  0   0   0   0   0   0   0   0   0   0   0   0   0   0   0   0   0   0   0   0   0   0   0   0
  0   1   1   1   1   1   1   0  11   0  56 118 130 138 148 164 171 170 160 157 155 160 164 164
161 158 155 160 154 151 162 165 158 152 160 170 168 164 162 165 168 170 167 167 165 165 165 167
167 160 155  62   0  14   0   0   0   0   0   0   0   0   0   0   0   0   0   0   0   0   0   0
  0   0   0   0
  0   0   0   0   0   0   0   0   0   0   0   0   0   0   0   0   0   0   0   0   0   0   0   0
  0   1   1   1   1   0   1   0   0   7   0  75 109 131 151 160 172 176 171 166 164 165 165 159
156 154 150 155 152 154 160 155 160 166 167 168 160 161 165 166 171 168 162 157 156 152 158 160
159 155 151  59   0  13   0   0   0   0   0   0   0   0   0   0   0   0   0   0   0   0   0   0
  0   0   0   0
  0   0   0   0   0   0   0   0   0   0   0   0   0   0   0   0   0   0   0   0   0   0   0   0
  0   1   1   1   1   1   1   1   0   3   0  29  67  85 119 146 165 167 167 161 166 164 155 149
147 146 152 159 154 150 153 155 160 161 158 157 154 156 160 164 168 165 153 150 152 155 156 155
151 153 141  49   0  10   0   0   0   0   0   0   0   0   0   0   0   0   0   0   0   0   0   0
  0   0   0   0
  0   0   0   0   0   0   0   0   0   0   0   0   0   0   0   0   0   0   0   0   0   0   0   0
  0   1   1   1   1   1   1   1   1   1   1   2  51  61  71 104 141 159 154 143 145 151 152 148
145 148 154 156 147 146 149 160 169 157 149 148 148 151 158 160 158 156 149 148 154 156 150 149
147 138 122  41   0   8   0   0   0   0   0   0   0   0   0   0   0   0   0   0   0   0   0   0
  0   0   0   0
  0   0   0   0   0   0   0   0   0   0   0   0   0   0   0   0   0   0   0   0   0   0   0   0
  0   1   1   1   1   1   1   1   1   1   3   0  23  57  60  76  96 125 152 155 148 152 154 146
141 145 145 146 148 150 153 168 173 155 153 150 151 156 157 156 150 145 144 147 147 146 149 137
129 119 107  39   0   6   0   0   0   0   0   0   0   0   0   0   0   0   0   0   0   0   0   0
  0   0   0   0
  0   0   0   0   0   0   0   0   0   0   0   0   0   0   0   0   0   0   0   0   0   0   0   0
  0   1   1   1   1   1   1   1   1   1   1   2   0  35  54  70  86  91 109 142 159 149 141 140
134 135 138 142 149 151 151 154 155 152 154 154 155 157 154 146 145 138 135 139 142 145 134 117
113 107  99  36   0   5   0   0   0   0   0   0   0   0   0   0   0   0   0   0   0   0   0   0
  0   0   0   0
  0   0   0   0   0   0   0   0   0   0   0   0   0   0   0   0   0   0   0   0   0   0   0   0
  0   1   1   1   1   1   1   1   1   1   1   2   1   0  36  59  73  80  87 100 133 158 154 144
141 141 144 140 139 144 145 148 148 149 149 149 146 149 146 143 143 138 137 136 139 126 109 105
102  96  88  31   0   4   0   0   0   0   0   0   0   0   0   0   0   0   0   0   0   0   0   0
  0   0   0   0
  0   0   0   0   0   0   0   0   0   0   0   0   0   0   0   0   0   0   0   0   0   0   0   0
  0   1   1   1   1   1   2   2   2   2   2   1   2   1   0  37  60  68  78  89  97 122 141 142
145 154 153 150 157 159 154 154 148 141 140 139 139 141 142 143 147 147 138 132 119 102  99  96
 92  85  75  24   0   3   0   0   0   0   0   0   0   0   0   0   0   0   0   0   0   0   0   0
  0   0   0   0
  0   0   0   0   0   0   0   0   0   0   0   0   0   0   0   0   0   0   0   0   0   0   0   0
  0   1   1   1   1   1   1   2   2   2   2   2   1   2   0   2  32  53  62  77  87  91 108 127
142 155 157 158 167 158 142 140 139 136 133 129 134 142 148 147 140 125 115 106  98  90  83  79
 77  73  63  18   0   2   0   0   0   0   0   0   0   0   0   0   0   0   0   0   0   0   0   0
  0   0   0   0
  0   0   0   0   0   0   0   0   0   0   0   0   0   0   0   0   0   0   0   0   0   0   0   0
  0   1   2   1   2   1   1   2   2   1   2   1   2   1   2   1   3  28  46  58  69  85  93  99
110 120 130 142 150 139 126 127 130 122 123 130 129 130 119 123 112  93  89  81  76  74  68  63
 62  63  54  15   0   2   0   0   0   0   0   0   0   0   0   0   0   0   0   0   0   0   0   0
  0   0   0   0
  0   0   0   0   0   0   0   0   0   0   0   0   0   0   0   0   0   0   0   0   0   0   0   0
  0   1   1   2   1   2   2   2   2   2   2   1   1   1   1   2   1   8  28  40  49  62  77  87
 90  93  95 101 108 115 120 116 114 111 123 120 105 102  98  97  93  83  82  73  65  61  58  55
 51  50  44  11   0   1   0   0   0   0   0   0   0   0   0   0   0   0   0   0   0   0   0   0
  0   0   0   0
  0   0   0   0   0   0   0   0   0   0   0   0   0   0   0   0   0   0   0   0   0   0   0   0
  0   1   2   2   1   2   3   2   2   2   2   2   2   2   1   1   2   0   7  24  31  41  54  65
 72  79  84  86  85  89  98 106 109 109 106  92  91  95  88  80  74  70  68  61  58  54  49  46
 42  38  38  10   0   1   0   0   0   0   0   0   0   0   0   0   0   0   0   0   0   0   0   0
  0   0   0   0
  0   0   0   0   0   0   0   0   0   0   0   0   0   0   0   0   0   0   0   0   0   0   0   0
  0   2   2   2   2   2   2   2   2   2   2   2   2   2   2   1   1   2   0   5  16  25  38  52
 59  66  70  71  74  75  71  75  84  89  79  76  80  77  67  65  61  60  52  47  48  45  39  34
 33  33  29   5   0   0   0   0   0   0   0   0   0   0   0   0   0   0   0   0   0   0   0   0
  0   0   0   0
  0   0   0   0   0   0   0   0   0   0   0   0   0   0   0   0   0   0   0   0   0   0   0   0
  0   2   2   2   2   2   2   2   2   2   2   2   2   2   2   2   1   2   2   1   2  12  19  27
 40  50  56  58  59  58  57  58  65  69  62  62  62  56  53  51  51  50  44  40  35  33  31  28
 25  19   5   0   0   0   0   0   0   0   0   0   0   0   0   0   0   0   0   0   0   0   0   0
  0   0   0   0
  0   0   0   0   0   0   0   0   0   0   0   0   0   0   0   0   0   0   0   0   0   0   0   0
  0   2   2   2   2   2   2   2   2   2   2   2   2   2   2   2   2   2   2   2   1   1   7  11
 15  25  35  40  41  41  43  43  44  46  49  46  43  44  42  41  40  38  34  32  29  25  20  14
  5   0   0   1   0   0   0   0   0   0   0   0   0   0   0   0   0   0   0   0   0   0   0   0
  0   0   0   0
  0   0   0   0   0   0   0   0   0   0   0   0   0   0   0   0   0   0   0   0   0   0   0   0
  0   2   2   2   2   2   2   2   2   2   3   2   2   2   2   2   2   2   2   1   1   1   0   3
  9  12  15  22  28  28  29  32  33  30  31  30  30  29  30  28  26  23  21  19  13   7   2   0
  1   1   3   1   0   0   0   0   0   0   0   0   0   0   0   0   0   0   0   0   0   0   0   0
  0   0   0   0
  0   0   0   0   0   0   0   0   0   0   0   0   0   0   0   0   0   0   0   0   0   0   0   0
  0   2   2   2   3   3   2   2   3   3   2   2   3   3   2   2   2   2   2   2   1   2   1   1
  2   4   7  10  15  17  19  22  22  21  20  21  20  17  16  15  13  10   7   3   0   0   1   2
  2   0  17  10   0   1   0   0   0   0   0   0   0   0   0   0   0   0   0   0   0   0   0   0
  0   0   0   0
  0   0   0   0   0   0   0   0   0   0   0   0   0   0   0   0   0   0   0   0   0   0   0   0
  0   2   3   3   3   3   3   3   3   3   2   2   2   2   2   2   2   2   2   2   1   1   1   2
  2   2   2   2   4   5   8  11  11  11  11  10  10   9   7   4   3   1   1   1   2   2   2   2
  1   1  36  21   0   1   0   0   0   0   0   0   0   0   0   0   0   0   0   0   0   0   0   0
  0   0   0   0
  0   0   0   0   0   0   0   0   0   0   0   0   0   0   0   0   0   0   0   0   0   0   0   0
  0   2   3   3   3   3   3   3   3   3   3   3   3   3   3   2   2   2   2   2   2   2   2   2
  2   2   2   2   2   2   2   2   3   3   3   2   2   2   1   2   2   2   2   2   2   2   2   3
  0  15  52  26   0   2   0   0   0   0   0   0   0   0   0   0   0   0   0   0   0   0   0   0
  0   0   0   0
  0   0   0   0   0   0   0   0   0   0   0   0   0   0   0   0   0   0   0   0   0   0   0   0
  0   2   3   3   3   3   3   3   3   3   3   3   3   3   3   3   3   2   2   2   2   2   2   2
  2   2   3   2   3   2   2   3   3   3   3   3   2   2   2   2   2   2   2   2   2   2   2   3
  2  29  63  32   0   3   0   0   0   0   0   0   0   0   0   0   0   0   0   0   0   0   0   0
  0   0   0   0
  0   0   0   0   0   0   0   0   0   0   0   0   0   0   0   0   0   0   0   0   0   0   0   0
  0   2   3   3   3   3   3   3   3   3   3   3   3   3   3   3   2   3   3   2   2   2   2   2
  3   3   3   2   3   3   2   3   3   3   3   3   3   3   3   3   3   3   3   3   3   2   3   2
  8  44  72  34   0   4   0   0   0   0   0   0   0   0   0   0   0   0   0   0   0   0   0   0
  0   0   0   0
  0   0   0   0   0   0   0   0   0   0   0   0   0   0   0   0   0   0   0   0   0   0   0   0
  0   3   3   3   3   3   3   3   3   3   3   3   3   3   3   3   3   3   3   2   2   2   2   2
  3   2   3   3   3   3   3   3   3   3   3   3   3   3   3   3   3   3   3   3   3   3   3   2
 22  58  77  32   0   4   0   0   0   0   0   0   0   0   0   0   0   0   0   0   0   0   0   0
  0   0   0   0
  0   0   0   0   0   0   0   0   0   0   0   0   0   0   0   0   0   0   0   0   0   0   0   0
  0   2   3   3   3   3   3   3   3   3   3   3   3   3   3   3   3   3   3   3   2   2   2   3
  3   3   3   3   3   3   3   3   3   3   3   3   3   3   3   3   3   3   3   3   3   3   3   4
 35  65  78  32   0   4   0   0   0   0   0   0   0   0   0   0   0   0   0   0   0   0   0   0
  0   0   0   0
  0   0   0   0   0   0   0   0   0   0   0   0   0   0   0   0   0   0   0   0   0   0   0   0
  0   2   3   3   3   3   3   3   3   3   3   3   3   3   3   3   3   3   3   3   2   2   2   3
  3   3   3   3   3   4   3   3   3   3   4   4   4   3   3   3   4   3   3   4   3   4   3  14
 52  77  87  38   0   5   0   0   0   0   0   0   0   0   0   0   0   0   0   0   0   0   0   0
  0   0   0   0
  0   0   0   0   0   0   0   0   0   0   0   0   0   0   0   0   0   0   0   0   0   0   0   0
  0   3   4   3   3   3   3   3   4   4   4   3   3   3   3   3   3   3   3   3   3   3   3   3
  3   4   4   3   4   4   4   3   3   4   4   4   4   3   4   4   4   3   4   3   3   4   2  28
 61  81  93  41   0   6   0   0   0   0   0   0   0   0   0   0   0   0   0   0   0   0   0   0
  0   0   0   0
  0   0   0   0   0   0   0   0   0   0   0   0   0   0   0   0   0   0   0   0   0   0   0   0
  0   3   4   3   4   4   4   4   4   4   4   3   3   3   3   3   3   3   3   3   3   4   3   3
  3   3   3   3   3   4   4   3   3   4   4   3   3   3   3   4   4   3   4   3   3   3   8  35
 61  80  97  43   0   6   0   0   0   0   0   0   0   0   0   0   0   0   0   0   0   0   0   0
  0   0   0   0
