P2
# 8-bit pgm gray
100 100
255
  0   0   0   0   0   0   0   0   0   0   0   0   0   0   0   0   0   0   0   0   0   0   0   0
  0   2   2   2   5   0  54  77  75  78  79  79  77  78  80  81  82  85  87  91  97 103 109 113
118 124 148 180 188 193 197 199 203 204 203 203 203 204 204 203 202 203 203 203 203 206 208 210
212 216 205  81   0  21   0   0   0   0   0   0   0   0   0   0   0   0   0   0   0   0   0   0
  0   0   0   0
  0   0   0   0   0   0   0   0   0   0   0   0   0   0   0   0   0   0   0   0   0   0   0   0
  0   3   3   3   2   8   0   0   0   0   0   0   0   0   0   0   0   0   0  22  39  57  70  81
 95 107 122 161 195 204 210 214 218 220 221 222 223 222 221 221 220 223 223 223 224 225 227 228
230 234 222  88   0  24   0   0   0   0   0   0   0   0   0   0   0   0   0   0   0   0   0   0
  0   0   0   0
  0   0   0   0   0   0   0   0   0   0   0   0   0   0   0   0   0   0   0   0   0   0   0   0
  0   3   3   3   3   1  12  20  19  20  20  20  20  22  24  26  29  34  40  50  60  72  82  92
104 112 119 130 168 193 200 204 210 213 214 215 215 215 214 215 215 214 217 218 218 218 219 220
219 223 214  85   0  23   0   0   0   0   0   0   0   0   0   0   0   0   0   0   0   0   0   0
  0   0   0   0
  0   0   0   0   0   0   0   0   0   0   0   0   0   0   0   0   0   0   0   0   0   0   0   0
  0   3   3   3   3   3   2   1   1   0   0   0   1   3   7  10  14  21  29  40  51  63  79  90
100 107 115 125 138 174 199 203 208 212 213 214 216 216 216 217 216 215 215 217 218 218 219 220
220 225 216  87   0  23   0   0   0   0   0   0   0   0   0   0   0   0   0   0   0   0   0   0
  0   0   0   0
  0   0   0   0   0   0   0   0   0   0   0   0   0   0   0   0   0   0   0   0   0   0   0   0
  0   3   4   4   4   3   3   3   3   3   2   3   3   5   8  11  16  22  29  37  50  65  74  85
 99 108 115 125 134 150 181 195 202 208 210 211 214 216 216 217 217 216 214 214 218 219 220 220
219 223 215  87   0  23   0   0   0   0   0   0   0   0   0   0   0   0   0   0   0   0   0   0
  0   0   0   0
  0   0   0   0   0   0   0   0   0   0   0   0   0   0   0   0   0   0   0   0   0   0   0   0
  0   3   2   0   0   2   3   3   3   3   3   3   3   4   7  10  14  20  27  37  47  59  74  86
 97 106 116 125 134 143 148 178 197 202 205 208 211 215 216 216 217 216 216 216 218 218 218 220
219 222 212  86   0  23   0   0   0   0   0   0   0   0   0   0   0   0   0   0   0   0   0   0
  0   0   0   0
  0   0   0   0   0   0   0   0   0   0   0   0   0   0   0   0   0   0   0   0   0   0   0   0
  0   2  10  14  24  34   5   1   3   3   3   3   2   3   6   9  13  18  25  35  45  55  70  84
100 105 109 116 131 142 133 148 182 195 201 206 209 212 215 216 216 215 214 217 219 218 218 220
221 223 212  85   0  23   0   0   0   0   0   0   0   0   0   0   0   0   0   0   0   0   0   0
  0   0   0   0
  0   0   0   0   0   0   0   0   0   0   0   0   0   0   0   0   0   0   0   0   0   0   0   0
  1   0  25  42  53  55   3   0   4   2   3   3   3   3   5   8  12  17  23  32  41  50  61  77
 92  98 106 117 126 134 128 129 151 182 195 200 205 211 215 215 216 215 216 219 219 218 218 220
223 225 214  85   0  23   0   0   0   0   0   0   0   0   0   0   0   0   0   0   0   0   0   0
  0   0   0   0
  0   0   0   0   0   0   0   0   0   0   0   0   0   0   0   0   0   0   0   0   0   0   0   0
  0   1  19  12   0  32   9   0   4   3   3   3   3   3   4   7  10  15  21  27  36  47  59  72
 82  93 106 119 122 124 124 129 138 155 185 197 201 209 212 213 216 216 218 219 220 219 219 219
222 226 215  86   0  23   0   0   0   0   0   0   0   0   0   0   0   0   0   0   0   0   0   0
  0   0   0   0
  0   0   0   0   0   0   0   0   0   0   0   0   0   0   0   0   0   0   0   0   0   0   0   0
  2   0  25  58  54  27   0   4   3   3   3   3   3   3   4   6   9  14  19  25  33  43  55  66
 77  92 104 111 117 119 125 126 135 140 159 190 198 203 209 212 215 215 215 217 219 219 220 220
221 224 215  86   0  23   0   0   0   0   0   0   0   0   0   0   0   0   0   0   0   0   0   0
  0   0   0   0
  0   0   0   0   0   0   0   0   0   0   0   0   0   0   0   0   0   0   0   0   0   0   0   0
  3   0  10  71  77  44   0   5   3   3   3   3   3   3   3   5   8  12  17  23  31  39  50  62
 73  83  94 103 109 117 124 124 129 136 139 167 193 199 206 210 212 213 213 217 217 218 219 220
220 224 215  86   0  23   0   0   0   0   0   0   0   0   0   0   0   0   0   0   0   0   0   0
  0   0   0   0
  0   0   0   0   0   0   0   0   0   0   0   0   0   0   0   0   0   0   0   0   0   0   0   0
  1   0  33  49  24   0   4   3   3   3   3   3   3   3   3   3   6  10  14  20  28  36  47  57
 66  78  87  96 106 114 120 123 127 132 134 144 178 197 203 208 210 211 215 218 219 217 218 221
220 222 215  87   0  23   0   0   0   0   0   0   0   0   0   0   0   0   0   0   0   0   0   0
  0   0   0   0
  0   0   0   0   0   0   0   0   0   0   0   0   0   0   0   0   0   0   0   0   0   0   0   1
  0   0  40  18   0   5   3   3   3   3   3   3   3   3   3   3   3   8  14  19  24  33  41  49
 59  73  82  88  99 109 115 121 129 129 131 137 155 186 201 205 208 212 215 217 218 218 218 220
220 224 215  87   0  23   0   0   0   0   0   0   0   0   0   0   0   0   0   0   0   0   0   0
  0   0   0   0
  0   0   0   0   0   0   0   0   0   0   0   0   0   0   0   0   0   0   0   0   0   0   0   0
  1   0  40  52  44  34   2   3   3   3   3   3   3   3   3   3   3   4  12  20  23  32  41  51
 62  71  76  85  95 105 114 119 126 127 131 137 142 166 196 203 206 211 213 215 218 219 220 221
221 225 214  86   0  23   0   0   0   0   0   0   0   0   0   0   0   0   0   0   0   0   0   0
  0   0   0   0
  0   0   0   0   0   0   0   0   0   0   0   0   0   0   0   0   0   0   0   0   0   0   0   0
  1   1   8  30  36  17   2   3   3   3   3   3   3   3   3   3   4   3   6  12  15  22  31  42
 54  66  77  90 100 112 117 124 130 135 139 145 151 156 182 202 204 208 211 215 219 221 221 222
221 223 215  86   0  23   0   0   0   0   0   0   0   0   0   0   0   0   0   0   0   0   0   0
  0   0   0   0
  0   0   0   0   0   0   0   0   0   0   0   0   0   0   0   0   0   0   0   0   0   0   0   0
  0   4   0   4  37   5   1   4   3   3   3   3   3   3   3   4   4   4   5   9  10  12  16  20
 26  35  47  60  71  83  93 103 109 117 128 133 146 152 164 190 202 206 210 213 217 220 221 221
218 223 216  86   0  23   0   0   0   0   0   0   0   0   0   0   0   0   0   0   0   0   0   0
  0   0   0   0
  0   0   0   0   0   0   0   0   0   0   0   0   0   0   0   0   0   0   0   0   0   0   0   0
  0   3   1  13  41  12   0   4   3   3   3   3   3   3   3   4   4   4   5   9  11  14  18  23
 28  33  38  46  56  59  63  69  77  82  93 104 114 123 135 162 188 199 204 210 214 217 219 219
219 222 214  87   0  23   0   0   0   0   0   0   0   0   0   0   0   0   0   0   0   0   0   0
  0   0   0   0
  0   0   0   0   0   0   0   0   0   0   0   0   0   0   0   0   0   0   0   0   0   0   0   0
  0   3   1   2  33   5   1   4   3   3   3   3   3   3   3   4   4   3   5   9  11  14  18  22
 28  35  40  49  61  64  68  77  82  85  91  98 108 117 125 143 167 188 199 205 211 214 214 219
220 221 213  86   0  23   0   0   0   0   0   0   0   0   0   0   0   0   0   0   0   0   0   0
  0   0   0   0
  0   0   0   0   0   0   0   0   0   0   0   0   0   0   0   0   0   0   0   0   0   0   0   0
  0   4   0  26  42  22   0   4   3   3   3   3   3   3   3   4   4   4   6   9  11  14  17  23
 30  36  44  51  60  67  74  79  84  91  95 103 116 122 127 131 145 173 192 199 206 212 215 219
220 221 213  87   0  23   0   0   0   0   0   0   0   0   0   0   0   0   0   0   0   0   0   0
  0   0   0   0
  0   0   0   0   0   0   0   0   0   0   0   0   0   0   0   0   0   0   0   0   0   0   0   0
  2   0  29  50  35  45  20   0   5   3   3   3   3   3   4   3   4   4   7  10  12  14  19  27
 32  39  46  53  61  71  76  78  84  90 101 112 115 115 118 124 137 156 180 196 203 210 215 216
217 219 212  86   0  23   0   0   0   0   0   0   0   0   0   0   0   0   0   0   0   0   0   0
  0   0   0   0
  0   0   0   0   0   0   0   0   0   0   0   0   0   0   0   0   0   0   0   0   0   0   0   0
  9   0  37  60  47  54  26   0   6   3   3   3   3   4   4   4   4   5   8  10  13  16  22  28
 33  39  45  52  60  70  74  80  88  94 105 107 111 116 120 127 136 149 168 191 202 209 212 213
215 220 211  85   0  23   0   0   0   0   0   0   0   0   0   0   0   0   0   0   0   0   0   0
  0   0   0   0
  0   0   0   0   0   0   0   0   0   0   0   0   0   0   0   0   0   0   0   0   0   0   0   0
  7  10  14  36  34  29   8   2   4   3   3   3   3   3   4   4   4   6   9  11  14  17  22  28
 34  40  48  55  62  72  76  86  96 102 104 106 112 120 124 128 131 146 159 177 197 205 211 214
215 219 211  86   0  23   0   0   0   0   0   0   0   0   0   0   0   0   0   0   0   0   0   0
  0   0   0   0
  0   0   0   0   0   0   0   0   0   0   0   0   0   0   0   0   0   0   0   0   0   0   0   0
  2   0  37  40  34  45  31   0   6   3   3   3   3   3   4   4   4   7  10  12  15  18  23  29
 36  43  49  58  63  71  80  89  97  99 102 109 114 120 124 126 130 139 152 165 189 203 210 215
215 220 210  85   0  23   0   0   0   0   0   0   0   0   0   0   0   0   0   0   0   0   0   0
  0   0   0   0
  0   0   0   0   0   0   0   0   0   0   0   0   0   0   0   0   0   0   0   0   0   0   0   0
 11   4  35  67  77  64  27   0   6   2   3   3   3   3   3   4   5   8  10  13  15  20  26  30
 37  46  54  61  66  76  83  88  94  97 104 111 116 123 127 129 131 132 146 161 178 197 207 212
212 216 208  83   0  22   0   0   0   0   0   0   0   0   0   0   0   0   0   0   0   0   0   0
  0   0   0   0
  0   0   0   0   0   0   0   0   0   0   0   0   0   0   0   0   0   0   0   0   0   0   0   0
  7  12   4  43  51  43  11   0   3   2   3   3   3   3   3   3   6   8  10  13  18  23  27  32
 40  49  57  69  80  84  88  90  95 101 105 109 116 121 128 134 132 133 143 161 171 190 205 209
209 214 208  84   0  22   0   0   0   0   0   0   0   0   0   0   0   0   0   0   0   0   0   0
  0   0   0   0
  0   0   0   0   0   0   0   0   0   0   0   0   0   0   0   0   0   0   0   0   0   0   0   0
  0   1   2  35  71  69  13   0   4   2   3   3   3   3   3   4   7   9  12  16  21  24  30  36
 45  53  62  75  83  86  89  94  99 103 107 112 116 123 130 131 137 140 143 155 171 184 198 206
209 214 207  84   0  22   0   0   0   0   0   0   0   0   0   0   0   0   0   0   0   0   0   0
  0   0   0   0
  0   0   0   0   0   0   0   0   0   0   0   0   0   0   0   0   0   0   0   0   0   0   0   0
  0   5   0  15  74  55   0   5   3   2   2   3   3   3   3   5   8  11  13  18  23  27  33  40
 48  56  67  77  81  87  93  97 103 106 113 120 125 130 130 128 141 148 142 149 164 175 189 203
207 212 205  84   0  22   0   0   0   0   0   0   0   0   0   0   0   0   0   0   0   0   0   0
  0   0   0   0
  0   0   0   0   0   0   0   0   0   0   0   0   0   0   0   0   0   0   0   0   0   0   0   0
  1   3   2  30  66  64  19   0   4   2   3   3   3   3   4   6   9  12  15  20  24  30  36  44
 51  59  71  80  84  89  93  98 104 108 112 118 124 129 131 134 140 145 144 143 160 175 184 196
206 211 203  83   0  22   0   0   0   0   0   0   0   0   0   0   0   0   0   0   0   0   0   0
  0   0   0   0
  0   0   0   0   0   0   0   0   0   0   0   0   0   0   0   0   0   0   0   0   0   0   0   0
  0   2   3  17  21  21   8   2   3   3   3   3   3   3   5   8  10  13  17  21  26  33  41  48
 55  65  77  84  87  93  98 103 107 108 112 120 123 128 135 139 139 141 144 146 158 175 182 189
198 208 202  82   0  21   0   0   0   0   0   0   0   0   0   0   0   0   0   0   0   0   0   0
  0   0   0   0
  0   0   0   0   0   0   0   0   0   0   0   0   0   0   0   0   0   0   0   0   0   0   0   0
  0   3   3   0   0   0   1   3   3   3   3   3   3   3   6   9  11  15  19  24  30  37  46  55
 64  72  83  96 103 109 112 110 111 118 123 129 133 135 135 137 138 140 141 144 150 163 176 182
190 205 201  80   0  21   0   0   0   0   0   0   0   0   0   0   0   0   0   0   0   0   0   0
  0   0   0   0
  0   0   0   0   0   0   0   0   0   0   0   0   0   0   0   0   0   0   0   0   0   0   0   0
  0   3   3   4   5   5   3   3   3   3   3   3   3   4   7  10  12  17  21  26  34  42  53  62
 70  78  89 107 123 120 117 114 120 125 129 131 133 134 134 138 141 137 139 142 144 154 168 178
186 200 199  80   0  21   0   0   0   0   0   0   0   0   0   0   0   0   0   0   0   0   0   0
  0   0   0   0
  0   0   0   0   0   0   0   0   0   0   0   0   0   0   0   0   0   0   0   0   0   0   0   0
  0   3   2   1   5   5   3   3   3   3   3   3   3   6   9  11  14  19  24  30  39  49  57  66
 74  86  90 111 128 114 112 115 116 118 122 123 127 132 135 136 138 137 138 142 142 151 161 171
181 193 195  80   0  20   0   0   0   0   0   0   0   0   0   0   0   0   0   0   0   0   0   0
  0   0   0   0
  0   0   0   0   0   0   0   0   0   0   0   0   0   0   0   0   0   0   0   0   0   0   0   0
  1   1   8  15   0   0   1   3   3   3   3   3   4   7  10  13  17  21  28  36  44  53  62  71
 84  89 103 125 117 110 112 113 113 116 123 124 125 135 136 132 136 137 137 139 142 149 155 165
179 189 188  78   0  20   0   0   0   0   0   0   0   0   0   0   0   0   0   0   0   0   0   0
  0   0   0   0
  0   0   0   0   0   0   0   0   0   0   0   0   0   0   0   0   0   0   0   0   0   0   0   0
  2   0  16  39  19  19  11   2   4   3   3   4   6   8  11  14  20  25  31  40  49  58  66  76
 89 101 121 119 109 113 118 118 119 121 124 124 128 133 132 134 133 135 133 136 137 144 152 161
173 185 184  75   0  19   0   0   0   0   0   0   0   0   0   0   0   0   0   0   0   0   0   0
  0   0   0   0
  0   0   0   0   0   0   0   0   0   0   0   0   0   0   0   0   0   0   0   0   0   0   0   0
  1   1   6  39  41  38  20   0   4   3   3   4   7  10  13  17  21  29  35  45  58  71  79  93
103 111 116 117 116 118 122 121 124 126 127 126 129 131 133 137 133 135 134 134 136 141 149 160
169 182 181  72   0  18   0   0   0   0   0   0   0   0   0   0   0   0   0   0   0   0   0   0
  0   0   0   0
  0   0   0   0   0   0   0   0   0   0   0   0   0   0   0   0   0   0   0   0   0   0   0   0
  0   3   2   3   8   5   3   3   4   3   3   5   8  10  15  20  23  33  41  49  64  76  91 111
116 117 124 124 122 126 128 126 127 131 131 131 134 134 139 141 136 135 136 135 138 139 147 159
168 181 179  72   0  18   0   0   0   0   0   0   0   0   0   0   0   0   0   0   0   0   0   0
  0   0   0   0
  0   0   0   0   0   0   0   0   0   0   0   0   0   0   0   0   0   0   0   0   0   0   0   0
  0   3   3   2   0   1   3   3   3   3   3   6   9  12  16  22  27  36  46  55  70  77  88 116
141 151 143 133 135 141 137 132 131 136 133 132 137 139 148 146 138 135 138 138 138 137 145 161
164 176 175  72   0  17   0   0   0   0   0   0   0   0   0   0   0   0   0   0   0   0   0   0
  0   0   0   0
  0   0   0   0   0   0   0   0   0   0   0   0   0   0   0   0   0   0   0   0   0   0   0   0
  0   3   3   4   4   4   4   4   4   3   4   7  10  13  19  24  30  40  52  67  82  89 104 142
165 157 150 154 156 157 152 146 141 141 143 137 141 153 154 148 141 138 137 138 139 136 146 162
164 173 172  69   0  17   0   0   0   0   0   0   0   0   0   0   0   0   0   0   0   0   0   0
  0   0   0   0
  0   0   0   0   0   0   0   0   0   0   0   0   0   0   0   0   0   0   0   0   0   0   0   0
  0   3   3   3   3   3   3   3   3   3   5   8  12  16  21  28  37  48  60  75  94 109 132 159
167 161 160 166 173 173 167 164 157 144 144 146 157 164 155 153 146 140 140 148 148 145 147 157
165 173 172  68   0  16   0   0   0   0   0   0   0   0   0   0   0   0   0   0   0   0   0   0
  0   0   0   0
  0   0   0   0   0   0   0   0   0   0   0   0   0   0   0   0   0   0   0   0   0   0   0   0
  0   3   3   3   4   3   3   3   3   3   6  10  13  18  25  32  42  54  67  79 109 137 155 173
176 183 182 178 180 179 170 167 166 154 154 163 173 170 159 157 153 151 154 155 147 147 152 157
166 174 170  68   0  16   0   0   0   0   0   0   0   0   0   0   0   0   0   0   0   0   0   0
  0   0   0   0
  0   0   0   0   0   0   0   0   0   0   0   0   0   0   0   0   0   0   0   0   0   0   0   0
  0   3   3   3   4   3   3   3   3   4   7  11  14  20  27  35  46  58  70  81 122 158 176 189
192 197 203 204 198 193 185 176 180 173 165 177 184 175 162 160 156 162 170 161 152 152 152 148
161 175 169  66   0  16   0   0   0   0   0   0   0   0   0   0   0   0   0   0   0   0   0   0
  0   0   0   0
  0   0   0   0   0   0   0   0   0   0   0   0   0   0   0   0   0   0   0   0   0   0   0   0
  0   3   3   3   3   4   3   3   3   5   8  11  16  23  29  40  52  64  76  92 134 171 185 198
207 204 211 213 206 203 198 192 189 180 176 183 181 168 160 162 163 172 177 164 155 154 148 146
159 175 170  66   0  16   0   0   0   0   0   0   0   0   0   0   0   0   0   0   0   0   0   0
  0   0   0   0
  0   0   0   0   0   0   0   0   0   0   0   0   0   0   0   0   0   0   0   0   0   0   0   0
  0   3   3   3   3   3   3   3   3   6  10  13  19  27  34  45  58  70  84 121 167 192 198 204
211 211 208 206 207 204 201 193 188 183 182 179 171 161 165 171 170 170 162 147 148 155 153 146
157 175 169  66   0  16   0   0   0   0   0   0   0   0   0   0   0   0   0   0   0   0   0   0
  0   0   0   0
  0   0   0   0   0   0   0   0   0   0   0   0   0   0   0   0   0   0   0   0   0   0   0   0
  0   3   3   3   3   3   3   3   4   8  11  16  22  29  38  49  62  75  97 154 188 195 201 206
209 210 205 206 204 207 210 200 194 193 189 184 175 175 177 170 161 164 155 149 152 153 156 156
156 169 167  66   0  16   0   0   0   0   0   0   0   0   0   0   0   0   0   0   0   0   0   0
  0   0   0   0
  0   0   0   0   0   0   0   0   0   0   0   0   0   0   0   0   0   0   0   0   0   0   0   0
  0   3   3   3   3   3   3   3   5   9  12  17  24  33  44  55  69  81 114 170 188 194 199 204
209 210 212 212 208 210 210 205 202 202 197 194 191 183 170 162 162 162 153 153 153 150 153 153
154 166 166  66   0  16   0   0   0   0   0   0   0   0   0   0   0   0   0   0   0   0   0   0
  0   0   0   0
  0   0   0   0   0   0   0   0   0   0   0   0   0   0   0   0   0   0   0   0   0   0   0   0
  0   2   3   3   3   3   3   3   7  10  15  19  27  37  49  60  76  90 140 183 193 199 205 210
211 209 212 211 212 206 205 203 204 201 196 193 188 177 173 173 168 158 156 158 155 149 150 149
155 167 162  65   0  15   0   0   0   0   0   0   0   0   0   0   0   0   0   0   0   0   0   0
  0   0   0   0
  0   0   0   0   0   0   0   0   0   0   0   0   0   0   0   0   0   0   0   0   0   0   0   0
  0   2   3   3   3   3   3   4   8  11  17  23  31  43  54  67  83  98 158 193 201 207 211 217
211 208 210 208 205 205 208 208 207 199 198 195 194 189 188 184 172 166 166 160 157 156 153 149
150 161 161  64   0  15   0   0   0   0   0   0   0   0   0   0   0   0   0   0   0   0   0   0
  0   0   0   0
  0   0   0   0   0   0   0   0   0   0   0   0   0   0   0   0   0   0   0   0   0   0   0   0
  0   2   3   3   3   3   3   5   9  13  18  25  36  51  67  81  97 121 172 199 202 209 214 215
216 215 209 204 200 205 205 204 206 206 206 205 201 194 188 180 180 177 175 166 157 158 152 147
151 162 162  65   0  15   0   0   0   0   0   0   0   0   0   0   0   0   0   0   0   0   0   0
  0   0   0   0
  0   0   0   0   0   0   0   0   0   0   0   0   0   0   0   0   0   0   0   0   0   0   0   0
  0   3   3   3   3   3   3   6  10  15  20  27  38  54  72  93 116 141 185 201 202 208 207 212
217 215 208 206 203 199 203 204 206 211 214 212 205 193 183 176 172 172 169 163 159 153 155 152
156 167 164  64   0  15   0   0   0   0   0   0   0   0   0   0   0   0   0   0   0   0   0   0
  0   0   0   0
  0   0   0   0   0   0   0   0   0   0   0   0   0   0   0   0   0   0   0   0   0   0   0   0
  0   3   3   3   3   3   4   8  11  16  22  30  42  57  73  93 119 159 195 205 202 198 201 212
211 206 210 213 207 205 208 210 214 219 216 208 204 187 175 170 169 164 156 158 162 157 156 152
152 163 163  65   0  15   0   0   0   0   0   0   0   0   0   0   0   0   0   0   0   0   0   0
  0   0   0   0
  0   0   0   0   0   0   0   0   0   0   0   0   0   0   0   0   0   0   0   0   0   0   0   0
  0   3   3   3   3   3   5   9  12  17  24  34  48  64  80  97 143 192 209 205 194 193 197 205
210 209 215 218 217 215 211 211 214 217 209 205 199 185 178 174 163 157 162 166 158 149 146 147
151 161 159  63   0  14   0   0   0   0   0   0   0   0   0   0   0   0   0   0   0   0   0   0
  0   0   0   0
  0   0   0   0   0   0   0   0   0   0   0   0   0   0   0   0   0   0   0   0   0   0   0   0
  0   3   3   3   4   3   6  10  13  20  26  37  50  68  77 124 189 208 208 201 198 196 192 204
209 214 222 221 216 214 212 209 211 206 201 205 198 192 182 169 157 164 170 163 152 146 146 146
151 162 157  64   0  14   0   0   0   0   0   0   0   0   0   0   0   0   0   0   0   0   0   0
  0   0   0   0
  0   0   0   0   0   0   0   0   0   0   0   0   0   0   0   0   0   0   0   0   0   0   0   0
  0   3   3   3   4   4   7  11  15  21  29  42  56  68  83 154 200 202 201 205 206 202 206 212
217 216 218 218 211 204 208 216 217 209 200 200 204 197 177 162 163 167 158 146 149 146 146 145
154 163 160  65   0  15   0   0   0   0   0   0   0   0   0   0   0   0   0   0   0   0   0   0
  0   0   0   0
  0   0   0   0   0   0   0   0   0   0   0   0   0   0   0   0   0   0   0   0   0   0   0   0
  0   3   3   3   4   5   8  12  16  23  31  45  62  73 113 177 199 203 204 212 210 209 210 213
215 209 212 214 211 209 216 226 219 209 206 204 198 185 174 162 168 159 147 146 144 148 148 148
154 163 161  63   0  15   0   0   0   0   0   0   0   0   0   0   0   0   0   0   0   0   0   0
  0   0   0   0
  0   0   0   0   0   0   0   0   0   0   0   0   0   0   0   0   0   0   0   0   0   0   0   0
  0   3   3   3   4   6  10  13  18  25  33  46  64  83 144 186 196 205 207 210 211 209 206 208
204 202 209 212 220 223 223 220 212 210 211 202 189 179 170 159 160 149 144 146 147 147 147 148
148 162 164  64   0  15   0   0   0   0   0   0   0   0   0   0   0   0   0   0   0   0   0   0
  0   0   0   0
  0   0   0   0   0   0   0   0   0   0   0   0   0   0   0   0   0   0   0   0   0   0   0   0
  0   3   3   3   3   7  11  13  19  28  37  52  63  97 164 186 193 202 205 201 211 211 206 208
206 208 211 211 221 223 221 215 215 216 212 199 187 178 167 158 158 150 144 143 149 151 150 149
148 157 162  67   0  15   0   0   0   0   0   0   0   0   0   0   0   0   0   0   0   0   0   0
  0   0   0   0
  0   0   0   0   0   0   0   0   0   0   0   0   0   0   0   0   0   0   0   0   0   0   0   0
  0   3   3   3   3   7  11  14  19  28  39  57  70 127 174 188 198 200 197 199 214 209 211 216
212 217 217 218 221 222 222 219 216 216 212 201 183 178 169 159 157 151 146 151 152 154 154 155
154 160 160  63   0  15   0   0   0   0   0   0   0   0   0   0   0   0   0   0   0   0   0   0
  0   0   0   0
  0   0   0   0   0   0   0   0   0   0   0   0   0   0   0   0   0   0   0   0   0   0   0   0
  0   3   3   3   4   8  13  17  22  31  46  56  94 152 177 187 192 199 199 201 216 210 212 211
213 216 217 221 219 218 220 219 217 217 208 195 183 181 171 162 156 152 154 152 155 154 151 150
154 164 157  61   0  14   0   0   0   0   0   0   0   0   0   0   0   0   0   0   0   0   0   0
  0   0   0   0
  0   0   0   0   0   0   0   0   0   0   0   0   0   0   0   0   0   0   0   0   0   0   0   0
  0   3   3   3   4   9  13  17  26  36  48  61 125 166 174 182 184 198 206 214 219 215 215 212
212 212 210 211 210 214 220 220 218 213 198 190 191 184 173 160 153 162 156 147 152 156 152 157
163 167 159  64   0  15   0   0   0   0   0   0   0   0   0   0   0   0   0   0   0   0   0   0
  0   0   0   0
  0   0   0   0   0   0   0   0   0   0   0   0   0   0   0   0   0   0   0   0   0   0   0   0
  0   3   3   3   5  10  13  16  27  41  51  94 146 172 174 183 188 201 215 220 217 212 209 207
206 210 208 213 217 219 219 218 220 214 200 194 188 177 165 148 147 157 152 149 153 163 163 164
165 169 160  61   0  14   0   0   0   0   0   0   0   0   0   0   0   0   0   0   0   0   0   0
  0   0   0   0
  0   0   0   0   0   0   0   0   0   0   0   0   0   0   0   0   0   0   0   0   0   0   0   0
  0   3   3   3   5  11  13  17  26  42  75 125 154 168 178 193 203 216 221 218 218 213 209 205
205 214 217 221 224 221 219 221 220 212 199 187 174 164 153 144 144 147 147 148 159 168 166 166
168 167 162  63   0  15   0   0   0   0   0   0   0   0   0   0   0   0   0   0   0   0   0   0
  0   0   0   0
  0   0   0   0   0   0   0   0   0   0   0   0   0   0   0   0   0   0   0   0   0   0   0   0
  0   3   4   3   5  11  14  17  23  49  91 131 145 149 171 196 210 220 218 215 217 214 214 211
209 219 222 221 224 220 222 218 215 212 202 190 176 164 160 159 153 153 154 161 170 165 162 165
162 166 166  64   0  15   0   0   0   0   0   0   0   0   0   0   0   0   0   0   0   0   0   0
  0   0   0   0
  0   0   0   0   0   0   0   0   0   0   0   0   0   0   0   0   0   0   0   0   0   0   0   0
  0   3   4   3   5  11  15  17  20  56 100 125 144 155 169 191 209 217 217 212 215 216 215 212
214 223 224 225 224 223 223 218 219 214 208 197 188 186 180 176 176 178 176 185 177 163 158 154
155 168 162  61   0  14   0   0   0   0   0   0   0   0   0   0   0   0   0   0   0   0   0   0
  0   0   0   0
  0   0   0   0   0   0   0   0   0   0   0   0   0   0   0   0   0   0   0   0   0   0   0   0
  0   3   4   3   5  12  18  17  20  69 110 127 147 171 190 206 212 213 215 212 209 210 212 213
216 219 224 226 226 227 224 226 223 214 210 203 198 195 188 181 179 180 183 186 171 162 162 160
162 167 164  67   0  16   0   0   0   0   0   0   0   0   0   0   0   0   0   0   0   0   0   0
  0   0   0   0
  0   0   0   0   0   0   0   0   0   0   0   0   0   0   0   0   0   0   0   0   0   0   0   0
  0   3   4   4   5  11  22  27  39  79 111 129 153 177 198 212 210 207 210 206 206 211 216 220
218 219 223 222 221 224 225 227 222 217 214 211 204 193 188 183 180 181 179 174 170 168 172 170
165 174 169  64   0  15   0   0   0   0   0   0   0   0   0   0   0   0   0   0   0   0   0   0
  0   0   0   0
  0   0   0   0   0   0   0   0   0   0   0   0   0   0   0   0   0   0   0   0   0   0   0   0
  0   3   4   3   5   9  22  36  52  74  95 127 155 175 193 204 204 200 204 206 210 212 218 225
223 220 222 225 224 226 227 225 222 217 215 216 203 192 190 188 185 184 176 174 169 164 162 160
169 174 161  63   0  14   0   0   0   0   0   0   0   0   0   0   0   0   0   0   0   0   0   0
  0   0   0   0
  0   0   0   0   0   0   0   0   0   0   0   0   0   0   0   0   0   0   0   0   0   0   0   0
  0   3   4   3   4  10  16  35  61  80  93 122 145 174 192 197 196 202 212 211 211 213 220 226
224 222 224 223 226 226 223 216 215 213 211 210 201 201 202 195 193 188 177 173 166 163 166 164
167 171 165  64   0  15   0   0   0   0   0   0   0   0   0   0   0   0   0   0   0   0   0   0
  0   0   0   0
  0   0   0   0   0   0   0   0   0   0   0   0   0   0   0   0   0   0   0   0   0   0   0   0
  0   3   4   4   4   9  14  34  68  88  92 110 132 169 197 195 188 208 216 210 210 217 219 216
219 222 223 225 225 220 209 207 214 212 207 205 203 202 200 198 190 182 179 178 174 170 166 162
164 171 163  60   0  14   0   0   0   0   0   0   0   0   0   0   0   0   0   0   0   0   0   0
  0   0   0   0
  0   0   0   0   0   0   0   0   0   0   0   0   0   0   0   0   0   0   0   0   0   0   0   0
  0   3   4   4   4   7  14  31  55  87 103 120 148 169 195 193 193 203 211 209 213 219 217 212
218 224 225 228 223 210 204 209 212 208 206 205 207 204 192 193 189 178 175 178 173 162 158 162
166 167 157  61   0  14   0   0   0   0   0   0   0   0   0   0   0   0   0   0   0   0   0   0
  0   0   0   0
  0   0   0   0   0   0   0   0   0   0   0   0   0   0   0   0   0   0   0   0   0   0   0   0
  0   3   4   4   5   7  12  26  41  67 106 132 156 167 180 188 187 193 204 208 213 216 212 214
222 223 224 224 220 209 208 210 205 202 201 200 207 213 208 200 190 186 177 171 164 156 158 168
172 167 159  64   0  14   0   0   0   0   0   0   0   0   0   0   0   0   0   0   0   0   0   0
  0   0   0   0
  0   0   0   0   0   0   0   0   0   0   0   0   0   0   0   0   0   0   0   0   0   0   0   0
  0   3   4   5   6   8  10  22  39  49  81 108 142 158 160 176 189 200 201 204 213 210 203 210
214 211 214 216 213 208 209 206 202 202 206 201 208 217 216 204 190 187 181 179 172 165 173 171
160 161 154  61   0  13   0   0   0   0   0   0   0   0   0   0   0   0   0   0   0   0   0   0
  0   0   0   0
  0   0   0   0   0   0   0   0   0   0   0   0   0   0   0   0   0   0   0   0   0   0   0   0
  0   3   4   5   7   8  10  17  35  52  71 106 145 164 160 177 196 194 191 202 211 202 204 210
203 204 212 212 206 205 208 208 203 205 215 215 214 212 211 200 192 190 186 183 176 170 168 154
151 157 151  58   0  13   0   0   0   0   0   0   0   0   0   0   0   0   0   0   0   0   0   0
  0   0   0   0
  0   0   0   0   0   0   0   0   0   0   0   0   0   0   0   0   0   0   0   0   0   0   0   0
  0   3   4   5   7   8   9  12  26  49  70  93 122 145 157 172 185 192 200 203 205 200 208 213
211 218 221 210 203 204 208 214 214 217 223 225 218 213 211 205 198 186 187 186 172 166 164 158
156 161 158  62   0  14   0   0   0   0   0   0   0   0   0   0   0   0   0   0   0   0   0   0
  0   0   0   0
  0   0   0   0   0   0   0   0   0   0   0   0   0   0   0   0   0   0   0   0   0   0   0   0
  0   3   4   4   6   8   8  10  17  33  48  66  87 114 146 169 186 199 204 203 205 209 215 219
223 222 213 206 205 205 210 216 216 217 222 220 217 216 209 200 189 180 187 183 170 171 172 168
168 176 164  59   0  14   0   0   0   0   0   0   0   0   0   0   0   0   0   0   0   0   0   0
  0   0   0   0
  0   0   0   0   0   0   0   0   0   0   0   0   0   0   0   0   0   0   0   0   0   0   0   0
  0   3   4   4   6   7   7   8  12  20  33  47  63  79 114 151 179 197 204 206 208 213 220 226
220 208 205 203 204 212 214 209 211 211 208 206 212 214 198 186 184 190 190 176 175 170 162 163
173 172 154  57   0  13   0   0   0   0   0   0   0   0   0   0   0   0   0   0   0   0   0   0
  0   0   0   0
  0   0   0   0   0   0   0   0   0   0   0   0   0   0   0   0   0   0   0   0   0   0   0   0
  0   3   4   4   4   5   6   6   7   9  27  38  44  60  95 130 162 190 194 197 199 206 212 216
213 210 205 201 205 208 209 213 215 212 207 208 214 213 197 189 192 195 183 176 172 161 155 162
170 162 155  63   0  14   0   0   0   0   0   0   0   0   0   0   0   0   0   0   0   0   0   0
  0   0   0   0
  0   0   0   0   0   0   0   0   0   0   0   0   0   0   0   0   0   0   0   0   0   0   0   0
  0   3   4   4   4   4   5   5   5   4  16  29  49  76  97 136 152 162 167 166 178 194 205 207
210 211 206 212 218 218 213 216 218 218 216 215 217 213 200 194 196 194 173 166 166 162 156 160
160 158 158  66   0  15   0   0   0   0   0   0   0   0   0   0   0   0   0   0   0   0   0   0
  0   0   0   0
  0   0   0   0   0   0   0   0   0   0   0   0   0   0   0   0   0   0   0   0   0   0   0   0
  0   4   4   4   4   4   4   4   4   4   8  20  37  71  76 100 130 141 145 144 173 198 210 212
207 199 201 217 224 220 212 218 221 219 220 214 212 208 198 199 195 183 166 153 157 160 156 155
151 155 150  56   0  12   0   0   0   0   0   0   0   0   0   0   0   0   0   0   0   0   0   0
  0   0   0   0
  0   0   0   0   0   0   0   0   0   0   0   0   0   0   0   0   0   0   0   0   0   0   0   0
  0   4   4   4   5   4   4   4   4   4   4  15  18  35  61  77 108 133 147 154 175 195 203 211
206 202 209 218 220 213 210 217 218 214 213 202 201 205 197 200 185 160 149 149 157 152 152 149
145 145 133  48   0  10   0   0   0   0   0   0   0   0   0   0   0   0   0   0   0   0   0   0
  0   0   0   0
  0   0   0   0   0   0   0   0   0   0   0   0   0   0   0   0   0   0   0   0   0   0   0   0
  0   4   4   4   5   5   4   4   4   4   4   7  15  14  32  54  77 108 126 142 159 168 191 207
205 212 219 213 207 205 208 210 211 207 200 195 198 198 200 188 161 150 140 142 147 144 144 141
135 130 122  49   0   9   0   0   0   0   0   0   0   0   0   0   0   0   0   0   0   0   0   0
  0   0   0   0
  0   0   0   0   0   0   0   0   0   0   0   0   0   0   0   0   0   0   0   0   0   0   0   0
  0   4   5   4   5   4   4   4   4   4   4   4  10  18  17  27  47  69  85 122 154 147 170 205
210 209 211 203 201 205 205 202 203 201 194 198 197 196 199 171 150 143 136 138 141 137 129 129
127 123 125  48   0   9   0   0   0   0   0   0   0   0   0   0   0   0   0   0   0   0   0   0
  0   0   0   0
  0   0   0   0   0   0   0   0   0   0   0   0   0   0   0   0   0   0   0   0   0   0   0   0
  0   4   5   5   5   4   4   4   4   4   4   4   5  12  16  20  31  42  62  84 128 148 161 184
197 205 206 205 206 210 203 189 190 200 200 194 197 200 192 163 148 139 133 139 141 125 119 128
130 131 119  41   0   7   0   0   0   0   0   0   0   0   0   0   0   0   0   0   0   0   0   0
  0   0   0   0
  0   0   0   0   0   0   0   0   0   0   0   0   0   0   0   0   0   0   0   0   0   0   0   0
  0   4   5   4   5   4   4   4   4   4   4   4   4   7  11  14  18  25  41  52  88 140 156 159
171 187 197 199 198 194 182 180 181 190 192 184 193 195 171 151 135 131 127 135 131 121 121 120
125 116  98  35   0   5   0   0   0   0   0   0   0   0   0   0   0   0   0   0   0   0   0   0
  0   0   0   0
  0   0   0   0   0   0   0   0   0   0   0   0   0   0   0   0   0   0   0   0   0   0   0   0
  0   4   5   5   5   4   4   4   4   4   4   4   4   4   8  11  14  18  21  31  39  84 119 140
161 169 177 180 183 177 169 166 165 169 180 186 188 175 147 138 124 119 120 130 132 130 117 107
109  99  86  32   0   4   0   0   0   0   0   0   0   0   0   0   0   0   0   0   0   0   0   0
  0   0   0   0
  0   0   0   0   0   0   0   0   0   0   0   0   0   0   0   0   0   0   0   0   0   0   0   0
  0   4   5   5   5   5   4   4   4   4   4   4   4   4   5   9  11  14  19  25  30  32  64 100
126 148 163 173 174 171 168 160 155 154 173 184 174 149 130 128 113 107 108 116 119 109 102  99
100  95 100  55   0   8   0   0   0   0   0   0   0   0   0   0   0   0   0   0   0   0   0   0
  0   0   0   0
  0   0   0   0   0   0   0   0   0   0   0   0   0   0   0   0   0   0   0   0   0   0   0   0
  0   4   5   5   5   5   5   5   4   4   5   5   4   4   4   5   9  12  14  18  22  29  31  48
 70  92 122 150 160 153 144 145 137 149 169 160 139 125 120 109  97  97 100  99  92  85  90  94
 89  81 123  73   0  13   0   0   0   0   0   0   0   0   0   0   0   0   0   0   0   0   0   0
  0   0   0   0
  0   0   0   0   0   0   0   0   0   0   0   0   0   0   0   0   0   0   0   0   0   0   0   0
  0   4   5   5   5   5   5   5   4   4   4   4   4   4   4   4   5   9  11  13  16  20  28  34
 40  52  71  94 112 127 134 138 144 152 142 122 108 100  90  82  81  78  81  80  76  75  84  80
 71  80 137  71   0  14   0   0   0   0   0   0   0   0   0   0   0   0   0   0   0   0   0   0
  0   0   0   0
  0   0   0   0   0   0   0   0   0   0   0   0   0   0   0   0   0   0   0   0   0   0   0   0
  0   4   5   5   5   5   4   4   4   4   4   4   4   4   4   4   4   5   9  11  12  15  19  24
 30  35  40  49  60  74 100 120 130 135 120  96  84  79  71  65  64  64  68  68  67  74  70  63
 48  90 145  64   0  13   0   0   0   0   0   0   0   0   0   0   0   0   0   0   0   0   0   0
  0   0   0   0
  0   0   0   0   0   0   0   0   0   0   0   0   0   0   0   0   0   0   0   0   0   0   0   0
  0   4   4   4   5   4   4   4   4   4   4   4   4   4   4   4   4   4   5   8  10  12  14  17
 21  27  33  39  46  45  51  68  82  95  97  76  64  63  60  56  55  57  58  58  61  64  57  57
 34  99 146  61   0  13   0   0   0   0   0   0   0   0   0   0   0   0   0   0   0   0   0   0
  0   0   0   0
  0   0   0   0   0   0   0   0   0   0   0   0   0   0   0   0   0   0   0   0   0   0   0   0
  0   4   4   4   4   4   4   4   4   4   4   4   4   4   4   4   4   4   4   5   8  10  11  14
 16  20  23  29  33  38  45  48  48  50  57  63  56  51  50  48  48  50  50  49  51  53  49  48
 19 105 143  57   0  12   0   0   0   0   0   0   0   0   0   0   0   0   0   0   0   0   0   0
  0   0   0   0
  0   0   0   0   0   0   0   0   0   0   0   0   0   0   0   0   0   0   0   0   0   0   0   0
  0   4   5   4   5   5   4   4   4   4   4   4   4   4   4   4   4   4   4   4   5   7   9  11
 12  14  17  20  24  28  32  35  38  42  39  47  50  47  44  42  41  42  44  42  46  45  40  38
  7 112 144  54   0  12   0   0   0   0   0   0   0   0   0   0   0   0   0   0   0   0   0   0
  0   0   0   0
  0   0   0   0   0   0   0   0   0   0   0   0   0   0   0   0   0   0   0   0   0   0   0   0
  0   4   5   5   5   5   4   4   4   4   4   4   4   4   4   4   4   4   5   5   4   4   6   9
 10  11  13  15  18  19  22  26  28  31  32  34  37  39  40  40  36  38  38  39  38  34  34  27
 18 119 142  55   0  12   0   0   0   0   0   0   0   0   0   0   0   0   0   0   0   0   0   0
  0   0   0   0
  0   0   0   0   0   0   0   0   0   0   0   0   0   0   0   0   0   0   0   0   0   0   0   0
  0   4   5   5   5   5   5   5   4   4   4   5   5   5   4   4   4   4   5   5   5   5   4   5
  8   9  10  12  13  14  17  16  29  31  24  27  27  27  30  32  31  30  31  30  27  24  28  14
 30 122 141  54   0  11   0   0   0   0   0   0   0   0   0   0   0   0   0   0   0   0   0   0
  0   0   0   0
  0   0   0   0   0   0   0   0   0   0   0   0   0   0   0   0   0   0   0   0   0   0   0   0
  0   4   5   5   5   5   5   5   5   5   5   5   5   5   5   5   5   6   6   5   5   5   5   5
  5   7   8  10  10  11  13  12  24  24  16  20  21  22  22  21  21  21  22  21  22  20  24   5
 39 120 135  51   0  10   0   0   0   0   0   0   0   0   0   0   0   0   0   0   0   0   0   0
  0   0   0   0
  0   0   0   0   0   0   0   0   0   0   0   0   0   0   0   0   0   0   0   0   0   0   0   0
  0   4   6   5   6   5   5   5   5   5   5   5   5   5   5   5   8   8   5   5   5   5   5   5
  5   5   6   7   8   9  10  11  10  11  15  15  16  17  17  18  18  18  17  18  18  17  21   1
 42 114 131  52   0  10   0   0   0   0   0   0   0   0   0   0   0   0   0   0   0   0   0   0
  0   0   0   0
  0   0   0   0   0   0   0   0   0   0   0   0   0   0   0   0   0   0   0   0   0   0   0   0
  0   5   6   6   6   6   5   5   5   5   5   5   5   5   5   5   6   5   5   5   6   5   5   5
  6   5   6   5   6   7   8  10  11  11  12  13  13  14  14  14  14  14  15  14  14  14  19   0
 44 109 122  46   0   8   0   0   0   0   0   0   0   0   0   0   0   0   0   0   0   0   0   0
  0   0   0   0
  0   0   0   0   0   0   0   0   0   0   0   0   0   0   0   0   0   0   0   0   0   0   0   0
  0   5   6   6   6   6   6   6   6   5   6   6   6   6   6   6   5   5   6   6   6   6   6   6
  6   6   6   6   6   5   6  10   8   8   9   9  10  11  10  11  11  11  11  11  11  12  15   0
 47  93  99  38   0   6   0   0   0   0   1   1   1   1   1   1   1   1   1   1   1   1   1   1
  1   1   1   1
  0   0   0   0   0   0   0   0   0   0   0   0   0   0   0   0   0   0   0   0   0   0   0   0
  0   5   7   6   7   6   6   6   6   6   6   6   6   6   6   6   6   6   6   6   6   6   6   6
  6   6   6   6   6   6   6   5   6   7   8   8   9   9   9  10  10  10  10  10  10  11  13   1
 46  76  86  36   0   4   0   0   0   0   0   0   0   0   0   0   0   0   0   0   0   0   0   0
  0   0   0   0
  0   0   0   0   0   0   0   0   0   0   0   0   0   0   0   0   0   0   0   0   0   0   0   0
  0   6   7   7   7   7   6   6   6   6   6   7   7   6   6   6   6   6   6   6   6   6   6   6
  6   6   6   6   6   8  10   5   6   6   6   6   7   7   8   8   8   9   9   9   9   9  10   6
 37  60  72  31   0   3   0   0   0   0   0   0   0   0   0   0   0   0   0   0   0   0   0   0
  0   0   0   0
  0   0   0   0   0   0   0   0   0   0   0   0   0   0   0   0   0   0   0   0   0   0   0   0
  0   6   7   7   7   7   7   7   7   7   7   7   7   7   7   7   7   7   7   7   7   7   6   6
  7   6   7   6   6   7   7   6   6   6   6   6   6   6   6   6   6   7   7   8   8   8   8   9
 27  46  58  25   0   2   0   0   0   0   0   0   0   0   0   0   0   0   0   0   0   0   0   0
  0   0   0   0
