P2
# 8-bit pgm gray
100 100
255
  0   0   0   0   0   0   0   0   0   0   0   0   0   0   0   0   0   0   0   0   0   0   0   0
  0   0   0   2  14   0 130 180 178 183 184 184 182 181 185 185 183 186 186 187 188 187 184 181
177 169 159 141 112  96  90  85  74  63  51  40  32  24  18  13  10  10  10  10  11   5   0   0
  0   0   0   0   0   0   0   0   0   0   0   0   0   0   0   0   0   0   0   0   0   0   0   0
  0   0   0   0
  0   0   0   0   0   0   0   0   0   0   0   0   0   0   0   0   0   0   0   0   0   0   0   0
  0   0   0   2  15   0 130 184 181 184 183 183 183 182 184 184 182 182 184 185 186 187 183 181
175 170 156 123  97  89  93  83  67  57  47  38  29  20  16  11   9  10   9  10  10   5   0   0
  0   0   0   0   0   0   0   0   0   0   0   0   0   0   0   0   0   0   0   0   0   0   0   0
  0   0   0   0
  0   0   0   0   0   0   0   0   0   0   0   0   0   0   0   0   0   0   0   0   0   0   0   0
  0   0   0   2  16   0 131 187 182 184 182 181 182 185 183 184 183 183 183 182 185 184 178 175
169 162 137 107  99  93  89  71  62  52  42  33  25  18  14  10   9   9   9   9  10   5   0   0
  0   0   0   0   0   0   0   0   0   0   0   0   0   0   0   0   0   0   0   0   0   0   0   0
  0   0   0   0
  0   0   0   0   0   0   0   0   0   0   0   0   0   0   0   0   0   0   0   0   0   0   0   0
  0   0   0   2  16   0 132 186 182 185 183 182 183 184 182 181 182 182 181 181 185 183 177 171
164 145 112  98  98  95  78  63  53  45  37  28  21  16  12   9   9   9   9   9  10   5   0   0
  0   0   0   0   0   0   0   0   0   0   0   0   0   0   0   0   0   0   0   0   0   0   0   0
  0   0   0   0
  0   0   0   0   0   0   0   0   0   0   0   0   0   0   0   0   0   0   0   0   0   0   0   0
  0   0   0   2  16   0 134 189 185 186 182 183 184 183 183 182 182 181 181 181 180 181 174 168
156 125  97  93  89  80  66  61  49  37  30  24  18  14  10   9   9   9   9   9   9   5   0   0
  0   0   0   0   0   0   0   0   0   0   0   0   0   0   0   0   0   0   0   0   0   0   0   0
  0   0   0   0
  0   0   0   0   0   0   0   0   0   0   0   0   0   0   0   0   0   0   0   0   0   0   0   0
  0   0   0   2  16   0 135 191 185 184 183 183 183 182 181 185 184 181 182 181 179 180 174 163
141 104  92  86  80  78  61  52  46  34  25  20  16  12   8   9   9   8   8   8   9   5   0   0
  0   0   0   0   0   0   0   0   0   0   0   0   0   0   0   0   0   0   0   0   0   0   0   0
  0   0   0   0
  0   0   0   0   0   0   0   0   0   0   0   0   0   0   0   0   0   0   0   0   0   0   0   0
  0   0   0   2  16   0 135 191 184 183 185 183 181 180 181 184 179 178 179 179 177 174 171 159
125  99  94  87  79  74  66  50  37  29  21  16  13   9   8   8   8   8   8   8   9   4   0   0
  0   0   0   0   0   0   0   0   0   0   0   0   0   0   0   0   0   0   0   0   0   0   0   0
  0   0   0   0
  0   0   0   0   0   0   0   0   0   0   0   0   0   0   0   0   0   0   0   0   0   0   0   0
  0   0   0   2  17   0 137 194 185 187 188 183 181 181 183 186 181 178 178 177 174 168 163 145
108 100 101  92  78  71  62  50  35  23  18  14  10   8   9   8   8   8   8   8   9   4   0   0
  0   0   0   0   0   0   0   0   0   0   0   0   0   0   0   0   0   0   0   0   0   0   0   0
  0   0   0   0
  0   0   0   0   0   0   0   0   0   0   0   0   0   0   0   0   0   0   0   0   0   0   0   0
  0   0   0   2  17   0 138 194 185 187 187 182 181 182 186 183 179 179 177 175 173 167 153 124
103 102  99  83  71  62  51  43  35  24  16  12   8   8   8   8   8   8   8   8   8   4   0   0
  0   0   0   0   0   0   0   0   0   0   0   0   0   0   0   0   0   0   0   0   0   0   0   0
  0   0   0   0
  0   0   0   0   0   0   0   0   0   0   0   0   0   0   0   0   0   0   0   0   0   0   0   0
  0   0   0   1  18   0 136 194 187 187 183 180 182 183 184 178 176 176 175 174 168 160 135 114
110 100  97  84  74  61  49  39  30  27  16   8   8   8   8   8   8   8   8   7   8   4   0   0
  0   0   0   0   0   0   0   0   0   0   0   0   0   0   0   0   0   0   0   0   0   0   0   0
  0   0   0   0
  0   0   0   0   0   0   0   0   0   0   0   0   0   0   0   0   0   0   0   0   0   0   0   0
  0   0   0   1  18   0 136 192 185 184 181 184 184 184 180 178 175 175 174 172 163 146 113 105
107 101  93  85  76  64  49  37  29  25  14   6   8   8   7   7   7   7   7   7   8   4   0   0
  0   0   0   0   0   0   0   0   0   0   0   0   0   0   0   0   0   0   0   0   0   0   0   0
  0   0   0   0
  0   0   0   0   0   0   0   0   0   0   0   0   0   0   0   0   0   0   0   0   0   0   0   0
  0   0   0   1  18   0 135 190 180 181 183 181 179 179 178 176 176 175 174 166 152 123 101 102
103 104  92  88  79  67  52  37  29  21  12   7   8   8   7   7   7   7   7   7   8   4   0   0
  0   0   0   0   0   0   0   0   0   0   0   0   0   0   0   0   0   0   0   0   0   0   0   0
  0   0   0   0
  0   0   0   0   0   0   0   0   0   0   0   0   0   0   0   0   0   0   0   0   0   0   0   0
  0   0   0   1  17   0 134 191 184 183 182 178 179 178 177 174 177 175 170 161 139 108 104 101
104 109 105  94  80  65  53  41  28  20  12   7   8   8   8   7   7   7   7   7   7   4   0   0
  0   0   0   0   0   0   0   0   0   0   0   0   0   0   0   0   0   0   0   0   0   0   0   0
  0   0   0   0
  0   0   0   0   0   0   0   0   0   0   0   0   0   0   0   0   0   0   0   0   0   0   0   0
  0   0   0   2  16   0 136 189 182 182 179 177 180 180 177 177 178 175 169 158 128 109 110 107
110 111 105  91  81  69  54  41  30  21  14   7   7   7   7   7   7   7   7   7   7   4   0   0
  0   0   0   0   0   0   0   0   0   0   0   0   0   0   0   0   0   0   0   0   0   0   0   0
  0   0   0   0
  0   0   0   0   0   0   0   0   0   0   0   0   0   0   0   0   0   0   0   0   0   0   0   0
  0   0   0   2  16   0 136 188 181 179 175 175 178 180 176 177 178 176 167 149 117 108 109 106
104 102  97  91  79  70  56  42  30  21  16   8   7   7   7   7   7   7   7   6   7   4   0   0
  0   0   0   0   0   0   0   0   0   0   0   0   0   0   0   0   0   0   0   0   0   0   0   0
  0   0   0   0
  0   0   0   0   0   0   0   0   0   0   0   0   0   0   0   0   0   0   0   0   0   0   0   0
  0   0   0   2  15   0 131 183 181 178 173 178 177 179 177 177 178 170 158 133 108 105 105 102
100  95  90  87  83  72  58  46  32  22  17  11   7   7   7   7   7   7   6   6   7   4   0   0
  0   0   0   0   0   0   0   0   0   0   0   0   0   0   0   0   0   0   0   0   0   0   0   0
  0   0   0   0
  0   0   0   0   0   0   0   0   0   0   0   0   0   0   0   0   0   0   0   0   0   0   0   0
  0   0   0   1  16   0 130 187 182 180 181 180 178 180 177 178 175 163 147 120 111 109 109 105
 92  89  88  84  94  80  60  50  37  25  17  13   7   7   7   7   6   6   6   6   7   4   0   0
  0   0   0   0   0   0   0   0   0   0   0   0   0   0   0   0   0   0   0   0   0   0   0   0
  0   0   0   0
  0   0   0   0   0   0   0   0   0   0   0   0   0   0   0   0   0   0   0   0   0   0   0   0
  0   0   0   1  17   0 130 189 184 184 187 186 188 182 177 177 171 159 136 122 113 107 103 102
 98  92  89  91  98  83  66  51  41  29  21  15  10   7   7   7   7   7   7   6   7   4   0   0
  0   0   0   0   0   0   0   0   0   0   0   0   0   0   0   0   0   0   0   0   0   0   0   0
  0   0   0   0
  0   0   0   0   0   0   0   0   0   0   0   0   0   0   0   0   0   0   0   0   0   0   0   0
  0   0   0   1  17   0 127 183 176 174 181 188 193 187 175 168 165 152 131 124 108 105 101 101
104 100  95  96  93  84  71  57  44  32  23  17  13   7   6   7   6   7   7   6   7   4   0   0
  0   0   0   0   0   0   0   0   0   0   0   0   0   0   0   0   0   0   0   0   0   0   0   0
  0   0   0   0
  0   0   0   0   0   0   0   0   0   0   0   0   0   0   0   0   0   0   0   0   0   0   0   0
  0   0   0   1  17   0 133 185 174 176 186 187 185 186 178 166 154 139 124 125 113 105 111 119
118 110 107 108 101  87  74  64  53  41  27  20  15  10   6   7   7   7   6   6   7   4   0   0
  0   0   0   0   0   0   0   0   0   0   0   0   0   0   0   0   0   0   0   0   0   0   0   0
  0   0   0   0
  0   0   0   0   0   0   0   0   0   0   0   0   0   0   0   0   0   0   0   0   0   0   0   0
  0   0   0   1  19   0 139 196 180 182 186 185 181 178 170 163 152 134 131 136 119 114 116 116
120 128 130 115 110  92  79  66  56  48  37  24  17  13   7   6   6   6   6   6   7   3   0   0
  0   0   0   0   0   0   0   0   0   0   0   0   0   0   0   0   0   0   0   0   0   0   0   0
  0   0   0   0
  0   0   0   0   0   0   0   0   0   0   0   0   0   0   0   0   0   0   0   0   0   0   0   0
  0   0   0   1  18   0 134 195 184 180 183 182 178 172 166 156 140 125 137 142 128 126 117 114
118 127 126 113 112  94  78  67  57  49  40  30  21  15  10   6   6   6   6   6   7   3   0   0
  0   0   0   0   0   0   0   0   0   0   0   0   0   0   0   0   0   0   0   0   0   0   0   0
  0   0   0   0
  0   0   0   0   0   0   0   0   0   0   0   0   0   0   0   0   0   0   0   0   0   0   0   0
  0   0   0   1  17   0 131 187 184 186 185 178 173 166 159 152 136 126 135 141 144 145 139 133
125 123 117 116 124 101  78  71  61  53  43  33  25  18  13   7   6   6   6   6   7   3   0   0
  0   0   0   0   0   0   0   0   0   0   0   0   0   0   0   0   0   0   0   0   0   0   0   0
  0   0   0   0
  0   0   0   0   0   0   0   0   0   0   0   0   0   0   0   0   0   0   0   0   0   0   0   0
  0   0   0   1  17   0 131 184 182 187 182 177 172 165 155 147 140 139 142 146 155 156 151 148
133 122 121 120 127 115  89  75  66  59  50  39  29  21  16  10   6   6   7   6   7   3   0   0
  0   0   0   0   0   0   0   0   0   0   0   0   0   0   0   0   0   0   0   0   0   0   0   0
  0   0   0   0
  0   0   0   0   0   0   0   0   0   0   0   0   0   0   0   0   0   0   0   0   0   0   0   0
  0   0   0   1  17   0 130 186 183 187 179 177 175 167 160 153 147 152 154 155 161 159 152 155
149 135 128 135 132 123 115  94  73  61  50  42  34  25  19  13   8   6   7   6   7   4   0   0
  0   0   0   0   0   0   0   0   0   0   0   0   0   0   0   0   0   0   0   0   0   0   0   0
  0   0   0   0
  0   0   0   0   0   0   0   0   0   0   0   0   0   0   0   0   0   0   0   0   0   0   0   0
  0   0   0   1  18   0 133 189 183 186 187 180 172 167 164 157 151 156 157 159 161 167 162 153
158 153 146 151 153 144 133 128 113  94  73  52  39  29  21  16  10   6   6   6   7   4   0   0
  0   0   0   0   0   0   0   0   0   0   0   0   0   0   0   0   0   0   0   0   0   0   0   0
  0   0   0   0
  0   0   0   0   0   0   0   0   0   0   0   0   0   0   0   0   0   0   0   0   0   0   0   0
  0   0   0   1  17   0 134 189 183 184 186 184 178 166 159 156 156 157 158 161 163 172 178 169
162 156 154 160 169 168 157 142 129 112  91  73  54  37  26  19  13   7   6   7   7   4   0   0
  0   0   0   0   0   0   0   0   0   0   0   0   0   0   0   0   0   0   0   0   0   0   0   0
  0   0   0   0
  0   0   0   0   0   0   0   0   0   0   0   0   0   0   0   0   0   0   0   0   0   0   0   0
  0   0   0   1  17   0 134 191 185 186 183 184 184 176 169 165 165 166 167 169 177 184 190 191
183 166 161 174 176 172 174 157 136 120 102  79  58  45  32  22  16  10   6   7   7   4   0   0
  0   0   0   0   0   0   0   0   0   0   0   0   0   0   0   0   0   0   0   0   0   0   0   0
  0   0   0   0
  0   0   0   0   0   0   0   0   0   0   0   0   0   0   0   0   0   0   0   0   0   0   0   0
  0   0   0   1  17   0 132 188 186 188 185 183 180 177 176 168 164 169 172 174 179 184 187 189
193 185 177 188 192 188 188 181 161 143 127  99  60  46  35  25  18  13   7   6   7   4   0   0
  0   0   0   0   0   0   0   0   0   0   0   0   0   0   0   0   0   0   0   0   0   0   0   0
  0   0   0   0
  0   0   0   0   0   0   0   0   0   0   0   0   0   0   0   0   0   0   0   0   0   0   0   0
  0   0   0   1  17   0 132 188 183 183 181 180 173 166 162 165 167 170 172 174 178 183 182 179
181 185 186 191 196 199 196 194 183 165 149 127  91  52  38  32  21  15  10   6   7   4   0   0
  0   0   0   0   0   0   0   0   0   0   0   0   0   0   0   0   0   0   0   0   0   0   0   0
  0   0   0   0
  0   0   0   0   0   0   0   0   0   0   0   0   0   0   0   0   0   0   0   0   0   0   0   0
  0   0   0   1  16   0 129 184 177 176 176 172 168 164 158 167 178 178 176 176 179 182 181 180
182 185 189 195 198 198 195 196 194 182 168 152 128  96  49  34  26  17  12   6   6   3   0   0
  0   0   0   0   0   0   0   0   0   0   0   0   0   0   0   0   0   0   0   0   0   0   0   0
  0   0   0   0
  0   0   0   0   0   0   0   0   0   0   0   0   0   0   0   0   0   0   0   0   0   0   0   0
  0   0   0   1  15   0 127 179 176 175 172 165 162 160 164 177 186 188 185 183 183 185 187 189
190 195 196 195 197 196 194 192 191 188 177 167 148 114  70  38  29  20  13   7   6   3   0   0
  0   0   0   0   0   0   0   0   0   0   0   0   0   0   0   0   0   0   0   0   0   0   0   0
  0   0   0   0
  0   0   0   0   0   0   0   0   0   0   0   0   0   0   0   0   0   0   0   0   0   0   0   0
  0   0   0   1  14   0 123 175 172 173 172 167 163 161 166 178 185 187 187 190 190 189 188 188
189 195 196 191 189 186 189 191 188 187 184 175 150 116  87  53  30  23  15   9   6   3   0   0
  0   0   0   0   0   0   0   0   0   0   0   0   0   0   0   0   0   0   0   0   0   0   0   0
  0   0   0   0
  0   0   0   0   0   0   0   0   0   0   0   0   0   0   0   0   0   0   0   0   0   0   0   0
  0   0   0   1  15   0 127 178 169 172 173 170 165 163 168 175 180 183 185 190 191 191 191 190
186 188 188 188 186 182 185 189 190 186 184 178 156 129  98  65  36  26  18  11   6   3   0   0
  0   0   0   0   0   0   0   0   0   0   0   0   0   0   0   0   0   0   0   0   0   0   0   0
  0   0   0   0
  0   0   0   0   0   0   0   0   0   0   0   0   0   0   0   0   0   0   0   0   0   0   0   0
  0   0   0   1  19   0 139 195 179 176 174 167 164 167 172 176 179 183 185 187 189 191 192 191
185 185 186 185 187 184 184 187 189 189 184 181 168 144 114  75  38  27  19  13   7   3   0   0
  0   0   0   0   0   0   0   0   0   0   0   0   0   0   0   0   0   0   0   0   0   0   0   0
  0   0   0   0
  0   0   0   0   0   0   0   0   0   0   0   0   0   0   0   0   0   0   0   0   0   0   0   0
  0   0   0   1  18   0 135 194 189 183 178 171 168 173 177 179 181 183 186 185 186 187 184 185
185 185 186 186 188 186 186 188 189 190 188 183 176 160 131  94  46  27  21  14   8   3   0   0
  0   0   0   0   0   0   0   0   0   0   0   0   0   0   0   0   0   0   0   0   0   0   0   0
  0   0   0   0
  0   0   0   0   0   0   0   0   0   0   0   0   0   0   0   0   0   0   0   0   0   0   0   0
  0   0   0   2  17   0 134 189 191 188 178 177 175 177 179 182 184 186 189 189 188 188 186 184
185 187 188 189 189 188 188 189 191 192 192 190 181 169 145 111  67  28  25  16  10   3   0   0
  0   0   0   0   0   0   0   0   0   0   0   0   0   0   0   0   0   0   0   0   0   0   0   0
  0   0   0   0
  0   0   0   0   0   0   0   0   0   0   0   0   0   0   0   0   0   0   0   0   0   0   0   0
  0   0   0   1  18   0 137 193 188 190 180 179 182 177 172 176 181 187 190 193 195 194 193 191
190 191 194 197 195 191 188 189 190 193 195 194 189 179 159 127  92  45  27  20  10   3   0   0
  0   0   0   0   0   0   0   0   0   0   0   0   0   0   0   0   0   0   0   0   0   0   0   0
  0   0   0   0
  0   0   0   0   0   0   0   0   0   0   0   0   0   0   0   0   0   0   0   0   0   0   0   0
  0   0   0   1  18   0 135 195 190 188 184 182 181 176 168 173 180 185 186 187 192 195 196 196
195 195 199 203 200 196 190 188 188 193 197 199 195 188 173 147 111  60  28  22  11   4   0   0
  0   0   0   0   0   0   0   0   0   0   0   0   0   0   0   0   0   0   0   0   0   0   0   0
  0   0   0   0
  0   0   0   0   0   0   0   0   0   0   0   0   0   0   0   0   0   0   0   0   0   0   0   0
  0   0   0   1  17   0 130 191 193 191 183 177 177 171 165 170 175 180 183 185 187 191 192 193
196 196 195 199 199 194 191 191 190 192 197 200 202 194 181 162 136  89  27  24  14   4   0   0
  0   0   0   0   0   0   0   0   0   0   0   0   0   0   0   0   0   0   0   0   0   0   0   0
  0   0   0   0
  0   0   0   0   0   0   0   0   0   0   0   0   0   0   0   0   0   0   0   0   0   0   0   0
  0   0   0   1  16   0 129 184 181 184 187 182 177 176 171 168 171 176 178 183 188 191 194 195
194 194 193 196 198 195 193 193 192 192 195 196 198 195 181 166 144  96  38  24  15   5   0   0
  0   0   0   0   0   0   0   0   0   0   0   0   0   0   0   0   0   0   0   0   0   0   0   0
  0   0   0   0
  0   0   0   0   0   0   0   0   0   0   0   0   0   0   0   0   0   0   0   0   0   0   0   0
  0   0   0   1  15   0 125 181 175 172 178 177 172 169 175 175 173 175 176 181 187 192 193 188
187 189 190 193 196 197 195 193 194 194 193 192 190 190 183 166 131  87  46  23  16   6   0   0
  0   0   0   0   0   0   0   0   0   0   0   0   0   0   0   0   0   0   0   0   0   0   0   0
  0   0   0   0
  0   0   0   0   0   0   0   0   0   0   0   0   0   0   0   0   0   0   0   0   0   0   0   0
  0   0   0   1  15   0 126 179 170 166 170 170 174 170 172 181 178 171 174 179 181 184 184 182
183 184 185 190 195 197 197 196 195 195 194 193 189 188 185 168 136  95  48  24  19   6   0   0
  0   0   0   0   0   0   0   0   0   0   0   0   0   0   0   0   0   0   0   0   0   0   0   0
  0   0   0   0
  0   0   0   0   0   0   0   0   0   0   0   0   0   0   0   0   0   0   0   0   0   0   0   0
  0   0   0   1  15   0 126 178 170 166 164 160 168 178 173 171 178 176 169 173 179 180 183 187
189 189 189 192 196 198 198 198 195 194 191 191 191 190 183 171 148 104  49  25  19   6   0   0
  0   0   0   0   0   0   0   0   0   0   0   0   0   0   0   0   0   0   0   0   0   0   0   0
  0   0   0   0
  0   0   0   0   0   0   0   0   0   0   0   0   0   0   0   0   0   0   0   0   0   0   0   0
  0   0   0   1  16   0 128 179 174 173 168 160 160 172 173 166 169 175 173 175 180 181 185 189
190 193 197 198 199 199 200 200 198 195 191 189 188 189 183 172 149 105  53  23  17   7   0   0
  0   0   0   0   0   0   0   0   0   0   0   0   0   0   0   0   0   0   0   0   0   0   0   0
  0   0   0   0
  0   0   0   0   0   0   0   0   0   0   0   0   0   0   0   0   0   0   0   0   0   0   0   0
  0   0   0   1  15   0 128 180 174 171 168 166 166 169 172 174 170 163 172 179 184 184 188 192
191 195 200 203 203 202 202 201 200 196 190 189 187 187 182 171 144  97  51  21  18   7   0   0
  0   0   0   0   0   0   0   0   0   0   0   0   0   0   0   0   0   0   0   0   0   0   0   0
  0   0   0   0
  0   0   0   0   0   0   0   0   0   0   0   0   0   0   0   0   0   0   0   0   0   0   0   0
  0   0   0   1  16   0 128 181 174 171 164 164 168 168 167 175 174 159 165 174 181 187 192 195
196 196 199 201 202 201 199 199 199 197 191 186 186 188 183 172 144  87  39  26  18   7   0   0
  0   0   0   0   0   0   0   0   0   0   0   0   0   0   0   0   0   0   0   0   0   0   0   0
  0   0   0   0
  0   0   0   0   0   0   0   0   0   0   0   0   0   0   0   0   0   0   0   0   0   0   0   0
  0   0   0   1  15   0 127 178 169 169 167 168 167 162 162 170 178 166 162 167 175 183 187 193
198 199 200 200 201 201 198 197 197 196 193 187 184 185 182 170 144  83  33  29  21   7   0   0
  0   0   0   0   0   0   0   0   0   0   0   0   0   0   0   0   0   0   0   0   0   0   0   0
  0   0   0   0
  0   0   0   0   0   0   0   0   0   0   0   0   0   0   0   0   0   0   0   0   0   0   0   0
  0   0   0   1  15   0 127 178 166 158 165 171 169 165 164 172 181 181 178 175 179 187 185 190
195 197 199 200 200 201 200 199 198 196 193 190 188 187 180 172 145  74  28  29  22   7   0   0
  0   0   0   0   0   0   0   0   0   0   0   0   0   0   0   0   0   0   0   0   0   0   0   0
  0   0   0   0
  0   0   0   0   0   0   0   0   0   0   0   0   0   0   0   0   0   0   0   0   0   0   0   0
  0   0   0   1  16   0 129 179 161 153 158 160 164 171 177 177 179 184 189 192 192 194 192 192
195 197 197 195 194 196 199 200 197 195 194 194 191 185 174 168 147  83  35  33  21   6   0   0
  0   0   0   0   0   0   0   0   0   0   0   0   0   0   0   0   0   0   0   0   0   0   0   0
  0   0   0   0
  0   0   0   0   0   0   0   0   0   0   0   0   0   0   0   0   0   0   0   0   0   0   0   0
  0   0   0   1  14   0 121 171 158 151 152 155 159 166 180 183 180 178 182 191 197 200 199 198
197 200 201 198 196 196 198 198 198 195 196 194 190 187 176 165 147 105  52  35  22   5   0   0
  0   0   0   0   0   0   0   0   0   0   0   0   0   0   0   0   0   0   0   0   0   0   0   0
  0   0   0   0
  0   0   0   0   0   0   0   0   0   0   0   0   0   0   0   0   0   0   0   0   0   0   0   0
  0   0   0   1  12   0 118 165 160 163 162 160 161 164 172 180 185 182 181 184 187 196 202 205
205 205 202 201 202 203 202 200 202 203 201 198 197 195 188 178 153 109  55  26  24   4   0   0
  0   0   0   0   0   0   0   0   0   0   0   0   0   0   0   0   0   0   0   0   0   0   0   0
  0   0   0   0
  0   0   0   0   0   0   0   0   0   0   0   0   0   0   0   0   0   0   0   0   0   0   0   0
  0   0   0   1  13   0 118 168 168 173 168 165 166 164 166 173 181 184 177 174 176 180 185 193
199 200 199 199 201 202 201 201 199 201 201 199 197 195 192 182 157 112  42  24  24   3   0   0
  0   0   0   0   0   0   0   0   0   0   0   0   0   0   0   0   0   0   0   0   0   0   0   0
  0   0   0   0
  0   0   0   0   0   0   0   0   0   0   0   0   0   0   0   0   0   0   0   0   0   0   0   0
  0   0   0   1  13   0 122 171 167 167 164 162 164 162 164 168 171 180 177 168 173 178 181 185
190 196 198 198 198 199 198 199 196 196 195 196 193 192 189 177 154  98  18  31  20   1   0   0
  0   0   0   0   0   0   0   0   0   0   0   0   0   0   0   0   0   0   0   0   0   0   0   0
  0   0   0   0
  0   0   0   0   0   0   0   0   0   0   0   0   0   0   0   0   0   0   0   0   0   0   0   0
  0   0   0   1  15   0 123 177 170 166 164 163 165 167 168 164 165 177 178 170 172 178 182 187
188 189 193 196 200 201 197 197 198 197 193 193 191 189 184 169 144  78  17  34  17   2   0   0
  0   0   0   0   0   0   0   0   0   0   0   0   0   0   0   0   0   0   0   0   0   0   0   0
  0   0   0   0
  0   0   0   0   0   0   0   0   0   0   0   0   0   0   0   0   0   0   0   0   0   0   0   0
  0   0   0   1  13   0 116 170 168 165 165 168 172 176 170 162 162 168 169 166 170 173 176 181
180 179 183 191 197 198 197 196 197 197 197 193 188 187 180 167 137  61  27  39  16   2   0   0
  0   0   0   0   0   0   0   0   0   0   0   0   0   0   0   0   0   0   0   0   0   0   0   0
  0   0   0   0
  0   0   0   0   0   0   0   0   0   0   0   0   0   0   0   0   0   0   0   0   0   0   0   0
  0   0   0   1  13   0 114 166 156 153 161 170 177 177 168 162 160 163 164 162 167 172 175 175
177 179 182 187 194 194 193 196 197 197 195 193 189 184 177 168 139  66  42  41  13   3   0   0
  0   0   0   0   0   0   0   0   0   0   0   0   0   0   0   0   0   0   0   0   0   0   0   0
  0   0   0   0
  0   0   0   0   0   0   0   0   0   0   0   0   0   0   0   0   0   0   0   0   0   0   0   0
  0   0   0   1  12   0 107 160 157 149 151 161 174 179 174 170 170 176 175 169 170 170 173 175
177 179 182 186 189 189 188 192 195 196 196 194 188 177 172 166 138  88  48  32  13   3   0   0
  0   0   0   0   0   0   0   0   0   0   0   0   0   0   0   0   0   0   0   0   0   0   0   0
  0   0   0   0
  0   0   0   0   0   0   0   0   0   0   0   0   0   0   0   0   0   0   0   0   0   0   0   0
  0   0   0   1  12   0 106 157 155 148 147 152 162 171 178 185 187 190 184 180 177 169 168 172
175 178 178 179 184 183 186 187 188 191 192 191 185 174 166 156 123  80  45  26  12   4   0   0
  0   0   0   0   0   0   0   0   0   0   0   0   0   0   0   0   0   0   0   0   0   0   0   0
  0   0   0   0
  0   0   0   0   0   0   0   0   0   0   0   0   0   0   0   0   0   0   0   0   0   0   0   0
  0   0   0   1  13   0 112 165 159 158 158 160 165 167 171 182 190 195 190 186 186 179 169 168
172 177 178 176 177 179 182 183 185 188 185 181 178 169 161 146 107  69  41  21  12   4   0   0
  0   0   0   0   0   0   0   0   0   0   0   0   0   0   0   0   0   0   0   0   0   0   0   0
  0   0   0   0
  0   0   0   0   0   0   0   0   0   0   0   0   0   0   0   0   0   0   0   0   0   0   0   0
  0   0   0   1  13   0 114 171 172 174 171 168 170 174 174 174 180 188 191 190 188 185 180 178
177 177 174 171 170 170 173 177 181 184 182 179 168 161 157 133  93  59  33  17  12   4   0   0
  0   0   0   0   0   0   0   0   0   0   0   0   0   0   0   0   0   0   0   0   0   0   0   0
  0   0   0   0
  0   0   0   0   0   0   0   0   0   0   0   0   0   0   0   0   0   0   0   0   0   0   0   0
  0   0   0   1  13   0 116 171 177 179 179 176 177 185 185 182 177 180 184 189 192 190 183 181
176 167 160 161 165 168 172 175 180 183 180 171 164 157 142 116  79  46  24  14  10   3   0   0
  0   0   0   0   0   0   0   0   0   0   0   0   0   0   0   0   0   0   0   0   0   0   0   0
  0   0   0   0
  0   0   0   0   0   0   0   0   0   0   0   0   0   0   0   0   0   0   0   0   0   0   0   0
  0   0   0   1  13   0 112 166 169 174 180 188 189 196 195 192 186 186 187 188 190 188 184 181
173 162 154 147 150 158 165 171 174 176 170 159 154 146 126  96  61  30  16  11   8   3   0   0
  0   0   0   0   0   0   0   0   0   0   0   0   0   0   0   0   0   0   0   0   0   0   0   0
  0   0   0   0
  0   0   0   0   0   0   0   0   0   0   0   0   0   0   0   0   0   0   0   0   0   0   0   0
  0   0   0   1  11   0 106 155 157 164 175 182 190 199 202 199 194 191 191 193 194 191 188 185
183 175 164 153 145 149 155 163 166 164 158 153 145 133 111  77  47  20   9   8   6   3   0   0
  0   0   0   0   0   0   0   0   0   0   0   0   0   0   0   0   0   0   0   0   0   0   0   0
  0   0   0   0
  0   0   0   0   0   0   0   0   0   0   0   0   0   0   0   0   0   0   0   0   0   0   0   0
  0   0   0   1  12   0 113 160 156 160 169 176 185 197 202 202 197 191 188 186 185 181 176 174
177 178 171 163 157 154 157 160 160 155 149 144 130 116  96  62  34  12   6   6   6   3   0   0
  0   0   0   0   0   0   0   0   0   0   0   0   0   0   0   0   0   0   0   0   0   0   0   0
  0   0   0   0
  0   0   0   0   0   0   0   0   0   0   0   0   0   0   0   0   0   0   0   0   0   0   0   0
  0   0   0   1  13   0 114 167 159 161 166 168 180 191 196 199 198 193 187 179 171 166 162 163
167 172 174 171 166 164 158 152 152 149 142 130 117 105  80  47  20   7   6   6   6   3   0   0
  0   0   0   0   0   0   0   0   0   0   0   0   0   0   0   0   0   0   0   0   0   0   0   0
  0   0   0   0
  0   0   0   0   0   0   0   0   0   0   0   0   0   0   0   0   0   0   0   0   0   0   0   0
  0   0   0   1  13   0 116 167 164 163 168 169 175 183 190 193 191 183 176 170 161 157 153 152
155 158 163 167 165 163 154 147 146 148 145 133 117  84  57  31  10   6   5   5   6   3   0   0
  0   0   0   0   0   0   0   0   0   0   0   0   0   0   0   0   0   0   0   0   0   0   0   0
  0   0   0   0
  0   0   0   0   0   0   0   0   0   0   0   0   0   0   0   0   0   0   0   0   0   0   0   0
  0   0   0   1  15   0 122 172 161 167 174 173 175 179 181 186 184 180 176 168 155 148 148 151
151 153 156 159 154 151 152 150 137 131 129 119  94  61  41  18   7   6   5   5   6   3   0   0
  0   0   0   0   0   0   0   0   0   0   0   0   0   0   0   0   0   0   0   0   0   0   0   0
  0   0   0   0
  0   0   0   0   0   0   0   0   0   0   0   0   0   0   0   0   0   0   0   0   0   0   0   0
  0   0   0   1  14   0 113 173 166 161 171 176 177 177 177 179 180 181 179 174 163 151 150 156
159 162 164 159 154 152 145 130 118 114 105  86  55  39  30  10   6   6   5   5   6   3   0   0
  0   0   0   0   0   0   0   0   0   0   0   0   0   0   0   0   0   0   0   0   0   0   0   0
  0   0   0   0
  0   0   0   0   0   0   0   0   0   0   0   0   0   0   0   0   0   0   0   0   0   0   0   0
  0   0   0   1  15   0 120 177 178 171 162 168 175 174 176 179 178 179 181 181 174 160 155 158
163 168 169 167 160 154 139 124 122 117  99  66  33  28  19   6   6   6   6   6   6   3   0   0
  0   0   0   0   0   0   0   0   0   0   0   0   0   0   0   0   0   0   0   0   0   0   0   0
  0   0   0   0
  0   0   0   0   0   0   0   0   0   0   0   0   0   0   0   0   0   0   0   0   0   0   0   0
  0   0   0   1  16   0 124 181 179 176 168 164 170 176 176 179 179 175 173 176 179 178 170 163
162 166 167 167 162 154 143 139 130 118  85  45  31  23   9   6   6   6   6   6   6   3   0   0
  0   0   0   0   0   0   0   0   0   0   0   0   0   0   0   0   0   0   0   0   0   0   0   0
  0   0   0   0
  0   0   0   0   0   0   0   0   0   0   0   0   0   0   0   0   0   0   0   0   0   0   0   0
  0   0   0   1  14   0 114 166 160 161 163 162 164 174 176 178 182 182 177 171 167 166 165 159
154 156 160 162 161 157 147 139 126  99  52  23  25  17   5   6   6   6   6   6   6   3   0   0
  0   0   0   0   0   0   0   0   0   0   0   0   0   0   0   0   0   0   0   0   0   0   0   0
  0   0   0   0
  0   0   0   0   0   0   0   0   0   0   0   0   0   0   0   0   0   0   0   0   0   0   0   0
  0   0   0   1  13   0 112 161 146 147 155 155 151 154 168 177 183 183 176 171 164 159 156 155
153 156 158 159 163 167 156 138 113  66  27  26  20  10   5   6   6   5   5   6   6   3   0   0
  0   0   0   0   0   0   0   0   0   0   0   0   0   0   0   0   0   0   0   0   0   0   0   0
  0   0   0   0
  0   0   0   0   0   0   0   0   0   0   0   0   0   0   0   0   0   0   0   0   0   0   0   0
  0   0   0   1  13   0 113 165 156 140 148 160 154 157 161 176 183 175 173 170 161 153 147 150
152 152 156 165 171 174 160 120  72  36  29  22  16   6   6   6   6   5   5   5   6   3   0   0
  0   0   0   0   0   0   0   0   0   0   0   0   0   0   0   0   0   0   0   0   0   0   0   0
  0   0   0   0
  0   0   0   0   0   0   0   0   0   0   0   0   0   0   0   0   0   0   0   0   0   0   0   0
  0   0   0   1  14   0 117 163 156 145 145 161 154 165 174 176 186 180 174 170 162 154 149 151
151 151 159 170 170 170 142  78  47  35  23  18   9   5   6   6   6   5   5   5   6   3   0   0
  0   0   0   0   0   0   0   0   0   0   0   0   0   0   0   0   0   0   0   0   0   0   0   0
  0   0   0   0
  0   0   0   0   0   0   0   0   0   0   0   0   0   0   0   0   0   0   0   0   0   0   0   0
  0   0   0   1  16   0 123 172 154 154 155 165 161 161 181 180 180 183 179 173 162 158 156 157
157 153 158 168 170 152  89  48  42  26  20  14   6   6   6   6   6   5   6   6   6   3   0   0
  0   0   0   0   0   0   0   0   0   0   0   0   0   0   0   0   0   0   0   0   0   0   0   0
  0   0   0   0
  0   0   0   0   0   0   0   0   0   0   0   0   0   0   0   0   0   0   0   0   0   0   0   0
  0   0   0   1  15   0 118 171 156 151 158 166 164 153 164 173 171 174 175 173 160 152 150 152
156 158 158 160 155 111  54  48  32  23  17   7   6   6   6   6   6   6   6   6   7   3   0   0
  0   0   0   0   0   0   0   0   0   0   0   0   0   0   0   0   0   0   0   0   0   0   0   0
  0   0   0   0
  0   0   0   0   0   0   0   0   0   0   0   0   0   0   0   0   0   0   0   0   0   0   0   0
  0   0   0   1  12   0 109 159 156 153 150 152 153 147 146 153 154 151 153 155 153 147 149 150
153 153 147 131 100  60  49  34  27  21  10   6   7   7   6   6   6   6   6   6   7   3   0   0
  0   0   0   0   0   0   0   0   0   0   0   0   0   0   0   0   0   0   0   0   0   0   0   0
  0   0   0   0
  0   0   0   0   0   0   0   0   0   0   0   0   0   0   0   0   0   0   0   0   0   0   0   0
  0   0   0   1  11   0 103 149 151 157 146 137 140 137 131 133 132 116 122 124 122 119 131 135
134 128 108  79  57  48  35  25  21  14   6   6   7   7   7   7   6   6   6   6   7   3   0   0
  0   0   0   0   0   0   0   0   0   0   0   0   0   0   0   0   0   0   0   0   0   0   0   0
  0   0   0   0
  0   0   0   0   0   0   0   0   0   0   0   0   0   0   0   0   0   0   0   0   0   0   0   0
  0   0   0   1  10   0 102 145 148 154 140 129 127 124 132 138 130 114 109  98  92  87  92  97
 92  92  84  69  57  41  26  20  15   7   6   6   6   7   7   7   7   7   7   6   7   3   0   0
  0   0   0   0   0   0   0   0   0   0   0   0   0   0   0   0   0   0   0   0   0   0   0   0
  0   0   0   0
  0   0   0   0   0   0   0   0   0   0   0   0   0   0   0   0   0   0   0   0   0   0   0   0
  0   0   0   1   9   0  97 139 143 160 144 118 114 105 128 142 129 115  99  84  79  77  77  75
 67  63  62  54  41  27  19  15   8   6   6   6   6   7   7   7   7   7   6   6   7   3   0   0
  0   0   0   0   0   0   0   0   0   0   0   0   0   0   0   0   0   0   0   0   0   0   0   0
  0   0   0   0
  0   0   0   0   0   0   0   0   0   0   0   0   0   0   0   0   0   0   0   0   0   0   0   0
  0   0   0   1   8   0  95 133 135 159 151 108 100  91  96 120 111  95  83  81  77  71  71  65
 60  54  47  38  28  19  15   9   5   6   6   6   6   7   7   6   6   6   6   6   7   4   0   0
  0   0   0   0   0   0   0   0   0   0   0   0   0   0   0   0   0   0   0   0   0   0   0   0
  0   0   0   0
  0   0   0   0   0   0   0   0   0   0   0   0   0   0   0   0   0   0   0   0   0   0   0   0
  0   0   0   1   9   0  94 137 141 152 143  93  81  79  67  79  81  74  72  69  71  69  60  57
 53  46  37  28  20  15   9   6   6   6   6   6   6   6   6   6   6   6   6   6   7   3   0   0
  0   0   0   0   0   0   0   0   0   0   0   0   0   0   0   0   0   0   0   0   0   0   0   0
  0   0   0   0
  0   0   0   0   0   0   0   0   0   0   0   0   0   0   0   0   0   0   0   0   0   0   0   0
  0   0   0   1  10   0  92 141 146 148 130  81  63  61  62  62  63  64  65  61  59  58  52  49
 43  35  25  17  14   9   6   6   6   6   6   6   6   6   6   6   6   6   6   6   7   3   0   0
  0   0   0   0   0   0   0   0   0   0   0   0   0   0   0   0   0   0   0   0   0   0   0   0
  0   0   0   0
  0   0   0   0   0   0   0   0   0   0   0   0   0   0   0   0   0   0   0   0   0   0   0   0
  0   0   0   0   9   0  90 138 138 134 118  74  49  51  54  57  57  59  56  55  52  46  43  35
 28  22  15  13   9   6   6   6   6   6   6   6   6   6   6   6   6   6   6   6   6   3   0   0
  0   0   0   0   0   0   0   0   0   0   0   0   0   0   0   0   0   0   0   0   0   0   0   0
  0   0   0   0
  0   0   0   0   0   0   0   0   0   0   0   0   0   0   0   0   0   0   0   0   0   0   0   0
  0   0   0   1   8   0  91 135 129 125 117  71  39  47  46  50  50  48  46  43  38  34  28  23
 18  14  12   8   6   6   6   5   6   6   6   6   6   6   6   6   6   6   6   6   6   3   0   0
  0   0   0   0   0   0   0   0   0   0   0   0   0   0   0   0   0   0   0   0   0   0   0   0
  0   0   0   0
  0   0   0   0   0   0   0   0   0   0   0   0   0   0   0   0   0   0   0   0   0   0   0   0
  0   0   0   1   9   0  94 134 124 122 119  68  30  41  40  42  40  39  38  31  26  24  21  16
 13  11   7   6   6   6   6   5   6   6   6   6   6   6   6   6   6   5   6   6   6   3   0   0
  0   0   0   0   0   0   0   0   0   0   0   0   0   0   0   0   0   0   0   0   0   0   0   0
  0   0   0   0
  0   0   0   0   0   0   0   0   0   0   0   0   0   0   0   0   0   0   0   0   0   0   0   0
  0   0   0   1   9   0  94 133 124 115 108  67  25  35  36  36  33  31  29  25  21  18  15  12
  9   6   6   6   6   6   6   6   6   6   5   6   6   6   6   6   6   6   5   6   6   3   0   0
  0   0   0   0   0   0   0   0   0   0   0   0   0   0   0   0   0   0   0   0   0   0   0   0
  0   0   0   0
  0   0   0   0   0   0   0   0   0   0   0   0   0   0   0   0   0   0   0   0   0   0   0   0
  0   0   0   1   9   0  91 133 124 113 102  67  24  33  30  29  25  21  23  19  15  13  10   7
  6   6   6   6   6   6   6   6   6   6   6   6   6   6   6   6   5   6   6   6   6   3   0   0
  0   0   0   0   0   0   0   0   0   0   0   0   0   0   0   0   0   0   0   0   0   0   0   0
  0   0   0   0
  0   0   0   0   0   0   0   0   0   0   0   0   0   0   0   0   0   0   0   0   0   0   0   0
  0   0   0   1   9   0  96 136 123 112 106  74  14  27  23  20  19  19  18  13  10   7   6   6
  6   6   6   6   6   6   6   6   6   6   6   5   6   6   6   6   6   6   6   6   6   3   0   0
  0   0   0   0   0   0   0   0   0   0   0   0   0   0   0   0   0   0   0   0   0   0   0   0
  0   0   0   0
  0   0   0   0   0   0   0   0   0   0   0   0   0   0   0   0   0   0   0   0   0   0   0   0
  0   0   0   1  10   0 101 142 129 117 110  73   3  20  17  16  15  12   9   7   6   6   6   6
  6   6   6   6   6   6   6   6   6   6   6   6   6   6   6   6   6   5   5   5   6   3   0   0
  0   0   0   0   0   0   0   0   0   0   0   0   0   0   0   0   0   0   0   0   0   0   0   0
  0   0   0   0
  0   0   0   0   0   0   0   0   0   0   0   0   0   0   0   0   0   0   0   0   0   0   0   0
  0   0   0   1  14   0 119 167 151 134 102  51   4  15  11   9   7   6   6   6   6   6   6   6
  6   6   6   6   6   6   6   6   6   6   6   6   6   6   6   6   5   5   5   5   6   3   0   0
  0   0   0   0   0   0   0   0   0   0   0   0   0   0   0   0   0   0   0   0   0   0   0   0
  0   0   0   0
  0   0   0   0   0   0   0   0   0   0   0   0   0   0   0   0   0   0   0   0   0   0   0   0
  0   0   0   1  10   0 108 142 109  75  33  10   6   6   5   5   6   6   6   6   6   6   6   6
  6   6   6   6   6   6   6   6   6   6   6   6   6   6   6   6   5   5   5   5   6   3   0   0
  0   0   0   0   0   0   0   0   0   0   0   0   0   0   0   0   0   0   0   0   0   0   0   0
  0   0   0   0
  0   0   0   0   0   0   0   0   0   0   0   0   0   0   0   0   0   0   0   0   0   0   0   0
  0   0   0   0   0   0  37  26   0   0   0   7   5   6   6   6   6   6   6   6   6   6   6   6
  6   6   6   6   6   6   6   6   6   6   6   6   6   6   6   5   5   5   5   5   6   3   0   0
  0   0   0   0   0   0   0   0   0   0   0   0   0   0   0   0   0   0   0   0   0   0   0   0
  0   0   0   0
  0   0   0   0   0   0   0   0   0   0   0   0   0   0   0   0   0   0   0   0   0   0   0   0
  0   0   0   0   0   0  19  26  25  21  17   9   5   6   6   6   6   6   6   6   6   6   6   6
  6   6   6   6   6   6   6   6   6   6   6   6   6   6   6   5   5   5   5   5   6   3   0   0
  0   0   0   0   0   0   0   0   0   0   0   0   0   0   0   0   0   0   0   0   0   0   0   0
  0   0   0   0
  0   0   0   0   0   0   0   0   0   0   0   0   0   0   0   0   0   0   0   0   0   0   0   0
  0   0   0   0   0   0  27  31  21  15  12   7   5   6   6   6   6   6   6   6   6   6   6   6
  6   6   6   6   6   6   6   6   6   6   6   6   6   6   6   5   5   5   5   5   6   3   0   0
  0   0   0   0   0   0   0   0   0   0   0   0   0   0   0   0   0   0   0   0   0   0   0   0
  0   0   0   0
  0   0   0   0   0   0   0   0   0   0   0   0   0   0   0   0   0   0   0   0   0   0   0   0
  0   0   0   0   0   0  27  30  21  17  12   7   5   6   6   6   6   6   6   6   6   6   6   6
  6   6   6   6   6   6   6   6   6   6   6   6   6   6   6   5   5   5   5   5   6   3   0   0
  0   0   0   0   0   0   0   0   0   0   0   0   0   0   0   0   0   0   0   0   0   0   0   0
  0   0   0   0
  0   0   0   0   0   0   0   0   0   0   0   0   0   0   0   0   0   0   0   0   0   0   0   0
  0   0   0   0   0   0  29  33  21  15  12   7   6   6   6   6   6   6   6   6   6   6   6   6
  6   6   6   6   6   6   6   6   6   6   6   6   6   6   5   5   5   5   5   5   6   3   0   0
  0   0   0   0   0   0   0   0   0   0   0   0   0   0   0   0   0   0   0   0   0   0   0   0
  0   0   0   0
  0   0   0   0   0   0   0   0   0   0   0   0   0   0   0   0   0   0   0   0   0   0   0   0
  0   0   0   0   0   0  34  35  19  16  12   6   6   6   6   6   6   6   6   6   5   5   6   6
  6   6   6   6   6   6   6   6   6   6   6   5   6   6   5   5   5   5   5   6   6   3   0   0
  0   0   0   0   0   0   0   0   0   0   0   0   0   0   0   0   0   0   0   0   0   0   0   0
  0   0   0   0
  0   0   0   0   0   0   0   0   0   0   0   0   0   0   0   0   0   0   0   0   0   0   0   0
  0   0   0   1   0   0  41  41  20  17  11   5   5   5   6   6   6   6   6   5   5   6   6   6
  6   6   6   6   6   6   5   5   5   5   5   5   5   5   5   5   5   5   6   6   6   3   0   0
  0   0   0   0   0   0   0   0   0   0   0   0   0   0   0   0   0   0   0   0   0   0   0   0
  0   0   0   0
