P2
# 8-bit pgm gray
100 100
255
  0   0   0   0   0   0   0   0   0   0   0   0   0   0   0   0   0   0   0   0   6   0  30  82
 78  19  26   5   0   1   0   0   0   0   0   0   0   0   0   0   0   0   0   0   0   0   1   3
  5   8  13  21  30  40  53  64  75  84  93 100 107 116 124 130 134 141 162 184 191 199 205 208
210 211 212 213 214 215 216 214 222 191   0   0  12   0   0   0   0   0   0   0   0   0   0   0
  0   0   0   0
  0   0   0   0   0   0   0   0   0   0   0   0   0   0   0   0   0   0   0   0   6   0  20  81
116  56  47   0   0   1   0   0   0   0   0   0   0   0   0   0   0   0   0   0   0   0   2   4
  8  12  17  24  33  45  58  71  80  90 101 110 118 125 130 140 150 160 173 192 206 217 223 228
230 232 233 234 236 237 237 236 245 210   0   0  14   0   0   0   0   0   0   0   0   0   0   0
  0   0   0   0
  0   0   0   0   0   0   0   0   0   0   0   0   0   0   0   0   0   0   0   0   7   0  16 110
 74   0  39   0   0   0   0   0   0   0   0   0   0   0   0   0   0   0   0   0   0   1   3   4
  7  11  16  23  32  42  54  67  79  88  99 108 115 118 127 139 147 151 154 179 198 206 214 219
222 224 226 227 228 229 230 229 238 205   0   0  14   0   0   0   0   0   0   0   0   0   0   0
  0   0   0   0
  0   0   0   0   0   0   0   0   0   0   0   0   0   0   0   0   0   0   0   0   6   0  37 161
173  53   0  12   0   0   0   0   0   0   0   0   0   0   0   0   0   0   0   0   0   0   2   4
  7  11  16  23  31  41  54  67  79  89  98 106 113 117 130 138 143 148 149 176 194 203 213 219
222 224 226 228 229 231 232 230 240 206   0   0  14   0   0   0   0   0   0   0   0   0   0   0
  0   0   0   0
  0   0   0   0   0   0   0   0   0   0   0   0   0   0   0   0   0   0   0   1   0  20   0  78
131  62   0   3   1   0   0   0   0   0   0   0   0   0   0   0   0   0   0   0   0   0   1   4
  7  11  15  22  30  40  51  64  76  86  94 102 109 118 126 129 142 145 143 167 189 201 210 218
220 223 226 227 229 230 231 230 239 205   0   0  14   0   0   0   0   0   0   0   0   0   0   0
  0   0   0   0
  0   0   0   0   0   0   0   0   0   0   0   0   0   0   0   0   0   0   0   0   2   0  29  21
  0   0   5   0   0   0   0   0   0   0   0   0   0   0   0   0   0   0   0   0   0   0   1   3
  6  10  14  21  31  40  49  62  73  82  92  99 108 115 119 125 135 139 145 165 188 199 207 216
220 223 226 228 229 231 232 230 239 206   0   0  14   0   0   0   0   0   0   0   0   0   0   0
  0   0   0   0
  0   0   0   0   0   0   0   0   0   0   0   0   0   0   0   0   0   0   0   1   0   0  36  30
 13   0   0   0   0   0   0   0   0   0   0   0   0   0   0   0   0   0   0   0   0   0   1   3
  6  10  14  21  29  40  50  61  69  79  89  96 104 110 115 122 135 142 148 159 184 200 208 216
221 224 226 228 229 231 232 231 240 206   0   0  14   0   0   0   0   0   0   0   0   0   0   0
  0   0   0   0
  0   0   0   0   0   0   0   0   0   0   0   0   0   0   0   0   0   0   0   0   0   0  31  42
 34  21   0   0   0   0   0   0   0   0   0   0   0   0   0   0   0   0   0   0   0   0   1   3
  6  10  15  21  28  38  48  57  66  77  84  91  96 103 108 120 135 141 140 152 176 195 204 212
219 222 224 227 229 231 232 232 241 206   0   0  14   0   0   0   0   0   0   0   0   0   0   0
  0   0   0   0
  0   0   0   0   0   0   0   0   0   0   0   0   0   0   0   0   0   0   1   1   0   1   0  19
 26   8   0   0   0   0   0   0   0   0   0   0   0   0   0   0   0   0   0   0   0   0   1   3
  6  10  15  21  29  38  46  55  65  75  81  86  92  96 105 117 118 123 131 140 161 183 197 206
214 219 223 226 228 231 232 231 240 206   0   0  14   0   0   0   0   0   0   0   0   0   0   0
  0   0   0   0
  0   0   0   0   0   0   0   0   0   0   0   0   0   0   0   0   0   0   0   0   0   2   0  25
 24   0   1   0   0   0   0   0   0   0   0   0   0   0   0   0   0   0   0   0   0   0   1   3
  7  11  16  22  29  37  47  55  63  71  78  83  89  96 106 112 112 117 127 133 153 178 191 201
211 218 222 225 227 229 231 230 239 205   0   0  14   0   0   0   0   0   0   0   0   0   0   0
  0   0   0   0
  0   0   0   0   0   0   0   0   0   0   0   0   0   0   0   0   0   0   5   2   0   1   0  32
 24   0   1   0   0   0   0   0   0   0   0   0   0   0   0   0   0   0   0   0   0   0   2   4
  8  12  17  23  29  39  49  57  64  72  78  82  88  95 106 108 111 118 125 135 150 173 188 199
208 214 219 222 224 227 230 229 238 204   0   0  13   0   0   0   0   0   0   0   0   0   0   0
  0   0   0   0
  0   0   0   0   0   0   0   0   0   0   0   0   0   0   0   0   0   0  28  32   5   0   0  25
 11   0   1   0   0   0   0   0   0   0   0   0   0   0   0   0   0   0   0   0   0   1   2   5
  9  13  17  24  33  39  46  55  64  70  76  83  87  96 105 108 115 121 129 135 146 170 186 197
205 211 217 221 223 226 229 229 238 204   0   0  13   0   0   0   0   0   0   0   0   0   0   0
  0   0   0   0
  0   0   0   0   0   0   0   0   0   0   0   0   0   0   0   0   0   0  29  27   0   3  32  35
 11   0   1   0   0   0   0   0   0   0   0   0   0   0   0   0   0   0   0   0   0   1   3   6
 10  14  18  28  36  42  48  56  65  71  76  82  89 101 106 111 118 122 130 133 140 165 182 191
202 209 215 219 222 225 228 228 238 204   0   0  13   0   0   0   0   0   0   0   0   0   0   0
  0   0   0   0
  0   0   0   0   0   0   0   0   0   0   0   0   0   0   0   1   0   0  60  58   0  40  45  24
 39   3   0   1   0   0   0   0   0   0   0   0   0   0   0   0   0   0   0   0   0   2   4   7
 11  15  22  29  35  44  51  58  69  74  77  83  95 103 105 112 117 123 130 135 141 159 176 187
197 204 211 217 220 223 226 227 237 204   0   0  13   0   0   0   0   0   0   0   0   0   0   0
  0   0   0   0
  0   0   0   0   0   0   0   0   0   0   0   0   0   0   0   1   0   0  59  64   0  36  50  40
 43   5   0   1   0   0   0   0   0   0   0   0   0   0   0   0   0   0   0   0   1   3   5   9
 13  24  26  30  36  44  52  61  68  74  80  89  97 101 107 113 119 127 132 134 136 149 170 182
192 201 208 215 219 223 226 226 237 203   0   0  13   0   0   0   0   0   0   0   0   0   0   0
  0   0   0   0
  0   0   0   0   0   0   0   0   0   0   0   0   0   0   0   0   0   0  31  18   0  23   4  23
 18   0   0   0   0   0   0   0   0   0   0   0   0   0   0   0   0   0   0   0   2   4   7  11
 17  26  27  32  39  47  56  63  69  77  85  95  99 102 110 115 122 130 132 134 134 143 163 178
190 198 206 213 218 221 224 225 235 202   0   0  13   0   0   0   0   0   0   0   0   0   0   0
  0   0   0   0
  0   0   0   0   0   0   0   0   0   0   0   0   0   0   0   0   0   0  39  33   9  54  43  41
 30   0   0   1   3   0   0   0   0   0   0   0   0   0   0   0   0   0   0   0   2   4   8  12
 16  21  30  37  44  52  60  67  75  82  91 100 101 106 110 116 122 126 130 133 136 140 157 174
185 195 203 209 215 220 224 224 235 202   0   0  13   0   0   0   0   0   0   0   0   0   0   0
  0   0   0   0
  0   0   0   0   0   0   0   0   0   0   0   0   0   0   0   0   1   0  39  37   0  51  64  60
 31   0   1   0   0   0   0   0   0   0   0   0   0   0   0   0   0   0   0   1   3   6  11  14
 18  24  32  41  47  54  63  71  79  87  95 101 106 112 116 122 121 124 130 131 133 134 149 167
181 193 200 207 214 220 223 224 234 201   0   0  13   0   0   0   0   0   0   0   0   0   0   0
  0   0   0   0
  0   0   0   0   0   0   0   0   0   0   0   0   0   0   0   0   0   1  14   0   2  28  40  35
  3   0   1   0   0   0   0   0   0   0   0   0   0   0   0   0   0   0   0   2   4   7  14  18
 22  28  35  43  51  60  69  76  83  89  98 106 109 115 118 121 123 125 128 130 130 132 144 165
178 190 200 207 213 219 223 224 235 201   0   0  13   0   0   0   0   0   0   0   0   0   0   0
  0   0   0   0
  0   0   0   0   0   0   0   0   0   0   0   0   0   0   0   0   0   0   0   0   0  33  67  53
  0   0   1   0   0   0   0   0   0   0   0   0   0   0   0   0   0   0   1   3   5   9  13  19
 26  33  42  49  55  65  74  80  88  94 102 106 110 113 117 121 124 127 130 131 135 138 143 164
179 190 199 205 210 217 223 222 233 200   0   0  13   0   0   0   0   0   0   0   0   0   0   0
  0   0   0   0
  0   0   0   0   0   0   0   0   0   0   0   0   0   0   0   0   0   0   1   3   0  38  66  26
  0   2   0   0   0   0   0   0   0   0   0   0   0   0   0   0   0   0   2   4   7  11  15  21
 27  35  44  55  61  68  78  85  91 100 105 106 111 112 116 122 124 128 130 132 135 140 147 161
176 185 196 203 209 216 221 221 231 199   0   0  13   0   0   0   0   0   0   0   0   0   0   0
  0   0   0   0
  0   0   0   0   0   0   0   0   0   0   0   0   0   0   0   0   0   0   1   0  10  38  58  37
  0   1   0   0   0   0   0   0   0   0   0   0   0   0   0   0   0   1   3   5   9  12  18  24
 30  38  45  56  75  78  81  87  92 100 103 108 112 115 119 124 127 130 132 134 135 143 146 155
172 181 193 203 207 213 220 221 231 199   0   0  13   0   0   0   0   0   0   0   0   0   0   0
  0   0   0   0
  0   0   0   0   0   0   0   0   0   0   0   0   0   0   0   0   0   0   0   0   0   0   0   7
  0   0   0   0   0   0   0   0   0   0   0   0   0   0   0   0   0   1   3   6  10  14  20  27
 34  42  50  60  76  85  89  93  99 105 108 111 114 118 121 125 128 132 136 137 140 143 142 147
166 177 188 200 206 211 219 221 231 198   0   0  13   0   0   0   0   0   0   0   0   0   0   0
  0   0   0   0
  0   0   0   0   0   0   0   0   0   0   0   0   0   0   0   0   0   0   0   0   0   0   0   0
  0   0   0   0   0   0   0   0   0   0   0   0   0   0   0   0   0   2   4   8  12  17  23  30
 38  47  56  64  72  80  90 100 108 111 115 120 122 124 128 131 130 131 136 142 141 145 146 146
160 174 183 197 205 211 217 220 231 198   0   0  13   0   0   0   0   0   0   0   0   0   0   0
  0   0   0   0
  0   0   0   0   0   0   0   0   0   0   0   0   0   0   0   0   0   0   0   0   0   0   1   1
  0   0   0   0   0   0   0   0   0   0   0   0   0   0   0   0   1   3   6   9  14  20  27  35
 43  51  62  71  78  85  90 102 109 109 116 120 123 125 129 130 131 134 138 140 141 147 146 143
154 170 181 194 204 210 215 219 230 197   0   0  12   0   0   0   0   0   0   0   0   0   0   0
  0   0   0   0
  0   0   0   0   0   0   0   0   0   0   0   0   0   0   0   0   0   0   0   0   2   1   1   0
  0   0   0   0   0   0   0   0   0   0   0   0   0   0   0   0   2   4   7  11  17  24  31  40
 49  57  67  76  84  92  95 105 112 110 117 120 120 125 127 128 133 136 137 141 146 147 145 144
150 167 179 191 202 210 214 217 230 197   0   0  12   0   0   0   0   0   0   0   0   0   0   0
  0   0   0   0
  0   0   0   0   0   0   0   0   0   0   0   0   0   0   0   0   0   0   0  20  14   0   0   0
  0   0   0   0   0   0   0   0   0   0   0   0   0   0   0   1   3   5   9  13  19  27  35  45
 55  64  73  81  88  94 100 111 114 115 121 122 122 122 125 131 133 134 136 143 145 143 142 141
145 159 173 185 197 207 212 215 229 196   0   0  12   0   0   0   0   0   0   0   0   0   0   0
  0   0   0   0
  0   0   0   0   0   0   0   0   0   0   0   0   0   0   0   0   0   1   0  30  34  18  12   0
  0   0   0   0   0   0   0   0   0   0   0   0   0   0   0   1   3   6  10  16  23  31  40  51
 60  71  80  87  92  96 105 114 116 121 123 120 121 123 127 132 134 137 140 141 141 144 145 143
142 152 169 180 194 205 210 212 226 196   0   0  12   0   0   0   0   0   0   0   0   0   0   0
  0   0   0   0
  0   0   0   0   0   0   0   0   0   0   0   0   0   0   0   0   0   0   0  11  26  29  20   0
  0   0   0   0   0   0   0   0   0   0   0   0   0   0   0   2   5   8  13  19  27  37  47  56
 67  77  86  92  97 102 111 115 119 120 119 118 121 124 128 133 133 134 135 137 138 140 141 140
141 148 164 176 190 202 209 211 224 194   0   0  12   0   0   0   0   0   0   0   0   0   0   0
  0   0   0   0
  0   0   0   0   0   0   0   0   0   0   0   0   0   0   0   0   0   0   0   0   0   0   0   0
  0   0   0   0   0   7  19   7   0   0   0   0   0   0   1   3   6  11  17  24  34  43  51  61
 73  81  90  97 103 111 117 116 117 118 119 119 120 124 129 130 129 131 134 136 135 134 137 141
142 146 159 173 188 201 210 212 224 193   0   0  12   0   0   0   0   0   0   0   0   0   0   0
  0   0   0   0
  0   0   0   0   0   0   0   0   0   0   0   0   0   0   0   0   0   0   0   1   1   0   0   0
  0   0   0   0   0  17  32  13   0   1   0   0   0   0   2   4   8  14  21  29  40  49  57  68
 77  88  96 103 109 114 116 116 117 119 120 117 122 127 129 129 130 136 136 135 134 136 140 144
148 148 158 177 190 202 211 212 223 192   0   0  12   0   0   0   0   0   0   0   0   0   0   0
  0   0   0   0
  0   0   0   0   0   0   0   0   0   0   0   0   0   0   0   0   0   0   0   0   0   0   0   0
  0   0   0   0   0  17  30   9   0   1   0   0   0   1   3   6  12  18  26  34  45  55  64  74
 82  93  99 103 112 118 116 120 118 116 118 119 125 130 131 132 134 136 136 139 139 139 143 148
154 157 164 180 192 202 209 211 221 190   0   0  12   0   0   0   0   0   0   0   0   0   0   0
  0   0   0   0
  0   0   0   0   0   0   0   0   0   0   0   0   0   0   0   0   0   0   0   0   0   0   0   0
  0   0   0   0   0   5  11   1   0   0   0   0   0   2   5   9  15  22  30  39  49  59  69  81
 88  94  99 106 121 121 118 120 117 115 117 122 124 127 135 139 139 140 144 146 146 145 149 154
159 167 174 183 193 199 205 208 219 188   0   0  11   0   0   0   0   0   0   0   0   0   0   0
  0   0   0   0
  0   0   0   0   0   0   0   0   0   0   0   0   0   0   0   0   0   0   0   0   0   0   0   0
  0   0   0   0   0   0   0   0   0   0   0   0   1   3   6  12  19  28  36  44  54  63  73  85
 93  99 107 118 124 119 120 121 121 122 125 127 126 130 136 142 146 150 151 152 152 153 160 165
169 174 175 176 185 194 201 205 218 188   0   0  11   0   0   0   0   0   0   0   0   0   0   0
  0   0   0   0
  0   0   0   0   0   0   0   0   0   0   0   0   0   0   0   0   0   0   0   0   0   0   0   0
  0   0   0   0   0   0   1   0   0   0   0   0   2   4   9  15  23  31  40  50  61  70  77  87
 96 109 116 120 120 118 123 125 123 125 128 129 130 132 137 145 151 154 154 158 165 170 173 173
168 168 166 163 173 186 197 204 220 189   0   0  11   0   0   0   0   0   0   0   0   0   0   0
  0   0   0   0
  0   0   0   0   0   0   0   0   0   0   0   0   0   0   0   0   0   0   0   0   0   0   0   0
  0   0   0   0   0   0   0   0   0   0   0   1   3   6  11  19  28  35  44  56  67  76  88  96
103 110 111 118 117 118 120 123 125 126 126 128 133 140 149 157 160 164 166 168 174 177 175 171
167 163 160 157 163 178 191 201 217 187   0   0  11   0   0   0   0   0   0   0   0   0   0   0
  0   0   0   0
  0   0   0   0   0   0   0   0   0   0   0   0   0   0   0   0   0   0   0   0   0   0   0   0
  0   0   0   0   0   0   0   0   0   0   0   2   4   9  15  23  32  39  49  62  72  82  95 102
106 111 116 118 117 119 120 123 130 138 142 141 145 154 164 170 173 173 171 170 172 175 172 171
167 160 158 157 160 175 188 194 210 184   0   0  11   0   0   0   0   0   0   0   0   0   0   0
  0   0   0   0
  0   0   0   0   0   0   0   0   0   0   0   0   0   0   0   0   0   0   0   0   0   0   0   0
  0   0   0   0   0   0   0   0   0   0   1   3   6  12  18  27  36  43  54  67  78  88  97 106
111 115 120 118 119 119 121 127 132 140 149 153 157 165 171 174 175 174 172 173 174 173 173 170
163 160 159 156 156 168 185 191 207 182   0   0  11   0   0   0   0   0   0   0   0   0   0   0
  0   0   0   0
  0   0   0   0   0   0   0   0   0   0   0   0   0   0   0   0   0   0   0   0   0   0   0   0
  0   0   0   0   0   0   0   0   0   0   1   4   8  15  22  31  40  48  60  72  85  93 100 109
114 118 119 118 118 118 123 129 134 142 148 148 153 165 171 175 176 175 173 171 170 166 166 167
160 157 157 157 158 163 177 187 203 178   0   0  10   0   0   0   0   0   0   0   0   0   0   0
  0   0   0   0
  0   0   0   0   0   0   0   0   0   0   0   0   0   0   0   0   0   0   0   0   0   0   0   0
  0   0   0   0   0   0   0   0   0   0   2   6  11  17  25  35  45  55  66  78  88  98 106 114
118 121 117 117 120 124 129 132 138 146 153 156 164 175 179 175 173 169 164 164 165 167 167 167
166 161 160 162 164 163 168 180 199 174   0   0  10   0   0   0   0   0   0   0   0   0   0   0
  0   0   0   0
  0   0   0   0   0   0   0   0   0   0   0   0   0   0   0   0   0   0   0   0   0   0   0   0
  0   0   0   0   0   0   0   0   0   1   4   8  14  20  29  41  51  63  76  86  94 105 112 116
120 118 118 119 121 127 129 136 148 157 161 173 183 183 175 168 164 165 164 160 160 164 167 166
165 166 166 162 161 159 164 173 194 171   0   0   9   0   0   0   0   0   0   0   0   0   0   0
  0   0   0   0
  0   0   0   0   0   0   0   0   0   0   0   0   0   0   0   0   0   0   0   0   0   0   0   0
  0   0   0   0   0   0   0   0   0   2   6  10  15  23  32  46  56  68  83  96 103 109 114 116
119 116 119 123 124 126 134 147 158 168 179 187 182 168 160 158 158 158 156 152 155 160 159 159
160 157 162 160 154 157 161 167 189 169   0   0   9   0   0   0   0   0   0   0   0   0   0   0
  0   0   0   0
  0   0   0   0   0   0   0   0   0   0   0   0   0   0   0   0   0   0   0   0   0   0   0   0
  0   0   0   0   0   0   0   0   0   3   7  12  18  27  37  51  62  73  86 100 108 108 113 122
119 123 125 126 128 130 139 155 170 185 193 185 166 155 154 154 154 153 147 148 153 154 152 153
155 156 160 155 149 151 155 161 183 165   0   0   9   0   0   0   0   0   0   0   0   0   0   0
  0   0   0   0
  0   0   0   0   0   0   0   0   0   0   0   0   0   0   0   0   0   0   0   0   0   0   0   0
  0   0   0   0   0   0   0   0   1   4   8  14  21  31  42  56  68  78  90 103 109 112 122 123
119 127 132 131 131 141 160 177 185 186 178 161 153 154 151 149 152 154 153 153 153 151 152 152
155 161 160 152 150 152 155 154 175 160   0   0   8   0   0   0   0   0   0   0   0   0   0   0
  0   0   0   0
  0   0   0   0   0   0   0   0   0   0   0   0   0   0   0   0   0   0   0   0   0   0   0   0
  0   0   0   0   0   0   0   0   2   5  10  16  23  34  46  59  76  88  97 106 107 119 126 119
124 130 136 144 155 168 177 174 169 161 159 151 145 145 144 146 146 148 149 147 147 152 153 152
156 164 167 157 150 153 156 152 172 158   0   0   8   0   0   0   0   0   0   0   0   0   0   0
  0   0   0   0
  0   0   0   0   0   0   0   0   0   0   0   0   0   0   0   0   0   0   0   0   0   0   0   0
  0   0   0   0   0   0   0   0   3   6  11  17  27  39  51  63  79  94 109 117 112 125 121 120
125 134 151 166 174 168 162 155 153 154 155 149 143 144 146 146 145 142 141 145 148 150 150 151
156 165 169 164 157 154 155 153 165 152   3   0   8   0   0   0   0   0   0   0   0   0   0   0
  0   0   0   0
  0   0   0   0   0   0   0   0   0   0   0   0   0   0   0   0   0   0   0   0   0   0   0   0
  0   0   0   0   0   0   0   1   4   8  13  20  30  42  55  69  81  98 109 118 120 125 121 123
130 147 163 163 165 163 157 154 151 151 149 144 147 148 145 147 146 144 145 144 147 148 150 154
161 165 167 169 169 165 162 157 163 144   3   0   7   0   0   0   0   0   0   0   0   0   0   0
  0   0   0   0
  0   0   0   0   0   0   0   0   0   0   0   0   0   0   0   0   0   0   0   0   0   0   0   0
  0   0   0   0   0   0   0   1   5   9  14  22  33  45  60  76  86 102 109 112 123 124 122 129
140 149 158 165 161 157 155 154 150 145 143 142 145 149 149 146 146 149 148 147 151 151 150 157
166 169 173 174 174 175 172 166 169 142   0   0   6   0   0   0   0   0   0   0   0   0   0   0
  0   0   0   0
  0   0   0   0   0   0   0   0   0   0   0   0   0   0   0   0   0   0   0   0   0   0   1   0
  0   0   0   0   0   0   0   2   6  10  16  24  37  50  64  78  90 104 112 110 119 132 136 138
140 150 159 160 153 148 151 151 144 140 141 145 146 151 149 147 146 143 148 152 154 155 154 158
164 167 167 170 175 172 169 166 171 144   0   0   6   0   0   0   0   0   0   0   0   0   0   0
  0   0   0   0
  0   0   0   0   0   0   0   0   0   0   0   0   0   0   0   0   0   0   0   0   0   0   0   0
  0   0   0   0   0   0   0   3   6  10  17  28  41  53  67  80  94 105 113 114 124 139 151 140
145 154 152 157 156 147 146 145 141 141 142 143 147 149 147 147 144 144 151 155 155 154 158 161
160 162 167 170 168 160 157 153 161 139   0   0   6   0   0   0   0   0   0   0   0   0   0   0
  0   0   0   0
  0   0   0   0   0   0   0   0   0   0   0   0   0   0   0   0   0   0   0   0   0   0   0   0
  0   0   0   0   0   0   0   3   7  11  19  30  44  57  70  84  97 108 115 118 124 136 150 148
155 158 156 156 155 147 141 141 145 143 145 148 147 149 150 144 144 152 157 154 152 155 159 161
159 160 167 165 157 156 154 150 158 134   0   0   5   0   0   0   0   0   0   0   0   0   0   0
  0   0   0   0
  0   0   0   0   0   0   0   0   0   0   0   0   0   0   0   0   0   0   0   0   0   0   0   0
  0   0   0   0   0   0   1   4   8  13  21  30  45  61  76  89 101 109 114 120 131 142 158 164
159 157 155 149 150 147 142 145 142 144 151 152 148 151 150 147 155 159 159 158 158 160 159 158
160 161 162 156 150 152 154 152 159 136   0   0   6   0   0   0   0   0   0   0   0   0   0   0
  0   0   0   0
  0   0   0   0   0   0   0   0   0   0   0   0   0   0   0   0   0   0   0   0   0   0   0   0
  0   0   0   0   0   0   1   4   8  14  23  34  48  63  76  89 103 110 118 128 143 151 160 154
150 147 144 139 138 141 143 143 143 150 155 154 156 159 158 158 159 157 158 161 161 159 155 158
167 168 166 160 158 153 151 152 160 137   0   0   6   0   0   0   0   0   0   0   0   0   0   0
  0   0   0   0
  0   0   0   0   0   0   0   0   0   0   0   0   0   0   0   0   0   0   0   0   0   0   0   0
  0   1   0   0   0   0   1   5   9  16  24  36  50  64  78  93 105 111 118 127 141 149 151 150
147 144 134 133 132 138 142 140 141 149 155 154 159 173 169 156 152 159 160 159 159 155 153 157
167 170 170 158 153 151 149 149 157 134   0   0   5   0   0   0   0   0   0   0   0   0   0   0
  0   0   0   0
  0   0   0   0   0   0   0   0   0   0   0   0   0   0   0   0   0   0   0   0   0   0   0   0
  0   0   0   0   0   0   1   5  10  16  25  37  52  67  80  94 107 111 112 125 144 147 150 152
146 141 130 128 130 137 142 139 148 156 158 156 161 173 163 153 156 159 158 154 150 149 155 162
169 170 162 149 146 145 145 146 156 134   0   0   5   0   0   0   0   0   0   0   0   0   0   0
  0   0   0   0
  0   0   0   0   0   0   0   0   0   0   0   0   0   0   0   0   0   0   0   0   0   0   0   0
  0   0   0   0   0   0   2   5  10  17  27  39  53  71  86  95 105 113 119 135 148 150 148 151
142 135 131 129 130 136 135 141 156 159 159 156 161 162 152 151 156 152 148 148 146 152 158 164
173 164 151 151 150 148 146 146 155 134   0   0   6   0   0   0   0   0   0   0   0   0   0   0
  0   0   0   0
  0   0   0   0   0   0   0   0   0   0   0   0   0   0   0   0   0   0   0   0   0   0   0   0
  0   0   0   0   0   0   2   5  10  18  28  40  56  70  87  98 108 119 132 141 154 150 142 151
145 135 132 134 132 135 140 150 162 162 160 160 156 154 151 148 145 145 149 149 154 158 157 167
168 155 149 148 144 145 146 147 154 135   0   0   6   0   0   0   0   0   0   0   0   0   0   0
  0   0   0   0
  0   0   0   0   0   0   0   0   0   0   0   0   0   0   0   0   0   0   0   0   0   0   0   0
  0   0   0   0   0   0   2   6  11  19  28  40  55  70  84  96 109 126 140 141 148 150 151 156
148 139 137 135 132 135 145 152 160 160 158 161 155 148 145 146 144 147 151 158 158 156 163 163
157 154 153 149 146 143 145 148 156 135   0   0   6   0   0   0   0   0   0   0   0   0   0   0
  0   0   0   0
  0   0   0   0   0   0   0   0   0   0   0   0   0   0   0   0   0   0   0   0   0   0   0   0
  0   0   0   0   0   0   2   6  11  19  29  41  56  68  86 101 107 128 142 136 136 147 151 151
150 146 145 137 138 140 145 148 153 156 155 156 155 146 145 148 149 149 150 156 158 158 160 160
154 149 152 151 147 145 145 149 157 133   0   0   5   0   0   0   0   0   0   0   0   0   0   0
  0   0   0   0
  0   0   0   0   0   0   0   0   0   0   0   0   0   0   0   0   0   0   0   0   0   0   0   0
  0   0   0   0   0   0   3   6  11  19  30  45  60  73  87 101 108 129 141 131 133 141 147 146
152 155 154 149 143 143 148 150 154 160 159 159 162 158 153 151 152 149 148 155 157 153 155 156
148 146 150 146 143 146 144 145 152 131   0   0   5   0   0   0   0   0   0   0   0   0   0   0
  0   0   0   0
  0   0   0   0   0   0   0   0   0   0   0   0   0   0   0   0   0   0   0   0   0   0   0   0
  0   0   0   0   0   0   3   6  11  19  31  46  59  75  88  98 114 139 138 135 139 141 148 145
150 158 158 155 150 150 149 152 159 165 162 161 166 166 159 155 159 156 155 154 149 151 154 150
145 145 147 146 146 147 147 145 156 140   0   0   6   0   0   0   0   0   0   0   0   0   0   0
  0   0   0   0
  0   0   0   0   0   0   0   0   0   0   0   0   0   0   0   0   0   0   0   0   0   0   2   0
  0   0   0   0   0   0   2   6  11  19  30  44  55  71  87 101 122 142 137 139 144 151 155 149
150 161 166 159 155 153 153 162 167 169 164 166 163 167 169 169 170 166 159 153 152 151 150 147
140 145 148 149 146 145 150 150 165 144   0   0   6   0   0   0   0   0   0   0   0   0   0   0
  0   0   0   0
  0   0   0   0   0   0   0   0   0   0   0   0   0   0   0   0   0   0   0   0   0   0   0   0
  0   0   0   0   0   0   2   6  11  18  27  43  55  71  85  98 122 134 138 137 142 151 157 157
154 154 158 155 152 149 157 167 168 167 167 169 171 177 184 181 166 159 159 160 160 153 149 146
143 148 153 152 146 148 156 158 168 144   0   0   6   0   0   0   0   0   0   0   0   0   0   0
  0   0   0   0
  0   0   0   0   0   0   0   0   0   0   0   0   0   0   0   0   0   0   0   0   0   0   0   0
  0   0   0   0   0   0   2   6  11  18  27  40  53  68  83 101 117 130 133 132 141 146 154 158
156 151 155 154 147 144 151 156 157 161 165 172 179 182 183 177 167 168 173 169 163 154 152 150
153 154 153 150 146 152 157 156 171 147   0   0   6   0   0   0   0   0   0   0   0   0   0   0
  0   0   0   0
  0   0   0   0   0   0   0   0   0   0   0   0   0   0   0   0   0   0   0   0   0   0   0   0
  0   0   0   0   0   0   2   5  10  18  25  37  54  67  84 101 115 133 135 140 147 154 158 162
161 154 154 151 143 149 154 153 162 168 168 171 178 184 173 166 175 181 178 169 164 163 157 154
148 144 145 144 147 149 150 161 173 142   0   0   6   0   0   0   0   0   0   0   0   0   0   0
  0   0   0   0
  0   0   0   0   0   0   0   0   0   0   0   0   0   0   0   0   0   0   0   0   0   0   0   0
  0   0   0   0   0   0   1   5  11  18  25  36  53  68  81  97 125 146 149 152 155 156 164 170
167 168 160 154 156 159 161 166 174 176 173 174 182 179 162 165 174 179 179 167 163 161 149 143
140 137 139 146 150 150 160 168 168 138   0   0   6   0   0   0   0   0   0   0   0   0   0   0
  0   0   0   0
  0   0   0   0   0   0   0   0   0   0   0   0   0   0   0   0   0   0   0   0   0   0   0   0
  0   0   0   0   0   0   1   5  10  17  26  37  51  68  81  92 113 150 169 162 153 155 170 168
163 165 158 161 167 166 164 171 174 177 177 180 181 172 171 178 175 174 173 169 163 155 145 141
141 143 146 148 150 159 173 170 167 134   0   0   5   0   0   0   0   0   0   0   0   0   0   0
  0   0   0   0
  0   0   0   0   0   0   0   0   0   0   0   0   0   0   0   0   0   0   0   0   0   0   0   0
  0   0   0   0   0   0   1   5   8  14  23  32  42  57  77  90 110 150 170 163 161 159 172 172
163 157 156 159 160 161 166 173 174 181 186 180 180 180 179 176 174 167 166 169 163 159 149 145
146 147 145 145 147 162 168 160 155 127   0   0   5   0   0   0   0   0   0   0   0   0   0   0
  0   0   0   0
  0   0   0   0   0   0   0   0   0   0   0   0   0   0   0   0   0   0   0   0   0   0   0   0
  0   0   0   0   0   0   0   4   8  12  20  29  40  53  70  87 118 151 162 161 164 173 180 177
168 155 158 165 163 162 171 178 180 187 188 186 188 183 176 167 165 161 166 162 160 162 153 147
144 143 141 145 155 161 154 147 147 125   0   0   4   0   0   0   0   0   0   0   0   0   0   0
  0   0   0   0
  0   0   0   0   0   0   0   0   0   0   0   0   0   0   0   0   0   0   0   0   0   0   0   0
  0   0   0   0   0   0   0   3   7  12  18  25  35  52  71  86 103 132 151 160 167 182 172 165
159 155 161 168 173 175 186 192 195 198 197 196 188 174 160 164 161 157 158 154 161 158 154 153
150 147 148 155 157 156 148 145 153 125   0   0   4   0   0   0   0   0   0   0   0   0   0   0
  0   0   0   0
  0   0   0   0   0   0   0   0   0   0   0   0   0   0   0   0   0   0   0   0   0   0   0   0
  0   0   0   0   0   0   0   3   6  10  16  24  31  41  62  79  93 121 139 162 180 173 163 163
163 158 154 173 184 188 205 208 208 203 197 191 183 167 158 162 160 156 148 152 159 155 150 149
150 148 153 152 149 152 148 150 154 127   0   0   5   0   0   0   0   0   0   0   0   0   0   0
  0   0   0   0
  0   0   0   0   0   0   0   0   0   0   0   0   0   0   0   0   0   0   0   0   0   0   0   0
  0   0   0   0   0   0   0   2   5   9  14  21  29  36  53  71  92 126 148 170 178 160 149 160
170 169 168 175 178 186 189 191 203 205 193 181 174 163 156 154 157 156 157 158 152 150 152 155
153 149 150 147 149 149 150 153 158 135   0   0   5   0   0   0   0   0   0   0   0   0   0   0
  0   0   0   0
  0   0   0   0   0   0   0   0   0   0   0   0   0   0   0   0   0   0   0   1   0   0   0   0
  0   0   0   0   0   0   0   1   4   8  13  18  26  34  46  61  96 147 171 181 180 168 151 161
170 181 192 188 183 182 176 183 197 193 180 178 167 159 156 155 159 161 160 157 154 153 161 160
152 152 151 154 157 153 160 170 173 140   0   0   6   0   0   0   0   0   0   0   0   0   0   0
  0   0   0   0
  0   0   0   0   0   0   0   0   0   0   0   0   0   0   0   0   0   0   0   0   0   0   0   0
  0   0   0   0   0   0   0   0   3   7  12  16  23  31  45  65 102 152 178 183 175 172 170 174
180 185 185 180 179 176 177 183 186 179 174 174 168 167 167 166 162 153 150 153 153 151 151 148
148 150 153 160 160 161 177 182 172 135   0   0   5   0   0   0   0   0   0   0   0   0   0   0
  0   0   0   0
  0   0   0   0   0   0   0   0   0   0   0   0   0   0   0   0   0   0   0   0   0   0   0   0
  0   0   0   0   0   0   0   0   1   5   9  13  18  29  45  62  96 150 170 162 166 175 184 192
194 183 174 170 173 170 172 177 177 181 179 170 170 171 170 165 157 147 149 149 143 143 149 151
147 149 155 151 151 166 177 169 164 135   0   0   5   0   0   0   0   0   0   0   0   0   0   0
  0   0   0   0
  0   0   0   0   0   0   0   0   0   0   0   0   0   0   0   0   0   0   0   0   0   0   0   0
  0   0   0   0   0   0   0   0   0   4   7  10  15  26  38  52 101 149 161 164 176 190 200 204
190 175 168 170 172 168 170 172 172 173 171 177 174 170 166 158 152 154 155 146 143 145 150 155
154 157 152 148 157 172 176 165 166 138   0   0   5   0   0   0   0   0   0   0   0   0   0   0
  0   0   0   0
  0   0   0   0   0   0   0   0   0   0   0   0   0   0   0   0   0   0   0   0   0   0   0   0
  0   0   0   0   0   0   0   0   0   2   6   8  13  23  33  53  85 124 153 172 186 201 213 209
190 179 168 168 167 167 168 170 169 167 166 173 169 166 166 162 153 158 153 151 153 150 154 165
168 167 158 154 164 176 173 163 169 141   0   0   6   0   0   0   0   0   0   0   0   0   0   0
  0   0   0   0
  0   0   0   0   0   0   0   0   0   0   0   0   0   0   0   0   0   0   0   0   0   0   0   0
  0   0   0   0   0   0   0   0   0   0   4   7   9  17  30  42  56  94 131 157 182 201 201 196
189 177 171 166 168 170 171 166 167 168 172 170 165 162 163 168 166 159 157 155 151 156 164 167
172 176 164 157 168 173 170 171 177 141   0   0   5   0   0   0   0   0   0   0   0   0   0   0
  0   0   0   0
  0   0   0   0   0   0   0   0   0   0   0   0   0   0   0   0   0   0   0   0   0   0   0   0
  0   0   0   0   0   0   0   0   0   0   2   5   8  11  23  28  38  72  98 127 160 185 191 184
180 168 165 163 166 175 180 171 164 165 169 172 166 162 164 165 162 159 157 151 152 161 166 165
164 165 158 161 173 176 180 179 176 142   0   0   6   0   0   0   0   0   0   0   0   0   0   0
  0   0   0   0
  0   0   0   0   0   0   0   0   0   0   0   0   0   0   0   0   0   0   1   0   0   0   0   0
  0   0   0   0   0   0   0   0   0   0   0   3   6   9  16  22  28  47  70  96 131 161 184 191
181 168 161 160 165 179 177 167 167 171 171 174 173 170 171 166 161 157 157 158 154 158 160 157
154 155 157 171 180 178 175 164 166 139   0   0   6   0   0   0   0   0   0   0   0   0   0   0
  0   0   0   0
  0   0   0   0   0   0   0   0   0   0   0   0   0   0   0   0   0   0   1   0   0   0   0   0
  0   0   0   0   0   0   0   0   0   0   0   1   4   8  13  15  19  28  46  67  97 133 163 184
179 166 161 164 169 177 175 174 176 176 178 180 178 170 168 165 160 155 157 155 147 150 147 147
154 160 168 176 176 168 157 155 163 130   0   0   5   0   0   0   0   0   0   0   0   0   0   0
  0   0   0   0
  0   0   0   0   0   0   0   0   0   0   0   0   0   0   0   0   0   0   0   1   0   0   0   0
  0   0   0   0   0   0   0   0   0   0   0   0   2   7  10  12  15  21  32  44  67 102 125 156
177 175 174 177 181 179 185 182 174 166 168 172 174 167 158 160 155 145 144 144 141 142 146 153
160 166 176 173 169 156 150 155 155 124   0   0   4   0   0   0   0   0   0   0   0   0   0   0
  0   0   0   0
  0   0   0   0   0   0   0   0   0   0   0   0   0   0   0   0   0   0   0   0   0   0   0   0
  0   0   0   0   0   0   0   0   0   0   0   0   0   3   6  10  14  18  25  32  41  62  86 109
142 162 170 177 177 173 172 173 174 170 161 160 169 168 162 157 150 142 140 142 146 144 149 154
162 171 168 162 158 146 150 143 142 119   0   0   4   0   0   0   0   0   0   0   0   0   0   0
  0   0   0   0
  0   0   0   0   0   0   0   0   0   0   0   0   0   0   0   0   0   0   1   1   0   0   0   0
  0   0   0   1   0   0   0   0   0   0   0   0   0   0   4   7  10  14  18  24  31  41  59  79
107 138 164 174 163 156 155 162 168 176 170 159 164 166 161 158 151 147 146 144 145 146 149 153
162 160 151 150 148 145 142 132 138 123   3   0   5   0   0   0   0   0   0   0   0   0   0   0
  0   0   0   0
  0   0   0   0   0   0   0   0   0   0   0   0   0   0   0   0   0   0   1   1   1   1   1   1
  0   0   1   1   0   0   0   0   0   0   0   0   0   0   2   5   7  10  13  18  25  34  44  58
 84 122 153 159 156 158 153 146 156 172 173 160 161 165 164 169 170 161 153 148 147 148 145 152
153 142 139 135 140 139 133 129 137 119   0   0   4   0   0   0   0   0   0   0   0   0   0   0
  0   0   0   0
  0   0   0   0   0   0   0   0   0   0   0   0   0   0   0   0   0   0   1   1   1   1   1   1
  1   1   1   1   1   0   0   1   0   0   0   0   0   0   0   2   5   7  11  14  19  29  39  48
 63  89 120 137 152 155 136 140 160 168 166 154 153 158 150 148 160 158 151 143 143 143 144 152
142 138 130 125 132 131 127 124 127 107   0   0   3   0   0   0   0   0   0   0   0   0   0   0
  0   0   0   0
  0   0   0   0   0   0   0   0   0   0   0   0   0   0   0   0   0   0   1   1   1   1   1   1
  1   1   1   1   1   0   1   1   0   0   0   0   0   0   0   0   3   5   8  11  15  22  28  38
 50  63  85 119 141 136 124 143 147 140 149 158 151 140 127 128 143 146 144 140 140 144 150 145
139 132 121 125 129 125 119 113 119 103   1   0   3   0   0   0   0   0   0   0   0   0   0   0
  0   0   0   0
  0   0   0   0   0   0   0   0   0   0   0   0   0   0   0   0   0   0   1   1   1   1   1   1
  1   1   1   1   1   1   1   1   0   0   1   1   0   0   0   0   1   3   5   8  11  16  21  29
 39  56  70  88 113 123 125 128 118 117 135 151 138 123 119 125 133 132 131 138 137 135 137 134
129 118 111 114 120 114 110 108 110  95   0   0   3   0   0   0   0   0   0   0   0   0   0   0
  0   0   0   0
  0   0   0   0   0   0   0   0   0   0   0   0   0   0   0   0   0   0   1   2   1   1   1   1
  1   1   1   1   1   1   1   1   0   1   1   1   1   0   0   0   0   1   4   5   8  12  16  25
 33  42  62  76  93 107 111 108 104 118 139 132 115 115 116 121 120 122 125 127 129 122 121 121
113 105 106 108 114 105 104 101 100  87   0   0   2   0   0   0   0   0   0   0   0   0   0   0
  0   0   0   0
  0   0   0   0   0   0   0   0   0   0   0   0   0   0   0   0   0   0   1   2   2   1   1   1
  1   1   1   1   0   1   1   1   1   1   1   1   1   1   0   0   0   0   1   4   6   8  12  17
 24  31  43  61  81  89  91  96 107 111 113 118 110 106 104 111 115 117 114 113 114 110 110 106
100 101  99  99 105  98  97  93  94  81   2   0   2   0   0   0   0   0   0   0   0   0   0   0
  0   0   0   0
  0   0   0   0   0   0   0   0   0   0   0   0   0   0   0   0   0   0   1   2   2   2   1   1
  1   1   1   1   1   1   1   1   1   1   1   1   1   1   1   1   1   1   1   1   4   6   8  11
 17  26  31  40  56  74  85  90  97  94  93  98 100 103 106 106 108 110 110 102 107 107 105 101
 94  92  89  93  94  90  89  89  89  76   4   0   2   0   0   0   0   0   0   0   0   0   0   0
  0   0   0   0
  0   0   0   0   0   0   0   0   0   0   0   0   0   0   0   0   0   0   2   2   2   2   2   1
  1   1   1   1   1   1   1   1   1   1   1   1   1   1   1   1   1   1   1   1   1   4   7   9
 12  16  23  30  43  57  72  78  86  92  94  89  87  91  93  97 101 105 102  95  98  98  93  88
 84  83  84  85  85  82  81  79  78  70   4   0   2   0   0   0   0   0   0   0   0   0   0   0
  0   0   0   0
  0   0   0   0   0   0   0   0   0   0   0   0   0   0   0   0   0   0   2   3   2   2   2   2
  1   1   1   1   1   1   1   1   1   1   1   1   1   1   1   1   1   1   1   1   1   2   4   6
  9  12  16  22  30  39  49  62  71  82  84  83  82  85  86  89  98 102  95  91  85  86  87  80
 77  77  74  78  81  73  70  65  70  60   1   0   1   0   0   0   0   0   0   0   0   0   0   0
  0   0   0   0
  0   0   0   0   0   0   0   0   0   0   0   0   0   0   0   0   0   0   2   3   2   2   2   1
  1   1   1   1   1   1   1   1   1   1   1   1   1   1   1   1   1   1   1   1   1   1   2   5
  7   9  12  16  21  28  35  45  53  61  71  78  82  82  88  89  91  89  84  83  82  83  83  77
 72  70  70  71  70  64  60  60  62  55   5   0   1   0   0   0   0   0   0   0   0   0   0   0
  0   0   0   0
  0   0   0   0   0   0   0   0   0   0   0   0   0   0   0   0   0   0   2   3   2   2   2   2
  2   2   2   2   2   1   1   1   1   1   1   2   2   1   1   2   2   1   2   1   1   1   1   2
  5   6   8  12  15  21  28  33  39  47  55  62  71  75  73  82  82  74  74  74  75  75  72  69
 63  62  61  59  59  60  58  57  56  52   8   0   1   0   0   0   0   0   0   0   0   0   0   0
  0   0   0   0
  0   0   0   0   0   0   0   0   0   0   0   0   0   0   0   0   0   0   2   3   3   3   3   3
  2   2   2   2   2   1   1   1   2   2   2   2   2   1   1   2   2   2   2   1   1   2   2   1
  2   5   6   8  11  13  17  22  27  32  36  42  49  64  67  64  66  64  66  64  62  62  64  60
 53  52  51  49  48  55  57  51  44  39   8   0   1   0   0   0   0   0   0   0   0   0   0   0
  0   0   0   0
  0   0   0   0   0   0   0   0   0   0   0   0   0   0   0   0   0   0   2   3   3   3   3   3
  2   2   2   2   2   2   2   2   2   2   2   2   2   2   2   2   2   2   2   2   2   2   2   2
  2   2   4   6   8  10  12  16  18  21  25  30  37  41  45  49  49  48  50  51  47  48  51  46
 42  43  42  39  40  40  39  36  30  34   8   0   1   0   0   0   0   0   0   0   0   0   0   0
  0   0   0   0
  0   0   0   0   0   0   0   0   0   0   0   0   0   0   0   0   0   0   2   3   3   3   3   3
  2   2   2   2   2   2   2   2   2   2   2   2   2   2   2   2   2   2   2   2   2   2   2   2
  3   2   3   4   6   8   9  12  14  17  23  26  28  31  33  35  39  41  41  43  44  45  42  37
 34  36  35  33  35  34  32  28  26  30   7   0   0   0   0   0   0   0   0   0   0   0   0   0
  0   0   0   0
  0   0   0   0   0   0   0   0   0   0   0   0   0   0   0   0   0   0   2   4   3   3   3   3
  3   3   3   3   2   2   2   3   2   2   3   3   2   2   2   3   3   2   3   3   3   3   3   3
  3   3   3   3   4   6   7   9  10  12  16  19  20  23  25  28  29  30  32  35  36  33  31  30
 28  28  27  25  27  29  27  22  18  24   7   0   0   0   0   0   0   0   0   0   0   0   0   0
  0   0   0   0
  0   0   0   0   0   0   0   0   0   0   0   0   0   0   0   0   0   0   2   4   3   3   3   3
  3   3   3   3   3   3   3   3   2   2   3   3   3   3   3   3   3   3   3   3   3   3   3   3
  3   4   4   3   3   3   5   7   8   9  10  12  16  18  19  20  21  22  24  25  25  24  24  22
 21  20  21  19  20  21  19  15  13  21   6   0   0   0   0   0   0   0   0   0   0   0   0   0
  0   0   0   0
