P2
# 8-bit pgm gray
100 100
255
  0   0   0   0   0   0   0   0   0   0   0   0   0   0   0   0   0   0   0   0   0   0  19   0
 63 207 222 216 214 214 216 217 207 157 132 142 128 125 121 117 114 107 108 115 115 103  92  75
 57  53  48  38  28  24  18  15  10   7   5   5   4   4   3   3   3   3   3   3   3   3   3   3
  3   2   2   0   0   0   0   0   0   0   0   0   0   0   0   0   0   0   0   0   0   0   0   0
  0   0   0   0
  0   0   0   0   0   0   0   0   0   0   0   0   0   0   0   0   0   0   0   0   0   0  18   0
 62 206 222 215 214 217 211 168 136 130 135 122 117 124 117 117 122 129 128 122 109 106  88  65
 55  50  50  42  35  30  25  17  13   9   6   5   4   3   3   3   3   2   3   3   3   3   3   3
  3   4   3   0   0   0   0   0   0   0   0   0   0   0   0   0   0   0   0   0   0   0   0   0
  0   0   0   0
  0   0   0   0   0   0   0   0   0   0   0   0   0   0   0   0   0   0   0   0   0   0  19   0
 64 207 222 215 215 217 212 195 191 193 191 184 186 186 184 184 186 186 182 172 160 149 113  94
 92  84  78  72  66  56  43  32  26  20  16  13  11   9   6   6   6   6   7   7   7   7   7   7
  7   7   7   1   0   0   0   0   0   0   0   0   0   0   0   0   0   0   0   0   0   0   0   0
  0   0   0   0
  0   0   0   0   0   0   0   0   0   0   0   0   0   0   0   0   0   0   0   0   0   0  19   0
 63 207 223 217 219 216 213 213 211 208 203 202 205 203 202 202 198 195 189 179 169 139 111  98
 92  87  78  71  62  51  40  32  26  20  16  13  11   8   6   7   6   6   7   7   6   7   7   7
  6   6   6   1   0   0   0   0   0   0   0   0   0   0   0   0   0   0   0   0   0   0   0   0
  0   0   0   0
  0   0   0   0   0   0   0   0   0   0   0   0   0   0   0   0   0   0   0   0   0   0  18   0
 62 206 224 220 219 213 212 210 207 204 202 199 197 197 197 195 193 191 184 177 151 124 114  96
 89  83  72  64  55  43  35  28  21  17  13  11   9   6   6   6   6   6   6   6   6   6   6   6
  6   6   5   1   0   0   0   0   0   0   0   0   0   0   0   0   0   0   0   0   0   0   0   0
  0   0   0   0
  0   0   0   0   0   0   0   0   0   0   0   0   0   0   0   0   0   0   0   0   0   0  18   0
 62 206 225 219 216 212 212 212 208 205 204 203 200 198 197 196 194 188 181 167 130 118 111  97
 88  77  68  59  50  41  32  25  19  15  12  10   7   5   5   5   5   5   5   6   6   6   6   6
  6   6   5   1   0   0   0   0   0   0   0   0   0   0   0   0   0   0   0   0   0   0   0   0
  0   0   0   0
  0   0   0   0   0   0   0   0   0   0   0   0   0   0   0   0   0   0   0   0   0   0  19   0
 63 206 225 217 213 213 213 210 209 206 204 202 202 202 196 193 190 184 174 153 126 121 107  94
 85  74  66  54  43  35  28  22  17  13  11   8   5   5   5   5   5   5   5   5   5   5   5   5
  5   5   5   0   0   0   0   0   0   0   0   0   0   0   0   0   0   0   0   0   0   0   0   0
  0   0   0   0
  0   0   0   0   0   0   0   0   0   0   0   0   0   0   0   0   0   0   0   0   0   0  19   0
 63 207 223 215 214 215 215 211 209 207 205 203 202 202 199 195 186 176 154 136 125 116 106  93
 83  72  66  54  41  32  25  20  15  12  10   6   5   5   5   5   5   5   5   5   5   5   5   5
  5   5   4   0   0   0   0   0   0   0   0   0   0   0   0   0   0   0   0   0   0   0   0   0
  0   0   0   0
  0   0   0   0   0   0   0   0   0   0   0   0   0   0   0   0   0   0   0   0   0   0  18   0
 63 206 221 215 216 214 213 212 208 206 204 204 200 196 193 189 184 169 139 131 119 108 102  94
 81  71  63  47  39  31  22  18  14  11   8   5   5   5   5   5   5   5   5   5   5   5   5   5
  5   5   4   0   0   0   0   0   0   0   0   0   0   0   0   0   0   0   0   0   0   0   0   0
  0   0   0   0
  0   0   0   0   0   0   0   0   0   0   0   0   0   0   0   0   0   0   0   0   0   0  18   0
 63 205 221 216 216 216 215 212 210 206 203 202 200 197 188 182 174 148 133 127 116 107  98  91
 85  71  52  43  36  28  21  16  12  10   6   4   5   4   4   5   5   5   5   4   4   5   5   5
  4   4   4   0   0   0   0   0   0   0   0   0   0   0   0   0   0   0   0   0   0   0   0   0
  0   0   0   0
  0   0   0   0   0   0   0   0   0   0   0   0   0   0   0   0   0   0   0   0   0   0  19   0
 63 207 221 216 216 215 214 212 211 209 203 202 199 194 187 176 156 134 128 123 122 110  97  91
 85  66  49  40  32  24  19  14  12   8   4   4   4   4   4   4   4   4   4   5   4   4   4   4
  4   4   4   0   0   0   0   0   0   0   0   0   0   0   0   0   0   0   0   0   0   0   0   0
  0   0   0   0
  0   0   0   0   0   0   0   0   0   0   0   0   0   0   0   0   0   0   0   0   0   0  19   0
 63 206 221 215 216 214 211 210 207 208 204 200 196 193 186 167 142 136 129 125 121 106  95  91
 75  59  47  37  30  22  16  13  10   5   3   4   4   4   4   4   4   4   4   4   4   4   4   4
  4   4   4   0   0   0   0   0   0   0   0   0   0   0   0   0   0   0   0   0   0   0   0   0
  0   0   0   0
  0   0   0   0   0   0   0   0   0   0   0   0   0   0   0   0   0   0   0   0   0   0  19   0
 63 206 220 214 215 214 212 210 206 204 202 200 196 192 177 148 138 136 128 126 117 102  98  85
 65  53  43  34  27  21  15  12   8   3   3   3   3   3   3   3   3   4   4   4   4   4   4   4
  3   4   3   0   0   0   0   0   0   0   0   0   0   0   0   0   0   0   0   0   0   0   0   0
  0   0   0   0
  0   0   0   0   0   0   0   0   0   0   0   0   0   0   0   0   0   0   0   0   0   0  18   0
 63 205 220 214 213 213 212 211 205 201 197 195 193 185 162 141 138 133 123 119 115 108  95  76
 63  51  41  31  25  19  14  11   5   3   3   3   4   3   3   3   3   3   3   4   4   4   4   4
  3   3   3   0   0   0   0   0   0   0   0   0   0   0   0   0   0   0   0   0   0   0   0   0
  0   0   0   0
  0   0   0   0   0   0   0   0   0   0   0   0   0   0   0   0   0   0   0   0   0   0  18   0
 61 204 219 212 214 213 213 210 205 203 198 193 188 172 149 139 136 131 124 121 115 108  93  72
 61  52  42  31  23  18  14  10   4   3   3   3   3   3   3   3   3   3   3   4   3   4   4   3
  3   3   3   0   0   0   0   0   0   0   0   0   0   0   0   0   0   0   0   0   0   0   0   0
  0   0   0   0
  0   0   0   0   0   0   0   0   0   0   0   0   0   0   0   0   0   0   0   0   0   0  18   0
 62 203 219 214 214 212 210 210 204 200 195 190 178 153 141 134 130 131 126 121 116 111  95  71
 61  54  45  33  23  19  14   8   3   3   3   3   3   3   3   3   3   3   3   3   3   4   4   4
  3   3   3   0   0   0   0   0   0   0   0   0   0   0   0   0   0   0   0   0   0   0   0   0
  0   0   0   0
  0   0   0   0   0   0   0   0   0   0   0   0   0   0   0   0   0   0   0   0   0   0  18   0
 63 205 220 214 212 211 210 209 203 196 192 184 167 144 137 132 128 125 122 118 110 109 101  79
 66  55  43  32  25  20  12   8   3   3   3   3   3   3   3   3   3   3   3   3   3   3   3   3
  3   3   3   0   0   0   0   0   0   0   0   0   0   0   0   0   0   0   0   0   0   0   0   0
  0   0   0   0
  0   0   0   0   0   0   0   0   0   0   0   0   0   0   0   0   0   0   0   0   0   0  18   0
 62 203 218 211 209 207 206 205 204 195 189 177 160 149 142 135 129 125 123 117 110  99  98  87
 64  53  43  34  27  18  12   8   3   3   3   3   3   3   3   3   3   3   3   3   3   3   3   3
  3   3   3   0   0   0   0   0   0   0   0   0   0   0   0   0   0   0   0   0   0   0   0   0
  0   0   0   0
  0   0   0   0   0   0   0   0   0   0   0   0   0   0   0   0   0   0   0   0   0   0  17   0
 61 199 216 212 208 205 204 203 202 195 183 166 152 147 139 135 131 129 119 115 113 101  94  84
 65  53  44  35  27  19  13   9   3   3   3   3   3   3   3   3   3   3   3   3   3   3   3   3
  3   3   3   0   0   0   0   0   0   0   0   0   0   0   0   0   0   0   0   0   0   0   0   0
  0   0   0   0
  0   0   0   0   0   0   0   0   0   0   0   0   0   0   0   0   0   0   0   0   0   0  18   0
 61 200 215 211 209 203 202 201 197 189 175 159 150 146 142 133 131 130 120 114 110 103  97  86
 72  57  45  36  27  20  14   9   3   3   3   3   3   3   3   3   3   3   3   3   3   3   3   3
  3   3   3   0   0   0   0   0   0   0   0   0   0   0   0   0   0   0   0   0   0   0   0   0
  0   0   0   0
  0   0   0   0   0   0   0   0   0   0   0   0   0   0   0   0   0   0   0   0   0   0  17   0
 60 199 215 207 206 205 203 199 193 185 169 155 150 146 142 138 135 131 123 116 111 104  97  87
 76  64  49  38  28  21  15  10   3   2   3   2   2   3   2   3   3   2   3   3   2   2   3   3
  3   3   3   0   0   0   0   0   0   0   0   0   0   0   0   0   0   0   0   0   0   0   0   0
  0   0   0   0
  0   0   0   0   0   0   0   0   0   0   0   0   0   0   0   0   0   0   0   0   0   0  17   0
 61 198 215 207 205 205 203 196 188 179 165 160 153 147 142 138 138 134 127 123 116 107  97  91
 80  66  51  41  31  22  16  11   4   2   2   2   2   2   2   2   2   2   2   2   2   2   3   2
  2   2   2   0   0   0   0   0   0   0   0   0   0   0   0   0   0   0   0   0   0   0   0   0
  0   0   0   0
  0   0   0   0   0   0   0   0   0   0   0   0   0   0   0   0   0   0   0   0   0   0  17   0
 60 196 211 205 204 203 200 193 184 169 163 161 156 149 145 140 139 135 127 124 118 112 100  93
 86  72  55  46  34  24  17  12   5   2   2   2   2   2   2   2   2   2   2   2   2   2   2   2
  2   2   2   0   0   0   0   0   0   0   0   0   0   0   0   0   0   0   0   0   0   0   0   0
  0   0   0   0
  0   0   0   0   0   0   0   0   0   0   0   0   0   0   0   0   0   0   0   0   0   0  18   0
 62 199 211 204 205 201 195 187 177 163 160 158 153 151 148 147 145 141 134 127 122 115 103  94
 89  78  62  48  38  26  18  14   7   1   2   2   2   2   2   2   2   2   2   2   2   2   2   2
  2   2   2   0   0   0   0   0   0   0   0   0   0   0   0   0   0   0   0   0   0   0   0   0
  0   0   0   0
  0   0   0   0   0   0   0   0   0   0   0   0   0   0   0   0   0   0   0   0   0   0  18   0
 62 200 210 204 205 201 196 187 175 169 163 162 158 156 150 149 150 145 140 138 135 127 116 105
 95  80  67  52  42  29  20  14   9   2   1   1   2   2   2   2   2   1   2   2   2   2   2   2
  2   2   2   0   0   0   0   0   0   0   0   0   0   0   0   0   0   0   0   0   0   0   0   0
  0   0   0   0
  0   0   0   0   0   0   0   0   0   0   0   0   0   0   0   0   0   0   0   0   0   0  17   0
 59 196 210 203 200 195 189 179 173 171 167 161 156 152 147 147 146 141 138 138 136 131 125 118
109  97  81  59  44  34  24  15  11   3   1   2   1   1   1   2   2   1   1   2   2   2   2   2
  2   2   2   0   0   0   0   0   0   0   0   0   0   0   0   0   0   0   0   0   0   0   0   0
  0   0   0   0
  0   0   0   0   0   0   0   0   0   0   0   0   0   0   0   0   0   0   0   0   0   0  17   0
 60 192 208 201 196 191 183 167 164 163 164 160 155 154 151 149 145 144 139 138 136 130 125 118
109 105  94  75  55  39  28  18  12   6   1   2   2   1   1   1   1   1   1   2   1   2   2   2
  2   2   2   0   0   0   0   0   0   0   0   0   0   0   0   0   0   0   0   0   0   0   0   0
  0   0   0   0
  0   0   0   0   0   0   0   0   0   0   0   0   0   0   0   0   0   0   0   0   0   0  17   0
 60 193 205 199 193 185 175 163 159 158 161 160 156 155 154 151 147 149 145 142 140 136 130 125
113 106  96  80  65  49  37  22  14   9   1   1   1   2   1   1   1   1   1   1   1   1   2   2
  1   2   2   0   0   0   0   0   0   0   0   0   0   0   0   0   0   0   0   0   0   0   0   0
  0   0   0   0
  0   0   0   0   0   0   0   0   0   0   0   0   0   0   0   0   0   0   0   0   0   0  17   0
 59 193 205 195 191 180 167 161 159 159 162 166 160 157 156 153 152 152 152 148 143 138 133 131
125 117 105  84  70  54  41  26  16  12   4   1   1   1   1   2   2   1   1   1   1   1   1   2
  1   2   2   0   0   0   0   0   0   0   0   0   0   0   0   0   0   0   0   0   0   0   0   0
  0   0   0   0
  0   0   0   0   0   0   0   0   0   0   0   0   0   0   0   0   0   0   0   0   0   0  16   0
 58 191 203 192 186 172 161 159 162 161 163 163 159 156 155 154 154 156 152 155 149 142 138 134
131 126 114  91  77  62  46  31  21  14   7   1   1   1   1   2   1   1   1   1   1   1   1   1
  1   1   1   0   0   0   0   0   0   0   0   0   0   0   0   0   0   0   0   0   0   0   0   0
  0   0   0   0
  0   0   0   0   0   0   0   0   0   0   0   0   0   0   0   0   0   0   0   0   0   0  16   0
 57 188 200 187 180 168 160 157 161 159 159 160 157 156 151 152 152 154 153 156 155 145 140 138
133 129 119 100  85  70  53  36  26  17  11   3   1   1   1   2   1   1   1   1   1   1   1   1
  1   2   1   0   0   0   0   0   0   0   0   0   0   0   0   0   0   0   0   0   0   0   0   0
  0   0   0   0
  0   0   0   0   0   0   0   0   0   0   0   0   0   0   0   0   0   0   0   0   0   0  16   0
 58 185 196 187 173 161 161 158 156 158 156 158 157 154 153 153 152 150 153 155 158 152 146 143
137 129 120 104  90  78  62  45  31  20  14   8   1   1   1   1   1   1   1   1   1   1   2   2
  1   1   1   0   0   0   0   0   0   0   0   0   0   0   0   0   0   0   0   0   0   0   0   0
  0   0   0   0
  0   0   0   0   0   0   0   0   0   0   0   0   0   0   0   0   0   0   0   0   0   0  16   0
 57 185 194 182 171 161 161 159 156 156 155 153 156 155 155 156 156 156 153 152 156 156 151 150
143 134 123 107  98  86  69  53  40  25  16  12   4   1   1   1   1   1   1   1   1   1   1   1
  1   1   1   0   0   0   0   0   0   0   0   0   0   0   0   0   0   0   0   0   0   0   0   0
  0   0   0   0
  0   0   0   0   0   0   0   0   0   0   0   0   0   0   0   0   0   0   0   0   0   0  15   0
 55 182 193 175 162 160 161 160 157 155 153 154 155 156 156 159 159 156 154 155 154 154 153 155
152 140 129 120 103  87  75  61  47  31  19  14   9   2   1   1   1   1   1   1   1   1   1   1
  1   2   1   0   0   0   0   0   0   0   0   0   0   0   0   0   0   0   0   0   0   0   0   0
  0   0   0   0
  0   0   0   0   0   0   0   0   0   0   0   0   0   0   0   0   0   0   0   0   0   0  15   0
 55 180 190 173 165 160 157 158 158 158 154 153 155 154 154 156 159 160 152 157 159 154 155 159
157 143 134 124 111  96  86  68  53  39  24  16  12   6   0   1   1   1   1   1   1   1   1   1
  1   1   1   0   0   0   0   0   0   0   0   0   0   0   0   0   0   0   0   0   0   0   0   0
  0   0   0   0
  0   0   0   0   0   0   0   0   0   0   0   0   0   0   0   0   0   0   0   0   0   0  14   0
 55 176 183 169 164 161 157 158 156 157 156 153 154 154 156 156 156 161 159 156 158 157 157 161
159 147 140 129 116 106  96  81  62  43  32  20  14  10   3   0   1   1   1   1   1   1   1   1
  0   1   1   0   0   0   0   0   0   0   0   0   0   0   0   0   0   0   0   0   0   0   0   0
  0   0   0   0
  0   0   0   0   0   0   0   0   0   0   0   0   0   0   0   0   0   0   0   0   0   0  14   0
 54 175 179 164 163 159 157 157 154 153 155 155 154 155 156 157 157 158 163 159 155 158 159 160
158 150 142 137 127 113  99  90  73  51  38  26  16  14   8   2   1   1   1   1   1   1   1   1
  0   1   1   0   0   0   0   0   0   0   0   0   0   0   0   0   0   0   0   0   0   0   0   0
  0   0   0   0
  0   0   0   0   0   0   0   0   0   0   0   0   0   0   0   0   0   0   0   0   0   0  14   0
 53 173 177 160 161 162 161 157 155 152 152 154 154 155 155 152 154 157 157 160 156 153 158 160
157 152 145 140 136 121 108  95  77  63  52  38  22  17  11   5   1   1   1   1   1   1   1   1
  1   1   1   0   0   0   0   0   0   0   0   0   0   0   0   0   0   0   0   0   0   0   0   0
  0   0   0   0
  0   0   0   0   0   0   0   0   0   0   0   0   0   0   0   0   0   0   0   0   0   0  13   0
 53 166 171 160 160 159 158 158 157 152 152 154 152 154 155 155 154 157 156 158 160 154 154 162
162 156 153 147 135 124 113  98  87  73  58  45  30  22  16   9   3   0   1   1   1   1   1   1
  0   1   1   0   0   0   0   0   0   0   0   0   0   0   0   0   0   0   0   0   0   0   0   0
  0   0   0   0
  0   0   0   0   0   0   0   0   0   0   0   0   0   0   0   0   0   0   0   0   0   0  13   0
 52 163 167 158 159 160 159 153 156 156 154 155 152 154 155 153 156 155 158 159 160 158 156 159
164 162 161 150 138 130 117 106  96  78  62  52  36  26  20  12   7   1   0   1   1   1   1   1
  0   1   1   0   0   0   0   0   0   0   0   0   0   0   0   0   0   0   0   0   0   0   0   0
  0   0   0   0
  0   0   0   0   0   0   0   0   0   0   0   0   0   0   0   0   0   0   0   0   0   0  13   0
 53 161 165 159 158 158 161 157 152 155 154 154 156 154 153 152 153 156 158 158 159 163 159 159
164 166 168 152 141 132 119 112 101  86  73  62  45  35  26  14  10   5   0   1   1   0   1   1
  0   1   1   0   0   0   0   0   0   0   0   0   0   0   0   0   0   0   0   0   0   0   0   0
  0   0   0   0
  0   0   0   0   0   0   0   0   0   0   0   0   0   0   0   0   0   0   0   0   0   0  12   0
 51 163 167 161 160 157 159 158 155 155 154 154 155 155 153 153 154 156 159 159 156 165 164 160
159 169 180 160 141 131 123 116 105  93  81  70  55  38  27  18  12   9   2   0   0   0   0   0
  0   0   0   0   0   0   0   0   0   0   0   0   0   0   0   0   0   0   0   0   0   0   0   0
  0   0   0   0
  0   0   0   0   0   0   0   0   0   0   0   0   0   0   0   0   0   0   0   0   0   0  11   0
 46 154 168 161 161 159 158 158 158 158 155 157 156 156 155 153 153 154 156 157 154 160 169 163
159 163 182 169 146 136 129 121 106  94  85  73  60  43  31  22  14  11   6   0   0   0   0   0
  0   0   0   0   0   0   0   0   0   0   0   0   0   0   0   0   0   0   0   0   0   0   0   0
  0   0   0   0
  0   0   0   0   0   0   0   0   0   0   0   0   0   0   0   0   0   0   0   0   0   0  10   0
 43 150 164 161 160 160 157 155 156 160 158 158 159 156 155 154 154 158 161 159 157 161 166 164
161 168 183 175 155 140 130 122 112 100  90  78  64  49  36  25  16  12   9   2   0   0   0   0
  0   0   0   0   0   0   0   0   0   0   0   0   0   0   0   0   0   0   0   0   0   0   0   0
  0   0   0   0
  0   0   0   0   0   0   0   0   0   0   0   0   0   0   0   0   0   0   0   0   0   0  10   0
 43 151 165 160 162 160 158 156 157 159 160 158 160 157 154 155 156 159 162 161 161 165 166 170
169 173 184 180 159 143 133 124 119 104  93  89  77  55  40  30  20  14  11   5   0   0   0   0
  0   0   0   0   0   0   0   0   0   0   0   0   0   0   0   0   0   0   0   0   0   0   0   0
  0   0   0   0
  0   0   0   0   0   0   0   0   0   0   0   0   0   0   0   0   0   0   0   0   0   0  11   0
 47 154 166 163 165 163 160 158 160 161 163 163 159 161 161 157 154 157 157 160 160 161 167 173
175 176 187 183 155 146 135 128 120 109  98  94  89  64  46  36  23  17  12   7   1   0   0   0
  0   0   0   0   0   0   0   0   0   0   0   0   0   0   0   0   0   0   0   0   0   0   0   0
  0   0   0   0
  0   0   0   0   0   0   0   0   0   0   0   0   0   0   0   0   0   0   0   0   0   0  11   0
 45 157 169 164 166 167 164 159 160 162 163 166 167 163 161 161 160 160 157 161 162 162 168 170
172 181 188 179 164 150 138 130 121 114 106 100  94  72  54  42  28  19  13   9   3   0   0   0
  0   0   0   0   0   0   0   0   0   0   0   0   0   0   0   0   0   0   0   0   0   0   0   0
  0   0   0   0
  0   0   0   0   0   0   0   0   0   0   0   0   0   0   0   0   0   0   0   0   0   0  11   0
 44 155 168 165 166 166 167 163 163 163 163 163 167 168 163 162 165 164 159 163 166 169 173 171
170 175 175 171 169 153 144 141 134 121 110 108 101  77  65  45  34  23  15  11   5   0   0   0
  0   0   0   0   0   0   0   0   0   0   0   0   0   0   0   0   0   0   0   0   0   0   0   0
  0   0   0   0
  0   0   0   0   0   0   0   0   0   0   0   0   0   0   0   0   0   0   0   0   0   0  11   0
 48 156 165 159 163 163 162 165 165 164 163 161 162 165 167 163 165 161 162 163 163 166 170 170
167 167 171 171 174 162 148 146 143 134 120 115 108  81  74  50  38  28  18  12   8   1   0   0
  0   0   0   0   0   0   0   0   0   0   0   0   0   0   0   0   0   0   0   0   0   0   0   0
  0   0   0   0
  0   0   0   0   0   0   0   0   0   0   0   0   0   0   0   0   0   0   0   0   0   0  12   0
 48 161 172 164 159 163 163 162 164 163 162 164 164 165 165 169 167 160 163 167 162 163 167 166
167 164 164 165 168 168 153 147 141 132 126 123 107  89  79  56  43  31  22  15  10   3   0   0
  0   0   0   0   0   0   0   0   0   0   0   0   0   0   0   0   0   0   0   0   0   0   0   0
  0   0   0   0
  0   0   0   0   0   0   0   0   0   0   0   0   0   0   0   0   0   0   0   0   0   0  12   0
 47 163 174 166 162 160 164 164 163 165 164 163 163 164 168 168 167 167 164 167 167 165 164 164
162 159 164 164 159 165 166 151 145 136 131 127 114 106  86  64  50  40  29  16  12   5   0   0
  0   0   0   0   0   0   0   0   0   0   0   0   0   0   0   0   0   0   0   0   0   0   0   0
  0   0   0   0
  0   0   0   0   0   0   0   0   0   0   0   0   0   0   0   0   0   0   0   0   0   0  12   0
 46 161 176 166 164 163 161 161 162 165 164 165 162 163 166 167 169 171 170 168 170 167 161 163
159 161 166 166 165 161 167 159 149 146 141 130 122 123 111  84  67  50  31  21  15   8   0   0
  0   0   0   0   0   0   0   0   0   0   0   0   0   0   0   0   0   0   0   0   0   0   0   0
  0   0   0   0
  0   0   0   0   0   0   0   0   0   0   0   0   0   0   0   0   0   0   0   0   0   0  11   0
 46 159 176 172 166 164 165 162 161 162 163 167 167 164 162 168 171 172 180 177 169 165 155 157
163 164 162 160 165 161 164 162 164 163 146 136 134 137 134  98  79  64  48  32  18  12   0   0
  0   0   0   0   0   0   0   0   0   0   0   0   0   0   0   0   0   0   0   0   0   0   0   0
  0   0   0   0
  0   0   0   0   0   0   0   0   0   0   0   0   0   0   0   0   0   0   0   0   0   0  12   0
 48 160 171 168 167 165 167 166 163 161 162 163 168 161 161 172 174 173 178 175 171 165 157 159
164 165 161 157 164 165 162 168 180 171 156 148 145 140 126 103  90  76  57  35  24  14   0   0
  0   0   0   0   0   0   0   0   0   0   0   0   0   0   0   0   0   0   0   0   0   0   0   0
  0   0   0   0
  0   0   0   0   0   0   0   0   0   0   0   0   0   0   0   0   0   0   0   0   0   0  12   0
 46 160 175 169 167 163 162 165 164 163 163 163 165 164 157 164 173 173 171 169 172 172 162 160
161 160 159 160 165 170 168 174 166 160 152 141 134 122 109 103  90  70  48  31  26  16   1   0
  0   0   0   0   0   0   0   0   0   0   0   0   0   0   0   0   0   0   0   0   0   0   0   0
  0   0   0   0
  0   0   0   0   0   0   0   0   0   0   0   0   0   0   0   0   0   0   0   0   0   0  12   0
 47 161 176 175 174 166 164 162 162 163 167 167 162 163 165 166 170 173 173 170 170 175 172 165
162 167 170 170 166 165 167 166 162 160 147 134 126 120 114 105  85  60  43  33  30  19   1   0
  0   0   0   0   0   0   0   0   0   0   0   0   0   0   0   0   0   0   0   0   0   0   0   0
  0   0   0   0
  0   0   0   0   0   0   0   0   0   0   0   0   0   0   0   0   0   0   0   0   0   0  12   0
 46 160 175 172 176 176 171 166 165 165 164 168 166 164 167 171 171 175 174 172 170 170 172 171
179 187 189 187 182 170 159 158 160 152 144 139 134 134 127 111  85  57  45  42  42  22   0   1
  0   0   0   0   0   0   0   0   0   0   0   0   0   0   0   0   0   0   0   0   0   0   0   0
  0   0   0   0
  0   0   0   0   0   0   0   0   0   0   0   0   0   0   0   0   0   0   0   0   0   0  11   0
 45 158 175 173 173 173 173 172 171 171 169 167 171 171 167 170 176 176 172 169 172 169 166 172
189 196 196 191 185 170 159 162 159 153 148 145 144 139 130 112  91  60  42  43  48  25   0   2
  0   0   0   0   0   0   0   0   0   0   0   0   0   0   0   0   0   0   0   0   0   0   0   0
  0   0   0   0
  0   0   0   0   0   0   0   0   0   0   0   0   0   0   0   0   0   0   0   0   0   0  12   0
 46 161 172 168 173 173 174 172 171 172 173 166 166 169 167 168 172 175 179 175 170 168 166 172
187 197 200 197 192 177 161 158 157 162 164 157 152 149 128 102  83  67  47  41  48  25   0   2
  0   0   0   0   0   0   0   0   0   0   0   0   0   0   0   0   0   0   0   0   0   0   0   0
  0   0   0   0
  0   0   0   0   0   0   0   0   0   0   0   0   0   0   0   0   0   0   0   0   0   0  11   0
 45 160 173 165 168 169 172 174 173 173 175 172 170 172 174 173 172 178 186 182 169 167 163 163
171 190 198 198 195 186 170 157 154 157 161 156 141 132 116  92  71  68  49  40  45  22   1   1
  0   0   0   0   0   0   0   0   0   0   0   0   0   0   0   0   0   0   0   0   0   0   0   0
  0   0   0   0
  0   0   0   0   0   0   0   0   0   0   0   0   0   0   0   0   0   0   0   0   0   0  11   0
 45 154 168 163 165 167 171 175 174 173 175 179 181 178 175 173 173 177 183 176 168 168 164 158
158 170 183 187 182 180 167 155 142 147 150 141 123 116 111  90  72  63  43  37  37  20   1   0
  0   0   0   0   0   0   0   0   0   0   0   0   0   0   0   0   0   0   0   0   0   0   0   0
  0   0   0   0
  0   0   0   0   0   0   0   0   0   0   0   0   0   0   0   0   0   0   0   0   0   0  11   0
 48 157 166 158 159 162 166 169 171 172 171 170 171 176 176 172 173 173 175 170 165 166 170 167
165 167 170 171 171 174 168 156 144 142 136 127 114 111  98  85  73  60  47  41  35  15   1   0
  0   0   0   0   0   0   0   0   0   0   0   0   0   0   0   0   0   0   0   0   0   0   0   0
  0   0   0   0
  0   0   0   0   0   0   0   0   0   0   0   0   0   0   0   0   0   0   0   0   0   0  12   0
 47 160 168 161 163 162 163 163 169 172 171 167 164 163 166 170 170 172 179 177 170 167 166 163
169 174 174 173 173 171 167 162 157 149 140 133 140 125  94  86  78  66  53  47  28   9   1   0
  0   0   0   0   0   0   0   0   0   0   0   0   0   0   0   0   0   0   0   0   0   0   0   0
  0   0   0   0
  0   0   0   0   0   0   0   0   0   0   0   0   0   0   0   0   0   0   0   0   0   0  12   0
 47 158 169 165 165 164 166 165 167 169 167 168 170 168 166 163 165 166 174 181 178 177 172 163
162 169 172 175 171 169 170 163 158 158 163 170 163 134 106  95  87  71  56  36  15   8   0   0
  0   0   0   0   0   0   0   0   0   0   0   0   0   0   0   0   0   0   0   0   0   0   0   0
  0   0   0   0
  0   0   0   0   0   0   0   0   0   0   0   0   0   0   0   0   0   0   0   0   0   0  12   0
 49 161 171 167 168 166 166 166 167 173 167 165 167 166 166 166 165 167 169 173 172 172 178 178
176 175 176 177 175 175 178 173 170 165 162 162 148 129 117 106  84  60  40  17  13   6   0   0
  0   0   0   0   0   0   0   0   0   0   0   0   0   0   0   0   0   0   0   0   0   0   0   0
  0   0   0   0
  0   0   0   0   0   0   0   0   0   0   0   0   0   0   0   0   0   0   0   0   0   0  12   0
 48 162 171 165 168 168 168 170 168 176 177 168 164 169 165 161 164 167 167 166 167 162 163 167
176 181 183 182 178 171 164 162 160 154 147 144 133 133 142 112  63  48  32  18  13   4   0   0
  0   0   0   0   0   0   0   0   0   0   0   0   0   0   0   0   0   0   0   0   0   0   0   0
  0   0   0   0
  0   0   0   0   0   0   0   0   0   0   0   0   0   0   0   0   0   0   0   0   0   0  12   0
 48 162 175 169 170 172 172 176 175 175 174 173 168 168 175 166 159 161 163 161 162 162 163 166
163 166 167 179 179 158 152 146 143 146 144 138 135 127 118  82  48  35  24  16  10   3   0   0
  0   0   0   0   0   0   0   0   0   0   0   0   0   0   0   0   0   0   0   0   0   0   0   0
  0   0   0   0
  0   0   0   0   0   0   0   0   0   0   0   0   0   0   0   0   0   0   0   0   0   0  12   0
 44 162 179 173 171 174 176 179 185 176 168 166 166 163 172 178 170 165 164 161 162 165 166 166
162 164 161 161 170 164 156 143 136 129 134 147 145 119  79  53  39  27  19  12   8   2   0   0
  0   0   0   0   0   0   0   0   0   0   0   0   0   0   0   0   0   0   0   0   0   0   0   0
  0   0   0   0
  0   0   0   0   0   0   0   0   0   0   0   0   0   0   0   0   0   0   0   0   0   0  11   0
 43 157 172 170 173 170 173 176 176 178 170 164 162 163 165 170 175 174 170 164 160 159 160 162
166 172 175 167 160 157 156 153 147 148 156 154 131  92  58  46  35  27  18  10   7   1   0   0
  0   0   0   0   0   0   0   0   0   0   0   0   0   0   0   0   0   0   0   0   0   0   0   0
  0   0   0   0
  0   0   0   0   0   0   0   0   0   0   0   0   0   0   0   0   0   0   0   0   0   0  11   0
 45 157 170 168 170 171 174 176 171 174 173 167 163 164 165 166 165 168 172 170 166 159 158 158
161 168 183 185 176 165 163 168 175 172 152 131 105  73  56  45  31  22  15   9   5   0   0   0
  0   0   0   0   0   0   0   0   0   0   0   0   0   0   0   0   0   0   0   0   0   0   0   0
  0   0   0   0
  0   0   0   0   0   0   0   0   0   0   0   0   0   0   0   0   0   0   0   0   0   0  12   0
 47 159 167 164 166 168 171 173 174 173 173 173 169 164 157 161 166 165 164 168 172 166 158 156
157 167 183 188 182 172 173 170 171 158 136 113  83  62  49  34  23  17  11   7   3   0   0   0
  0   0   0   0   0   0   0   0   0   0   0   0   0   0   0   0   0   0   0   0   0   0   0   0
  0   0   0   0
  0   0   0   0   0   0   0   0   0   0   0   0   0   0   0   0   0   0   0   0   0   0  11   0
 45 160 172 163 163 164 165 165 165 167 169 169 170 168 161 155 156 161 160 161 164 167 163 159
159 166 177 180 168 161 156 148 142 129 120  96  73  48  35  27  19  14   8   5   1   0   0   0
  0   0   0   0   0   0   0   0   0   0   0   0   0   0   0   0   0   0   0   0   0   0   0   0
  0   0   0   0
  0   0   0   0   0   0   0   0   0   0   0   0   0   0   0   0   0   0   0   0   0   0  11   0
 44 153 169 165 165 162 163 164 163 163 165 164 167 167 164 157 153 157 160 159 158 158 161 162
168 170 171 170 161 156 143 134 129 115 107  84  68  48  35  26  16  11   8   3   0   0   0   0
  0   0   0   0   0   0   0   0   0   0   0   0   0   0   0   0   0   0   0   0   0   0   0   0
  0   0   0   0
  0   0   0   0   0   0   0   0   0   0   0   0   0   0   0   0   0   0   0   0   0   0  10   0
 43 151 164 162 168 164 157 162 162 160 163 163 162 164 166 161 153 153 152 155 155 155 157 159
165 175 171 155 152 145 132 115 106  96  80  65  52  43  32  19  13  10   5   0   0   0   0   0
  0   0   0   0   0   0   0   0   0   0   0   0   0   0   0   0   0   0   0   0   0   0   0   0
  0   0   0   0
  0   0   0   0   0   0   0   0   0   0   0   0   0   0   0   0   0   0   0   0   0   0  11   0
 44 154 166 162 167 168 155 156 160 156 158 161 160 163 164 165 161 155 151 153 156 151 150 157
158 156 155 150 140 134 121 103  94  81  65  55  42  32  25  16  11   8   2   0   0   0   0   0
  0   0   0   0   0   0   0   0   0   0   0   0   0   0   0   0   0   0   0   0   0   0   0   0
  0   0   0   0
  0   0   0   0   0   0   0   0   0   0   0   0   0   0   0   0   0   0   0   0   0   0  12   0
 48 157 166 160 160 165 159 153 158 156 155 156 153 154 161 161 159 159 157 151 151 154 153 154
148 147 148 144 127 120 115 102  89  76  57  45  34  23  17  14  10   4   0   0   0   0   0   0
  0   0   0   0   0   0   0   0   0   0   0   0   0   0   0   0   0   0   0   0   0   0   0   0
  0   0   0   0
  0   0   0   0   0   0   0   0   0   0   0   0   0   0   0   0   0   0   0   0   0   0  10   0
 47 148 153 152 155 158 161 156 155 156 152 152 153 149 151 159 152 147 154 153 151 158 164 164
157 157 147 129 117 106 102  94  78  67  49  37  25  18  12   8   5   0   0   0   0   0   0   0
  0   0   0   0   0   0   0   0   0   0   0   0   0   0   0   0   0   0   0   0   0   0   0   0
  0   0   0   0
  0   0   0   0   0   0   0   0   0   0   0   0   0   0   0   0   0   0   0   0   0   0   9   0
 42 142 147 143 147 153 157 154 153 151 148 147 145 147 143 143 150 143 141 145 147 156 158 160
157 140 126 117 108  99  89  78  65  56  41  28  19  13   8   6   1   0   0   0   0   0   0   0
  0   0   0   0   0   0   0   0   0   0   0   0   0   0   0   0   0   0   0   0   0   0   0   0
  0   0   0   0
  0   0   0   0   0   0   0   0   0   0   0   0   0   0   0   0   0   0   0   0   0   0   8   0
 38 133 143 139 139 146 144 147 148 147 141 140 139 137 136 133 137 147 138 130 131 135 145 145
131 115 115 108  97  86  77  65  52  41  28  21  15   9   7   3   0   0   0   1   0   0   0   0
  0   0   0   0   0   0   0   0   0   0   0   0   0   0   0   0   0   0   0   0   0   0   0   0
  0   0   0   0
  0   0   0   0   0   0   0   0   0   0   0   0   0   0   0   0   0   0   0   0   0   0   7   0
 37 124 130 124 131 134 130 135 139 139 138 135 132 131 130 125 127 138 141 129 121 118 127 141
117 104 102  93  88  75  63  52  41  32  21  16  10   7   4   0   0   0   0   0   0   0   0   0
  0   0   0   0   0   0   0   0   0   0   0   0   0   0   0   0   0   0   0   0   0   0   0   0
  0   0   0   0
  0   0   0   0   0   0   0   0   0   0   0   0   0   0   0   0   0   0   0   0   0   0   7   0
 38 121 123 114 116 120 117 119 123 120 127 130 125 124 122 116 117 122 120 124 118 108 110 121
105  92  84  77  71  63  52  40  32  23  15  11   8   5   1   0   0   0   0   0   0   0   0   0
  0   0   0   0   0   0   0   0   0   0   0   0   0   0   0   0   0   0   0   0   0   0   0   0
  0   0   0   0
  0   0   0   0   0   0   0   0   0   0   0   0   0   0   0   0   0   0   0   0   0   0   5   0
 33 109 111 105 108 109 106 108 111 109 105 111 113 110 113 113 109 106 102 106 111 103 102 100
 90  81  72  64  55  46  38  31  25  15  10   7   5   1   0   0   0   0   0   0   0   0   0   0
  0   0   0   0   0   0   0   0   0   0   0   0   0   0   0   0   0   0   0   0   0   0   0   0
  0   0   0   0
  0   0   0   0   0   0   0   0   0   0   0   0   0   0   0   0   0   0   0   0   0   0   4   0
 28  95  95  89  94  92  98 101 104 101  96  95  97  96 102 100  98 101 100  92  96  99  90  84
 82  69  57  51  42  33  26  20  16  10   7   4   1   0   0   0   0   0   0   0   0   0   0   0
  0   0   0   0   0   0   0   0   0   0   0   0   0   0   0   0   0   0   0   0   0   0   0   0
  0   0   0   0
  0   0   0   0   0   0   0   0   0   0   0   0   0   0   0   0   0   0   0   0   0   0   3   0
 25  82  81  81  84  81  80  75  78  78  78  79  82  82  82  80  83  83  81  76  75  81  74  70
 61  54  45  36  30  24  17  13   9   6   4   1   0   0   0   0   0   0   0   0   0   0   0   0
  0   0   0   0   0   0   0   0   0   0   0   0   0   0   0   0   0   0   0   0   0   0   0   0
  0   0   0   0
  0   0   0   0   0   0   0   0   0   0   0   0   0   0   0   0   0   0   0   0   0   0   2   0
 20  73  68  63  64  62  60  58  58  59  60  64  67  65  64  66  67  61  60  62  60  58  57  51
 44  39  32  25  20  16  12   8   5   3   1   0   0   0   0   0   0   0   0   0   0   0   0   0
  0   0   0   0   0   0   0   0   0   0   0   0   0   0   0   0   0   0   0   0   0   0   0   0
  0   0   0   0
  0   0   0   0   0   0   0   0   0   0   0   0   0   0   0   0   0   0   0   0   0   0   2   0
 17  58  54  47  40  41  42  43  43  45  47  49  53  52  51  50  49  49  49  47  48  44  38  36
 31  26  20  16  13  10   7   5   2   0   0   0   0   0   0   0   0   0   0   0   0   0   0   0
  0   0   0   0   0   0   0   0   0   0   0   0   0   0   0   0   0   0   0   0   0   0   0   0
  0   0   0   0
  0   0   0   0   0   0   0   0   0   0   0   0   0   0   0   0   0   0   0   0   0   0   1   0
 10  39  34  28  27  29  27  27  28  28  30  33  36  37  36  35  36  34  33  34  33  29  25  22
 20  18  13  10   8   6   3   1   0   0   0   0   0   0   0   0   0   0   0   0   0   0   0   0
  0   0   0   0   0   0   0   0   0   0   0   0   0   0   0   0   0   0   0   0   0   0   0   0
  0   0   0   0
  0   0   0   0   0   0   0   0   0   0   0   0   0   0   0   0   0   0   0   0   0   0   0   0
  3  20  19  15  16  17  17  16  18  19  20  22  23  23  24  24  25  26  24  23  20  18  16  15
 13  10   8   6   4   2   0   0   0   0   0   0   0   0   0   0   0   0   0   0   0   0   0   0
  0   0   0   0   0   0   0   0   0   0   0   0   0   0   0   0   0   0   0   0   0   0   0   0
  0   0   0   0
  0   0   0   0   0   0   0   0   0   0   0   0   0   0   0   0   0   0   0   0   0   0   0   0
  2  12  10   9  10  11  12  11  11  12  13  14  13  14  16  16  17  17  15  14  12  11  10   9
  7   6   4   2   1   0   0   0   0   0   0   0   0   0   0   0   0   0   0   0   0   0   0   0
  0   0   0   0   0   0   0   0   0   0   0   0   0   0   0   0   0   0   0   0   0   0   0   0
  0   0   0   0
  0   0   0   0   0   0   0   0   0   0   0   0   0   0   0   0   0   0   0   0   0   0   0   0
  1   4   4   4   4   5   7   7   5   6   7   8   9   9  10  10   9  10  10  10   9   7   6   5
  3   2   1   0   0   0   0   0   0   0   0   0   0   0   0   0   0   0   0   0   0   0   0   0
  0   0   0   0   0   0   0   0   0   0   0   0   0   0   0   0   0   0   0   0   0   0   0   0
  0   0   0   0
  0   0   0   0   0   0   0   0   0   0   0   0   0   0   0   0   0   0   0   0   0   0   0   0
  0   0   0   0   0   0   1   0   0   1   2   3   5   5   5   5   5   4   4   4   3   2   1   0
  0   0   0   0   0   0   0   0   0   0   0   0   0   0   0   0   0   0   0   0   0   0   0   0
  0   0   0   0   0   0   0   0   0   0   0   0   0   0   0   0   0   0   0   0   0   0   0   0
  0   0   0   0
  0   0   0   0   0   0   0   0   0   0   0   0   0   0   0   0   0   0   0   0   0   0   0   0
  1   2   0   0   0   0   0   0   0   0   0   0   0   0   0   0   0   0   0   0   0   0   0   0
  0   0   0   0   0   0   0   0   0   0   0   0   0   0   0   0   0   0   0   0   0   0   0   0
  0   0   0   0   0   0   0   0   0   0   0   0   0   0   0   0   0   0   0   0   0   0   0   0
  0   0   0   0
  0   0   0   0   0   0   0   0   0   0   0   0   0   0   0   0   0   0   0   0   0   0   0   0
  2   5   0   0   0   0   0   0   0   0   0   0   0   0   0   0   0   0   0   0   0   0   0   0
  0   0   0   0   0   0   0   0   0   0   0   0   0   0   0   0   0   0   0   0   0   0   0   1
  0   0   0   0   0   0   0   0   0   0   0   0   0   0   0   0   0   0   0   0   0   0   0   0
  0   0   0   0
  0   0   0   0   0   0   0   0   0   0   0   0   0   0   0   0   0   0   0   0   0   0   0   0
  2   8   0   0   0   0   0   0   0   0   0   0   0   0   0   0   0   0   0   0   0   0   0   0
  0   0   0   0   0   0   0   0   0   0   0   0   0   0   0   0   0   0   0   0   0   0   0   1
  1   0   0   0   0   0   0   0   0   0   0   0   0   0   0   0   0   0   0   0   0   0   0   0
  0   0   0   0
  0   0   0   0   0   0   0   0   0   0   0   0   0   0   0   0   0   0   0   0   0   0   0   0
  3  13   2   0   0   0   0   0   0   0   0   0   0   0   0   0   0   0   0   0   0   0   0   0
  0   0   0   0   0   0   0   0   0   0   0   0   0   0   0   0   0   0   0   0   0   0   0   0
  0   0   0   0   0   0   0   0   0   0   0   0   0   0   0   0   0   0   0   0   0   0   0   0
  0   0   0   0
  0   0   0   0   0   0   0   0   0   0   0   0   0   0   0   0   0   0   0   0   0   0   0   0
  3  17   4   0   0   0   0   0   0   0   0   0   0   0   0   0   0   0   0   0   0   0   0   0
  0   0   0   0   0   0   0   0   0   0   0   0   0   0   0   0   0   0   0   0   0   0   0   0
  0   0   0   0   0   0   0   0   0   0   0   0   0   0   0   0   0   0   0   0   0   0   0   0
  0   0   0   0
  0   0   0   0   0   0   0   0   0   0   0   0   0   0   0   0   0   0   0   0   0   0   0   0
  4  21   9   0   0   0   0   0   0   0   0   0   0   0   0   0   0   0   0   0   0   0   0   0
  0   0   0   0   0   0   0   0   0   0   0   0   0   0   0   0   0   0   0   0   0   0   0   0
  0   0   0   0   0   0   0   0   0   0   0   0   0   0   0   0   0   0   0   0   0   0   0   0
  0   0   0   0
  0   0   0   0   0   0   0   0   0   0   0   0   0   0   0   0   0   0   0   0   0   0   0   0
  5  22  12   1   0   0   0   0   0   0   0   0   0   0   0   0   0   0   0   0   0   0   0   0
  0   0   0   0   0   0   0   0   0   0   0   0   0   0   0   0   1   0   0   0   0   0   0   0
  0   0   0   0   0   0   0   0   0   0   0   0   0   0   0   0   0   0   0   0   0   0   0   0
  0   0   0   0
  0   0   0   0   0   0   0   0   0   0   0   0   0   0   0   0   0   0   0   0   0   0   0   0
  5  23  13   3   0   0   0   0   0   0   0   0   0   0   0   0   0   0   0   0   0   0   0   0
  0   0   0   0   0   0   0   0   0   0   0   0   0   0   0   0   0   0   0   0   0   0   0   0
  0   0   0   0   0   0   0   0   0   0   0   0   0   0   0   0   0   0   0   0   0   0   0   0
  0   0   0   0
  0   0   0   0   0   0   0   0   0   0   0   0   0   0   0   0   0   0   0   0   0   0   0   0
  6  26  15   5   0   0   0   0   0   0   0   0   0   0   0   0   0   0   0   0   0   0   0   0
  0   0   0   0   0   0   0   0   0   0   0   0   0   0   0   0   0   0   0   0   0   0   0   0
  0   0   0   0   0   0   0   0   0   0   0   0   0   0   0   0   0   0   0   0   0   0   0   0
  0   0   0   0
