P2
# 8-bit pgm gray
100 100
255
  0 185 216 204 202 201 198 194 191 187 183 176 167 152 136 132 130 127 127 129 129 130 131 130
131 131 125 120 113 107  98  89  78  67  55  43  33  23  17  11   8   4   0   0   0   0   0   0
  0   0   0   0   0   0   0   0   0   0   0   0   0   0   0   0   0   0   0   0   0   0   0   0
  0   0   0   0   0   0   0   9   0  39 136 176 189 195 196 192 186 175 146  68   0  11   0   0
  0   0   0   0
  0 187 217 204 202 199 197 193 188 183 180 172 160 145 135 131 131 130 130 129 129 127 129 131
131 132 127 122 116 110 102  94  84  71  59  48  36  26  20  15  11   7   4   0   0   0   0   0
  0   0   0   0   0   0   0   0   0   0   0   0   0   0   0   0   0   0   0   0   0   0   0   0
  0   0   0   0   0   0   0   1   0   7  44  60  65  66  62  53  42  27   0   0   1   0   0   0
  0   0   0   0
  0 185 215 203 202 198 196 193 185 180 176 170 154 137 135 133 133 135 136 134 132 129 130 131
133 132 129 123 117 110 101  92  84  76  63  51  39  31  22  16  13   9   6   5   1   0   0   0
  0   0   0   0   0   0   0   0   0   0   0   0   0   0   0   0   0   0   0   0   0   0   0   0
  0   0   0   0   0   0   0   0   1   0   0   0   0   0   0   0   0   0   0   0   0   0   0   0
  0   0   0   0
  0 185 213 201 200 197 195 189 183 178 174 166 148 134 133 133 132 131 133 134 133 134 132 131
131 131 135 131 120 115 109  97  88  80  67  54  44  36  25  19  15  11   8   7   5   2   0   0
  0   0   0   0   0   0   0   0   0   0   0   0   0   0   0   0   0   0   0   0   0   0   0   0
  0   0   0   0   0   0   0   0   0   0  11  20  23  24  23  23  21  19  12   2   0   0   0   0
  0   0   0   0
  0 185 214 201 199 195 192 186 182 177 172 160 139 135 134 132 133 132 131 130 131 134 134 131
129 129 128 132 125 116 115 106  94  83  72  61  49  41  32  25  19  15  11   8   7   6   3   0
  0   0   0   0   0   0   0   0   0   0   0   0   0   0   0   0   0   0   0   0   0   0   0   0
  0   0   0   0   0   0   0   0   0   0   0   3   3   0   8   6   5   2   0   1   0   0   0   0
  0   0   0   0
  0 181 211 200 199 194 188 183 179 173 165 153 138 137 135 138 137 132 134 133 132 132 133 133
131 131 128 125 125 121 114 109 104  91  80  70  58  47  37  31  25  19  15  12   9   7   6   4
  1   0   0   0   0   0   0   0   0   0   0   0   0   0   0   0   0   0   0   0   0   0   0   0
  0   0   0   0   0   0   0   0   0   0   1   5   0  31  38  12   0  17  19   0   1   0   0   0
  0   0   0   0
  4 180 208 200 200 195 190 183 178 171 159 144 134 136 134 135 136 132 134 134 133 131 130 133
134 131 132 130 128 125 118 110 108 101  89  77  66  56  47  39  31  25  21  16  12   9   8   7
  4   1   0   0   0   0   0   0   0   0   0   0   0   0   0   0   0   0   0   0   0   0   0   0
  0   0   0   0   0   0   0   0   0   0   0   4   0  35  42   6   0  35  42   0   3   0   0   0
  0   0   0   0
  2 178 207 198 198 194 189 185 181 171 158 143 138 139 137 134 135 135 133 133 135 135 133 131
132 132 132 132 130 128 123 113 107 102  99  91  79  67  55  47  40  33  27  22  18  14  11   8
  7   5   1   0   0   0   0   0   0   0   0   0   0   0   0   0   0   0   0   0   0   0   0   0
  0   0   0   0   0   0   0   0   0   0   0   2   1   2  44  33   0  39  45   0   3   0   0   0
  0   0   0   0
  0 176 207 197 194 190 186 180 175 166 152 141 139 138 138 137 136 135 133 133 133 133 135 135
136 137 134 132 131 127 126 122 115 109 101  95  89  78  67  57  48  42  35  29  23  19  15  11
  8   7   5   2   0   0   0   0   0   0   0   0   0   0   0   0   0   0   0   0   0   0   0   0
  0   0   0   0   0   0   0   0   0   0   0   2   0  12  32  22   0  28  32   0   2   0   0   0
  0   0   0   0
  0 177 206 196 193 189 181 174 168 159 147 141 138 138 138 138 137 136 134 133 131 129 128 131
135 133 132 133 134 132 130 128 121 117 112  99  88  85  78  69  58  49  41  35  28  24  19  15
 12  10   7   5   2   0   0   0   0   0   0   0   0   0   0   0   0   0   0   0   0   0   0   0
  0   0   0   0   0   0   0   0   0   0   0   1   2   2   0   0   4   1   0   0   0   0   0   0
  0   0   0   0
  0 177 205 195 191 187 179 172 163 151 141 138 138 138 137 137 135 132 133 133 133 133 131 132
132 131 134 134 136 134 126 122 119 114 111 107  99  90  82  75  70  62  51  42  36  30  24  21
 17  13  10   7   5   2   0   0   0   0   0   0   0   0   0   0   0   0   0   0   0   0   0   0
  0   0   0   0   0   0   0   0   0   0   0   1   1   1   3   3   2   2   0   0   0   0   0   0
  0   0   0   0
  0 176 204 190 188 182 178 173 161 146 138 135 132 133 132 132 130 127 131 134 134 134 133 135
134 137 134 131 131 129 126 119 118 115 110 107 105 101  93  85  75  68  61  53  44  37  31  26
 20  15  12   9   7   5   3   0   0   0   0   0   0   0   0   0   0   0   0   0   0   0   0   0
  0   0   0   0   0   0   0   0   0   0   0   0   1   1   2   2   2   2   1   1   0   0   0   0
  0   0   0   0
  0 175 203 190 185 178 172 165 156 144 138 139 135 133 132 132 131 126 130 133 131 132 131 130
133 134 132 129 128 129 130 124 121 120 113 110 105 100  99  96  88  78  69  62  54  45  40  31
 25  20  17  12   9   7   6   3   0   0   0   0   0   0   0   0   0   0   0   0   0   0   0   0
  0   0   0   0   0   0   0   0   0   0   0   0   0   1   1   2   2   1   0   0   0   0   0   0
  0   0   0   0
  0 175 202 187 181 177 171 161 152 140 134 138 136 133 135 135 132 132 132 132 132 135 135 134
134 131 129 134 132 128 130 129 124 123 117 114 111 106 100  96  94  90  85  74  63  54  48  39
 31  25  21  15  12   9   7   6   3   0   0   0   0   0   0   0   0   0   0   0   0   0   0   0
  0   0   0   0   0   0   0   0   0   0   0   0   0   0   1   1   1   0   0   0   0   0   0   0
  0   0   0   0
  0 174 200 185 180 176 168 158 148 137 133 137 136 131 132 133 132 132 130 131 133 133 132 131
131 130 130 131 133 129 130 131 127 126 122 118 113 110 107 103  96  91  89  88  80  69  55  44
 37  31  25  20  15  12   9   7   6   3   0   0   0   0   0   0   0   0   0   0   0   0   0   0
  0   0   0   0   0   0   0   0   0   0   0   0   0   0   0   1   1   0   0   0   0   0   0   0
  0   0   0   0
  2 171 196 185 182 174 166 155 145 137 134 134 135 132 130 128 130 133 133 131 127 129 129 131
135 131 128 128 131 134 133 137 136 133 130 124 118 113 112 111 106  99  92  85  83  84  74  56
 43  38  32  25  21  16  13  10   7   6   2   0   0   0   0   0   0   0   0   0   0   0   0   0
  0   0   0   0   0   0   0   0   0   0   0   0   0   0   0   0   0   0   0   0   0   0   0   0
  0   0   0   0
  1 168 193 181 179 172 162 152 144 138 135 133 132 131 129 131 132 132 133 132 129 130 129 128
131 134 133 132 131 134 136 134 135 137 134 127 122 118 115 113 109 105 100  95  90  84  83  74
 56  46  40  31  26  21  17  13  10   7   5   2   0   0   0   0   0   0   0   0   0   0   0   0
  0   0   0   0   0   0   0   0   0   0   0   0   0   0   0   0   0   0   0   0   0   0   0   0
  0   0   0   0
  0 165 192 183 177 169 161 149 141 138 135 135 132 130 132 132 128 131 129 130 129 129 128 128
128 130 132 132 132 133 134 130 131 131 129 129 127 124 121 116 113 111 105 102 100  92  84  80
 74  59  48  41  33  26  21  17  12   9   7   5   2   0   0   0   0   0   0   0   0   0   0   0
  0   0   0   0   0   0   0   0   0   0   0   0   0   0   0   0   0   0   0   0   0   0   0   0
  0   0   0   0
  0 165 193 180 175 167 157 148 144 137 133 132 132 134 134 130 128 132 133 129 129 131 129 129
131 132 132 132 131 132 134 135 135 131 129 127 126 127 123 120 118 116 112 109 102  98  93  87
 86  79  60  48  41  33  26  21  17  12   9   6   4   1   0   0   0   0   0   0   0   0   0   0
  0   0   0   0   0   0   0   0   0   0   0   0   0   0   0   0   0   0   0   0   0   0   0   0
  0   0   0   0
  0 165 192 177 173 164 154 145 143 139 133 131 136 134 133 132 129 130 133 133 130 130 132 128
131 132 132 133 133 135 135 136 137 134 132 131 125 125 127 126 122 118 116 110 106 100  96  92
 86  87  79  61  48  42  34  27  22  16  11   9   6   4   1   0   0   0   0   0   0   0   0   0
  0   0   0   0   0   0   0   0   0   0   0   0   0   0   0   0   0   0   0   0   0   0   0   0
  0   0   0   0
  0 166 190 179 173 163 153 144 139 138 138 137 134 133 130 131 129 128 129 133 134 133 131 131
132 130 131 130 130 136 135 134 137 133 129 132 131 128 129 127 124 124 121 113 111 105  98  96
 92  89  88  80  65  50  41  35  28  22  16  12   9   6   4   0   0   0   0   0   0   0   0   0
  0   0   0   0   0   0   0   0   0   0   0   0   0   0   0   0   0   0   0   0   0   0   0   0
  0   0   0   0
  0 165 190 177 171 161 153 143 138 142 140 136 132 134 132 133 130 129 128 128 134 133 132 134
134 135 136 135 134 135 132 134 136 135 134 131 131 129 128 129 123 122 120 119 115 111 105 100
 96  91  89  83  79  70  52  38  35  29  21  16  12   8   6   3   0   0   0   0   0   0   0   0
  0   0   0   0   0   0   0   0   0   0   0   0   0   0   0   0   0   0   0   0   0   0   0   0
  0   0   0   0
  0 163 189 177 170 159 152 143 140 136 135 137 135 136 137 137 136 132 130 130 129 131 131 132
134 136 137 138 136 136 136 136 135 135 134 132 129 130 130 131 127 123 122 120 119 116 108 105
101  95  92  87  82  79  73  55  39  34  27  21  16  12   8   6   3   0   0   0   0   0   0   0
  0   0   0   0   0   0   0   0   0   0   0   0   0   0   0   0   0   0   0   0   0   0   0   0
  0   0   0   0
  1 162 186 175 171 161 153 146 137 134 136 137 136 136 137 136 137 135 131 130 129 130 129 132
134 136 138 138 135 136 136 134 135 136 135 135 132 132 133 136 132 126 123 121 121 119 112 110
107 102  97  94  88  83  77  76  59  42  34  27  20  14  11   8   5   2   0   0   0   0   0   0
  0   0   0   0   0   0   0   0   0   0   0   0   0   0   0   0   0   0   0   0   0   0   0   0
  0   0   0   0
  0 161 185 173 169 164 157 142 135 136 136 137 136 135 133 134 135 136 130 129 130 132 132 133
134 137 138 138 135 136 134 132 136 138 139 135 134 136 138 135 128 128 127 127 127 126 119 113
110 106 102 101  95  90  83  75  71  60  44  34  27  19  14  11   7   5   1   0   0   0   0   0
  0   0   0   0   0   0   0   0   0   0   0   0   0   0   0   0   0   0   0   0   0   0   0   0
  0   0   0   0
  0 160 185 173 167 159 151 140 138 136 138 139 137 135 134 133 133 135 132 130 128 129 133 136
138 139 138 139 138 137 137 135 135 134 139 140 138 142 143 138 135 133 130 126 130 128 122 120
115 110 108 105 101  96  89  79  73  67  60  42  33  27  21  14   9   7   4   0   0   0   0   0
  0   0   0   0   0   0   0   0   0   0   0   0   0   0   0   0   0   0   0   0   0   0   0   0
  0   0   0   0
  0 158 183 169 162 157 149 141 137 134 135 135 133 135 137 137 134 133 134 134 133 133 133 134
139 138 135 137 141 141 140 139 138 137 139 139 140 143 149 148 148 140 133 133 135 127 122 123
118 116 114 106 103 102  95  89  79  73  67  60  44  32  27  19  12   9   6   2   0   0   0   0
  0   0   0   0   0   0   0   0   0   0   0   0   0   0   0   0   0   0   0   0   0   0   0   0
  0   0   0   0
  0 159 183 165 160 155 150 143 134 133 133 134 134 133 137 143 140 136 135 134 140 141 137 137
139 141 138 137 140 139 138 142 141 138 138 139 141 142 145 146 149 150 146 143 140 132 124 124
122 120 117 112 108 107 100  98  89  81  73  69  62  46  32  23  17  12   8   6   1   0   0   0
  0   0   0   0   0   0   0   0   0   0   0   0   0   0   0   0   0   0   0   0   0   0   0   0
  0   0   0   0
  3 160 182 168 162 153 144 139 135 135 134 132 134 135 135 139 142 139 136 136 137 140 143 145
145 144 141 140 142 138 136 141 142 139 140 145 147 147 144 145 146 146 148 143 140 139 137 134
131 126 122 115 111 111 107 104 103  95  88  81  66  57  44  29  22  16  11   8   5   0   0   0
  0   0   0   0   0   0   0   0   0   0   0   0   0   0   0   0   0   0   0   0   0   0   0   0
  0   0   0   0
  3 159 182 170 162 149 142 137 135 136 134 132 132 134 138 139 140 143 140 140 136 140 145 145
150 151 144 144 144 143 142 143 144 144 143 146 146 145 147 149 154 153 149 146 145 144 145 142
136 135 129 121 114 112 112 106 115 115 101  87  71  65  54  37  28  21  15  10   7   3   0   0
  0   0   0   0   0   0   0   0   0   0   0   0   0   0   0   0   0   0   0   0   0   0   0   0
  0   0   0   0
  0 158 182 165 158 152 145 136 136 136 134 136 133 132 135 138 139 142 139 141 141 140 141 143
145 148 147 140 141 142 141 142 143 147 151 151 149 149 151 150 154 159 153 146 143 144 146 146
141 137 134 129 123 120 119 112 114 121 108  90  83  71  60  46  33  26  19  14   9   6   2   0
  0   0   0   0   0   0   0   0   0   0   0   0   0   0   0   0   0   0   0   0   0   0   0   0
  0   0   0   0
  0 157 179 165 159 154 146 137 134 134 135 137 135 135 135 135 137 141 140 140 142 143 140 143
145 144 150 146 141 140 141 143 145 149 153 153 153 150 150 149 151 159 154 144 143 144 146 146
146 139 138 136 131 129 128 121 117 133 121  98  88  76  68  57  41  32  25  18  11   8   5   0
  0   0   0   0   0   0   0   0   0   0   0   0   0   0   0   0   0   0   0   0   0   0   0   0
  0   0   0   0
  0 156 179 164 161 153 144 138 135 132 135 137 136 135 135 135 135 139 142 141 140 142 141 144
145 144 146 150 146 143 142 143 148 150 149 148 148 150 151 153 154 160 156 147 145 144 149 152
148 145 143 137 134 136 136 128 122 140 132 102  93  83  75  67  52  40  31  22  16  10   7   3
  0   0   0   0   0   0   0   0   0   0   0   0   0   0   0   0   0   0   0   0   0   0   0   0
  0   0   0   0
  0 156 179 166 164 152 143 138 134 132 135 137 135 136 137 136 137 138 141 141 143 144 144 146
147 144 145 151 152 150 149 148 153 153 146 147 147 149 148 147 152 157 160 155 153 156 157 156
156 157 152 147 144 143 146 136 133 151 140 107  98  90  81  73  61  47  37  27  19  14   9   6
  1   0   0   0   0   0   0   0   0   0   0   0   0   0   0   0   0   0   0   0   0   0   0   0
  1   0   0   0
  3 156 178 167 160 151 143 138 136 135 138 138 136 138 136 137 136 138 142 149 153 150 149 150
151 149 150 152 152 154 156 158 164 159 154 154 151 151 149 146 147 152 156 158 163 167 159 156
159 161 157 155 153 153 153 142 144 152 146 115 102  98  88  79  70  55  45  35  24  17  12   8
  4   0   0   0   0   0   0   0   0   0   0   0   0   0   0   0   0   0   0   0   0   0   0   0
  0   0   0   0
  3 151 176 164 157 153 146 139 138 140 139 140 140 142 139 138 138 141 147 154 154 156 154 152
149 146 146 147 147 146 146 149 162 166 162 161 158 158 158 152 149 153 157 158 162 159 154 154
151 153 152 152 157 160 152 147 146 145 146 126 113 104  92  86  79  63  53  42  32  22  14  10
  6   1   0   0   0   0   0   0   0   0   0   0   0   0   0   0   0   0   0   0   0   0   0   0
  0   0   0   0
  0 152 176 161 158 151 145 143 142 140 141 141 142 141 139 139 142 142 145 154 154 158 155 149
147 145 144 142 145 144 143 149 163 175 177 172 165 164 163 164 159 158 156 154 155 152 151 151
150 151 150 153 156 154 152 152 149 151 153 139 127 121 101  92  85  71  60  48  38  28  18  13
  8   4   0   0   0   0   0   0   0   0   0   0   0   0   0   0   0   0   0   0   0   0   0   0
  1   0   0   0
  0 157 179 160 157 152 145 146 144 144 142 142 141 141 142 142 141 141 141 148 158 162 157 153
152 147 144 143 142 143 145 154 170 179 178 182 180 165 164 165 166 165 161 157 158 158 155 152
154 156 155 153 150 153 160 163 162 161 161 159 149 138 122 110  92  78  70  57  43  32  24  17
 10   6   2   0   0   0   0   0   0   0   0   0   0   0   0   0   0   0   0   0   0   0   0   0
  6   3   0   0
  0 154 176 160 155 151 147 146 143 145 146 144 142 143 144 141 144 147 146 149 158 163 157 154
153 149 146 145 144 145 147 157 171 179 178 182 173 164 164 160 161 163 166 174 173 164 161 157
154 157 161 161 156 160 169 176 174 166 161 161 165 156 139 122  99  85  76  65  52  39  29  21
 13   7   4   0   0   0   0   0   0   0   0   0   0   0   0   0   0   0   0   0   0   0   0   0
  1   2   0   0
  0 156 178 162 158 153 149 148 145 144 145 146 148 145 144 144 146 148 149 153 158 164 161 158
158 157 156 156 155 153 154 156 166 175 173 165 159 157 160 165 158 155 160 164 168 172 174 168
161 160 165 168 167 168 172 174 173 168 163 159 159 157 158 141 108  91  81  73  61  48  36  24
 17   9   6   2   0   0   0   0   0   0   0   0   0   0   0   0   0   0   0   0   0   0   0   0
  0   0   0   0
  0 157 181 168 166 159 152 153 153 153 152 149 151 155 153 153 153 154 156 159 166 171 169 162
157 160 160 157 155 153 154 153 155 157 153 151 156 154 155 161 162 158 159 160 162 166 170 173
171 164 163 162 164 170 174 168 161 157 162 156 152 151 154 160 148 122 103  86  67  55  42  28
 20  11   7   4   0   0   0   0   0   0   0   0   0   0   0   0   0   0   0   0   0   0   0   0
  0   0   0   0
  0 151 177 164 161 153 148 148 148 146 148 148 147 151 153 151 151 152 153 156 164 168 167 166
163 159 157 155 157 155 153 151 149 146 149 151 151 154 156 156 161 162 160 167 165 162 164 169
174 170 167 168 172 175 166 158 154 153 154 152 156 161 149 144 154 153 133  94  76  62  47  34
 24  15   8   6   1   0   0   0   0   0   0   0   0   0   0   0   0   0   0   0   0   0   0   0
  0   0   0   0
  0 153 174 159 155 150 146 144 144 143 145 145 144 145 152 153 154 153 154 155 156 162 162 162
163 159 158 159 158 157 154 153 151 149 153 157 155 154 156 157 154 159 166 162 164 171 173 172
175 181 177 178 177 165 153 150 151 153 148 148 152 152 158 147 136 140 143 115  84  68  49  38
 31  19  10   7   3   0   0   0   0   0   0   0   0   0   0   0   0   0   0   0   0   0   0   0
  0   0   0   0
  0 153 172 156 154 150 152 151 146 145 147 147 149 149 152 154 153 156 155 158 163 169 171 166
162 160 158 155 155 156 155 153 153 151 157 158 156 157 159 155 153 155 160 157 157 165 167 177
181 177 174 171 164 153 147 146 145 146 146 144 146 146 154 158 148 135 130 132  95  72  67  51
 38  22  13   8   4   0   0   0   0   0   0   0   0   0   0   0   0   0   0   0   0   0   0   0
  0   0   0   0
  0 151 170 155 154 151 149 151 152 149 147 145 149 149 151 152 154 155 155 158 165 173 177 172
166 162 155 157 158 160 161 159 155 156 161 157 155 159 159 153 153 154 152 157 157 155 154 161
177 180 169 159 155 152 148 149 148 145 146 147 146 148 146 145 151 150 129 132 120  85  77  59
 41  27  15   9   5   2   0   0   0   0   0   0   0   0   0   0   0   0   0   0   0   0   0   0
  0   0   0   0
  0 147 168 154 153 153 148 149 153 152 151 146 145 148 150 150 151 151 157 161 161 166 171 173
169 165 163 167 168 165 164 163 160 158 159 156 158 159 156 153 152 155 153 154 158 156 155 154
163 168 168 167 159 155 152 153 152 148 146 147 153 159 152 143 148 149 137 130 135 105  66  55
 44  32  18  11   7   3   0   0   0   0   0   0   0   0   0   0   0   0   0   0   0   0   0   0
  0   0   0   0
  0 145 166 156 153 152 152 154 150 150 152 147 145 151 154 150 150 151 154 158 159 162 165 170
175 171 170 170 168 166 167 166 165 162 157 157 157 155 153 155 157 158 155 154 159 158 152 153
156 156 159 168 162 156 148 147 149 148 146 147 151 155 154 149 147 138 133 124 126 121  84  57
 48  37  23  13   8   5   0   0   0   0   0   0   0   0   0   0   0   0   0   0   0   0   0   0
  0   0   0   0
  2 145 165 156 155 154 153 154 152 153 154 152 149 151 154 151 150 153 152 154 157 163 166 167
171 170 163 159 163 161 160 165 166 164 160 157 158 157 153 153 158 162 160 154 152 158 154 154
156 158 156 162 163 158 156 152 151 154 157 155 152 149 151 154 147 133 125 119 118 120 103  76
 50  39  27  15   9   8   2   0   0   0   0   0   0   0   0   0   0   0   0   0   0   0   0   0
  0   0   0   0
  0 147 169 156 155 153 154 152 151 152 153 151 151 149 151 156 154 153 153 156 160 162 164 166
164 164 161 158 158 156 155 158 158 160 160 161 163 161 156 153 156 159 157 158 158 157 159 155
154 160 161 158 161 160 161 161 155 152 150 150 148 146 147 148 146 137 124 118 114 109  99  90
 69  46  31  18  10   9   4   0   0   0   0   0   0   0   0   0   0   0   0   0   0   0   0   0
  0   0   0   0
  0 151 174 159 154 151 149 151 152 154 152 152 149 148 151 150 153 154 151 152 155 156 153 156
156 157 157 156 154 155 154 153 154 155 158 160 159 160 160 159 161 158 157 160 164 162 162 158
155 155 152 150 151 152 155 156 148 143 144 144 144 143 147 146 145 139 130 125 113 104  92  87
 83  54  36  23  12   9   5   0   0   0   0   0   0   0   0   0   0   0   0   0   0   0   0   0
  0   0   0   0
  2 155 175 162 157 153 150 149 152 153 152 152 150 150 156 152 149 153 154 151 152 154 153 155
154 157 158 156 155 155 153 152 154 158 159 156 158 161 161 161 158 156 157 157 157 157 157 159
157 155 150 148 149 150 153 152 150 143 142 144 141 144 147 144 143 134 129 124 111 103  95  87
 79  59  37  28  13  10   6   0   0   0   0   0   0   0   0   0   0   0   0   0   0   0   0   0
  0   0   0   0
  0 151 174 169 169 166 167 162 160 162 157 156 157 155 156 156 153 155 154 155 157 157 160 161
159 159 159 156 155 153 151 154 159 160 158 158 163 162 163 162 158 155 154 156 156 153 156 160
157 151 146 146 145 143 146 149 150 147 140 142 144 145 145 144 142 135 127 121 117 108  96  89
 76  63  41  30  19  11   7   1   0   0   0   0   0   0   0   0   0   0   0   0   0   0   0   0
  0   0   0   0
  0 139 161 156 159 164 165 161 157 158 157 153 156 154 153 154 152 152 153 152 156 157 161 165
158 155 155 152 152 152 153 157 163 161 161 164 162 158 159 157 157 155 152 154 156 152 150 153
158 155 147 147 146 142 145 144 143 149 146 141 144 143 141 142 141 138 133 131 125 112 100  97
 86  69  53  41  29  13   8   2   0   0   0   0   0   0   0   0   0   0   0   0   0   0   0   0
  0   0   0   0
  0 134 158 152 152 153 153 154 151 148 151 150 153 155 151 149 151 153 155 155 156 153 149 154
155 153 151 148 150 152 153 156 155 157 160 161 160 157 157 155 156 155 154 158 156 148 148 152
155 159 153 146 145 143 143 144 142 145 149 145 142 143 143 148 147 144 140 131 117 106  95  88
 85  67  53  43  29  13   8   2   0   0   0   0   0   0   0   0   0   0   0   0   0   0   0   0
  0   0   0   0
  0 134 158 149 153 152 150 152 153 153 152 152 153 155 153 148 150 154 152 154 156 157 153 150
152 149 147 148 152 155 155 157 157 154 151 152 158 159 156 154 154 154 154 156 153 152 151 151
149 157 160 153 149 149 147 148 152 152 153 154 155 153 153 155 147 138 133 128 121 109  96  87
 82  62  48  37  24  12   7   3   0   0   0   1   0   0   0   0   0   0   0   0   0   0   0   0
  0   0   0   0
  0 135 159 150 152 153 154 155 153 152 152 152 152 152 152 152 151 154 155 153 154 159 158 152
151 152 155 159 158 155 154 156 156 156 156 155 157 158 156 154 155 155 153 153 151 151 151 153
151 155 161 161 159 154 150 150 156 158 157 158 157 152 151 152 147 141 133 128 124 114  97  93
 87  64  53  38  24  14   8   4   0   0   0   2   1   0   0   0   0   0   0   0   0   0   0   0
  0   0   0   0
  0 136 158 154 157 155 158 156 153 150 150 153 152 153 151 149 148 154 154 149 153 155 155 155
154 155 159 164 163 157 154 153 150 150 152 152 152 155 158 158 156 154 152 149 152 151 151 155
154 156 159 152 153 151 148 152 153 152 154 152 149 148 150 146 140 137 135 126 118 110  98  89
 84  66  57  37  24  15   8   4   0   0   0   0   1   0   0   0   0   0   0   0   0   0   0   0
  0   0   0   0
  0 136 159 153 160 162 160 157 157 154 149 149 149 153 152 153 152 150 154 154 152 153 152 153
157 157 155 156 160 162 163 156 149 146 149 149 149 153 155 155 155 152 148 146 151 154 156 152
147 149 154 151 148 150 151 152 152 150 152 150 149 150 152 151 145 138 134 127 115 107  98  89
 84  72  56  37  24  15   9   5   1   0   0   0   0   0   0   0   0   0   0   0   0   0   0   0
  0   0   0   0
  0 135 158 154 157 158 159 160 157 155 155 153 152 153 153 155 156 154 155 156 154 154 154 157
159 158 155 158 160 161 164 162 155 155 156 152 150 150 154 154 151 152 150 148 149 150 152 155
148 142 146 149 147 147 153 151 152 151 149 151 151 154 154 154 150 142 132 127 118 109  98  86
 91  76  49  38  26  15  10   6   1   0   0   0   0   0   0   0   0   0   0   0   0   0   0   0
  0   0   0   0
  1 136 159 152 153 153 152 156 157 156 153 154 157 160 159 157 160 162 156 156 157 154 154 157
159 156 154 157 159 158 159 159 154 156 155 153 153 153 156 157 153 153 153 154 151 146 144 151
155 149 147 151 146 146 150 150 149 148 149 153 152 152 152 148 147 142 133 128 120 111  96  82
 85  74  47  38  30  15  10   7   1   0   0   0   0   0   0   0   0   0   0   0   0   0   0   0
  0   0   0   0
  3 133 157 152 152 152 152 154 154 157 159 155 157 164 160 162 163 161 156 155 153 152 151 153
155 154 154 152 152 153 155 158 157 158 156 155 157 155 154 154 155 158 159 154 148 147 148 147
151 153 152 155 154 152 150 151 154 152 150 152 156 154 151 147 144 139 133 128 117 105  91  81
 83  75  50  38  36  21   9   7   1   0   0   0   0   0   0   0   0   0   0   0   0   0   0   0
  0   0   0   0
  2 134 155 149 154 152 154 156 156 156 159 158 157 161 159 160 164 168 164 159 155 154 153 152
152 151 153 154 153 154 153 154 156 155 154 153 156 157 155 154 158 162 161 157 152 147 147 148
146 151 153 151 158 156 149 147 155 154 147 151 157 156 149 145 143 136 132 129 113 100  92  87
 83  76  55  40  33  24  12   7   1   0   0   0   0   0   0   0   0   0   0   0   0   0   0   0
  0   0   0   0
  2 139 163 153 151 153 154 157 157 153 154 154 154 160 160 158 161 167 171 167 165 162 157 156
153 149 151 153 154 158 154 155 156 152 149 148 150 154 159 159 163 166 157 155 156 151 146 146
148 150 156 155 155 152 148 149 152 153 150 150 156 156 149 146 144 138 132 124 113 104  97  87
 78  64  49  40  26  20  13   7   1   0   0   0   0   0   0   0   0   0   0   0   0   0   0   0
  0   0   0   0
  0 141 167 158 153 152 156 160 159 157 155 155 155 154 157 161 160 159 163 163 162 164 160 157
156 153 150 152 157 160 159 159 158 153 148 149 149 152 157 159 162 169 160 152 152 153 149 145
148 149 152 158 157 154 154 157 155 156 159 160 163 158 151 150 149 143 130 121 117 108  92  82
 74  58  47  38  24  17  13   7   1   0   0   0   0   0   0   0   0   0   0   0   0   0   0   0
  0   0   0   0
  0 141 164 157 160 155 156 162 162 160 159 155 157 156 154 159 163 159 160 163 161 160 160 155
156 155 151 149 155 156 155 157 162 159 152 150 150 151 155 158 154 160 162 156 153 152 150 148
148 150 150 156 159 154 155 157 154 154 154 158 163 162 152 157 157 144 132 124 115 100  89  79
 70  59  47  37  23  17  12   7   1   0   0   0   0   0   0   0   0   0   0   0   0   0   0   0
  0   0   0   0
  0 144 163 153 158 158 156 157 161 159 157 157 156 161 157 153 162 160 158 161 162 161 165 161
155 154 151 151 150 151 150 153 160 159 154 154 150 150 155 156 151 150 158 156 153 151 150 150
149 150 151 153 161 158 156 157 155 157 156 154 156 168 162 159 151 135 129 120 106  96  87  77
 68  57  48  37  23  17  12   7   0   0   0   0   0   0   0   0   0   0   0   0   0   0   0   0
  0   0   0   0
  0 143 165 154 156 158 157 155 155 159 157 156 156 159 161 157 162 164 161 161 160 162 168 171
163 160 159 157 155 154 154 156 163 160 154 156 153 152 155 153 153 151 154 159 162 154 151 149
149 151 152 153 159 164 158 151 151 152 152 155 158 172 171 164 151 129 122 113 107  96  85  75
 67  60  49  36  24  16  12   7   0   0   0   0   0   0   0   0   0   0   0   0   0   0   0   0
  0   0   0   0
  3 143 166 157 156 154 158 154 153 156 158 155 152 155 158 161 163 164 165 164 161 159 159 164
165 164 164 160 159 160 157 158 164 163 159 158 156 155 156 153 153 155 156 156 165 162 156 154
152 149 149 151 151 158 156 150 149 148 147 151 156 162 170 176 156 126 118 112 106  94  82  75
 67  62  46  34  24  17  13   6   0   0   0   0   0   0   0   0   0   0   0   0   0   0   0   0
  0   0   0   0
  0 144 167 157 159 157 157 158 155 156 156 157 155 156 161 159 160 160 163 167 167 164 161 161
161 159 161 161 158 159 160 161 159 162 164 162 156 155 154 152 154 153 156 155 154 165 159 156
157 152 149 147 147 152 156 154 156 155 155 152 148 155 163 175 159 129 119 110 103  93  79  76
 68  59  46  32  24  19  14   5   0   0   0   0   0   0   0   0   0   0   0   0   0   0   0   0
  0   0   0   0
  0 138 168 160 158 160 160 161 160 155 156 156 156 155 157 160 164 162 160 161 164 167 165 161
160 156 160 162 157 156 155 156 159 164 163 162 161 157 152 150 151 152 152 155 157 160 165 157
155 157 156 154 150 152 155 155 158 156 155 151 149 154 153 166 159 133 118 108 103  91  76  72
 70  58  46  32  27  22  16   4   0   0   0   0   0   0   0   0   0   0   0   0   0   0   0   0
  0   0   0   0
  1 137 163 161 159 155 156 159 161 156 158 156 154 157 157 158 163 168 167 160 163 167 160 156
158 156 159 159 154 151 150 149 154 161 159 158 161 161 160 155 151 150 153 156 160 160 162 164
153 152 154 155 156 152 152 153 149 150 152 150 150 155 154 161 153 138 123 107 100  89  75  68
 65  54  40  37  34  21  16   4   0   0   0   0   0   0   0   0   0   0   0   0   0   0   0   0
  0   0   0   0
  0 139 162 154 161 158 152 153 156 159 159 158 158 159 160 158 159 168 173 167 163 162 158 156
154 154 155 153 150 147 149 152 153 155 153 154 158 160 161 161 159 157 160 161 162 163 161 164
165 153 150 153 160 155 151 152 149 149 149 150 154 160 158 159 152 138 130 111  98  90  76  64
 57  52  39  45  37  18  18   3   0   0   0   0   0   0   0   0   0   0   0   0   0   0   0   0
  0   0   0   0
  0 142 166 154 156 160 158 154 153 158 159 159 161 162 163 162 159 167 171 167 163 162 158 155
152 149 152 151 149 147 147 149 151 154 155 154 155 156 156 158 159 162 166 162 160 164 165 164
173 168 154 153 163 161 155 157 154 151 150 150 154 154 153 156 154 136 123 114  98  90  77  62
 56  46  47  51  28  21  21   1   0   0   0   0   0   0   0   0   0   0   0   0   0   0   0   0
  0   0   0   0
  9 148 168 160 155 153 158 154 155 154 158 164 165 161 164 162 162 169 171 166 163 159 156 153
152 149 152 154 150 151 153 150 152 156 154 154 156 153 154 157 155 154 157 157 160 162 160 160
162 170 168 158 158 159 161 162 159 157 153 151 149 146 146 143 145 137 125 116 105  96  77  64
 56  57  63  45  17  28  19   0   0   0   0   0   0   0   0   0   0   0   0   0   0   0   0   0
  0   0   0   0
  0 153 172 157 158 151 150 155 153 151 151 157 167 162 164 164 158 163 169 165 161 155 156 153
153 152 154 158 155 149 149 152 152 152 151 152 156 154 156 160 158 156 150 154 156 154 156 159
161 164 166 168 163 159 162 168 168 161 154 151 146 147 143 137 141 128 125 129 123 118  94  78
 85  78  58  33  19  30  11   0   1   0   0   0   0   0   0   0   0   0   0   0   0   0   0   0
  0   0   0   0
  0 146 174 162 154 152 151 151 154 149 152 149 158 163 163 168 158 155 164 161 159 156 154 154
154 153 153 156 156 148 145 148 147 148 152 152 157 155 155 160 160 156 154 155 158 157 155 155
158 165 163 167 167 167 164 168 174 165 159 161 160 157 150 143 137 127 124 128 134 122 110 101
 85  57  42  29  23  22   1   0   0   0   0   0   0   0   0   0   0   0   0   0   0   0   0   0
  0   0   0   0
  3 141 163 159 158 150 154 152 152 153 150 151 154 161 162 170 170 161 162 157 154 154 153 153
154 155 156 158 161 154 146 143 143 148 153 156 157 157 153 155 161 158 158 162 159 159 160 158
162 160 162 166 167 167 166 168 168 161 164 165 166 164 155 151 144 140 133 122 122 102  85  72
 49  36  34  19  21  10   0   0   0   0   0   0   0   0   0   0   0   0   0   0   0   0   0   0
  0   0   0   0
  0 138 158 145 153 151 149 154 154 155 152 148 152 159 160 165 177 165 159 160 154 153 154 152
154 153 157 160 165 161 153 149 148 152 155 154 154 158 156 150 152 156 158 166 172 170 165 161
165 166 166 165 160 163 172 176 173 163 160 159 161 162 154 147 134 121 105 102 100  82  64  53
 48  38  24  14  13   1   0   0   0   0   0   0   0   0   0   0   0   0   0   0   0   0   0   0
  0   0   0   0
  2 128 151 141 141 143 142 151 153 154 156 147 146 153 159 161 170 168 159 162 160 154 158 157
157 154 158 160 162 164 161 155 154 154 156 153 152 155 155 154 157 155 155 160 166 169 164 161
161 164 167 168 168 165 166 172 179 173 167 164 162 164 150 132 121 110  98  89  77  68  57  47
 39  26  16  12   4   0   0   0   0   0   0   0   0   0   0   0   0   0   0   0   0   0   0   0
  0   0   0   0
  3 127 143 141 141 139 141 144 149 151 155 156 150 150 155 158 166 172 165 160 169 160 157 160
156 156 157 157 162 169 165 158 157 156 156 154 156 162 164 166 169 161 156 158 160 161 159 160
161 164 168 171 174 170 164 164 174 176 174 170 160 152 145 131 118 108  96  83  71  56  41  37
 27  17  13   7   0   0   0   0   0   0   0   0   0   0   0   0   0   0   0   0   0   0   0   0
  0   0   0   0
  0 127 145 136 139 137 140 141 143 146 148 156 158 154 154 157 162 169 171 160 163 169 159 160
157 155 156 157 158 167 169 166 163 160 157 154 153 160 167 162 161 159 155 158 163 163 161 159
159 161 166 173 177 176 179 178 173 168 166 164 154 147 142 130 112  94  79  69  56  43  37  32
 23  14   9   2   0   0   0   0   0   0   0   0   0   0   0   0   0   0   0   0   0   0   0   0
  0   0   0   0
  0 114 137 131 137 134 136 141 143 144 147 150 156 158 158 161 161 159 164 170 164 166 163 162
162 160 157 157 157 161 167 169 164 158 154 155 157 154 156 155 155 159 159 157 159 158 158 161
162 161 159 163 170 173 177 177 177 172 163 157 150 142 130 118 106  93  83  66  51  39  33  29
 21   9   5   0   0   0   0   0   0   0   0   0   0   0   0   0   0   0   0   0   0   0   0   0
  0   0   0   0
  0 100 125 125 131 129 129 135 139 143 145 148 154 156 158 164 163 159 157 162 170 166 162 160
161 159 159 155 155 159 161 163 165 160 159 157 158 157 157 160 161 162 162 161 161 159 160 161
164 166 163 160 162 161 161 160 164 160 150 150 148 131 119 110  97  90  75  57  45  36  31  25
 13   6   2   0   0   0   0   0   0   0   0   0   0   0   0   0   0   0   0   0   0   0   0   0
  0   0   0   0
  5 104 118 118 127 129 124 130 134 140 143 146 154 158 161 163 161 161 163 159 163 168 165 159
158 155 156 160 157 153 158 158 164 162 163 161 158 158 158 159 161 161 161 163 164 163 165 166
165 167 166 164 165 164 160 156 158 153 141 141 129 121 116  99  83  70  53  46  44  35  25  16
  9   3   0   0   0   0   0   0   0   0   0   0   0   0   0   0   0   0   0   0   0   0   0   0
  0   0   0   0
  0 103 122 116 118 123 118 119 127 134 141 139 147 156 163 170 165 159 160 162 163 169 169 163
157 155 155 159 161 159 161 162 164 166 163 160 162 155 153 156 160 164 165 164 163 162 162 160
157 159 162 163 162 161 158 154 156 146 142 137 121 115 105  86  75  63  56  50  38  25  19  12
  6   0   0   0   0   0   0   0   0   0   0   0   0   0   0   0   0   0   0   0   0   0   0   0
  0   0   0   0
  0  91 109 110 113 114 114 110 112 118 133 137 136 149 156 165 168 161 155 155 158 167 173 167
162 162 163 161 160 163 166 166 162 170 168 166 165 158 158 156 155 158 159 160 161 164 164 159
154 157 157 155 151 147 144 144 150 138 127 130 124 111  97  81  67  57  55  39  26  20  12   7
  2   0   0   0   0   0   0   0   0   0   0   0   0   0   0   0   0   0   0   0   0   0   0   0
  0   0   0   0
  0  80  92  89  96 100 105 105 103 105 114 125 127 137 147 151 160 158 156 152 152 157 168 173
165 157 162 164 159 157 160 164 165 165 169 166 164 156 155 153 152 153 154 156 158 157 156 160
156 156 155 149 144 140 136 130 129 119 118 115 107  95  81  67  56  59  49  30  20  12   7   3
  0   0   0   0   0   0   0   0   0   0   0   0   0   0   0   0   0   0   0   0   0   0   0   0
  0   0   0   0
  1  70  81  76  79  80  86  99 102  98 104 109 118 128 140 142 152 154 149 154 151 150 157 171
173 165 158 157 158 154 156 158 162 159 159 160 159 161 159 158 156 156 154 154 153 153 154 158
157 155 149 144 138 131 126 119 118 112  99  92  87  77  64  53  57  53  32  21  13   8   5   0
  0   0   0   0   0   0   0   0   0   0   0   0   0   0   0   0   0   0   0   0   0   0   0   0
  0   0   0   0
  0  63  70  64  66  65  68  79  92  93  95 100 103 114 126 141 151 157 144 144 148 149 151 160
166 170 166 160 159 155 156 158 161 163 163 170 168 167 166 161 158 156 154 155 155 154 154 152
147 149 144 136 128 120 113 109 113 105  89  84  77  73  67  63  53  35  19  13   9   6   1   0
  0   0   0   0   0   0   0   0   0   0   0   0   0   0   0   0   0   0   0   0   0   0   0   0
  0   0   0   0
  0  48  55  50  53  56  56  62  74  87  89  89  91  97 107 119 141 156 149 134 141 143 146 154
159 162 165 164 164 160 160 163 164 165 169 173 174 170 167 161 160 159 161 161 158 160 155 144
143 136 130 128 118 109 106 100  95  89  80  74  68  64  63  50  32  20  13   9   7   3   0   0
  0   0   0   0   0   0   0   0   0   0   0   0   0   0   0   0   0   0   0   0   0   0   0   0
  0   0   0   0
  1  38  41  35  37  39  43  48  55  68  80  85  84  87  96  99 111 140 151 140 130 135 136 144
151 156 162 160 163 160 160 160 162 161 161 164 164 169 174 167 160 157 158 156 156 160 155 148
139 126 118 118 109 101  96  91  88  86  78  72  64  50  36  25  20  14  10   8   3   0   0   0
  0   0   0   0   0   0   0   0   0   0   2   0   0   0   0   0   0   0   0   0   0   0   0   0
  0   0   0   0
  2  37  38  31  27  27  31  34  37  44  56  68  75  79  85  91  97 107 124 141 134 124 128 132
143 144 153 151 150 156 153 150 152 156 154 155 155 162 169 170 162 153 148 145 145 142 135 130
128 117 109 104  99  93  87  86  89  89  78  65  50  37  27  22  15  10   8   4   0   0   0   0
  0   0   0   0   0   0   0   0   0   0   2   0   0   0   0   0   0   0   0   0   0   0   0   0
  0   0   0   0
  1  27  31  29  28  27  25  24  25  30  38  46  51  61  75  82  86  90  95 113 130 127 120 117
132 144 141 149 145 146 146 144 140 142 144 143 145 148 151 153 152 146 141 140 138 136 130 122
118 112 106 101  96  91  86  83  79  80  62  45  38  30  22  16  10   8   5   0   0   0   0   0
  0   0   0   0   0   0   0   0   0   0   0   0   0   0   0   0   0   0   0   0   0   0   0   0
  0   0   0   0
  0   0   3   7  15  22  24  24  21  21  26  33  38  43  50  63  74  76  83  90 106 125 121 110
112 130 137 138 147 146 140 139 138 136 137 137 137 141 142 139 140 142 137 132 127 123 121 121
118 108  98  88  80  77  73  68  64  56  42  32  24  18  14   9   7   5   0   0   0   0   0   0
  0   0   0   0   0   0   0   0   0   0   0   0   0   0   0   0   0   0   0   0   0   0   0   0
  0   0   0   0
  0   0   0   0   0   3  11  19  21  20  20  22  29  36  34  41  58  63  65  74  87 102 113 111
109 112 124 128 129 135 139 139 137 137 137 137 135 135 134 129 127 129 127 121 117 114 109 110
106  93  87  80  74  73  67  57  48  36  31  23  17  13   9   7   5   1   0   0   0   0   0   0
  0   0   0   0   0   0   0   0   0   0   0   0   0   0   0   0   0   0   0   0   0   0   0   0
  0   0   0   0
  0   0   0   0   0   0   0   2   9  15  17  19  20  23  26  29  37  47  50  55  65  76  87 101
104 107 113 121 119 115 122 127 126 124 126 128 131 130 127 122 119 116 117 113 106 102  96  94
 86  77  77  79  76  66  53  42  33  25  21  20  15   9   7   5   1   0   0   0   0   0   1   1
  0   0   0   0   0   0   0   0   0   0   0   0   0   0   0   0   0   0   0   0   0   1   1   0
  0   0   0   0
  0   0   0   0   0   0   0   0   0   2   7  12  14  17  19  22  24  32  38  43  47  57  65  75
 90  95 101 108 115 117 116 113 110 110 111 112 115 122 122 116 111 108 106 100  96  93  87  84
 73  70  68  62  55  44  35  30  25  20  14  13  11   7   4   0   0   0   0   0   0   0   0   0
  0   0   0   0   0   0   0   0   0   0   0   0   0   0   0   0   0   0   0   0   0   1   1   0
  0   0   0   0
  0   1   0   0   0   0   0   0   0   0   0   2   6   9  14  15  17  21  27  31  35  39  50  55
 66  82  86  89  92 104 109 108 105 103 102 101 103 104 106 108 104 101  97  90  86  83  83  76
 68  65  55  45  41  35  26  21  19  14  10   8   8   4   0   0   0   0   0   0   0   0   0   0
  0   0   0   0   0   0   0   0   0   0   0   0   0   0   0   0   0   0   0   0   0   0   0   0
  0   0   0   0
  1   3   0   0   0   0   0   0   0   0   0   0   0   2   5   8  11  14  16  21  24  27  35  45
 48  54  67  77  79  83  87  88  92  92  88  87  88  86  85  86  86  85  86  83  76  72  72  67
 58  54  45  35  30  24  19  16  13   9   7   6   3   0   0   0   0   0   0   0   0   0   0   0
  0   0   0   0   0   0   0   0   0   0   0   0   0   0   0   0   0   0   0   0   0   0   0   0
  0   0   0   0
  1   8   2   0   0   0   0   0   0   0   0   0   1   1   0   2   4   7  10  14  16  18  21  26
 35  41  42  49  61  70  73  70  72  77  76  78  76  71  72  73  72  71  68  65  62  59  53  53
 44  37  30  24  19  15  14  11   9   7   5   1   0   0   0   0   0   0   0   0   0   0   0   0
  0   0   0   0   0   0   0   0   0   0   0   0   0   0   0   0   0   0   0   0   0   0   0   0
  0   0   0   0
