P2
# 8-bit pgm gray
100 100
255
  0   0   0   0   0   0   0   0   0   0   0   0   0   0   0   0   0   0   0   0   0   0  19   0
 65 211 225 218 218 214 211 202 190 177 154 125 114 103  94  86  69  53  43  34  26  20  13   8
  9   9   9   9   9   9   9  10   9  10   9   9   9  10  10  10  10  10  10  10  10  10  11  11
 10  11  10   1   0   0   0   0   0   0   0   0   0   0   0   0   0   0   0   0   0   0   0   0
  0   0   0   0
  0   0   0   0   0   0   0   0   0   0   0   0   0   0   0   0   0   0   0   0   0   0  19   0
 65 210 225 217 215 210 205 197 184 170 148 123 118 109 104  92  77  61  49  39  29  22  16   9
  9   8   8   9   9   9   9   9   9   9   9   9   9  10  10  10  10  10  10  10   9  10  11  10
 10  11  10   1   0   0   0   0   0   0   0   0   0   0   0   0   0   0   0   0   0   0   0   0
  0   0   0   0
  0   0   0   0   0   0   0   0   0   0   0   0   0   0   0   0   0   0   0   0   0   0  19   0
 65 209 222 213 210 206 200 192 180 164 140 120 114 108  99  91  84  72  54  41  32  25  19  11
  8   9   8   9   9   9   9   8   8   9   9   9   9   9  10  10   9   9  10   9   9  10  10  10
 10  11  10   1   0   0   0   0   0   0   0   0   0   0   0   0   0   0   0   0   0   0   0   0
  0   0   0   0
  0   0   0   0   0   0   0   0   0   0   0   0   0   0   0   0   0   0   0   0   0   0  19   0
 65 206 219 211 208 202 196 187 173 158 134 123 115 107 101  92  85  75  60  46  35  27  21  13
  8   8   8   8   8   8   8   8   8   8   9   9   9   9   9   9   9   9   9   9   8   9  10  10
 10  10   7   1   0   0   0   0   0   0   0   0   0   0   0   0   0   0   0   0   0   0   0   0
  0   0   0   0
  0   0   0   0   0   0   0   0   0   0   0   0   0   0   0   0   0   0   0   0   0   0  19   0
 65 207 219 209 206 199 191 180 168 153 133 125 119 108 105  98  89  79  67  53  40  31  23  16
  9   8   8   8   7   7   8   8   8   8   8   9   8   9   9   9   9   9   9   8   8   9   9  10
  9  12  21   4   0   0   0   0   0   0   0   0   0   0   0   0   0   0   0   0   0   0   0   0
  0   0   0   0
  0   0   0   0   0   0   0   0   0   0   0   0   0   0   0   0   0   0   0   0   0   0  18   0
 63 204 215 206 203 196 188 178 165 147 132 123 117 111 104  99  90  82  72  59  45  35  26  20
 12   7   7   7   7   7   8   7   7   8   8   8   8   8   8   8   8   9   8   8   8   9   9   8
 13   0   0   0   4   0   0   0   0   0   0   0   0   0   0   0   0   0   0   0   0   0   0   0
  0   0   0   0
  0   0   0   0   0   0   0   0   0   0   0   0   0   0   0   0   0   0   0   0   0   0  18   0
 61 200 212 203 199 192 184 174 160 138 130 125 121 115 107  99  91  86  75  61  49  38  29  22
 15   7   6   7   7   7   7   7   7   8   8   8   8   8   8   8   7   8   8   7   8   9   8  14
  0  33  88  37   0   5   0   0   0   0   0   0   0   0   0   0   0   0   0   0   0   0   0   0
  0   0   0   0
  0   0   0   0   0   0   0   0   0   0   0   0   0   0   0   0   0   0   0   0   0   0  18   0
 61 199 212 200 195 188 179 168 152 132 129 125 123 119 112 103  95  92  83  66  51  41  31  24
 18   8   6   7   7   7   7   7   7   8   8   8   8   7   7   7   7   7   7   7   7   8   8  15
  0  37  94  39   0   5   0   0   0   0   0   0   0   0   0   0   0   0   0   0   0   0   0   0
  0   0   0   0
  0   0   0   0   0   0   0   0   0   0   0   0   0   0   0   0   0   0   0   0   0   0  17   0
 60 197 210 198 191 184 176 163 143 132 133 127 121 119 119 111 101  93  86  74  58  47  36  26
 20  13   6   7   6   7   7   7   7   7   8   8   7   7   7   7   7   7   7   7   7   8   9   8
 12   0   0   0   4   0   0   0   0   0   0   0   0   0   0   0   0   0   0   0   0   0   0   0
  0   0   0   0
  0   0   0   0   0   0   0   0   0   0   0   0   0   0   0   0   0   0   0   0   0   0  17   0
 61 196 206 195 188 178 170 157 139 132 132 129 125 122 119 113 107  98  90  78  63  50  39  30
 22  16   7   6   6   6   7   7   7   7   7   7   7   7   6   6   7   7   7   7   7   9   9   9
  8  10  19   3   0   0   0   0   0   0   0   0   0   0   0   0   0   0   0   0   0   0   0   0
  0   0   0   0
  0   0   0   0   0   0   0   0   0   0   0   0   0   0   0   0   0   0   0   0   0   0  17   0
 60 194 204 190 181 173 163 146 136 131 129 129 126 121 115 110 106  97  92  78  68  54  42  33
 25  18  10   5   6   6   7   7   7   7   7   7   6   6   6   6   6   7   7   7   7   8   8   8
  8   8   6   1   0   0   0   0   0   0   0   0   0   0   0   0   0   0   0   0   0   0   0   0
  0   0   0   0
  0   0   0   0   0   0   0   0   0   0   0   0   0   0   0   0   0   0   0   0   0   0  16   0
 58 191 200 186 179 169 156 137 132 131 126 123 123 119 116 112 107  99  92  81  68  58  46  37
 28  21  14   6   6   6   7   7   7   7   6   6   6   6   6   6   6   7   7   7   7   8   7   7
  7   7   7   1   0   0   0   0   0   0   0   0   0   0   0   0   0   0   0   0   0   0   0   0
  0   0   0   0
  0   0   0   0   0   0   0   0   0   0   0   0   0   0   0   0   0   0   0   0   0   0  16   0
 58 185 193 182 176 164 150 134 129 127 122 121 120 119 116 113 109 104  97  88  73  61  49  39
 31  23  18   8   5   6   6   6   6   7   6   6   6   6   6   6   6   7   7   7   7   7   7   7
  7   7   7   1   0   0   0   0   0   0   0   0   0   0   0   0   0   0   0   0   0   0   0   0
  0   0   0   0
  0   0   0   0   0   0   0   0   0   0   0   0   0   0   0   0   0   0   0   0   0   0  16   0
 58 184 190 176 171 160 143 130 127 124 122 120 121 118 114 112 112 105  97  92  85  71  57  44
 35  26  20  12   5   6   6   6   6   6   6   6   6   6   6   6   7   7   7   7   7   7   7   7
  7   7   7   1   0   0   0   0   0   0   0   0   0   0   0   0   0   0   0   0   0   0   0   0
  0   0   0   0
  0   0   0   0   0   0   0   0   0   0   0   0   0   0   0   0   0   0   0   0   0   0  15   0
 56 181 187 170 164 155 137 128 126 124 120 118 120 118 115 113 113 109 100  95  89  78  65  51
 40  30  21  16   7   5   6   6   6   6   6   6   6   6   6   7   7   8   7   7   6   6   7   7
  7   7   6   1   0   0   0   0   0   0   0   0   0   0   0   0   0   0   0   0   0   0   0   0
  0   0   0   0
  0   0   0   0   0   0   0   0   0   0   0   0   0   0   0   0   0   0   0   0   0   0  15   0
 56 177 181 167 161 149 136 129 126 124 120 117 116 116 118 116 109 107 103  97  91  80  68  56
 43  33  25  18  10   5   6   6   5   6   6   6   6   6   6   7   7   7   7   7   7   7   7   7
  7   7   6   1   0   0   0   0   0   0   0   0   0   0   0   0   0   0   0   0   0   0   0   0
  0   0   0   0
  0   0   0   0   0   0   0   0   0   0   0   0   0   0   0   0   0   0   0   0   0   0  14   0
 54 172 179 166 158 144 135 134 128 124 123 122 119 117 118 116 111 108 104  99  94  85  74  61
 48  37  28  20  14   6   5   5   5   6   6   6   6   6   6   7   6   6   7   7   7   7   7   7
  6   6   6   1   0   0   0   0   0   0   0   0   0   0   0   0   0   0   0   0   0   0   0   0
  0   0   0   0
  0   0   0   0   0   0   0   0   0   0   0   0   0   0   0   0   0   0   0   0   0   0  13   0
 51 168 175 165 157 139 130 130 128 123 123 124 122 120 118 119 116 112 107 101  96  88  78  66
 53  43  32  23  18   8   4   5   5   6   6   6   6   7   6   6   6   6   7   6   6   6   7   7
  7   7   6   1   0   0   0   0   0   0   0   0   0   0   0   0   0   0   0   0   0   0   0   0
  0   0   0   0
  0   0   0   0   0   0   0   0   0   0   0   0   0   0   0   0   0   0   0   0   0   0  12   0
 50 163 172 160 152 140 133 128 128 128 122 121 120 121 120 119 117 115 110 106 100  91  82  70
 57  46  35  27  19  11   4   5   5   6   6   6   6   6   6   6   6   6   6   6   6   6   6   7
  7   7   6   1   0   0   0   0   0   0   0   0   0   0   0   0   0   0   0   0   0   0   0   0
  0   0   0   0
  0   0   0   0   0   0   0   0   0   0   0   0   0   0   0   0   0   0   0   0   0   0  12   0
 49 161 169 155 147 140 137 134 131 129 124 123 122 120 117 118 117 113 112 110 104  93  84  75
 63  51  39  29  21  14   6   5   5   6   6   6   6   6   6   6   6   6   6   6   6   6   6   7
  6   6   6   1   0   0   0   0   0   0   0   0   0   0   0   0   0   0   0   0   0   0   0   0
  0   0   0   0
  0   0   0   0   0   0   0   0   0   0   0   0   0   0   0   0   0   0   0   0   0   0  12   0
 48 162 165 151 147 137 137 137 129 127 126 123 124 121 116 117 117 113 116 115 104 101  92  77
 66  54  43  31  23  18   8   5   5   5   6   6   6   6   6   6   6   6   6   6   6   6   7   7
  7   6   6   1   0   0   0   0   0   0   0   0   0   0   0   0   0   0   0   0   0   0   0   0
  0   0   0   0
  0   0   0   0   0   0   0   0   0   0   0   0   0   0   0   0   0   0   0   0   0   0  12   0
 50 163 162 147 141 133 137 140 132 128 129 125 126 124 120 118 115 113 117 119 112 103  94  82
 70  58  45  35  26  20  12   5   5   5   6   6   6   6   6   5   5   5   6   6   6   6   7   7
  6   7   6   1   0   0   0   0   0   0   0   0   0   0   0   0   0   0   0   0   0   0   0   0
  0   0   0   0
  0   0   0   0   0   0   0   0   0   0   0   0   0   0   0   0   0   0   0   0   0   0  12   0
 51 160 162 146 136 132 135 138 137 129 127 129 130 129 126 120 117 117 123 124 116 104  97  86
 77  64  49  39  29  23  16   6   5   5   6   6   6   6   5   5   5   6   6   6   6   6   7   7
  6   6   5   1   0   0   0   0   0   0   0   0   0   0   0   0   0   0   0   0   0   0   0   0
  0   0   0   0
  0   0   0   0   0   0   0   0   0   0   0   0   0   0   0   0   0   0   0   0   0   0  12   0
 50 157 161 148 138 134 137 131 132 135 131 126 129 132 127 122 125 123 125 129 120 107 101  94
 82  69  56  45  33  25  18   9   5   6   6   6   6   6   5   6   6   6   6   6   6   6   7   6
  6   5   5   1   0   0   0   0   0   0   0   0   0   0   0   0   0   0   0   0   0   0   0   0
  0   0   0   0
  0   0   0   0   0   0   0   0   0   0   0   0   0   0   0   0   0   0   0   0   0   0  11   0
 49 155 158 146 139 139 135 127 131 133 137 135 136 133 130 128 132 124 124 129 121 105 100  96
 90  77  63  50  39  29  20  13   5   6   6   6   6   6   6   6   6   6   6   6   6   6   6   6
  6   6   5   1   0   0   0   0   0   0   0   0   0   0   0   0   0   0   0   0   0   0   0   0
  0   0   0   0
  0   0   0   0   0   0   0   0   0   0   0   0   0   0   0   0   0   0   0   0   0   0  11   0
 47 155 160 144 139 141 132 128 130 134 137 138 141 140 135 136 136 126 121 124 120 106 100  93
 89  79  64  53  42  32  23  17   7   5   6   6   5   6   6   6   6   6   6   6   6   6   6   6
  6   6   5   1   0   0   0   0   0   0   0   0   0   0   0   0   0   0   0   0   0   0   0   0
  0   0   0   0
  0   0   0   0   0   0   0   0   0   0   0   0   0   0   0   0   0   0   0   0   0   0  11   0
 48 155 161 146 140 137 134 134 130 132 139 133 133 141 141 139 141 127 121 125 118 107 103  96
 90  83  71  58  46  35  26  19  11   4   5   5   5   6   6   6   6   6   6   6   6   6   6   6
  5   6   5   1   0   0   0   0   0   0   0   0   0   0   0   0   0   0   0   0   0   0   0   0
  0   0   0   0
  0   0   0   0   0   0   0   0   0   0   0   0   0   0   0   0   0   0   0   0   0   0  12   0
 49 158 161 146 143 137 137 134 130 129 134 136 134 136 144 146 141 127 123 128 119 106 103  98
 91  84  74  63  51  39  30  21  14   5   5   6   6   6   6   6   6   6   6   6   5   5   5   6
  5   5   5   1   0   0   0   0   0   0   0   0   0   0   0   0   0   0   0   0   0   0   0   0
  0   0   0   0
  0   0   0   0   0   0   0   0   0   0   0   0   0   0   0   0   0   0   0   0   0   0  12   0
 47 161 163 146 142 137 135 131 130 128 129 135 137 137 146 153 146 138 124 134 128 108 104 101
 94  86  76  66  54  42  32  24  18   9   5   6   6   6   6   6   6   5   6   6   5   5   5   6
  6   5   5   1   0   0   0   0   0   0   0   0   0   0   0   0   0   0   0   0   0   0   0   0
  0   0   0   0
  0   0   0   0   0   0   0   0   0   0   0   0   0   0   0   0   0   0   0   0   0   0  12   0
 48 158 163 148 140 137 136 135 131 129 129 131 138 141 143 153 154 149 139 143 143 113 105 103
 96  88  81  70  57  46  35  26  22  13   5   6   6   6   6   6   5   5   5   5   5   5   6   6
  6   6   5   1   0   0   0   0   0   0   0   0   0   0   0   0   0   0   0   0   0   0   0   0
  0   0   0   0
  0   0   0   0   0   0   0   0   0   0   0   0   0   0   0   0   0   0   0   0   0   0  11   0
 47 156 161 147 145 141 138 136 132 129 132 134 139 144 143 150 156 159 157 156 152 122 109 103
 97  91  83  74  60  48  39  30  23  16   7   6   6   6   6   5   5   5   5   5   5   6   6   6
  6   6   5   1   0   0   0   0   0   0   0   0   0   0   0   0   0   0   0   0   0   0   0   0
  0   0   0   0
  0   0   0   0   0   0   0   0   0   0   0   0   0   0   0   0   0   0   0   0   0   0  11   0
 47 156 161 146 145 146 141 138 138 132 135 139 139 147 153 159 165 172 169 161 164 148 118 106
100  96  89  79  67  55  43  33  25  20  10   5   6   6   5   5   5   5   5   5   5   6   6   6
  6   6   5   1   0   0   0   0   0   0   0   0   0   0   0   0   0   0   0   0   0   0   0   0
  0   0   0   0
  0   0   0   0   0   0   0   0   0   0   0   0   0   0   0   0   0   0   0   0   0   0  11   0
 46 157 161 148 147 149 148 146 143 138 136 138 142 153 161 168 170 173 173 160 161 162 130 107
104  99  92  84  74  61  49  38  28  22  14   5   5   6   5   5   5   5   5   5   5   6   6   6
  6   6   5   1   0   0   0   0   0   0   0   0   0   0   0   0   0   0   0   0   0   0   0   0
  0   0   0   0
  0   0   0   0   0   0   0   0   0   0   0   0   0   0   0   0   0   0   0   0   0   0  12   0
 48 160 162 151 156 155 152 148 140 139 143 139 147 160 165 168 168 168 174 169 159 159 148 120
107 100  92  85  77  64  54  41  31  23  17   7   5   5   5   5   5   5   5   6   6   6   6   6
  6   6   5   1   0   0   0   0   0   0   0   0   0   0   0   0   0   0   0   0   0   0   0   0
  0   0   0   0
  0   0   0   0   0   0   0   0   0   0   0   0   0   0   0   0   0   0   0   0   0   0  11   0
 48 152 155 152 158 157 152 146 141 143 151 158 160 164 171 169 169 170 175 175 169 162 154 141
120 106  99  90  83  71  55  46  34  24  19  10   4   5   5   5   5   5   6   6   6   6   6   6
  6   6   5   1   0   0   0   0   0   0   0   0   0   0   0   0   0   0   0   0   0   0   0   0
  0   0   0   0
  0   0   0   0   0   0   0   0   0   0   0   0   0   0   0   0   0   0   0   0   0   0  10   0
 45 143 150 150 153 155 152 146 145 145 147 160 166 166 175 176 177 182 180 176 174 171 158 147
133 116 110 105  96  82  64  50  40  27  20  13   4   5   5   5   5   6   6   6   6   6   6   6
  6   6   5   1   0   0   0   0   0   0   0   0   0   0   0   0   0   0   0   0   0   0   0   0
  0   0   0   0
  0   0   0   0   0   0   0   0   0   0   0   0   0   0   0   0   0   0   0   0   0   0   9   0
 45 140 144 144 153 156 158 157 153 148 150 156 165 166 168 175 176 183 182 178 172 164 160 158
155 138 123 108  92  76  66  54  43  31  22  17   6   4   5   5   6   6   6   6   6   6   6   6
  6   5   5   1   0   0   0   0   0   0   0   0   0   0   0   0   0   0   0   0   0   0   0   0
  0   0   0   0
  0   0   0   0   0   0   0   0   0   0   0   0   0   0   0   0   0   0   0   0   0   0   9   0
 44 140 143 141 150 150 157 164 162 161 160 158 160 165 165 173 176 182 181 179 167 149 146 150
163 166 138 102  86  75  67  56  44  34  24  19  10   5   6   6   6   6   6   6   6   6   6   6
  5   5   5   1   0   0   0   0   0   0   0   0   0   0   0   0   0   0   0   0   0   0   0   0
  0   0   0   0
  0   0   0   0   0   0   0   0   0   0   0   0   0   0   0   0   0   0   0   0   0   0  10   0
 47 146 150 144 146 145 149 156 161 167 162 162 163 164 166 169 174 182 184 171 155 144 135 129
140 151 133 109  93  83  72  61  49  36  27  20  14   5   6   6   6   6   6   5   6   6   6   6
  5   6   5   1   0   0   0   0   0   0   0   0   0   0   0   0   0   0   0   0   0   0   0   0
  0   0   0   0
  0   0   0   0   0   0   0   0   0   0   0   0   0   0   0   0   0   0   0   0   0   0  10   0
 44 147 160 152 149 151 150 151 153 161 166 166 168 168 164 155 161 164 170 164 152 146 137 125
126 138 127 113 102  88  77  65  52  41  30  22  17   6   5   6   6   6   6   5   5   5   5   6
  5   5   5   1   0   0   0   0   0   0   0   0   0   0   0   0   0   0   0   0   0   0   0   0
  0   0   0   0
  0   0   0   0   0   0   0   0   0   0   0   0   0   0   0   0   0   0   0   0   0   0  10   0
 43 151 166 162 159 159 163 158 157 162 168 174 167 163 159 149 154 153 157 163 153 138 135 139
132 135 128 115 107  95  81  68  57  44  33  26  19   8   5   6   5   5   5   5   5   5   6   6
  5   5   5   1   0   0   0   0   0   0   0   0   0   0   0   0   0   0   0   0   0   0   0   0
  0   0   0   0
  0   0   0   0   0   0   0   0   0   0   0   0   0   0   0   0   0   0   0   0   0   0  10   0
 44 150 165 165 166 162 167 169 164 159 163 171 172 165 164 152 151 156 159 153 143 140 132 143
144 128 133 118 108 105  89  71  60  49  37  28  21  10   4   6   5   5   5   5   5   6   6   5
  6   6   5   1   0   0   0   0   0   0   0   0   0   0   0   0   0   0   0   0   0   0   0   0
  0   0   0   0
  0   0   0   0   0   0   0   0   0   0   0   0   0   0   0   0   0   0   0   0   0   0  10   0
 45 142 151 158 165 160 164 169 170 166 161 163 170 170 171 166 160 165 168 155 139 136 143 132
138 132 133 125 106 103  95  75  65  52  41  30  22  14   5   6   5   5   5   5   5   5   6   6
  6   6   5   1   0   0   0   0   0   0   0   0   0   0   0   0   0   0   0   0   0   0   0   0
  0   0   0   0
  0   0   0   0   0   0   0   0   0   0   0   0   0   0   0   0   0   0   0   0   0   0  10   0
 45 144 153 154 163 166 169 166 163 167 161 158 163 163 167 167 162 167 171 157 149 140 149 139
133 137 133 128 111 101  94  81  67  53  43  32  25  18   6   5   5   5   5   5   5   5   5   6
  6   6   5   1   0   0   0   0   0   0   0   0   0   0   0   0   0   0   0   0   0   0   0   0
  0   0   0   0
  0   0   0   0   0   0   0   0   0   0   0   0   0   0   0   0   0   0   0   0   0   0  10   0
 43 148 161 160 164 163 163 161 155 165 171 163 165 161 163 160 147 155 163 151 152 145 144 148
144 135 130 124 113  98  91  84  69  56  43  35  27  20   8   5   5   5   6   5   5   6   6   6
  6   6   6   1   0   0   0   0   0   0   0   0   0   0   0   0   0   0   0   0   0   0   0   0
  0   0   0   0
  0   0   0   0   0   0   0   0   0   0   0   0   0   0   0   0   0   0   0   0   0   0   9   0
 41 145 161 161 160 154 150 159 155 156 172 179 172 166 168 163 151 156 153 150 147 148 141 139
143 136 124 121 123 108  93  84  73  61  49  38  29  22  10   4   5   5   5   5   6   6   6   6
  6   6   5   1   0   0   0   0   0   0   0   0   0   0   0   0   0   0   0   0   0   0   0   0
  0   0   0   0
  0   0   0   0   0   0   0   0   0   0   0   0   0   0   0   0   0   0   0   0   0   0  10   0
 44 144 154 157 158 158 152 151 154 155 162 172 166 164 170 174 168 158 151 151 144 140 140 130
134 133 123 115 121 114  94  85  76  66  54  39  29  23  13   4   5   5   5   6   6   6   6   6
  6   6   5   1   0   0   0   0   0   0   0   0   0   0   0   0   0   0   0   0   0   0   0   0
  0   0   0   0
  0   0   0   0   0   0   0   0   0   0   0   0   0   0   0   0   0   0   0   0   0   0  10   0
 44 144 156 159 159 160 162 152 150 157 156 159 159 159 162 166 162 157 149 151 152 142 144 132
131 135 132 114 106 109  99  85  76  65  55  43  30  24  16   4   5   5   5   6   6   6   6   6
  6   6   5   1   0   0   0   0   0   0   0   0   0   0   0   0   0   0   0   0   0   0   0   0
  0   0   0   0
  0   0   0   0   0   0   0   0   0   0   0   0   0   0   0   0   0   0   0   0   0   0   9   0
 43 141 151 157 164 159 156 158 162 161 157 157 157 162 161 161 161 153 148 147 155 145 145 140
128 134 141 133 114 107 104  90  74  66  56  44  32  25  18   5   4   6   6   6   6   6   6   6
  5   5   5   1   0   0   0   0   0   0   0   0   0   0   0   0   0   0   0   0   0   0   0   0
  0   0   0   0
  0   0   0   0   0   0   0   0   0   0   0   0   0   0   0   0   0   0   0   0   0   0  10   0
 44 148 159 161 160 154 151 155 163 166 156 153 150 155 158 161 167 154 148 145 143 143 137 138
130 131 132 138 120 103 100  95  78  67  55  45  34  25  20   7   5   6   5   6   6   6   6   5
  5   5   5   1   0   0   0   0   0   0   0   0   0   0   0   0   0   0   0   0   0   0   0   0
  0   0   0   0
  0   0   0   0   0   0   0   0   0   0   0   0   0   0   0   0   0   0   0   0   0   0  10   0
 44 152 171 170 160 153 152 153 154 159 155 152 150 148 148 153 164 162 157 152 142 136 130 136
133 131 123 118 119 109  99  92  81  70  58  47  35  27  22   9   4   6   5   5   5   6   6   5
  5   5   5   0   0   0   0   0   0   0   0   0   0   0   0   0   0   0   0   0   0   0   0   0
  0   0   0   0
  0   0   0   0   0   0   0   0   0   0   0   0   0   0   0   0   0   0   0   0   0   0  10   0
 44 146 161 161 159 155 151 151 151 154 158 156 154 156 155 151 148 152 157 157 147 131 130 133
128 126 123 111 113 109  98  91  82  72  62  48  37  29  22  12   5   6   5   5   5   6   6   6
  5   5   4   1   0   0   0   0   0   0   0   0   0   0   0   0   0   0   0   0   0   0   0   0
  0   0   0   0
  0   0   0   0   0   0   0   0   0   0   0   0   0   0   0   0   0   0   0   0   0   0   9   0
 39 142 155 151 152 156 159 157 157 155 157 154 155 161 156 150 150 144 149 150 147 136 131 129
133 126 122 116 111 106  98  91  81  71  62  51  41  31  23  15   5   5   5   5   6   6   6   6
  5   5   4   1   0   0   0   0   0   0   0   0   0   0   0   0   0   0   0   0   0   0   0   0
  0   0   0   0
  0   0   0   0   0   0   0   0   0   0   0   0   0   0   0   0   0   0   0   0   0   0   8   0
 37 137 153 154 160 160 163 169 168 162 158 155 151 153 151 146 150 156 153 146 139 132 126 128
135 130 121 120 121 105  96  90  79  72  63  54  43  32  23  16   5   5   5   5   5   6   6   6
  6   5   4   0   0   0   0   0   0   0   0   0   0   0   0   0   0   0   0   0   0   0   0   0
  0   0   0   0
  0   0   0   0   0   0   0   0   0   0   0   0   0   0   0   0   0   0   0   0   0   0   8   0
 38 137 153 153 157 156 155 162 168 170 168 162 152 148 147 150 151 150 148 142 135 132 129 127
130 131 122 117 129 118  99  92  84  74  65  56  44  32  25  15   5   5   5   5   5   6   6   6
  5   5   4   0   0   0   0   0   0   0   0   0   0   0   0   0   0   0   0   0   0   0   0   0
  0   0   0   0
  0   0   0   0   0   0   0   0   0   0   0   0   0   0   0   0   0   0   0   0   0   0   9   0
 43 143 152 148 150 148 149 155 160 168 172 173 164 156 148 145 151 148 142 146 138 131 131 127
124 132 126 110 118 124 116 105  90  77  65  55  43  33  26  15   5   5   5   6   6   6   6   6
  5   4   4   0   0   0   0   0   0   0   0   0   0   0   0   0   0   0   0   0   0   0   0   0
  0   0   0   0
  0   0   0   0   0   0   0   0   0   0   0   0   0   0   0   0   0   0   0   0   0   0  10   0
 43 146 155 152 152 149 152 159 158 161 163 172 173 156 143 138 146 151 144 143 140 141 131 126
129 130 129 117 108 111 112 114  96  84  71  57  45  34  24  14   5   6   6   6   6   6   6   5
  4   4   4   0   0   0   0   0   0   0   0   0   0   0   0   0   0   0   0   0   0   0   0   0
  0   0   0   0
  0   0   0   0   0   0   0   0   0   0   0   0   0   0   0   0   0   0   0   0   0   0   9   0
 39 142 154 153 153 149 151 163 164 156 157 166 167 156 152 147 149 149 137 132 131 141 135 120
123 132 130 123 116 108 101  98  94  79  68  58  46  31  20  14   6   6   6   5   5   5   5   5
  4   5   4   0   0   0   0   0   0   0   0   0   0   0   0   0   0   0   0   0   0   0   0   0
  0   0   0   0
  0   0   0   0   0   0   0   0   0   0   0   0   0   0   0   0   0   0   0   0   0   0   8   0
 39 137 150 151 155 154 154 167 171 165 159 164 173 167 159 159 153 145 128 125 126 129 131 125
118 124 130 123 119 107 104 100  97  83  68  58  42  26  20  13   5   5   5   5   5   5   5   5
  5   5   4   0   0   0   0   0   0   0   0   0   0   0   0   0   0   0   0   0   0   0   0   0
  0   0   0   0
  0   0   0   0   0   0   0   0   0   0   0   0   0   0   0   0   0   0   0   0   0   0   9   0
 41 141 151 150 154 155 159 164 165 168 173 170 175 174 169 168 160 153 147 137 129 125 120 128
124 120 132 131 109 101 103 101  93  81  68  52  38  25  18  10   5   5   5   5   5   5   5   5
  5   5   4   0   0   0   0   0   0   0   0   0   0   0   0   0   0   0   0   0   0   0   0   0
  0   0   0   0
  0   0   0   0   0   0   0   0   0   0   0   0   0   0   0   0   0   0   0   0   0   0   9   0
 41 143 153 146 150 156 160 163 164 168 174 174 174 173 177 174 168 161 155 145 137 129 123 125
125 123 134 138 116 100  99  98  89  76  63  47  34  23  17   9   5   5   5   5   5   5   5   5
  5   5   4   0   0   0   0   0   0   0   0   0   0   0   0   0   0   0   0   0   0   0   0   0
  0   0   0   0
  0   0   0   0   0   0   0   0   0   0   0   0   0   0   0   0   0   0   0   0   0   0   8   0
 38 138 153 146 146 154 157 164 174 177 174 171 173 168 169 170 171 169 160 145 131 123 122 123
126 124 123 135 129 105  96  97  94  81  63  45  30  20  15   7   4   5   5   5   5   6   5   5
  5   5   4   0   0   0   0   0   0   0   0   0   0   0   0   0   0   0   0   0   0   0   0   0
  0   0   0   0
  0   0   0   0   0   0   0   0   0   0   0   0   0   0   0   0   0   0   0   0   0   0   9   0
 42 143 151 145 150 156 157 168 171 171 169 163 161 161 156 154 153 160 164 161 141 126 121 121
119 122 119 127 133 121  97  91  89  77  62  40  26  17  11   4   5   5   5   5   5   5   5   5
  5   5   4   0   0   0   0   0   0   0   0   0   0   0   0   0   0   0   0   0   0   0   0   0
  0   0   0   0
  0   0   0   0   0   0   0   0   0   0   0   0   0   0   0   0   0   0   0   0   0   0   9   0
 40 140 149 144 150 156 159 165 166 162 163 163 158 158 154 149 149 153 160 164 150 143 138 132
127 126 129 135 144 151 134 107  90  82  58  34  23  15   8   4   5   4   4   5   5   5   5   5
  5   5   5   0   0   0   0   0   0   0   0   0   0   0   0   0   0   0   0   0   0   0   0   0
  0   0   0   0
  0   0   0   0   0   0   0   0   0   0   0   0   0   0   0   0   0   0   0   0   0   0   8   0
 39 136 147 143 147 149 158 162 167 164 159 166 162 148 150 149 153 156 154 151 147 144 149 146
141 136 132 133 139 147 148 138 116  98  65  34  21  11   5   5   4   4   4   5   5   5   5   5
  5   5   5   1   0   0   0   0   0   0   0   0   0   0   0   0   0   0   0   0   0   0   0   0
  0   0   0   0
  0   0   0   0   0   0   0   0   0   0   0   0   0   0   0   0   0   0   0   0   0   0   8   0
 37 135 149 147 148 149 154 158 162 167 164 160 157 149 153 150 148 149 148 144 145 145 145 143
139 134 124 117 115 119 118 114 112 107  77  30  17   6   5   4   4   4   5   5   5   5   5   5
  5   6   5   1   0   0   0   0   0   0   0   0   0   0   0   0   0   0   0   0   0   0   0   0
  0   0   0   0
  0   0   0   0   0   0   0   0   0   0   0   0   0   0   0   0   0   0   0   0   0   0   8   0
 38 133 146 144 145 149 151 151 152 156 160 160 157 160 160 153 144 141 141 130 129 132 138 133
127 125 116 111 106 107 106  99  95  89  58  23  15   4   5   4   5   5   5   5   5   5   4   4
  5   5   5   1   0   0   0   0   0   0   0   0   0   0   0   0   0   0   0   0   0   0   0   0
  0   0   0   0
  0   0   0   0   0   0   0   0   0   0   0   0   0   0   0   0   0   0   0   0   0   0   8   0
 39 129 141 150 150 148 151 149 148 148 149 153 160 162 159 157 148 138 140 130 122 122 127 123
116 120 121 116 110 105 101  98  91  73  43  26  15   4   5   5   5   6   5   5   5   4   4   5
  5   5   4   0   0   0   0   0   0   0   0   0   0   0   0   0   0   0   0   0   0   0   0   0
  0   0   0   0
  0   0   0   0   0   0   0   0   0   0   0   0   0   0   0   0   0   0   0   0   0   0   7   0
 35 128 140 150 158 154 159 155 147 146 149 151 157 159 158 157 152 145 138 127 121 125 129 133
128 123 117 117 116 113 104  97  82  63  41  26  11   4   5   5   5   5   5   5   4   4   4   5
  5   5   4   1   0   0   0   0   0   0   0   0   0   0   0   0   0   0   0   0   0   0   0   0
  0   0   0   0
  0   0   0   0   0   0   0   0   0   0   0   0   0   0   0   0   0   0   0   0   0   0   7   0
 36 129 140 140 148 151 158 160 156 151 148 148 147 152 158 156 150 144 136 132 131 124 123 131
140 137 125 120 109 105  98  93  75  55  35  21   6   5   6   6   5   5   4   4   3   4   4   5
  5   5   5   1   0   0   0   0   0   0   0   0   0   0   0   0   0   0   0   0   0   0   0   0
  0   0   0   0
  0   0   0   0   0   0   0   0   0   0   0   0   0   0   0   0   0   0   0   0   0   0   8   0
 37 130 141 143 143 146 147 148 153 153 148 144 146 145 149 152 143 137 145 140 125 121 119 121
125 128 123 115 102  90  81  70  66  52  25  13   4   5   5   6   5   4   4   4   4   4   4   5
  5   5   4   1   0   0   0   0   0   0   0   0   0   0   0   0   0   0   0   0   0   0   0   0
  0   0   0   0
  0   0   0   0   0   0   0   0   0   0   0   0   0   0   0   0   0   0   0   0   0   0   8   0
 37 135 150 145 146 152 154 149 149 151 148 147 144 140 137 133 134 139 139 132 120 120 118 116
108 109 109 102  94  86  75  54  49  45  17   6   5   6   5   6   6   4   4   4   4   4   5   5
  5   5   4   1   0   0   0   0   0   0   0   0   0   0   0   0   0   0   0   0   0   0   0   0
  0   0   0   0
  0   0   0   0   0   0   0   0   0   0   0   0   0   0   0   0   0   0   0   0   0   0   7   0
 35 129 144 143 142 154 161 157 158 155 147 144 135 127 130 132 136 145 131 122 124 119 112 107
103  99  98  99  90  76  65  49  42  35   8   4   5   6   5   5   4   4   4   4   4   4   5   5
  5   5   5   1   0   0   0   0   0   0   0   0   0   0   0   0   0   0   0   0   0   0   0   0
  0   0   0   0
  0   0   0   0   0   0   0   0   0   0   0   0   0   0   0   0   0   0   0   0   0   0   6   0
 33 122 137 141 147 153 156 149 147 144 144 140 137 131 127 135 138 131 128 126 118 114 115 112
105  97  94  93  87  70  54  42  35  28   3   5   6   5   4   4   4   3   4   4   4   5   4   5
  5   5   5   0   0   0   0   0   0   0   0   0   0   0   0   0   0   0   0   0   0   0   0   0
  0   0   0   0
  0   0   0   0   0   0   0   0   0   0   0   0   0   0   0   0   0   0   0   0   0   0   7   0
 35 127 142 146 152 148 147 143 139 140 146 143 135 134 131 133 127 122 126 124 116 106 106 109
110  97  91  83  75  62  48  35  31  20   3   6   5   5   4   3   4   4   4   4   4   5   4   5
  5   5   4   0   0   0   0   0   0   0   0   0   0   0   0   0   0   0   0   0   0   0   0   0
  0   0   0   0
  0   0   0   0   0   0   0   0   0   0   0   0   0   0   0   0   0   0   0   0   0   0   7   0
 34 127 143 141 144 147 150 148 144 137 137 144 146 137 132 129 127 122 118 116 115 106 100  96
101  98  87  76  66  53  38  29  27  12   4   6   5   4   4   4   4   4   4   4   4   4   4   5
  5   5   5   1   0   0   0   0   0   0   0   0   0   0   0   0   0   0   0   0   0   0   0   0
  0   0   0   0
  0   0   0   0   0   0   0   0   0   0   0   0   0   0   0   0   0   0   0   0   0   0   6   0
 31 121 134 131 135 142 140 140 140 135 135 139 138 135 128 130 125 115 112 111 114 110 100  92
 89  88  81  68  54  44  31  23  19   6   5   5   5   4   4   4   4   5   5   4   4   4   5   5
  5   5   5   1   0   0   0   0   0   0   0   0   0   0   0   0   0   0   0   0   0   0   0   0
  0   0   0   0
  0   0   0   0   0   0   0   0   0   0   0   0   0   0   0   0   0   0   0   0   0   0   6   0
 29 120 133 129 137 139 139 137 140 142 138 135 125 123 127 125 122 119 111 106 107 106  97  88
 81  74  69  57  45  36  26  20  13   5   5   5   5   4   4   4   5   5   5   4   4   4   5   5
  5   5   4   1   0   0   0   0   0   0   0   0   0   0   0   0   0   0   0   0   0   0   0   0
  0   0   0   0
  0   0   0   0   0   0   0   0   0   0   0   0   0   0   0   0   0   0   0   0   0   0   5   0
 29 114 130 131 139 143 147 142 142 145 141 138 132 121 119 123 124 120 113 104 102  99  92  85
 74  65  58  47  37  29  21  16   7   5   5   5   5   5   5   4   4   4   4   4   4   4   5   5
  4   5   4   0   0   0   0   0   0   0   0   0   0   0   0   0   0   0   0   0   0   0   0   0
  0   0   0   0
  0   0   0   0   0   0   0   0   0   0   0   0   0   0   0   0   0   0   0   0   0   0   5   0
 28 108 122 129 135 135 142 152 153 149 143 141 139 127 117 113 115 117 112  98  96  93  83  78
 69  58  51  37  28  23  17   9   5   5   5   5   5   5   5   4   4   4   4   4   4   5   5   5
  5   5   4   0   0   0   0   0   0   0   0   0   0   0   0   0   0   0   0   0   0   0   0   0
  0   0   0   0
  0   0   0   0   0   0   0   0   0   0   0   0   0   0   0   0   0   0   0   0   0   0   5   0
 27 109 119 121 129 128 133 146 146 142 140 140 134 124 112 103 102 107 104  94  87  84  77  68
 59  49  40  26  23  19  11   4   5   5   4   5   5   5   5   5   4   5   5   4   5   5   5   5
  5   4   4   0   0   0   0   0   0   0   0   0   0   0   0   0   0   0   0   0   0   0   0   0
  0   0   0   0
  0   0   0   0   0   0   0   0   0   0   0   0   0   0   0   0   0   0   0   0   0   0   4   0
 23 105 120 120 123 130 136 130 123 126 137 134 113 109 110 105  97  95  93  88  79  73  64  55
 48  38  30  22  20  12   4   4   5   5   5   5   6   6   5   5   4   5   5   5   5   5   5   5
  4   5   5   1   0   0   0   0   0   0   0   0   0   0   0   0   0   0   0   0   0   0   0   0
  0   0   0   0
  0   0   0   0   0   0   0   0   0   0   0   0   0   0   0   0   0   0   0   0   0   0   4   0
 20  97 114 112 117 126 125 113 113 116 123 115 100  96  97  96  92  87  85  78  68  59  50  42
 37  30  27  20  11   4   4   4   5   5   5   6   6   5   5   4   4   4   5   5   5   5   5   5
  5   5   5   1   0   0   0   0   0   0   0   0   0   0   0   0   0   0   0   0   0   0   0   0
  0   0   0   0
  0   0   0   0   0   0   0   0   0   0   0   0   0   0   0   0   0   0   0   0   0   0   3   0
 19  92 107 103 106 109 106 103  97  99 104 103  96  85  85  83  82  78  73  66  58  48  39  31
 26  22  18  10   3   4   4   4   5   5   6   6   5   5   5   5   5   6   6   6   6   5   6   6
  6   6   5   1   0   0   0   0   0   0   0   0   0   0   0   0   0   0   0   0   0   0   0   0
  0   0   0   0
  0   0   0   0   0   0   0   0   0   0   0   0   0   0   0   0   0   0   0   0   0   0   3   0
 17  81  93  91  92  91  91  91  87  86  88  91  88  79  77  73  68  64  58  53  47  38  30  24
 20  15   6   3   4   5   5   5   5   5   5   5   5   5   5   6   6   6   6   6   6   6   6   6
  6   6   5   1   0   0   0   0   0   0   0   0   0   0   0   0   0   0   0   0   0   0   0   0
  0   0   0   0
  0   0   0   0   0   0   0   0   0   0   0   0   0   0   0   0   0   0   0   0   0   0   2   0
 16  69  75  74  77  80  79  76  76  76  77  76  73  69  66  62  57  51  45  41  34  27  23  19
 13   5   3   4   4   5   5   5   5   4   5   5   5   5   6   6   6   6   6   6   6   6   6   6
  5   5   5   1   0   0   0   0   0   0   0   0   0   0   0   0   0   0   0   0   0   0   0   0
  0   0   0   0
  0   0   0   0   0   0   0   0   0   0   0   0   0   0   0   0   0   0   0   0   0   0   1   0
 11  59  66  66  67  69  69  67  66  67  67  62  59  55  52  50  45  40  35  29  24  19  16   9
  4   3   4   4   4   4   4   5   5   4   4   5   5   5   6   6   6   6   5   6   6   6   6   6
  6   6   5   1   0   0   0   0   0   0   0   0   0   0   0   0   0   0   0   0   0   0   0   0
  0   0   0   0
  0   0   0   0   0   0   0   0   0   0   0   0   0   0   0   0   0   0   0   0   0   0   1   0
  7  50  58  58  59  58  57  58  57  56  52  50  48  45  41  36  33  30  25  21  19  13   6   3
  4   4   4   4   5   4   4   4   4   4   4   5   5   5   6   6   5   5   5   6   6   6   6   6
  6   6   5   1   0   0   0   0   0   0   0   0   0   0   0   0   0   0   0   0   0   0   0   0
  0   0   0   0
  0   0   0   0   0   0   0   0   0   0   0   0   0   0   0   0   0   0   0   0   0   0   1   0
  6  43  50  49  49  48  47  46  45  44  42  40  37  34  31  26  23  20  17  15   8   3   3   4
  4   3   6   6   4   4   4   4   5   4   4   5   5   5   6   5   5   5   6   6   6   6   6   6
  5   5   4   0   0   0   0   0   0   0   0   0   0   0   0   0   0   0   0   0   0   0   0   0
  0   0   0   0
  0   0   0   0   0   0   0   0   0   0   0   0   0   0   0   0   0   0   0   0   0   0   1   0
  4  39  44  41  39  40  38  38  36  34  32  30  27  24  22  19  18  14   8   4   3   4   4   4
  4   4   5   5   4   4   5   5   5   5   5   5   4   5   5   5   5   6   6   6   6   6   5   5
  5   5   4   0   0   0   0   0   0   0   0   0   0   0   0   0   0   0   0   0   0   0   0   0
  0   0   0   0
  0   0   0   0   0   0   0   0   0   0   0   0   0   0   0   0   0   0   0   0   0   0   1   0
  3  34  38  35  34  33  32  29  27  26  24  22  20  19  16  13   8   4   3   3   4   4   4   4
  4   4   4   4   4   5   5   4   4   5   4   4   4   5   5   5   5   6   6   6   5   5   5   5
  5   5   4   0   0   0   0   0   0   0   0   0   0   0   0   0   0   0   0   0   0   0   0   0
  0   0   0   0
  0   0   0   0   0   0   0   0   0   0   0   0   0   0   0   0   0   0   0   0   0   0   0   0
  2  26  30  28  28  26  25  24  22  20  19  17  14  10   6   4   3   3   4   4   4   4   4   3
  4   3   4   4   4   4   4   4   4   4   4   4   4   5   5   5   6   6   5   5   5   5   5   5
  5   5   4   0   0   0   0   0   0   0   0   0   0   0   0   0   0   0   0   0   0   0   0   0
  0   0   0   0
  0   0   0   0   0   0   0   0   0   0   0   0   0   0   0   0   0   0   0   0   0   0   0   0
  3  24  28  26  24  23  21  20  17  13  10   7   4   3   3   4   4   4   4   4   4   4   4   4
  4   4   4   4   4   4   4   5   5   5   5   5   5   5   5   5   5   5   5   4   5   5   6   6
  6   5   4   0   0   0   0   0   0   0   0   0   0   0   0   0   0   0   0   0   0   0   0   0
  0   0   0   0
  0   0   0   0   0   0   0   0   0   0   0   0   0   0   0   0   0   0   0   0   0   0   0   0
  2  20  22  20  17  14  11   8   5   4   4   4   4   4   5   5   4   4   4   5   4   5   5   5
  5   5   4   4   4   4   5   5   5   5   6   6   5   6   5   5   5   5   5   5   5   5   6   6
  5   4   4   0   0   0   0   0   0   0   0   0   0   0   0   0   0   0   0   0   0   0   0   0
  0   0   0   0
  0   0   0   0   0   0   0   0   0   0   0   0   0   0   0   0   0   0   0   0   0   0   0   0
  0   5   6   6   6   5   5   5   5   5   5   4   4   4   4   5   4   4   5   5   5   5   6   5
  5   5   5   4   4   5   5   5   5   5   5   5   6   6   6   5   5   4   4   5   6   6   6   5
  5   4   4   1   0   0   0   0   0   0   0   0   0   0   0   0   0   0   0   0   0   0   0   0
  0   0   0   0
  0   0   0   0   0   0   0   0   0   0   0   0   0   0   0   0   0   0   0   0   0   0   0   0
  0   5   7   7   7   6   6   5   5   5   5   4   4   4   5   5   5   5   5   6   6   6   6   6
  5   5   4   4   4   5   5   5   5   5   5   5   5   5   5   5   4   4   5   5   5   5   5   4
  4   5   4   1   0   0   0   0   0   0   0   0   0   0   0   0   0   0   0   0   0   0   0   0
  0   0   0   0
  0   0   0   0   0   0   0   0   0   0   0   0   0   0   0   0   0   0   0   0   0   0   0   0
  0   6   7   7   6   5   5   5   4   4   4   4   5   5   5   5   5   5   6   6   6   6   6   5
  5   4   4   4   4   5   4   4   4   4   5   5   5   4   4   4   4   4   5   4   4   4   4   5
  4   4   4   0   0   0   0   0   0   0   0   0   0   0   0   0   0   0   0   0   0   0   0   0
  0   0   0   0
  0   0   0   0   0   0   0   0   0   0   0   0   0   0   0   0   0   0   0   0   0   0   0   0
  0   6   7   7   6   6   5   5   4   4   5   5   5   5   5   5   5   6   6   6   6   6   6   5
  5   4   4   5   5   4   4   4   4   4   5   4   4   4   4   4   4   4   4   4   4   4   4   5
  4   4   4   0   0   0   0   0   0   0   0   0   0   0   0   0   0   0   0   0   0   0   0   0
  0   0   0   0
  0   0   0   0   0   0   0   0   0   0   0   0   0   0   0   0   0   0   0   0   0   0   0   0
  1   6   7   6   6   5   5   5   5   5   5   5   5   5   5   5   5   5   6   6   6   6   6   5
  4   4   4   5   5   4   4   4   4   4   4   4   4   4   4   5   4   4   4   4   4   4   4   5
  5   4   4   0   0   0   0   0   0   0   0   0   0   0   0   0   0   0   0   0   0   0   0   0
  0   0   0   0
  0   0   0   0   0   0   0   0   0   0   0   0   0   0   0   0   0   0   0   0   0   0   0   0
  1   6   7   6   6   5   5   5   5   5   5   5   5   5   5   6   5   5   6   6   6   6   5   5
  5   4   4   4   4   4   4   4   4   4   4   4   4   4   4   4   4   3   4   4   4   4   5   5
  4   4   3   0   0   0   0   0   0   0   0   0   0   0   0   0   0   0   0   0   0   0   0   0
  0   0   0   0
