P2
# 8-bit pgm gray
100 100
255
  0   0   0   0   0   0   0   0   0   0   0   0   0   0   0   1   0   0  78  98  94  96  95  94
 94  93  90  88  88  85  78  74  66  57  53  45  44  43  41  40  38  35  36  39  45  56  66  79
 88  93 127 161 175 182 187 191 193 194 195 197 197 192 190 188 187 185 185 183 181 182 184 184
179 181 176  71   0  18   0   1   0   0   0   0   0   0   0   0   0   0   0   0   0   0   0   0
  0   0   0   0
  0   0   0   0   0   0   0   0   0   0   0   0   0   0   0   0   0   4   0   0   0   0   0   0
  0   0   0   0   0   0   0   0   0   0   0   0   0   0   0   0   0   2  13  26  38  54  67  80
 95 100 119 159 183 196 202 207 211 213 215 217 216 213 211 208 206 206 205 202 202 204 202 202
196 197 191  79   0  20   0   0   0   0   0   0   0   0   0   0   0   0   0   0   0   0   0   0
  0   0   0   0
  0   0   0   0   0   0   0   0   0   0   0   0   0   0   0   0   0   0  19  26  25  25  25  25
 25  24  23  22  23  21  19  17  15  11  10   7   7   7   6   6   7  13  21  27  34  47  60  69
 84  95  98 131 165 182 191 196 201 205 209 211 210 207 207 205 203 201 200 199 201 206 199 195
194 196 186  74   0  19   0   0   0   0   0   0   0   0   0   0   0   0   0   0   0   0   0   0
  0   0   0   0
  0   0   0   0   0   0   0   0   0   0   0   0   0   0   0   0   0   0   0   0   0   0   0   0
  0   0   0   0   0   0   0   0   0   0   0   0   0   0   0   0   1   6  13  25  35  43  53  66
 78  90  96 111 150 174 184 193 200 205 210 212 210 209 209 208 206 204 204 203 203 206 199 196
195 198 190  76   0  19   0   0   0   0   0   0   0   0   0   0   0   0   0   0   0   0   0   0
  0   0   0   0
  0   0   0   0   0   0   0   0   0   0   0   0   0   0   0   0   0   0   0   0   0   0   0   0
  3   6   0   1   0   0   0   0   0   0   0   0   0   0   0   0   0   4  11  18  28  40  52  63
 73  82  94  98 126 161 175 187 197 203 210 213 209 209 209 207 206 207 206 204 202 202 200 197
194 200 192  76   0  20   0   0   0   0   0   0   0   0   0   0   0   0   0   0   0   0   0   0
  0   0   0   0
  0   0   0   0   0   0   0   0   0   0   0   0   0   0   0   0   0   0   0   0   0   0   1   0
 15  22   0   1   0   0   0   0   0   0   0   0   0   0   0   0   0   1   7  13  20  31  43  58
 73  80  89 100 107 140 166 181 190 202 210 211 208 208 209 210 210 209 208 207 204 202 203 200
199 203 196  79   0  20   0   0   0   0   0   0   0   0   0   0   0   0   0   0   0   0   0   0
  0   0   0   0
  0   0   0   0   0   0   0   0   0   0   0   0   0   0   0   0   0   0   0   0   0   0   2   0
 27  39   0   3   0   0   0   0   0   0   0   0   0   0   0   0   0   0   4   9  17  25  34  46
 61  75  87  98 104 122 155 172 184 199 204 207 207 208 208 210 210 208 208 207 204 201 200 200
200 202 195  79   0  20   0   0   0   0   0   0   0   0   0   0   0   0   0   0   0   0   0   0
  0   0   0   0
  0   0   0   0   0   0   0   0   0   0   0   0   0   0   0   0   0   0   0   0   0   0   3   0
 37  52   0   4   0   0   0   0   0   0   0   0   0   0   0   0   0   0   2   7  14  22  32  41
 50  67  82  88  96 108 140 166 182 191 197 205 206 208 209 210 210 209 208 205 205 201 198 201
201 201 193  78   0  20   0   0   0   0   0   0   0   0   0   0   0   0   0   0   0   0   0   0
  0   0   0   0
  0   0   0   0   0   0   0   0   0   0   0   0   0   0   0   0   0   0   0   0   0   0   4   0
 43  63   0   6   0   0   0   0   0   0   0   0   0   0   0   0   0   0   0   4  10  18  28  38
 49  63  78  86  96 102 116 149 174 184 192 202 203 206 208 209 210 210 212 208 206 204 200 201
203 204 195  79   0  20   0   0   0   0   0   0   0   0   0   0   0   0   0   0   0   0   0   0
  0   0   0   0
  0   0   0   0   0   0   0   0   0   0   0   0   0   0   0   0   0   0   0   0   0   0   5   0
 47  70   0   7   0   0   0   0   0   0   0   0   0   0   0   0   0   0   0   2   7  14  22  32
 44  55  71  85  94 103 110 127 161 177 188 198 199 203 207 207 210 211 212 213 209 206 205 203
204 209 199  79   0  21   0   0   0   0   0   0   0   0   0   0   0   0   0   0   0   0   0   0
  0   0   0   0
  0   0   0   0   0   0   0   0   0   0   0   0   0   0   0   0   0   0   0   0   0   0   6   0
 52  79   0   7   0   0   0   0   0   0   0   0   0   0   0   0   0   0   0   1   5  11  19  27
 37  49  62  78  93 102 108 114 138 168 183 192 193 198 204 205 208 211 213 214 211 207 206 206
204 211 203  80   0  21   0   0   0   0   0   0   0   0   0   0   0   0   0   0   0   0   0   0
  0   0   0   0
  0   0   0   0   0   0   0   0   0   0   0   0   0   0   0   0   0   0   0   0   0   0   7   0
 56  88   0   8   0   0   0   0   0   0   0   0   0   0   0   0   0   0   0   0   3   8  15  24
 34  46  59  73  91 105 110 115 122 150 172 185 190 193 200 205 207 210 212 213 214 210 206 206
206 210 204  82   0  22   0   0   0   0   0   0   0   0   0   0   0   0   0   0   0   0   0   0
  0   0   0   0
  0   0   0   0   0   0   0   0   0   0   0   0   0   0   0   0   0   0   0   0   0   0   7   0
 58  93   0   8   0   0   0   0   0   0   0   0   0   0   0   0   0   0   0   0   2   7  13  21
 30  41  54  68  82 101 108 112 116 128 161 181 185 191 196 202 206 208 210 211 213 214 208 206
208 210 202  82   0  21   0   0   0   0   0   0   0   0   0   0   0   0   0   0   0   0   0   0
  0   0   0   0
  0   0   0   0   0   0   0   0   0   0   0   0   0   0   0   0   0   0   0   0   0   0   7   0
 58  98   0   7   0   0   0   0   0   0   0   0   0   0   0   0   0   0   0   0   1   6  12  19
 28  39  50  61  77  93 101 107 112 118 142 172 177 185 193 199 203 206 209 209 211 213 211 208
207 210 201  80   0  21   0   0   0   0   0   0   0   0   0   0   0   0   0   0   0   0   0   0
  0   0   0   0
  0   0   0   0   0   0   0   0   0   0   0   0   0   0   0   0   0   0   0   0   0   0   5   0
 48  83   0   4   0   0   0   0   0   0   0   0   0   0   0   0   0   0   0   0   1   5  12  19
 27  36  45  58  72  89 103 109 112 116 126 153 168 177 187 194 198 203 207 208 210 211 211 210
206 209 201  80   0  21   0   0   0   0   0   0   0   0   0   0   0   0   0   0   0   0   0   0
  0   0   0   0
  0   0   0   0   0   0   0   0   0   0   0   0   0   0   0   0   0   0   0   0   0   0   0   0
  6  14   0   0   0   0   0   0   0   0   0   0   0   0   0   0   0   0   0   0   1   4  10  16
 24  33  44  58  73  88 104 112 111 115 128 133 150 167 178 188 194 200 203 207 209 210 211 210
206 208 198  79   0  21   0   0   0   0   0   0   0   0   0   0   0   0   0   0   0   0   0   0
  0   0   0   0
  0   0   0   0   0   0   0   0   0   0   0   0   0   0   0   0   0   0   0   0   0   0   0   1
  0   0   1   0   0   0   0   0   0   0   0   0   0   0   0   0   0   0   0   0   0   4   9  16
 24  33  43  58  73  84  98 109 110 118 129 128 133 157 170 181 191 196 201 206 208 209 209 210
209 210 200  79   0  21   0   0   0   0   0   0   0   0   0   0   0   0   0   0   0   0   0   0
  0   0   0   0
  0   0   0   0   0   0   0   0   0   0   0   0   0   0   0   0   0   0   0   0   0   0   0   0
  1   3   0   0   0   0   0   0   0   0   0   0   0   0   0   0   0   0   0   0   0   3   8  16
 25  33  44  57  70  81  93 101 109 116 121 121 126 143 165 174 184 191 197 203 206 209 209 209
209 212 201  80   0  21   0   0   0   0   0   0   0   0   0   0   0   0   0   0   0   0   0   0
  0   0   0   0
  0   0   0   0   0   0   0   0   0   0   0   0   0   0   0   0   0   0   0   0   0   0   0   0
  0   0   0   0   0   0   0   0   0   0   0   0   0   0   0   0   0   0   0   0   0   3   8  15
 23  34  46  57  70  82  93  99 110 113 111 116 124 131 149 166 176 185 192 199 203 207 209 209
208 213 203  80   0  21   0   0   0   0   0   0   0   0   0   0   0   0   0   0   0   0   0   0
  0   0   0   0
  0   0   0   0   0   0   0   0   0   0   0   0   0   0   0   0   0   0   0   0   0   0   0   0
  0   0   0   0   0   0   0   0   0   0   0   0   0   0   0   0   0   0   0   0   0   3   9  16
 24  33  45  55  68  81  92 100 109 115 112 116 122 127 132 152 171 179 186 195 202 206 209 209
208 214 206  80   0  21   0   0   0   0   0   0   0   0   0   0   0   0   0   0   0   0   0   0
  0   0   0   0
  0   0   0   0   0   0   0   0   0   0   0   0   0   0   0   0   0   0   0   0   0   0   0   0
  0   0   0   0   0   0   0   0   0   0   0   0   0   0   0   0   0   0   0   0   0   4  11  17
 26  35  45  55  68  81  90  98 107 116 115 118 123 125 126 136 161 173 180 191 199 203 205 207
209 213 205  81   0  21   0   0   0   0   0   0   0   0   0   0   0   0   0   0   0   0   0   0
  0   0   0   0
  0   0   0   0   0   0   0   0   0   0   0   0   0   0   0   0   0   0   0   0   0   0   0   0
  0   0   0   0   0   0   0   0   0   0   0   0   0   0   0   0   0   0   0   0   1   4  10  18
 26  37  47  57  68  79  86  96 108 113 113 120 126 126 127 130 146 166 175 184 193 198 202 205
207 212 204  81   0  21   0   0   0   0   0   0   0   0   0   0   0   0   0   0   0   0   0   0
  0   0   0   0
  0   0   0   0   0   0   0   0   0   0   0   0   0   0   0   0   0   0   0   0   0   0   0   0
  0   0   0   0   0   0   0   0   0   0   0   0   0   0   0   0   0   0   0   0   1   5  11  19
 27  36  47  59  70  80  87  98 107 110 114 119 122 125 126 128 133 150 166 177 188 193 200 205
207 212 205  81   0  21   0   0   0   0   0   0   0   0   0   0   0   0   0   0   0   0   0   0
  0   0   0   0
  0   0   0   0   0   0   0   0   0   0   0   0   0   0   0   0   0   0   0   0   0   0   0   0
  0   0   0   0   0   0   0   0   0   0   0   0   0   0   0   0   0   0   0   0   2   6  12  20
 28  38  49  61  71  80  90 105 109 108 113 116 119 122 124 123 127 135 153 170 181 188 196 204
205 211 205  81   0  21   0   0   0   0   0   0   0   0   0   0   0   0   0   0   0   0   0   0
  0   0   0   0
  0   0   0   0   0   0   0   0   0   0   0   0   0   0   0   0   0   0   0   0   0   0   0   0
  0   0   0   0   0   0   0   0   0   0   0   0   0   0   0   0   0   0   0   0   3   7  13  20
 30  40  49  58  69  78  89 101 108 109 110 113 119 120 119 121 127 129 141 163 175 183 194 201
202 208 202  81   0  21   0   0   0   0   0   0   0   0   0   0   0   0   0   0   0   0   0   0
  0   0   0   0
  0   0   0   0   0   0   0   0   0   0   0   0   0   0   0   0   0   0   0   0   0   0   0   0
  0   0   0   0   0   0   0   0   0   0   0   0   0   0   0   0   0   0   0   0   4   8  15  22
 31  40  49  59  71  82  93  98 104 111 111 114 118 118 117 120 125 127 136 155 171 181 190 196
200 207 201  80   0  21   0   0   0   0   0   0   0   0   0   0   0   0   0   0   0   0   0   0
  0   0   0   0
  0   0   0   0   0   0   0   0   0   0   0   0   0   0   0   0   0   0   0   0   0   0   0   0
  0   0   0   0   0   0   0   0   0   0   0   0   0   0   0   0   0   0   0   1   4   9  18  26
 34  44  53  68  82  91  98  98 103 112 115 118 118 117 119 122 124 127 131 145 162 174 184 192
197 206 200  79   0  21   0   0   0   0   0   0   0   0   0   0   0   0   0   0   0   0   0   0
  0   0   0   0
  0   0   0   0   0   0   0   0   0   0   0   0   0   0   0   0   0   0   0   0   0   0   0   0
  0   0   0   0   0   0   0   0   0   0   0   0   0   0   0   0   0   0   0   1   6  11  19  27
 36  46  57  71  84  93  99 100 105 110 117 117 115 118 120 120 123 128 130 140 155 170 181 188
195 204 197  78   0  20   0   0   0   0   0   0   0   0   0   0   0   0   0   0   0   0   0   0
  0   0   0   0
  0   0   0   0   0   0   0   0   0   0   0   0   0   0   0   0   0   0   0   0   0   0   0   0
  0   0   0   0   0   0   0   0   0   0   0   0   0   0   0   0   0   0   0   2   7  14  21  29
 38  48  58  70  79  93  99 100 105 111 115 118 118 119 119 119 122 124 128 135 146 162 175 184
191 201 195  77   0  20   0   0   0   0   0   0   0   0   0   0   0   0   0   0   0   0   0   0
  0   0   0   0
  0   0   0   0   0   0   0   0   0   0   0   0   0   0   0   0   0   0   0   0   0   0   0   0
  0   0   0   0   0   0   0   0   0   0   0   0   0   0   0   0   0   0   0   3   8  14  23  31
 42  51  62  74  83  96  99 100 104 110 116 118 119 120 119 121 123 121 125 132 139 152 164 178
186 197 194  77   0  20   0   0   0   0   0   0   0   0   0   0   0   0   0   0   0   0   0   0
  0   0   0   0
  0   0   0   0   0   0   0   0   0   0   0   0   0   0   0   0   0   0   0   0   0   0   0   0
  0   0   0   0   0   0   0   0   0   0   0   0   0   0   0   0   0   0   1   5  10  16  25  35
 45  55  66  75  88  95  98 102 108 113 116 116 116 120 121 120 121 121 124 132 137 144 160 174
180 192 192  77   0  20   0   0   0   0   0   0   0   0   0   0   0   0   0   0   0   0   0   0
  0   0   0   0
  0   0   0   0   0   0   0   0   0   0   0   0   0   0   0   0   0   0   0   0   0   0   0   0
  0   0   0   0   0   0   0   0   0   0   0   0   0   0   0   0   0   0   2   6  12  19  28  38
 48  59  68  80  90  95 101 106 111 115 115 116 117 118 119 122 121 121 124 131 135 139 155 171
174 187 189  78   0  20   0   0   0   0   0   0   0   0   0   0   0   0   0   0   0   0   0   0
  0   0   0   0
  0   0   0   0   0   0   0   0   0   0   0   0   0   0   0   0   0   0   0   0   0   0   0   0
  0   0   0   0   0   0   0   0   0   0   0   0   0   0   0   0   0   0   3   8  14  22  31  41
 53  62  72  83  89  96 104 113 117 119 120 118 117 116 118 121 124 121 124 133 137 140 151 164
172 186 188  77   0  19   0   0   0   0   0   0   0   0   0   0   0   0   0   0   0   0   0   0
  0   0   0   0
  0   0   0   0   0   0   0   0   0   0   0   0   0   0   0   0   0   0   0   0   0   0   0   0
  0   0   0   0   0   0   0   0   0   0   0   0   0   0   0   0   0   1   5  10  17  25  34  44
 54  65  77  84  92 101 105 113 117 116 118 118 118 118 123 125 124 124 125 136 143 146 147 156
169 183 186  75   0  19   0   0   0   0   0   0   0   0   0   0   0   0   0   0   0   0   0   0
  0   0   0   0
  0   0   0   0   0   0   0   0   0   0   0   0   0   0   0   0   0   0   0   0   0   0   0   0
  0   0   0   0   0   0   0   0   0   0   0   0   0   0   0   0   0   2   6  13  19  28  37  47
 57  70  81  88  96 105 108 110 115 114 115 119 120 122 128 129 127 124 127 139 142 140 144 151
162 179 184  75   0  19   0   0   0   0   0   0   0   0   0   0   0   0   0   0   0   0   0   0
  0   0   0   0
  0   0   0   0   0   0   0   0   0   0   0   0   0   0   0   0   0   0   0   0   0   0   0   0
  0   0   0   0   0   0   0   0   0   0   0   0   0   0   0   0   0   3   8  15  22  30  41  51
 62  76  82  91  99 106 112 115 116 116 117 122 123 123 131 133 135 134 137 141 135 135 140 146
157 175 182  75   0  18   0   0   0   0   0   0   0   0   0   0   0   0   0   0   0   0   0   0
  0   0   0   0
  0   0   0   0   0   0   0   0   0   0   0   0   0   0   0   0   0   0   0   0   0   0   0   0
  0   0   0   0   0   0   0   0   0   0   0   0   0   0   0   0   1   5  10  16  25  34  45  55
 68  79  86  94 101 106 111 116 120 118 122 129 126 129 135 135 135 138 140 140 133 132 135 143
153 173 181  74   0  18   0   0   0   0   0   0   0   0   0   0   0   0   0   0   0   0   0   0
  0   0   0   0
  0   0   0   0   0   0   0   0   0   0   0   0   0   0   0   0   0   0   0   0   0   0   0   0
  0   0   0   0   0   0   0   0   0   0   0   0   0   0   0   0   2   7  13  20  29  38  49  62
 74  82  90  96 104 112 117 120 126 124 126 131 126 129 131 131 131 129 132 140 135 134 137 142
150 171 180  74   0  18   0   0   0   0   0   0   0   0   0   0   0   0   0   0   0   0   0   0
  0   0   0   0
  0   0   0   0   0   0   0   0   0   0   0   0   0   0   0   0   0   0   0   0   0   0   0   0
  0   0   0   0   0   0   0   0   0   0   0   0   0   0   0   0   3   8  15  24  32  43  53  66
 75  84  93 101 107 114 118 123 126 121 125 130 127 127 129 130 127 125 124 132 139 136 139 144
153 174 181  74   0  18   0   0   0   0   0   0   0   0   0   0   0   0   0   0   0   0   0   0
  0   0   0   0
  0   0   0   0   0   0   0   0   0   0   0   0   0   0   0   0   0   0   0   0   0   0   0   0
  0   0   0   0   0   0   0   0   0   0   0   0   0   0   0   1   5  10  17  25  35  46  57  71
 78  87  97 102 105 112 119 123 128 126 130 128 122 124 125 130 132 126 124 128 140 138 139 146
160 176 171  68   0  16   0   0   0   0   0   0   0   0   0   0   0   0   0   0   0   0   0   0
  0   0   0   0
  0   0   0   0   0   0   0   0   0   0   0   0   0   0   0   0   0   0   0   0   0   0   0   0
  0   0   0   0   0   0   0   0   0   0   0   0   0   0   0   2   6  12  19  27  38  48  62  75
 83  93  99 104 107 114 119 129 138 133 133 127 124 125 125 129 137 135 133 138 148 150 156 164
168 171 167  68   0  16   0   0   0   0   0   0   0   0   0   0   0   0   0   0   0   0   0   0
  0   0   0   0
  0   0   0   0   0   0   0   0   0   0   0   0   0   0   0   0   0   0   0   0   0   0   0   0
  0   0   0   0   0   0   0   0   0   0   0   0   0   0   0   3   8  13  21  30  40  52  66  76
 86  95 107 113 117 125 131 145 151 139 136 133 131 130 133 133 130 134 139 147 154 162 171 173
164 170 170  67   0  16   0   0   0   0   0   0   0   0   0   0   0   0   0   0   0   0   0   0
  0   0   0   0
  0   0   0   0   0   0   0   0   0   0   0   0   0   0   0   0   0   0   0   0   0   0   0   0
  0   0   0   0   0   0   0   0   0   0   0   0   0   0   0   4  10  17  23  33  43  55  68  80
 88  94 106 118 133 147 151 158 148 147 153 141 136 135 136 135 131 135 143 147 149 155 163 167
161 164 164  65   0  15   0   0   0   0   0   0   0   0   0   0   0   0   0   0   0   0   0   0
  0   0   0   0
  0   0   0   0   0   0   0   0   0   0   0   0   0   0   0   0   0   0   0   0   0   0   0   0
  0   0   0   0   0   0   0   0   0   0   0   0   0   0   1   6   9  14  26  35  47  60  73  85
 91  98 108 123 142 159 158 158 157 163 160 148 143 139 135 141 144 143 144 149 148 151 160 158
154 161 166  68   0  16   0   0   0   0   0   0   0   0   0   0   0   0   0   0   0   0   0   0
  0   0   0   0
  0   0   0   0   0   0   0   0   0   0   0   0   0   0   0   0   0   0   0   0   0   0   0   0
  0   0   0   0   0   0   0   0   0   0   0   0   0   0   2   5  17  29  33  43  58  70  81  94
101 108 125 146 163 167 167 166 168 170 163 148 147 149 146 150 153 153 156 155 156 166 169 158
152 160 162  67   0  15   0   0   0   0   0   0   0   0   0   0   0   0   0   0   0   0   0   0
  0   0   0   0
  0   0   0   0   0   0   0   0   0   0   0   0   0   0   0   0   0   0   0   0   0   0   0   0
  0   0   0   0   0   0   0   0   0   0   0   0   0   0   4   3  24  46  44  52  64  78  95 107
109 119 137 153 161 165 173 176 175 173 175 165 154 157 154 158 161 163 158 152 162 167 163 157
150 155 159  66   0  15   0   0   0   0   0   0   0   0   0   0   0   0   0   0   0   0   0   0
  0   0   0   0
  0   0   0   0   0   0   0   0   0   0   0   0   0   0   0   0   0   0   0   0   0   0   0   0
  0   0   0   0   0   0   0   0   0   0   0   0   0   0   4   9  15  30  42  50  65  84 100 109
114 127 139 146 151 161 171 179 186 191 191 184 170 163 160 162 166 166 161 161 163 161 159 155
147 155 159  66   0  15   0   0   0   0   0   0   0   0   0   0   0   0   0   0   0   0   0   0
  0   0   0   0
  0   0   0   0   0   0   0   0   0   0   0   0   0   0   0   0   0   0   0   0   0   0   0   0
  0   0   0   0   0   0   0   0   0   0   0   0   0   1   5  11  18  25  40  52  63  74  85  99
109 120 136 152 155 158 173 183 185 191 193 181 172 171 167 165 165 165 171 168 164 162 164 165
155 163 161  64   0  15   0   0   0   0   0   0   0   0   0   0   0   0   0   0   0   0   0   0
  0   0   0   0
  0   0   0   0   0   0   0   0   0   0   0   0   0   0   0   0   0   0   0   0   0   0   0   0
  0   0   0   0   0   0   0   0   0   0   0   0   0   2   6  13  20  29  40  52  61  73  85  91
 99 107 128 156 167 170 174 174 180 187 192 181 171 174 176 173 170 171 172 171 166 156 158 161
156 162 158  61   0  14   0   0   0   0   0   0   0   0   0   0   0   0   0   0   0   0   0   0
  0   0   0   0
  0   0   0   0   0   0   0   0   0   0   0   0   0   0   0   0   0   0   0   0   0   0   0   0
  0   0   0   0   0   0   0   0   0   0   0   0   0   2   8  15  22  32  43  53  64  75  87  94
 98 106 141 169 180 179 175 170 174 186 189 186 181 184 179 176 174 168 169 167 156 149 145 148
152 164 159  57   0  13   0   0   0   0   0   0   0   0   0   0   0   0   0   0   0   0   0   0
  0   0   0   0
  0   0   0   0   0   0   0   0   0   0   0   0   0   0   0   0   0   0   0   0   0   0   0   0
  0   0   0   0   0   0   0   0   0   0   0   0   0   3   9  16  24  35  46  57  67  77  91  97
100 135 169 180 183 176 172 170 175 182 187 188 190 187 183 184 178 176 174 158 153 154 146 144
152 162 158  62   0  14   0   0   0   0   0   0   0   0   0   0   0   0   0   0   0   0   0   0
  0   0   0   0
  0   0   0   0   0   0   0   0   0   0   0   0   0   0   0   0   0   0   0   0   0   0   0   0
  0   0   0   0   0   0   0   0   0   0   0   0   0   4  10  18  27  38  49  60  71  79  95  98
113 159 176 182 185 178 174 180 186 189 196 197 190 187 183 176 171 170 169 163 157 153 149 152
153 154 154  62   0  14   0   0   0   0   0   0   0   0   0   0   0   0   0   0   0   0   0   0
  0   0   0   0
  0   0   0   0   0   0   0   0   0   0   0   0   0   0   0   0   0   0   0   0   0   0   0   0
  0   0   0   0   0   0   0   0   0   0   0   0   1   5  12  20  29  41  52  62  74  85  96 103
136 169 179 185 182 174 183 185 191 198 204 205 194 189 175 168 172 168 169 168 163 161 162 164
154 152 156  63   0  14   0   0   0   0   0   0   0   0   0   0   0   0   0   0   0   0   0   0
  0   0   0   0
  0   0   0   0   0   0   0   0   0   0   0   0   0   0   0   0   0   0   0   0   0   0   0   0
  0   0   0   0   0   0   0   0   0   0   0   0   1   8  14  21  31  42  55  66  77  88  95 110
150 175 182 185 173 171 183 189 200 205 200 195 196 190 173 168 165 162 172 171 167 165 161 155
153 159 156  64   0  14   0   0   0   0   0   0   0   0   0   0   0   0   0   0   0   0   0   0
  0   0   0   0
  0   0   0   0   0   0   0   0   0   0   0   0   0   0   0   0   0   0   0   0   0   0   0   0
  0   0   0   0   0   0   0   0   0   0   0   0   2   9  16  23  33  44  57  69  78  91  97 114
161 179 181 179 176 178 183 187 194 197 190 189 191 183 177 173 165 160 165 168 167 161 145 142
153 154 147  63   0  13   0   0   0   0   0   0   0   0   0   0   0   0   0   0   0   0   0   0
  0   0   0   0
  0   0   0   0   0   0   0   0   0   0   0   0   0   0   0   0   0   0   0   0   0   0   0   0
  0   0   0   0   0   0   0   0   0   0   0   0   2   8  16  25  36  46  59  70  80  90  99 138
173 183 184 190 188 185 179 175 187 194 189 188 180 176 177 176 174 167 164 165 165 169 162 155
155 157 152  60   0  13   0   0   0   0   0   0   0   0   0   0   0   0   0   0   0   0   0   0
  0   0   0   0
  0   0   0   0   0   0   0   0   0   0   0   0   0   0   0   0   0   0   0   0   0   0   0   0
  0   0   0   0   0   0   0   0   0   0   0   0   3  10  17  27  39  49  60  72  83  88 111 158
178 187 194 195 188 184 182 181 185 186 183 178 171 173 170 167 172 170 167 165 169 173 172 163
154 159 150  57   0  13   0   0   0   0   0   0   0   0   0   0   0   0   0   0   0   0   0   0
  0   0   0   0
  0   0   0   0   0   0   0   0   0   0   0   0   0   0   0   0   0   0   0   0   0   0   0   0
  0   0   0   0   0   0   0   0   0   0   0   0   4  11  19  29  41  54  64  76  85  95 144 179
192 194 187 184 183 178 177 172 167 162 166 171 175 170 165 168 176 174 171 165 176 179 169 160
155 156 147  58   0  13   0   0   0   0   0   0   0   0   0   0   0   0   0   0   0   0   0   0
  0   0   0   0
  0   0   0   0   0   0   0   0   0   0   0   0   0   0   0   0   0   0   0   0   0   0   0   0
  0   0   0   0   0   0   0   0   0   0   0   0   5  12  20  31  42  54  67  80  82 124 181 194
194 185 184 178 161 167 164 157 148 139 147 158 170 171 175 180 178 167 168 172 183 181 165 161
157 160 151  58   0  13   0   0   0   0   0   0   0   0   0   0   0   0   0   0   0   0   0   0
  0   0   0   0
  0   0   0   0   0   0   0   0   0   0   0   0   0   0   0   0   0   0   0   0   0   0   0   0
  0   0   0   0   0   0   0   0   0   0   0   0   6  14  22  32  44  55  68  81  91 158 196 190
182 185 183 159 148 159 159 153 139 134 143 152 170 180 186 190 174 166 168 170 188 192 172 164
168 169 159  62   0  14   0   0   0   0   0   0   0   0   0   0   0   0   0   0   0   0   0   0
  0   0   0   0
  0   0   0   0   0   0   0   0   0   0   0   0   0   0   0   0   0   0   0   0   0   0   0   0
  0   0   0   0   0   0   0   0   0   0   0   1   7  15  23  34  46  58  72  78 119 179 195 179
176 181 168 153 152 158 162 153 142 144 154 167 181 189 193 181 165 167 165 171 192 193 171 166
166 159 152  61   0  13   0   0   0   0   0   0   0   0   0   0   0   0   0   0   0   0   0   0
  0   0   0   0
  0   0   0   0   0   0   0   0   0   0   0   0   0   0   0   0   0   0   0   0   0   0   0   0
  0   0   0   0   0   0   0   0   0   0   0   1   8  15  23  36  48  59  73  91 141 179 182 168
167 164 163 156 145 153 157 149 150 150 151 171 178 182 176 170 170 167 173 188 197 184 165 156
149 150 150  61   0  13   0   0   0   0   0   0   0   0   0   0   0   0   0   0   0   0   0   0
  0   0   0   0
  0   0   0   0   0   0   0   0   0   0   0   0   0   0   0   0   0   0   0   0   0   0   0   0
  0   0   0   0   0   0   0   0   0   0   0   1   9  15  25  37  49  61  75 108 151 170 163 156
162 160 163 149 138 147 150 154 154 149 163 178 173 174 176 178 177 173 182 196 192 181 166 156
154 154 154  63   0  14   0   0   0   0   0   0   0   0   0   0   0   0   0   0   0   0   0   0
  0   0   0   0
  0   0   0   0   0   0   0   0   0   0   0   0   0   0   0   0   0   0   0   0   0   0   0   0
  0   0   0   0   0   0   0   0   0   0   0   1   9  15  25  37  49  63  78 111 146 146 140 148
157 161 158 152 153 157 158 158 152 155 172 178 176 175 176 172 176 177 185 197 192 183 169 161
156 163 164  64   0  15   0   0   0   0   0   0   0   0   0   0   0   0   0   0   0   0   0   0
  0   0   0   0
  0   0   0   0   0   0   0   0   0   0   0   0   0   0   0   0   0   0   0   0   0   0   0   0
  0   0   0   0   0   0   0   0   0   0   0   1   9  15  23  35  49  62  80 109 132 133 149 154
158 163 156 155 157 160 156 152 156 162 163 170 170 165 172 178 188 196 198 195 185 176 167 158
160 174 160  56   0  13   0   0   0   0   0   0   0   0   0   0   0   0   0   0   0   0   0   0
  0   0   0   0
  0   0   0   0   0   0   0   0   0   0   0   0   0   0   0   0   0   0   0   0   0   0   0   0
  0   0   0   0   0   0   0   0   0   0   0   1   8  14  23  36  48  62  80 103 125 145 158 163
162 159 156 150 145 144 142 151 168 169 172 167 159 173 184 186 192 195 189 184 178 172 171 171
174 167 151  59   0  13   0   0   0   0   0   0   0   0   0   0   0   0   0   0   0   0   0   0
  0   0   0   0
  0   0   0   0   0   0   0   0   0   0   0   0   0   0   0   0   0   0   0   0   0   0   0   0
  0   0   0   0   0   0   0   0   0   0   0   0   8  14  22  34  46  62  74 100 139 154 158 168
161 157 161 155 142 143 146 154 172 179 176 169 182 188 184 181 183 182 175 176 174 175 184 182
166 162 157  61   0  14   0   0   0   0   0   0   0   0   0   0   0   0   0   0   0   0   0   0
  0   0   0   0
  0   0   0   0   0   0   0   0   0   0   0   0   0   0   0   0   0   0   0   0   0   0   0   0
  0   0   0   0   0   0   0   0   0   0   0   0   7  14  20  31  47  62  72 111 148 157 162 166
159 158 160 153 152 165 168 168 177 175 168 178 185 174 167 167 170 169 170 174 172 178 186 170
159 161 153  59   0  13   0   0   0   0   0   0   0   0   0   0   0   0   0   0   0   0   0   0
  0   0   0   0
  0   0   0   0   0   0   0   0   0   0   0   0   0   0   0   0   0   0   0   0   0   0   0   0
  0   0   0   0   0   0   0   0   0   0   0   0   5  13  20  30  47  62  83 116 142 158 166 167
164 167 165 165 175 182 176 177 174 172 169 173 177 172 160 158 160 163 169 169 166 177 180 163
156 158 156  61   0  14   0   0   0   0   0   0   0   0   0   0   0   0   0   0   0   0   0   0
  0   0   0   0
  0   0   0   0   0   0   0   0   0   0   0   0   0   0   0   0   0   0   0   0   0   0   0   0
  0   0   0   0   0   0   0   0   0   0   0   0   2  13  20  31  45  64  95 127 142 155 167 163
169 171 169 175 178 170 168 170 157 159 164 169 175 182 178 177 175 164 160 160 167 180 170 157
159 165 161  62   0  14   0   0   0   0   0   0   0   0   0   0   0   0   0   0   0   0   0   0
  0   0   0   0
  0   0   0   0   0   0   0   0   0   0   0   0   0   0   0   0   0   0   0   0   0   0   0   0
  0   0   0   0   0   0   0   0   0   0   0   0   0  10  21  33  54  80 114 138 149 159 162 157
169 170 163 159 151 146 149 152 149 151 152 159 167 172 177 182 183 166 158 159 170 169 152 151
156 168 164  58   0  14   0   0   0   0   0   0   0   0   0   0   0   0   0   0   0   0   0   0
  0   0   0   0
  0   0   0   0   0   0   0   0   0   0   0   0   0   0   0   0   0   0   0   0   0   0   0   0
  0   0   0   0   0   0   0   0   0   0   0   0   0   5  20  33  72 105 122 138 145 150 154 157
165 161 147 146 150 146 140 133 134 137 137 142 144 141 143 153 170 180 174 172 169 151 144 148
153 169 165  60   0  15   0   0   0   0   0   0   0   0   0   0   0   0   0   0   0   0   0   0
  0   0   0   0
  0   0   0   0   0   0   0   0   0   0   0   0   0   0   0   0   0   0   0   0   0   0   0   0
  0   0   0   0   0   0   0   0   0   0   0   0   0   0  13  27  48  91 114 121 122 124 130 127
133 134 132 138 140 140 133 131 132 135 140 138 136 135 136 139 147 170 187 178 160 149 153 159
161 172 168  63   0  15   0   0   0   0   0   0   0   0   0   0   0   0   0   0   0   0   0   0
  0   0   0   0
  0   0   0   0   0   0   0   0   0   0   0   0   0   0   0   0   0   0   0   0   0   0   0   0
  0   0   0   0   0   0   0   0   0   0   0   0   0   0   4  14  16  38  63  73  89  99 106 114
121 128 133 135 131 129 126 130 133 135 144 148 140 138 139 141 155 180 180 162 161 162 163 165
168 175 164  58   0  14   0   0   0   0   0   0   0   0   0   0   0   0   0   0   0   0   0   0
  0   0   0   0
  0   0   0   0   0   0   0   0   0   0   0   0   0   0   0   0   0   0   0   0   0   0   0   0
  0   0   0   0   0   0   0   0   0   0   0   0   0   0   1   9  17  27  38  55  72  84  99 111
118 126 130 133 142 143 143 144 145 150 153 151 140 136 138 147 169 175 155 154 162 162 160 165
172 170 158  59   0  14   0   0   0   0   0   0   0   0   0   0   0   0   0   0   0   0   0   0
  0   0   0   0
  0   0   0   0   0   0   0   0   0   0   0   0   0   0   0   0   0   0   0   0   0   0   0   0
  0   0   0   0   0   0   0   0   0   0   0   0   0   0   0   5  12  22  37  49  61  73  84  95
108 121 126 132 152 157 156 154 152 148 143 138 131 134 134 148 168 160 150 157 161 157 159 168
164 153 150  58   0  13   0   0   0   0   0   0   0   0   0   0   0   0   0   0   0   0   0   0
  0   0   0   0
  0   0   0   0   0   0   0   0   0   0   0   0   0   0   0   0   0   0   0   0   0   0   0   0
  0   0   0   0   0   0   0   0   0   0   0   0   0   0   0   1   9  16  28  40  53  65  78  91
 99 110 121 138 149 146 144 144 145 143 141 134 133 142 146 159 162 150 155 165 162 152 162 166
146 148 149  55   0  12   0   0   0   0   0   0   0   0   0   0   0   0   0   0   0   0   0   0
  0   0   0   0
  0   0   0   0   0   0   0   0   0   0   0   0   0   0   0   0   0   0   0   0   0   0   0   0
  0   0   0   0   0   0   0   0   0   0   0   0   0   0   0   0   4  12  21  31  43  56  72  83
 92 101 114 128 133 132 135 141 148 150 146 138 142 152 159 154 154 161 168 158 145 148 162 150
142 154 147  52   0  11   0   0   0   0   0   0   0   0   0   0   0   0   0   0   0   0   0   0
  0   0   0   0
  0   0   0   0   0   0   0   0   0   0   0   0   0   0   0   0   0   0   0   0   0   0   0   0
  0   0   0   0   0   0   0   0   0   0   0   0   0   0   0   0   0   7  15  25  36  48  62  75
 86 100 113 116 124 124 129 133 135 140 141 143 158 170 166 158 163 170 161 146 140 150 150 142
146 151 143  54   0  11   0   0   0   0   0   0   0   0   0   0   0   0   0   0   0   0   0   0
  0   0   0   0
  0   0   0   0   0   0   0   0   0   0   0   0   0   0   0   0   0   0   0   0   0   0   0   0
  0   0   0   0   0   0   0   0   0   0   0   0   0   0   0   0   0   3  10  18  28  40  52  68
 81  94 104 112 118 118 123 128 133 141 148 164 180 174 164 168 161 150 150 143 139 148 139 136
143 149 144  55   0  12   0   0   0   0   0   0   0   0   0   0   0   0   0   0   0   0   0   0
  0   0   0   0
  0   0   0   0   0   0   0   0   0   0   0   0   0   0   0   0   0   0   0   0   0   0   0   0
  0   0   0   0   0   0   0   0   0   0   0   0   0   0   0   0   0   0   5  12  20  31  42  55
 67  78  90 104 112 117 124 129 133 142 155 167 175 167 158 155 143 137 142 134 142 143 131 136
144 147 144  55   0  12   0   0   0   0   0   0   0   0   0   0   0   0   0   0   0   0   0   0
  0   0   0   0
  0   0   0   0   0   0   0   0   0   0   0   0   0   0   0   0   0   0   0   0   0   0   0   0
  0   0   0   0   0   0   0   0   0   0   0   0   0   0   0   0   0   0   1   8  14  22  33  45
 55  68  84  93 106 115 117 124 129 133 139 136 133 140 139 131 128 135 134 131 137 133 129 141
145 145 145  55   0  12   0   0   0   0   0   0   0   0   0   0   0   0   0   0   0   0   0   0
  0   0   0   0
  0   0   0   0   0   0   0   0   0   0   0   0   0   0   0   0   0   0   0   0   0   0   0   0
  0   0   0   0   0   0   0   0   0   0   0   0   0   0   0   0   0   0   0   2   9  15  24  36
 47  58  74  84  94 100 102 107 113 116 117 115 116 123 125 125 129 132 130 128 134 129 132 142
139 145 146  59   0  13   0   0   0   0   0   0   0   0   0   0   0   0   0   0   0   0   0   0
  0   0   0   0
  0   0   0   0   0   0   0   0   0   0   0   0   0   0   0   0   0   0   0   0   0   0   0   0
  0   0   0   0   0   0   0   0   0   0   0   0   0   0   0   0   0   0   0   0   3  11  16  24
 36  49  60  72  83  90  93  97 104 106 108 111 113 118 121 125 125 127 124 128 131 128 136 138
139 148 148  64   0  14   0   0   0   0   0   0   0   0   0   0   0   0   0   0   0   0   0   0
  0   0   0   0
  0   0   0   0   0   0   0   0   0   0   0   0   0   0   0   0   0   0   0   0   0   0   0   0
  0   0   0   0   0   0   0   0   0   0   0   0   0   0   0   0   0   0   0   0   0   4  12  18
 26  36  46  57  70  78  85  92  97 101 105 104 105 114 120 118 118 122 120 129 126 130 136 137
138 143 144  61   0  13   0   0   0   0   0   0   0   0   0   0   0   0   0   0   0   0   0   0
  0   0   0   0
  0   0   0   0   0   0   0   0   0   0   0   0   0   0   0   0   0   0   0   0   0   0   0   0
  0   0   0   0   0   0   0   0   0   0   0   0   0   0   0   0   0   0   0   0   0   0   5  12
 18  25  35  42  54  64  72  81  88  95 100 105 111 111 111 112 114 112 118 124 126 131 128 131
132 136 139  60   0  12   0   0   0   0   0   0   0   0   0   0   0   0   0   0   0   0   0   0
  0   0   0   0
  0   0   0   0   0   0   0   0   0   0   0   0   0   0   0   0   0   0   0   0   0   0   0   0
  0   0   0   0   0   0   0   0   0   0   0   0   0   0   0   0   0   0   0   0   0   0   0   4
 12  18  24  33  41  50  57  66  74  81  90  99 100  96  99 101 104 101 108 113 117 113 112 119
121 125 132  59   0  11   0   0   0   0   0   0   0   0   0   0   0   0   0   0   0   0   0   0
  0   0   0   0
  0   0   0   0   0   0   0   0   0   0   0   0   0   0   0   0   0   0   0   0   0   0   0   0
  0   0   0   0   0   0   0   0   0   0   0   0   0   0   0   0   0   0   0   0   0   0   0   0
  4  11  16  22  29  37  44  50  56  65  74  78  80  83  85  86  90  92  94  96  98  96  99 102
102 104 109  49   0   8   0   0   0   0   0   0   0   0   0   0   0   0   0   0   0   0   0   0
  0   0   0   0
  0   0   0   0   0   0   0   0   0   0   0   0   0   0   0   0   0   0   0   0   0   0   0   0
  0   0   0   0   0   0   0   0   0   0   0   0   0   0   0   0   0   0   0   0   0   0   0   0
  0   3   8  13  19  26  33  38  43  50  57  60  64  67  70  72  75  78  77  75  77  79  79  81
 84  83  85  40   0   5   0   0   0   0   0   0   0   0   0   0   0   0   0   0   0   0   0   0
  0   0   0   0
  0   0   0   0   0   0   0   0   0   0   0   0   0   0   0   0   0   0   0   0   0   0   0   0
  0   0   0   0   0   0   0   0   0   0   0   0   0   0   0   0   0   0   0   0   0   0   0   0
  0   0   1   5  11  15  20  25  31  36  39  43  47  50  54  56  57  59  59  60  61  59  61  64
 62  60  65  33   0   3   0   0   0   0   0   0   0   0   0   0   0   0   0   0   0   0   0   0
  0   0   0   0
  0   0   0   0   0   0   0   0   0   0   0   0   0   0   0   0   0   0   0   0   0   0   0   0
  0   0   0   0   0   0   0   0   0   0   0   0   0   0   0   0   0   0   0   0   0   0   0   0
  0   0   0   0   3   7  11  14  20  24  27  32  34  36  38  40  42  43  45  46  45  45  46  47
 45  45  52  27   0   2   0   0   0   0   0   0   0   0   0   0   0   0   0   0   0   0   0   0
  0   0   0   0
  0   0   0   0   0   0   0   0   0   0   0   0   0   0   0   0   0   0   0   0   0   0   0   0
  0   0   0   0   0   0   0   0   0   0   0   0   0   0   0   0   0   0   0   0   0   0   0   0
  0   0   0   0   0   1   4   7  10  14  18  20  22  23  25  26  28  29  31  30  31  32  33  34
 33  31  38  22   0   2   0   0   0   0   0   0   0   0   0   0   0   0   0   0   0   0   0   0
  0   0   0   0
  0   0   0   0   0   0   0   0   0   0   0   0   0   0   0   0   0   0   0   0   0   0   0   0
  0   0   1   0   0   0   0   0   0   0   0   0   0   0   1   0   0   0   0   0   0   0   0   0
  1   0   0   0   0   0   0   1   3   6   9  12  13  15  16  16  17  19  19  20  20  21  22  25
 23  18  27  17   0   1   0   0   0   0   0   0   0   0   0   0   0   0   0   0   0   0   0   0
  0   0   0   0
  0   0   0   0   0   0   0   0   0   0   0   0   0   0   0   0   0   0   0   0   0   0   0   0
  0   1   1   1   0   1   1   0   0   0   0   0   0   0   1   1   0   0   0   0   0   0   0   0
  1   1   1   1   0   0   0   0   0   0   1   3   5   7   9  10  11  11  11  12  12  11  11  10
  8   1  11  11   0   1   0   0   0   0   0   0   0   0   0   0   0   0   0   0   0   0   0   0
  0   0   0   0
  0   0   0   0   0   0   0   0   0   0   0   0   0   0   0   0   0   0   0   0   0   0   0   0
  0   1   1   1   1   1   1   1   0   0   1   1   1   1   1   1   1   0   0   0   0   0   0   1
  1   1   1   1   1   0   0   0   0   0   0   0   0   0   0   1   2   2   2   1   1   0   0   0
  0   0   9  11   0   1   0   0   0   0   0   0   0   0   0   0   0   0   0   0   0   0   0   0
  0   0   0   0
  0   0   0   0   0   0   0   0   0   0   0   0   0   0   0   0   0   0   0   0   0   0   0   0
  0   1   1   1   1   1   1   1   1   1   1   1   1   1   1   1   1   1   1   1   1   1   1   1
  1   1   1   1   1   1   1   1   0   0   0   1   1   1   0   0   0   0   0   0   0   0   0   1
  1   0  10  11   0   1   0   0   0   0   0   0   0   0   0   0   0   0   0   0   0   0   0   0
  0   0   0   0
  0   0   0   0   0   0   0   0   0   0   0   0   0   0   0   0   0   0   0   0   0   0   0   0
  0   1   2   1   1   1   1   1   1   1   1   1   1   1   1   1   1   1   1   1   1   1   1   1
  1   1   1   1   1   1   1   1   1   1   1   1   1   1   1   1   1   1   0   0   0   1   0   1
  1   0  10  11   0   1   0   0   0   0   0   0   0   0   0   0   0   0   0   0   0   0   0   0
  0   0   0   0
  0   0   0   0   0   0   0   0   0   0   0   0   0   0   0   0   0   0   0   0   0   0   0   0
  0   2   2   2   1   2   1   1   1   1   1   1   1   1   1   2   1   1   1   1   1   1   1   1
  2   2   2   2   1   1   1   1   1   1   1   1   1   1   1   1   1   0   1   0   0   0   1   1
  1   0  11  12   0   1   0   0   0   0   0   0   0   0   0   0   0   0   0   0   0   0   0   0
  0   0   0   0
  0   0   0   0   0   0   0   0   0   0   0   0   0   0   0   0   0   0   0   0   0   0   0   0
  0   2   2   2   2   2   2   1   2   2   2   2   2   2   2   2   2   2   2   2   2   2   2   2
  2   2   2   2   2   2   2   2   1   1   2   2   2   1   1   1   1   1   1   1   1   1   1   1
  2   0  11  12   0   1   0   0   0   0   0   0   0   0   0   0   0   0   0   0   0   0   0   0
  0   0   0   0
  0   0   0   0   0   0   0   0   0   0   0   0   0   0   0   0   0   0   0   0   0   0   0   0
  0   2   3   2   2   2   2   2   2   2   2   2   2   2   2   2   2   2   2   2   2   2   2   2
  2   2   2   2   3   3   2   2   2   2   2   2   2   2   2   1   1   1   1   1   1   1   1   1
  2   0  12  13   0   1   0   0   0   0   0   0   0   0   0   0   0   0   0   0   0   0   0   0
  0   0   0   0
