P2
# 8-bit pgm gray
100 100
255
  0   0   0   0   0   0   0   0   0   0   0   0   0   0   0  10   0   0 191 236 228 229 225 224
226 227 226 226 227 227 227 226 227 226 223 221 219 216 210 201 181 173 175 171 161 155 149 141
129 112  92  70  49  31  20  14   8   3   0   1   1   1   1   0   1   2   1  20   0 115 216 221
186 177 154 157 207 227 139   0  21   1   0   0   0   0   0   0   0   0   0   0   0   0   0   0
  0   0   0   0
  0   0   0   0   0   0   0   0   0   0   0   0   0   0   0  10   0   0 191 236 227 226 224 225
226 227 226 227 227 227 227 225 226 224 221 220 217 211 205 189 173 172 171 169 164 157 150 142
130 111  88  69  48  33  22  14   8   3   0   0   0   1   1   0   0   0   2  19   0 127 205 188
174 189 182 178 211 223 126   0  22   0   0   0   0   0   0   0   0   0   0   0   0   0   0   0
  0   0   0   0
  0   0   0   0   0   0   0   0   0   0   0   0   0   0   0  10   0   0 192 237 225 225 225 225
226 226 227 228 228 230 228 225 226 223 220 218 214 208 199 178 171 169 167 166 163 162 151 140
127 104  83  65  44  30  19  11   6   3   0   0   0   0   0   0   0   0   3  15   0 137 200 185
210 219 236 219 220 217 114   0  22   0   0   0   0   0   0   0   0   0   0   0   0   0   0   0
  0   0   0   0
  0   0   0   0   0   0   0   0   0   0   0   0   0   0   0  10   0   0 192 236 223 225 226 225
226 227 228 228 229 232 230 225 225 222 219 215 209 203 187 174 171 168 166 165 159 156 149 139
123 102  84  62  44  29  18  10   6   2   0   0   0   0   0   0   0   0   5   9   0 139 214 231
236 238 237 235 231 206 102   0  21   0   0   0   0   0   0   0   0   0   0   0   0   0   0   0
  0   0   0   0
  0   0   0   0   0   0   0   0   0   0   0   0   0   0   0  10   0   0 191 234 223 225 225 227
227 227 228 229 230 232 229 223 222 221 216 211 206 194 174 171 170 169 166 163 157 154 149 138
121 104  84  64  45  30  18  10   6   2   0   0   0   0   0   0   0   0   6   3   0 138 205 222
229 233 234 232 226 197  85   0  19   0   0   0   0   0   0   0   0   0   0   0   0   0   0   0
  0   0   0   0
  0   0   0   0   0   0   0   0   0   0   0   0   0   0   0  10   0   0 190 231 222 225 226 229
230 229 229 229 230 232 226 221 222 222 214 208 200 182 170 169 167 167 165 160 155 154 149 138
123 103  83  62  46  30  18  11   6   3   0   0   0   0   0   0   0   0   3   0   0  93 141 161
176 186 193 196 194 165  62   0  13   0   0   0   0   0   0   0   0   0   0   0   0   0   0   0
  0   0   0   0
  0   0   0   0   0   0   0   0   0   0   0   0   0   0   0  10   0   0 188 230 221 224 225 226
231 231 230 229 232 231 223 220 220 219 213 204 189 170 169 167 169 165 163 157 151 150 146 138
122 100  80  62  45  30  19  11   6   3   0   0   0   0   0   0   0   0   0   0   2   0   0   0
 21  44  60  72  80  72  21   0   2   0   0   0   0   0   0   0   0   0   0   0   0   0   0   0
  0   0   0   0
  0   0   0   0   0   0   0   0   0   0   0   0   0   0   0  10   0   0 188 231 221 225 225 225
229 232 230 230 231 227 221 220 217 215 211 198 176 169 168 165 166 166 162 155 151 146 143 131
113  96  79  61  45  31  21  14   7   4   0   0   0   0   0   0   0   0   0   0   0   3  10   7
  0   0   0   0   0   0   0   1   0   0   0   0   0   0   0   0   0   0   0   0   0   0   0   0
  0   0   0   0
  0   0   0   0   0   0   0   0   0   0   0   0   0   0   0  10   0   0 186 230 222 224 224 224
225 228 230 229 227 223 219 219 216 212 207 186 168 169 167 166 163 162 159 155 152 146 139 127
108  93  79  62  46  32  22  15   8   4   1   0   0   0   0   0   0   0   0   0   0   2   9  15
 18  21  22  23  22  16   1   0   0   0   0   0   0   0   0   0   0   0   0   0   0   0   0   0
  0   0   0   0
  0   0   0   0   0   0   0   0   0   0   0   0   0   0   0  10   0   0 186 231 221 223 223 223
224 224 225 224 221 221 219 214 211 209 196 174 171 171 167 167 166 160 159 154 149 144 136 126
109  92  77  62  48  36  24  16  10   5   1   0   0   0   0   0   0   0   0   0   0   0   1   3
  4   4   5   4   4   3   0   0   0   0   0   0   0   0   0   0   0   0   0   0   0   0   0   0
  0   0   0   0
  0   0   0   0   0   0   0   0   0   0   0   0   0   0   0  10   0   0 186 231 221 223 222 224
224 223 222 220 219 219 216 210 207 200 181 168 168 167 166 165 165 163 161 157 150 141 135 125
111  95  81  64  50  38  26  17  11   5   2   0   0   0   0   0   0   0   0   0   0   0   1   2
  3   3   4   3   3   1   0   0   0   0   0   0   0   0   0   0   0   0   0   0   0   0   0   0
  0   0   0   0
  0   0   0   0   0   0   0   0   0   0   0   0   0   0   0  10   0   0 186 230 221 222 223 224
223 222 220 219 219 218 213 207 202 186 171 168 165 162 162 160 157 159 160 158 152 142 131 121
110  95  85  70  55  42  29  19  12   6   3   0   0   0   0   0   0   0   0   0   0   0   0   1
  2   2   2   2   2   1   0   0   0   0   0   0   0   0   0   0   0   0   0   0   0   0   0   0
  0   0   0   0
  0   0   0   0   0   0   0   0   0   0   0   0   0   0   0  10   0   0 186 231 220 222 223 223
223 222 220 220 219 216 209 202 190 172 165 164 165 164 163 160 158 157 156 153 149 145 134 120
109  98  87  72  59  45  33  22  13   8   4   1   0   0   0   0   0   0   0   0   0   1   1   1
  1   1   1   1   1   0   0   0   0   0   0   0   0   0   0   0   0   0   0   0   0   0   0   0
  0   0   0   0
  0   0   0   0   0   0   0   0   0   0   0   0   0   0   0  10   0   0 187 230 220 223 223 224
224 221 219 218 216 211 204 193 175 169 163 161 163 163 160 160 160 159 159 156 151 142 136 126
110  99  90  77  64  50  37  25  17  10   6   3   0   0   0   0   0   0   0   0   0   0   0   1
  1   3   2   0   1   0   0   0   0   0   0   0   0   0   0   0   0   0   0   0   0   0   0   0
  0   0   0   0
  0   0   0   0   0   0   0   0   0   0   0   0   0   0   0  10   0   0 186 228 220 222 222 223
222 219 217 216 212 205 197 179 166 166 161 159 160 158 154 155 157 159 160 155 152 144 134 125
116 103  89  79  69  54  41  29  19  12   7   4   1   0   0   0   0   0   1   0   0  26  18   0
  2   0   0   1   0   0   0   0   0   0   0   0   0   0   0   0   0   0   0   0   0   0   0   0
  0   0   0   0
  0   0   0   0   0   0   0   0   0   0   0   0   0   0   0   9   0   0 184 229 221 221 220 222
220 217 217 214 209 202 187 167 167 166 160 159 159 155 153 154 156 157 156 151 148 144 138 127
116 108  97  84  73  59  45  33  23  14   9   5   1   0   0   0   0   0   1   0  40  56  37   0
  0  18   7   0   1   0   0   0   0   0   0   0   0   0   0   0   0   0   0   0   0   0   0   0
  0   0   0   0
  0   0   0   0   0   0   0   0   0   0   0   0   0   0   0   9   0   0 185 230 220 221 220 220
218 217 216 211 207 196 174 163 164 166 162 157 158 155 154 153 154 156 153 151 149 144 138 129
119 110 104  94  81  66  51  39  27  17  11   6   3   0   0   0   0   1   0   0  52  48  15   0
 12  65  35   0   3   0   0   0   0   0   0   0   0   0   0   0   0   0   0   0   0   0   0   0
  0   0   0   0
  0   0   0   0   0   0   0   0   0   0   0   0   0   0   0  10   0   0 186 229 220 220 221 220
219 218 213 207 200 182 164 163 162 161 160 157 157 157 156 155 155 155 155 152 150 147 142 132
123 117 108  96  86  77  61  44  31  20  13   8   4   1   0   0   0   0   0   0  32  20   0   0
 50  76  38   0   2   0   0   0   0   0   0   0   0   0   0   0   0   0   0   0   0   0   0   0
  0   0   0   0
  0   0   0   0   0   0   0   0   0   0   0   0   0   0   0   9   0   0 185 228 219 219 218 218
217 215 210 203 191 170 161 161 160 156 158 157 154 155 155 154 153 155 155 153 152 148 143 137
129 122 114 103  89  80  67  50  38  25  16  10   5   2   0   0   0   0   0   0   0   2   0   0
 34  39  15   0   0   0   0   0   0   0   0   0   0   0   0   0   0   0   0   0   0   0   0   0
  0   0   0   0
  0   0   0   0   0   0   0   0   0   0   0   0   0   0   0   9   0   0 184 226 217 219 217 216
216 211 206 198 179 162 161 160 157 157 159 158 153 153 152 151 150 153 154 152 153 149 144 139
133 126 118 109  96  83  69  53  43  31  20  11   7   4   1   0   0   0   0   0   0   0   0   1
  0   0   0   1   0   0   0   0   0   0   0   0   0   0   0   0   0   0   0   0   0   0   0   0
  0   0   0   0
  0   0   0   0   0   0   0   0   0   0   0   0   0   0   0   9   0   0 184 225 215 218 215 215
214 209 201 188 169 163 159 157 156 157 159 161 157 156 156 155 154 156 155 152 153 152 148 144
139 131 122 111 100  89  77  60  47  36  24  14   8   5   1   0   0   0   0   0   0   0   0   0
  1   4   1   0   0   0   0   0   0   0   0   0   0   0   0   0   0   0   0   0   0   0   0   0
  0   0   0   0
  0   0   0   0   0   0   0   0   0   0   0   0   0   0   0   9   0   0 183 224 217 216 213 212
211 207 198 178 161 160 157 154 155 156 157 159 160 160 162 157 156 157 157 158 156 154 150 147
143 138 129 121 108  95  84  71  53  38  27  19  10   7   3   0   0   0   0   0   0   0   0   0
  0   0   0   0   0   0   0   0   0   0   0   0   0   0   0   0   0   0   0   0   0   0   0   0
  0   0   0   0
  0   0   0   0   0   0   0   0   0   0   0   0   0   0   0   9   0   0 181 223 215 216 213 210
208 204 190 170 160 160 157 155 155 154 158 160 164 163 156 153 153 153 154 156 156 155 154 152
147 142 136 127 116 105  95  82  60  43  31  22  15   8   4   1   0   0   0   0   0   0   0   0
  0   0   0   0   0   0   0   0   0   0   0   0   0   0   0   0   0   0   0   0   0   0   0   0
  0   0   0   0
  0   0   0   0   0   0   0   0   0   0   0   0   0   0   0   9   0   0 182 225 214 214 211 208
206 199 180 165 161 159 158 155 155 158 159 159 162 163 158 153 153 153 154 155 153 152 153 153
151 147 139 132 125 114  99  86  69  53  40  26  18  12   5   2   0   0   0   0   0   0   0   0
  0   0   0   0   0   0   0   0   0   0   0   0   0   0   0   0   0   0   0   0   0   0   0   0
  0   0   0   0
  0   0   0   0   0   0   0   0   0   0   0   0   0   0   0   9   0   0 182 224 212 212 210 207
204 191 170 160 158 158 156 157 159 158 157 157 157 161 161 158 154 154 154 154 153 153 150 151
152 151 148 141 131 116 101  92  76  59  47  34  23  16   7   3   1   0   0   0   0   0   0   0
  0   0   0   0   0   0   0   0   0   0   0   0   0   0   0   0   0   0   0   0   0   0   0   0
  0   0   0   0
  0   0   0   0   0   0   0   0   0   0   0   0   0   0   0   9   0   0 181 221 210 210 209 207
200 185 168 163 162 161 156 158 157 154 156 158 157 157 160 159 158 157 157 155 154 152 153 157
156 151 146 142 132 121 110  98  86  68  52  41  30  19  10   5   1   0   0   0   0   0   0   0
  0   0   0   0   0   0   0   0   0   0   0   0   0   0   0   0   0   0   0   0   0   0   0   0
  0   0   0   0
  0   0   0   0   0   0   0   0   0   0   0   0   0   0   0   9   0   0 179 218 209 208 206 202
191 177 165 161 161 165 160 157 155 155 157 156 154 153 157 159 154 156 160 159 156 155 156 156
152 148 145 141 137 128 116 103  93  77  59  46  36  24  13   7   3   0   0   0   0   0   0   0
  0   0   0   0   0   0   0   0   0   0   0   0   0   0   0   0   0   0   0   0   0   0   0   0
  0   0   0   0
  0   0   0   0   0   0   0   0   0   0   0   0   0   0   0   9   0   0 178 218 207 205 203 198
183 166 162 160 157 158 159 156 154 158 157 157 156 154 153 155 156 154 157 156 156 155 151 152
154 150 147 142 138 135 124 108  99  88  67  54  42  30  17  10   5   1   0   0   0   0   0   0
  0   0   0   0   0   0   0   0   0   0   0   0   0   0   0   0   0   0   0   0   0   0   0   0
  0   0   0   0
  0   0   0   0   0   0   0   0   0   0   0   0   0   0   0   9   0   0 177 216 207 206 200 192
175 160 159 161 159 159 160 158 155 156 156 158 157 154 154 154 154 157 155 155 153 152 152 153
153 151 147 144 141 137 133 121 104  93  77  62  48  36  23  14   7   3   1   0   0   0   0   0
  0   0   0   0   0   0   0   0   0   0   0   0   0   0   0   0   0   0   0   0   0   0   0   0
  0   0   0   0
  0   0   0   0   0   0   0   0   0   0   0   0   0   0   0   9   0   0 176 213 204 204 198 185
167 159 158 162 159 159 160 157 158 156 156 158 157 155 154 155 153 154 159 155 153 153 154 154
151 152 151 147 144 139 134 127 113 100  89  71  56  42  31  19  11   5   2   0   0   0   0   0
  0   0   0   0   0   0   0   0   0   0   0   0   0   0   0   0   0   0   0   0   0   0   0   0
  0   0   0   0
  0   0   0   0   0   0   0   0   0   0   0   0   0   0   0   8   0   0 172 210 200 199 190 176
161 162 158 157 159 159 162 159 158 158 156 154 153 152 151 150 153 152 157 155 152 150 151 151
149 150 153 151 145 139 133 127 122 107  94  78  61  48  37  24  14   8   3   0   0   0   0   0
  0   0   0   0   0   0   0   0   0   0   0   0   0   0   0   0   0   0   0   0   0   0   0   0
  0   0   0   0
  0   0   0   0   0   0   0   0   0   0   0   0   0   0   0   8   0   0 171 209 197 193 182 167
157 156 158 158 159 158 160 160 157 157 155 153 154 153 149 148 152 155 158 152 150 150 151 153
152 152 149 148 146 140 136 129 123 113 100  84  67  55  42  30  20  12   6   2   0   0   0   0
  0   0   0   0   0   0   0   0   0   0   0   0   0   0   0   0   0   0   0   0   0   0   0   0
  0   0   0   0
  0   0   0   0   0   0   0   0   0   0   0   0   0   0   0   8   0   0 170 208 198 190 177 163
157 157 155 154 158 159 157 158 157 160 156 153 154 153 152 150 152 158 162 153 152 156 156 157
155 152 151 151 150 145 138 131 124 119 110  95  77  63  48  36  25  16   9   4   0   0   0   0
  0   0   0   0   0   0   0   0   0   0   0   0   0   0   0   0   0   0   0   0   0   0   0   0
  0   0   0   0
  0   0   0   0   0   0   0   0   0   0   0   0   0   0   0   8   0   0 168 204 196 189 170 163
159 158 155 156 156 154 157 159 157 160 160 159 159 156 154 153 156 162 164 159 157 161 164 158
153 151 149 149 149 147 142 138 131 123 116 108  90  71  56  43  31  21  14   7   2   0   0   0
  0   0   0   0   0   0   0   0   0   0   0   0   0   0   0   0   0   0   0   0   0   0   0   0
  0   0   0   0
  0   0   0   0   0   0   0   0   0   0   0   0   0   0   0   8   0   0 166 201 187 180 166 164
156 152 153 154 151 155 156 155 155 157 160 162 161 158 158 159 160 161 167 165 157 158 162 159
156 150 147 145 148 152 147 141 136 128 119 112 103  81  65  51  38  26  19  11   4   1   0   0
  0   0   0   0   0   0   0   0   0   0   0   0   0   0   0   0   0   0   0   0   0   0   0   0
  0   0   0   0
  0   0   0   0   0   0   0   0   0   0   0   0   0   0   0   7   0   0 161 197 181 171 165 163
154 153 154 150 149 150 150 151 152 157 159 165 166 161 157 155 156 164 173 172 163 159 154 160
160 156 151 147 148 151 150 144 138 130 123 116 107  92  73  61  48  34  23  13   7   2   0   0
  0   0   0   0   0   0   0   0   0   0   0   0   0   0   0   0   0   0   0   0   0   0   0   0
  0   0   0   0
  0   0   0   0   0   0   0   0   0   0   0   0   0   0   0   7   0   0 159 191 170 162 164 166
160 155 153 150 152 153 151 150 152 159 164 166 165 163 159 157 160 167 173 175 175 167 157 159
154 151 155 151 149 151 149 149 153 143 125 119 114 104  86  69  55  41  29  18  10   4   1   0
  0   0   0   0   0   0   0   0   0   0   0   0   0   0   0   0   0   0   0   0   0   0   0   0
  0   0   0   0
  0   0   0   0   0   0   0   0   0   0   0   0   0   0   0   7   0   0 156 187 165 152 154 161
161 162 158 153 153 155 153 153 150 154 162 165 162 158 159 160 162 163 170 176 174 166 163 161
158 153 151 154 153 157 149 147 158 152 134 121 116 113  99  76  63  48  35  23  13   6   3   0
  0   0   0   0   0   0   0   0   0   0   0   0   0   0   0   0   0   0   0   0   0   0   0   0
  0   0   0   0
  0   0   0   0   0   0   0   0   0   0   0   0   0   0   0   6   0   0 152 181 159 153 151 155
156 161 164 160 156 152 150 153 152 149 154 163 166 162 154 155 158 162 169 173 174 167 166 165
164 162 162 159 160 159 158 147 152 158 142 130 123 114 106  88  68  56  43  29  18   9   4   1
  0   0   0   0   0   0   0   0   0   0   0   0   0   0   0   0   0   0   0   0   0   0   0   0
  0   0   0   0
  0   0   0   0   0   0   0   0   0   0   0   0   0   0   0   6   0   0 149 175 154 151 151 150
158 155 154 159 160 157 154 152 156 156 154 159 165 168 162 156 156 162 169 174 178 175 168 164
165 167 170 167 162 158 160 152 151 157 144 140 131 124 114 104  81  65  53  37  24  15   6   3
  0   0   0   0   0   0   0   0   0   0   0   0   0   0   0   0   0   0   0   0   0   0   0   0
  0   0   0   0
  0   0   0   0   0   0   0   0   0   0   0   0   0   0   0   6   0   0 148 171 151 152 151 153
158 152 150 156 152 150 155 155 156 160 157 156 162 168 169 163 161 165 170 175 183 187 180 171
171 168 170 172 165 160 161 156 154 157 146 143 140 133 127 123 105  79  64  44  31  19  10   4
  1   0   0   0   0   0   0   0   0   0   0   0   0   0   0   0   0   0   0   0   0   0   0   0
  0   0   0   0
  0   0   0   0   0   0   0   0   0   0   0   0   0   0   0   5   0   0 141 169 153 153 155 159
153 152 149 150 149 146 147 152 156 158 159 153 154 165 169 167 170 173 177 177 181 189 186 176
175 171 168 173 174 167 166 162 161 163 152 146 149 139 133 131 118  94  74  53  39  23  13   7
  3   0   0   0   0   0   0   0   0   0   0   0   0   0   0   0   0   0   0   0   0   0   0   0
  0   0   0   0
  0   0   0   0   0   0   0   0   0   0   0   0   0   0   0   5   0   0 138 166 154 153 157 155
152 154 154 149 150 149 147 148 150 152 157 158 155 160 164 166 165 162 170 175 175 187 186 177
178 173 169 171 175 170 167 163 163 163 156 152 147 141 138 128 122 111  93  71  49  29  19  10
  4   1   0   0   0   0   0   0   0   0   0   0   0   0   0   0   0   0   0   0   0   0   0   0
  0   0   0   0
  0   0   0   0   0   0   0   0   0   0   0   0   0   0   0   5   0   0 138 164 152 154 156 154
154 151 153 153 150 148 145 146 146 147 149 151 156 156 154 165 169 161 164 172 175 183 190 181
176 175 168 171 172 164 161 157 154 154 150 152 148 144 143 130 123 123 103  82  61  37  24  14
  6   2   0   0   0   0   0   0   0   0   0   0   0   0   0   0   0   0   0   0   0   0   0   0
  0   0   0   0
  0   0   0   0   0   0   0   0   0   0   0   0   0   0   0   4   0   0 133 164 150 151 156 154
154 156 150 153 152 148 146 145 146 148 147 147 154 160 160 157 169 173 175 181 179 180 189 183
173 174 171 169 167 160 160 152 147 147 147 148 150 151 145 133 125 125 108  87  72  48  28  18
  9   4   1   0   0   0   0   0   0   0   0   0   0   0   0   0   0   0   0   0   0   0   0   0
  0   0   0   0
  0   0   0   0   0   0   0   0   0   0   0   0   0   0   0   4   0   0 131 163 152 148 154 152
151 154 157 153 155 153 148 144 144 149 150 149 150 155 160 159 157 164 171 176 176 178 182 178
175 176 175 173 176 172 168 155 150 151 151 152 158 150 141 142 135 125 117  94  79  60  37  23
 12   6   2   0   0   0   0   0   0   0   0   0   0   0   0   0   0   0   0   0   0   0   0   0
  0   0   0   0
  0   0   0   0   0   0   0   0   0   0   0   0   0   0   0   5   0   0 132 164 160 154 151 148
151 150 152 156 153 159 159 153 149 149 150 146 146 149 145 149 156 158 162 163 161 167 175 176
178 187 190 186 187 188 178 162 152 155 154 157 153 146 149 154 143 130 126 103  87  69  46  29
 16   8   3   0   0   0   0   0   0   0   0   0   0   0   0   0   0   0   0   0   0   0   0   0
  0   0   0   0
  0   0   0   0   0   0   0   0   0   0   0   0   0   0   0   4   0   0 130 159 155 163 153 144
146 150 151 155 155 156 163 160 157 153 150 149 150 151 149 143 145 154 158 156 151 156 167 178
185 192 194 192 184 177 172 159 150 148 150 152 146 145 149 152 152 146 134 108  87  74  53  33
 20  10   4   0   0   0   0   0   0   0   0   0   0   0   0   0   0   0   0   0   0   0   0   0
  0   0   0   0
  0   0   0   0   0   0   0   0   0   0   0   0   0   0   0   5   0   0 133 162 149 156 157 148
144 147 152 152 156 155 158 163 159 155 154 151 154 157 154 147 144 146 158 156 149 149 151 162
184 188 191 188 186 178 165 156 151 149 150 143 142 141 143 146 148 157 144 111  88  77  57  39
 25  13   6   1   0   0   0   0   0   0   0   0   0   0   0   0   0   0   0   0   0   0   0   0
  0   0   0   0
  0   0   0   0   0   0   0   0   0   0   0   0   0   0   0   4   0   0 133 165 157 153 150 154
149 145 149 150 151 154 152 156 161 157 154 154 153 156 162 158 151 151 156 161 160 155 157 158
173 179 188 191 186 187 175 164 162 160 156 148 141 142 143 145 144 151 145 114  92  80  61  45
 32  17   8   3   0   0   0   0   0   0   0   0   0   0   0   0   0   0   0   0   0   0   0   0
  0   0   0   0
  0   0   0   0   0   0   0   0   0   0   0   0   0   0   0   4   0   0 126 162 160 154 147 149
152 147 146 149 146 149 155 154 157 160 157 155 155 156 159 161 154 155 154 156 165 165 165 160
170 175 176 187 192 184 177 175 175 177 163 152 143 141 143 142 145 160 151 116  94  79  65  50
 36  22  11   4   0   0   0   0   0   0   0   0   0   0   0   0   0   0   0   0   0   0   0   0
  0   0   0   0
  0   0   0   0   0   0   0   0   0   0   0   0   0   0   0   5   0   0 132 159 155 157 151 143
148 150 147 151 148 145 149 149 148 152 158 157 157 164 163 162 160 154 153 154 162 164 170 172
175 171 168 179 196 194 180 174 170 180 171 158 153 148 142 139 148 170 165 121  96  80  68  56
 39  25  14   5   1   0   0   0   0   0   0   0   0   0   0   0   0   0   0   0   0   0   0   0
  0   0   0   0
  0   0   0   0   0   0   0   0   0   0   0   0   0   0   0   5   0   0 139 166 150 158 156 149
144 145 147 151 154 148 144 147 149 150 153 155 155 160 165 166 167 160 152 151 156 163 167 176
175 171 175 184 194 195 186 177 167 169 176 172 168 163 149 142 153 168 174 138  98  85  73  60
 43  30  15   7   1   0   0   0   0   0   0   0   0   0   0   0   0   0   0   0   0   0   0   0
  0   0   0   0
  0   0   0   0   0   0   0   0   0   0   0   0   0   0   0   4   0   0 134 171 155 153 155 155
149 144 145 148 151 151 150 149 152 157 159 153 155 160 160 156 158 169 162 153 153 159 165 170
171 175 175 178 182 183 182 172 157 156 164 172 169 168 167 157 157 174 177 147 104  88  74  60
 46  34  17  10   3   0   0   0   0   0   0   0   0   0   0   0   0   0   0   0   0   0   0   0
  0   0   0   0
  0   0   0   0   0   0   0   0   0   0   0   0   0   0   0   4   0   0 128 162 158 154 156 154
154 148 145 145 148 150 152 155 157 158 160 157 149 154 157 153 149 161 166 161 160 158 161 167
168 170 168 173 170 171 176 167 156 149 153 166 169 163 169 167 163 179 177 152 113  90  77  61
 47  36  21  12   5   0   0   0   0   0   0   0   0   0   0   0   0   0   0   0   0   0   0   0
  0   0   0   0
  0   0   0   0   0   0   0   0   0   0   0   0   0   0   0   4   0   0 130 161 156 155 156 155
150 152 149 146 149 155 149 152 159 162 162 167 160 150 150 154 156 159 161 159 160 166 166 172
172 165 163 169 168 165 167 166 162 151 151 162 170 163 162 159 160 171 173 160 123  96  87  70
 55  38  24  15   6   0   0   0   0   0   0   0   0   0   0   0   0   0   0   0   0   0   0   0
  0   0   0   0
  0   0   0   0   0   0   0   0   0   0   0   0   0   0   0   4   0   0 126 160 154 157 158 159
155 155 159 153 147 161 159 150 160 168 167 166 168 162 160 157 156 162 164 156 160 174 177 176
170 163 162 163 165 162 166 170 170 158 154 158 167 163 162 163 161 164 170 162 124  99  87  67
 55  39  27  16   8   0   0   0   0   0   0   0   0   0   0   0   0   0   0   0   0   0   0   0
  0   0   0   0
  0   0   0   0   0   0   0   0   0   0   0   0   0   0   0   5   0   0 132 160 153 149 156 158
155 158 158 156 150 150 161 160 158 161 168 165 162 163 166 157 150 156 165 166 169 172 177 173
164 159 161 161 166 158 160 172 177 172 160 159 163 159 163 166 172 175 169 157 123 100  80  65
 55  43  30  15   9   1   0   0   0   0   0   0   0   0   0   0   0   0   0   0   0   0   0   0
  0   0   0   0
  0   0   0   0   0   0   0   0   0   0   0   0   0   0   0   5   0   0 135 168 159 156 152 153
150 156 157 146 148 147 151 157 154 151 154 162 164 160 161 165 158 159 166 169 167 166 170 177
170 160 158 156 162 155 157 165 175 174 165 163 162 155 158 163 172 183 173 151 127 100  81  70
 56  49  31  15  11   2   0   0   0   0   0   0   0   0   0   0   0   0   0   0   0   0   0   0
  0   0   0   0
  0   0   0   0   0   0   0   0   0   0   0   0   0   0   0   4   0   0 131 169 162 162 159 152
151 150 158 151 143 148 148 155 159 152 146 152 155 157 159 166 164 163 170 169 161 160 161 164
165 159 154 148 154 155 154 159 165 168 161 154 155 152 152 158 166 177 174 154 123 102  94  73
 60  53  30  17  11   2   0   0   0   0   0   0   0   0   0   0   0   0   0   0   0   0   0   0
  0   0   0   0
  0   0   0   0   0   0   0   0   0   0   0   0   0   0   0   4   0   0 129 164 163 158 156 161
158 150 154 161 149 144 147 155 160 156 148 148 149 149 159 169 166 163 164 170 166 158 158 154
160 158 148 147 146 151 150 153 159 158 162 158 149 147 149 157 165 170 172 153 127 107  95  82
 70  50  31  20  13   3   0   0   0   0   0   0   0   0   0   0   0   0   0   0   0   0   0   0
  0   0   0   0
  0   0   0   0   0   0   0   0   0   0   0   0   0   0   0   4   0   0 130 161 161 164 152 154
162 157 150 159 159 153 145 145 148 152 151 147 148 153 158 159 162 160 160 160 159 156 155 160
164 160 150 150 146 148 152 149 157 156 156 159 156 149 148 156 162 168 169 146 127 114  94  80
 72  50  32  22  13   3   0   0   0   0   0   0   0   0   0   0   0   0   0   0   0   0   0   0
  0   0   0   0
  0   0   0   0   0   0   0   0   0   0   0   0   0   0   0   4   0   0 131 164 154 162 161 151
153 157 149 150 158 156 153 151 145 142 150 149 147 155 157 151 150 156 158 151 144 153 153 161
171 161 149 150 156 155 155 153 158 159 151 152 168 156 148 154 160 171 169 146 120 112  92  83
 82  54  31  24  13   4   0   0   0   0   0   0   0   0   0   0   0   0   0   0   0   0   0   0
  0   0   0   0
  0   0   0   0   0   0   0   0   0   0   0   0   0   0   0   5   0   0 137 165 156 154 161 159
152 154 155 147 149 152 150 152 153 142 142 148 147 152 153 149 146 145 151 150 144 141 148 153
154 159 151 146 159 167 164 163 168 165 150 151 166 163 150 152 161 165 169 146 118 111  91 101
 91  52  31  24  13   4   0   0   0   0   0   0   0   0   0   0   0   0   0   0   0   0   0   0
  0   0   0   0
  0   0   0   0   0   0   0   0   0   0   0   0   0   0   0   5   0   0 142 165 155 154 153 162
163 160 158 153 147 148 148 148 150 148 141 144 146 148 150 148 150 147 145 150 147 145 147 147
144 156 160 157 156 155 160 166 171 171 162 153 156 168 167 165 167 165 163 136 114 120 113 103
 78  49  35  27  14   5   0   0   0   0   0   0   0   0   0   0   0   0   0   0   0   0   0   0
  0   0   0   0
  0   0   0   0   0   0   0   0   0   0   0   0   0   0   0   5   0   0 141 170 153 156 153 154
166 168 164 159 152 147 146 146 145 145 141 137 142 142 142 144 149 153 148 148 146 148 148 146
146 150 160 162 162 154 153 157 162 171 174 164 163 181 183 178 172 168 152 136 118 131 124 102
 78  52  41  29  15   5   0   0   0   0   0   0   0   0   0   0   0   0   0   0   0   0   0   0
  0   0   0   0
  0   0   0   0   0   0   0   0   0   0   0   0   0   0   0   5   1   0 137 171 155 153 155 150
155 164 163 160 153 147 142 141 141 140 142 133 133 138 140 143 146 152 155 151 152 145 146 149
150 151 154 152 159 156 148 148 154 163 163 164 173 183 174 170 166 163 156 155 133 124 114 107
 89  74  50  28  19   5   0   0   0   0   0   0   0   0   0   0   0   0   0   0   0   0   0   0
  0   0   0   0
  0   0   0   0   0   0   0   0   0   0   0   0   0   0   0   4   2   0 131 169 159 152 152 150
148 154 156 157 155 149 145 142 141 138 136 139 133 130 132 138 140 144 152 149 149 148 147 149
155 159 159 157 162 154 151 149 147 163 162 161 177 180 170 165 166 158 156 166 144 122 115 102
107 105  51  27  32  16   0   1   0   0   0   0   0   0   0   0   0   0   0   0   0   0   0   0
  0   0   0   0
  0   0   0   0   0   0   0   0   0   0   0   0   0   0   0   4   0   0 130 167 159 153 147 149
145 145 150 154 158 152 144 143 142 142 134 135 138 133 131 132 135 135 142 148 144 149 152 151
158 161 158 160 166 155 145 153 148 161 161 155 175 181 178 174 169 161 159 158 144 131 120 107
109 102  51  42  45  21   0   1   0   0   0   0   0   0   0   0   0   0   0   0   0   0   0   0
  0   0   0   0
  0   0   0   0   0   0   0   0   0   0   0   0   0   0   0   5   0   0 132 164 159 154 146 144
146 141 144 151 152 158 148 140 138 140 138 131 135 137 137 134 133 134 135 144 148 146 151 152
153 158 158 154 159 159 147 158 159 159 172 163 170 185 180 170 158 152 167 159 147 137 129 123
101  96  62  55  50  17   0   1   0   0   0   0   0   0   0   0   0   0   0   0   0   0   0   0
  0   0   0   0
  0   0   0   0   0   0   0   0   0   0   0   0   0   0   0   5   0   0 132 164 158 154 149 144
145 143 140 147 149 152 159 143 138 141 143 136 139 141 135 135 134 136 135 135 139 144 143 147
149 149 164 160 150 152 158 165 170 161 176 176 174 184 174 162 162 150 147 154 157 128 116 120
110  84  57  56  43   5   0   1   0   0   0   0   0   0   0   0   0   0   0   0   0   0   0   0
  0   0   0   0
  0   0   0   0   0   0   0   0   0   0   0   0   0   0   0   4   0   0 132 164 156 159 152 147
144 147 143 145 150 146 152 156 145 141 143 141 137 138 135 133 132 135 138 138 135 138 143 142
143 149 158 160 149 148 154 162 166 165 157 165 171 173 159 157 169 165 156 154 152 133 111 123
102  59  47  47  29   0   0   0   0   0   0   0   0   0   0   0   0   0   0   0   0   0   0   0
  0   0   0   0
  0   0   0   0   0   0   0   0   0   0   0   0   0   0   0   4   0   0 127 164 157 159 158 147
143 143 146 145 147 152 148 159 155 144 143 147 144 136 137 136 133 135 139 140 137 136 142 146
146 148 150 156 160 162 149 149 163 164 150 161 166 159 155 153 155 165 166 165 176 154 121 119
 80  53  42  32  11   0   0   0   0   0   0   0   0   0   0   0   0   0   0   0   0   0   0   0
  0   0   0   0
  0   0   0   0   0   0   0   0   0   0   0   0   0   0   0   4   0   0 125 159 159 155 160 152
140 142 146 147 146 148 151 149 158 146 141 143 148 143 139 137 138 138 139 143 145 141 139 142
153 155 152 156 163 168 165 157 171 174 167 167 171 164 164 163 151 166 180 185 193 169 126 102
 66  39  26  11   0   0   0   0   0   0   0   0   0   0   0   0   0   0   0   0   0   0   0   0
  0   0   0   0
  0   0   0   0   0   0   0   0   0   0   0   0   0   0   0   4   0   0 121 153 155 156 156 157
142 140 145 145 150 145 148 145 153 155 144 143 144 146 141 138 140 140 141 140 140 142 144 146
149 155 156 158 165 178 181 173 172 179 179 187 180 162 161 184 182 185 197 188 172 156 124  80
 43  23   9   2   0   0   0   0   0   0   0   0   0   0   0   0   0   0   0   0   0   0   0   0
  0   0   0   0
  0   0   0   0   0   0   0   0   0   0   0   0   0   0   0   4   0   0 120 148 151 157 152 157
150 137 142 142 147 152 148 147 143 149 151 144 144 148 145 141 143 144 144 147 144 139 138 140
151 151 153 154 159 171 181 182 181 182 177 195 197 175 168 182 195 191 183 173 160 134 110  64
 29  16   6   1   0   0   0   0   0   0   0   0   0   0   0   0   0   0   0   0   0   0   0   0
  0   0   0   0
  0   0   0   0   0   0   0   0   0   0   0   0   0   0   0   4   0   0 120 147 147 157 153 153
153 143 141 144 143 149 149 151 140 143 148 144 143 148 149 151 158 156 147 149 154 147 140 141
146 149 156 159 153 160 169 180 187 182 186 193 189 172 156 147 155 156 166 172 155 108  85  47
 23  11   3   0   0   0   0   0   0   0   0   0   0   0   0   0   0   0   0   0   0   0   0   0
  0   0   0   0
  0   0   0   0   0   0   0   0   0   0   0   0   0   0   0   4   0   0 121 144 140 152 151 151
156 148 142 144 142 143 145 148 149 140 139 139 137 144 147 151 156 152 153 146 146 150 149 145
141 145 154 157 150 159 172 179 175 175 183 173 157 151 139 127 128 152 177 170 121  75  54  28
 17   5   1   0   0   0   0   0   0   0   0   0   0   0   0   0   0   0   0   0   0   0   0   0
  0   0   0   0
  0   0   0   0   0   0   0   0   0   0   0   0   0   0   0   4   0   0 122 145 136 146 152 149
154 158 145 142 145 146 142 142 151 145 139 142 137 135 137 140 146 140 143 151 150 151 151 147
144 140 143 152 153 154 163 173 179 172 167 160 153 151 154 157 175 182 159 113  73  57  44  24
  6   3   0   0   0   0   0   0   0   0   0   0   0   0   0   0   0   0   0   0   0   0   0   0
  0   0   0   0
  0   0   0   0   0   0   0   0   0   0   0   0   0   0   0   5   0   0 124 140 132 138 148 146
146 153 151 147 144 148 147 141 144 145 141 142 140 134 132 136 139 143 140 144 156 156 152 151
151 147 142 148 158 161 160 166 172 169 166 162 153 146 159 164 156 122  76  57  56  45  33  13
  4   1   0   0   0   0   0   0   0   0   0   0   0   0   0   0   0   0   0   0   0   0   0   0
  0   0   0   0
  0   0   0   0   0   0   0   0   0   0   0   0   0   0   0   6   0   0 130 130 122 130 138 139
139 143 146 146 145 147 153 146 138 141 141 140 143 141 133 136 138 142 141 137 143 149 151 151
153 152 147 154 175 177 160 149 152 158 160 154 147 159 163 137 106  86  70  53  36  27  16   7
  2   0   0   0   0   0   0   0   0   0   0   0   0   0   0   0   0   0   0   0   0   0   0   0
  0   0   0   0
  0   0   0   0   0   0   0   0   0   0   0   0   0   0   0   6   0   0 138 129 105 120 130 131
129 138 139 138 145 147 153 151 143 141 142 139 142 145 142 137 137 137 141 137 142 152 143 146
148 148 150 161 164 155 164 154 144 153 140 128 136 163 165 126  93  78  54  38  29  15   8   3
  0   0   0   0   0   0   0   0   0   0   0   0   0   0   0   0   0   0   0   0   0   0   0   0
  0   0   0   0
  0   0   0   0   0   0   0   0   0   0   0   0   0   0   0   6   0   0 143 137  87 107 117 122
117 125 133 132 137 143 147 147 148 144 144 144 141 145 149 145 141 138 143 145 154 163 155 151
150 147 154 154 141 144 158 149 141 131 124 136 129 129 118  84  66  57  38  32  20   9   6   1
  0   0   0   0   0   0   0   0   0   0   0   0   0   0   0   0   0   0   0   0   0   0   0   0
  0   0   0   0
  0   0   0   0   0   0   0   0   0   0   0   0   0   0   0   5   0   0 139 146  74  87 102 112
110 109 123 127 128 130 134 143 145 146 147 149 143 139 146 143 143 148 150 154 160 165 164 160
150 142 142 142 140 144 140 130 129 123 141 135 102  86  75  67  64  46  24  17  10   6   2   0
  0   0   0   0   0   0   0   0   0   0   0   0   0   0   0   0   0   0   0   0   0   0   0   0
  0   0   0   0
  0   0   0   0   0   0   0   0   0   0   0   0   0   0   0   4   0   0 132 149  77  63  82  94
 96  97 108 119 119 122 120 132 141 144 147 144 143 140 135 142 146 144 150 154 149 157 155 146
139 133 134 140 140 135 132 132 130 126 125 107  91  77  62  51  39  24  18  12   7   3   0   0
  0   0   0   0   0   0   0   0   0   0   0   0   0   0   0   0   0   0   0   0   0   0   0   0
  0   0   0   0
  0   0   0   0   0   0   0   0   0   0   0   0   0   0   0   4   0   0 126 147  89  44  58  73
 81  87  90  99 108 113 112 112 124 137 138 138 136 143 143 140 146 145 151 158 148 142 140 139
133 131 134 129 125 133 145 143 127 112  89  86  76  58  45  37  31  18  12   7   4   0   0   0
  0   0   0   0   0   0   0   0   0   0   0   0   0   0   0   0   0   0   0   0   0   0   0   0
  0   0   0   0
  0   0   0   0   0   0   0   0   0   0   0   0   0   0   0   4   0   0 120 141 105  37  43  55
 62  66  75  82  90  99 104 104 106 115 130 140 134 130 144 145 137 138 147 152 150 144 142 146
145 130 121 121 127 142 150 132 105  84  71  65  57  45  36  31  22  10   8   4   1   0   0   0
  0   0   0   0   0   0   0   0   0   0   0   0   0   0   0   0   0   0   0   0   0   0   0   0
  0   0   0   0
  0   0   0   0   0   0   0   0   0   0   0   0   0   0   0   5   0   0 128 141 106  44  25  36
 42  50  54  63  72  83  91  96  99  99 106 126 138 126 127 131 132 132 135 135 134 138 144 145
147 129 122 133 132 134 128  98  83  73  64  54  46  34  26  19  16   9   5   1   0   0   0   0
  0   0   0   0   0   0   0   0   0   0   0   0   0   0   0   0   0   0   0   0   0   0   0   0
  0   0   0   0
  0   0   0   0   0   0   0   0   0   0   0   0   0   0   0   1   4   0  86 127 111  48   0  25
 27  34  40  46  54  64  71  75  81  88  89  94 109 117 118 114 115 121 129 123 118 131 134 133
130 121 121 132 127 114  93  74  71  60  49  40  32  27  18  12   9   4   1   0   0   0   0   0
  0   0   0   0   0   0   0   0   0   0   0   0   0   0   0   0   0   0   0   0   0   0   0   0
  0   0   0   0
  0   0   0   0   0   0   0   0   0   0   0   0   0   0   0   0   1   4   0  41  92  64   0  15
 17  21  25  31  37  44  54  57  58  68  79  80  84  91  95 103 107 106 110 118 116 117 105 100
105 103 104 113 114  92  68  63  56  45  36  29  23  17  10   6   2   0   0   0   0   0   0   0
  0   0   0   0   0   0   0   0   0   0   0   0   0   0   0   0   0   0   0   0   0   0   0   0
  0   0   0   0
  0   0   0   0   0   0   0   0   0   0   0   0   0   0   0   0   0   0  14   0   0  39  11   5
  9  12  15  19  25  28  38  42  43  47  59  65  65  69  71  77  85  85  85  86  93  91  86  81
 73  67  72  81  76  58  52  45  36  31  24  17  12   8   5   2   0   0   0   0   0   0   0   0
  0   0   0   0   0   0   0   0   0   0   0   0   0   0   0   0   0   0   0   0   0   0   0   0
  0   0   0   0
  0   0   0   0   0   0   0   0   0   0   0   0   0   0   0   0   0   0   6  13   0   0   3   4
  5   6   8  11  15  19  23  28  31  33  39  46  44  48  52  54  61  64  66  63  64  64  61  61
 55  50  47  48  50  46  38  30  23  17  13  10   6   5   2   0   0   0   0   0   0   0   0   0
  0   0   0   0   0   0   0   0   0   0   0   0   0   0   0   0   0   0   0   0   0   0   0   0
  0   0   0   0
  0   0   0   0   0   0   0   0   0   0   0   0   0   0   0   0   0   0   5   5   3   3   0   0
  1   3   4   6   8  10  14  18  20  21  25  31  33  34  38  40  40  44  46  45  46  43  43  43
 39  36  33  30  25  24  22  16  13  11   8   5   3   2   0   0   0   0   0   0   0   0   0   0
  0   0   0   0   0   0   0   0   0   0   0   0   0   0   0   0   0   0   0   0   0   0   0   0
  0   0   0   0
  0   0   0   0   0   0   0   0   0   0   0   0   0   0   0   0   0   0   7   6   1   0   0   0
  0   0   1   3   4   6   8  10  12  14  16  19  21  21  24  26  28  28  30  30  30  31  29  29
 28  25  23  21  19  15  11   9   7   5   2   1   1   0   0   0   0   0   0   0   0   0   0   0
  0   0   0   0   0   0   0   0   0   0   0   0   0   0   0   0   0   0   0   0   0   0   0   0
  0   0   0   0
  0   0   0   0   0   0   0   0   0   0   0   0   0   0   0   0   0   0   9   7   2   0   0   0
  0   0   0   0   1   2   3   5   6   7   9  10  11  13  14  15  17  18  19  20  18  18  18  16
 15  15  14  12  11   9   6   4   3   1   1   0   0   0   0   0   0   0   0   0   0   0   0   0
  0   0   0   0   0   0   0   0   0   0   0   0   0   0   0   0   0   0   0   0   0   0   0   0
  0   0   0   0
  0   0   0   0   0   0   0   0   0   0   0   0   0   0   0   0   0   0  12  10   3   1   0   0
  0   0   0   0   0   0   0   1   1   2   3   4   4   5   7   8   9  10  10  10  11  11  10  10
  9   8   7   7   5   3   2   1   0   0   0   0   0   0   0   0   0   0   0   0   0   0   0   0
  0   0   0   0   0   0   0   0   0   0   0   0   0   0   0   0   0   0   0   0   0   0   0   0
  0   0   0   0
  0   0   0   0   0   0   0   0   0   0   0   0   0   0   0   0   0   0  14  12   4   2   0   0
  0   0   0   0   0   0   0   0   0   0   0   1   1   2   3   3   4   4   5   5   5   5   5   4
  4   4   3   2   1   0   0   0   0   0   0   0   0   0   0   0   0   0   0   0   0   0   0   0
  0   0   0   0   0   0   0   0   0   0   0   0   0   0   0   0   0   0   0   0   0   0   0   0
  0   0   0   0
  0   0   0   0   0   0   0   0   0   0   0   0   0   0   0   0   0   0  14  13   5   2   0   0
  0   0   0   0   0   0   0   0   0   0   0   0   0   0   1   1   1   1   1   2   1   2   1   1
  0   0   0   0   0   0   0   0   0   0   0   0   0   0   0   0   0   0   0   0   0   0   0   0
  1   0   0   0   0   0   0   0   0   0   0   0   0   0   0   0   0   0   0   0   0   0   0   0
  0   0   0   0
  0   0   0   0   0   0   0   0   0   0   0   0   0   0   0   0   0   0  15  14   7   4   1   0
  0   0   0   0   0   0   0   0   0   0   0   0   0   0   0   0   0   0   0   0   0   0   1   0
  0   0   0   0   0   0   0   0   0   0   0   0   0   0   0   0   0   0   0   0   0   0   0   0
  0   0   0   0   0   0   0   0   0   0   0   0   0   0   0   0   0   0   0   0   0   0   0   0
  0   0   0   0
  0   0   0   0   0   0   0   0   0   0   0   0   0   0   0   0   0   0  17  15   7   5   2   0
  0   0   0   0   0   0   0   0   0   0   0   0   0   0   0   0   0   0   0   0   0   1   1   0
  0   0   0   0   0   0   0   0   0   0   0   0   0   0   0   0   0   0   0   0   0   0   0   0
  0   0   0   0   0   0   0   0   0   0   0   0   0   0   0   0   0   0   0   0   0   0   0   0
  0   0   0   0
