P2
# 8-bit pgm gray
100 100
255
  0   0   0   0   0   0   0   0   0   0   0   0   0   0   0   0   0   0   0   0   0   0  16   0
 59 186 199 195 197 199 196 193 193 192 190 187 182 177 172 162 154 139 110  72  59  51  39  28
 21  16  10   7   5   3   1   0   1   1   1   1   0   1   1   1   1   1   1   1   1   1   1   1
  1   1   1   0   0   0   0   0   0   0   0   0   0   0   0   0   0   0   0   0   0   0   0   0
  0   0   0   0
  0   0   0   0   0   0   0   0   0   0   0   0   0   0   0   0   0   0   0   0   0   0  16   0
 59 186 201 197 196 198 197 193 191 189 187 184 179 172 168 160 149 132  98  68  62  51  39  28
 21  15  11   7   5   2   0   0   0   1   1   1   0   0   1   1   1   1   1   1   1   1   1   1
  1   1   1   0   0   0   0   0   0   0   0   0   0   0   0   0   0   0   0   0   0   0   0   0
  0   0   0   0
  0   0   0   0   0   0   0   0   0   0   0   0   0   0   0   0   0   0   0   0   0   0  16   0
 57 186 201 196 196 196 199 194 190 188 186 183 179 172 166 156 144 124  86  67  59  49  38  27
 20  14  10   7   4   2   0   0   0   0   1   0   0   0   0   0   1   1   1   1   1   1   1   1
  1   1   0   0   0   0   0   0   0   0   0   0   0   0   0   0   0   0   0   0   0   0   0   0
  0   0   0   0
  0   0   0   0   0   0   0   0   0   0   0   0   0   0   0   0   0   0   0   0   0   0  16   0
 58 184 198 194 194 193 196 197 190 186 184 180 176 172 163 152 139 113  76  67  58  48  37  26
 19  13  10   6   3   1   0   1   0   0   0   0   0   0   0   0   0   0   0   0   1   1   0   0
  0   0   0   0   0   0   0   0   0   0   0   0   0   0   0   0   0   0   0   0   0   0   0   0
  0   0   0   0
  0   0   0   0   0   0   0   0   0   0   0   0   0   0   0   0   0   0   0   0   0   0  15   0
 57 183 198 193 195 194 192 196 192 185 181 178 173 168 160 148 130 101  74  67  58  47  35  26
 19  13   8   5   3   0   0   1   0   0   0   0   0   0   0   0   0   0   0   0   0   0   0   4
  5   2   0   0   0   0   0   0   0   0   0   0   0   0   0   0   0   0   0   0   0   0   0   0
  0   0   0   0
  0   0   0   0   0   0   0   0   0   0   0   0   0   0   0   0   0   0   0   0   0   0  15   0
 56 182 197 191 193 191 190 190 193 191 183 176 172 163 155 142 119  89  76  69  56  45  35  26
 18  12   7   4   2   0   0   0   0   0   0   0   0   0   0   0   0   0   0   0   2   0  37  20
  0   0   0   0   0   0   0   0   0   0   0   0   0   0   0   0   0   0   0   0   0   0   0   0
  0   0   0   0
  0   0   0   0   0   0   0   0   0   0   0   0   0   0   0   0   0   0   0   0   0   0  15   0
 57 182 196 192 192 191 190 189 187 190 186 175 170 160 148 136 107  78  73  65  54  45  34  25
 17  11   7   4   2   0   0   0   0   0   0   0   0   0   0   0   0   0   0   0   4   0  52  61
 48  37   1   0   1   0   0   0   0   0   0   0   0   0   0   0   0   0   0   0   0   0   0   0
  0   0   0   0
  0   0   0   0   0   0   0   0   0   0   0   0   0   0   0   0   0   0   0   0   0   0  16   0
 58 183 195 190 191 191 189 187 184 182 185 182 169 155 144 126  92  73  72  65  56  46  34  23
 15   9   6   3   1   0   0   0   0   0   0   0   0   0   0   0   0   0   0   0   2   0  18  60
 56  32   0   1   0   0   0   0   0   0   0   0   0   0   0   0   0   0   0   0   0   0   0   0
  0   0   0   0
  0   0   0   0   0   0   0   0   0   0   0   0   0   0   0   0   0   0   0   0   0   0  16   0
 58 184 195 190 190 189 187 186 183 179 175 175 172 154 136 116  85  78  73  62  55  47  33  21
 15   9   5   3   1   0   0   0   0   0   0   0   0   0   0   0   0   0   0   0   5   0  40  77
101  80  19   0   4   0   0   0   0   0   0   0   0   0   0   0   0   0   0   0   0   0   0   0
  0   0   0   0
  0   0   0   0   0   0   0   0   0   0   0   0   0   0   0   0   0   0   0   0   0   0  16   0
 58 185 197 190 189 188 187 185 182 178 172 164 163 157 133 102  81  79  73  65  55  46  32  20
 14   8   5   3   1   0   0   0   0   0   0   0   0   0   0   0   0   0   0   0   7   0  53  86
113  98  33   0   6   0   0   0   0   0   0   0   0   0   0   0   0   0   0   0   0   0   0   0
  0   0   0   0
  0   0   0   0   0   0   0   0   0   0   0   0   0   0   0   0   0   0   0   0   0   0  16   0
 58 184 197 191 191 189 186 183 181 178 172 163 152 148 137 100  79  77  71  63  52  43  31  22
 14   8   5   2   0   0   0   0   0   0   0   0   0   0   0   0   0   0   0   0   1   0   4  58
 74  48   0   2   0   0   0   0   0   0   0   0   0   0   0   0   0   0   0   0   0   0   0   0
  0   0   0   0
  0   0   0   0   0   0   0   0   0   0   0   0   0   0   0   0   0   0   0   0   0   0  16   0
 59 185 197 190 189 187 186 180 178 175 167 157 148 134 119 102  88  73  67  59  49  40  30  21
 12   7   4   2   0   0   0   0   0   0   0   0   0   0   0   0   0   0   0   0   3   0  31  50
 56  67  16   0   3   0   0   0   0   0   0   0   0   0   0   0   0   0   0   0   0   0   0   0
  0   0   0   0
  0   0   0   0   0   0   0   0   0   0   0   0   0   0   0   0   0   0   0   0   0   0  16   0
 58 184 198 191 188 185 184 181 176 170 163 154 144 127  97  90  97  79  69  63  52  40  31  19
 11   8   4   1   0   0   0   0   0   0   0   0   0   0   0   0   0   0   0   0   4   0  47  50
 28  69  29   0   4   0   0   0   0   0   0   0   0   0   0   0   0   0   0   0   0   0   0   0
  0   0   0   0
  0   0   0   0   0   0   0   0   0   0   0   0   0   0   0   0   0   0   0   0   0   0  16   0
 58 183 197 190 187 183 180 178 174 169 161 151 139 117  90  81  90  93  73  61  49  38  28  21
 13   9   4   1   0   0   0   0   0   0   0   0   0   0   0   0   0   0   0   0   1   0   8  43
 51  30   0   1   0   0   0   0   0   0   0   0   0   0   0   0   0   0   0   0   0   0   0   0
  0   0   0   0
  0   0   0   0   0   0   0   0   0   0   0   0   0   0   0   0   0   0   0   0   0   0  15   0
 57 182 196 190 187 182 178 176 172 166 158 146 132 106  86  82  85  95  72  50  44  36  28  19
 11   7   3   1   0   0   0   0   0   0   0   0   0   0   0   0   0   0   0   0   0   1   0   0
  0   0   0   0   0   0   0   0   0   0   0   0   0   0   0   0   0   0   0   0   0   0   0   0
  0   0   0   0
  0   0   0   0   0   0   0   0   0   0   0   0   0   0   0   0   0   0   0   0   0   0  15   0
 57 180 194 188 185 182 178 174 168 162 153 142 123  95  84  80  80  92  73  49  44  34  25  16
 10   6   3   1   0   0   0   0   0   0   0   0   0   0   0   0   0   0   0   0   0   0   1   1
  0   2   0   0   0   0   0   0   0   0   0   0   0   0   0   0   0   0   0   0   0   0   0   0
  0   0   0   0
  0   0   0   0   0   0   0   0   0   0   0   0   0   0   0   0   0   0   0   0   0   0  15   0
 56 181 195 188 184 179 175 170 165 159 149 136 110  85  84  81  79  89  69  48  42  32  23  15
 10   6   3   1   0   0   0   0   0   0   0   0   0   0   0   0   0   0   0   0   0   0   0   0
  1   0   0   0   0   0   0   0   0   0   0   0   0   0   0   0   0   0   0   0   0   0   0   0
  0   0   0   0
  0   0   0   0   0   0   0   0   0   0   0   0   0   0   0   0   0   0   0   0   0   0  15   0
 56 181 194 187 183 180 177 170 162 154 145 130 101  85  87  90  79  74  70  48  39  31  24  16
 10   6   3   1   0   0   0   0   0   0   0   0   0   0   0   0   0   0   0   0   0   0   0   0
  0   0   0   0   0   0   0   0   0   0   0   0   0   0   0   0   0   0   0   0   0   0   0   0
  0   0   0   0
  0   0   0   0   0   0   0   0   0   0   0   0   0   0   0   0   0   0   0   0   0   0  15   0
 57 181 191 183 183 180 176 170 161 151 139 118  90  87  90  86  73  65  64  49  38  32  23  16
 11   7   3   1   0   0   0   0   0   0   0   0   0   0   0   0   0   0   0   0   0   0   0   0
  0   0   0   0   0   0   0   0   0   0   0   0   0   0   0   0   0   0   0   0   0   0   0   0
  0   0   0   0
  0   0   0   0   0   0   0   0   0   0   0   0   0   0   0   0   0   0   0   0   0   0  15   0
 57 180 191 184 181 177 173 167 157 146 132 103  88  90  84  74  68  63  61  56  39  32  24  15
 11   8   4   2   0   0   0   0   0   0   0   0   0   0   0   0   0   0   0   0   0   0   0   0
  0   0   0   0   0   0   0   0   0   0   0   0   0   0   0   0   0   0   0   0   0   0   0   0
  0   0   0   0
  0   0   0   0   0   0   0   0   0   0   0   0   0   0   0   0   0   0   0   0   0   0  15   0
 57 180 190 184 180 175 169 163 154 141 123  99  92  83  78  74  67  62  59  57  44  33  26  18
 13   9   5   2   0   0   0   0   0   0   0   0   0   0   0   0   0   0   0   0   0   0   0   0
  0   0   0   0   0   0   0   0   0   0   0   0   0   0   0   0   0   0   0   0   0   0   0   0
  0   0   0   0
  0   0   0   0   0   0   0   0   0   0   0   0   0   0   0   0   0   0   0   0   0   0  15   0
 57 179 189 180 176 171 166 158 151 136 113  93  88  81  78  73  67  60  55  53  50  37  27  20
 13   9   5   3   0   0   0   0   0   0   0   0   0   0   0   0   0   0   0   0   0   0   0   0
  0   0   0   0   0   0   0   0   0   0   0   0   0   0   0   0   0   0   0   0   0   0   0   0
  0   0   0   0
  0   0   0   0   0   0   0   0   0   0   0   0   0   0   0   0   0   0   0   0   0   0  14   0
 54 176 188 179 174 167 160 156 147 126  97  87  87  82  78  71  67  61  56  49  47  42  27  20
 14  10   6   4   1   0   0   0   0   0   0   0   0   0   0   0   0   0   0   0   0   0   0   0
  0   0   0   0   0   0   0   0   0   0   0   0   0   0   0   0   0   0   0   0   0   0   0   0
  0   0   0   0
  0   0   0   0   0   0   0   0   0   0   0   0   0   0   0   0   0   0   0   0   0   0  14   0
 54 174 185 175 172 166 159 153 143 118  92  90  89  84  81  76  68  63  57  49  44  43  34  24
 18  11   7   4   2   0   0   0   0   0   0   0   0   0   0   0   0   0   0   0   0   0   0   0
  0   0   0   0   0   0   0   0   0   0   0   0   0   0   0   0   0   0   0   0   0   0   0   0
  0   0   0   0
  0   0   0   0   0   0   0   0   0   0   0   0   0   0   0   0   0   0   0   0   0   0  13   0
 52 171 182 173 170 165 155 145 133 109  92  90  85  82  82  78  70  64  59  51  45  42  37  28
 19  13   9   5   2   0   0   0   0   0   0   0   0   0   0   0   0   0   0   0   0   0   0   0
  0   0   0   0   0   0   0   0   0   0   0   0   0   0   0   0   0   0   0   0   0   0   0   0
  0   0   0   0
  0   0   0   0   0   0   0   0   0   0   0   0   0   0   0   0   0   0   0   0   0   0  13   0
 51 170 180 172 169 162 152 140 123  98  90  88  85  81  78  75  71  67  60  53  47  42  34  30
 22  14  10   6   3   1   0   0   0   0   0   0   0   0   0   0   0   0   0   0   0   0   0   0
  0   0   0   0   0   0   0   0   0   0   0   0   0   0   0   0   0   0   0   0   0   0   0   0
  0   0   0   0
  0   0   0   0   0   0   0   0   0   0   0   0   0   0   0   0   0   0   0   0   0   0  13   0
 52 168 178 170 166 159 152 140 117  94  90  88  85  81  77  75  72  67  61  54  47  44  37  28
 25  17  11   8   4   2   0   0   0   0   0   0   0   0   0   0   0   0   0   0   0   0   0   0
  0   0   0   0   0   0   0   0   0   0   0   0   0   0   0   0   0   0   0   0   0   0   0   0
  0   0   0   0
  0   0   0   0   0   0   0   0   0   0   0   0   0   0   0   0   0   0   0   0   0   0  13   0
 52 168 177 170 164 157 150 138 113  96  97  93  87  83  82  79  71  64  60  54  50  45  39  30
 24  21  15   9   6   3   1   0   0   0   0   0   0   0   0   0   0   0   0   0   0   0   0   0
  0   0   0   0   0   0   0   0   0   0   0   0   0   0   0   0   0   0   0   0   0   0   0   0
  0   0   0   0
  0   0   0   0   0   0   0   0   0   0   0   0   0   0   0   0   0   0   0   0   0   0  13   0
 51 164 174 166 160 153 142 123 101  94  95  93  88  87  82  79  76  70  62  55  52  48  40  32
 27  22  18  11   7   3   1   0   0   0   0   0   0   0   0   0   0   0   0   0   0   0   0   0
  0   0   0   0   0   0   0   0   0   0   0   0   0   0   0   0   0   0   0   0   0   0   0   0
  0   0   0   0
  0   0   0   0   0   0   0   0   0   0   0   0   0   0   0   0   0   0   0   0   0   0  12   0
 49 161 171 160 155 148 135 112  94  95  92  90  89  85  82  79  76  72  70  64  57  51  44  38
 33  25  21  14   8   5   2   0   0   0   0   0   0   0   0   0   0   0   0   0   0   0   0   0
  0   0   0   0   0   0   0   0   0   0   0   0   0   0   0   0   0   0   0   0   0   0   0   0
  0   0   0   0
  0   0   0   0   0   0   0   0   0   0   0   0   0   0   0   0   0   0   0   0   0   0  12   0
 47 160 170 160 153 143 128 106  94  93  92  91  86  81  79  78  74  69  67  65  57  52  47  42
 34  26  22  17  10   6   3   0   0   0   0   0   0   0   0   0   0   0   0   0   0   0   0   0
  0   0   0   0   0   0   0   0   0   0   0   0   0   0   0   0   0   0   0   0   0   0   0   0
  0   0   0   0
  0   0   0   0   0   0   0   0   0   0   0   0   0   0   0   0   0   0   0   0   0   0  12   0
 48 159 167 157 152 142 125 104  98  94  90  89  87  84  83  80  75  70  70  66  57  52  50  47
 39  30  23  18  13   7   4   1   0   0   0   0   0   0   0   0   0   0   0   0   0   0   0   0
  0   0   0   0   0   0   0   0   0   0   0   0   0   0   0   0   0   0   0   0   0   0   0   0
  0   0   0   0
  0   0   0   0   0   0   0   0   0   0   0   0   0   0   0   0   0   0   0   0   0   0  12   0
 49 160 167 156 150 137 118  99  97  96  90  90  91  87  85  81  78  74  74  68  62  56  51  47
 43  35  27  21  15  10   5   2   0   0   0   0   0   0   0   0   0   0   0   0   0   0   0   0
  0   0   0   0   0   0   0   0   0   0   0   0   0   0   0   0   0   0   0   0   0   0   0   0
  0   0   0   0
  0   0   0   0   0   0   0   0   0   0   0   0   0   0   0   0   0   0   0   0   0   0  12   0
 48 157 164 154 144 129 112 101  99  93  92  90  87  88  89  83  79  78  76  71  66  61  54  50
 44  40  33  24  17  13   7   3   1   0   0   0   0   0   0   0   0   0   0   0   0   0   0   0
  0   0   0   0   0   0   0   0   0   0   0   0   0   0   0   0   0   0   0   0   0   0   0   0
  0   0   0   0
  0   0   0   0   0   0   0   0   0   0   0   0   0   0   0   0   0   0   0   0   0   0  12   0
 48 156 163 152 141 128 112 103  98  92  94  90  87  86  87  87  84  82  81  76  70  64  60  55
 49  44  40  29  19  15  11   5   3   2   0   0   0   0   0   0   0   0   0   0   0   0   0   0
  0   0   0   0   0   0   0   0   0   0   0   0   0   0   0   0   0   0   0   0   0   0   0   0
  0   0   0   0
  0   0   0   0   0   0   0   0   0   0   0   0   0   0   0   0   0   0   0   0   0   0  11   0
 46 153 162 149 141 130 112  99  96  95  94  92  89  87  87  86  84  85  83  80  77  72  68  63
 55  48  42  34  22  16  12   7   6   2   0   0   0   0   0   0   0   0   0   0   0   0   0   0
  0   0   0   0   0   0   0   0   0   0   0   0   0   0   0   0   0   0   0   0   0   0   0   0
  0   0   0   0
  0   0   0   0   0   0   0   0   0   0   0   0   0   0   0   0   0   0   0   0   0   0  11   0
 47 154 160 145 138 125 111 101  99  97  93  94  92  92  88  85  88  87  85  84  81  74  73  71
 59  52  44  36  29  18  13  10   7   3   0   0   0   0   0   0   0   0   0   0   0   0   0   0
  0   0   0   0   0   0   0   0   0   0   0   0   0   0   0   0   0   0   0   0   0   0   0   0
  0   0   0   0
  0   0   0   0   0   0   0   0   0   0   0   0   0   0   0   0   0   0   0   0   0   0  11   0
 48 155 160 147 139 124 110 103 100  98  96  95  94  94  90  88  87  87  90  87  86  83  82  75
 64  62  48  36  32  24  17  13   8   4   1   0   0   0   0   0   0   0   0   0   0   0   0   0
  0   0   0   0   0   0   0   0   0   0   0   0   0   0   0   0   0   0   0   0   0   0   0   0
  0   0   0   0
  0   0   0   0   0   0   0   0   0   0   0   0   0   0   0   0   0   0   0   0   0   0  11   0
 48 154 160 148 140 125 110 106 103 100  99  97  96  92  90  89  85  91  96  92  92  93  95  83
 81  74  50  41  34  28  21  14   9   5   2   0   0   0   0   0   0   0   0   0   0   0   0   0
  0   0   0   0   0   0   0   0   0   0   0   0   0   0   0   0   0   0   0   0   0   0   0   0
  0   0   0   0
  0   0   0   0   0   0   0   0   0   0   0   0   0   0   0   0   0   0   0   0   0   0  12   0
 49 157 160 147 141 123 111 111 107 104 102 100  98  97  94  91  93  97  98  97  99 104  98  95
 98  75  52  46  37  30  23  16  12   8   3   0   0   0   0   0   0   0   0   0   0   0   0   0
  0   0   0   0   0   0   0   0   0   0   0   0   0   0   0   0   0   0   0   0   0   0   0   0
  0   0   0   0
  0   0   0   0   0   0   0   0   0   0   0   0   0   0   0   0   0   0   0   0   0   0  12   0
 48 160 166 151 139 122 115 111 107 106 104 106 104 102 102 101 101  97  96 103 113 110 100 101
101  83  59  51  44  37  28  20  15  10   5   1   0   0   0   0   0   0   0   0   0   0   0   0
  0   0   0   0   0   0   0   0   0   0   0   0   0   0   0   0   0   0   0   0   0   0   0   0
  0   0   0   0
  0   0   0   0   0   0   0   0   0   0   0   0   0   0   0   0   0   0   0   0   0   0  11   0
 47 152 162 156 142 125 119 114 108 109 108 105 107 110 104 105 104 103 102 112 119 107 104 104
106  95  72  63  51  43  34  24  17  13   7   3   0   0   0   0   0   0   0   0   0   0   0   0
  0   0   0   0   0   0   0   0   0   0   0   0   0   0   0   0   0   0   0   0   0   0   0   0
  0   0   0   0
  0   0   0   0   0   0   0   0   0   0   0   0   0   0   0   0   0   0   0   0   0   0  11   0
 48 154 164 156 151 138 127 122 119 116 110 107 109 109 105 104 108 110 106 114 120 113 119 114
111  95  83  71  56  48  40  29  22  16  11   5   2   0   0   0   0   0   0   0   0   0   0   0
  0   0   0   0   0   0   0   0   0   0   0   0   0   0   0   0   0   0   0   0   0   0   0   0
  0   0   0   0
  0   0   0   0   0   0   0   0   0   0   0   0   0   0   0   0   0   0   0   0   0   0  11   0
 47 153 165 155 142 134 135 131 120 113 108 109 108 106 104 101 103 107 109 115 125 125 139 137
119 101  87  73  64  54  45  36  26  19  14   7   3   1   0   0   0   0   0   0   0   0   0   0
  0   0   0   0   0   0   0   0   0   0   0   0   0   0   0   0   0   0   0   0   0   0   0   0
  0   0   0   0
  0   0   0   0   0   0   0   0   0   0   0   0   0   0   0   0   0   0   0   0   0   0  10   0
 42 151 159 141 126 117 124 124 120 113 107 107 111 109 104 103 104 109 118 124 127 128 138 143
129 106  93  86  74  62  51  41  35  26  19  11   6   2   0   0   0   0   0   0   0   0   0   0
  0   0   0   0   0   0   0   0   0   0   0   0   0   0   0   0   0   0   0   0   0   0   0   0
  0   0   0   0
  0   0   0   0   0   0   0   0   0   0   0   0   0   0   0   0   0   0   0   0   0   0  10   0
 43 147 155 138 125 123 120 115 118 118 109 104 107 106 105 108 109 117 121 126 124 130 138 127
121 107  96  88  81  73  65  52  41  29  21  15   8   3   1   0   0   0   0   0   0   0   0   0
  0   0   0   0   0   0   0   0   0   0   0   0   0   0   0   0   0   0   0   0   0   0   0   0
  0   0   0   0
  0   0   0   0   0   0   0   0   0   0   0   0   0   0   0   0   0   0   0   0   0   0  10   0
 45 144 151 140 127 126 124 121 121 116 112 113 113 117 119 121 128 133 125 120 128 131 134 129
121 106  92  83  80  72  66  55  45  37  23  17   9   5   2   0   0   1   0   0   0   0   0   0
  0   0   0   0   0   0   0   0   0   0   0   0   0   0   0   0   0   0   0   0   0   0   0   0
  0   0   0   0
  0   0   0   0   0   0   0   0   0   0   0   0   0   0   0   0   0   0   0   0   0   0  10   0
 45 144 147 137 128 125 128 125 124 122 115 113 117 124 131 134 141 144 128 123 124 117 115 123
134 121  99  91  85  71  65  62  52  42  30  20  13   7   3   0   0   1   0   0   0   0   0   0
  0   0   0   0   0   0   0   0   0   0   0   0   0   0   0   0   0   0   0   0   0   0   0   0
  0   0   0   0
  0   0   0   0   0   0   0   0   0   0   0   0   0   0   0   0   0   0   0   0   0   0   9   0
 43 141 143 126 126 122 128 131 130 133 128 123 121 121 130 139 136 134 127 125 126 116 113 114
127 144 130 110  93  80  70  67  55  41  35  23  15   9   5   1   0   0   0   0   0   0   0   0
  0   0   0   0   0   0   0   0   0   0   0   0   0   0   0   0   0   0   0   0   0   0   0   0
  0   0   0   0
  0   0   0   0   0   0   0   0   0   0   0   0   0   0   0   0   0   0   0   0   0   0   9   0
 41 136 137 121 124 121 123 131 138 133 132 135 131 120 120 122 119 114 112 111 118 125 130 125
119 144 144 122 102  81  71  67  58  44  35  27  18  12   7   3   0   0   0   0   0   0   0   0
  0   0   0   0   0   0   0   0   0   0   0   0   0   0   0   0   0   0   0   0   0   0   0   0
  0   0   0   0
  0   0   0   0   0   0   0   0   0   0   0   0   0   0   0   0   0   0   0   0   0   0   9   0
 43 136 131 120 122 120 120 130 133 125 121 121 125 123 121 113 112 116 116 115 118 130 135 133
130 144 147 124 115  88  76  75  62  49  38  28  21  14   9   4   1   0   0   0   0   0   0   0
  0   0   0   0   0   0   0   0   0   0   0   0   0   0   0   0   0   0   0   0   0   0   0   0
  0   0   0   0
  0   0   0   0   0   0   0   0   0   0   0   0   0   0   0   0   0   0   0   0   0   0   9   0
 45 134 126 117 123 126 127 131 131 120 121 122 123 124 128 120 115 122 120 115 114 116 126 130
131 140 143 126 121 108  84  78  64  53  42  31  27  20   9   5   2   0   0   0   0   0   0   0
  0   0   0   0   0   0   0   0   0   0   0   0   0   0   0   0   0   0   0   0   0   0   0   0
  0   0   0   0
  0   0   0   0   0   0   0   0   0   0   0   0   0   0   0   0   0   0   0   0   0   0   8   0
 42 128 125 120 122 129 137 137 135 123 120 121 119 119 118 116 120 125 120 110 108 110 120 122
128 141 139 129 116 121 110  83  72  61  45  38  35  23  12   8   3   0   0   0   0   0   0   0
  0   0   0   0   0   0   0   0   0   0   0   0   0   0   0   0   0   0   0   0   0   0   0   0
  0   0   0   0
  0   0   0   0   0   0   0   0   0   0   0   0   0   0   0   0   0   0   0   0   0   0   8   0
 41 127 131 125 125 129 131 135 138 131 123 122 124 124 125 127 125 125 129 121 118 123 117 124
136 139 137 136 122 126 132  98  78  69  54  49  35  20  15   9   4   1   0   0   0   0   0   0
  0   0   0   0   0   0   0   0   0   0   0   0   0   0   0   0   0   0   0   0   0   0   0   0
  0   0   0   0
  0   0   0   0   0   0   0   0   0   0   0   0   0   0   0   0   0   0   0   0   0   0   7   0
 40 124 127 127 123 122 122 121 127 135 131 126 129 132 130 134 137 127 121 125 127 125 120 124
131 136 124 126 131 134 145 120  82  75  65  51  32  25  17  11   6   2   0   0   0   0   0   0
  0   0   0   0   0   0   0   0   0   0   0   0   0   0   0   0   0   0   0   0   0   0   0   0
  0   0   0   0
  0   0   0   0   0   0   0   0   0   0   0   0   0   0   0   0   0   0   0   0   0   0   7   0
 38 119 125 125 123 122 123 125 127 124 126 124 123 129 119 116 129 127 117 115 118 113 109 117
126 139 130 130 146 136 147 147 107  90  71  42  34  28  18  13   7   3   1   0   0   0   0   0
  0   0   0   0   0   0   0   0   0   0   0   0   0   0   0   0   0   0   0   0   0   0   0   0
  0   0   0   0
  0   0   0   0   0   0   0   0   0   0   0   0   0   0   0   0   0   0   0   0   0   0   6   0
 36 117 126 123 125 127 126 130 133 123 119 119 118 123 124 117 116 123 126 120 114 114 109 112
130 146 140 131 142 141 134 144 130 104  81  54  41  33  23  16   9   4   1   0   0   0   0   0
  0   0   0   0   0   0   0   0   0   0   0   0   0   0   0   0   0   0   0   0   0   0   0   0
  0   0   0   0
  0   0   0   0   0   0   0   0   0   0   0   0   0   0   0   0   0   0   0   0   0   0   7   0
 37 120 127 125 131 127 128 126 126 126 121 123 121 123 128 121 116 123 127 124 121 112 111 119
131 136 133 132 135 148 135 122 119 100  78  56  46  36  27  18  11   5   2   0   0   0   0   0
  0   0   0   0   0   0   0   0   0   0   0   0   0   0   0   0   0   0   0   0   0   0   0   0
  0   0   0   0
  0   0   0   0   0   0   0   0   0   0   0   0   0   0   0   0   0   0   0   0   0   0   7   0
 34 122 131 126 131 132 129 121 117 120 122 121 127 126 118 121 123 126 138 129 117 116 116 117
130 142 139 137 135 145 145 136 127  98  71  58  44  34  26  17  12   6   3   1   0   0   0   0
  0   0   0   0   0   0   0   0   0   0   0   0   0   0   0   0   0   0   0   0   0   0   0   0
  0   0   0   0
  0   0   0   0   0   0   0   0   0   0   0   0   0   0   0   0   0   0   0   0   0   0   6   0
 35 118 127 129 128 131 130 125 120 121 123 124 118 116 116 116 128 132 137 135 121 126 130 131
138 150 145 135 136 145 149 141 128 100  76  63  50  36  27  20  12   7   3   1   0   0   0   0
  0   0   0   0   0   0   0   0   0   0   0   0   0   0   0   0   0   0   0   0   0   0   0   0
  0   0   0   0
  0   0   0   0   0   0   0   0   0   0   0   0   0   0   0   0   0   0   0   0   0   0   7   0
 36 119 125 128 130 123 125 125 127 132 129 123 117 119 117 112 118 125 129 144 137 132 141 152
154 150 140 138 149 154 140 132 127 103  76  60  53  40  31  23  12   8   3   1   0   0   0   0
  0   0   0   0   0   0   0   0   0   0   0   0   0   0   0   0   0   0   0   0   0   0   0   0
  0   0   0   0
  0   0   0   0   0   0   0   0   0   0   0   0   0   0   0   0   0   0   0   0   0   0   6   0
 34 120 127 123 128 129 124 127 132 138 131 126 127 126 121 121 128 127 125 132 141 140 142 152
159 154 139 135 147 152 134 120 119 104  91  61  52  41  35  25  13   8   4   1   0   0   0   0
  0   0   0   0   0   0   0   0   0   0   0   0   0   0   0   0   0   0   0   0   0   0   0   0
  0   0   0   0
  0   0   0   0   0   0   0   0   0   0   0   0   0   0   0   0   0   0   0   0   0   0   7   0
 39 125 131 128 128 131 133 133 135 131 125 130 139 128 118 122 129 129 130 131 136 150 153 153
149 143 137 133 136 142 140 128 114  99 103  81  54  45  39  25  14   9   4   1   0   0   0   0
  0   0   0   0   0   0   0   0   0   0   0   0   0   0   0   0   0   0   0   0   0   0   0   0
  0   0   0   0
  0   0   0   0   0   0   0   0   0   0   0   0   0   0   0   0   0   0   0   0   0   0   9   0
 41 139 147 139 140 143 137 131 130 132 127 122 133 132 116 115 120 119 123 135 144 155 155 145
136 139 141 138 128 130 135 135 130 101  93  90  72  53  36  24  14   9   5   1   0   0   0   0
  0   0   0   0   0   0   0   0   0   0   0   0   0   0   0   0   0   0   0   0   0   0   0   0
  0   0   0   0
  0   0   0   0   0   0   0   0   0   0   0   0   0   0   0   0   0   0   0   0   0   0   8   0
 39 136 150 143 139 137 131 130 124 125 127 126 127 131 124 121 125 123 126 138 148 150 146 140
133 138 144 144 132 132 134 125 126 104  82  83  82  68  42  27  16  10   5   2   0   0   0   0
  0   0   0   0   0   0   0   0   0   0   0   0   0   0   0   0   0   0   0   0   0   0   0   0
  0   0   0   0
  0   0   0   0   0   0   0   0   0   0   0   0   0   0   0   0   0   0   0   0   0   0   7   0
 37 128 142 140 133 131 128 128 133 131 120 127 134 133 133 133 129 127 134 138 152 151 144 149
144 139 147 150 143 142 141 133 124 110  88  86  78  72  49  29  17   9   5   2   0   0   0   0
  0   0   0   0   0   0   0   0   0   0   0   0   0   0   0   0   0   0   0   0   0   0   0   0
  0   0   0   0
  0   0   0   0   0   0   0   0   0   0   0   0   0   0   0   0   0   0   0   0   0   0   7   0
 36 126 137 138 141 139 133 132 139 141 131 128 128 128 129 133 128 127 126 129 153 155 143 152
155 141 143 149 145 149 145 142 136 111  98  87  71  64  47  32  14   9   5   2   0   0   0   0
  0   0   0   0   0   0   0   0   0   0   0   0   0   0   0   0   0   0   0   0   0   0   0   0
  0   0   0   0
  0   0   0   0   0   0   0   0   0   0   0   0   0   0   0   0   0   0   0   0   0   0   8   0
 39 128 135 137 144 148 142 139 143 140 140 143 137 135 134 131 136 139 138 134 137 141 144 151
154 153 148 151 141 147 147 136 139 112  97  91  73  60  48  35  14   9   5   2   0   0   0   0
  0   0   0   0   0   0   0   0   0   0   0   0   0   0   0   0   0   0   0   0   0   0   0   0
  0   0   0   0
  0   0   0   0   0   0   0   0   0   0   0   0   0   0   0   0   0   0   0   0   0   0   8   0
 38 131 139 134 139 149 154 150 142 140 144 146 148 147 151 149 141 143 150 146 147 151 145 147
156 158 166 162 149 146 145 134 136 122 101  91  71  54  47  35  16   9   5   2   0   0   0   0
  0   0   0   0   0   0   0   0   0   0   0   0   0   0   0   0   0   0   0   0   0   0   0   0
  0   0   0   0
  0   0   0   0   0   0   0   0   0   0   0   0   0   0   0   0   0   0   0   0   0   0   8   0
 38 133 142 136 140 142 144 146 140 138 137 132 133 137 136 144 146 141 142 141 146 163 159 150
162 159 161 168 160 154 152 140 130 119 106  89  65  54  45  29  17  11   5   3   0   0   0   0
  0   0   0   0   0   0   0   0   0   0   0   0   0   0   0   0   0   0   0   0   0   0   0   0
  0   0   0   0
  0   0   0   0   0   0   0   0   0   0   0   0   0   0   0   0   0   0   0   0   0   0   8   0
 40 134 143 137 140 140 139 142 137 134 132 126 120 126 127 126 138 140 134 134 137 145 157 169
171 168 146 158 175 163 149 148 137 117 115  99  67  61  47  26  17  11   5   3   0   0   0   0
  0   0   0   0   0   0   0   0   0   0   0   0   0   0   0   0   0   0   0   0   0   0   0   0
  0   0   0   0
  0   0   0   0   0   0   0   0   0   0   0   0   0   0   0   0   0   0   0   0   0   0   8   0
 40 136 144 141 143 141 146 150 136 131 134 131 124 127 135 130 129 136 135 130 138 150 147 158
173 169 157 150 174 175 156 156 149 126 118 102  65  59  43  25  17  10   6   3   0   0   0   0
  0   0   0   0   0   0   0   0   0   0   0   0   0   0   0   0   0   0   0   0   0   0   0   0
  0   0   0   0
  0   0   0   0   0   0   0   0   0   0   0   0   0   0   0   0   0   0   0   0   0   0   9   0
 41 137 145 142 145 147 147 153 146 135 131 134 135 130 132 137 137 128 132 124 127 149 147 139
162 171 163 151 151 164 165 154 137 128 120  98  63  50  42  25  16  12   7   2   0   0   0   0
  0   0   0   0   0   0   0   0   0   0   0   0   0   0   0   0   0   0   0   0   0   0   0   0
  0   0   0   0
  0   0   0   0   0   0   0   0   0   0   0   0   0   0   0   0   0   0   0   0   0   0   9   0
 40 141 150 146 149 146 140 141 143 140 132 129 136 137 140 140 136 124 124 127 122 139 141 139
152 161 160 163 153 147 147 141 133 127 116 103  68  50  44  24  16  16   7   1   0   0   0   0
  0   0   0   0   0   0   0   0   0   0   0   0   0   0   0   0   0   0   0   0   0   0   0   0
  0   0   0   0
  0   0   0   0   0   0   0   0   0   0   0   0   0   0   0   0   0   0   0   0   0   0   9   0
 42 136 144 141 147 147 143 143 141 140 139 133 136 139 141 141 135 129 131 138 135 135 135 146
158 163 164 170 166 149 137 135 141 128 114 108  75  50  40  22  21  16   4   0   0   0   0   0
  0   0   0   0   0   0   0   0   0   0   0   0   0   0   0   0   0   0   0   0   0   0   0   0
  0   0   0   0
  0   0   0   0   0   0   0   0   0   0   0   0   0   0   0   0   0   0   0   0   0   0  10   0
 46 143 146 140 143 147 152 152 150 147 146 146 149 147 138 137 140 135 138 143 147 149 154 153
164 168 168 166 164 150 137 137 146 138 120 103  84  60  47  31  24  11   2   0   0   0   0   0
  0   0   0   0   0   0   0   0   0   0   0   0   0   0   0   0   0   0   0   0   0   0   0   0
  0   0   0   0
  0   0   0   0   0   0   0   0   0   0   0   0   0   0   0   0   0   0   0   0   0   0   9   0
 41 146 155 148 149 148 151 153 151 143 138 139 142 141 136 129 133 141 136 146 149 142 140 140
154 169 174 160 157 150 143 151 146 143 138 104  81  60  53  46  21   5   2   0   0   0   0   0
  0   0   0   0   0   0   0   0   0   0   0   0   0   0   0   0   0   0   0   0   0   0   0   0
  0   0   0   0
  0   0   0   0   0   0   0   0   0   0   0   0   0   0   0   0   0   0   0   0   0   0  11   0
 44 152 158 152 149 142 142 141 143 143 138 133 141 150 144 141 148 151 134 144 155 142 137 143
151 164 167 151 146 146 136 143 142 131 138 107  57  48  47  41  14   5   1   0   0   0   0   0
  0   0   0   0   0   0   0   0   0   0   0   0   0   0   0   0   0   0   0   0   0   0   0   0
  0   0   0   0
  0   0   0   0   0   0   0   0   0   0   0   0   0   0   0   0   0   0   0   0   0   0  11   0
 47 152 157 154 154 148 148 142 141 144 139 132 128 138 146 147 155 157 144 136 142 143 146 152
161 169 179 171 148 137 134 128 126 116 114  90  44  39  37  18   8   5   0   1   0   0   0   0
  0   0   0   0   0   0   0   0   0   0   0   0   0   0   0   0   0   0   0   0   0   0   0   0
  0   0   0   0
  0   0   0   0   0   0   0   0   0   0   0   0   0   0   0   0   0   0   0   0   0   0   9   0
 43 144 151 148 154 153 156 153 149 144 139 143 141 136 142 142 148 156 151 143 138 147 145 148
161 170 181 180 166 139 130 131 118 103  87  69  43  31  26  12   7   1   0   0   0   0   0   0
  0   0   0   0   0   0   0   0   0   0   0   0   0   0   0   0   0   0   0   0   0   0   0   0
  0   0   0   0
  0   0   0   0   0   0   0   0   0   0   0   0   0   0   0   0   0   0   0   0   0   0  10   0
 44 146 152 148 151 147 148 153 151 148 145 142 142 146 145 138 141 148 142 144 143 144 151 159
166 169 168 166 161 147 129 118 110  91  68  60  40  33  29  13   2   0   0   0   0   0   0   0
  0   0   0   0   0   0   0   0   0   0   0   0   0   0   0   0   0   0   0   0   0   0   0   0
  0   0   0   0
  0   0   0   0   0   0   0   0   0   0   0   0   0   0   0   0   0   0   0   0   0   0   9   0
 40 145 153 151 155 148 147 144 140 139 139 137 134 134 146 150 148 152 142 133 143 152 155 165
168 169 170 165 155 156 146 112 105  88  71  56  34  27  17   5   0   0   0   0   0   0   0   0
  0   0   0   0   0   0   0   0   0   0   0   0   0   0   0   0   0   0   0   0   0   0   0   0
  0   0   0   0
  0   0   0   0   0   0   0   0   0   0   0   0   0   0   0   0   0   0   0   0   0   0   9   0
 41 143 157 156 157 154 151 143 138 133 133 135 142 141 149 165 165 168 160 149 152 161 165 172
170 166 166 159 153 137 123 115  99  72  63  37  19  12   3   1   0   0   0   0   0   0   0   0
  0   0   0   0   0   0   0   0   0   0   0   0   0   0   0   0   0   0   0   0   0   0   0   0
  0   0   0   0
  0   0   0   0   0   0   0   0   0   0   0   0   0   0   0   0   0   0   0   0   0   0  10   0
 46 147 159 157 149 148 149 146 144 142 146 140 140 152 156 165 166 171 160 161 165 162 166 178
181 174 167 160 148 122 110 105  80  57  36  17  15   5   2   0   0   0   0   0   0   0   0   0
  0   0   0   0   0   0   0   0   0   0   0   0   0   0   0   0   0   0   0   0   0   0   0   0
  0   0   0   0
  0   0   0   0   0   0   0   0   0   0   0   0   0   0   0   0   0   0   0   0   0   0  10   0
 45 145 154 150 148 145 144 145 144 141 145 147 145 149 155 163 165 165 155 148 153 156 167 178
173 168 165 154 133 117 109  86  58  42  23  17   9   3   0   0   0   0   0   0   0   0   0   0
  0   0   0   0   0   0   0   0   0   0   0   0   0   0   0   0   0   0   0   0   0   0   0   0
  0   0   0   0
  0   0   0   0   0   0   0   0   0   0   0   0   0   0   0   0   0   0   0   0   0   0  10   0
 40 149 157 144 145 147 151 156 153 150 147 150 158 157 162 165 166 159 150 145 137 137 162 169
147 142 148 130 105  93  75  45  31  27  17  10   4   1   0   0   0   0   0   0   0   0   0   0
  0   0   0   0   0   0   0   0   0   0   0   0   0   0   0   0   0   0   0   0   0   0   0   0
  0   0   0   0
  0   0   0   0   0   0   0   0   0   0   0   0   0   0   0   0   0   0   0   0   0   0  10   0
 40 151 162 151 150 150 160 162 157 156 154 150 154 154 145 141 142 144 142 143 142 142 144 138
128 111 102 100  97  74  47  31  27  21  11   6   2   0   0   0   0   0   0   0   0   0   0   0
  0   0   0   0   0   0   0   0   0   0   0   0   0   0   0   0   0   0   0   0   0   0   0   0
  0   0   0   0
  0   0   0   0   0   0   0   0   0   0   0   0   0   0   0   0   0   0   0   0   0   0  10   0
 39 153 170 159 153 146 151 152 146 143 145 150 148 144 136 126 124 137 140 130 130 130 129 121
109  93  80  79  84  64  37  28  21  12   8   4   0   0   0   0   0   0   0   0   0   0   0   0
  0   0   0   0   0   0   0   0   0   0   0   0   0   0   0   0   0   0   0   0   0   0   0   0
  0   0   0   0
  0   0   0   0   0   0   0   0   0   0   0   0   0   0   0   0   0   0   0   0   0   0  11   0
 41 156 173 162 160 155 156 149 140 143 138 144 139 135 140 137 128 126 129 119 114 110 114 103
 85  75  62  57  54  46  34  24  17   9   6   2   0   0   0   0   0   0   0   0   0   0   0   0
  0   0   0   0   0   0   0   0   0   0   0   0   0   0   0   0   0   0   0   0   0   0   0   0
  0   0   0   0
  0   0   0   0   0   0   0   0   0   0   0   0   0   0   0   0   0   0   0   0   0   0  10   0
 44 152 164 156 157 158 156 153 148 148 139 125 120 120 129 125 123 122 125 115 109 106  95  86
 74  67  58  48  38  28  21  14  10  10   5   0   0   0   0   0   0   0   0   0   0   0   0   0
  0   0   0   0   0   0   0   0   0   0   0   0   0   0   0   0   0   0   0   0   0   0   0   0
  0   0   0   0
  0   0   0   0   0   0   0   0   0   0   0   0   0   0   0   0   0   0   0   0   0   0   9   0
 38 145 156 145 140 141 140 137 143 151 141 124 119 113 112 104 109 115 119 124 114  98  80  72
 60  49  40  32  26  24  17   9   7   9   2   0   0   0   0   0   0   0   0   0   0   0   0   0
  0   0   0   0   0   0   0   0   0   0   0   0   0   0   0   0   0   0   0   0   0   0   0   0
  0   0   0   0
  0   0   0   0   0   0   0   0   0   0   0   0   0   0   0   0   0   0   0   0   0   0   8   0
 39 137 149 142 138 138 135 138 137 130 125 128 124 122 113 110 112 112 106 105 101  90  74  56
 44  38  31  27  20  15  11   7   5   2   0   0   0   0   0   0   0   0   0   0   0   0   0   0
  0   0   0   0   0   0   0   0   0   0   0   0   0   0   0   0   0   0   0   0   0   0   0   0
  0   0   0   0
  0   0   0   0   0   0   0   0   0   0   0   0   0   0   0   0   0   0   0   0   0   0   8   0
 38 131 141 139 137 134 134 136 125 116 115 113 113 116 107 108 111 105  92  70  63  67  66  59
 45  36  28  23  17  11   6   5   3   0   0   0   0   0   0   0   0   0   0   0   0   0   0   0
  0   0   0   0   0   0   0   0   0   0   0   0   0   0   0   0   0   0   0   0   0   0   0   0
  0   0   0   0
  0   0   0   0   0   0   0   0   0   0   0   0   0   0   0   0   0   0   0   0   0   0   7   0
 36 125 132 126 128 125 126 122 112 114 113 103  94  92  98  98  94  82  79  71  55  45  43  41
 39  30  25  21  14   8   5   3   1   1   0   0   0   0   0   0   0   0   0   0   0   0   0   0
  0   0   0   0   0   0   0   0   0   0   0   0   0   0   0   0   0   0   0   0   0   0   0   0
  0   0   0   0
  0   0   0   0   0   0   0   0   0   0   0   0   0   0   0   0   0   0   0   0   0   0   6   0
 32 117 124 114 111 118 119 114 107 102  98 100  99  95  92  87  80  62  59  61  54  41  34  27
 24  21  18  14   9   6   4   0   1   1   0   0   0   0   0   0   0   0   0   0   0   0   0   1
  1   0   0   0   0   0   0   0   0   0   0   0   0   0   0   0   0   0   0   0   0   0   0   0
  0   0   0   0
  0   0   0   0   0   0   0   0   0   0   0   0   0   0   0   0   0   0   0   0   0   0   6   0
 30 113 121 109 104 101 101 107 106 100  91  87  91  93  79  67  67  55  48  44  44  37  30  25
 20  15  12   9   6   4   1   0   0   0   0   0   0   0   0   0   0   0   0   0   0   0   0   0
  0   1   0   0   0   0   0   0   0   0   0   0   0   0   0   0   0   0   0   0   0   0   0   0
  0   0   0   0
  0   0   0   0   0   0   0   0   0   0   0   0   0   0   0   0   0   0   0   0   0   0   6   0
 29 120 123 102  98  94  91  92  99  95  88  77  72  69  61  61  59  50  44  36  32  28  22  19
 15  12   8   6   3   1   0   0   0   0   0   0   0   0   0   0   0   0   0   0   0   2   0  36
 38   0   3   0   0   0   0   0   0   0   0   0   0   0   0   0   0   0   0   0   0   0   0   0
  0   0   0   0
  0   0   0   0   0   0   0   0   0   0   0   0   0   0   0   0   0   0   0   0   0   0   5   0
 29 110 123 106  90  87  85  81  79  83  84  70  60  55  51  48  49  43  37  30  27  23  17  15
 12   9   6   5   1   0   0   0   0   0   0   0   0   0   0   0   0   0   0   0   0   3  10  35
 35   0   2   0   0   0   0   0   0   0   0   0   0   0   0   0   0   0   0   0   0   0   0   0
  0   0   0   0
  0   0   0   0   0   0   0   0   0   0   0   0   0   0   0   0   0   0   0   0   0   0   4   0
 30  95 101  97  85  76  71  72  66  58  58  60  50  46  45  42  38  35  32  24  22  19  15  12
  9   6   4   2   0   0   0   0   0   0   0   0   0   0   0   0   0   0   0   0   0   0   1   0
  0   1   0   0   0   0   0   0   0   0   0   0   0   0   0   0   0   0   0   0   0   0   0   0
  0   0   0   0
  0   0   0   0   0   0   0   0   0   0   0   0   0   0   0   0   0   0   0   0   0   0   3   0
 25  84  81  72  73  68  64  62  55  50  45  46  43  36  35  34  28  28  24  18  17  12   9   7
  5   3   2   0   0   0   0   0   0   0   0   0   0   0   0   0   0   0   0   0   0   0   0   1
  2   0   0   0   0   0   0   0   0   0   0   0   0   0   0   0   0   0   0   0   0   0   0   0
  0   0   0   0
