P2
# 8-bit pgm gray
100 100
255
  0   0   0   0   0   0   0   0   0   0   0   0   0   0   0   8   0   0 170 207 193 188 181 161
143 138 130 123 120 114 108 101  94  85  72  62  54  46  37  29  23  17  14  11   8   8   8   8
  8   8   8   7   8   8   7   7   7   8   8   8   8   8   8   9  10  12   9   0  89 113  67   0
 17  10   8   7  13  10   7   8   9   6   0   0   0   0   0   0   0   0   0   0   0   0   0   0
  0   0   0   0
  0   0   0   0   0   0   0   0   0   0   0   0   0   0   0   8   0   0 170 206 188 184 175 150
137 137 131 126 123 113 105 103  96  88  78  67  57  47  38  32  23  19  14  12   8   7   8   7
  7   7   7   7   7   7   6   6   7   7   7   7   7   7   7   9   8  26   0 110 169 154 173  53
  0  21   7   7  10   9   7   8   8   6   0   0   0   0   0   0   0   0   0   0   0   0   0   0
  0   0   0   0
  0   0   0   0   0   0   0   0   0   0   0   0   0   0   0   8   0   0 170 206 187 182 170 147
137 134 129 125 121 112 107 102  95  90  85  74  61  52  44  34  26  20  15  12   9   6   7   6
  6   7   7   6   6   6   6   6   7   7   7   7   7   7   7  10   7  27   0 130 162 151 146  50
  0  18   7   7   6   7   7   7   8   6   0   0   0   0   0   0   0   0   0   0   0   0   0   0
  0   0   0   0
  0   0   0   0   0   0   0   0   0   0   0   0   0   0   0   8   0   0 169 205 189 183 166 145
140 135 129 123 117 112 108 105  98  91  86  77  65  56  46  37  29  22  17  13  10   7   6   6
  6   6   6   6   6   6   5   5   6   6   6   7   7   7   7   9   8  21   0  67 170 182  66   0
 24   7   7   6   7   7   7   7   8   5   0   0   0   0   0   0   0   0   0   0   0   0   0   0
  0   0   0   0
  0   0   0   0   0   0   0   0   0   0   0   0   0   0   0   7   0   0 166 201 186 182 163 143
139 134 127 124 119 114 111 107 102  96  91  81  69  59  50  40  32  24  19  14  11   8   6   6
  6   6   6   6   6   5   5   5   6   6   6   7  10   6   6   8   9   9  16   0  70  90  23   3
 13   8   7   6   6   7   7   7   8   5   0   0   0   0   0   0   0   0   0   0   0   0   0   0
  0   0   0   0
  0   0   0   0   0   0   0   0   0   0   0   0   0   0   0   7   0   0 165 198 181 175 157 141
137 132 126 123 121 116 112 109 103  98  91  82  75  65  54  44  35  27  20  16  12  10   6   5
  5   6   5   5   5   5   5   5   5   6   6   6   6   6   6   7   8   8   8  21   0   0  11  13
 11  10   6   6   6   6   6   7   8   5   0   0   0   0   0   0   0   0   0   0   0   0   0   0
  0   0   0   0
  0   0   0   0   0   0   0   0   0   0   0   0   0   0   0   7   0   0 165 197 180 170 149 139
138 133 130 126 122 117 113 108 104 101  94  84  79  71  59  48  39  31  23  17  14  11   8   7
  6   5   5   4   5   5   4   4   5   5   5   5   5   6   5   6   9   9   8   7  23  27  12   7
  0   3   6   6   6   6   7   7   8   5   0   0   0   0   0   0   0   0   0   0   0   0   0   0
  0   0   0   0
  0   0   0   0   0   0   0   0   0   0   0   0   0   0   0   7   0   0 163 194 177 167 146 137
137 133 130 129 124 120 117 111 106 104  96  90  81  72  62  52  43  33  26  20  15  12  10   7
  6   5   5   4   4   4   4   4   5   5   5   5   5   5   5   5   8   8   8  10   7   7   4   0
 19   7   3   6   6   6   7   7   8   5   0   0   0   0   0   0   0   0   0   0   0   0   0   0
  0   0   0   0
  0   0   0   0   0   0   0   0   0   0   0   0   0   0   0   7   0   0 163 193 174 160 145 138
134 130 128 131 128 119 117 114 109 105  98  93  86  76  65  56  47  38  30  23  18  14  11   7
  4   5   4   4   4   4   4   4   4   5   5   5   5   5   5   6   1   6   6   4  12   7  12  54
 60  63  18   0   9   6   7   7   7   5   0   0   0   0   0   0   0   0   0   0   0   0   0   0
  0   0   0   0
  0   0   0   0   0   0   0   0   0   0   0   0   0   0   0   7   0   0 161 193 173 155 144 138
134 131 127 128 129 125 119 113 109 106 102  95  89  79  70  60  51  43  34  26  20  16  12   9
  6   4   4   4   4   4   4   4   4   5   4   5   5   5   5   4  20   5   6  19   3   0  51  65
  0  68  31   0  12   5   6   7   7   5   0   0   0   0   0   0   0   0   0   0   0   0   0   0
  0   0   0   0
  0   0   0   0   0   0   0   0   0   0   0   0   0   0   0   7   0   0 159 190 171 156 141 138
134 131 128 128 127 127 125 117 111 110 104  98  93  83  74  66  57  47  38  31  24  19  14  11
  8   5   4   4   4   4   4   4   4   4   4   5   5   5   4   3  38  13  46  44  23  13  38  70
 56  75  27   0  10   5   6   6   6   4   0   0   0   0   0   0   0   0   0   0   0   0   0   0
  0   0   0   0
  0   0   0   0   0   0   0   0   0   0   0   0   0   0   0   7   0   0 158 188 166 152 142 139
135 130 127 128 128 123 123 124 117 111 108 101  93  88  80  72  62  53  44  36  27  22  17  12
 10   7   4   4   4   4   4   4   4   4   4   4   5   5   5   2  39  40  54  54  47  49   0  66
 79  73  27   0   9   5   6   5   6   4   0   0   0   0   0   0   0   0   0   0   0   0   0   0
  0   0   0   0
  0   0   0   0   0   0   0   0   0   0   0   0   0   0   0   7   0   0 157 186 164 152 143 140
137 131 129 127 128 125 121 122 121 116 111 105  98  94  87  77  68  59  50  42  35  27  20  15
 12   9   6   4   4   4   4   4   4   4   4   4   4   5   5   1  40  44  41  55  45  41  35  60
 22  60  25   0   9   5   5   5   6   4   0   0   0   0   0   0   0   0   0   0   0   0   0   0
  0   0   0   0
  0   0   0   0   0   0   0   0   0   0   0   0   0   0   0   7   0   0 156 186 162 150 143 141
136 133 131 128 125 124 124 120 119 121 115 107 105 102  92  83  74  64  55  47  41  31  24  19
 14  11   9   5   4   4   4   4   4   4   4   4   4   4   4   4  26  28  45  36  42  29  35  41
  6  46  14   0   7   5   5   5   6   4   0   0   0   0   0   0   0   0   0   0   0   0   0   0
  0   0   0   0
  0   0   0   0   0   0   0   0   0   0   0   0   0   0   0   6   0   0 153 183 161 151 145 142
138 134 130 130 127 126 126 121 119 120 119 111 108 104  97  89  82  69  59  51  43  36  29  22
 17  13  10   7   4   4   4   4   4   4   3   3   3   3   3   4   3   2   7   1   6   4   5   1
  5   2   5   5   5   5   5   5   6   4   0   0   0   0   0   0   0   0   0   0   0   0   0   0
  0   0   0   0
  0   0   0   0   0   0   0   0   0   0   0   0   0   0   0   6   0   0 150 179 158 152 148 144
142 138 135 133 131 129 126 125 125 123 120 117 111 104 100  94  87  77  66  57  49  41  33  26
 20  16  12  10   6   3   3   4   4   4   3   3   3   4   4   3   3   4   2   4   3   4   4   5
  5   4   4   4   4   4   5   5   6   4   0   0   0   0   0   0   0   0   0   0   0   0   0   0
  0   0   0   0
  0   0   0   0   0   0   0   0   0   0   0   0   0   0   0   6   0   0 152 180 154 148 150 147
141 137 136 133 131 128 126 126 128 123 121 122 114 107 101  98  92  82  75  65  56  47  39  30
 24  20  15  11   9   5   3   3   4   3   3   3   3   3   3   3   3   4   4   4   4   4   4   4
  4   5   4   4   4   4   4   5   5   3   0   0   0   0   0   0   0   0   0   0   0   0   0   0
  0   0   0   0
  0   0   0   0   0   0   0   0   0   0   0   0   0   0   0   6   0   0 151 177 153 150 146 147
145 137 134 132 131 129 127 128 129 125 122 121 116 112 106 101  96  88  80  72  63  55  46  37
 31  26  20  15  11   8   4   3   3   3   3   3   3   3   3   3   3   4   4   3   4   4   4   4
  5   4   4   4   4   5   4   5   5   3   0   0   0   0   0   0   0   0   0   0   0   0   0   0
  0   0   0   0
  0   0   0   0   0   0   0   0   0   0   0   0   0   0   0   6   0   0 151 174 151 151 146 144
146 144 138 134 132 129 130 131 130 128 124 120 117 114 113 109 102  91  84  76  69  61  54  48
 38  30  24  18  14  10   7   3   3   3   3   3   3   3   3   3   3   3   3   3   4   4   4   4
  6   5   4   4   4   4   5   5   5   3   0   0   0   0   0   0   0   0   0   0   0   0   0   0
  0   0   0   0
  0   0   0   0   0   0   0   0   0   0   0   0   0   0   0   6   0   0 152 175 152 148 145 143
140 141 144 142 136 130 133 132 132 130 126 125 121 117 114 114 111  97  89  82  75  69  61  54
 44  36  29  21  16  12  10   6   3   3   3   3   3   3   3   3   3   3   3   3   3   4   4   4
  4   4   4   4   4   4   4   5   5   4   0   0   0   0   0   0   0   0   0   0   0   0   0   0
  0   0   0   0
  0   0   0   0   0   0   0   0   0   0   0   0   0   0   0   6   0   0 148 174 153 150 146 144
143 141 142 141 138 134 135 129 131 130 127 127 125 122 120 118 115 104  94  86  80  76  68  57
 48  41  33  26  20  15  11   8   4   3   3   3   3   3   3   3   3   3   3   3   3   4   3   3
  5   5   3   4   4   4   5   5   5   4   0   0   0   0   0   0   0   0   0   0   0   0   0   0
  0   0   0   0
  0   0   0   0   0   0   0   0   0   0   0   0   0   0   0   6   0   0 143 171 158 150 147 148
146 144 143 139 136 137 139 135 134 128 126 127 130 127 126 123 117 110 101  93  86  81  74  65
 56  48  40  32  24  18  14  10   7   3   3   3   3   3   3   3   3   3   3   3   3   3   3   3
  4   4   3   4   4   4   6   6   5   4   0   0   0   0   0   0   0   0   0   0   0   0   0   0
  0   0   0   0
  0   0   0   0   0   0   0   0   0   0   0   0   0   0   0   5   0   0 142 165 156 156 146 147
146 143 144 140 140 140 140 140 140 135 133 135 135 132 130 126 120 115 107  99  94  89  80  72
 65  55  46  38  30  23  17  13   9   6   3   2   3   3   3   3   2   2   3   3   3   3   3   3
  3   3   4   4   4   4   4   5   5   4   0   0   0   0   0   0   0   0   0   0   0   0   0   0
  0   0   0   0
  0   0   0   0   0   0   0   0   0   0   0   0   0   0   0   5   0   0 137 161 149 158 154 148
147 144 145 144 142 138 139 136 137 139 138 135 134 133 130 132 125 121 114 105  99  94  89  81
 72  66  57  46  36  29  23  16  11   9   5   2   3   2   3   3   3   2   2   2   3   3   3   3
  3   4   4   4   4   4   4   4   5   3   0   0   0   0   0   0   0   0   0   0   0   0   0   0
  0   0   0   0
  0   0   0   0   0   0   0   0   0   0   0   0   0   0   0   5   0   0 137 161 149 151 156 155
152 149 144 143 141 140 140 137 133 133 135 135 135 136 134 132 128 125 119 113 104  98  94  86
 79  72  65  55  43  36  29  20  15  11   8   4   2   2   2   3   3   2   2   2   3   3   3   3
  3   4   4   4   4   4   5   5   5   3   0   0   0   0   0   0   0   0   0   0   0   0   0   0
  0   0   0   0
  0   0   0   0   0   0   0   0   0   0   0   0   0   0   0   5   0   0 136 161 151 151 150 156
156 148 145 146 141 140 139 137 135 134 135 135 135 136 137 134 131 130 127 117 111 107 101  92
 87  78  69  62  55  45  35  27  20  15  10   7   3   2   2   3   3   3   2   2   3   3   3   3
  3   4   4   4   4   4   5   5   4   3   0   0   0   0   0   0   0   0   0   0   0   0   0   0
  0   0   0   0
  0   0   0   0   0   0   0   0   0   0   0   0   0   0   0   5   0   0 137 163 152 152 150 151
155 153 148 145 143 142 140 139 139 138 139 139 137 140 137 136 137 134 131 126 118 114 106  99
 93  86  80  73  66  55  41  33  25  19  13  10   6   2   3   3   3   2   2   2   3   3   3   3
  3   4   4   4   4   4   4   4   4   3   0   0   0   0   0   0   0   0   0   0   0   0   0   0
  0   0   0   0
  0   0   0   0   0   0   0   0   0   0   0   0   0   0   0   5   0   0 141 169 159 158 155 150
153 155 152 151 145 142 142 140 139 141 140 140 138 139 140 136 134 136 132 130 128 124 118 109
102  95  92  86  72  60  49  40  31  24  17  12   9   4   2   3   3   2   2   2   2   3   3   3
  3   4   3   4   4   4   4   4   5   3   0   0   0   0   0   0   0   0   0   0   0   0   0   0
  0   0   0   0
  0   0   0   0   0   0   0   0   0   0   0   0   0   0   0   5   0   0 140 169 160 161 160 158
156 154 149 149 149 144 143 141 142 142 139 141 143 142 142 138 134 136 133 130 130 129 125 119
114 111 104  97  82  66  58  48  38  31  21  15  11   7   3   2   3   2   2   3   3   3   3   3
  4   4   3   3   3   3   4   4   5   3   0   0   0   0   0   0   0   0   0   0   0   0   0   0
  0   0   0   0
  0   0   0   0   0   0   0   0   0   0   0   0   0   0   0   5   0   0 134 166 161 159 156 159
156 153 150 145 146 147 147 146 147 150 147 145 148 147 142 142 141 139 134 132 134 135 131 123
120 116 106 104  93  75  65  57  48  37  28  21  14  10   5   2   2   2   2   2   3   3   3   3
  4   3   3   3   3   3   4   4   5   3   0   0   0   0   0   0   0   0   0   0   0   0   0   0
  0   0   0   0
  0   0   0   0   0   0   0   0   0   0   0   0   0   0   0   5   0   0 132 162 159 162 155 160
160 152 150 148 146 144 146 146 148 151 147 144 143 146 149 147 145 141 135 135 133 133 133 133
128 121 113 109 101  87  77  66  56  47  35  26  19  13   9   4   2   3   2   2   3   3   3   3
  3   3   3   3   3   4   4   4   5   3   0   0   0   0   0   0   0   0   0   0   0   0   0   0
  0   0   0   0
  0   0   0   0   0   0   0   0   0   0   0   0   0   0   0   5   0   0 137 169 161 161 162 162
160 159 156 154 154 150 149 149 145 144 144 143 141 143 145 146 150 144 138 135 135 135 134 135
131 128 122 113 103  94  86  74  64  53  43  33  24  18  12   7   2   2   3   2   2   3   3   3
  3   3   3   4   3   4   4   4   5   4   0   0   0   0   0   0   0   0   0   0   0   0   0   0
  0   0   0   0
  0   0   0   0   0   0   0   0   0   0   0   0   0   0   0   5   0   0 138 169 161 161 162 161
159 160 161 156 154 151 151 151 148 146 147 147 147 148 146 146 148 148 146 139 136 138 137 133
132 128 122 114 106 100  94  82  71  63  53  40  30  22  15  11   5   2   3   2   2   3   3   2
  3   3   3   4   3   4   4   4   6   5   0   0   0   0   0   0   0   0   0   0   0   0   0   0
  0   0   0   0
  0   0   0   0   0   0   0   0   0   0   0   0   0   0   0   5   0   0 138 166 156 161 160 158
158 160 158 155 153 152 151 149 148 149 149 148 151 152 150 148 144 143 146 148 148 146 140 135
131 125 122 118 113 106  99  90  80  72  61  48  38  28  19  13   9   3   2   2   3   3   3   2
  3   3   3   3   3   4   4   4   4   3   0   0   0   0   0   0   0   0   0   0   0   0   0   0
  0   0   0   0
  0   0   0   0   0   0   0   0   0   0   0   0   0   0   0   5   0   0 135 168 158 157 155 154
155 159 162 164 162 157 155 152 149 146 147 148 150 153 152 144 141 139 138 143 152 155 150 141
131 133 127 123 118 113 105  95  89  81  70  58  46  35  24  16  12   6   2   3   3   2   2   3
  3   3   3   3   3   4   4   4   4   3   0   0   0   0   0   0   0   0   0   0   0   0   0   0
  0   0   0   0
  0   0   0   0   0   0   0   0   0   0   0   0   0   0   0   5   0   0 136 170 161 158 157 155
154 158 161 159 156 156 156 153 149 147 148 145 148 160 160 150 147 144 140 141 145 145 148 146
138 135 128 123 119 116 108 102  98  90  80  67  55  44  32  21  14  10   4   3   3   2   2   3
  3   3   3   3   3   4   3   4   4   2   0   0   0   0   0   0   0   0   0   0   0   0   0   0
  0   0   0   0
  0   0   0   0   0   0   0   0   0   0   0   0   0   0   0   5   0   0 139 172 162 159 157 156
157 156 156 155 155 158 155 152 150 149 148 147 153 158 155 158 157 151 149 146 142 143 139 144
147 138 133 127 121 119 113 109 103  97  90  77  64  52  41  29  18  13   7   2   3   3   3   3
  3   3   3   3   3   3   3   4   4   3   0   0   0   0   0   0   0   0   0   0   0   0   0   0
  0   0   0   0
  0   0   0   0   0   0   0   0   0   0   0   0   0   0   0   5   0   0 135 169 163 163 159 159
160 156 154 155 152 153 156 153 152 151 151 153 152 154 153 158 161 156 153 149 147 149 146 148
155 138 133 131 125 122 117 115 111 104  96  91  75  60  47  35  25  16  10   3   3   3   3   3
  3   3   3   3   3   3   4   4   4   3   0   0   0   0   0   0   0   0   0   0   0   0   0   0
  0   0   0   0
  0   0   0   0   0   0   0   0   0   0   0   0   0   0   0   5   0   0 137 170 164 165 165 166
160 156 154 152 148 153 155 155 156 157 157 156 152 153 155 154 157 158 154 146 148 155 156 149
143 141 134 130 126 127 122 118 118 115 106  95  84  73  58  43  32  21  13   6   3   3   3   3
  3   3   3   3   3   3   3   4   4   3   0   0   0   0   0   0   0   0   0   0   0   0   0   0
  0   0   0   0
  0   0   0   0   0   0   0   0   0   0   0   0   0   0   0   5   0   0 139 172 164 161 160 163
165 163 165 163 164 163 160 161 162 166 166 157 154 157 161 160 159 159 159 156 157 160 154 153
147 148 152 148 146 138 127 124 122 119 114 104  94  84  72  52  37  26  16  10   4   3   3   2
  2   2   3   3   3   3   4   4   4   3   0   0   0   0   0   0   0   0   0   0   0   0   0   0
  0   0   0   0
  0   0   0   0   0   0   0   0   0   0   0   0   0   0   0   5   0   0 140 170 163 166 163 162
165 168 166 165 168 164 162 161 164 169 173 168 164 167 169 166 166 163 162 166 163 160 156 157
161 164 165 162 155 146 137 131 119 113 112 110 103  90  76  59  46  33  21  13   6   2   3   2
  2   3   2   3   3   3   3   4   4   3   0   0   0   0   0   0   0   0   0   0   0   0   0   0
  0   0   0   0
  0   0   0   0   0   0   0   0   0   0   0   0   0   0   0   5   0   0 139 170 160 163 162 164
164 161 159 161 163 161 159 161 161 157 158 163 166 167 167 161 160 164 166 165 162 162 158 154
152 161 158 154 156 152 139 124 116 114 114 113 107  97  83  69  53  39  26  17   9   3   3   3
  2   3   3   3   3   3   3   4   4   3   0   0   0   0   0   0   0   0   0   0   0   0   0   0
  0   0   0   0
  0   0   0   0   0   0   0   0   0   0   0   0   0   0   0   5   0   0 138 171 161 161 161 163
165 160 158 158 162 162 162 162 161 160 160 159 162 166 167 161 156 159 164 162 159 162 161 150
151 157 156 156 158 150 139 125 121 119 118 117 112 106  91  75  63  47  34  22  12   5   2   2
  3   3   3   3   3   3   4   4   4   3   0   0   0   0   0   0   0   0   0   0   0   0   0   0
  0   0   0   0
  0   0   0   0   0   0   0   0   0   0   0   0   0   0   0   5   0   0 143 174 160 158 161 161
159 158 159 157 161 162 160 159 159 161 167 171 169 167 165 165 166 165 165 162 152 152 160 157
161 164 162 161 166 152 142 133 125 123 123 119 116 112  99  83  71  55  41  27  15   7   2   2
  3   3   3   3   3   3   4   4   4   3   0   0   0   0   0   0   0   0   0   0   0   0   0   0
  0   0   0   0
  0   0   0   0   0   0   0   0   0   0   0   0   0   0   0   5   0   0 140 175 166 165 163 162
161 158 159 158 158 160 157 159 160 158 165 175 175 169 165 167 166 166 165 161 151 141 147 154
156 160 165 162 165 161 152 147 138 134 127 122 120 112 104  91  78  64  44  32  19  11   3   3
  3   3   3   3   3   3   3   4   4   2   0   0   0   0   0   0   0   0   0   0   0   0   0   0
  0   0   0   0
  0   0   0   0   0   0   0   0   0   0   0   0   0   0   0   5   0   0 139 171 164 166 165 166
163 160 159 155 153 157 157 158 162 163 158 162 170 173 170 168 162 160 159 159 157 148 143 152
155 155 158 161 160 160 162 159 147 137 135 127 121 118 113  99  88  71  52  39  24  14   5   2
  3   3   3   3   3   3   4   4   4   2   0   0   0   0   0   0   0   0   0   0   0   0   0   0
  0   0   0   0
  0   0   0   0   0   0   0   0   0   0   0   0   0   0   0   5   0   0 139 173 164 168 169 166
162 161 158 155 155 160 163 161 161 168 163 161 163 168 171 165 167 166 158 157 157 157 154 155
154 152 150 151 150 144 150 155 155 145 140 133 125 124 122 110  94  77  60  44  30  16   7   2
  3   3   3   3   3   4   4   4   4   2   0   0   0   0   0   0   0   0   0   0   0   0   0   0
  0   0   0   0
  0   0   0   0   0   0   0   0   0   0   0   0   0   0   0   5   0   0 141 176 172 173 173 171
170 165 163 163 161 164 168 169 170 170 164 162 164 159 164 170 172 176 166 164 166 164 166 160
154 152 154 152 149 138 141 147 152 155 142 129 123 122 119 110  95  82  67  49  33  19  11   3
  3   3   3   4   3   3   4   4   4   2   0   0   0   0   0   0   0   0   0   0   0   0   0   0
  0   0   0   0
  0   0   0   0   0   0   0   0   0   0   0   0   0   0   0   6   0   0 149 181 173 172 175 179
177 172 166 167 169 168 167 169 175 173 170 170 170 168 165 169 180 181 178 179 177 162 158 161
159 161 165 161 158 147 144 141 141 157 151 138 128 122 119 110 100  86  70  55  37  22  14   4
  3   3   4   4   3   4   4   4   4   2   0   0   0   0   0   0   0   0   0   0   0   0   0   0
  0   0   0   0
  0   0   0   0   0   0   0   0   0   0   0   0   0   0   0   5   0   0 144 179 172 174 175 174
171 168 165 167 170 165 163 161 164 166 168 173 181 184 182 175 178 179 175 173 173 170 163 153
155 161 161 164 169 164 150 145 148 154 158 153 138 125 121 112 103  88  73  62  44  25  16   6
  3   4   4   3   3   4   4   4   4   2   0   0   0   0   0   0   0   0   0   0   0   0   0   0
  0   0   0   0
  0   0   0   0   0   0   0   0   0   0   0   0   0   0   0   6   0   0 145 179 172 174 172 173
173 171 169 171 169 164 163 161 160 161 162 164 176 183 185 183 176 174 173 174 174 172 175 164
155 158 158 165 171 165 153 145 145 148 149 155 153 144 129 119 109  97  83  67  48  29  18   8
  2   4   4   3   3   4   4   4   4   2   0   0   0   0   0   0   0   0   0   0   0   0   0   0
  0   0   0   0
  0   0   0   0   0   0   0   0   0   0   0   0   0   0   0   6   0   0 147 183 174 176 174 175
177 175 175 177 172 171 171 171 173 173 173 171 180 182 182 188 189 182 175 173 171 167 174 179
169 168 163 163 166 160 151 150 146 149 149 156 160 149 132 124 118 107  92  69  49  32  20  10
  3   3   3   3   3   3   3   3   3   2   0   0   0   0   0   0   0   0   0   0   0   0   0   0
  0   0   0   0
  0   0   0   0   0   0   0   0   0   0   0   0   0   0   0   6   0   0 146 181 172 172 173 174
176 175 182 179 175 176 176 175 175 177 178 181 187 183 179 180 183 182 174 168 163 160 163 168
169 165 158 159 161 163 157 154 159 159 159 153 145 137 135 123 115 103  91  71  54  35  21  12
  3   3   3   3   3   3   3   3   3   2   0   0   0   0   0   0   0   0   0   0   0   0   0   0
  0   0   0   0
  0   0   0   0   0   0   0   0   0   0   0   0   0   0   0   5   0   0 145 181 172 172 171 172
174 174 173 169 170 175 177 177 176 179 183 179 174 173 174 173 172 176 175 172 167 163 163 162
171 167 157 160 163 163 163 159 156 163 163 152 139 131 125 117 111  99  85  69  57  37  21  12
  3   2   3   3   3   3   3   3   3   2   0   0   0   0   0   0   0   0   0   0   0   0   0   0
  0   0   0   0
  0   0   0   0   0   0   0   0   0   0   0   0   0   0   0   5   0   0 146 184 180 183 180 177
173 170 171 173 173 170 169 169 171 174 177 169 165 167 166 168 172 173 173 172 173 171 166 165
168 171 165 160 161 164 168 162 151 163 170 158 139 129 116 112 108  98  85  71  57  40  20  12
  4   3   3   3   3   3   3   3   3   2   0   0   0   0   0   0   0   0   0   0   0   0   0   0
  0   0   0   0
  0   0   0   0   0   0   0   0   0   0   0   0   0   0   0   6   0   0 151 186 177 178 177 173
169 169 169 166 166 164 163 161 163 169 169 166 166 168 167 170 172 170 169 171 171 165 159 158
161 166 165 167 167 157 164 165 151 157 163 151 140 133 117 110 107  98  85  72  55  41  22  11
  4   2   3   3   3   3   3   3   3   2   0   0   0   0   0   0   0   0   0   0   0   0   0   0
  0   0   0   0
  0   0   0   0   0   0   0   0   0   0   0   0   0   0   0   6   0   0 149 183 172 171 173 175
171 166 163 160 163 168 170 168 164 166 165 162 163 165 166 171 172 171 168 171 177 166 158 151
152 161 170 174 169 163 166 166 159 160 155 148 144 139 119 116 111  99  85  70  54  39  23  12
  4   2   3   3   3   3   3   4   3   2   0   0   0   0   0   0   0   0   0   0   0   0   0   0
  0   0   0   0
  0   0   0   0   0   0   0   0   0   0   0   0   0   0   0   5   0   0 145 181 171 172 171 172
172 168 165 162 161 167 174 172 167 164 166 164 165 170 174 179 184 182 173 170 176 178 172 164
157 156 163 171 174 173 168 164 163 158 157 152 146 138 121 115 109 100  84  69  56  39  22  13
  4   3   3   3   3   3   3   3   3   2   0   0   0   0   0   0   0   0   0   0   0   0   0   0
  0   0   0   0
  0   0   0   0   0   0   0   0   0   0   0   0   0   0   0   6   0   0 147 183 176 178 178 176
174 168 167 169 170 170 174 172 170 170 178 181 177 178 181 181 180 180 175 169 167 171 171 168
168 159 155 157 165 171 176 173 163 156 154 160 157 138 122 117 110  98  81  69  56  36  21  13
  3   3   3   3   3   3   3   3   3   2   0   0   0   0   0   0   0   0   0   0   0   0   0   0
  0   0   0   0
  0   0   0   0   0   0   0   0   0   0   0   0   0   0   0   5   0   0 144 177 169 173 175 177
177 173 169 166 165 166 172 173 173 180 179 179 175 172 173 169 170 171 172 172 168 169 164 158
166 172 165 158 156 162 167 179 166 150 147 159 167 142 132 123 110  96  81  68  52  33  20  11
  3   3   3   3   3   3   3   3   3   2   0   0   0   0   0   0   0   0   0   0   0   0   0   0
  0   0   0   0
  0   0   0   0   0   0   0   0   0   0   0   0   0   0   0   5   0   0 142 176 165 166 168 171
173 173 172 171 166 165 165 167 171 175 173 167 164 162 162 160 166 172 171 171 172 169 169 162
161 177 178 167 157 162 167 164 165 157 146 149 161 147 135 120 109 101  84  68  51  31  20  10
  2   3   3   3   3   3   3   3   3   2   0   0   0   0   0   0   0   0   0   0   0   0   0   0
  0   0   0   0
  0   0   0   0   0   0   0   0   0   0   0   0   0   0   0   5   0   0 141 176 168 169 167 165
166 167 167 168 170 171 167 162 163 166 167 161 161 161 160 158 161 159 155 154 157 155 159 161
162 168 175 177 170 161 159 158 158 162 151 153 164 152 135 118 115 105  88  71  52  31  20   8
  2   3   3   3   3   3   3   3   3   2   0   0   0   0   0   0   0   0   0   0   0   0   0   0
  0   0   0   0
  0   0   0   0   0   0   0   0   0   0   0   0   0   0   0   5   0   0 138 170 164 168 167 163
162 163 163 160 160 161 161 163 163 163 162 159 158 159 158 160 163 153 153 153 152 152 149 152
155 156 165 174 174 170 162 158 149 159 163 154 162 153 128 118 110  97  83  65  49  28  15   6
  3   3   3   3   3   3   3   3   2   2   0   0   0   0   0   0   0   0   0   0   0   0   0   0
  0   0   0   0
  0   0   0   0   0   0   0   0   0   0   0   0   0   0   0   5   0   0 138 171 163 164 165 161
157 158 160 159 156 158 158 161 163 165 163 164 162 160 156 158 165 158 153 154 158 154 147 149
148 150 154 156 157 166 172 169 156 150 166 162 155 154 130 116 109  92  73  60  43  22  12   5
  3   3   3   3   3   3   3   3   3   2   0   0   0   0   0   0   0   0   0   0   0   0   0   0
  0   0   0   0
  0   0   0   0   0   0   0   0   0   0   0   0   0   0   0   5   0   0 143 175 166 163 164 166
161 159 159 157 156 163 165 159 159 161 160 161 161 162 162 163 163 161 159 153 154 157 152 148
150 149 145 142 150 165 169 172 169 158 160 167 163 157 136 113 108  93  80  67  39  16  11   3
  3   3   3   3   3   3   3   3   3   2   0   0   0   0   0   0   0   0   0   0   0   0   0   0
  0   0   0   0
  0   0   0   0   0   0   0   0   0   0   0   0   0   0   0   6   0   0 145 178 169 169 168 169
169 163 158 157 160 163 163 159 160 164 159 159 163 167 169 166 163 165 161 153 157 158 156 149
149 148 146 144 146 159 170 166 157 151 151 151 154 152 142 117 105  98  86  61  26  13   9   2
  3   3   3   3   3   3   3   3   3   2   0   0   0   0   0   0   0   0   0   0   0   0   0   0
  0   0   0   0
  0   0   0   0   0   0   0   0   0   0   0   0   0   0   0   6   0   0 146 180 172 176 173 170
169 168 161 159 159 158 159 160 164 167 164 164 162 165 169 167 163 162 163 157 155 159 159 152
149 149 151 153 152 153 159 153 143 139 135 137 139 141 138 122 109 103  82  46  21  13   5   3
  3   3   3   3   3   3   3   3   3   2   0   0   0   0   0   0   0   0   0   0   0   0   0   0
  0   0   0   0
  0   0   0   0   0   0   0   0   0   0   0   0   0   0   0   6   0   0 146 181 173 176 175 174
172 172 167 161 159 159 161 162 164 167 167 164 163 161 164 166 163 165 166 165 166 169 167 165
162 160 155 154 155 159 159 150 139 140 137 132 139 138 133 129 126 110  75  42  27  12   2   3
  3   3   3   3   3   3   3   3   3   2   0   0   0   0   0   0   0   0   0   0   0   0   0   0
  0   0   0   0
  0   0   0   0   0   0   0   0   0   0   0   0   0   0   0   5   0   0 145 181 172 174 178 182
183 177 174 168 163 162 161 159 161 161 160 162 160 157 157 156 157 162 161 163 164 164 169 167
165 160 154 157 154 156 158 153 144 138 133 131 146 142 126 129 126  97  66  44  29   7   2   3
  3   3   3   3   3   3   3   3   3   2   0   0   0   0   0   0   0   0   0   0   0   0   0   0
  0   0   0   0
  0   0   0   0   0   0   0   0   0   0   0   0   0   0   0   5   0   0 141 179 179 176 175 177
180 177 173 169 166 164 161 158 159 157 155 160 158 155 154 157 159 161 159 156 157 154 157 160
159 159 155 154 153 153 158 153 144 143 141 142 146 137 126 133 115  78  52  38  21   2   2   3
  3   3   3   3   3   3   3   3   3   2   0   0   0   0   0   0   0   0   0   0   0   0   0   0
  0   0   0   0
  0   0   0   0   0   0   0   0   0   0   0   0   0   0   0   6   0   0 145 175 173 180 175 171
170 173 172 166 166 166 164 165 163 158 159 158 154 154 155 156 157 159 163 156 153 156 156 158
157 155 157 157 154 157 155 152 145 142 144 147 144 127 119 117  94  59  38  29   9   1   2   3
  3   3   3   3   3   3   3   3   3   2   0   0   0   0   0   0   0   0   0   0   0   0   0   0
  0   0   0   0
  0   0   0   0   0   0   0   0   0   0   0   0   0   0   0   5   0   0 144 177 169 180 184 174
169 172 174 171 165 164 164 164 165 164 163 159 154 153 154 160 162 160 159 155 151 153 153 154
157 153 148 153 151 149 145 149 150 146 140 137 130 115 104  93  71  38  24  16   3   2   2   3
  3   3   3   3   3   3   3   3   3   2   0   0   0   0   0   0   0   0   0   0   0   0   0   0
  0   0   0   0
  0   0   0   0   0   0   0   0   0   0   0   0   0   0   0   5   0   0 143 176 172 173 178 182
175 168 175 175 171 168 166 164 166 164 160 161 164 159 158 159 160 160 157 155 150 151 153 153
155 156 151 147 145 140 139 141 145 144 136 130 122 111  98  85  52  20  14   9   2   2   2   2
  3   3   3   3   3   3   3   3   3   2   0   0   0   0   0   0   0   0   0   0   0   0   0   0
  0   0   0   0
  0   0   0   0   0   0   0   0   0   0   0   0   0   0   0   6   0   0 149 178 162 164 166 175
185 182 177 176 168 167 166 164 161 156 156 157 159 158 156 155 154 154 151 151 152 149 146 151
154 156 154 142 139 143 139 138 140 142 137 129 113 100  93  68  29  14  13   5   1   2   2   2
  3   3   3   3   3   3   2   3   3   1   0   0   0   0   0   0   0   0   0   0   0   0   0   0
  0   0   0   0
  0   0   0   0   0   0   0   0   0   0   0   0   0   0   0   5   1   0 140 177 163 161 161 163
169 182 189 188 171 161 164 159 156 157 157 156 154 156 157 156 157 157 152 149 150 150 146 149
147 146 145 142 140 137 137 134 132 138 138 124 103  90  81  50  16  16   9   2   2   2   2   2
  3   3   3   3   3   3   3   3   3   2   0   0   0   0   0   0   0   0   0   0   0   0   0   0
  0   0   0   0
  0   0   0   0   0   0   0   0   0   0   0   0   0   0   0   4   0   0 128 164 161 166 167 163
162 163 171 194 196 177 169 161 159 159 158 159 158 156 156 156 158 161 159 155 153 149 149 148
146 142 138 137 140 136 133 130 130 129 126 115  94  80  62  31  16  13   5   1   2   2   2   2
  2   3   3   3   3   3   3   3   3   2   0   0   0   0   0   0   0   0   0   0   0   0   0   0
  0   0   0   0
  0   0   0   0   0   0   0   0   0   0   0   0   0   0   0   4   0   0 119 150 149 154 162 169
166 161 158 169 188 188 181 174 167 162 156 155 157 158 159 159 159 159 162 161 158 155 154 146
144 148 142 139 139 136 130 131 127 121 114 101  83  66  39  23  15   8   2   1   1   2   2   2
  3   3   3   3   3   2   3   3   3   2   0   0   0   0   0   0   0   0   0   0   0   0   0   0
  0   0   0   0
  0   0   0   0   0   0   0   0   0   0   0   0   0   0   0   3   0   0 113 144 142 146 148 153
162 161 153 153 165 170 164 168 169 166 164 162 160 162 164 160 158 157 156 156 160 163 161 151
144 149 148 139 138 135 137 136 130 114  96  84  69  44  24  19  12   5   1   1   1   2   2   2
  3   3   3   3   3   2   2   2   2   1   0   0   0   0   0   0   0   0   0   0   0   0   0   0
  0   0   0   0
  0   0   0   0   0   0   0   0   0   0   0   0   0   0   0   3   0   0 111 138 136 142 145 139
146 158 149 144 152 158 154 153 152 152 156 163 161 155 156 154 155 158 157 153 152 154 151 146
144 142 142 141 136 132 131 128 115  99  87  77  53  28  21  15   8   2   2   2   1   2   2   2
  3   3   3   3   2   2   2   2   2   1   0   0   0   0   0   0   0   0   0   0   0   0   0   0
  0   0   0   0
  0   0   0   0   0   0   0   0   0   0   0   0   0   0   0   3   0   0 116 138 129 135 139 137
139 143 151 151 152 155 152 151 148 145 146 150 151 150 148 146 148 147 150 151 148 142 140 139
138 138 140 141 131 128 120 110  95  90  79  57  34  22  17  12   4   2   2   2   2   2   2   2
  3   3   3   3   2   2   2   2   2   1   0   0   0   0   0   0   0   0   0   0   0   0   0   0
  0   0   0   0
  0   0   0   0   0   0   0   0   0   0   0   0   0   0   0   2   1   0 102 130 121 125 128 130
135 133 133 142 150 152 143 141 144 142 144 145 142 142 141 142 143 140 142 142 138 135 133 132
130 132 130 124 122 123 110  98  88  78  60  38  24  19  14   6   2   2   2   2   2   2   3   3
  3   3   3   3   2   2   2   2   2   1   0   0   0   0   0   0   0   0   0   0   0   0   0   0
  0   0   0   0
  0   0   0   0   0   0   0   0   0   0   0   0   0   0   0   2   0   0  88 115 114 116 116 118
122 127 125 127 137 146 145 138 135 136 138 139 139 137 133 135 138 136 135 135 135 136 134 136
133 123 117 117 115 107  95  87  75  60  44  29  20  15   8   2   2   2   2   2   2   3   3   3
  4   4   3   3   3   3   2   2   2   1   0   0   0   0   0   0   0   0   0   0   0   0   0   0
  0   0   0   0
  0   0   0   0   0   0   0   0   0   0   0   0   0   0   0   2   0   0  81 102 104 109 110 111
114 114 116 120 125 134 142 135 129 130 131 135 138 137 131 131 134 135 135 136 134 132 133 131
122 115 110 109 103  92  84  74  59  46  31  22  17  10   2   2   2   2   2   2   3   3   3   3
  4   4   3   3   3   2   2   2   2   1   0   0   0   0   0   0   0   0   0   0   0   0   0   0
  0   0   0   0
  0   0   0   0   0   0   0   0   0   0   0   0   0   0   0   1   0   0  78  96  91  98 105 106
104 108 110 114 116 121 127 130 126 125 128 129 131 131 128 127 130 125 123 128 136 133 124 114
109 102  99  95  86  79  68  57  45  32  22  18  12   3   2   2   2   2   2   2   3   3   3   3
  3   4   3   3   3   2   2   3   2   1   0   0   0   0   0   0   0   0   0   0   0   0   0   0
  0   0   0   0
  0   0   0   0   0   0   0   0   0   0   0   0   0   0   0   1   0   0  71  91  89  89  91  98
 99 103 105 107 109 111 112 116 121 119 122 122 124 123 123 123 121 117 113 113 122 119 112 110
106 101  95  84  74  64  52  42  31  22  18  12   3   2   2   2   2   2   2   2   3   3   3   3
  4   4   3   3   3   2   2   2   2   1   0   0   0   0   0   0   0   0   0   0   0   0   0   0
  0   0   0   0
  0   0   0   0   0   0   0   0   0   0   0   0   0   0   0   1   0   0  57  75  82  92  92  93
 94  93  96  98  99 106 105 103 106 111 112 114 118 112 110 110 110 110 110 110 108 105 105 103
 95  89  83  72  60  49  39  30  21  17  11   3   2   2   2   2   2   2   3   3   3   3   3   3
  4   3   3   3   3   3   2   2   2   1   0   0   0   0   0   0   0   0   0   0   0   0   0   0
  0   0   0   0
  0   0   0   0   0   0   0   0   0   0   0   0   0   0   0   0   0   0  44  60  61  73  80  83
 87  91  93  95  92  95 103 100  95 101 105 102 106 101  99  99  99 101 105 107 101  96  89  80
 73  65  59  54  45  32  25  20  15  10   3   2   3   2   2   3   3   2   3   3   3   3   3   3
  3   3   3   3   3   2   2   3   2   1   0   0   0   0   0   0   0   0   0   0   0   0   0   0
  0   0   0   0
  0   0   0   0   0   0   0   0   0   0   0   0   0   0   0   0   0   0  34  48  51  57  58  59
 66  73  78  86  89  88  96 100  92  90  93  97  96  93  97  98  95  94  92  91  80  72  69  63
 57  54  47  38  27  20  18  15   8   3   2   3   3   2   2   3   2   2   3   3   3   3   3   3
  3   3   3   3   2   2   2   3   2   1   0   0   0   0   0   0   0   0   0   0   0   0   0   0
  0   0   0   0
  0   0   0   0   0   0   0   0   0   0   0   0   0   0   0   0   0   0  27  37  40  46  50  51
 51  54  57  63  69  75  81  91  98  91  84  92  93  88  88  82  79  74  67  69  61  56  53  47
 44  37  31  24  18  16  13   6   2   3   3   3   3   2   2   2   3   3   3   3   3   3   3   3
  3   3   3   3   2   3   3   2   2   1   0   0   0   0   0   0   0   0   0   0   0   0   0   0
  0   0   0   0
  0   0   0   0   0   0   0   0   0   0   0   0   0   0   0   0   0   0  19  28  30  35  38  42
 43  44  46  50  51  56  61  62  71  74  70  73  75  66  63  60  58  54  53  52  46  42  40  35
 29  23  19  18  15   8   3   2   3   3   3   3   3   2   2   2   2   3   3   3   3   3   3   3
  3   3   3   2   2   3   2   2   2   1   0   0   0   0   0   0   0   0   0   0   0   0   0   0
  0   0   0   0
  0   0   0   0   0   0   0   0   0   0   0   0   0   0   0   0   0   0  14  21  22  25  29  31
 33  35  37  38  39  42  45  46  45  45  48  50  50  50  47  45  44  43  41  36  33  30  26  22
 17  16  13   9   4   2   2   3   3   3   3   3   2   2   2   2   2   2   3   3   2   3   3   3
  3   3   3   3   2   3   2   2   2   1   0   0   0   0   0   0   0   0   0   0   0   0   0   0
  0   0   0   0
  0   0   0   0   0   0   0   0   0   0   0   0   0   0   0   0   0   0   9  16  16  19  20  22
 24  26  27  28  30  32  32  33  35  34  34  35  33  34  35  33  30  30  28  25  21  19  17  15
 13   9   4   2   2   2   3   3   3   3   3   2   2   2   2   2   2   2   3   3   3   3   3   3
  3   3   3   3   3   3   3   2   2   1   0   0   0   0   0   0   0   0   0   0   0   0   0   0
  0   0   0   0
  0   0   0   0   0   0   0   0   0   0   0   0   0   0   0   0   0   0   7  13  12  14  15  16
 18  19  20  22  23  23  24  25  25  25  26  26  25  23  22  22  20  18  17  16  15  13  11   7
  6   4   1   2   2   2   2   2   2   2   2   2   2   2   2   2   2   2   2   3   3   3   3   3
  3   3   3   4   3   3   3   2   2   1   0   0   0   0   0   0   0   0   0   0   0   0   0   0
  0   0   0   0
  0   0   0   0   0   0   0   0   0   0   0   0   0   0   0   0   0   0   5  10  10  11  12  12
 13  14  14  15  16  16  18  18  18  18  17  18  17  16  15  15  14  13  12  10   8   6   4   2
  3   4   2   2   2   2   2   2   2   2   2   2   2   2   2   2   2   2   2   3   3   3   3   3
  3   3   3   3   3   3   3   3   2   1   0   0   0   0   0   0   0   0   0   0   0   0   0   0
  0   0   0   0
  0   0   0   0   0   0   0   0   0   0   0   0   0   0   0   0   0   0   3   5   6   7   9   9
 10  10  11  11  12  12  12  13  13  13  14  13  12  12  12  11   9   6   5   6   2   2   3   2
  2   2   2   2   2   2   2   2   2   2   2   2   2   2   2   2   2   2   2   3   3   2   2   3
  3   3   3   3   3   3   3   3   2   1   0   0   0   0   0   0   0   0   0   0   0   0   0   0
  0   0   0   0
  0   0   0   0   0   0   0   0   0   0   0   0   0   0   0   0   0   0   3   4   3   4   5   6
  6   6   7   8   8   8   8   8   8   8   8   7   6   6   5   4   3   2   2   3   2   3   3   2
  2   2   2   2   2   2   2   2   2   2   2   2   2   2   2   2   2   2   2   2   2   2   2   2
  3   3   3   3   3   3   2   2   2   1   0   0   0   0   0   0   0   0   0   0   0   0   0   0
  0   0   0   0
  0   0   0   0   0   0   0   0   0   0   0   0   0   0   0   0   0   0   3   4   4   4   4   4
  4   4   4   4   4   4   4   4   4   4   3   3   3   3   3   3   3   2   3   2   3   3   3   2
  2   2   2   2   2   2   2   2   2   2   2   2   2   2   2   2   2   2   2   2   2   2   3   3
  3   3   3   3   3   3   2   2   2   1   0   0   0   0   0   0   0   0   0   0   0   0   0   0
  0   0   0   0
  0   0   0   0   0   0   0   0   0   0   0   0   0   0   0   0   0   0   3   4   4   4   4   4
  4   4   4   4   4   4   4   3   4   4   4   4   3   3   3   3   3   3   3   3   3   2   3   3
  3   3   2   2   2   2   2   2   2   2   2   2   2   2   4   4   3   3   3   2   2   2   2   3
  3   3   3   3   3   3   3   2   2   1   0   0   0   0   0   0   0   0   0   0   0   0   0   0
  0   0   0   0
  0   0   0   0   0   0   0   0   0   0   0   0   0   0   0   0   0   0   3   4   4   4   4   4
  3   3   3   3   3   4   4   3   3   3   4   3   3   3   4   3   3   2   3   3   2   3   4   3
  2   3   2   2   2   2   2   2   2   2   2   3   2   2   4   3   3   3   3   2   2   3   3   3
  3   3   3   3   3   3   3   4   4   3   0   0   0   0   0   0   0   0   0   0   0   0   0   0
  0   0   0   0
  0   0   0   0   0   0   0   0   0   0   0   0   0   0   0   0   0   0   3   4   4   4   3   3
  3   3   3   3   3   3   3   2   2   3   3   3   3   3   3   3   3   2   2   2   2   2   3   2
  2   2   2   2   2   2   2   2   2   2   2   2   2   2   2   2   3   3   3   2   2   2   2   2
  3   3   4   3   3   3   3   7   9   8   0   0   0   0   0   0   0   0   0   0   0   0   0   0
  0   0   0   0
