P2
# 8-bit pgm gray
100 100
255
  0   0   0   0   0   0   0   0   0   0   0   0   0   0   0   0   0   0   0   0   0   0  13   0
 48 170 189 189 189 191 193 194 196 196 195 195 194 195 194 194 195 194 191 188 183 159 120  98
 92  81  80  78  58  31  23  19  12  10   8   7   6   4   3   3   3   4   3   4   6   4   3   4
  4   4   3   0   0   0   0   0   0   0   0   0   0   0   0   0   0   0   0   0   0   0   0   0
  0   0   0   0
  0   0   0   0   0   0   0   0   0   0   0   0   0   0   0   0   0   0   0   0   0   0  13   0
 49 170 187 185 186 188 191 193 197 198 194 194 193 192 194 197 196 192 189 184 176 149 109  97
 92  91  87  63  32  27  25  16  11  10   8   7   6   4   3   3   3   3   3   4   3   3   4   3
  3   3   3   0   0   0   0   0   0   0   0   0   0   0   0   0   0   0   0   0   0   0   0   0
  0   0   0   0
  0   0   0   0   0   0   0   0   0   0   0   0   0   0   0   0   0   0   0   0   0   0  12   0
 47 166 185 185 188 188 191 196 198 196 193 192 193 194 199 200 195 192 188 183 166 127 109 107
106  98  68  36  32  29  22  15  12  10   8   7   5   3   3   3   3   3   3   4   3   4   4   4
  3   3   3   0   0   0   0   0   0   0   0   0   0   0   0   0   0   0   0   0   0   0   0   0
  0   0   0   0
  0   0   0   0   0   0   0   0   0   0   0   0   0   0   0   0   0   0   0   0   0   0  13   0
 48 170 187 186 190 192 195 195 194 194 194 193 194 196 200 198 195 193 190 181 147 122 126 122
108  72  42  39  34  28  20  14  12  10   8   7   5   3   3   3   3   3   3   3   3   3   3   3
  3   3   3   0   0   0   0   0   0   0   0   0   0   0   0   0   0   0   0   0   0   0   0   0
  0   0   0   0
  0   0   0   0   0   0   0   0   0   0   0   0   0   0   0   0   0   0   0   0   0   0  13   0
 50 172 188 187 193 197 194 192 193 194 193 193 195 199 200 201 197 194 192 174 140 141 136 110
 70  46  46  40  33  26  18  14  12  10   9   7   5   3   2   2   3   3   3   3   3   3   3   3
  3   3   3   0   0   0   0   0   0   0   0   0   0   0   0   0   0   0   0   0   0   0   0   0
  0   0   0   0
  0   0   0   0   0   0   0   0   0   0   0   0   0   0   0   0   0   0   0   0   0   0  13   0
 50 172 189 190 196 194 192 192 193 192 193 195 198 201 198 199 200 197 189 167 144 130  99  68
 56  53  45  40  32  25  18  14  12   9   9   8   4   2   2   2   2   3   3   3   3   3   3   3
  3   3   2   0   0   0   0   0   0   0   0   0   0   0   0   0   0   0   0   0   0   0   0   0
  0   0   0   0
  0   0   0   0   0   0   0   0   0   0   0   0   0   0   0   0   0   0   0   0   0   0  14   0
 51 176 194 194 196 193 193 192 191 193 196 199 204 201 200 202 200 192 174 135 110  83  66  63
 59  54  47  39  32  24  17  14  12   9   7   6   4   2   2   2   2   2   2   2   2   2   3   3
  3   3   2   0   0   0   0   0   0   0   0   0   0   0   0   0   0   0   0   0   0   0   0   0
  0   0   0   0
  0   0   0   0   0   0   0   0   0   0   0   0   0   0   0   0   0   0   0   0   0   0  14   0
 52 178 197 194 193 192 192 191 191 194 195 200 204 202 201 197 182 165 137  99  84  76  72  66
 59  54  47  39  32  24  18  14  12   9   7   5   3   1   2   2   2   2   2   2   2   3   3   3
  3   3   2   0   0   0   0   0   0   0   0   0   0   0   0   0   0   0   0   0   0   0   0   0
  0   0   0   0
  0   0   0   0   0   0   0   0   0   0   0   0   0   0   0   0   0   0   0   0   0   0  14   0
 51 179 198 193 193 194 191 190 193 195 193 195 200 200 196 186 171 153 118  96  88  81  74  66
 61  54  46  39  31  23  18  15  12   9   7   5   2   2   2   2   2   2   2   2   2   2   2   3
  2   2   2   0   0   0   0   0   0   0   0   0   0   0   0   0   0   0   0   0   0   0   0   0
  0   0   0   0
  0   0   0   0   0   0   0   0   0   0   0   0   0   0   0   0   0   0   0   0   0   0  15   0
 54 182 198 194 194 193 191 192 193 192 191 194 197 198 195 182 169 145 108  92  87  84  75  70
 64  55  46  37  29  23  18  14  11   9   6   5   2   1   2   2   2   2   2   2   2   2   2   2
  2   2   2   0   0   0   0   0   0   0   0   0   0   0   0   0   0   0   0   0   0   0   0   0
  0   0   0   0
  0   0   0   0   0   0   0   0   0   0   0   0   0   0   0   0   0   0   0   0   0   0  15   0
 54 181 194 192 194 191 191 193 193 193 192 193 195 197 190 174 156 124  96  91  90  83  76  71
 65  55  45  36  28  22  17  14  11   8   6   4   1   1   1   1   1   2   2   2   2   2   2   2
  2   2   2   0   0   0   0   0   0   0   0   0   0   0   0   0   0   0   0   0   0   0   0   0
  0   0   0   0
  0   0   0   0   0   0   0   0   0   0   0   0   0   0   0   0   0   0   0   0   0   0  15   0
 55 181 195 192 192 192 193 193 191 191 191 191 192 192 182 164 142 109  93  90  90  82  76  71
 60  49  43  35  27  21  17  13  10   7   6   4   1   1   1   1   1   2   2   2   1   2   2   2
  2   2   2   0   0   0   0   0   0   0   0   0   0   0   0   0   0   0   0   0   0   0   0   0
  0   0   0   0
  0   0   0   0   0   0   0   0   0   0   0   0   0   0   0   0   0   0   0   0   0   0  15   0
 54 181 198 192 191 190 191 191 189 190 191 190 188 184 170 154 126 105  98  93  90  83  77  68
 58  49  42  33  25  20  16  12  10   7   6   3   1   1   1   1   1   2   2   1   1   2   2   2
  2   2   0   0   0   0   0   0   0   0   0   0   0   0   0   0   0   0   0   0   0   0   0   0
  0   0   0   0
  0   0   0   0   0   0   0   0   0   0   0   0   0   0   0   0   0   0   0   0   0   0  15   0
 53 183 199 194 194 192 192 191 190 190 189 187 184 175 163 140 110 103  96  92  88  81  75  69
 60  51  41  30  24  20  15  12  10   7   6   3   1   1   1   1   2   2   2   2   2   2   2   2
  2   2   7   2   0   0   0   0   0   0   0   0   0   0   0   0   0   0   0   0   0   0   0   0
  0   0   0   0
  0   0   0   0   0   0   0   0   0   0   0   0   0   0   0   0   0   0   0   0   0   0  16   0
 55 187 203 197 198 198 195 192 192 191 188 184 176 168 155 125 105  97  91  93  89  81  76  68
 58  48  37  28  24  19  15  12   9   7   5   2   1   1   1   1   1   2   2   2   2   2   2   2
  2   3  18   5   0   0   0   0   0   0   0   0   0   0   0   0   0   0   0   0   0   0   0   0
  0   0   0   0
  0   0   0   0   0   0   0   0   0   0   0   0   0   0   0   0   0   0   0   0   0   0  16   0
 55 188 206 204 203 202 198 191 188 189 188 181 172 162 141 116 101  96  96  96  90  86  78  64
 54  44  36  30  24  18  16  12   9   7   4   1   0   1   1   1   1   1   1   1   1   1   1   2
  2   2   1   0   0   0   0   0   0   0   0   0   0   0   0   0   0   0   0   0   0   0   0   0
  0   0   0   0
  0   0   0   0   0   0   0   0   0   0   0   0   0   0   0   0   0   0   0   0   0   0  15   0
 56 185 203 202 203 201 200 192 188 186 183 176 166 150 125 111 104  98 100  95  89  83  71  60
 50  41  35  28  23  19  16  12   8   6   4   1   0   0   0   0   0   1   0   1   1   1   1   1
  1   1   1   0   0   0   0   0   0   0   0   0   0   0   0   0   0   0   0   0   0   0   0   0
  0   0   0   0
  0   0   0   0   0   0   0   0   0   0   0   0   0   0   0   0   0   0   0   0   0   0  16   0
 56 187 204 201 202 202 199 190 188 185 179 171 159 138 117 111 112 108 102  92  86  77  67  58
 48  43  36  29  24  20  15  11   8   6   4   0   0   0   0   0   0   1   0   0   0   1   1   1
  1   1   1   0   0   0   0   0   0   0   0   0   0   0   0   0   0   0   0   0   0   0   0   0
  0   0   0   0
  0   0   0   0   0   0   0   0   0   0   0   0   0   0   0   0   0   0   0   0   0   0  16   0
 57 189 204 201 201 199 193 187 185 180 173 165 151 126 114 110 106 104  98  90  84  77  71  59
 51  43  35  30  24  19  14  11   8   6   3   0   0   0   0   0   0   1   0   0   0   0   0   0
  0   0   0   0   0   0   0   0   0   0   0   0   0   0   0   0   0   0   0   0   0   0   0   0
  0   0   0   0
  0   0   0   0   0   0   0   0   0   0   0   0   0   0   0   0   0   0   0   0   0   0  16   0
 57 186 199 195 196 192 189 186 183 178 170 159 134 118 114 104 107 102  91  88  85  79  70  59
 50  42  36  30  23  19  14  11   8   6   3   0   0   0   0   0   0   1   0   1   0   0   0   0
  0   0   0   0   0   0   0   0   0   0   0   0   0   0   0   0   0   0   0   0   0   0   0   0
  0   0   0   0
  0   0   0   0   0   0   0   0   0   0   0   0   0   0   0   0   0   0   0   0   0   0  15   0
 56 185 197 190 190 187 184 181 177 172 160 141 120 115 114 109 105  99  92  90  87  78  67  61
 53  46  38  30  25  20  16  12   8   6   3   0   0   0   0   0   0   1   1   1   0   1   1   1
  0   0   0   0   0   0   0   0   0   0   0   0   0   0   0   0   0   0   0   0   0   0   0   0
  0   0   0   0
  0   0   0   0   0   0   0   0   0   0   0   0   0   0   0   0   0   0   0   0   0   0  16   0
 56 188 202 191 189 188 184 179 172 165 148 125 114 111 111 108 104  97  90  88  85  75  67  63
 56  48  41  32  26  22  16  12   9   6   3   0   0   0   0   0   0   0   0   0   0   1   1   0
  0   0   0   0   0   0   0   0   0   0   0   0   0   0   0   0   0   0   0   0   0   0   0   0
  0   0   0   0
  0   0   0   0   0   0   0   0   0   0   0   0   0   0   0   0   0   0   0   0   0   0  15   0
 54 184 197 189 188 185 182 176 167 155 138 121 116 115 110 102 101 101  93  88  86  79  69  64
 57  50  43  33  28  22  17  12   9   6   3   0   0   0   0   0   0   0   0   0   0   0   0   0
  0   0   0   0   0   0   0   0   0   0   0   0   0   0   0   0   0   0   0   0   0   0   0   0
  0   0   0   0
  0   0   0   0   0   0   0   0   0   0   0   0   0   0   0   0   0   0   0   0   0   0  15   0
 55 182 195 189 186 181 178 172 161 145 126 118 116 112 106  98  94  96  96  90  89  86  76  68
 60  52  44  37  30  24  19  13   9   7   4   0   0   0   0   0   0   0   0   0   0   0   0   0
  0   0   0   0   0   0   0   0   0   0   0   0   0   0   0   0   0   0   0   0   0   0   0   0
  0   0   0   0
  0   0   0   0   0   0   0   0   0   0   0   0   0   0   0   0   0   0   0   0   0   0  15   0
 55 180 193 186 184 178 174 168 153 139 122 119 115 108 104 101  98  95  91  89  92  83  75  73
 66  56  48  40  32  25  20  15  10   7   5   1   0   0   0   0   0   0   0   0   0   0   0   0
  0   0   0   0   0   0   0   0   0   0   0   0   0   0   0   0   0   0   0   0   0   0   0   0
  0   0   0   0
  0   0   0   0   0   0   0   0   0   0   0   0   0   0   0   0   0   0   0   0   0   0  15   0
 55 183 194 185 181 176 170 161 145 127 119 117 113 109 107 103 100  96  92  88  89  86  79  75
 69  60  53  43  33  26  20  16  11   8   5   1   0   0   0   0   0   0   0   0   0   0   0   0
  0   0   0   0   0   0   0   0   0   0   0   0   0   0   0   0   0   0   0   0   0   0   0   0
  0   0   0   0
  0   0   0   0   0   0   0   0   0   0   0   0   0   0   0   0   0   0   0   0   0   0  15   0
 54 183 196 185 179 173 163 152 138 120 117 115 112 108 106 103 101  99  93  89  92  85  81  80
 74  66  58  46  37  28  21  17  12   8   6   2   0   0   0   0   0   0   0   0   0   0   0   0
  0   0   0   0   0   0   0   0   0   0   0   0   0   0   0   0   0   0   0   0   0   0   0   0
  0   0   0   0
  0   0   0   0   0   0   0   0   0   0   0   0   0   0   0   0   0   0   0   0   0   0  14   0
 54 176 189 183 176 167 154 140 125 117 114 110 106 106 104 103 102 100  92  95  94  86  83  77
 73  70  66  53  42  34  24  18  13   9   6   3   0   0   0   0   0   0   0   0   0   0   0   0
  0   0   0   0   0   0   0   0   0   0   0   0   0   0   0   0   0   0   0   0   0   0   0   0
  0   0   0   0
  0   0   0   0   0   0   0   0   0   0   0   0   0   0   0   0   0   0   0   0   0   0  13   0
 51 170 181 173 168 157 142 127 115 112 110 105 102 101 100 100  99  99  97 100  94  87  85  79
 72  67  60  53  43  36  30  21  14  10   7   4   0   0   0   0   0   0   0   0   0   0   0   0
  0   0   0   0   0   0   0   0   0   0   0   0   0   0   0   0   0   0   0   0   0   0   0   0
  0   0   0   0
  0   0   0   0   0   0   0   0   0   0   0   0   0   0   0   0   0   0   0   0   0   0  13   0
 50 167 178 169 161 148 132 116 111 108 108 108 105 102 100  99  99  97 101 103  94  89  88  83
 76  71  61  52  43  33  29  24  17  12   8   5   1   0   0   0   0   0   0   0   0   0   0   0
  0   0   0   0   0   0   0   0   0   0   0   0   0   0   0   0   0   0   0   0   0   0   0   0
  0   0   0   0
  0   0   0   0   0   0   0   0   0   0   0   0   0   0   0   0   0   0   0   0   0   0  13   0
 50 165 175 166 156 142 123 111 111 111 106 104 103 103 103 102 100  97 101 105  95  91  89  86
 81  76  65  54  44  35  28  23  18  13   9   6   2   0   0   0   0   0   0   0   0   0   0   0
  0   0   0   0   0   0   0   0   0   0   0   0   0   0   0   0   0   0   0   0   0   0   0   0
  0   0   0   0
  0   0   0   0   0   0   0   0   0   0   0   0   0   0   0   0   0   0   0   0   0   0  12   0
 49 161 169 159 150 132 114 113 109 105 102 102 101 102 102 100 100  99 108 108 100  98  93  92
 92  78  65  57  46  39  31  24  19  14  12   7   3   0   0   0   0   0   0   0   0   0   0   0
  1   0   0   0   0   0   0   0   0   0   0   0   0   0   0   0   0   0   0   0   0   0   0   0
  0   0   0   0
  0   0   0   0   0   0   0   0   0   0   0   0   0   0   0   0   0   0   0   0   0   0  12   0
 47 158 164 150 142 125 115 113 110 105 103 102 103 104 100  98  99  96 101 110 102  98  97  91
 90  81  66  58  49  41  34  26  20  16  11   9   6   1   0   0   0   0   0   0   0   0   0   1
  0   0   0   0   0   0   0   0   0   0   0   0   0   0   0   0   0   0   0   0   0   0   0   0
  0   0   0   0
  0   0   0   0   0   0   0   0   0   0   0   0   0   0   0   0   0   0   0   0   0   0  11   0
 46 156 161 144 130 117 113 111 111 110 106 102 102 104 101 104 105  99  98 106 105  96  96  92
 84  78  68  59  53  43  36  29  23  18  12  10   7   2   0   0   0   0   0   1   0   1   1   1
  0   0   0   0   0   0   0   0   0   0   0   0   0   0   0   0   0   0   0   0   0   0   0   0
  0   0   0   0
  0   0   0   0   0   0   0   0   0   0   0   0   0   0   0   0   0   0   0   0   0   0  11   0
 46 150 153 135 121 116 117 115 109 106 105 104 104 103 100 104 108 103 100 107 109  96  95  94
 85  77  71  63  57  47  38  31  24  19  14  10   8   4   0   0   0   0   0   0   0   1   1   1
  1   0   0   0   0   0   0   0   0   0   0   0   0   0   0   0   0   0   0   0   0   0   0   0
  0   0   0   0
  0   0   0   0   0   0   0   0   0   0   0   0   0   0   0   0   0   0   0   0   0   0  10   0
 46 144 145 127 114 112 113 112 109 107 104 102  99 100  98  99 103 105  99 106 111  98  93  92
 88  79  72  67  60  49  40  33  27  20  16  13   8   5   1   0   0   0   0   0   0   0   0   1
  1   0   0   0   0   0   0   0   0   0   0   0   0   0   0   0   0   0   0   0   0   0   0   0
  0   0   0   0
  0   0   0   0   0   0   0   0   0   0   0   0   0   0   0   0   0   0   0   0   0   0   9   0
 43 140 142 124 116 114 112 109 109 109 106 103  99 100 100  99 101 105 106 103 101 100  94  91
 91  84  75  68  61  51  42  35  30  23  17  14   8   6   2   0   0   0   0   0   0   1   1   1
  1   1   0   0   0   0   0   0   0   0   0   0   0   0   0   0   0   0   0   0   0   0   0   0
  0   0   0   0
  0   0   0   0   0   0   0   0   0   0   0   0   0   0   0   0   0   0   0   0   0   0   9   0
 44 136 135 122 117 114 111 107 106 106 105 102 102 102 100  98  98 102 110 102  95  96  96  93
 92  87  77  68  64  54  44  37  32  26  18  14  10   7   3   0   0   0   0   0   0   1   0   0
  0   0   0   0   0   0   0   0   0   0   0   0   0   0   0   0   0   0   0   0   0   0   0   0
  0   0   0   0
  0   0   0   0   0   0   0   0   0   0   0   0   0   0   0   0   0   0   0   0   0   0   8   0
 39 130 130 115 116 112 110 109 108 108 107 106 109 103 102 100  99 105 112 110 101  96  95  93
 93  85  76  70  65  59  47  40  34  26  20  16  12   8   5   1   0   0   0   1   1   1   1   1
  1   0   0   0   0   0   0   0   0   0   0   0   0   0   0   0   0   0   0   0   0   0   0   0
  0   0   0   0
  0   0   0   0   0   0   0   0   0   0   0   0   0   0   0   0   0   0   0   0   0   0   7   0
 37 122 126 119 119 113 111 114 114 115 112 112 112 109 106 104 103 103 107 111 104  97  95  93
 97  91  79  72  64  61  52  43  35  27  21  17  13   9   7   2   0   1   1   1   1   1   1   1
  1   0   0   0   0   0   0   0   0   0   0   0   0   0   0   0   0   0   0   0   0   0   0   0
  0   0   0   0
  0   0   0   0   0   0   0   0   0   0   0   0   0   0   0   0   0   0   0   0   0   0   7   0
 37 120 125 122 121 114 111 116 118 116 115 116 114 110 108 107 106 100 105 112 106  96  94  95
 96  92  86  77  67  63  56  45  38  30  23  18  13  10   7   4   0   0   1   1   1   1   1   0
  0   0   0   0   0   0   0   0   0   0   0   0   0   0   0   0   0   0   0   0   0   0   0   0
  0   0   0   0
  0   0   0   0   0   0   0   0   0   0   0   0   0   0   0   0   0   0   0   0   0   0   6   0
 33 116 124 116 116 115 117 119 119 118 115 112 113 110 111 110 101 100 106 114 115 105  95  95
 97  93  88  83  73  63  58  47  40  31  25  19  14  11   8   5   1   0   1   0   0   1   1   0
  0   0   0   0   0   0   0   0   0   0   0   0   0   0   0   0   0   0   0   0   0   0   0   0
  0   0   0   0
  0   0   0   0   0   0   0   0   0   0   0   0   0   0   0   0   0   0   0   0   0   0   6   0
 36 118 123 119 119 120 119 119 117 116 115 115 115 112 112 106  97 102 107 115 118 111 100  95
 99  93  87  86  79  67  66  57  41  33  27  21  17  12   9   6   2   0   1   0   1   0   1   0
  0   1   0   0   0   0   0   0   0   0   0   0   0   0   0   0   0   0   0   0   0   0   0   0
  0   0   0   0
  0   0   0   0   0   0   0   0   0   0   0   0   0   0   0   0   0   0   0   0   0   0   8   0
 42 133 136 133 129 123 121 119 121 123 121 120 118 117 113 110 106 107 107 112 116 109 105 101
 94  90  85  84  77  68  68  62  46  37  29  24  19  14  10   8   4   0   0   1   1   1   0   0
  0   1   0   0   0   0   0   0   0   0   0   0   0   0   0   0   0   0   0   0   0   0   0   0
  0   0   0   0
  0   0   0   0   0   0   0   0   0   0   0   0   0   0   0   0   0   0   0   0   0   0   9   0
 40 137 149 142 137 136 133 135 133 132 132 128 129 128 122 119 116 109 106 109 114 112 112 108
 93  91  88  85  77  72  69  58  45  41  33  26  20  15  12   8   5   1   0   1   0   1   1   0
  0   1   0   0   0   0   0   0   0   0   0   0   0   0   0   0   0   0   0   0   0   0   0   0
  0   0   0   0
  0   0   0   0   0   0   0   0   0   0   0   0   0   0   0   0   0   0   0   0   0   0   8   0
 38 136 151 145 140 140 139 142 140 135 134 134 135 136 133 127 119 111 109 114 118 118 119 120
105  93  93  89  79  76  72  57  48  42  35  28  22  17  13   9   7   2   0   0   0   0   0   0
  0   0   0   0   0   0   0   0   0   0   0   0   0   0   0   0   0   0   0   0   0   0   0   0
  0   0   0   0
  0   0   0   0   0   0   0   0   0   0   0   0   0   0   0   0   0   0   0   0   0   0   9   0
 40 140 150 143 140 135 134 136 136 136 135 143 148 148 144 135 129 123 117 121 123 119 112 116
114 101 101  92  80  81  73  60  51  43  37  30  25  19  14  10   7   3   0   0   0   0   0   0
  0   0   0   0   0   0   0   0   0   0   0   0   0   0   0   0   0   0   0   0   0   0   0   0
  0   0   0   0
  0   0   0   0   0   0   0   0   0   0   0   0   0   0   0   0   0   0   0   0   0   0   8   0
 37 135 149 142 140 143 142 142 139 141 146 149 145 137 134 136 131 133 127 123 120 114 112 107
102 104 103  98  92  85  70  62  54  47  39  31  26  20  15  11   8   5   0   0   0   0   0   0
  0   0   0   0   0   0   0   0   0   0   0   0   0   0   0   0   0   0   0   0   0   0   0   0
  0   0   0   0
  0   0   0   0   0   0   0   0   0   0   0   0   0   0   0   0   0   0   0   0   0   0   8   0
 38 134 144 138 137 138 143 150 147 143 142 142 136 126 127 134 128 133 128 116 114 115 107 109
101  97  97  96  95  84  72  66  58  51  42  34  28  22  17  13   9   6   2   0   0   0   0   0
  0   0   0   0   0   0   0   0   0   0   0   0   0   0   0   0   0   0   0   0   0   0   0   0
  0   0   0   0
  0   0   0   0   0   0   0   0   0   0   0   0   0   0   0   0   0   0   0   0   0   0   9   0
 40 138 146 141 139 135 132 145 142 130 129 130 134 128 125 120 127 136 124 114 110 112 105 108
108  98  98  98  97  83  73  67  61  55  45  38  32  25  19  14  10   7   3   0   0   0   0   0
  0   0   0   0   0   0   0   0   0   0   0   0   0   0   0   0   0   0   0   0   0   0   0   0
  0   0   0   0
  0   0   0   0   0   0   0   0   0   0   0   0   0   0   0   0   0   0   0   0   0   0   8   0
 37 132 147 149 150 152 147 144 137 130 124 128 136 138 135 125 130 136 125 115 110 108 106 106
107  97 103 107 101  83  75  69  61  54  47  40  34  26  20  15  11   8   5   0   0   0   0   0
  0   0   0   0   0   0   0   0   0   0   0   0   0   0   0   0   0   0   0   0   0   0   0   0
  0   0   0   0
  0   0   0   0   0   0   0   0   0   0   0   0   0   0   0   0   0   0   0   0   0   0   7   0
 35 129 148 147 149 159 159 152 140 140 138 139 140 142 143 139 134 129 128 123 115 108 109 107
102  96  96 105 106  86  76  71  62  56  49  43  35  27  22  17  13   9   6   1   0   1   0   0
  0   0   0   0   0   0   0   0   0   0   0   0   0   0   0   0   0   0   0   0   0   0   0   0
  0   0   0   0
  0   0   0   0   0   0   0   0   0   0   0   0   0   0   0   0   0   0   0   0   0   0   7   0
 34 131 149 150 150 155 157 156 145 138 143 146 139 137 143 146 140 129 127 132 124 116 109 104
103  99  92 102 109  92  79  75  67  59  51  45  37  30  23  18  14  10   7   3   0   1   1   0
  0   0   0   0   0   0   0   0   0   0   0   0   0   0   0   0   0   0   0   0   0   0   0   0
  0   0   0   0
  0   0   0   0   0   0   0   0   0   0   0   0   0   0   0   0   0   0   0   0   0   0   9   0
 40 138 148 148 154 155 151 144 133 137 144 141 135 133 141 154 155 138 124 133 134 125 115 102
102 102  98 103 106  98  90  79  69  62  53  47  38  31  25  20  15  11   8   4   0   1   1   0
  0   0   0   0   0   0   0   0   0   0   0   0   0   0   0   0   0   0   0   0   0   0   0   0
  0   0   0   0
  0   0   0   0   0   0   0   0   0   0   0   0   0   0   0   0   0   0   0   0   0   0  10   0
 43 144 151 145 147 151 155 145 134 138 143 132 128 131 131 139 153 148 134 130 139 136 122 114
109 109 105 113 117 100  96  90  68  62  58  48  40  34  27  21  16  12   9   5   1   0   1   0
  0   0   0   0   0   0   0   0   0   0   0   0   0   0   0   0   0   0   0   0   0   0   0   0
  0   0   0   0
  0   0   0   0   0   0   0   0   0   0   0   0   0   0   0   0   0   0   0   0   0   0   9   0
 42 140 151 154 151 147 150 153 149 136 136 133 128 127 122 126 138 145 141 129 134 146 136 126
125 113 111 131 123  91  91  90  78  68  60  53  44  37  30  24  18  13   9   7   2   0   1   1
  0   0   0   0   0   0   0   0   0   0   0   0   0   0   0   0   0   0   0   0   0   0   0   0
  0   0   0   0
  0   0   0   0   0   0   0   0   0   0   0   0   0   0   0   0   0   0   0   0   0   0   8   0
 36 138 157 159 160 158 148 152 150 142 137 131 130 127 128 130 134 136 138 134 133 144 156 145
133 120 125 138 114  91  86  81  79  77  71  54  44  38  31  25  18  14  10   7   3   0   0   0
  0   0   0   0   0   0   0   0   0   0   0   0   0   0   0   0   0   0   0   0   0   0   0   0
  0   0   0   0
  0   0   0   0   0   0   0   0   0   0   0   0   0   0   0   0   0   0   0   0   0   0   8   0
 36 136 153 149 153 160 156 150 150 143 135 127 127 123 129 127 136 143 140 138 139 144 157 155
141 136 138 124 104  96  85  79  72  70  72  57  47  39  32  26  20  15  11   8   4   0   0   0
  0   0   0   0   0   0   0   0   0   0   0   0   0   0   0   0   0   0   0   0   0   0   0   0
  0   0   0   0
  0   0   0   0   0   0   0   0   0   0   0   0   0   0   0   0   0   0   0   0   0   0   8   0
 33 137 152 153 157 157 158 151 150 142 136 134 130 117 124 130 138 147 144 146 148 148 148 150
145 146 141 119 104  94  86  80  75  75  68  56  49  42  35  27  22  16  11   8   5   0   0   0
  0   0   0   0   0   0   0   0   0   0   0   0   0   0   0   0   0   0   0   0   0   0   0   0
  0   0   0   0
  0   0   0   0   0   0   0   0   0   0   0   0   0   0   0   0   0   0   0   0   0   0   9   0
 40 141 157 163 167 166 160 150 141 135 130 125 130 123 120 134 143 147 149 156 152 139 139 144
151 155 149 130 106  94  91  85  81  76  65  57  51  43  36  30  24  18  12   9   6   1   0   0
  0   0   0   0   0   0   0   0   0   0   0   0   0   0   0   0   0   0   0   0   0   0   0   0
  0   0   0   0
  0   0   0   0   0   0   0   0   0   0   0   0   0   0   0   0   0   0   0   0   0   0   9   0
 39 144 161 163 164 162 159 147 134 129 130 119 119 127 126 131 142 143 147 157 152 135 132 141
157 158 153 136 112 100  90  87  86  78  66  61  51  45  39  35  27  19  14  10   7   2   0   0
  0   0   0   0   0   0   0   0   0   0   0   0   0   0   0   0   0   0   0   0   0   0   0   0
  0   0   0   0
  0   0   0   0   0   0   0   0   0   0   0   0   0   0   0   0   0   0   0   0   0   0   9   0
 38 141 159 165 166 160 155 144 137 134 133 131 127 132 138 137 145 151 144 146 155 133 128 142
149 153 148 127 116 106  92  85  87  85  71  63  56  49  44  39  27  19  15  10   7   3   0   0
  0   0   0   0   0   0   0   0   0   0   0   0   0   0   0   0   0   0   0   0   0   0   0   0
  0   0   0   0
  0   0   0   0   0   0   0   0   0   0   0   0   0   0   0   0   0   0   0   0   0   0   9   0
 41 141 151 158 162 154 147 147 143 141 135 128 124 124 140 153 154 155 152 136 143 137 128 138
142 155 145 117 113 105  98  91  84  79  72  65  59  52  46  40  28  21  16  11   7   4   0   0
  0   0   0   0   0   0   0   0   0   0   0   0   0   0   0   0   0   0   0   0   0   0   0   0
  0   0   0   0
  0   0   0   0   0   0   0   0   0   0   0   0   0   0   0   0   0   0   0   0   0   0   9   0
 40 139 151 148 154 151 148 148 144 144 134 121 121 120 131 149 151 148 155 141 132 134 131 129
127 147 148 121 109 101  99  93  82  77  74  68  60  52  46  42  30  22  17  12   8   5   1   0
  0   0   0   0   0   0   0   0   0   0   0   0   0   0   0   0   0   0   0   0   0   0   0   0
  0   0   0   0
  0   0   0   0   0   0   0   0   0   0   0   0   0   0   0   0   0   0   0   0   0   0   8   0
 36 137 158 151 156 159 160 152 148 147 138 129 123 121 128 141 144 145 153 142 138 135 133 123
113 133 138 119 103 100  97  92  83  77  72  68  61  55  49  44  33  24  18  13   8   5   0   0
  0   0   0   0   0   0   0   0   0   0   0   0   0   0   0   0   0   0   0   0   0   0   0   0
  0   0   0   0
  0   0   0   0   0   0   0   0   0   0   0   0   0   0   0   0   0   0   0   0   0   0   8   0
 39 133 154 163 159 166 169 160 160 158 148 138 133 129 133 142 147 140 141 142 145 148 141 131
122 132 121 113 106 100  98  95  87  79  74  67  62  57  51  43  33  26  19  14   9   5   1   0
  0   0   0   0   0   0   0   0   0   0   0   0   0   0   0   0   0   0   0   0   0   0   0   0
  0   0   0   0
  0   0   0   0   0   0   0   0   0   0   0   0   0   0   0   0   0   0   0   0   0   0  10   0
 48 144 147 157 159 158 165 163 157 156 147 139 147 149 144 144 149 148 138 138 147 146 137 129
139 140 113 106 106 101  98  96  90  86  79  71  68  60  51  42  33  28  23  14   9   6   2   0
  0   0   0   0   0   0   0   0   0   0   0   0   0   0   0   0   0   0   0   0   0   0   0   0
  0   0   0   0
  0   0   0   0   0   0   0   0   0   0   0   0   0   0   0   0   0   0   0   0   0   0  10   0
 44 145 152 150 149 147 155 160 154 146 144 139 139 149 152 154 150 142 141 137 138 132 132 135
138 136 120 111 108 102  95  95  92  85  77  71  65  59  50  42  35  30  23  15  10   6   2   0
  0   0   0   0   0   0   0   0   0   0   0   0   0   0   0   0   0   0   0   0   0   0   0   0
  0   0   0   0
  0   0   0   0   0   0   0   0   0   0   0   0   0   0   0   0   0   0   0   0   0   0   9   0
 40 139 153 153 148 140 149 156 159 151 143 143 135 135 142 149 159 142 141 150 141 132 137 145
140 130 120 128 114  98  96  94  91  83  74  68  64  58  49  41  37  31  21  14  10   6   2   0
  0   0   0   0   0   0   0   0   0   0   0   0   0   0   0   0   0   0   0   0   0   0   0   0
  0   0   0   0
  0   0   0   0   0   0   0   0   0   0   0   0   0   0   0   0   0   0   0   0   0   0   9   0
 40 139 149 147 155 153 146 149 160 161 145 141 138 132 135 141 147 144 136 137 141 136 128 130
139 137 121 122 121 106 104 103 101  91  81  74  66  56  50  43  38  31  20  14  10   6   2   0
  0   1   0   0   0   0   0   0   0   0   0   0   0   0   0   0   0   0   0   0   0   0   0   0
  0   0   0   0
  0   0   0   0   0   0   0   0   0   0   0   0   0   0   0   0   0   0   0   0   0   0   8   0
 37 136 150 146 154 167 159 151 151 160 152 143 141 136 133 143 145 138 136 125 129 137 125 119
127 132 121 107 113 111 112 113 106  99  86  75  68  61  53  44  36  29  19  13  10   6   2   0
  0   0   0   0   0   0   0   0   0   0   0   0   0   0   0   0   0   0   0   0   0   0   0   0
  0   0   0   0
  0   0   0   0   0   0   0   0   0   0   0   0   0   0   0   0   0   0   0   0   0   0   8   0
 39 133 145 147 151 161 171 166 159 162 157 140 142 137 130 136 141 137 137 130 128 130 125 118
117 120 114 106 105 102 105 108  97  97  89  75  71  62  49  43  36  27  18  13  10   7   2   0
  0   0   0   0   0   0   0   0   0   0   0   0   0   0   0   0   0   0   0   0   0   0   0   0
  0   0   0   0
  0   0   0   0   0   0   0   0   0   0   0   0   0   0   0   0   0   0   0   0   0   0   8   0
 40 134 143 146 153 159 169 164 156 168 167 147 138 134 129 135 140 136 139 139 138 127 121 118
114 120 115 107 108 106 100 101  95  90  88  82  68  57  52  44  33  25  19  13  10   6   1   0
  0   0   0   0   0   0   0   0   0   0   0   0   0   0   0   0   0   0   0   0   0   0   0   0
  0   0   0   0
  0   0   0   0   0   0   0   0   0   0   0   0   0   0   0   0   0   0   0   0   0   0   8   0
 40 128 134 138 150 159 162 152 143 154 166 159 148 134 130 135 139 137 141 143 142 133 122 115
114 121 123 116 116 115 108 106  97  88  88  82  66  59  50  38  30  24  19  13   9   6   1   0
  0   0   0   0   0   0   0   0   0   0   0   0   0   0   0   0   0   0   0   0   0   0   0   0
  0   0   0   0
  0   0   0   0   0   0   0   0   0   0   0   0   0   0   0   0   0   0   0   0   0   0   9   0
 41 137 142 134 142 150 157 148 145 150 147 156 158 148 138 133 134 139 143 145 145 139 126 117
114 114 120 123 126 127 121 108  95  96 100  86  66  52  40  35  29  23  18  12   9   5   0   0
  0   0   0   0   0   0   0   0   0   0   0   0   0   0   0   0   0   0   0   0   0   0   0   0
  0   0   0   0
  0   0   0   0   0   0   0   0   0   0   0   0   0   0   0   0   0   0   0   0   0   0   8   0
 36 131 144 135 138 142 149 148 146 155 145 136 136 140 144 140 140 146 148 146 146 149 141 137
125 118 123 121 127 132 121 102 102 113 110  84  55  45  40  33  27  22  16  12   9   4   0   0
  0   0   0   0   0   0   0   0   0   0   0   0   0   0   0   0   0   0   0   0   0   0   0   0
  0   0   0   0
  0   0   0   0   0   0   0   0   0   0   0   0   0   0   0   0   0   0   0   0   0   0   7   0
 33 128 139 130 127 131 143 147 144 146 141 134 129 124 136 145 144 141 142 138 140 142 141 149
140 134 135 128 126 120 114 102  96  95  92  79  56  48  41  31  25  21  15  10   8   3   0   0
  0   0   0   0   0   0   0   0   0   0   0   0   0   0   0   0   0   0   0   0   0   0   0   0
  0   0   0   0
  0   0   0   0   0   0   0   0   0   0   0   0   0   0   0   0   0   0   0   0   0   0   8   0
 37 132 135 126 133 128 132 140 148 141 136 137 133 124 121 131 143 137 129 125 129 135 136 138
149 150 138 133 124 102  99  93  84  75  75  74  60  46  39  31  25  19  13   9   7   1   0   0
  0   0   0   0   0   0   0   0   0   0   0   0   0   0   0   0   0   0   0   0   0   0   0   0
  0   0   0   0
  0   0   0   0   0   0   0   0   0   0   0   0   0   0   0   0   0   0   0   0   0   0   9   0
 42 137 140 131 136 137 128 126 138 140 135 138 139 135 129 132 138 133 127 125 127 132 138 135
143 152 146 128 116  96  86  83  80  80  74  61  54  44  36  30  23  16  11   8   5   0   0   0
  0   0   0   0   0   0   0   0   0   0   0   0   0   0   0   0   0   0   0   0   0   0   0   0
  0   0   0   0
  0   0   0   0   0   0   0   0   0   0   0   0   0   0   0   0   0   0   0   0   0   0  10   0
 48 146 147 138 137 139 137 134 141 144 140 139 137 138 136 133 135 134 133 136 140 130 125 125
133 135 133 121 111  99  85  78  73  69  66  58  52  45  35  25  18  13  10   9   3   0   0   0
  0   0   0   0   0   0   0   0   0   0   0   0   0   0   0   0   0   0   0   0   0   0   0   0
  0   0   0   0
  0   0   0   0   0   0   0   0   0   0   0   0   0   0   0   0   0   0   0   0   0   0  10   0
 42 152 159 140 136 136 138 141 150 154 153 150 138 133 133 120 125 131 134 142 142 138 133 126
120 120 119 115 112 105  83  72  68  60  61  57  46  39  28  19  16  14  10   7   1   0   0   0
  0   0   0   0   0   0   0   0   0   0   0   0   0   0   0   0   0   0   0   0   0   0   0   0
  0   0   0   0
  0   0   0   0   0   0   0   0   0   0   0   0   0   0   0   0   0   0   0   0   0   0   8   0
 31 138 157 148 142 133 129 135 144 154 157 145 143 134 130 125 124 119 129 142 143 144 143 142
133 124 120 114 114 110  97  78  66  64  64  58  43  30  23  20  18  14  12   5   0   0   0   0
  0   0   0   0   0   0   0   0   0   0   0   0   0   0   0   0   0   0   0   0   0   0   0   0
  0   0   0   0
  0   0   0   0   0   0   0   0   0   0   0   0   0   0   0   0   0   0   0   0   0   0   6   0
 30 116 135 144 145 136 134 138 139 148 156 145 128 120 124 129 137 142 146 141 136 137 132 133
141 135 122 108 105 102  88  85  83  83  74  68  55  30  25  25  22  19  14   1   0   0   0   0
  0   0   0   0   0   0   0   0   0   0   0   0   0   0   0   0   0   0   0   0   0   0   0   0
  0   0   0   0
  0   0   0   0   0   0   0   0   0   0   0   0   0   0   0   0   0   0   0   0   0   0   7   0
 35 121 127 135 149 139 137 146 139 136 144 145 132 125 119 122 127 136 146 146 131 123 119 120
126 129 124 111 103  96  80  79  83  86  76  66  52  27  29  30  25  24  12   0   0   0   0   0
  0   0   0   0   0   0   0   0   0   0   0   0   0   0   0   0   0   0   0   0   0   0   0   0
  0   0   0   0
  0   0   0   0   0   0   0   0   0   0   0   0   0   0   0   0   0   0   0   0   0   0   7   0
 35 125 136 131 142 145 136 139 136 131 138 142 136 140 137 134 131 129 133 139 126 121 113 113
116 116 114 114 107  94  79  63  53  54  61  44  22  22  28  27  26  20   3   0   0   0   0   0
  0   0   0   0   0   0   0   0   0   0   0   0   0   0   0   0   0   0   0   0   0   0   0   0
  0   0   0   0
  0   0   0   0   0   0   0   0   0   0   0   0   0   0   0   0   0   0   0   0   0   0   8   0
 41 127 130 127 133 143 144 134 129 131 136 140 143 149 147 142 139 131 127 133 125 118 109 100
105 106 104 100  89  81  64  50  46  52  50  31  17  19  22  25  23   8   0   0   0   0   0   0
  0   1   0   0   0   0   0   0   0   0   0   0   0   0   0   0   0   0   0   0   0   0   0   0
  0   0   0   0
  0   0   0   0   0   0   0   0   0   0   0   0   0   0   0   0   0   0   0   0   0   0  10   0
 44 142 144 133 127 129 131 126 127 134 137 147 151 146 133 127 122 117 118 121 111 101  99  94
 91  89  82  77  68  58  53  48  47  45  30  19  13  12  19  21  10   0   1   0   0   0   0   0
  0   1   0   0   0   0   0   0   0   0   0   0   0   0   0   0   0   0   0   0   0   0   0   0
  0   0   0   0
  0   0   0   0   0   0   0   0   0   0   0   0   0   0   0   0   0   0   0   0   0   0   9   0
 42 143 150 140 131 120 121 117 122 129 134 145 146 131 125 114 109 111 111 113 107 102  97  95
 91  83  70  61  61  52  42  37  34  29  20  14  10   9  10   6   0   0   0   0   0   0   0   0
  0   1   0   0   0   0   0   0   0   0   0   0   0   0   0   0   0   0   0   0   0   0   0   0
  0   0   0   0
  0   0   0   0   0   0   0   0   0   0   0   0   0   0   0   0   0   0   0   0   0   0   9   0
 41 137 143 136 132 128 120 118 121 121 128 133 125 121 123 114 109 105 100 100  96  95  89  81
 79  73  66  55  52  45  37  27  22  19  17  12   9   8   3   0   0   0   0   0   0   0   0   0
  0   1   1   0   0   0   0   0   0   0   0   0   0   0   0   0   0   0   0   0   0   0   0   0
  0   0   0   0
  0   0   0   0   0   0   0   0   0   0   0   0   0   0   0   0   0   0   0   0   0   0   7   0
 36 127 134 136 133 128 126 124 123 122 130 137 127 119 115 111 103  97  96  93  86  80  70  61
 58  62  58  45  35  32  27  22  19  15  13  10   8   4   0   0   0   0   0   0   0   1   1   1
  1   1   1   0   0   0   0   0   0   0   0   0   0   0   0   0   0   0   0   0   0   0   0   0
  0   0   0   0
  0   0   0   0   0   0   0   0   0   0   0   0   0   0   0   0   0   0   0   0   0   0   6   0
 34 117 123 124 140 127 118 127 123 123 128 127 126 118 114 111 104  94  89  85  79  72  61  56
 52  46  38  32  28  23  20  19  15  12  10   6   3   0   0   0   0   0   0   0   1   1   0   1
  1   1   1   0   0   0   0   0   0   0   0   0   0   0   0   0   0   0   0   0   0   0   0   0
  0   0   0   0
  0   0   0   0   0   0   0   0   0   0   0   0   0   0   0   0   0   0   0   0   0   0   6   0
 32 112 115 108 122 129 116 121 124 118 120 122 111 106 102  96  94  91  85  80  71  64  56  47
 40  36  32  27  22  18  15  12   9   7   5   2   0   0   0   0   0   1   1   1   1   1   1   0
  1   1   0   0   0   0   0   0   0   0   0   0   0   0   0   0   0   0   0   0   0   0   0   0
  0   0   0   0
  0   0   0   0   0   0   0   0   0   0   0   0   0   0   0   0   0   0   0   0   0   0   4   0
 24  96 104  98  94 106 103  98 105 105  98 109 104  91  83  75  71  71  78  67  56  49  41  34
 30  30  28  21  14  12  10   8   6   4   1   0   0   0   0   0   0   1   0   1   1   1   1   1
  1   1   1   0   0   0   0   0   0   0   0   0   0   0   0   0   0   0   0   0   0   0   0   0
  0   0   0   0
  0   0   0   0   0   0   0   0   0   0   0   0   0   0   0   0   0   0   0   0   0   0   3   0
 17  80  93  94  90  87  90  86  90  92  81  89  86  72  69  63  60  62  59  50  42  37  30  26
 23  21  18  15  10   9   7   5   3   1   0   0   0   1   1   0   0   0   0   0   1   1   1   1
  1   1   1   0   0   0   0   0   0   0   0   0   0   0   0   0   0   0   0   0   0   0   0   0
  0   0   0   0
  0   0   0   0   0   0   0   0   0   0   0   0   0   0   0   0   0   0   0   0   0   0   2   0
 14  68  81  88  86  83  81  77  74  70  70  70  67  60  54  49  47  47  43  37  30  28  24  21
 18  15  12  11  11   8   5   2   0   0   0   0   1   1   0   0   1   1   1   1   1   1   1   1
  1   1   1   0   0   0   0   0   0   0   0   0   0   0   0   0   0   0   0   0   0   0   0   0
  0   0   0   0
  0   0   0   0   0   0   0   0   0   0   0   0   0   0   0   0   0   0   0   0   0   0   1   0
  8  50  64  64  64  69  63  59  59  56  54  53  50  48  45  39  34  32  31  26  23  20  19  16
 14  12  10   9   7   4   1   0   0   1   1   0   1   1   0   1   1   1   1   1   1   1   1   1
  1   1   1   0   0   0   0   0   0   0   0   0   0   0   0   0   0   0   0   0   0   0   0   0
  0   0   0   0
  0   0   0   0   0   0   0   0   0   0   0   0   0   0   0   0   0   0   0   0   0   0   1   0
  6  39  45  44  46  51  50  45  46  48  44  40  38  35  33  32  29  27  23  20  18  16  13  12
 10   8   7   5   2   0   0   0   0   0   0   0   0   0   1   0   1   1   1   1   1   1   1   1
  0   1   1   0   0   0   0   0   0   0   0   0   0   0   0   0   0   0   0   0   0   0   0   0
  0   0   0   0
  0   0   0   0   0   0   0   0   0   0   0   0   0   0   0   0   0   0   0   0   0   0   0   0
  4  30  33  37  37  36  39  39  37  35  34  33  31  29  26  24  23  21  16  14  13  11   9   8
  7   5   3   1   0   0   0   0   0   0   0   0   0   0   0   0   0   0   0   0   0   0   0   0
  0   0   0   0   0   0   0   0   0   0   0   0   0   0   0   0   0   0   0   0   0   0   0   0
  0   0   0   0
  0   0   0   0   0   0   0   0   0   0   0   0   0   0   0   0   0   0   0   0   0   0   0   0
  2  19  24  28  27  27  25  27  28  27  25  25  23  20  19  18  16  14  12  11  10   8   6   5
  3   1   0   0   0   0   0   0   0   0   0   0   0   0   0   0   0   0   0   0   0   0   0   0
  0   0   0   0   0   0   0   0   0   0   0   0   0   0   0   0   0   0   0   0   0   0   0   0
  0   0   0   0
  0   0   0   0   0   0   0   0   0   0   0   0   0   0   0   0   0   0   0   0   0   0   0   0
  1  12  15  14  17  19  18  17  17  18  18  17  16  16  15  14  12  10   9   7   6   5   3   1
  0   0   0   0   0   0   0   0   0   0   0   0   0   0   0   0   0   0   0   0   0   0   0   0
  0   0   0   0   0   0   0   0   0   0   0   0   0   0   0   0   0   0   0   0   0   0   0   0
  0   0   0   0
