P2
# 8-bit pgm gray
100 100
255
  0   0   0   0   0   0   0   0   0   0   0   0   0   0   0   5   0   0 145 178 171 175 175 171
165 159 147 138 121  93  57  47  45  39  34  30  27  24  22  18  16  14  12  11  10   9   8   7
  6   5   3   4   4   4   4   4   4   4   4   4   4   4   4   4   4   4   4   4   4   4  14   0
 73 167 207 219 222 223 222 213 186 107   0  11   2   0   0   0   0   0   0   0   0   0   0   0
  0   0   0   0
  0   0   0   0   0   0   0   0   0   0   0   0   0   0   0   6   0   0 147 181 170 170 170 170
164 155 144 131 108  72  47  47  42  38  37  34  31  26  21  19  17  16  14  12  11  10   9   7
  6   6   4   3   3   3   3   3   3   4   4   4   4   4   4   4   4   4   3   3   3   4  14   0
 78 170 209 224 229 229 225 217 184 104   0  11   1   0   0   0   0   0   0   0   0   0   0   0
  0   0   0   0
  0   0   0   0   0   0   0   0   0   0   0   0   0   0   0   6   0   0 154 187 176 173 169 163
157 151 140 121  94  59  47  47  44  41  41  40  36  33  28  23  19  17  15  14  12  11  10   8
  7   6   6   4   3   3   3   3   3   3   3   3   4   4   4   3   3   3   3   3   3   4  14   0
 80 170 204 199 195 202 210 190 180  98   0  11   1   0   0   0   0   0   0   0   0   0   0   0
  0   0   0   0
  0   0   0   0   0   0   0   0   0   0   0   0   0   0   0   7   0   0 159 192 177 176 173 167
158 149 135 114  81  56  53  49  49  46  43  44  41  37  36  31  24  21  19  16  14  13  11   9
  8   7   6   6   4   3   3   3   3   3   3   3   3   3   3   3   3   3   3   3   3   4  12   0
 80 168 194 157 142 133 146 136 175  91   0  10   1   0   0   0   0   0   0   0   0   0   0   0
  0   0   0   0
  0   0   0   0   0   0   0   0   0   0   0   0   0   0   0   8   0   0 169 201 183 182 179 173
165 152 134 108  72  61  60  56  53  48  48  50  50  45  43  43  38  31  23  19  17  16  13  12
 10   8   7   6   6   4   3   3   3   3   3   3   3   3   3   3   3   3   3   3   3   4  11   0
 82 166 191 148 149 105  95 147 168  87   0  10   1   0   0   0   0   0   0   0   0   0   0   0
  0   0   0   0
  0   0   0   0   0   0   0   0   0   0   0   0   0   0   0   8   0   0 171 207 191 189 183 178
168 153 136 103  74  68  67  65  62  63  64  63  57  51  50  47  39  34  28  22  20  18  15  14
 11  10   9   7   6   6   4   3   3   3   3   3   3   3   3   3   3   3   3   3   2   3  11   0
 88 157 143 129 158 169 168 154 167  81   0  10   1   0   0   0   0   0   0   0   0   0   0   0
  0   0   0   0
  0   0   0   0   0   0   0   0   0   0   0   0   0   0   0   8   0   0 172 209 197 192 186 181
170 152 131  96  78  80  78  77  77  74  73  70  60  59  62  58  50  42  34  33  29  20  18  16
 13  11  10   9   8   7   6   4   3   3   3   3   3   3   3   3   3   3   2   2   2   3  10   0
 89 156 160 181 200 210 206 186 162  77   0  10   0   0   0   0   0   0   0   0   0   0   0   0
  0   0   0   0
  0   0   0   0   0   0   0   0   0   0   0   0   0   0   0   8   0   0 172 210 199 195 188 182
171 154 128 101  94  87  82  84  79  73  71  71  69  68  68  67  65  59  55  54  39  26  22  18
 15  13  11  10   9   7   6   6   4   2   2   3   3   2   3   3   3   3   2   2   2   3   7   0
 82 153 189 202 208 208 204 190 150  70   0   9   0   0   0   0   0   0   0   0   0   0   0   0
  0   0   0   0
  0   0   0   0   0   0   0   0   0   0   0   0   0   0   0   8   0   0 172 211 200 196 191 187
176 159 125 105 100  89  84  79  77  76  76  84  83  80  71  63  56  51  55  62  49  25  22  23
 18  15  14  12  10   8   7   7   5   3   2   2   2   2   2   2   2   2   2   2   2   3   4   0
 59 109 137 152 161 165 161 148 117  52   0   5   0   0   0   0   0   0   0   0   0   0   0   0
  0   0   0   0
  0   0   0   0   0   0   0   0   0   0   0   0   0   0   0   8   0   0 175 215 203 199 194 193
177 151 114 102 100  93  90  86  84  87  90  88  84  81  84  80  71  72  74  72  67  58  44  32
 26  19  17  14  13  10   9   7   6   5   3   2   2   2   2   2   2   2   2   2   2   2   2   2
  6  12  23  37  46  51  53  50  41  18   0   1   0   0   0   0   0   0   0   0   0   0   0   0
  0   0   0   0
  0   0   0   0   0   0   0   0   0   0   0   0   0   0   0   9   0   0 178 216 202 199 196 192
175 144 119 120 113 104 104 105 104  97  95  90  89 102 108 102  99  95  89  83  83  76  75  65
 51  44  34  25  15  13  12   9   7   6   5   3   2   2   2   2   2   2   1   1   2   2   2   2
  0   0   0   0   0   0   0   0   0   0   0   0   0   0   0   0   0   0   0   0   0   0   0   0
  0   0   0   0
  0   0   0   0   0   0   0   0   0   0   0   0   0   0   0   9   0   0 176 215 201 197 194 189
177 149 136 143 138 130 127 127 126 116 111 103  97 105 107 114 119 118 105  91  90  91  88  90
 74  50  49  41  25  20  15  11   9   7   6   5   2   2   2   2   2   2   2   2   1   1   2   2
  3   8  11  14  17  17  17  14   9   3   0   0   0   0   0   0   0   0   0   0   0   0   0   0
  0   0   0   0
  0   0   0   0   0   0   0   0   0   0   0   0   0   0   0   8   0   0 175 213 202 201 192 183
172 151 141 143 142 138 137 137 128 120 118 115 112 113 117 124 127 120 114 114 114 112 102 103
107  90  70  64  53  25  15  14  11   9   7   6   5   2   2   2   2   2   2   1   1   1   1   2
  2   2   4   6   3   4   4   4   3   2   0   0   0   0   0   0   0   0   0   0   0   0   0   0
  0   0   0   0
  0   0   0   0   0   0   0   0   0   0   0   0   0   0   0   8   0   0 175 213 200 199 189 174
159 138 133 136 140 133 132 132 129 124 129 129 131 127 118 120 124 125 130 137 144 134 122 117
129 138 128 115  80  46  38  26  16  12  10   7   6   4   2   2   2   2   1   1   1   1   1   1
  1   3  22  25   7   3   5   3   3   1   0   0   0   0   0   0   0   0   0   0   0   0   0   0
  0   0   0   0
  0   0   0   0   0   0   0   0   0   0   0   0   0   0   0   8   0   0 173 212 197 193 184 167
146 131 128 128 138 140 132 132 135 130 122 118 130 140 140 137 146 153 151 149 153 146 142 148
155 158 158 146 109  87  69  42  26  17  11   9   7   6   4   2   2   1   1   1   1   1   1   2
  0   7  31  26   6   2   4   9   4   0   0   0   0   0   0   0   0   0   0   0   0   0   0   0
  0   0   0   0
  0   0   0   0   0   0   0   0   0   0   0   0   0   0   0   8   0   0 173 210 196 193 182 158
131 124 124 121 136 149 147 150 146 140 133 134 144 154 160 158 168 173 169 166 168 163 161 173
176 168 167 161 141 127 102  70  47  33  23  13   9   9   7   3   1   1   1   1   1   1   1   1
  0   3  24  18   1   3   3  17   8   0   1   0   0   0   0   0   0   0   0   0   0   0   0   0
  0   0   0   0
  0   0   0   0   0   0   0   0   0   0   0   0   0   0   0   8   0   0 172 207 193 192 184 160
132 128 127 126 145 152 158 158 155 156 151 160 166 170 170 172 183 186 184 189 189 183 184 188
187 178 178 180 170 164 150 126 106  82  44  23  16  11  10   6   3   1   1   1   1   1   1   1
  2   1   7   9   2   2   2  17   8   0   1   0   0   0   0   0   0   0   0   0   0   0   0   0
  0   0   0   0
  0   0   0   0   0   0   0   0   0   0   0   0   0   0   0   8   0   0 167 202 187 182 175 154
134 136 130 140 157 160 159 157 166 175 169 163 169 178 181 183 189 192 201 202 197 193 196 193
191 187 187 189 187 182 178 171 152 124  89  49  23  15  13   8   5   2   1   1   1   1   1   1
  2   3   1   1   2   2   2  11   5   0   0   0   0   0   0   0   0   0   0   0   0   0   0   0
  0   0   0   0
  0   0   0   0   0   0   0   0   0   0   0   0   0   0   0   8   0   0 166 200 186 177 163 144
138 148 144 156 160 164 175 171 179 180 173 169 176 179 185 190 190 194 206 206 201 201 204 202
202 197 194 199 202 197 193 184 174 153 129  91  51  35  13  10   6   4   1   1   1   0   1   1
  1   2   2   2   2   2   2   2   2   1   0   0   0   0   0   0   0   0   0   0   0   0   0   0
  0   0   0   0
  0   0   0   0   0   0   0   0   0   0   0   0   0   0   0   8   0   0 164 195 181 175 162 146
141 147 142 155 162 166 171 160 175 185 186 187 190 193 197 200 197 204 210 208 207 208 211 210
207 205 204 211 216 210 201 189 184 171 156 130  98  62  18  14   8   6   3   1   1   0   0   1
  1   2   2   2   2   2   2   2   2   1   0   0   0   0   0   0   0   0   0   0   0   0   0   0
  0   0   0   0
  0   0   0   0   0   0   0   0   0   0   0   0   0   0   0   7   0   0 160 188 170 168 159 149
144 143 143 157 166 169 164 160 176 189 189 193 200 199 201 199 202 206 212 216 211 213 217 217
212 214 218 218 218 217 212 206 196 185 180 164 134  99  43   6  15   8   6   2   1   1   1   1
  1   1   2   2   2   2   2   2   2   1   0   0   0   0   0   0   0   0   0   0   0   0   0   0
  0   0   0   0
  0   0   0   0   0   0   0   0   0   0   0   0   0   0   0   7   0   0 157 186 167 166 158 149
144 144 155 170 169 168 169 170 174 184 186 189 195 199 198 196 199 201 208 211 206 212 219 220
218 222 224 224 224 221 222 218 211 201 197 188 165 135  92  43   5  15   8   4   1   0   0   0
  0   1   1   1   1   2   2   1   1   1   0   0   0   0   0   0   0   0   0   0   0   0   0   0
  0   0   0   0
  0   0   0   0   0   0   0   0   0   0   0   0   0   0   0   6   0   0 150 179 163 161 153 142
142 141 154 173 173 172 181 176 175 190 196 195 197 202 200 199 201 208 211 201 205 213 216 217
220 225 229 229 225 224 226 224 218 210 205 201 187 164 141 103  42   0  16   7   3   0   0   0
  0   1   1   1   1   1   1   1   1   0   0   0   0   0   0   0   0   0   0   0   0   0   0   0
  0   0   0   0
  0   0   0   0   0   0   0   0   0   0   0   0   0   0   0   6   0   0 149 178 159 153 148 144
148 142 153 163 164 174 184 181 177 192 196 197 199 203 208 205 206 211 211 208 203 208 214 215
218 221 227 229 224 224 224 223 220 211 204 208 198 175 163 146 104  38   0  10   6   2   0   0
  0   1   1   1   1   1   1   1   1   1   0   0   0   0   0   0   0   0   0   0   0   0   0   0
  0   0   0   0
  0   0   0   0   0   0   0   0   0   0   0   0   0   0   0   6   0   0 149 179 162 155 145 138
144 146 163 172 171 171 180 183 177 189 189 191 197 201 206 206 205 203 210 212 206 207 213 214
213 217 220 226 228 225 224 223 220 213 208 214 212 185 176 169 136  89  54  20   7   5   1   0
  1   1   1   1   1   1   1   1   1   0   0   0   0   0   0   0   0   0   0   0   0   0   0   0
  0   0   0   0
  0   0   0   0   0   0   0   0   0   0   0   0   0   0   0   6   0   0 151 181 163 158 145 137
143 149 162 174 174 171 179 183 183 191 191 193 197 203 199 203 209 201 197 198 202 210 214 219
218 220 222 223 228 230 231 230 223 215 213 220 219 196 190 178 147 116  90  40   1   9   2   0
  1   1   1   1   1   1   1   1   1   0   0   0   0   0   0   0   0   0   0   0   0   0   0   0
  0   0   0   0
  0   0   0   0   0   0   0   0   0   0   0   0   0   0   0   6   0   0 145 174 160 156 150 147
150 151 158 168 173 184 191 187 187 194 196 196 195 201 204 205 208 200 197 197 201 210 216 223
224 224 225 226 227 229 233 231 227 223 221 222 215 196 191 188 159 130  98  45   5  11   5   1
  0   1   1   1   1   1   1   1   1   0   0   0   0   0   0   0   0   0   0   0   0   0   0   0
  0   0   0   0
  0   0   0   0   0   0   0   0   0   0   0   0   0   0   0   5   0   0 138 166 152 149 143 140
146 150 162 170 177 187 190 187 190 196 195 194 195 208 213 211 210 206 208 209 211 214 219 224
228 229 230 232 229 229 233 231 230 230 227 223 215 205 199 193 179 146 103  47  14  14   7   3
  0   1   1   1   1   1   1   1   0   0   0   0   0   0   0   0   0   0   0   0   0   0   0   0
  0   0   0   0
  0   0   0   0   0   0   0   0   0   0   0   0   0   0   0   5   0   0 141 165 150 154 142 132
128 139 165 179 184 184 181 181 187 197 199 195 194 198 209 215 216 213 218 221 224 223 225 228
230 233 232 232 231 233 234 233 231 231 229 226 220 213 203 186 181 159 117  57  20  17   9   6
  1   0   0   0   0   0   0   0   0   0   0   0   0   0   0   0   0   0   0   0   0   0   0   0
  0   0   0   0
  0   0   0   0   0   0   0   0   0   0   0   0   0   0   0   5   0   0 139 164 154 152 142 140
136 140 148 166 175 174 181 182 184 189 193 203 204 191 201 214 217 218 221 225 227 227 228 229
230 232 230 230 232 235 235 233 231 231 230 225 223 218 200 179 167 153 123  87  46  23  11   8
  3   0   0   0   0   0   0   0   0   0   0   0   0   0   0   0   0   0   0   0   0   0   0   0
  0   0   0   0
  0   0   0   0   0   0   0   0   0   0   0   0   0   0   0   5   0   0 138 167 155 146 136 134
140 152 158 156 163 165 178 174 175 189 199 207 207 202 211 216 217 220 219 220 224 225 227 227
227 228 229 230 231 233 234 233 232 230 228 223 216 209 193 182 171 150 131 108  68  29  13  10
  6   2   0   0   0   0   0   0   0   0   0   0   0   0   0   0   0   0   0   0   0   0   0   0
  0   0   0   0
  0   0   0   0   0   0   0   0   0   0   0   0   0   0   0   6   0   0 145 171 159 153 144 139
138 149 161 163 174 176 178 174 177 186 198 200 201 206 210 215 219 223 222 220 219 218 220 227
225 226 230 230 231 234 234 233 232 230 226 224 216 204 197 188 177 163 148 119  70  30  19  12
  7   4   1   0   0   0   0   0   0   0   0   0   0   0   0   0   0   0   0   0   0   0   0   0
  0   0   0   0
  0   0   0   0   0   0   0   0   0   0   0   0   0   0   0   6   0   0 147 176 165 161 150 141
141 140 149 160 168 178 191 193 186 180 188 196 200 205 208 217 216 222 224 221 217 213 216 222
222 224 230 233 234 234 234 234 232 229 226 226 220 209 206 200 188 178 163 135  85  40  24  16
  9   6   2   0   0   0   0   0   0   0   0   0   0   0   0   0   0   0   0   0   0   0   0   0
  0   0   0   0
  0   0   0   0   0   0   0   0   0   0   0   0   0   0   0   5   0   0 142 173 161 154 143 134
140 140 139 151 162 171 182 192 191 190 188 193 195 203 214 223 220 219 220 222 224 221 224 223
218 222 228 232 233 233 233 233 231 229 226 223 222 213 209 208 204 197 184 145 100  61  33  18
 12   7   4   1   0   1   0   0   0   0   0   0   0   0   0   0   0   0   0   0   0   0   0   0
  0   0   0   0
  0   0   0   0   0   0   0   0   0   0   0   0   0   0   0   5   0   0 140 167 156 149 138 136
137 134 132 140 157 170 178 183 194 197 189 191 197 204 209 215 219 221 225 225 221 219 222 224
221 225 228 229 233 233 232 230 229 227 224 222 225 223 218 213 210 209 197 158 109  82  43  20
 15  10   6   2   0   1   0   0   0   0   0   0   0   0   0   0   0   0   0   0   0   0   0   0
  0   0   0   0
  0   0   0   0   0   0   0   0   0   0   0   0   0   0   0   6   0   0 144 173 165 158 140 138
141 138 139 150 153 159 175 178 181 194 198 196 201 212 213 213 216 223 226 224 218 219 223 227
227 226 231 230 231 233 233 230 227 223 221 224 225 225 225 221 218 217 202 167 125  84  51  24
 16  11   7   3   0   0   0   0   0   0   0   0   0   0   0   0   0   0   0   0   0   0   0   0
  0   0   0   0
  0   0   0   0   0   0   0   0   0   0   0   0   0   0   0   6   0   0 144 179 174 158 142 142
142 137 138 142 147 147 162 165 172 188 194 204 208 214 220 223 222 218 218 216 214 220 227 227
225 227 230 228 228 229 230 229 228 225 222 221 223 227 225 223 221 214 199 177 143  93  61  31
 20  12   8   4   1   0   0   0   0   0   0   0   0   0   0   0   0   0   0   0   0   0   0   0
  0   0   0   0
  0   0   0   0   0   0   0   0   0   0   0   0   0   0   0   6   0   0 147 182 168 155 137 131
133 134 137 137 138 138 143 149 162 182 188 197 201 202 213 220 217 212 210 210 213 220 227 227
224 224 227 225 223 225 226 230 229 229 224 217 218 230 230 224 219 210 201 186 157 113  78  52
 29  18  10   5   2   0   0   0   0   0   0   0   0   0   0   0   0   0   0   0   0   0   0   0
  0   0   0   0
  0   0   0   0   0   0   0   0   0   0   0   0   0   0   0   6   0   0 153 183 163 150 141 138
141 148 152 149 142 138 145 156 167 178 185 189 190 192 201 209 211 211 208 210 217 220 224 224
222 218 216 218 221 225 227 230 229 227 225 217 216 228 232 221 210 211 202 188 163 133  98  72
 44  23  12   7   4   0   0   0   0   0   0   0   0   0   0   0   0   0   0   0   0   0   0   0
  0   0   0   0
  0   0   0   0   0   0   0   0   0   0   0   0   0   0   0   6   0   0 154 185 165 146 139 139
145 157 160 159 155 152 152 159 167 170 181 192 196 201 201 205 211 209 202 201 212 212 215 216
214 214 211 210 217 225 228 228 227 229 229 222 219 224 227 219 210 214 203 187 163 144 119  89
 61  36  10   9   5   1   0   0   0   0   0   0   0   0   0   0   0   0   0   0   0   0   0   0
  0   0   0   0
  0   0   0   0   0   0   0   0   0   0   0   0   0   0   0   6   0   0 151 176 157 147 139 139
138 154 150 154 157 149 153 164 165 172 186 193 198 204 203 201 201 196 196 200 199 198 204 210
212 217 218 216 215 220 222 223 226 231 231 227 222 221 223 223 220 215 209 197 179 159 132 110
 85  56  12  10   6   2   0   0   0   0   0   0   0   0   0   0   0   0   0   0   0   0   0   0
  0   0   0   0
  0   0   0   0   0   0   0   0   0   0   0   0   0   0   0   6   0   0 146 172 152 146 140 136
143 150 151 159 164 145 146 161 166 167 187 200 203 203 196 191 188 190 196 201 194 194 204 213
211 213 223 226 219 214 219 223 226 228 231 230 222 222 223 219 213 212 213 206 195 176 144 136
110  61  16  13   6   3   0   0   0   0   0   0   0   0   0   0   0   0   0   0   0   0   0   0
  0   0   0   0
  0   0   0   0   0   0   0   0   0   0   0   0   0   0   0   6   0   0 145 171 148 143 146 145
146 146 160 171 178 172 162 164 173 172 183 199 199 192 187 188 193 193 194 194 196 202 209 216
216 218 223 223 221 218 222 224 225 226 229 228 222 221 219 216 208 206 212 210 197 175 161 148
119  60  14  15   7   3   0   0   0   0   0   0   0   0   0   0   0   0   0   0   0   0   0   0
  0   0   0   0
  0   0   0   0   0   0   0   0   0   0   0   0   0   0   0   6   0   0 152 178 152 140 142 161
163 149 158 168 178 181 173 177 181 180 184 191 193 194 193 194 198 194 198 200 197 204 212 216
217 217 219 220 217 215 221 227 228 228 230 231 226 221 214 215 214 202 206 211 197 174 165 152
117  48  21  14   7   4   0   0   0   0   0   0   0   0   0   0   0   0   0   0   0   0   0   0
  0   0   0   0
  0   0   0   0   0   0   0   0   0   0   0   0   0   0   0   6   0   0 150 175 151 139 131 147
162 152 154 164 173 177 176 175 172 167 182 188 197 206 203 189 191 191 193 197 195 202 212 216
216 214 217 221 217 214 221 226 228 230 230 230 230 227 218 218 221 207 203 208 192 169 157 149
106  31  28  13   8   4   1   0   0   0   0   0   0   0   0   0   0   0   0   0   0   0   0   0
  0   0   0   0
  0   0   0   0   0   0   0   0   0   0   0   0   0   0   0   5   0   0 141 166 153 151 135 130
134 140 138 151 166 172 177 181 182 175 170 173 183 198 208 202 199 200 198 198 199 205 210 216
217 220 222 221 216 216 222 223 225 226 224 223 228 227 225 222 222 219 211 210 192 171 166 140
 97  55  31  15   8   5   1   0   0   0   0   0   0   0   0   0   0   0   0   0   0   0   0   0
  0   0   0   0
  0   0   0   0   0   0   0   0   0   0   0   0   0   0   0   5   0   0 134 158 150 161 159 143
138 148 146 147 154 162 174 181 188 191 176 171 170 181 203 216 215 213 213 204 204 208 213 217
219 218 218 220 218 217 217 215 218 221 220 223 228 228 229 226 218 219 214 209 195 177 168 145
108  68  32  15   8   6   2   0   0   0   0   0   0   0   0   0   0   0   0   0   0   0   0   0
  0   0   0   0
  0   0   0   0   0   0   0   0   0   0   0   0   0   0   0   4   0   0 124 148 139 140 153 155
148 146 154 157 156 165 175 181 180 179 179 179 176 184 204 213 211 209 207 205 211 211 215 218
216 209 211 215 212 216 214 208 207 220 223 221 226 229 226 223 216 212 208 199 190 178 165 148
114  72  29  13  11   7   3   0   0   0   0   0   0   0   0   0   0   0   0   0   0   0   0   0
  0   0   0   0
  0   0   0   0   0   0   0   0   0   0   0   0   0   0   0   4   0   0 123 147 134 125 133 145
138 144 157 158 156 163 169 170 179 176 175 187 185 188 207 212 209 208 210 215 214 211 215 221
216 211 214 210 204 209 208 205 209 219 223 215 216 227 224 218 214 207 197 189 185 187 168 145
109  57  26  14  10   6   3   0   0   0   0   0   0   0   0   0   0   0   0   0   0   0   0   0
  0   0   0   0
  0   0   0   0   0   0   0   0   0   0   0   0   0   0   0   4   0   0 126 157 145 134 131 138
123 126 149 152 151 156 163 173 182 183 185 188 190 194 204 209 209 210 216 215 204 200 204 211
213 207 205 199 199 202 207 206 209 219 221 220 218 222 226 222 217 211 205 201 192 188 174 143
 91  38  27  14  10   6   3   0   0   0   0   0   0   0   0   0   0   0   0   0   0   0   0   0
  0   0   0   0
  0   0   0   0   0   0   0   0   0   0   0   0   0   0   0   4   0   0 123 152 146 146 140 141
128 116 123 133 142 148 154 169 175 183 191 192 190 195 200 203 203 206 213 208 203 192 193 204
208 208 210 201 197 206 207 205 209 219 226 227 227 221 223 222 221 223 220 213 196 179 171 146
 89  33  25  14  11   7   4   0   0   0   0   0   0   0   0   0   0   0   0   0   0   0   0   0
  0   0   0   0
  0   0   0   0   0   0   0   0   0   0   0   0   0   0   0   3   2   0 107 145 138 140 140 140
134 116 104 107 128 137 131 142 152 166 183 185 179 186 204 206 207 206 207 206 203 201 206 206
205 206 209 214 211 215 215 217 222 226 226 225 225 222 219 221 222 220 223 213 198 180 160 144
 97  31  22  16  11   6   4   0   0   0   0   0   0   0   0   0   0   0   0   0   0   0   0   0
  0   0   0   0
  0   0   0   0   0   0   0   0   0   0   0   0   0   0   0   3   0   0 103 134 134 127 141 145
136 118 108  96  98 120 128 135 138 144 158 163 159 160 186 202 209 211 212 215 213 213 214 212
212 213 216 218 216 222 227 227 228 232 229 224 224 222 220 215 212 216 216 209 202 180 153 130
 92  44  20  16  11   6   4   0   0   0   0   0   0   0   0   0   0   0   0   0   0   0   0   0
  0   0   0   0
  0   0   0   0   0   0   0   0   0   0   0   0   0   0   0   3   0   0 109 127 134 139 135 155
157 122 107 117 106 102 124 136 134 142 150 155 155 159 164 179 201 219 224 223 220 222 223 221
220 217 217 219 218 220 226 224 223 224 223 223 221 222 222 211 209 218 214 206 203 184 142 126
 99  59  25  21  12   6   3   0   0   0   0   0   0   0   0   0   0   0   0   0   0   0   0   0
  0   0   0   0
  0   0   0   0   0   0   0   0   0   0   0   0   0   0   0   3   0   0 104 126 120 142 139 126
138 143 121 105 119 116 115 121 128 140 154 159 155 161 172 167 178 206 223 225 223 222 222 217
215 217 217 213 213 210 211 218 220 219 223 225 223 221 219 215 219 221 216 203 194 192 157 137
106  68  39  23  14   7   3   0   0   0   0   0   0   0   0   0   0   0   0   0   0   0   0   0
  0   0   0   0
  0   0   0   0   0   0   0   0   0   0   0   0   0   0   0   2   0   0  98 124 124 134 141 124
106 121 139 122 111 125 132 127 132 140 149 163 167 168 181 181 172 183 200 215 216 216 217 213
213 211 209 200 201 204 206 211 220 221 221 222 220 218 216 215 220 222 218 199 193 196 179 159
121  70  45  32  17   6   3   0   0   0   0   0   0   0   0   0   0   0   0   0   0   0   0   0
  0   0   0   0
  0   0   0   0   0   0   0   0   0   0   0   0   0   0   0   3   0   0 104 124 122 131 127 131
125 110 116 128 128 127 137 146 146 148 150 158 167 171 181 185 178 190 195 197 204 202 203 207
209 204 197 193 193 198 212 215 218 220 221 220 214 214 213 212 216 220 218 209 206 196 182 167
142  95  62  38  15   6   3   0   0   0   0   0   0   0   0   0   0   0   0   0   0   0   0   0
  0   0   0   0
  0   0   0   0   0   0   0   0   0   0   0   0   0   0   0   3   0   0 104 126 116 117 117 124
125 122 118 120 122 135 138 147 155 161 161 167 172 173 176 185 195 203 208 206 206 206 205 206
209 203 198 200 204 203 213 223 223 223 221 216 213 216 214 208 207 208 210 211 206 190 171 161
143 120  79  36  13   6   3   0   0   0   0   0   0   0   0   0   0   0   0   0   0   0   0   0
  0   0   0   0
  0   0   0   0   0   0   0   0   0   0   0   0   0   0   0   3   0   0 109 131 112 106 115 113
116 114 111 126 125 122 146 163 153 154 163 170 165 166 182 192 200 209 214 216 213 212 215 213
215 212 207 212 212 208 214 224 224 216 208 210 211 212 208 199 200 196 195 201 193 188 169 152
148 117  68  39   8   7   3   0   0   0   0   0   0   0   0   0   0   0   0   0   0   0   0   0
  0   0   0   0
  0   0   0   0   0   0   0   0   0   0   0   0   0   0   0   3   0   0 108 136 116  97 104  98
100 116 115 124 132 127 132 160 172 158 157 165 162 162 174 190 201 212 215 217 219 220 218 210
209 209 207 208 212 212 216 218 221 215 208 206 199 196 202 201 201 196 182 183 181 181 181 152
140 113  61  26   6   7   2   0   0   0   0   0   0   0   0   0   0   0   0   0   0   0   0   0
  0   0   0   0
  0   0   0   0   0   0   0   0   0   0   0   0   0   0   0   3   0   0 106 121 104  95  92  93
 91 108 134 140 135 134 138 148 170 174 171 169 164 164 169 187 202 209 212 212 215 217 213 211
211 208 206 206 210 210 215 217 216 211 206 209 203 202 212 205 192 194 184 173 174 166 180 163
137 118  58   8  11   7   2   0   0   0   0   0   0   0   0   0   0   0   0   0   0   0   0   0
  0   0   0   0
  0   0   0   0   0   0   0   0   0   0   0   0   0   0   0   2   0   0  94 110  87  93  90  83
 83  98 128 144 153 143 145 157 162 168 171 175 172 168 175 185 194 202 205 205 205 201 198 204
210 206 201 202 204 207 214 217 211 209 212 211 204 208 214 208 193 180 182 174 163 145 158 156
139 108  43  13  12   8   2   0   0   0   0   0   0   0   0   0   0   0   0   0   0   0   0   0
  0   0   0   0
  0   0   0   0   0   0   0   0   0   0   0   0   0   0   0   2   0   0  83  98  81  78  91  85
 80  89 120 140 162 166 142 149 165 175 173 169 166 168 172 182 185 187 198 204 205 199 189 186
198 202 195 200 209 213 209 205 203 203 210 215 213 213 210 210 201 171 175 175 157 138 143 150
129  86  43  16  13   9   2   0   0   0   0   0   0   0   0   0   0   0   0   0   0   0   0   0
  0   0   0   0
  0   0   0   0   0   0   0   0   0   0   0   0   0   0   0   1   0   0  74  89  83  76  83  95
 87  77  96 128 152 177 160 147 166 174 182 178 173 179 184 186 185 177 187 200 202 203 200 193
197 201 203 210 215 216 206 196 199 203 213 222 224 219 213 210 197 177 175 161 152 144 153 145
115  76  38  16  15   9   1   0   0   0   0   0   0   0   0   0   0   0   0   0   0   0   0   0
  0   0   0   0
  0   0   0   0   0   0   0   0   0   0   0   0   0   0   0   1   1   0  65  84  82  88  84  89
 95  89  75 100 136 163 185 172 177 180 178 186 191 194 206 209 196 183 184 196 205 210 210 209
208 202 201 211 208 207 213 213 209 206 208 213 217 215 213 209 193 185 185 167 152 150 161 142
105  68  32  19  14   8   1   0   0   0   0   0   0   0   0   0   0   0   0   0   0   0   0   0
  0   0   0   0
  0   0   0   0   0   0   0   0   0   0   0   0   0   0   0   1   1   0  51  73  78  76  82  80
 88  90  87  88 104 130 177 195 182 190 189 185 194 205 213 218 208 196 195 196 202 211 213 215
214 213 208 205 199 196 207 215 211 207 204 203 205 208 208 203 197 188 180 178 164 158 160 133
 83  58  31  18  14   6   0   0   0   0   0   0   0   0   0   0   0   0   0   0   0   0   0   0
  0   0   0   0
  0   0   0   0   0   0   0   0   0   0   0   0   0   0   0   1   0   0  47  61  68  67  68  70
 72  81  88  97  98 101 132 181 188 185 195 195 196 207 213 214 212 212 211 212 206 206 215 219
214 211 210 200 197 199 205 208 204 209 214 214 215 214 206 196 192 188 179 174 163 164 157  99
 51  53  31  16  12   3   0   0   0   0   0   0   0   0   0   0   0   0   0   0   0   0   0   0
  0   0   0   0
  0   0   0   0   0   0   0   0   0   0   0   0   0   0   0   1   0   0  55  61  52  61  64  68
 69  73  81  95 115 113 121 149 186 184 188 196 199 205 210 213 208 214 213 211 212 211 218 223
219 209 202 199 200 205 205 202 202 206 213 219 220 212 202 191 189 192 185 173 165 160 129  72
 56  54  28  13   7   1   0   0   0   0   0   0   0   0   0   0   0   0   0   0   0   0   0   0
  0   0   0   0
  0   0   0   0   0   0   0   0   0   0   0   0   0   0   0   1   0   0  48  63  53  51  55  67
 75  74  71  80 121 145 144 142 171 195 189 193 200 205 209 216 215 215 213 212 216 215 217 219
217 211 203 198 201 211 212 204 202 204 207 213 214 209 205 200 193 183 164 152 145 121  91  72
 64  49  18   9   2   0   0   0   0   0   0   0   0   0   0   0   0   0   0   0   0   0   0   0
  0   0   0   0
  0   0   0   0   0   0   0   0   0   0   0   0   0   0   0   0   0   0  42  55  49  48  49  59
 73  81  77  72  95 142 163 151 148 181 196 192 201 204 205 211 215 218 218 218 221 219 220 219
215 214 212 202 194 201 209 208 204 208 210 206 210 208 203 197 183 160 135 123 112  81  64  62
 60  37  13   5   0   0   0   0   0   0   0   0   0   0   0   0   0   0   0   0   0   0   0   0
  0   0   0   0
  0   0   0   0   0   0   0   0   0   0   0   0   0   0   0   0   0   0  35  51  45  46  51  54
 67  81  85  82  85 108 147 158 154 153 181 198 201 200 198 204 210 213 219 220 221 223 224 223
219 212 208 205 195 194 204 210 214 215 211 206 200 189 179 175 165 146 122 109  97  73  57  59
 46  22   9   1   0   0   0   0   0   0   0   0   0   0   0   0   0   0   0   0   0   0   0   0
  0   0   0   0
  0   0   0   0   0   0   0   0   0   0   0   0   0   0   0   1   0   9  49  40  44  43  46  50
 57  68  75  82  89 106 121 143 164 165 171 197 207 205 205 208 209 208 210 214 219 222 222 220
219 212 205 203 202 200 199 202 205 207 203 187 178 174 164 155 143 132 114 101  90  81  67  58
 32  14   3   0   0   0   0   0   0   0   0   0   0   0   0   0   0   0   0   0   0   0   0   0
  0   0   0   0
  0   0   0   0   0   0   0   0   0   0   0   0   0   0   0   3   0  16  82  45  28  45  45  46
 48  60  68  78  85 105 127 127 148 171 180 187 203 209 212 216 218 213 202 197 202 211 214 207
204 205 205 205 206 205 201 196 194 191 179 166 159 156 158 144 119 114 110  93  74  63  57  43
 24   7   0   0   0   0   0   0   0   0   0   0   0   0   0   0   0   0   0   0   0   0   0   0
  0   0   0   0
  0   0   0   0   0   0   0   0   0   0   0   0   0   0   0   3   0   4  98  65   0  38  43  45
 45  53  64  76  84  90 124 141 136 157 181 184 188 203 209 211 216 217 212 203 196 203 207 204
202 200 202 200 195 196 200 197 197 194 183 172 168 168 164 151 133 108  96  87  57  50  44  32
 16   2   0   0   0   0   0   0   0   0   0   0   0   0   0   0   0   0   0   0   0   0   0   0
  0   0   0   0
  0   0   0   0   0   0   0   0   0   0   0   0   0   0   0   4   0   0 110  86   0  29  32  39
 41  50  54  59  71  78  97 132 146 159 181 190 189 190 196 197 205 213 212 207 206 200 193 203
211 210 206 201 190 190 195 192 199 199 188 173 171 161 144 133 105  80  86  84  59  47  35  21
  5   0   0   0   0   0   0   0   0   0   0   0   0   0   0   0   0   0   0   0   0   0   0   0
  0   0   0   0
  0   0   0   0   0   0   0   0   0   0   0   0   0   0   0   4   0   0 119 109  16  21  25  30
 32  38  46  44  55  65  79 100 125 144 172 188 195 196 189 195 198 200 201 198 200 195 189 195
211 215 214 212 201 197 188 181 178 172 162 148 139 126 102  93  76  67  69  66  49  39  24   9
  1   0   0   0   0   0   0   0   0   0   0   0   0   0   0   0   0   0   0   0   0   0   0   0
  0   0   0   0
  0   0   0   0   0   0   0   0   0   0   0   0   0   0   0   4   0   0 122 127  48  11  23  22
 27  26  31  39  45  49  68  76  85 115 137 157 174 190 187 186 191 188 186 192 196 197 198 195
201 207 212 215 207 192 180 172 172 175 154 122 105  89  73  65  56  41  31  31  23  20  13   3
  0   0   0   0   0   0   0   0   0   0   0   0   0   0   0   0   0   0   0   0   0   0   0   0
  0   0   0   0
  0   0   0   0   0   0   0   0   0   0   0   0   0   0   0   3   0   0 115 134  76  13  19  22
 25  28  25  32  37  43  52  66  60  85 110 121 140 150 163 170 181 181 176 183 191 195 196 194
193 193 195 196 196 181 163 158 162 164 146 121  99  72  58  52  39  26  23  16  13  11   6   1
  0   0   0   0   0   0   0   0   0   0   0   0   0   0   0   0   0   0   0   0   0   0   0   0
  0   0   0   0
  0   0   0   0   0   0   0   0   0   0   0   0   0   0   0   3   0   0 105 128 100  52  12  22
 21  22  21  24  29  35  41  51  57  56  90  99 106 110 112 129 151 174 172 169 174 180 189 190
192 188 181 185 186 170 143 132 142 144 126 112  97  64  46  36  24  17  14  15  13   7   1   0
  0   0   0   0   0   0   0   0   0   0   0   0   0   0   0   0   0   0   0   0   0   0   0   0
  0   0   0   0
  0   0   0   0   0   0   0   0   0   0   0   0   0   0   0   3   0   0 107 133 120  88  21  12
 15  11  15  15  19  27  31  34  47  42  58  81  86  88  86  92  98 136 164 167 163 173 174 171
172 167 157 159 158 140 112  98 103 108  94  86  71  42  22  17  13  10  10  12   7   2   0   0
  0   0   0   0   0   0   0   0   0   0   0   0   0   0   0   0   0   0   0   0   0   0   0   0
  0   0   0   0
  0   0   0   0   0   0   0   0   0   0   0   0   0   0   0   3   0   0 113 140 122  98  41   0
 10   7   9  12  12  19  25  27  34  41  44  62  70  66  63  68  79  98 129 147 156 169 158 136
132 124 114 110 111 109  96  84  62  43  39  31  22  17  15  14  10   8  10   7   2   0   0   0
  0   0   0   0   0   0   0   0   0   0   0   0   0   0   0   0   0   0   0   0   0   0   0   0
  0   0   0   0
  0   0   0   0   0   0   0   0   0   0   0   0   0   0   0   3   0   0 111 134 113  91  47   0
  7   6   7   8  10  13  18  23  26  30  38  42  52  54  51  52  70  85  96 114 134 153 141 118
111 111 105  97  86  82  80  58  36  27  22  18  18  14  11  11   9   8   6   2   0   0   0   0
  0   0   0   0   0   0   0   0   0   0   0   0   0   0   0   0   0   0   0   0   0   0   0   0
  0   0   0   0
  0   0   0   0   0   0   0   0   0   0   0   0   0   0   0   2   2   0  93 126 111  83  39   0
  6   4   5   6   7   8  11  15  19  18  22  29  36  43  46  49  53  60  68  82  97 112 120 115
105 100  95  81  73  63  42  28  24  21  19  16  12  10   9   8   6   5   2   0   0   0   0   0
  0   0   0   0   0   0   0   0   0   0   0   0   0   0   0   0   0   0   0   0   0   0   0   0
  0   0   0   0
  0   0   0   0   0   0   0   0   0   0   0   0   0   0   0   0   2   0  39  81  96  81  36   2
  5   3   3   4   5   6   8  10  12  14  14  20  24  27  34  39  35  34  44  51  49  51  65  77
 80  70  59  46  43  42  23  21  19  15  12  10   9   8   7   5   3   1   0   0   0   0   0   0
  0   0   0   0   0   0   0   0   0   0   0   0   0   0   0   0   0   0   0   0   0   0   0   0
  0   0   0   0
  0   0   0   0   0   0   0   0   0   0   0   0   0   0   0   0   0   1   1   0  41  57  35   7
  5   2   3   3   4   5   6   7  10  11  12  14  18  18  20  27  31  29  27  32  34  34  35  35
 42  44  39  37  32  22  19  15  13  11   9   8   7   6   5   2   0   0   0   0   0   0   0   0
  0   0   0   0   0   0   0   0   0   0   0   0   0   0   0   0   0   0   0   0   0   0   0   0
  0   0   0   0
  0   0   0   0   0   0   0   0   0   0   0   0   0   0   0   0   0   0  14  18   4  11  16  10
  6   2   3   3   3   4   5   6   7   8  10  10  13  16  16  19  21  21  21  19  21  24  27  27
 25  28  27  26  25  20  16  13  11   9   7   6   6   4   2   0   0   0   0   0   0   0   0   0
  0   0   0   0   1   0   0   0   0   0   0   0   0   0   0   0   0   0   0   0   0   0   0   0
  0   0   0   0
  0   0   0   0   0   0   0   0   0   0   0   0   0   0   0   0   0   0  10  14  16  14   6   3
  3   1   2   2   2   3   3   4   5   6   7   8   8  11  12  12  13  14  16  16  17  18  18  17
 17  17  16  14  12  10   9   9   7   6   6   5   3   1   1   0   0   0   0   0   0   0   0   0
  0   0   0   0   8   1   0   0   0   0   0   0   0   0   0   0   0   0   0   0   0   0   0   0
  0   0   0   0
  0   0   0   0   0   0   0   0   0   0   0   0   0   0   0   0   0   0  11  14  12  14   9   2
  1   0   0   1   2   2   3   3   4   5   5   6   6   8   9   9  10  10  11  12  13  13  13  12
 12  11  10  10   8   7   6   6   5   5   3   2   1   1   0   0   0   0   0   0   0   0   0   0
  0   0   0   0   0   0   0   0   0   0   0   0   0   0   0   0   0   0   0   0   0   0   0   0
  0   0   0   0
  0   0   0   0   0   0   0   0   0   0   0   0   0   0   0   0   0   0  11  15  12  11   9   4
  1   0   0   0   0   0   1   2   3   3   4   4   4   5   6   6   7   7   8   9   9   9   9   9
  8   8   7   7   6   5   5   4   3   2   1   1   1   1   0   0   0   0   0   0   0   0   0   0
  0   0   0   0   0   0   0   0   0   0   0   0   0   0   0   0   0   0   0   0   0   0   0   0
  0   0   0   0
  0   0   0   0   0   0   0   0   0   0   0   0   0   0   0   0   0   0  11  15  11  10   8   5
  2   0   0   0   0   0   0   0   1   2   2   3   3   3   4   4   5   5   5   6   6   6   6   6
  6   6   5   5   4   3   2   2   1   1   1   1   1   1   1   0   0   0   0   0   0   0   0   0
  0   0   0   0   0   0   0   0   0   0   0   0   0   0   0   0   0   0   0   0   0   0   0   0
  0   0   0   0
  0   0   0   0   0   0   0   0   0   0   0   0   0   0   0   0   0   0  13  16  11   9   7   6
  3   1   0   0   0   0   0   0   0   0   0   1   1   2   3   3   4   4   4   4   4   5   4   4
  4   4   3   2   1   1   0   0   1   1   1   0   1   0   0   0   0   0   0   0   0   0   0   0
  0   0   0   0   0   0   0   0   0   0   0   0   0   0   0   0   0   0   0   0   0   0   0   0
  0   0   0   0
  0   0   0   0   0   0   0   0   0   0   0   0   0   0   0   0   0   0  13  15  11  10   7   5
  3   1   0   0   0   0   0   0   0   0   0   0   0   0   0   1   1   1   1   2   2   2   2   2
  1   1   1   1   1   0   1   1   1   0   0   0   0   0   0   0   0   0   0   0   0   0   0   0
  0   0   0   0   0   0   0   0   0   0   0   0   0   0   0   0   0   0   0   0   0   0   0   0
  0   0   0   0
  0   0   0   0   0   0   0   0   0   0   0   0   0   0   0   0   0   0  13  16  12  10   7   5
  4   2   0   0   0   0   0   0   0   0   0   0   0   0   0   0   0   0   0   0   1   1   1   1
  1   1   1   1   1   0   1   1   1   1   0   0   0   0   0   0   0   0   0   0   0   0   0   0
  0   0   0   0   0   0   0   0   0   0   0   0   0   0   0   0   0   0   0   0   0   0   0   0
  0   0   0   0
  0   0   0   0   0   0   0   0   0   0   0   0   0   0   0   0   0   0  13  16  12  10   8   6
  5   7   2   0   0   0   0   0   0   0   0   0   0   0   0   0   0   1   0   1   1   1   1   1
  1   1   1   1   1   0   0   0   1   0   0   0   0   0   0   0   0   0   0   0   0   0   0   0
  0   0   0   0   0   0   0   0   0   0   0   0   0   0   0   0   0   0   0   0   0   0   0   0
  0   0   0   0
  0   0   0   0   0   0   0   0   0   0   0   0   0   0   0   0   0   0  13  15  11  10   8   6
  4   6   2   0   0   0   0   0   0   0   0   0   0   0   0   0   0   0   0   0   0   1   1   1
  0   0   0   1   0   0   0   0   0   0   0   0   0   0   0   0   0   0   0   0   0   0   0   0
  0   0   0   0   0   0   0   0   0   0   0   0   0   0   0   0   0   0   0   0   0   0   0   0
  0   0   0   0
  0   0   0   0   0   0   0   0   0   0   0   0   0   0   0   0   0   0  14  16  12  10   9   7
  4   2   1   0   0   0   0   0   0   0   0   0   0   0   0   0   0   0   0   0   1   1   1   1
  1   0   0   0   0   0   0   0   0   0   0   0   0   0   0   0   0   0   0   0   0   0   0   0
  0   0   0   0   0   0   0   0   0   0   0   0   0   0   0   0   0   0   0   0   0   0   0   0
  0   0   0   0
  0   0   0   0   0   0   0   0   0   0   0   0   0   0   0   0   0   0  14  17  13  10   8   6
  5   3   2   0   0   0   0   0   0   0   0   0   0   0   0   0   0   0   0   0   1   1   1   1
  1   1   0   0   0   0   0   0   0   0   0   0   0   0   0   0   0   0   0   0   0   0   0   0
  0   0   0   0   0   0   0   0   0   0   0   0   0   0   0   0   0   0   0   0   0   0   0   0
  0   0   0   0
  0   0   0   0   0   0   0   0   0   0   0   0   0   0   0   0   0   0  13  17  13  10   7   6
  4   2   1   0   0   0   0   0   0   0   0   0   0   0   0   0   0   0   0   0   0   0   0   0
  0   0   0   0   0   0   0   0   0   0   0   0   0   0   0   0   0   0   0   0   0   0   0   0
  0   0   0   0   0   0   0   0   0   0   0   0   0   0   0   0   0   0   0   0   0   0   0   0
  0   0   0   0
  0   0   0   0   0   0   0   0   0   0   0   0   0   0   0   0   0   0  13  16  12  10   7   6
  4   2   1   0   0   0   0   0   0   0   0   0   0   0   0   0   0   0   0   0   0   0   0   0
  0   0   0   0   0   0   0   0   0   0   0   0   0   0   0   0   0   0   0   0   0   0   0   0
  0   0   0   0   0   0   0   0   0   0   0   0   0   0   0   0   0   0   0   0   0   0   0   0
  0   0   0   0
  0   0   0   0   0   0   0   0   0   0   0   0   0   0   0   0   0   0  14  17  12  10   7   5
  4   2   1   0   0   0   0   0   0   0   0   0   0   0   0   0   0   0   0   0   0   0   0   0
  0   0   0   0   0   0   0   0   0   0   0   0   0   0   0   0   0   0   0   0   0   0   0   0
  0   0   0   0   0   0   0   0   0   0   0   0   0   0   0   0   0   0   0   0   0   0   0   0
  0   0   0   0
