P2
# 8-bit pgm gray
100 100
255
  0   0   0   0   0   0   0   0   0   0   0   0   0   0   0   2   0   0  81 102  99  99  99  99
 98  98  98  98  97 103 108 106  95 103 113 108  94  73  50  45  41  36  31  27  25  23  23  25
 29  37  44  52  62  72  81  85  89  96 101 108 112 106 104 107 128 146 153 163 169 171 174 178
182 182 179 178 181 182 182 182 192 163   0   0   8   0   0   0   0   0   0   0   0   0   0   0
  0   0   0   0
  0   0   0   0   0   0   0   0   0   0   0   0   0   0   0   0   0   4   0   0   0   0   0   0
  0   0   0   0   0   0   0   7   0   0   0   0   0   0   0   0   0   0   0   0   0   5  11  18
 28  39  46  55  66  76  87  94 100 104 110 128 122 115 118 116 128 154 164 174 183 188 191 194
197 199 197 197 200 200 202 201 210 179   0   0  10   0   0   0   0   0   0   0   0   0   0   0
  0   0   0   0
  0   0   0   0   0   0   0   0   0   0   0   0   0   0   0   0   0   0  21  29  27  28  28  28
 27  27  28  25  32  61  70  59  24  24  28  61  34  13  12   9   8   7   6   5   8  11  15  19
 26  35  45  54  63  74  83  92  98 101 106 117 111 111 112 115 118 136 153 163 174 179 182 187
190 188 191 191 191 192 194 195 204 174   0   0  10   0   0   0   0   0   0   0   0   0   0   0
  0   0   0   0
  0   0   0   0   0   0   0   0   0   0   0   0   0   0   0   0   0   0   0   0   0   0   0   0
  0   0   1   0  26  47   0   0   0   0   2  49  21   0   3   1   1   2   2   2   5   9  13  19
 25  34  45  54  64  75  83  89  98 102 107 109 108 111 112 116 119 126 146 159 170 177 183 186
188 188 190 191 192 192 195 195 203 174   0   0  10   0   0   0   0   0   0   0   0   0   0   0
  0   0   0   0
  0   0   0   0   0   0   0   0   0   0   0   0   0   0   0   0   0   0   2   3   3   3   3   3
  2   2   5   0  37  55  32  39  17   0   0  43  25   0   5   2   2   2   2   2   5  10  13  18
 24  31  40  49  61  72  84  97 103 105 105 107 111 111 111 113 115 118 137 154 165 172 177 180
184 186 188 192 193 191 194 194 202 173   0   0  10   0   0   0   0   0   0   0   0   0   0   0
  0   0   0   0
  0   0   0   0   0   0   0   0   0   0   0   0   0   0   0   0   0   0   1   2   2   2   2   2
  2   2   4   0  21  64  62  49  16   0  48  60  53  24   0   4   2   2   2   1   5  10  13  18
 23  32  41  49  60  71  83  97 104 107 108 106 109 110 110 109 111 113 119 144 160 166 172 177
180 184 187 191 194 192 191 193 201 172   0   0  10   0   0   0   0   0   0   0   0   0   0   0
  0   0   0   0
  0   0   0   0   0   0   0   0   0   0   0   0   0   0   0   0   0   0   1   2   2   2   2   2
  2   2   3   3   0  50  74  69  26  20  76  48  61  55   0   5   2   2   2   1   5  10  13  18
 24  32  40  48  59  69  81  90  94 104 107 106 109 111 111 111 111 114 113 133 152 161 168 174
179 183 186 188 192 192 189 190 199 171   0   0  10   0   0   0   0   0   0   0   0   0   0   0
  0   0   0   0
  0   0   0   0   0   0   0   0   0   0   0   0   0   0   0   0   0   0   1   2   2   2   2   2
  2   2   5   0  22  68  94 103  69   0  65  68  63  38   0   4   2   1   2   2   5  10  14  19
 25  32  40  48  56  68  79  86  91  97 101 105 107 108 109 112 112 115 116 123 145 156 162 170
178 182 185 187 190 191 190 189 200 170   0   0   9   0   0   0   0   0   0   0   0   0   0   0
  0   0   0   0
  0   0   0   0   0   0   0   0   0   0   0   0   0   0   0   0   0   0   1   2   2   2   2   2
  2   2   3   0   4  57  85  86  48   0  40   3  17  38   3   0   3   1   1   2   7  11  14  19
 26  34  41  48  56  69  78  85  94  97 100 105 106 107 108 111 112 115 117 117 136 154 160 168
176 181 184 188 192 193 191 187 196 168   0   0   9   0   0   0   0   0   0   0   0   0   0   0
  0   0   0   0
  0   0   0   0   0   0   0   0   0   0   0   0   0   0   0   0   0   0   1   3   2   2   2   2
  2   2   2   5   0  26  63  63  34   7  72  77  87  66   0   0   4   1   1   3   8  11  15  19
 27  35  42  49  58  70  77  84  95  98 102 106 109 110 111 111 113 114 115 117 128 147 158 166
171 177 181 183 189 191 192 189 194 167   0   0   9   0   0   0   0   0   0   0   0   0   0   0
  0   0   0   0
  0   0   0   0   0   0   0   0   0   0   0   0   0   0   0   0   0   0   1   3   2   2   2   2
  2   2   3   1   0  58  49  40  71   0  56  81  74  42   0   3   3   2   2   5   9  12  17  22
 27  34  42  49  59  69  77  87  94  97 100 103 108 113 113 110 113 113 116 118 119 138 153 159
167 175 179 182 187 190 189 188 194 166   0   0   9   0   0   0   0   0   0   0   0   0   0   0
  0   0   0   0
  0   0   0   0   0   0   0   0   0   0   0   0   0   0   0   0   0   0   1   3   2   2   2   2
  2   2   2   3   0  41  55  57  52   0  20  58  81  65   0   2   3   2   3   7  10  13  18  24
 30  35  42  52  63  70  80  86  91  96  99 102 107 110 110 112 115 114 114 116 115 127 145 154
164 171 176 181 185 186 186 186 193 165   0   0   9   0   0   0   0   0   0   0   0   0   0   0
  0   0   0   0
  0   0   0   0   0   0   0   0   0   0   0   0   0   0   0   0   0   0   1   2   2   2   2   2
  2   2   2   3   2   0  26  29   0   2   0  64 101  53   0   8   2   2   4   8  11  15  19  25
 31  38  47  57  64  72  80  84  87  94  98 101 104 107 108 109 112 112 111 114 117 118 134 151
161 166 171 176 180 182 185 186 194 167   0   0   9   0   0   0   0   0   0   0   0   0   0   0
  0   0   0   0
  0   0   0   0   0   0   0   0   0   0   0   0   0   0   0   0   0   0   1   2   2   2   2   2
  2   2   2   2   3   4   0   0   4   8   0  50  96  67   0   2   3   2   6   9  13  17  22  27
 32  41  52  58  67  74  79  84  88  93  96 101 105 107 107 107 111 112 110 113 117 117 126 147
158 162 167 172 179 180 182 186 194 166   0   0   9   0   0   0   0   0   0   0   0   0   0   0
  0   0   0   0
  0   0   0   0   0   0   0   0   0   0   0   0   0   0   0   0   0   0   1   3   2   2   2   2
  2   2   2   4   3   3   6   7   5   0  14  48  66  57   6   0   3   4   8  11  14  18  24  29
 37  47  53  61  70  75  80  85  91  96  99 102 105 107 108 109 111 113 112 114 115 119 121 138
152 157 162 171 177 179 183 185 194 165   0   0   9   0   0   0   0   0   0   0   0   0   0   0
  0   0   0   0
  0   0   0   0   0   0   0   0   0   0   0   0   0   0   0   0   0   0   1   2   2   2   2   2
  2   2   3   0   0   3   2   3   4   3   2   0   0   0   2   3   3   7   9  12  17  21  27  34
 42  49  56  64  72  78  83  87  93  98 100 102 105 107 108 110 111 113 114 116 117 118 118 131
150 157 160 167 173 179 182 182 190 165   0   0   9   0   0   0   0   0   0   0   0   0   0   0
  0   0   0   0
  0   0   0   0   0   0   0   0   0   0   0   0   0   0   0   0   0   0   1   2   2   2   2   2
  2   3   0  36  40   2   2   3   0   3   3   4   8   7   2   3   6   9  11  15  20  24  31  41
 47  51  58  66  74  81  86  90  96  99 101 104 106 109 108 110 111 112 112 114 116 118 117 123
144 155 161 165 172 176 180 179 188 161   0   0   8   0   0   0   0   0   0   0   0   0   0   0
  0   0   0   0
  0   0   0   0   0   0   0   0   0   0   0   0   0   0   0   0   0   0   1   2   2   2   2   2
  3   2   0  57  44   0   4   5  24   6   1   2   1   2   3   5   9  10  14  19  23  29  35  42
 49  58  63  70  79  84  86  91  97 102 105 107 109 109 109 109 112 114 112 112 115 118 120 120
133 150 156 163 170 172 177 178 185 159   0   0   8   0   0   0   0   0   0   0   0   0   0   0
  0   0   0   0
  0   0   0   0   0   0   0   0   0   0   0   0   0   0   0   0   0   0   1   2   2   2   2   2
  5   0  18  48  43  15   0   8  45  14   0   4  10  11   8   9  11  13  17  21  26  32  39  46
 52  60  69  76  82  87  89  95 101 104 107 108 110 110 111 111 111 113 112 113 115 116 118 121
130 147 155 160 168 173 177 180 189 162   0   0   8   0   0   0   0   0   0   0   0   0   0   0
  0   0   0   0
  0   0   0   0   0   0   0   0   0   0   0   0   0   0   0   0   0   0   1   3   2   2   2   2
  3   1   2  35  43   9   0   6  49  14  13  46   0   0   0  13  15  15  19  24  30  36  44  53
 58  64  73  80  83  86  90  96 103 105 106 108 112 112 111 110 111 113 111 112 116 115 116 118
123 140 154 161 168 175 179 182 191 161   0   0   8   0   0   0   0   0   0   0   0   0   0   0
  0   0   0   0
  0   0   0   0   0   0   0   0   0   0   0   0   0   0   0   0   0   0   1   3   2   2   2   2
  2   3   1   0   0   1   3   3  35  10   5  72  72 108  97   0  18  19  21  27  34  42  50  60
 64  69  75  83  85  90  92  97 104 106 108 110 112 114 111 111 111 112 115 116 116 116 116 118
120 133 151 160 165 168 173 176 186 159   0   0   8   0   0   0   0   0   0   0   0   0   0   0
  0   0   0   0
  0   0   0   0   0   0   0   0   0   0   0   0   0   0   0   0   0   0   1   2   2   2   2   2
  2   2   3   2   3   4   3   3   0   4   0  39  66  87  71   4  22  22  25  32  39  46  54  62
 67  73  78  83  88  93  97 100 105 109 108 107 113 117 117 116 116 116 117 118 119 120 121 124
124 125 143 155 159 165 168 172 183 157   0   0   8   0   0   0   0   0   0   0   0   0   0   0
  0   0   0   0
  0   0   0   0   0   0   0   0   0   0   0   0   0   0   0   0   0   0   1   2   2   2   2   2
  2   2   2   3   3   3   3   3   4   3   4   0   0   0   0  24  27  24  29  37  43  50  58  64
 71  78  82  87  93  98 103 104 105 109 111 114 117 116 115 114 116 117 117 119 121 119 120 122
123 121 135 152 158 164 167 168 183 158   0   0   8   0   0   0   0   0   0   0   0   0   0   0
  0   0   0   0
  0   0   0   0   0   0   0   0   0   0   0   0   0   0   0   0   0   0   1   2   2   2   2   2
  2   2   2   3   3   3   3   4   4   3   3  11  16  22  24  27  32  31  37  44  51  58  63  69
 76  82  86  90  99 106 108 107 111 115 119 120 115 113 112 111 113 114 118 117 117 118 117 118
123 119 128 148 156 160 166 168 181 157   0   0   8   0   0   0   0   0   0   0   0   0   0   0
  0   0   0   0
  0   0   0   0   0   0   0   0   0   0   0   0   0   0   0   0   0   0   1   3   2   2   2   2
  2   2   2   2   2   3   3   3   3   3   7  11  14  18  25  33  39  39  42  48  58  65  70  74
 77  83  90  97 107 112 114 115 120 120 117 114 113 113 112 113 116 119 116 115 119 118 116 119
122 122 126 141 152 157 162 166 178 155   0   0   8   0   0   0   0   0   0   0   0   0   0   0
  0   0   0   0
  0   0   0   0   0   0   0   0   0   0   0   0   0   0   0   0   0   0   1   3   2   2   2   3
  2   2   2   2   2   3   3   3   3   5  11  13  17  22  27  34  39  41  46  53  60  66  75  83
 87  91 100 108 114 116 115 116 117 117 116 116 114 112 115 118 118 116 114 116 120 119 119 121
122 123 124 135 151 157 160 164 176 154   0   0   7   0   0   0   0   0   0   0   0   0   0   0
  0   0   0   0
  0   0   0   0   0   0   0   0   0   0   0   0   0   0   0   0   0   0   1   3   2   2   2   2
  2   2   2   2   2   2   2   2   4   8  11  13  17  21  26  31  37  45  52  59  66  74  82  90
 96 102 107 110 115 119 118 118 119 117 117 119 116 117 119 118 118 114 114 116 118 119 120 120
121 122 123 132 148 154 160 166 174 152   0   0   7   0   0   0   0   0   0   0   0   0   0   0
  0   0   0   0
  0   0   0   0   0   0   0   0   0   0   0   0   0   0   0   0   0   0   1   2   2   2   2   2
  2   2   2   2   2   2   2   3   7  10  12  15  19  24  30  36  42  48  55  66  76  84  88  94
 97 103 106 109 116 120 120 120 118 115 116 116 121 123 118 116 117 113 114 117 119 120 121 122
122 124 126 128 142 152 158 162 172 149   0   0   7   0   0   0   0   0   0   0   0   0   0   0
  0   0   0   0
  0   0   0   0   0   0   0   0   0   0   0   0   0   0   0   0   0   0   1   2   2   2   2   2
  2   2   2   2   2   3   3   5   9  12  15  20  24  29  34  41  47  55  71  81  87  90  92  96
 99 102 106 111 115 117 119 118 118 118 119 121 124 121 115 115 118 115 116 117 121 124 123 121
121 125 124 125 137 149 155 160 175 148   0   0   7   0   0   0   0   0   0   0   0   0   0   0
  0   0   0   0
  0   0   0   0   0   0   0   0   0   0   0   0   0   0   0   0   0   0   1   2   2   2   2   2
  2   3   3   3   3   3   4   8  11  14  19  24  29  33  40  48  56  76  89  85  88  90  94  99
103 105 108 113 115 116 115 118 119 119 117 117 119 117 118 118 118 115 114 117 125 125 121 120
125 124 121 126 135 147 155 160 177 153   0   0   7   0   0   0   0   0   0   0   0   0   0   0
  0   0   0   0
  0   0   0   0   0   0   0   0   0   0   0   0   0   0   0   0   0   0   1   2   2   2   2   3
  3   3   3   3   3   3   7  11  13  18  22  26  35  47  54  58  70  82  79  80  86  89  96  99
100 104 109 114 115 117 118 122 125 123 121 118 118 118 120 118 114 116 117 120 129 129 121 126
132 133 130 132 132 144 157 162 177 154   0   0   8   0   0   0   0   0   0   0   0   0   0   0
  0   0   0   0
  0   0   0   0   0   0   0   0   0   0   0   0   0   0   0   0   0   0   1   2   2   3   3   3
  3   3   3   3   3   6  11  14  17  21  24  29  47  62  61  64  73  76  75  84  92  95 101 102
104 110 115 124 129 130 129 128 134 129 120 117 117 123 125 124 123 121 122 126 132 133 131 134
140 144 135 132 131 143 158 161 175 150   0   0   7   0   0   0   0   0   0   0   0   0   0   0
  0   0   0   0
  0   0   0   0   0   0   0   0   0   0   0   0   0   0   0   0   0   0   1   3   3   3   3   3
  3   3   3   3   4  10  13  17  22  26  32  45  60  63  66  73  79  85  89  96  99  99 102 106
112 118 123 130 133 131 125 122 127 130 125 124 127 135 136 131 132 130 125 129 133 136 142 144
142 137 129 129 132 139 150 153 167 146   0   0   7   0   0   0   0   0   0   0   0   0   0   0
  0   0   0   0
  0   0   0   0   0   0   0   0   0   0   0   0   0   0   0   0   0   0   2   3   3   3   3   3
  3   3   3   3   8  12  14  17  22  28  38  49  59  61  65  71  77  84  92 101 107 111 114 117
123 123 125 123 122 121 121 120 124 127 125 129 134 131 125 124 125 126 129 132 135 137 140 141
136 132 131 133 132 130 143 152 165 147   0   0   7   0   0   0   0   0   0   0   0   0   0   0
  0   0   0   0
  0   0   0   0   0   0   0   0   0   0   0   0   0   0   0   0   0   0   1   3   3   3   3   3
  3   3   3   5  10  14  16  19  25  33  40  49  59  61  64  69  77  89  95  98 109 116 116 120
121 122 121 118 119 119 121 122 126 125 124 127 127 126 124 125 131 133 137 138 139 142 141 135
138 141 136 128 131 131 142 151 164 144   0   0   6   0   0   0   0   0   0   0   0   0   0   0
  0   0   0   0
  0   0   0   0   0   0   0   0   0   0   0   0   0   0   0   0   0   0   2   3   3   3   3   3
  3   3   4   7  11  14  17  23  30  37  45  56  66  67  72  83  95 107 108 107 113 116 115 114
113 114 116 119 119 119 122 124 126 123 124 128 127 127 128 127 131 140 138 138 138 145 143 137
142 137 129 129 134 129 135 149 159 139   0   0   6   0   0   0   0   0   0   0   0   0   0   0
  0   0   0   0
  0   0   0   0   0   0   0   0   0   0   0   0   0   0   0   0   0   0   2   3   3   3   4   4
  3   3   6  10  13  16  21  29  34  43  52  59  69  75  87 100 104 106 111 111 112 114 114 115
117 119 118 116 118 119 117 120 121 122 124 123 123 124 127 129 133 142 142 141 141 141 137 139
139 135 133 132 129 128 136 145 155 136   1   0   6   0   0   0   0   0   0   0   0   0   0   0
  0   0   0   0
  0   0   0   0   0   0   0   0   0   0   0   0   0   0   0   0   0   0   2   3   3   3   4   4
  4   4   8  12  15  19  27  32  42  54  58  64  75  81  91 102 103 103 108 107 108 111 110 114
122 123 117 114 119 123 121 120 121 126 125 121 120 121 125 134 138 140 143 140 135 134 130 134
133 135 134 129 132 132 135 141 152 132   1   0   5   0   0   0   0   0   0   0   0   0   0   0
  0   0   0   0
  0   0   0   0   0   0   0   0   0   0   0   0   0   0   0   0   0   0   2   3   3   3   4   4
  3   6  10  14  18  24  30  44  55  56  60  68  77  79  88  99 104 106 106 105 108 110 112 117
117 116 114 116 123 122 122 123 125 128 125 124 127 129 134 141 139 137 140 134 132 131 131 132
133 133 127 128 129 126 131 136 151 134   0   0   6   0   0   0   0   0   0   0   0   0   0   0
  0   0   0   0
  0   0   0   0   0   0   0   0   0   0   0   0   0   0   0   0   0   0   2   3   3   3   3   4
  4   9  13  17  22  30  41  55  55  57  65  72  80  87  94 106 109 108 111 112 113 114 116 120
119 119 120 127 129 125 125 123 123 123 124 133 137 134 134 131 133 140 135 131 133 131 129 134
140 130 127 126 123 126 131 135 152 136   0   0   6   0   0   0   0   0   0   0   0   0   0   0
  0   0   0   0
  0   0   0   0   0   0   0   0   0   0   0   0   0   0   0   0   0   0   2   3   3   3   4   4
  6  12  15  19  24  36  48  54  58  66  70  77  90  92  99 112 109 111 113 114 117 118 120 123
122 119 123 128 131 128 123 121 121 121 121 125 133 133 128 128 135 135 129 130 129 134 134 134
138 134 128 125 123 126 130 132 150 136   0   0   6   0   0   0   0   0   0   0   0   0   0   0
  0   0   0   0
  0   0   0   0   0   0   0   0   0   0   0   0   0   0   0   0   0   0   2   4   3   4   4   4
  9  13  16  22  27  37  51  57  66  74  78  88  95 100 115 109 103 106 107 108 114 117 121 122
121 121 121 121 123 119 115 115 118 118 120 123 133 139 135 136 139 138 133 129 131 136 137 133
135 129 121 122 125 125 127 132 150 133   0   0   5   0   0   0   0   0   0   0   0   0   0   0
  0   0   0   0
  0   0   0   0   0   0   0   0   0   0   0   0   0   0   0   0   0   0   2   4   4   4   4   7
 12  15  20  26  31  42  57  73  84  87  93  96 103 114 116 108 104 106 107 107 114 116 114 116
118 118 116 118 117 116 114 114 117 118 122 129 135 139 138 137 143 138 133 130 135 137 135 138
135 127 125 128 127 127 128 132 145 129   2   0   5   0   0   0   0   0   0   0   0   0   0   0
  0   0   0   0
  0   0   0   0   0   0   0   0   0   0   0   0   0   0   0   0   0   0   2   4   4   4   5   9
 14  18  24  30  38  47  65  87  90  90  97 104 114 118 112 109 109 110 115 118 116 112 112 115
116 114 111 114 115 114 113 116 119 123 126 126 128 135 136 139 141 136 135 132 139 143 139 134
133 130 131 132 128 129 128 129 144 130   1   0   5   0   0   0   0   0   0   0   0   0   0   0
  0   0   0   0
  0   0   0   0   0   0   0   0   0   0   0   0   0   0   0   0   0   0   2   4   4   4   6  11
 15  20  27  36  42  53  82  85  86  94 104 108 107 114 119 114 112 114 116 114 111 110 112 116
116 114 111 110 113 114 114 119 123 123 119 119 126 135 132 135 139 138 133 135 142 141 140 137
135 135 134 132 132 133 134 133 144 127   0   0   5   0   0   0   0   0   0   0   0   0   0   0
  0   0   0   0
  0   0   0   0   0   0   0   0   0   0   0   0   0   0   0   0   0   0   2   4   4   4   9  13
 17  22  33  43  47  69  87  82  92 107 116 110 106 109 116 115 112 111 111 111 114 117 117 121
120 117 117 118 119 121 123 126 126 122 119 118 121 135 140 147 147 139 139 142 142 140 139 139
139 136 134 136 138 135 133 132 143 123   0   0   4   0   0   0   0   0   0   0   0   0   0   0
  0   0   0   0
  0   0   0   0   0   0   0   0   0   0   0   0   0   0   0   0   0   0   2   4   4   6  11  15
 20  26  39  48  60  73  81  86 102 112 113 109 108 110 112 111 111 116 117 114 112 118 123 128
126 121 121 123 131 136 132 122 121 124 120 117 127 140 154 161 146 137 136 142 141 137 135 132
135 136 137 140 134 131 130 130 142 121   0   0   4   0   0   0   0   0   0   0   0   0   0   0
  0   0   0   0
  0   0   0   0   0   0   0   0   0   0   0   0   0   0   0   0   0   0   2   4   4   8  13  18
 23  33  46  51  65  77  83  93 110 107 103 106 108 110 114 119 120 116 114 111 112 113 116 118
119 119 123 131 140 141 128 117 123 126 125 126 135 147 157 147 135 132 136 140 137 132 128 131
137 136 136 133 130 133 132 131 138 119   0   0   4   0   0   0   0   0   0   0   0   0   0   0
  0   0   0   0
  0   0   0   0   0   0   0   0   0   0   0   0   0   0   0   0   0   0   3   4   5  11  15  21
 28  41  52  57  71  82  87 111 113 100 100 101 104 105 112 116 114 114 114 114 115 114 114 118
124 124 126 129 126 129 129 128 131 131 130 130 136 156 157 138 137 139 140 137 133 130 128 133
140 137 132 128 127 131 133 134 140 121   0   0   4   0   0   0   0   0   0   0   0   0   0   0
  0   0   0   0
  0   0   0   0   0   0   0   0   0   0   0   0   0   0   0   0   0   0   3   4   6  12  17  24
 31  49  62  63  78  82 101 117 105  99  97  97  99  99 102 110 118 115 107 112 116 115 119 124
129 130 129 124 121 130 137 137 131 130 129 132 140 147 151 150 147 142 135 130 130 130 132 134
138 137 135 134 134 132 134 132 138 120   1   0   4   0   0   0   0   0   0   0   0   0   0   0
  0   0   0   0
  0   0   0   0   0   0   0   0   0   0   0   0   0   0   0   0   0   0   3   4   8  14  20  27
 36  62  69  72  87 101 112 101  96  97  98 100 101 103 109 112 117 115 112 119 121 117 120 124
123 126 123 125 131 137 134 128 125 127 133 140 138 147 157 159 144 136 134 131 129 131 135 138
140 138 133 135 140 137 133 129 135 117   0   0   4   0   0   0   0   0   0   0   0   0   0   0
  0   0   0   0
  0   0   0   0   0   0   0   0   0   0   0   0   0   0   0   0   0   0   2   5  10  16  24  29
 50  71  72  92 106 114 104  93  98  97  98 102 107 107 108 109 113 121 123 117 113 112 113 119
124 127 133 134 136 133 128 123 120 130 143 143 140 157 162 147 133 132 133 134 134 134 132 137
138 130 128 130 133 129 125 129 138 116   0   0   4   0   0   0   0   0   0   0   0   0   0   0
  0   0   0   0
  0   0   0   0   0   0   0   0   0   0   0   0   0   0   0   0   0   0   2   6  13  19  26  35
 65  74  70 104 119 111  98  98 105 100 100 106 104 103 112 113 113 116 113 112 109 109 109 114
125 131 130 126 131 129 123 124 126 136 141 137 131 149 158 141 132 130 129 135 139 135 133 137
136 132 130 129 134 133 132 135 139 116   0   0   4   0   0   0   0   0   0   0   0   0   0   0
  0   0   0   0
  0   0   0   0   0   0   0   0   0   0   0   0   0   0   0   0   0   0   2   8  15  22  29  46
 68  71  81 120 128 115  98 101 105 101 102 107 101 110 118 113 109 106 109 111 109 108 111 116
120 122 120 122 133 135 128 131 138 134 128 122 129 146 154 142 132 131 131 138 141 138 134 134
136 138 130 132 137 135 132 130 136 115   0   0   4   0   0   0   0   0   0   0   0   0   0   0
  0   0   0   0
  0   0   0   0   0   0   0   0   0   0   0   0   0   0   0   0   0   0   3  10  17  25  33  51
 64  73  93 125 125 110 104 101 100 102 107 106 107 118 117 109 109 113 113 112 111 111 113 111
114 118 120 125 130 135 134 131 138 132 122 122 135 153 150 139 136 135 136 142 144 140 138 136
139 141 143 143 142 134 129 126 135 116   0   0   4   0   0   0   0   0   0   0   0   0   0   0
  0   0   0   0
  0   0   0   0   0   0   0   0   0   0   0   0   0   0   0   0   0   0   3  12  19  27  38  52
 64  81  96 119 126 113 111 107 104 100 102 109 113 114 112 108 111 115 114 109 109 110 110 112
117 122 128 129 127 131 129 131 139 134 130 138 151 164 152 144 147 145 144 146 146 141 139 140
144 152 152 142 137 136 131 130 139 116   0   0   4   0   0   0   0   0   0   0   0   0   0   0
  0   0   0   0
  0   0   0   0   0   0   0   0   0   0   0   0   0   0   0   0   0   0   4  14  21  30  42  55
 68  89 101 120 133 121 114 106 103 102 104 108 107 107 106 110 117 116 114 110 109 110 112 117
125 132 134 132 128 130 133 134 134 129 131 144 158 160 152 144 147 150 149 147 147 142 140 143
145 148 145 142 140 134 133 131 138 117   0   0   4   0   0   0   0   0   0   0   0   0   0   0
  0   0   0   0
  0   0   0   0   0   0   0   0   0   0   0   0   0   0   0   0   0   0   6  16  23  33  44  57
 73  93 110 127 135 129 119 106 107 110 110 106 106 107 110 114 119 121 118 112 112 113 116 123
127 126 131 131 124 127 131 129 128 130 131 133 145 145 142 137 142 154 148 144 141 138 140 141
141 142 143 139 134 134 132 129 137 118   0   0   4   0   0   0   0   0   0   0   0   0   0   0
  0   0   0   0
  0   0   0   0   0   0   0   0   0   0   0   0   0   0   0   0   0   0   8  18  26  37  47  62
 80  99 117 130 131 125 118 114 113 111 109 111 110 107 108 114 117 117 114 111 113 113 122 122
117 118 124 122 117 121 126 125 130 132 128 139 148 144 142 139 149 152 142 140 138 141 142 142
141 142 140 133 134 136 133 130 135 114   0   0   4   0   0   0   0   0   0   0   0   0   0   0
  0   0   0   0
  0   0   0   0   0   0   0   0   0   0   0   0   0   0   0   0   0   0   9  20  28  39  50  71
 88 109 122 129 131 116 119 119 116 114 114 115 111 105 112 118 114 110 111 114 115 116 124 121
113 115 122 118 115 123 128 128 132 129 130 146 147 137 136 141 151 143 138 139 140 141 141 141
141 139 131 130 132 135 137 135 136 117   2   0   4   0   0   0   0   0   0   0   0   0   0   0
  0   0   0   0
  0   0   0   0   0   0   0   0   0   0   0   0   0   0   0   0   0   0  10  21  30  40  56  84
103 116 116 121 131 128 117 114 114 118 119 113 108 111 118 118 111 108 112 115 110 114 115 116
116 116 120 118 120 127 129 130 130 127 132 142 135 132 136 155 154 140 138 136 142 146 141 138
135 131 130 132 131 134 135 135 140 121   0   0   4   0   0   0   0   0   0   0   0   0   0   0
  0   0   0   0
  0   0   0   0   0   0   0   0   0   0   0   0   0   0   0   0   0   0  11  23  31  45  60  91
114 120 118 114 122 125 110 110 115 125 125 123 118 119 119 115 113 111 116 117 116 114 113 115
117 119 119 120 123 123 123 127 128 127 133 138 132 134 143 160 148 138 137 137 145 144 140 134
133 137 136 135 136 134 130 133 139 117   0   0   4   0   0   0   0   0   0   0   0   0   0   0
  0   0   0   0
  0   0   0   0   0   0   0   0   0   0   0   0   0   0   0   0   0   0  12  27  38  51  67  87
105 125 119 109 112 115 108 109 113 129 135 130 121 119 113 112 117 116 118 122 124 116 115 126
125 118 119 119 119 120 119 125 127 126 130 130 132 135 142 156 145 138 138 143 146 140 135 132
135 139 135 132 133 129 133 134 136 116   0   0   4   0   0   0   0   0   0   0   0   0   0   0
  0   0   0   0
  0   0   0   0   0   0   0   0   0   0   0   0   0   0   0   0   0   0  13  28  44  62  77  82
106 128 109 103 101 103 104 107 107 110 121 122 117 114 108 112 118 124 125 117 114 116 118 125
122 115 116 113 114 116 120 123 125 126 130 134 135 136 143 151 138 142 143 144 144 133 130 131
135 137 132 130 129 130 133 132 134 111   0   0   4   0   0   0   0   0   0   0   0   0   0   0
  0   0   0   0
  0   0   0   0   0   0   0   0   0   0   0   0   0   0   0   0   0   0  14  27  43  65  74  88
117 117 105 102  95 103 104 103 106 104 105 112 110 113 112 109 116 121 116 111 112 116 119 118
114 116 117 113 115 118 123 124 126 131 133 135 134 139 142 148 144 143 138 140 135 129 130 133
140 140 133 131 132 133 134 128 130 112   1   0   4   0   0   0   0   0   0   0   0   0   0   0
  0   0   0   0
  0   0   0   0   0   0   0   0   0   0   0   0   0   0   0   0   0   0  13  29  43  58  78 101
125 109 106 100  97 106 104 105 112 111 106 110 110 110 109 112 117 113 110 112 113 118 120 115
116 116 117 115 117 120 123 126 131 133 130 134 138 136 142 150 143 135 141 142 131 129 133 136
139 137 132 134 133 132 129 125 134 116   0   0   4   0   0   0   0   0   0   0   0   0   0   0
  0   0   0   0
  0   0   0   0   0   0   0   0   0   0   0   0   0   0   0   0   0   0  15  30  44  61  76 105
124 103 101 102 104 104 106 111 116 113 108 109 110 106 107 113 114 111 111 112 117 121 118 116
116 114 113 117 121 119 121 122 131 136 135 136 133 128 147 147 132 137 145 138 133 136 135 135
136 137 135 130 130 129 125 130 138 115   0   0   4   0   0   0   0   0   0   0   0   0   0   0
  0   0   0   0
  0   0   0   0   0   0   0   0   0   0   0   0   0   0   0   0   0   0  15  32  47  65  75 113
120 102  99 104 110 109 110 115 115 110 106 107 112 110 109 111 113 113 114 119 122 118 114 115
115 115 120 127 123 119 119 120 134 134 129 130 125 135 154 141 132 138 135 132 134 135 133 135
140 139 133 133 130 126 127 134 134 111   1   0   4   0   0   0   0   0   0   0   0   0   0   0
  0   0   0   0
  0   0   0   0   0   0   0   0   0   0   0   0   0   0   0   0   0   0  14  34  50  68  81 127
135 115 104 104 111 117 112 115 118 115 108 106 112 116 115 117 124 122 117 120 118 115 112 116
118 121 125 123 117 116 119 123 131 128 127 128 129 145 147 132 137 135 132 133 133 130 130 136
140 140 137 136 131 126 132 133 132 114   0   0   4   0   0   0   0   0   0   0   0   0   0   0
  0   0   0   0
  0   0   0   0   0   0   0   0   0   0   0   0   0   0   0   0   0   0  14  34  49  64  90 136
142 117 109 106 107 108 103 108 111 117 118 115 117 118 124 125 128 122 116 115 114 116 115 120
122 123 121 115 113 116 120 122 126 129 129 128 138 146 138 135 139 133 129 130 129 129 137 140
142 143 134 129 126 131 135 128 132 113   0   0   4   0   0   0   0   0   0   0   0   0   0   0
  0   0   0   0
  0   0   0   0   0   0   0   0   0   0   0   0   0   0   0   0   0   0  12  36  57  77  92 127
130 109 109 110 114 104  99 103 107 111 124 128 123 120 121 118 120 116 114 112 112 114 117 121
122 122 120 114 117 118 119 126 127 126 127 138 145 146 142 141 138 133 129 134 137 138 139 138
140 134 129 128 129 133 129 126 131 112   0   0   4   0   0   0   0   0   0   0   0   0   0   0
  0   0   0   0
  0   0   0   0   0   0   0   0   0   0   0   0   0   0   0   0   0   0  11  34  65  90  89  99
115 110 115 123 117 103 106 107 111 112 119 126 124 121 116 112 116 117 113 112 116 116 116 122
122 124 125 121 121 119 120 125 125 130 135 150 152 153 144 146 141 135 138 139 135 133 135 134
133 131 129 131 134 133 131 126 129 114   1   0   4   0   0   0   0   0   0   0   0   0   0   0
  0   0   0   0
  0   0   0   0   0   0   0   0   0   0   0   0   0   0   0   0   0   0  12  28  75 109  96 103
125 118 131 131 113 107 109 111 114 116 120 116 117 119 113 113 114 115 116 114 120 118 116 120
122 124 123 125 122 121 126 125 132 139 151 158 157 143 140 149 147 141 139 131 128 133 131 128
128 131 133 135 136 131 127 122 131 114   0   0   4   0   0   0   0   0   0   0   0   0   0   0
  0   0   0   0
  0   0   0   0   0   0   0   0   0   0   0   0   0   0   0   0   0   2   7  26  92 131 126 131
145 122 131 132 121 118 117 113 111 109 112 113 119 125 116 109 109 112 114 115 119 117 116 121
130 127 122 123 122 124 124 128 139 148 157 158 149 140 145 142 139 138 132 129 133 135 130 130
128 134 139 135 132 126 121 124 135 112   0   0   4   0   0   0   0   0   0   0   0   0   0   0
  0   0   0   0
  0   0   0   0   0   0   0   0   0   0   0   0   0   0   0   0   0   3   2  28  93 121 133 135
135 126 127 132 123 121 118 111 108 105 107 110 117 123 115 108 108 110 109 111 116 121 120 123
127 124 123 121 125 128 126 130 145 154 153 147 138 145 145 131 134 135 130 130 134 132 131 132
133 141 136 130 125 123 125 129 133 109   0   0   3   0   0   0   0   0   0   0   0   0   0   0
  0   0   0   0
  0   0   0   0   0   0   0   0   0   0   0   0   0   0   0   0   0   2   3  23  83 104 122 131
125 123 135 133 121 118 109 104 105 104 106 109 112 114 112 110 112 111 111 113 121 125 121 122
121 121 120 120 123 128 125 135 153 150 141 133 133 138 129 126 130 127 126 130 132 131 132 135
138 134 127 128 125 126 131 132 132 108   0   0   3   0   0   0   0   0   0   0   0   0   0   0
  0   0   0   0
  0   0   0   0   0   0   0   0   0   0   0   0   0   0   0   0   0   0   8   5  73  99 116 128
123 120 136 129 114 114 108 104 104 107 108 106 113 111 108 110 113 113 114 118 125 124 119 121
120 121 117 122 126 127 130 151 154 142 136 130 138 132 124 127 126 125 124 129 136 137 136 134
131 125 126 128 131 134 131 128 127 103   0   0   3   0   0   0   0   0   0   0   0   0   0   0
  0   0   0   0
  0   0   0   0   0   0   0   0   0   0   0   0   0   0   0   0   0   0   9   2  48  94 113 118
115 115 115 114 109 106 106 108 108 111 113 108 114 114 109 109 109 113 117 117 124 122 114 114
116 115 117 124 126 132 146 150 140 136 134 134 141 131 125 127 127 127 129 136 138 136 131 129
127 128 130 128 134 132 129 123 121  97   0   0   3   0   0   0   0   0   0   0   0   0   0   0
  0   0   0   0
  0   0   0   0   0   0   0   0   0   0   0   0   0   0   0   0   0   0   4  14  18  66  96  97
 93  99 107 108 114 110 106 108 111 113 108 112 118 116 113 112 109 115 115 113 116 119 121 122
118 116 119 122 129 136 140 136 130 131 132 131 135 128 127 123 128 131 133 137 134 130 129 129
128 133 130 130 131 122 124 124 119  97   0   0   3   0   0   0   0   0   0   0   0   0   0   0
  0   0   0   0
  0   0   0   0   0   0   0   0   0   0   0   0   0   0   0   0   0   0   3  11  17  41  68  73
 79  92 111 101 105 112 111 107 107 109 107 110 111 111 111 111 115 117 113 109 111 116 121 125
119 117 120 127 130 130 135 128 127 130 124 129 130 123 121 125 129 130 134 134 135 132 129 126
126 130 126 129 126 116 116 116 114  92   0   0   2   0   0   0   0   0   0   0   0   0   0   0
  0   0   0   0
  0   0   0   0   0   0   0   0   0   0   0   0   0   0   0   0   0   0   3   8  14  32  55  67
 77  87 102  95  94 106 108 104 101 103 106 107 102 104 109 108 116 114 109 109 112 111 113 115
118 121 121 126 122 124 125 123 132 129 122 129 127 120 117 123 126 129 130 133 130 125 123 121
125 130 126 120 116 112 110 109  99  71   0   0   1   0   0   0   0   0   0   0   0   0   0   0
  0   0   0   0
  0   0   0   0   0   0   0   0   0   0   0   0   0   0   0   0   0   0   4   6  13  20  43  63
 66  79  94  89  93 103 104 101 106 106 104 102 101 106 110 113 116 111 110 110 114 118 118 117
121 121 118 117 119 124 127 134 135 126 124 134 127 122 124 124 126 129 126 131 127 122 118 121
127 126 122 116 114 107 103  96  83  63   0   0   1   0   0   0   0   0   0   0   0   0   0   0
  0   0   0   0
  0   0   0   0   0   0   0   0   0   0   0   0   0   0   0   0   0   0   4   6   9  17  29  58
 64  72  90  85  88  98 102 104 105 104 103 100 104 106 108 109 113 112 112 111 116 120 117 116
118 115 115 118 129 132 133 135 132 128 131 132 125 127 126 122 124 126 122 123 123 118 117 125
131 125 122 115 111  98  91  81  77  59   0   0   1   0   0   0   0   0   0   0   0   0   0   0
  0   0   0   0
  0   0   0   0   0   0   0   0   0   0   0   0   0   0   0   0   0   0   4   7   6  15  20  43
 63  73  89  86  84  94  97 101 105 103 104 109 106 103 110 109 110 113 115 116 115 118 123 118
118 118 117 127 131 123 124 129 132 133 132 125 123 127 120 118 121 120 118 119 119 116 120 123
119 117 122 111  98  90  81  75  71  53   0   0   1   0   0   0   0   0   0   0   0   0   0   0
  0   0   0   0
  0   0   0   0   0   0   0   0   0   0   0   0   0   0   0   0   0   0   4   7   5  10  19  25
 52  79  85  80  88  96 102 104 107 109 114 110 103 104 116 116 110 115 115 112 114 117 122 119
118 119 122 127 121 125 128 127 122 122 128 127 120 119 116 118 120 117 116 119 120 117 114 112
109 103 108  96  86  80  75  71  64  49   0   0   1   0   0   0   0   0   0   0   0   0   0   0
  0   0   0   0
  0   0   0   0   0   0   0   0   0   0   0   0   0   0   0   0   0   0   4   7   6   6  15  20
 36  62  81  84  92  96 106 111 113 119 113 103 107 105 114 121 116 115 111 110 117 119 119 126
127 122 125 121 124 134 134 122 120 121 130 134 124 123 120 122 123 116 114 116 116 110 106 106
 99  95  94  86  79  73  72  65  56  42   0   0   0   0   0   0   0   0   0   0   0   0   0   0
  0   0   0   0
  0   0   0   0   0   0   0   0   0   0   0   0   0   0   0   0   0   0   4   7   6   5  10  17
 29  44  59  86 100 102 104 111 112 110 108 105 103 105 112 115 112 107 110 110 113 120 122 129
132 133 131 126 127 132 136 129 125 127 136 136 126 123 121 121 116 113 112 113 108 102  99  95
 90  92  89  82  71  70  66  57  49  37   0   0   0   0   0   0   0   0   0   0   0   0   0   0
  0   0   0   0
  0   0   0   0   0   0   0   0   0   0   0   0   0   0   0   0   0   0   4   7   6   6   6  13
 19  35  45  67  88  96 108 111 110 107 104 112 110 109 113 108 106 108 111 111 112 113 123 128
129 131 124 124 122 127 129 130 126 127 135 135 124 121 118 112 108 108 106 107 103  97  91  88
 90  87  79  73  65  63  59  49  45  34   0   0   0   0   0   0   0   0   0   0   0   0   0   0
  0   0   0   0
  0   0   0   0   0   0   0   0   0   0   0   0   0   0   0   0   0   0   4   7   6   6   6   9
 15  23  37  48  68  81  92  94 101 109 104 108 116 115 116 114 110 109 109 108 110 111 115 116
123 121 115 114 118 120 118 129 126 122 126 135 128 120 112 106 104 105 103 103  96  92  88  87
 87  79  68  65  62  56  50  42  42  32   0   0   0   0   0   0   0   0   0   0   0   0   0   0
  0   0   0   0
  0   0   0   0   0   0   0   0   0   0   0   0   0   0   0   0   0   0   4   7   7   7   7   6
 12  16  28  40  52  72  78  76  86 100 104 103 107 119 121 116 114 110 108 107 110 112 108 108
112 115 110 109 116 115 115 122 119 116 119 134 120 109 103  99 101 100  99  94  89  93  89  85
 80  68  60  59  54  47  43  38  37  28   0   0   0   0   0   0   0   0   0   0   0   0   0   0
  0   0   0   0
  0   0   0   0   0   0   0   0   0   0   0   0   0   0   0   0   0   0   4   8   7   7   7   7
  7  15  19  32  41  51  68  77  79  90 110 123 116 114 116 114 112 110 110 110 109 106 104 104
104 109 107 111 115 111 114 115 114 111 117 125 112 107 101  99  97  93  92  88  90  90  82  73
 68  62  54  50  47  41  37  33  33  24   0   0   0   0   0   0   0   0   0   0   0   0   0   0
  0   0   0   0
  0   0   0   0   0   0   0   0   0   0   0   0   0   0   0   0   0   0   4   8   7   7   7   7
  6  10  17  22  34  41  50  67  75  82  95 119 119 113 119 116 109 108 110 105 103 105 104 102
103 105 109 114 114 111 114 116 114 111 117 125 112 102  98  96  95  93  91  90  84  79  73  64
 59  54  47  44  42  36  31  28  29  21   0   0   0   0   0   0   0   0   0   0   0   0   0   0
  0   0   0   0
  0   0   0   0   0   0   0   0   0   0   0   0   0   0   0   0   0   0   4   7   7   7   7   7
  7   6  11  17  25  35  40  52  62  69  80  93 102 112 119 110 112 113 104 101 107 110 109 105
104 107 112 113 108 112 119 112 108 105 110 119 109  98  93  93  96  96  87  79  74  69  62  58
 51  46  43  38  36  32  27  25  25  18   0   0   0   0   0   0   0   0   0   0   0   0   0   0
  0   0   0   0
  0   0   0   0   0   0   0   0   0   0   0   0   0   0   0   0   0   0   4   7   7   7   7   7
  7   7   6  12  18  28  36  42  53  57  67  88  99  99  98  97 105 110 102 101 103 102 103 105
106 110 112 106 104 111 113 107 105 103 110 109 101  94  91  86  85  84  76  74  71  63  55  50
 45  40  35  32  30  28  26  22  21  15   0   0   0   0   0   0   0   0   0   0   0   0   0   0
  0   0   0   0
  0   0   0   0   0   0   0   0   0   0   0   0   0   0   0   0   0   0   4   7   7   7   7   7
  7   7   7   6  13  19  31  40  45  54  59  63  75  88  96  97 100 101  94  96  97  98  98 101
105 104 101 101 103 107 105 106 105 107 106  96  93  87  81  78  78  72  70  70  64  56  52  46
 40  33  30  29  28  26  23  20  19  14   0   0   0   0   0   0   0   0   0   0   0   0   0   0
  0   0   0   0
  0   0   0   0   0   0   0   0   0   0   0   0   0   0   0   0   0   0   4   7   7   7   7   7
  7   7   7   7   7  12  21  35  42  53  58  58  60  66  80  89  90  90  89  89  91  92  95 100
100  98  99  99  97  96  97  94  95  99  88  86  87  78  72  75  72  64  60  57  53  48  44  38
 33  30  27  26  26  21  19  18  17  12   0   0   0   0   0   0   0   0   0   0   0   0   0   1
  1   1   1   1
  2   0   0   0   0   0   0   0   0   0   0   0   0   0   0   0   0   0   4   8   7   7   7   7
  7   7   7   7   7   7  12  19  28  38  50  56  60  63  69  76  78  77  76  79  83  85  87  91
 95  96  95  91  87  89  89  89  85  82  76  77  75  64  63  63  58  52  48  45  42  39  33  28
 27  24  22  21  19  16  16  15  15  11   1   1   1   1   1   1   1   1   1   1   2   3   3   4
  6   6   8  11
  0   0   0   0   0   0   0   0   0   0   0   0   0   0   0   0   0   0   5   8   7   8   8   8
  8   8   8   7   8   7   7  10  16  23  29  38  48  55  60  64  69  79  77  75  78  77  76  79
 81  80  83  86  84  81  79  84  84  79  70  66  65  61  61  55  49  46  44  39  36  31  28  26
 24  22  21  19  17  16  15  13  14  10   0   0   0   0   0   0   0   0   0   0   0   0   0   0
  0   0   0   0
  0   0   0   0   0   0   0   0   0   0   0   0   0   0   0   0   0   0   5   8   8   8   8   8
  8   8   8   8   8   8   8   8  10  15  23  26  32  40  46  50  55  66  74  75  72  71  74  77
 78  76  74  73  71  69  73  74  68  59  53  52  56  54  49  46  41  39  36  31  28  26  24  23
 21  20  18  17  16  15  13  12  13  10   0   0   0   0   0   0   0   0   0   0   0   0   0   0
  0   0   0   0
  0   0   0   0   0   0   0   0   0   0   0   0   0   0   0   0   0   0   5   8   7   7   7   8
  8   8   8   8   8   8   8   8   8   9  13  21  25  27  34  41  44  47  55  62  64  64  68  72
 70  67  64  61  58  59  60  53  49  51  49  47  47  46  40  36  32  31  28  26  24  24  23  21
 19  17  16  15  14  13  12  12  12   7   0   0   0   0   0   0   0   0   0   0   0   0   0   0
  0   0   0   0
